<svg
   version="1.2"
   width="190mm"
   height="23.180864mm"
   viewBox="0 0 108.1205 13.191192"
   id="svg87910"
   sodipodi:docname="loose examples-1.svg"
   xmlns:inkscape="http://www.inkscape.org/namespaces/inkscape"
   xmlns:sodipodi="http://sodipodi.sourceforge.net/DTD/sodipodi-0.dtd"
   xmlns:xlink="http://www.w3.org/1999/xlink"
   xmlns="http://www.w3.org/2000/svg"
   xmlns:svg="http://www.w3.org/2000/svg">
  <defs
     id="defs87914" />
  <sodipodi:namedview
     id="namedview87912"
     pagecolor="#ffffff"
     bordercolor="#000000"
     borderopacity="0.25"
     inkscape:showpageshadow="2"
     inkscape:pageopacity="0.0"
     inkscape:pagecheckerboard="0"
     inkscape:deskcolor="#d1d1d1"
     inkscape:document-units="mm"
     showgrid="false" />
  <style
     type="text/css"
     id="style83554"><![CDATA[
tspan { white-space: pre; }
]]></style>
  <!-- Page: 1/3 -->
  <g
     transform="translate(3.1967416e-8,10.147208)"
     id="g87322">
    <line
       stroke-linejoin="round"
       stroke-linecap="round"
       stroke-width="0.1"
       stroke="currentColor"
       x1="0.050000001"
       y1="0"
       x2="108.0705"
       y2="0"
       id="line87320" />
  </g>
  <g
     transform="translate(3.1967416e-8,9.1472082)"
     id="g87326">
    <line
       stroke-linejoin="round"
       stroke-linecap="round"
       stroke-width="0.1"
       stroke="currentColor"
       x1="0.050000001"
       y1="0"
       x2="108.0705"
       y2="0"
       id="line87324" />
  </g>
  <g
     transform="translate(3.1967416e-8,8.1472082)"
     id="g87330">
    <line
       stroke-linejoin="round"
       stroke-linecap="round"
       stroke-width="0.1"
       stroke="currentColor"
       x1="0.050000001"
       y1="0"
       x2="108.0705"
       y2="0"
       id="line87328" />
  </g>
  <g
     transform="translate(3.1967416e-8,7.1472082)"
     id="g87334">
    <line
       stroke-linejoin="round"
       stroke-linecap="round"
       stroke-width="0.1"
       stroke="currentColor"
       x1="0.050000001"
       y1="0"
       x2="108.0705"
       y2="0"
       id="line87332" />
  </g>
  <g
     transform="translate(3.1967416e-8,6.1472082)"
     id="g87338">
    <line
       stroke-linejoin="round"
       stroke-linecap="round"
       stroke-width="0.1"
       stroke="currentColor"
       x1="0.050000001"
       y1="0"
       x2="108.0705"
       y2="0"
       id="line87336" />
  </g>
  <g
     transform="translate(3.1967416e-8,11.147208)"
     id="g87342">
    <rect
       x="105.1577"
       y="-0.1"
       width="1.9231"
       height="0.2"
       ry="0.1"
       fill="currentColor"
       id="rect87340" />
  </g>
  <g
     transform="translate(3.1967416e-8,12.147208)"
     id="g87346">
    <rect
       x="105.1577"
       y="-0.1"
       width="1.9231"
       height="0.2"
       ry="0.1"
       fill="currentColor"
       id="rect87344" />
  </g>
  <g
     transform="translate(3.1967416e-8,11.147208)"
     id="g87350">
    <rect
       x="103.1678"
       y="-0.1"
       width="1.8899"
       height="0.2"
       ry="0.1"
       fill="currentColor"
       id="rect87348" />
  </g>
  <g
     transform="translate(3.1967416e-8,12.147208)"
     id="g87354">
    <rect
       x="103.1678"
       y="-0.1"
       width="1.8899"
       height="0.2"
       ry="0.1"
       fill="currentColor"
       id="rect87352" />
  </g>
  <g
     transform="translate(3.1967416e-8,11.147208)"
     id="g87358">
    <rect
       x="101.1778"
       y="-0.1"
       width="1.8899"
       height="0.2"
       ry="0.1"
       fill="currentColor"
       id="rect87356" />
  </g>
  <g
     transform="translate(3.1967416e-8,11.147208)"
     id="g87362">
    <rect
       x="99.330803"
       y="-0.1"
       width="1.7471"
       height="0.2"
       ry="0.1"
       fill="currentColor"
       id="rect87360" />
  </g>
  <g
     transform="translate(3.1967416e-8,11.147208)"
     id="g87366">
    <rect
       x="87.568497"
       y="-0.1"
       width="2.9430001"
       height="0.2"
       ry="0.1"
       fill="currentColor"
       id="rect87364" />
  </g>
  <g
     transform="translate(3.1967416e-8,12.147208)"
     id="g87370">
    <rect
       x="87.568497"
       y="-0.1"
       width="2.9430001"
       height="0.2"
       ry="0.1"
       fill="currentColor"
       id="rect87368" />
  </g>
  <g
     transform="translate(3.1967416e-8,5.1472082)"
     id="g87374">
    <rect
       x="69.453003"
       y="-0.1"
       width="1.9231"
       height="0.2"
       ry="0.1"
       fill="currentColor"
       id="rect87372" />
  </g>
  <g
     transform="translate(3.1967416e-8,5.1472082)"
     id="g87378">
    <rect
       x="67.463097"
       y="-0.1"
       width="1.8899"
       height="0.2"
       ry="0.1"
       fill="currentColor"
       id="rect87376" />
  </g>
  <g
     transform="translate(3.1967416e-8,4.1472082)"
     id="g87382">
    <rect
       x="65.473099"
       y="-0.1"
       width="1.8899"
       height="0.2"
       ry="0.1"
       fill="currentColor"
       id="rect87380" />
  </g>
  <g
     transform="translate(3.1967416e-8,5.1472082)"
     id="g87386">
    <rect
       x="65.473099"
       y="-0.1"
       width="1.8899"
       height="0.2"
       ry="0.1"
       fill="currentColor"
       id="rect87384" />
  </g>
  <g
     transform="translate(3.1967416e-8,4.1472082)"
     id="g87390">
    <rect
       x="63.4832"
       y="-0.1"
       width="1.8899"
       height="0.2"
       ry="0.1"
       fill="currentColor"
       id="rect87388" />
  </g>
  <g
     transform="translate(3.1967416e-8,5.1472082)"
     id="g87394">
    <rect
       x="63.4832"
       y="-0.1"
       width="1.8899"
       height="0.2"
       ry="0.1"
       fill="currentColor"
       id="rect87392" />
  </g>
  <g
     transform="translate(3.1967416e-8,3.1472082)"
     id="g87398">
    <rect
       x="61.493301"
       y="-0.1"
       width="1.8899"
       height="0.2"
       ry="0.1"
       fill="currentColor"
       id="rect87396" />
  </g>
  <g
     transform="translate(3.1967416e-8,4.1472082)"
     id="g87402">
    <rect
       x="61.493301"
       y="-0.1"
       width="1.8899"
       height="0.2"
       ry="0.1"
       fill="currentColor"
       id="rect87400" />
  </g>
  <g
     transform="translate(3.1967416e-8,5.1472082)"
     id="g87406">
    <rect
       x="61.493301"
       y="-0.1"
       width="1.8899"
       height="0.2"
       ry="0.1"
       fill="currentColor"
       id="rect87404" />
  </g>
  <g
     transform="translate(3.1967416e-8,3.1472082)"
     id="g87410">
    <rect
       x="59.5033"
       y="-0.1"
       width="1.8899"
       height="0.2"
       ry="0.1"
       fill="currentColor"
       id="rect87408" />
  </g>
  <g
     transform="translate(3.1967416e-8,4.1472082)"
     id="g87414">
    <rect
       x="59.5033"
       y="-0.1"
       width="1.8899"
       height="0.2"
       ry="0.1"
       fill="currentColor"
       id="rect87412" />
  </g>
  <g
     transform="translate(3.1967416e-8,5.1472082)"
     id="g87418">
    <rect
       x="59.5033"
       y="-0.1"
       width="1.8899"
       height="0.2"
       ry="0.1"
       fill="currentColor"
       id="rect87416" />
  </g>
  <g
     transform="translate(3.1967416e-8,2.1472082)"
     id="g87422">
    <rect
       x="57.513401"
       y="-0.1"
       width="1.8899"
       height="0.2"
       ry="0.1"
       fill="currentColor"
       id="rect87420" />
  </g>
  <g
     transform="translate(3.1967416e-8,3.1472082)"
     id="g87426">
    <rect
       x="57.513401"
       y="-0.1"
       width="1.8899"
       height="0.2"
       ry="0.1"
       fill="currentColor"
       id="rect87424" />
  </g>
  <g
     transform="translate(3.1967416e-8,4.1472082)"
     id="g87430">
    <rect
       x="57.513401"
       y="-0.1"
       width="1.8899"
       height="0.2"
       ry="0.1"
       fill="currentColor"
       id="rect87428" />
  </g>
  <g
     transform="translate(3.1967416e-8,5.1472082)"
     id="g87434">
    <rect
       x="57.513401"
       y="-0.1"
       width="1.8899"
       height="0.2"
       ry="0.1"
       fill="currentColor"
       id="rect87432" />
  </g>
  <g
     transform="translate(3.1967416e-8,3.1472082)"
     id="g87438">
    <rect
       x="55.523499"
       y="-0.1"
       width="1.8899"
       height="0.2"
       ry="0.1"
       fill="currentColor"
       id="rect87436" />
  </g>
  <g
     transform="translate(3.1967416e-8,4.1472082)"
     id="g87442">
    <rect
       x="55.523499"
       y="-0.1"
       width="1.8899"
       height="0.2"
       ry="0.1"
       fill="currentColor"
       id="rect87440" />
  </g>
  <g
     transform="translate(3.1967416e-8,5.1472082)"
     id="g87446">
    <rect
       x="55.523499"
       y="-0.1"
       width="1.8899"
       height="0.2"
       ry="0.1"
       fill="currentColor"
       id="rect87444" />
  </g>
  <g
     transform="translate(3.1967416e-8,3.1472082)"
     id="g87450">
    <rect
       x="53.5336"
       y="-0.1"
       width="1.8899"
       height="0.2"
       ry="0.1"
       fill="currentColor"
       id="rect87448" />
  </g>
  <g
     transform="translate(3.1967416e-8,4.1472082)"
     id="g87454">
    <rect
       x="53.5336"
       y="-0.1"
       width="1.8899"
       height="0.2"
       ry="0.1"
       fill="currentColor"
       id="rect87452" />
  </g>
  <g
     transform="translate(3.1967416e-8,5.1472082)"
     id="g87458">
    <rect
       x="53.5336"
       y="-0.1"
       width="1.8899"
       height="0.2"
       ry="0.1"
       fill="currentColor"
       id="rect87456" />
  </g>
  <g
     transform="translate(3.1967416e-8,4.1472082)"
     id="g87462">
    <rect
       x="51.543598"
       y="-0.1"
       width="1.8899"
       height="0.2"
       ry="0.1"
       fill="currentColor"
       id="rect87460" />
  </g>
  <g
     transform="translate(3.1967416e-8,5.1472082)"
     id="g87466">
    <rect
       x="51.543598"
       y="-0.1"
       width="1.8899"
       height="0.2"
       ry="0.1"
       fill="currentColor"
       id="rect87464" />
  </g>
  <g
     transform="translate(3.1967416e-8,4.1472082)"
     id="g87470">
    <rect
       x="49.553699"
       y="-0.1"
       width="1.8899"
       height="0.2"
       ry="0.1"
       fill="currentColor"
       id="rect87468" />
  </g>
  <g
     transform="translate(3.1967416e-8,5.1472082)"
     id="g87474">
    <rect
       x="49.553699"
       y="-0.1"
       width="1.8899"
       height="0.2"
       ry="0.1"
       fill="currentColor"
       id="rect87472" />
  </g>
  <g
     transform="translate(3.1967416e-8,5.1472082)"
     id="g87478">
    <rect
       x="47.563801"
       y="-0.1"
       width="1.8899"
       height="0.2"
       ry="0.1"
       fill="currentColor"
       id="rect87476" />
  </g>
  <g
     transform="translate(3.1967416e-8,5.1472082)"
     id="g87482">
    <rect
       x="45.540699"
       y="-0.1"
       width="1.9231"
       height="0.2"
       ry="0.1"
       fill="currentColor"
       id="rect87480" />
  </g>
  <g
     transform="translate(3.1967416e-8,11.147208)"
     id="g87486">
    <rect
       x="15.8389"
       y="-0.1"
       width="1.9231"
       height="0.2"
       ry="0.1"
       fill="currentColor"
       id="rect87484" />
  </g>
  <g
     transform="translate(3.1967416e-8,11.147208)"
     id="g87490">
    <rect
       x="13.849"
       y="-0.1"
       width="1.8899"
       height="0.2"
       ry="0.1"
       fill="currentColor"
       id="rect87488" />
  </g>
  <g
     transform="translate(3.1967416e-8,11.147208)"
     id="g87494">
    <rect
       x="11.8591"
       y="-0.1"
       width="1.8899"
       height="0.2"
       ry="0.1"
       fill="currentColor"
       id="rect87492" />
  </g>
  <g
     transform="translate(3.1967416e-8,12.147208)"
     id="g87498">
    <rect
       x="11.8591"
       y="-0.1"
       width="1.8899"
       height="0.2"
       ry="0.1"
       fill="currentColor"
       id="rect87496" />
  </g>
  <g
     transform="translate(3.1967416e-8,11.147208)"
     id="g87502">
    <rect
       x="10.012"
       y="-0.1"
       width="1.7471"
       height="0.2"
       ry="0.1"
       fill="currentColor"
       id="rect87500" />
  </g>
  <g
     transform="translate(3.1967416e-8,12.147208)"
     id="g87506">
    <rect
       x="10.012"
       y="-0.1"
       width="1.7471"
       height="0.2"
       ry="0.1"
       fill="currentColor"
       id="rect87504" />
  </g>
  <g
     transform="translate(107.9304,8.1472082)"
     id="g87510">
    <rect
       x="0"
       y="-2"
       width="0.19"
       height="4"
       ry="0.0000"
       fill="currentColor"
       id="rect87508" />
  </g>
  <g
     transform="translate(107.4404,8.1472082)"
     id="g87514">
    <rect
       x="0"
       y="-2"
       width="0.19"
       height="4"
       ry="0.0000"
       fill="currentColor"
       id="rect87512" />
  </g>
  <a
     style="color:inherit"
     xlink:href="textedit://C:/Users/Javier/AppData/Local/Temp/frescobaldi-qinprpfp/tmptsnuz2do/loose%20examples.ly:204:8:9"
     id="a87520"
     transform="translate(-5.6906,-143.33479)">
    <g
       transform="translate(107.1612,154.982)"
       id="g87518">
      <path
         transform="scale(0.004,-0.004)"
         d="m 218,136 c 55,0 108,-28 108,-89 0,-71 -55,-121 -102,-149 -35,-21 -75,-34 -116,-34 -55,0 -108,28 -108,89 0,71 55,121 102,149 35,21 75,34 116,34 z"
         fill="currentColor"
         id="path87516" />
    </g>
  </a>
  <a
     style="color:inherit"
     xlink:href="textedit://C:/Users/Javier/AppData/Local/Temp/frescobaldi-qinprpfp/tmptsnuz2do/loose%20examples.ly:201:28:29"
     id="a87526"
     transform="translate(-5.6906,-143.33479)">
    <g
       transform="translate(65.4868,145.982)"
       id="g87524">
      <path
         transform="scale(0.004,-0.004)"
         d="m 218,136 c 55,0 108,-28 108,-89 0,-71 -55,-121 -102,-149 -35,-21 -75,-34 -116,-34 -55,0 -108,28 -108,89 0,71 55,121 102,149 35,21 75,34 116,34 z"
         fill="currentColor"
         id="path87522" />
    </g>
  </a>
  <a
     style="color:inherit"
     xlink:href="textedit://C:/Users/Javier/AppData/Local/Temp/frescobaldi-qinprpfp/tmptsnuz2do/loose%20examples.ly:201:31:32"
     id="a87532"
     transform="translate(-5.6906,-143.33479)">
    <g
       transform="translate(65.6779,144.937)"
       id="g87530">
      <path
         transform="scale(0.0022,-0.0022)"
         d="m 198,284 c 24,15 48,29 65,52 12,16 19,34 28,52 2,5 6,7 11,7 8,0 16,-6 16,-17 V 161 h 79 c 12,0 18,-9 18,-18 0,-9 -6,-18 -18,-18 h -79 c 2,-51 33,-96 80,-96 10,0 15,-8 15,-15 C 413,7 408,0 398,0 349,0 302,14 253,14 204,14 156,0 107,0 97,0 93,7 93,14 c 0,7 4,15 14,15 47,0 79,45 81,96 H 36 c -29,0 -38,17 -38,28 0,3 1,6 2,8 78,88 123,201 123,319 0,11 8,21 17,21 1,0 3,-1 4,-1 25,-7 50,-14 76,-14 26,0 52,7 77,14 2,1 4,1 6,1 10,0 17,-7 17,-14 0,-2 0,-5 -2,-7 L 36,161 h 152 v 96 c 0,10 1,21 10,27 z"
         fill="currentColor"
         id="path87528" />
    </g>
  </a>
  <a
     style="color:inherit"
     xlink:href="textedit://C:/Users/Javier/AppData/Local/Temp/frescobaldi-qinprpfp/tmptsnuz2do/loose%20examples.ly:204:12:13"
     id="a87538"
     transform="translate(-5.6906,-143.33479)">
    <g
       transform="translate(111.1411,155.982)"
       id="g87536">
      <path
         transform="scale(0.004,-0.004)"
         d="m 218,136 c 55,0 108,-28 108,-89 0,-71 -55,-121 -102,-149 -35,-21 -75,-34 -116,-34 -55,0 -108,28 -108,89 0,71 55,121 102,149 35,21 75,34 116,34 z"
         fill="currentColor"
         id="path87534" />
    </g>
  </a>
  <a
     style="color:inherit"
     xlink:href="textedit://C:/Users/Javier/AppData/Local/Temp/frescobaldi-qinprpfp/tmptsnuz2do/loose%20examples.ly:201:34:35"
     id="a87544"
     transform="translate(-5.6906,-143.33479)">
    <g
       transform="translate(67.4767,146.482)"
       id="g87542">
      <path
         transform="scale(0.004,-0.004)"
         d="m 218,136 c 55,0 108,-28 108,-89 0,-71 -55,-121 -102,-149 -35,-21 -75,-34 -116,-34 -55,0 -108,28 -108,89 0,71 55,121 102,149 35,21 75,34 116,34 z"
         fill="currentColor"
         id="path87540" />
    </g>
  </a>
  <a
     style="color:inherit"
     xlink:href="textedit://C:/Users/Javier/AppData/Local/Temp/frescobaldi-qinprpfp/tmptsnuz2do/loose%20examples.ly:201:36:37"
     id="a87550"
     transform="translate(-5.6906,-143.33479)">
    <g
       transform="translate(69.4666,146.982)"
       id="g87548">
      <path
         transform="scale(0.004,-0.004)"
         d="m 218,136 c 55,0 108,-28 108,-89 0,-71 -55,-121 -102,-149 -35,-21 -75,-34 -116,-34 -55,0 -108,28 -108,89 0,71 55,121 102,149 35,21 75,34 116,34 z"
         fill="currentColor"
         id="path87546" />
    </g>
  </a>
  <a
     style="color:inherit"
     xlink:href="textedit://C:/Users/Javier/AppData/Local/Temp/frescobaldi-qinprpfp/tmptsnuz2do/loose%20examples.ly:204:10:11"
     id="a87556"
     transform="translate(-5.6906,-143.33479)">
    <g
       transform="translate(109.1512,155.482)"
       id="g87554">
      <path
         transform="scale(0.004,-0.004)"
         d="m 218,136 c 55,0 108,-28 108,-89 0,-71 -55,-121 -102,-149 -35,-21 -75,-34 -116,-34 -55,0 -108,28 -108,89 0,71 55,121 102,149 35,21 75,34 116,34 z"
         fill="currentColor"
         id="path87552" />
    </g>
  </a>
  <a
     style="color:inherit"
     xlink:href="textedit://C:/Users/Javier/AppData/Local/Temp/frescobaldi-qinprpfp/tmptsnuz2do/loose%20examples.ly:201:38:39"
     id="a87562"
     transform="translate(-5.6906,-143.33479)">
    <g
       transform="translate(71.4565,147.482)"
       id="g87560">
      <path
         transform="scale(0.004,-0.004)"
         d="m 218,136 c 55,0 108,-28 108,-89 0,-71 -55,-121 -102,-149 -35,-21 -75,-34 -116,-34 -55,0 -108,28 -108,89 0,71 55,121 102,149 35,21 75,34 116,34 z"
         fill="currentColor"
         id="path87558" />
    </g>
  </a>
  <a
     style="color:inherit"
     xlink:href="textedit://C:/Users/Javier/AppData/Local/Temp/frescobaldi-qinprpfp/tmptsnuz2do/loose%20examples.ly:201:40:41"
     id="a87568"
     transform="translate(-5.6906,-143.33479)">
    <g
       transform="translate(73.4465,147.982)"
       id="g87566">
      <path
         transform="scale(0.004,-0.004)"
         d="m 218,136 c 55,0 108,-28 108,-89 0,-71 -55,-121 -102,-149 -35,-21 -75,-34 -116,-34 -55,0 -108,28 -108,89 0,71 55,121 102,149 35,21 75,34 116,34 z"
         fill="currentColor"
         id="path87564" />
    </g>
  </a>
  <a
     style="color:inherit"
     xlink:href="textedit://C:/Users/Javier/AppData/Local/Temp/frescobaldi-qinprpfp/tmptsnuz2do/loose%20examples.ly:201:41:42"
     id="a87574"
     transform="translate(-5.6906,-143.33479)">
    <g
       transform="translate(73.6718,146.937)"
       id="g87572">
      <path
         transform="scale(0.0022,-0.0022)"
         d="m 129,149 h 7 c 36,0 74,-13 111,-40 19,-14 40,-21 59,-21 22,0 40,10 46,31 2,7 7,11 13,11 7,0 15,-5 15,-14 v -5 C 361,40 296,0 234,0 196,0 159,15 133,47 121,62 105,69 89,69 60,69 32,48 29,13 28,4 22,0 15,0 8,0 0,5 0,14 c 0,173 233,163 233,341 0,56 -14,116 -62,116 -33,0 -66,-15 -66,-44 0,-24 31,-37 31,-61 0,-34 -27,-61 -61,-61 -34,0 -61,27 -61,61 0,78 74,134 157,134 98,0 191,-55 191,-145 C 362,211 227,199 129,149 Z"
         fill="currentColor"
         id="path87570" />
    </g>
  </a>
  <a
     style="color:inherit"
     xlink:href="textedit://C:/Users/Javier/AppData/Local/Temp/frescobaldi-qinprpfp/tmptsnuz2do/loose%20examples.ly:203:12:13"
     id="a87580"
     transform="translate(-5.6906,-143.33479)">
    <g
       transform="translate(97.7357,153.482)"
       id="g87578">
      <path
         transform="scale(0.004,-0.004)"
         d="m 218,136 c 55,0 108,-28 108,-89 0,-71 -55,-121 -102,-149 -35,-21 -75,-34 -116,-34 -55,0 -108,28 -108,89 0,71 55,121 102,149 35,21 75,34 116,34 z"
         fill="currentColor"
         id="path87576" />
    </g>
  </a>
  <a
     style="color:inherit"
     xlink:href="textedit://C:/Users/Javier/AppData/Local/Temp/frescobaldi-qinprpfp/tmptsnuz2do/loose%20examples.ly:201:6:7"
     id="a87586"
     transform="translate(-5.6906,-143.33479)">
    <g
       transform="translate(51.5573,148.482)"
       id="g87584">
      <path
         transform="scale(0.004,-0.004)"
         d="m 218,136 c 55,0 108,-28 108,-89 0,-71 -55,-121 -102,-149 -35,-21 -75,-34 -116,-34 -55,0 -108,28 -108,89 0,71 55,121 102,149 35,21 75,34 116,34 z"
         fill="currentColor"
         id="path87582" />
    </g>
  </a>
  <a
     style="color:inherit"
     xlink:href="textedit://C:/Users/Javier/AppData/Local/Temp/frescobaldi-qinprpfp/tmptsnuz2do/loose%20examples.ly:201:8:9"
     id="a87592"
     transform="translate(-5.6906,-143.33479)">
    <g
       transform="translate(53.5472,147.982)"
       id="g87590">
      <path
         transform="scale(0.004,-0.004)"
         d="m 218,136 c 55,0 108,-28 108,-89 0,-71 -55,-121 -102,-149 -35,-21 -75,-34 -116,-34 -55,0 -108,28 -108,89 0,71 55,121 102,149 35,21 75,34 116,34 z"
         fill="currentColor"
         id="path87588" />
    </g>
  </a>
  <a
     style="color:inherit"
     xlink:href="textedit://C:/Users/Javier/AppData/Local/Temp/frescobaldi-qinprpfp/tmptsnuz2do/loose%20examples.ly:201:10:11"
     id="a87598"
     transform="translate(-5.6906,-143.33479)">
    <g
       transform="translate(55.5371,147.482)"
       id="g87596">
      <path
         transform="scale(0.004,-0.004)"
         d="m 218,136 c 55,0 108,-28 108,-89 0,-71 -55,-121 -102,-149 -35,-21 -75,-34 -116,-34 -55,0 -108,28 -108,89 0,71 55,121 102,149 35,21 75,34 116,34 z"
         fill="currentColor"
         id="path87594" />
    </g>
  </a>
  <a
     style="color:inherit"
     xlink:href="textedit://C:/Users/Javier/AppData/Local/Temp/frescobaldi-qinprpfp/tmptsnuz2do/loose%20examples.ly:201:11:12"
     id="a87604"
     transform="translate(-5.6906,-143.33479)">
    <g
       transform="translate(55.7966,146.437)"
       id="g87602">
      <path
         transform="scale(0.0022,-0.0022)"
         d="M 129,129 H 259 C 259,77 291,29 340,29 350,29 354,21 354,14 354,7 350,0 340,0 291,0 243,14 194,14 145,14 98,0 49,0 39,0 34,7 34,14 c 0,7 5,15 15,15 49,0 80,48 80,100 z M 0,250 129,500 c 3,7 13,3 21,0 14,-6 28,-14 44,-14 16,0 31,8 45,14 2,1 2,1 4,1 8,0 16,-9 16,-21 V 129 H 129 v 215 c 0,15 -11,23 -20,23 -5,0 -9,-2 -11,-7 L 32,233 c -4,-7 -9,-9 -15,-9 -9,0 -19,7 -19,17 0,3 0,6 2,9 z"
         fill="currentColor"
         id="path87600" />
    </g>
  </a>
  <a
     style="color:inherit"
     xlink:href="textedit://C:/Users/Javier/AppData/Local/Temp/frescobaldi-qinprpfp/tmptsnuz2do/loose%20examples.ly:201:14:15"
     id="a87610"
     transform="translate(-5.6906,-143.33479)">
    <g
       transform="translate(57.527,146.982)"
       id="g87608">
      <path
         transform="scale(0.004,-0.004)"
         d="m 218,136 c 55,0 108,-28 108,-89 0,-71 -55,-121 -102,-149 -35,-21 -75,-34 -116,-34 -55,0 -108,28 -108,89 0,71 55,121 102,149 35,21 75,34 116,34 z"
         fill="currentColor"
         id="path87606" />
    </g>
  </a>
  <a
     style="color:inherit"
     xlink:href="textedit://C:/Users/Javier/AppData/Local/Temp/frescobaldi-qinprpfp/tmptsnuz2do/loose%20examples.ly:201:16:17"
     id="a87616"
     transform="translate(-5.6906,-143.33479)">
    <g
       transform="translate(59.517,146.482)"
       id="g87614">
      <path
         transform="scale(0.004,-0.004)"
         d="m 218,136 c 55,0 108,-28 108,-89 0,-71 -55,-121 -102,-149 -35,-21 -75,-34 -116,-34 -55,0 -108,28 -108,89 0,71 55,121 102,149 35,21 75,34 116,34 z"
         fill="currentColor"
         id="path87612" />
    </g>
  </a>
  <a
     style="color:inherit"
     xlink:href="textedit://C:/Users/Javier/AppData/Local/Temp/frescobaldi-qinprpfp/tmptsnuz2do/loose%20examples.ly:201:18:19"
     id="a87622"
     transform="translate(-5.6906,-143.33479)">
    <g
       transform="translate(61.5069,145.982)"
       id="g87620">
      <path
         transform="scale(0.004,-0.004)"
         d="m 218,136 c 55,0 108,-28 108,-89 0,-71 -55,-121 -102,-149 -35,-21 -75,-34 -116,-34 -55,0 -108,28 -108,89 0,71 55,121 102,149 35,21 75,34 116,34 z"
         fill="currentColor"
         id="path87618" />
    </g>
  </a>
  <a
     style="color:inherit"
     xlink:href="textedit://C:/Users/Javier/AppData/Local/Temp/frescobaldi-qinprpfp/tmptsnuz2do/loose%20examples.ly:201:21:22"
     id="a87628"
     transform="translate(-5.6906,-143.33479)">
    <g
       transform="translate(61.6981,144.937)"
       id="g87626">
      <path
         transform="scale(0.0022,-0.0022)"
         d="m 198,284 c 24,15 48,29 65,52 12,16 19,34 28,52 2,5 6,7 11,7 8,0 16,-6 16,-17 V 161 h 79 c 12,0 18,-9 18,-18 0,-9 -6,-18 -18,-18 h -79 c 2,-51 33,-96 80,-96 10,0 15,-8 15,-15 C 413,7 408,0 398,0 349,0 302,14 253,14 204,14 156,0 107,0 97,0 93,7 93,14 c 0,7 4,15 14,15 47,0 79,45 81,96 H 36 c -29,0 -38,17 -38,28 0,3 1,6 2,8 78,88 123,201 123,319 0,11 8,21 17,21 1,0 3,-1 4,-1 25,-7 50,-14 76,-14 26,0 52,7 77,14 2,1 4,1 6,1 10,0 17,-7 17,-14 0,-2 0,-5 -2,-7 L 36,161 h 152 v 96 c 0,10 1,21 10,27 z"
         fill="currentColor"
         id="path87624" />
    </g>
  </a>
  <a
     style="color:inherit"
     xlink:href="textedit://C:/Users/Javier/AppData/Local/Temp/frescobaldi-qinprpfp/tmptsnuz2do/loose%20examples.ly:201:24:25"
     id="a87634"
     transform="translate(-5.6906,-143.33479)">
    <g
       transform="translate(63.4968,145.482)"
       id="g87632">
      <path
         transform="scale(0.004,-0.004)"
         d="m 218,136 c 55,0 108,-28 108,-89 0,-71 -55,-121 -102,-149 -35,-21 -75,-34 -116,-34 -55,0 -108,28 -108,89 0,71 55,121 102,149 35,21 75,34 116,34 z"
         fill="currentColor"
         id="path87630" />
    </g>
  </a>
  <a
     style="color:inherit"
     xlink:href="textedit://C:/Users/Javier/AppData/Local/Temp/frescobaldi-qinprpfp/tmptsnuz2do/loose%20examples.ly:201:25:26"
     id="a87640"
     transform="translate(-5.6906,-143.33479)">
    <g
       transform="translate(63.688,144.437)"
       id="g87638">
      <path
         transform="scale(0.0022,-0.0022)"
         d="m 198,284 c 24,15 48,29 65,52 12,16 19,34 28,52 2,5 6,7 11,7 8,0 16,-6 16,-17 V 161 h 79 c 12,0 18,-9 18,-18 0,-9 -6,-18 -18,-18 h -79 c 2,-51 33,-96 80,-96 10,0 15,-8 15,-15 C 413,7 408,0 398,0 349,0 302,14 253,14 204,14 156,0 107,0 97,0 93,7 93,14 c 0,7 4,15 14,15 47,0 79,45 81,96 H 36 c -29,0 -38,17 -38,28 0,3 1,6 2,8 78,88 123,201 123,319 0,11 8,21 17,21 1,0 3,-1 4,-1 25,-7 50,-14 76,-14 26,0 52,7 77,14 2,1 4,1 6,1 10,0 17,-7 17,-14 0,-2 0,-5 -2,-7 L 36,161 h 152 v 96 c 0,10 1,21 10,27 z"
         fill="currentColor"
         id="path87636" />
    </g>
  </a>
  <a
     style="color:inherit"
     xlink:href="textedit://C:/Users/Javier/AppData/Local/Temp/frescobaldi-qinprpfp/tmptsnuz2do/loose%20examples.ly:214:6:7"
     id="a87646"
     transform="translate(-5.6906,-143.33479)">
    <g
       transform="translate(102.9093,153.982)"
       id="g87644">
      <path
         transform="scale(0.004,-0.004)"
         d="m 213,112 c -50,0 -69,-43 -69,-88 0,-77 57,-136 134,-136 50,0 69,43 69,88 0,77 -57,136 -134,136 z M 491,0 c 0,-43 -34,-75 -72,-96 -53,-29 -114,-40 -174,-40 -60,0 -120,11 -173,40 -38,21 -72,53 -72,96 0,43 34,75 72,96 53,29 113,40 173,40 60,0 121,-11 174,-40 38,-21 72,-53 72,-96 z"
         fill="currentColor"
         id="path87642" />
    </g>
  </a>
  <a
     style="color:inherit"
     xlink:href="textedit://C:/Users/Javier/AppData/Local/Temp/frescobaldi-qinprpfp/tmptsnuz2do/loose%20examples.ly:202:22:23"
     id="a87652"
     transform="translate(-5.6906,-143.33479)">
    <g
       transform="translate(88.576,151.482)"
       id="g87650">
      <path
         transform="scale(0.004,-0.004)"
         d="m 218,136 c 55,0 108,-28 108,-89 0,-71 -55,-121 -102,-149 -35,-21 -75,-34 -116,-34 -55,0 -108,28 -108,89 0,71 55,121 102,149 35,21 75,34 116,34 z"
         fill="currentColor"
         id="path87648" />
    </g>
  </a>
  <a
     style="color:inherit"
     xlink:href="textedit://C:/Users/Javier/AppData/Local/Temp/frescobaldi-qinprpfp/tmptsnuz2do/loose%20examples.ly:203:15:16"
     id="a87658"
     transform="translate(-5.6906,-143.33479)">
    <g
       transform="translate(99.9509,148.932)"
       id="g87656">
      <path
         transform="scale(0.0022,-0.0022)"
         d="m 190,464 c -54,0 -61,-71 -61,-141 v -73 -73 c 0,-70 7,-141 61,-141 54,0 62,71 62,141 0,26 -1,51 -1,73 0,22 1,47 1,73 0,70 -8,141 -62,141 z m 0,36 C 308,500 380,378 380,250 380,122 308,0 190,0 72,0 0,122 0,250 0,378 72,500 190,500 Z"
         fill="currentColor"
         id="path87654" />
    </g>
  </a>
  <a
     style="color:inherit"
     xlink:href="textedit://C:/Users/Javier/AppData/Local/Temp/frescobaldi-qinprpfp/tmptsnuz2do/loose%20examples.ly:202:24:25"
     id="a87664"
     transform="translate(-5.6906,-143.33479)">
    <g
       transform="translate(90.5659,151.982)"
       id="g87662">
      <path
         transform="scale(0.004,-0.004)"
         d="m 218,136 c 55,0 108,-28 108,-89 0,-71 -55,-121 -102,-149 -35,-21 -75,-34 -116,-34 -55,0 -108,28 -108,89 0,71 55,121 102,149 35,21 75,34 116,34 z"
         fill="currentColor"
         id="path87660" />
    </g>
  </a>
  <a
     style="color:inherit"
     xlink:href="textedit://C:/Users/Javier/AppData/Local/Temp/frescobaldi-qinprpfp/tmptsnuz2do/loose%20examples.ly:202:25:26"
     id="a87670"
     transform="translate(-5.6906,-143.33479)">
    <g
       transform="translate(90.7912,148.932)"
       id="g87668">
      <path
         transform="scale(0.0022,-0.0022)"
         d="m 190,464 c -54,0 -61,-71 -61,-141 v -73 -73 c 0,-70 7,-141 61,-141 54,0 62,71 62,141 0,26 -1,51 -1,73 0,22 1,47 1,73 0,70 -8,141 -62,141 z m 0,36 C 308,500 380,378 380,250 380,122 308,0 190,0 72,0 0,122 0,250 0,378 72,500 190,500 Z"
         fill="currentColor"
         id="path87666" />
    </g>
  </a>
  <a
     style="color:inherit"
     xlink:href="textedit://C:/Users/Javier/AppData/Local/Temp/frescobaldi-qinprpfp/tmptsnuz2do/loose%20examples.ly:202:20:21"
     id="a87676"
     transform="translate(-5.6906,-143.33479)">
    <g
       transform="translate(86.586,150.982)"
       id="g87674">
      <path
         transform="scale(0.004,-0.004)"
         d="m 218,136 c 55,0 108,-28 108,-89 0,-71 -55,-121 -102,-149 -35,-21 -75,-34 -116,-34 -55,0 -108,28 -108,89 0,71 55,121 102,149 35,21 75,34 116,34 z"
         fill="currentColor"
         id="path87672" />
    </g>
  </a>
  <a
     style="color:inherit"
     xlink:href="textedit://C:/Users/Javier/AppData/Local/Temp/frescobaldi-qinprpfp/tmptsnuz2do/loose%20examples.ly:203:14:15"
     id="a87682"
     transform="translate(-5.6906,-143.33479)">
    <g
       transform="translate(99.7256,153.982)"
       id="g87680">
      <path
         transform="scale(0.004,-0.004)"
         d="m 218,136 c 55,0 108,-28 108,-89 0,-71 -55,-121 -102,-149 -35,-21 -75,-34 -116,-34 -55,0 -108,28 -108,89 0,71 55,121 102,149 35,21 75,34 116,34 z"
         fill="currentColor"
         id="path87678" />
    </g>
  </a>
  <a
     style="color:inherit"
     xlink:href="textedit://C:/Users/Javier/AppData/Local/Temp/frescobaldi-qinprpfp/tmptsnuz2do/loose%20examples.ly:213:6:7"
     id="a87688"
     transform="translate(-5.6906,-143.33479)">
    <g
       transform="translate(93.7496,155.982)"
       id="g87686">
      <path
         transform="scale(0.004,-0.004)"
         d="m 213,112 c -50,0 -69,-43 -69,-88 0,-77 57,-136 134,-136 50,0 69,43 69,88 0,77 -57,136 -134,136 z M 491,0 c 0,-43 -34,-75 -72,-96 -53,-29 -114,-40 -174,-40 -60,0 -120,11 -173,40 -38,21 -72,53 -72,96 0,43 34,75 72,96 53,29 113,40 173,40 60,0 121,-11 174,-40 38,-21 72,-53 72,-96 z"
         fill="currentColor"
         id="path87684" />
    </g>
  </a>
  <a
     style="color:inherit"
     xlink:href="textedit://C:/Users/Javier/AppData/Local/Temp/frescobaldi-qinprpfp/tmptsnuz2do/loose%20examples.ly:203:6:7"
     id="a87694"
     transform="translate(-5.6906,-143.33479)">
    <g
       transform="translate(93.7558,152.482)"
       id="g87692">
      <path
         transform="scale(0.004,-0.004)"
         d="m 218,136 c 55,0 108,-28 108,-89 0,-71 -55,-121 -102,-149 -35,-21 -75,-34 -116,-34 -55,0 -108,28 -108,89 0,71 55,121 102,149 35,21 75,34 116,34 z"
         fill="currentColor"
         id="path87690" />
    </g>
  </a>
  <a
     style="color:inherit"
     xlink:href="textedit://C:/Users/Javier/AppData/Local/Temp/frescobaldi-qinprpfp/tmptsnuz2do/loose%20examples.ly:203:8:9"
     id="a87700"
     transform="translate(-5.6906,-143.33479)">
    <g
       transform="translate(95.7458,152.982)"
       id="g87698">
      <path
         transform="scale(0.004,-0.004)"
         d="m 218,136 c 55,0 108,-28 108,-89 0,-71 -55,-121 -102,-149 -35,-21 -75,-34 -116,-34 -55,0 -108,28 -108,89 0,71 55,121 102,149 35,21 75,34 116,34 z"
         fill="currentColor"
         id="path87696" />
    </g>
  </a>
  <a
     style="color:inherit"
     xlink:href="textedit://C:/Users/Javier/AppData/Local/Temp/frescobaldi-qinprpfp/tmptsnuz2do/loose%20examples.ly:212:6:7"
     id="a87706"
     transform="translate(-5.6906,-143.33479)">
    <g
       transform="translate(78.6201,153.982)"
       id="g87704">
      <path
         transform="scale(0.004,-0.004)"
         d="m 213,112 c -50,0 -69,-43 -69,-88 0,-77 57,-136 134,-136 50,0 69,43 69,88 0,77 -57,136 -134,136 z M 491,0 c 0,-43 -34,-75 -72,-96 -53,-29 -114,-40 -174,-40 -60,0 -120,11 -173,40 -38,21 -72,53 -72,96 0,43 34,75 72,96 53,29 113,40 173,40 60,0 121,-11 174,-40 38,-21 72,-53 72,-96 z"
         fill="currentColor"
         id="path87702" />
    </g>
  </a>
  <a
     style="color:inherit"
     xlink:href="textedit://C:/Users/Javier/AppData/Local/Temp/frescobaldi-qinprpfp/tmptsnuz2do/loose%20examples.ly:202:6:7"
     id="a87712"
     transform="translate(-5.6906,-143.33479)">
    <g
       transform="translate(78.6263,148.982)"
       id="g87710">
      <path
         transform="scale(0.004,-0.004)"
         d="m 218,136 c 55,0 108,-28 108,-89 0,-71 -55,-121 -102,-149 -35,-21 -75,-34 -116,-34 -55,0 -108,28 -108,89 0,71 55,121 102,149 35,21 75,34 116,34 z"
         fill="currentColor"
         id="path87708" />
    </g>
  </a>
  <a
     style="color:inherit"
     xlink:href="textedit://C:/Users/Javier/AppData/Local/Temp/frescobaldi-qinprpfp/tmptsnuz2do/loose%20examples.ly:202:7:8"
     id="a87718"
     transform="translate(-5.6906,-143.33479)">
    <g
       transform="translate(78.8175,147.937)"
       id="g87716">
      <path
         transform="scale(0.0022,-0.0022)"
         d="m 198,284 c 24,15 48,29 65,52 12,16 19,34 28,52 2,5 6,7 11,7 8,0 16,-6 16,-17 V 161 h 79 c 12,0 18,-9 18,-18 0,-9 -6,-18 -18,-18 h -79 c 2,-51 33,-96 80,-96 10,0 15,-8 15,-15 C 413,7 408,0 398,0 349,0 302,14 253,14 204,14 156,0 107,0 97,0 93,7 93,14 c 0,7 4,15 14,15 47,0 79,45 81,96 H 36 c -29,0 -38,17 -38,28 0,3 1,6 2,8 78,88 123,201 123,319 0,11 8,21 17,21 1,0 3,-1 4,-1 25,-7 50,-14 76,-14 26,0 52,7 77,14 2,1 4,1 6,1 10,0 17,-7 17,-14 0,-2 0,-5 -2,-7 L 36,161 h 152 v 96 c 0,10 1,21 10,27 z"
         fill="currentColor"
         id="path87714" />
    </g>
  </a>
  <a
     style="color:inherit"
     xlink:href="textedit://C:/Users/Javier/AppData/Local/Temp/frescobaldi-qinprpfp/tmptsnuz2do/loose%20examples.ly:202:10:11"
     id="a87724"
     transform="translate(-5.6906,-143.33479)">
    <g
       transform="translate(80.6163,149.482)"
       id="g87722">
      <path
         transform="scale(0.004,-0.004)"
         d="m 218,136 c 55,0 108,-28 108,-89 0,-71 -55,-121 -102,-149 -35,-21 -75,-34 -116,-34 -55,0 -108,28 -108,89 0,71 55,121 102,149 35,21 75,34 116,34 z"
         fill="currentColor"
         id="path87720" />
    </g>
  </a>
  <a
     style="color:inherit"
     xlink:href="textedit://C:/Users/Javier/AppData/Local/Temp/frescobaldi-qinprpfp/tmptsnuz2do/loose%20examples.ly:201:44:45"
     id="a87730"
     transform="translate(-5.6906,-143.33479)">
    <g
       transform="translate(75.4364,148.482)"
       id="g87728">
      <path
         transform="scale(0.004,-0.004)"
         d="m 218,136 c 55,0 108,-28 108,-89 0,-71 -55,-121 -102,-149 -35,-21 -75,-34 -116,-34 -55,0 -108,28 -108,89 0,71 55,121 102,149 35,21 75,34 116,34 z"
         fill="currentColor"
         id="path87726" />
    </g>
  </a>
  <a
     style="color:inherit"
     xlink:href="textedit://C:/Users/Javier/AppData/Local/Temp/frescobaldi-qinprpfp/tmptsnuz2do/loose%20examples.ly:204:6:7"
     id="a87736"
     transform="translate(-5.6906,-143.33479)">
    <g
       transform="translate(105.1713,154.482)"
       id="g87734">
      <path
         transform="scale(0.004,-0.004)"
         d="m 218,136 c 55,0 108,-28 108,-89 0,-71 -55,-121 -102,-149 -35,-21 -75,-34 -116,-34 -55,0 -108,28 -108,89 0,71 55,121 102,149 35,21 75,34 116,34 z"
         fill="currentColor"
         id="path87732" />
    </g>
  </a>
  <a
     style="color:inherit"
     xlink:href="textedit://C:/Users/Javier/AppData/Local/Temp/frescobaldi-qinprpfp/tmptsnuz2do/loose%20examples.ly:202:14:15"
     id="a87742"
     transform="translate(-5.6906,-143.33479)">
    <g
       transform="translate(82.6062,149.982)"
       id="g87740">
      <path
         transform="scale(0.004,-0.004)"
         d="m 218,136 c 55,0 108,-28 108,-89 0,-71 -55,-121 -102,-149 -35,-21 -75,-34 -116,-34 -55,0 -108,28 -108,89 0,71 55,121 102,149 35,21 75,34 116,34 z"
         fill="currentColor"
         id="path87738" />
    </g>
  </a>
  <a
     style="color:inherit"
     xlink:href="textedit://C:/Users/Javier/AppData/Local/Temp/frescobaldi-qinprpfp/tmptsnuz2do/loose%20examples.ly:202:16:17"
     id="a87748"
     transform="translate(-5.6906,-143.33479)">
    <g
       transform="translate(84.5961,150.482)"
       id="g87746">
      <path
         transform="scale(0.004,-0.004)"
         d="m 218,136 c 55,0 108,-28 108,-89 0,-71 -55,-121 -102,-149 -35,-21 -75,-34 -116,-34 -55,0 -108,28 -108,89 0,71 55,121 102,149 35,21 75,34 116,34 z"
         fill="currentColor"
         id="path87744" />
    </g>
  </a>
  <a
     style="color:inherit"
     xlink:href="textedit://C:/Users/Javier/AppData/Local/Temp/frescobaldi-qinprpfp/tmptsnuz2do/loose%20examples.ly:202:17:18"
     id="a87754"
     transform="translate(-5.6906,-143.33479)">
    <g
       transform="translate(84.8556,148.932)"
       id="g87752">
      <path
         transform="scale(0.0022,-0.0022)"
         d="m 155,471 c -34,0 -70,-8 -70,-38 0,-19 31,-23 31,-42 0,-28 -23,-51 -51,-51 -28,0 -51,23 -51,51 0,67 68,109 141,109 93,0 174,-31 174,-113 0,-41 -6,-77 -42,-94 -11,-5 -17,-16 -17,-27 0,-11 6,-22 17,-27 40,-19 59,-53 59,-98 C 346,47 263,0 160,0 78,0 0,45 0,119 c 0,32 26,58 58,58 32,0 58,-26 58,-58 0,-22 -36,-26 -36,-48 0,-33 42,-42 80,-42 46,0 56,58 56,112 v 38 c 0,40 -4,69 -43,69 H 99 c -12,0 -18,9 -18,18 0,9 6,18 18,18 h 74 c 40,0 43,31 43,73 v 30 c 0,50 -16,84 -61,84 z"
         fill="currentColor"
         id="path87750" />
    </g>
  </a>
  <a
     style="color:inherit"
     xlink:href="textedit://C:/Users/Javier/AppData/Local/Temp/frescobaldi-qinprpfp/tmptsnuz2do/loose%20examples.ly:214:8:9"
     id="a87760"
     transform="translate(-5.6906,-143.33479)">
    <g
       transform="translate(103.4635,148.932)"
       id="g87758">
      <path
         transform="scale(0.0022,-0.0022)"
         d="m 190,464 c -54,0 -61,-71 -61,-141 v -73 -73 c 0,-70 7,-141 61,-141 54,0 62,71 62,141 0,26 -1,51 -1,73 0,22 1,47 1,73 0,70 -8,141 -62,141 z m 0,36 C 308,500 380,378 380,250 380,122 308,0 190,0 72,0 0,122 0,250 0,378 72,500 190,500 Z"
         fill="currentColor"
         id="path87756" />
    </g>
  </a>
  <a
     style="color:inherit"
     xlink:href="textedit://C:/Users/Javier/AppData/Local/Temp/frescobaldi-qinprpfp/tmptsnuz2do/loose%20examples.ly:196:11:12"
     id="a87766"
     transform="translate(-5.6906,-143.33479)">
    <g
       transform="translate(19.8324,154.982)"
       id="g87764">
      <path
         transform="scale(0.004,-0.004)"
         d="m 218,136 c 55,0 108,-28 108,-89 0,-71 -55,-121 -102,-149 -35,-21 -75,-34 -116,-34 -55,0 -108,28 -108,89 0,71 55,121 102,149 35,21 75,34 116,34 z"
         fill="currentColor"
         id="path87762" />
    </g>
  </a>
  <a
     style="color:inherit"
     xlink:href="textedit://C:/Users/Javier/AppData/Local/Temp/frescobaldi-qinprpfp/tmptsnuz2do/loose%20examples.ly:196:13:14"
     id="a87772"
     transform="translate(-5.6906,-143.33479)">
    <g
       transform="translate(21.8223,154.482)"
       id="g87770">
      <path
         transform="scale(0.004,-0.004)"
         d="m 218,136 c 55,0 108,-28 108,-89 0,-71 -55,-121 -102,-149 -35,-21 -75,-34 -116,-34 -55,0 -108,28 -108,89 0,71 55,121 102,149 35,21 75,34 116,34 z"
         fill="currentColor"
         id="path87768" />
    </g>
  </a>
  <a
     style="color:inherit"
     xlink:href="textedit://C:/Users/Javier/AppData/Local/Temp/frescobaldi-qinprpfp/tmptsnuz2do/loose%20examples.ly:209:6:7"
     id="a87778"
     transform="translate(-5.6906,-143.33479)">
    <g
       transform="translate(25.006,153.982)"
       id="g87776">
      <path
         transform="scale(0.004,-0.004)"
         d="m 213,112 c -50,0 -69,-43 -69,-88 0,-77 57,-136 134,-136 50,0 69,43 69,88 0,77 -57,136 -134,136 z M 491,0 c 0,-43 -34,-75 -72,-96 -53,-29 -114,-40 -174,-40 -60,0 -120,11 -173,40 -38,21 -72,53 -72,96 0,43 34,75 72,96 53,29 113,40 173,40 60,0 121,-11 174,-40 38,-21 72,-53 72,-96 z"
         fill="currentColor"
         id="path87774" />
    </g>
  </a>
  <a
     style="color:inherit"
     xlink:href="textedit://C:/Users/Javier/AppData/Local/Temp/frescobaldi-qinprpfp/tmptsnuz2do/loose%20examples.ly:209:8:9"
     id="a87784"
     transform="translate(-5.6906,-143.33479)">
    <g
       transform="translate(25.5261,156.1537)"
       id="g87782">
      <path
         transform="scale(0.0022,-0.0022)"
         d="m 198,284 c 24,15 48,29 65,52 12,16 19,34 28,52 2,5 6,7 11,7 8,0 16,-6 16,-17 V 161 h 79 c 12,0 18,-9 18,-18 0,-9 -6,-18 -18,-18 h -79 c 2,-51 33,-96 80,-96 10,0 15,-8 15,-15 C 413,7 408,0 398,0 349,0 302,14 253,14 204,14 156,0 107,0 97,0 93,7 93,14 c 0,7 4,15 14,15 47,0 79,45 81,96 H 36 c -29,0 -38,17 -38,28 0,3 1,6 2,8 78,88 123,201 123,319 0,11 8,21 17,21 1,0 3,-1 4,-1 25,-7 50,-14 76,-14 26,0 52,7 77,14 2,1 4,1 6,1 10,0 17,-7 17,-14 0,-2 0,-5 -2,-7 L 36,161 h 152 v 96 c 0,10 1,21 10,27 z"
         fill="currentColor"
         id="path87780" />
    </g>
  </a>
  <a
     style="color:inherit"
     xlink:href="textedit://C:/Users/Javier/AppData/Local/Temp/frescobaldi-qinprpfp/tmptsnuz2do/loose%20examples.ly:197:6:7"
     id="a87790"
     transform="translate(-5.6906,-143.33479)">
    <g
       transform="translate(27.268,153.982)"
       id="g87788">
      <path
         transform="scale(0.004,-0.004)"
         d="m 218,136 c 55,0 108,-28 108,-89 0,-71 -55,-121 -102,-149 -35,-21 -75,-34 -116,-34 -55,0 -108,28 -108,89 0,71 55,121 102,149 35,21 75,34 116,34 z"
         fill="currentColor"
         id="path87786" />
    </g>
  </a>
  <a
     style="color:inherit"
     xlink:href="textedit://C:/Users/Javier/AppData/Local/Temp/frescobaldi-qinprpfp/tmptsnuz2do/loose%20examples.ly:197:8:9"
     id="a87796"
     transform="translate(-5.6906,-143.33479)">
    <g
       transform="translate(29.258,153.482)"
       id="g87794">
      <path
         transform="scale(0.004,-0.004)"
         d="m 218,136 c 55,0 108,-28 108,-89 0,-71 -55,-121 -102,-149 -35,-21 -75,-34 -116,-34 -55,0 -108,28 -108,89 0,71 55,121 102,149 35,21 75,34 116,34 z"
         fill="currentColor"
         id="path87792" />
    </g>
  </a>
  <a
     style="color:inherit"
     xlink:href="textedit://C:/Users/Javier/AppData/Local/Temp/frescobaldi-qinprpfp/tmptsnuz2do/loose%20examples.ly:197:10:11"
     id="a87802"
     transform="translate(-5.6906,-143.33479)">
    <g
       transform="translate(31.2479,152.982)"
       id="g87800">
      <path
         transform="scale(0.004,-0.004)"
         d="m 218,136 c 55,0 108,-28 108,-89 0,-71 -55,-121 -102,-149 -35,-21 -75,-34 -116,-34 -55,0 -108,28 -108,89 0,71 55,121 102,149 35,21 75,34 116,34 z"
         fill="currentColor"
         id="path87798" />
    </g>
  </a>
  <a
     style="color:inherit"
     xlink:href="textedit://C:/Users/Javier/AppData/Local/Temp/frescobaldi-qinprpfp/tmptsnuz2do/loose%20examples.ly:197:14:15"
     id="a87808"
     transform="translate(-5.6906,-143.33479)">
    <g
       transform="translate(33.2378,152.482)"
       id="g87806">
      <path
         transform="scale(0.004,-0.004)"
         d="m 218,136 c 55,0 108,-28 108,-89 0,-71 -55,-121 -102,-149 -35,-21 -75,-34 -116,-34 -55,0 -108,28 -108,89 0,71 55,121 102,149 35,21 75,34 116,34 z"
         fill="currentColor"
         id="path87804" />
    </g>
  </a>
  <a
     style="color:inherit"
     xlink:href="textedit://C:/Users/Javier/AppData/Local/Temp/frescobaldi-qinprpfp/tmptsnuz2do/loose%20examples.ly:208:6:7"
     id="a87814"
     transform="translate(-5.6906,-143.33479)">
    <g
       transform="translate(13.5906,153.982)"
       id="g87812">
      <path
         transform="scale(0.004,-0.004)"
         d="m 213,112 c -50,0 -69,-43 -69,-88 0,-77 57,-136 134,-136 50,0 69,43 69,88 0,77 -57,136 -134,136 z M 491,0 c 0,-43 -34,-75 -72,-96 -53,-29 -114,-40 -174,-40 -60,0 -120,11 -173,40 -38,21 -72,53 -72,96 0,43 34,75 72,96 53,29 113,40 173,40 60,0 121,-11 174,-40 38,-21 72,-53 72,-96 z"
         fill="currentColor"
         id="path87810" />
    </g>
  </a>
  <a
     style="color:inherit"
     xlink:href="textedit://C:/Users/Javier/AppData/Local/Temp/frescobaldi-qinprpfp/tmptsnuz2do/loose%20examples.ly:208:9:10"
     id="a87820"
     transform="translate(-5.6906,-143.33479)">
    <g
       transform="translate(14.1448,148.932)"
       id="g87818">
      <path
         transform="scale(0.0022,-0.0022)"
         d="m 190,464 c -54,0 -61,-71 -61,-141 v -73 -73 c 0,-70 7,-141 61,-141 54,0 62,71 62,141 0,26 -1,51 -1,73 0,22 1,47 1,73 0,70 -8,141 -62,141 z m 0,36 C 308,500 380,378 380,250 380,122 308,0 190,0 72,0 0,122 0,250 0,378 72,500 190,500 Z"
         fill="currentColor"
         id="path87816" />
    </g>
  </a>
  <g
     transform="translate(0.80000003,9.1472082)"
     id="g87824">
    <path
       transform="scale(0.004,-0.004)"
       d="m 266,-635 h -6 c -108,0 -195,88 -195,197 0,58 53,103 112,103 54,0 95,-47 95,-103 0,-52 -43,-95 -95,-95 -11,0 -21,2 -31,6 26,-39 68,-65 117,-65 h 4 z m 195,432 c 68,24 113,95 113,164 0,90 -66,179 -173,190 24,-116 46,-231 60,-354 z M 74,28 c 0,-135 129,-247 264,-247 28,0 55,2 82,6 C 406,-86 383,32 357,151 278,143 233,90 233,32 c 0,-44 25,-91 81,-123 5,-5 7,-10 7,-15 0,-11 -10,-22 -22,-22 -3,0 -6,1 -9,2 -80,43 -117,115 -117,185 0,88 58,174 160,197 -14,58 -29,117 -46,175 C 180,310 74,188 74,28 Z M 335,-262 C 147,-262 2,-90 2,112 c 0,177 131,306 248,441 -19,62 -37,125 -45,190 -6,52 -7,104 -7,156 0,115 55,224 149,292 6,5 14,5 20,0 71,-84 133,-245 133,-358 0,-143 -86,-255 -180,-364 21,-68 39,-138 56,-207 4,0 9,1 13,1 155,0 256,-128 256,-261 0,-76 -33,-154 -107,-210 -22,-17 -47,-28 -73,-36 3,-35 5,-70 5,-105 0,-19 -1,-39 -2,-58 -7,-119 -88,-225 -202,-228 l 1,43 c 93,2 153,92 159,191 1,18 2,37 2,55 0,31 -1,61 -4,92 -29,-5 -58,-8 -89,-8 z m 93,1178 c 0,55 -4,79 -20,129 -99,-48 -162,-149 -162,-259 0,-74 18,-133 36,-194 80,97 146,198 146,324 z"
       fill="currentColor"
       id="path87822" />
  </g>
  <a
     style="color:inherit"
     xlink:href="textedit://C:/Users/Javier/AppData/Local/Temp/frescobaldi-qinprpfp/tmptsnuz2do/loose%20examples.ly:191:2:3"
     id="a87830"
     transform="translate(-5.6906,-143.33479)">
    <g
       transform="translate(9.9906,149.482)"
       id="g87828">
      <path
         transform="scale(0.004,-0.004)"
         d="m 216,-312 c 0,-10 -8,-19 -18,-19 -10,0 -19,9 -19,19 v 145 l -83,-31 v -158 c 0,-10 -9,-19 -19,-19 -10,0 -18,9 -18,19 v 145 l -32,-12 c -2,-1 -5,-1 -7,-1 -11,0 -20,9 -20,20 v 60 c 0,8 5,16 13,19 l 46,16 V 51 L 27,40 C 25,39 22,39 20,39 9,39 0,48 0,59 v 60 c 0,8 5,15 13,18 l 46,17 v 158 c 0,10 8,19 18,19 10,0 19,-9 19,-19 V 167 l 83,31 v 158 c 0,10 9,19 19,19 10,0 18,-9 18,-19 V 211 l 32,12 c 2,1 5,1 7,1 11,0 20,-9 20,-20 v -60 c 0,-8 -5,-16 -13,-19 L 216,109 V -51 l 32,11 c 2,1 5,1 7,1 11,0 20,-9 20,-20 v -60 c 0,-8 -5,-15 -13,-18 l -46,-17 z M 96,65 V -95 l 83,30 V 95 Z"
         fill="currentColor"
         id="path87826" />
    </g>
  </a>
  <a
     style="color:inherit"
     xlink:href="textedit://C:/Users/Javier/AppData/Local/Temp/frescobaldi-qinprpfp/tmptsnuz2do/loose%20examples.ly:196:6:7"
     id="a87836"
     transform="translate(-5.6906,-143.33479)">
    <g
       transform="translate(15.8526,155.982)"
       id="g87834">
      <path
         transform="scale(0.004,-0.004)"
         d="m 218,136 c 55,0 108,-28 108,-89 0,-71 -55,-121 -102,-149 -35,-21 -75,-34 -116,-34 -55,0 -108,28 -108,89 0,71 55,121 102,149 35,21 75,34 116,34 z"
         fill="currentColor"
         id="path87832" />
    </g>
  </a>
  <a
     style="color:inherit"
     xlink:href="textedit://C:/Users/Javier/AppData/Local/Temp/frescobaldi-qinprpfp/tmptsnuz2do/loose%20examples.ly:196:9:10"
     id="a87842"
     transform="translate(-5.6906,-143.33479)">
    <g
       transform="translate(17.8425,155.482)"
       id="g87840">
      <path
         transform="scale(0.004,-0.004)"
         d="m 218,136 c 55,0 108,-28 108,-89 0,-71 -55,-121 -102,-149 -35,-21 -75,-34 -116,-34 -55,0 -108,28 -108,89 0,71 55,121 102,149 35,21 75,34 116,34 z"
         fill="currentColor"
         id="path87838" />
    </g>
  </a>
  <a
     style="color:inherit"
     xlink:href="textedit://C:/Users/Javier/AppData/Local/Temp/frescobaldi-qinprpfp/tmptsnuz2do/loose%20examples.ly:199:12:13"
     id="a87848"
     transform="translate(-5.6906,-143.33479)">
    <g
       transform="translate(40.4076,150.982)"
       id="g87846">
      <path
         transform="scale(0.004,-0.004)"
         d="m 218,136 c 55,0 108,-28 108,-89 0,-71 -55,-121 -102,-149 -35,-21 -75,-34 -116,-34 -55,0 -108,28 -108,89 0,71 55,121 102,149 35,21 75,34 116,34 z"
         fill="currentColor"
         id="path87844" />
    </g>
  </a>
  <a
     style="color:inherit"
     xlink:href="textedit://C:/Users/Javier/AppData/Local/Temp/frescobaldi-qinprpfp/tmptsnuz2do/loose%20examples.ly:199:7:8"
     id="a87854"
     transform="translate(-5.6906,-143.33479)">
    <g
       transform="translate(36.6531,148.932)"
       id="g87852">
      <path
         transform="scale(0.0022,-0.0022)"
         d="m 190,464 c -54,0 -61,-71 -61,-141 v -73 -73 c 0,-70 7,-141 61,-141 54,0 62,71 62,141 0,26 -1,51 -1,73 0,22 1,47 1,73 0,70 -8,141 -62,141 z m 0,36 C 308,500 380,378 380,250 380,122 308,0 190,0 72,0 0,122 0,250 0,378 72,500 190,500 Z"
         fill="currentColor"
         id="path87850" />
    </g>
  </a>
  <a
     style="color:inherit"
     xlink:href="textedit://C:/Users/Javier/AppData/Local/Temp/frescobaldi-qinprpfp/tmptsnuz2do/loose%20examples.ly:199:10:11"
     id="a87860"
     transform="translate(-5.6906,-143.33479)">
    <g
       transform="translate(38.4177,151.482)"
       id="g87858">
      <path
         transform="scale(0.004,-0.004)"
         d="m 218,136 c 55,0 108,-28 108,-89 0,-71 -55,-121 -102,-149 -35,-21 -75,-34 -116,-34 -55,0 -108,28 -108,89 0,71 55,121 102,149 35,21 75,34 116,34 z"
         fill="currentColor"
         id="path87856" />
    </g>
  </a>
  <a
     style="color:inherit"
     xlink:href="textedit://C:/Users/Javier/AppData/Local/Temp/frescobaldi-qinprpfp/tmptsnuz2do/loose%20examples.ly:199:20:21"
     id="a87866"
     transform="translate(-5.6906,-143.33479)">
    <g
       transform="translate(46.3774,149.482)"
       id="g87864">
      <path
         transform="scale(0.004,-0.004)"
         d="m 218,136 c 55,0 108,-28 108,-89 0,-71 -55,-121 -102,-149 -35,-21 -75,-34 -116,-34 -55,0 -108,28 -108,89 0,71 55,121 102,149 35,21 75,34 116,34 z"
         fill="currentColor"
         id="path87862" />
    </g>
  </a>
  <a
     style="color:inherit"
     xlink:href="textedit://C:/Users/Javier/AppData/Local/Temp/frescobaldi-qinprpfp/tmptsnuz2do/loose%20examples.ly:199:18:19"
     id="a87872"
     transform="translate(-5.6906,-143.33479)">
    <g
       transform="translate(44.3875,149.982)"
       id="g87870">
      <path
         transform="scale(0.004,-0.004)"
         d="m 218,136 c 55,0 108,-28 108,-89 0,-71 -55,-121 -102,-149 -35,-21 -75,-34 -116,-34 -55,0 -108,28 -108,89 0,71 55,121 102,149 35,21 75,34 116,34 z"
         fill="currentColor"
         id="path87868" />
    </g>
  </a>
  <a
     style="color:inherit"
     xlink:href="textedit://C:/Users/Javier/AppData/Local/Temp/frescobaldi-qinprpfp/tmptsnuz2do/loose%20examples.ly:199:14:15"
     id="a87878"
     transform="translate(-5.6906,-143.33479)">
    <g
       transform="translate(42.3975,150.482)"
       id="g87876">
      <path
         transform="scale(0.004,-0.004)"
         d="m 218,136 c 55,0 108,-28 108,-89 0,-71 -55,-121 -102,-149 -35,-21 -75,-34 -116,-34 -55,0 -108,28 -108,89 0,71 55,121 102,149 35,21 75,34 116,34 z"
         fill="currentColor"
         id="path87874" />
    </g>
  </a>
  <a
     style="color:inherit"
     xlink:href="textedit://C:/Users/Javier/AppData/Local/Temp/frescobaldi-qinprpfp/tmptsnuz2do/loose%20examples.ly:199:15:16"
     id="a87884"
     transform="translate(-5.6906,-143.33479)">
    <g
       transform="translate(42.657,148.932)"
       id="g87882">
      <path
         transform="scale(0.0022,-0.0022)"
         d="M 129,129 H 259 C 259,77 291,29 340,29 350,29 354,21 354,14 354,7 350,0 340,0 291,0 243,14 194,14 145,14 98,0 49,0 39,0 34,7 34,14 c 0,7 5,15 15,15 49,0 80,48 80,100 z M 0,250 129,500 c 3,7 13,3 21,0 14,-6 28,-14 44,-14 16,0 31,8 45,14 2,1 2,1 4,1 8,0 16,-9 16,-21 V 129 H 129 v 215 c 0,15 -11,23 -20,23 -5,0 -9,-2 -11,-7 L 32,233 c -4,-7 -9,-9 -15,-9 -9,0 -19,7 -19,17 0,3 0,6 2,9 z"
         fill="currentColor"
         id="path87880" />
    </g>
  </a>
  <a
     style="color:inherit"
     xlink:href="textedit://C:/Users/Javier/AppData/Local/Temp/frescobaldi-qinprpfp/tmptsnuz2do/loose%20examples.ly:210:6:7"
     id="a87890"
     transform="translate(-5.6906,-143.33479)">
    <g
       transform="translate(36.4215,153.982)"
       id="g87888">
      <path
         transform="scale(0.004,-0.004)"
         d="m 213,112 c -50,0 -69,-43 -69,-88 0,-77 57,-136 134,-136 50,0 69,43 69,88 0,77 -57,136 -134,136 z M 491,0 c 0,-43 -34,-75 -72,-96 -53,-29 -114,-40 -174,-40 -60,0 -120,11 -173,40 -38,21 -72,53 -72,96 0,43 34,75 72,96 53,29 113,40 173,40 60,0 121,-11 174,-40 38,-21 72,-53 72,-96 z"
         fill="currentColor"
         id="path87886" />
    </g>
  </a>
  <a
     style="color:inherit"
     xlink:href="textedit://C:/Users/Javier/AppData/Local/Temp/frescobaldi-qinprpfp/tmptsnuz2do/loose%20examples.ly:211:6:7"
     id="a87896"
     transform="translate(-5.6906,-143.33479)">
    <g
       transform="translate(51.551,151.982)"
       id="g87894">
      <path
         transform="scale(0.004,-0.004)"
         d="m 213,112 c -50,0 -69,-43 -69,-88 0,-77 57,-136 134,-136 50,0 69,43 69,88 0,77 -57,136 -134,136 z M 491,0 c 0,-43 -34,-75 -72,-96 -53,-29 -114,-40 -174,-40 -60,0 -120,11 -173,40 -38,21 -72,53 -72,96 0,43 34,75 72,96 53,29 113,40 173,40 60,0 121,-11 174,-40 38,-21 72,-53 72,-96 z"
         fill="currentColor"
         id="path87892" />
    </g>
  </a>
  <a
     style="color:inherit"
     xlink:href="textedit://C:/Users/Javier/AppData/Local/Temp/frescobaldi-qinprpfp/tmptsnuz2do/loose%20examples.ly:199:24:25"
     id="a87902"
     transform="translate(-5.6906,-143.33479)">
    <g
       transform="translate(48.3673,148.982)"
       id="g87900">
      <path
         transform="scale(0.004,-0.004)"
         d="m 218,136 c 55,0 108,-28 108,-89 0,-71 -55,-121 -102,-149 -35,-21 -75,-34 -116,-34 -55,0 -108,28 -108,89 0,71 55,121 102,149 35,21 75,34 116,34 z"
         fill="currentColor"
         id="path87898" />
    </g>
  </a>
  <a
     style="color:inherit"
     xlink:href="textedit://C:/Users/Javier/AppData/Local/Temp/frescobaldi-qinprpfp/tmptsnuz2do/loose%20examples.ly:199:6:7"
     id="a87908"
     transform="translate(-5.6906,-143.33479)">
    <g
       transform="translate(36.4278,151.982)"
       id="g87906">
      <path
         transform="scale(0.004,-0.004)"
         d="m 218,136 c 55,0 108,-28 108,-89 0,-71 -55,-121 -102,-149 -35,-21 -75,-34 -116,-34 -55,0 -108,28 -108,89 0,71 55,121 102,149 35,21 75,34 116,34 z"
         fill="currentColor"
         id="path87904" />
    </g>
  </a>
</svg>
