<!-- <?xml version="1.0" encoding="UTF-8" standalone="no"?> -->
<svg
   version="1.2"
   width="161.12004mm"
   height="17.461372mm"
   viewBox="0 0 91.686203 9.9364851"
   id="svg23339"
   sodipodi:docname="ricci left hand examples-2.svg"
   xmlns:inkscape="http://www.inkscape.org/namespaces/inkscape"
   xmlns:sodipodi="http://sodipodi.sourceforge.net/DTD/sodipodi-0.dtd"
   xmlns:xlink="http://www.w3.org/1999/xlink"
   xmlns="http://www.w3.org/2000/svg"
   xmlns:svg="http://www.w3.org/2000/svg">
  <defs
     id="defs23343" />
  <sodipodi:namedview
     id="namedview23341"
     pagecolor="#ffffff"
     bordercolor="#000000"
     borderopacity="0.25"
     inkscape:showpageshadow="2"
     inkscape:pageopacity="0.0"
     inkscape:pagecheckerboard="0"
     inkscape:deskcolor="#d1d1d1"
     inkscape:document-units="mm"
     showgrid="false" />
  <style
     type="text/css"
     id="style17425"><![CDATA[
tspan { white-space: pre; }
]]></style>
  <!-- Page: 2/6 -->
  <g
     transform="translate(3.1967416e-8,7.1932791)"
     id="g21093">
    <line
       stroke-linejoin="round"
       stroke-linecap="round"
       stroke-width="0.0966"
       stroke="currentColor"
       x1="0.048300002"
       y1="0"
       x2="91.637901"
       y2="0"
       id="line21091" />
  </g>
  <g
     transform="translate(3.1967416e-8,6.2932791)"
     id="g21097">
    <line
       stroke-linejoin="round"
       stroke-linecap="round"
       stroke-width="0.0966"
       stroke="currentColor"
       x1="0.048300002"
       y1="0"
       x2="91.637901"
       y2="0"
       id="line21095" />
  </g>
  <g
     transform="translate(3.1967416e-8,5.3932791)"
     id="g21101">
    <line
       stroke-linejoin="round"
       stroke-linecap="round"
       stroke-width="0.0966"
       stroke="currentColor"
       x1="0.048300002"
       y1="0"
       x2="91.637901"
       y2="0"
       id="line21099" />
  </g>
  <g
     transform="translate(3.1967416e-8,4.4932791)"
     id="g21105">
    <line
       stroke-linejoin="round"
       stroke-linecap="round"
       stroke-width="0.0966"
       stroke="currentColor"
       x1="0.048300002"
       y1="0"
       x2="91.637901"
       y2="0"
       id="line21103" />
  </g>
  <g
     transform="translate(3.1967416e-8,3.5932791)"
     id="g21109">
    <line
       stroke-linejoin="round"
       stroke-linecap="round"
       stroke-width="0.0966"
       stroke="currentColor"
       x1="0.048300002"
       y1="0"
       x2="91.637901"
       y2="0"
       id="line21107" />
  </g>
  <g
     transform="translate(89.9424,4.9432791)"
     id="g21113">
    <path
       transform="scale(0.0036,-0.0036)"
       d="M 0,0 C 0,31 25,56 56,56 87,56 111,31 111,0 111,-31 87,-56 56,-56 25,-56 0,-31 0,0 Z"
       fill="currentColor"
       id="path21111" />
  </g>
  <g
     transform="translate(89.9424,5.8432791)"
     id="g21117">
    <path
       transform="scale(0.0036,-0.0036)"
       d="M 0,0 C 0,31 25,56 56,56 87,56 111,31 111,0 111,-31 87,-56 56,-56 25,-56 0,-31 0,0 Z"
       fill="currentColor"
       id="path21115" />
  </g>
  <g
     transform="translate(91.1067,5.3932791)"
     id="g21121">
    <rect
       x="0"
       y="-1.8"
       width="0.5794"
       height="3.5999999"
       ry="0.0000"
       fill="currentColor"
       id="rect21119" />
  </g>
  <g
     transform="translate(90.6335,5.3932791)"
     id="g21125">
    <rect
       x="0"
       y="-1.8"
       width="0.18350001"
       height="3.5999999"
       ry="0.0000"
       fill="currentColor"
       id="rect21123" />
  </g>
  <g
     transform="translate(50.6485,5.3932791)"
     id="g21129">
    <rect
       x="0"
       y="-1.8"
       width="0.18350001"
       height="3.5999999"
       ry="0.0000"
       fill="currentColor"
       id="rect21127" />
  </g>
  <g
     transform="translate(3.1967416e-8,8.0932791)"
     id="g21133">
    <rect
       x="87.276802"
       y="-0.0933"
       width="1.7588"
       height="0.1866"
       ry="0.0933"
       fill="currentColor"
       id="rect21131" />
  </g>
  <g
     transform="translate(3.1967416e-8,8.0932791)"
     id="g21137">
    <rect
       x="84.654297"
       y="-0.0933"
       width="1.7588"
       height="0.1866"
       ry="0.0933"
       fill="currentColor"
       id="rect21135" />
  </g>
  <g
     transform="translate(3.1967416e-8,8.9932791)"
     id="g21141">
    <rect
       x="84.654297"
       y="-0.0933"
       width="1.7588"
       height="0.1866"
       ry="0.0933"
       fill="currentColor"
       id="rect21139" />
  </g>
  <g
     transform="translate(3.1967416e-8,8.0932791)"
     id="g21145">
    <rect
       x="79.909203"
       y="-0.0933"
       width="1.7588"
       height="0.1866"
       ry="0.0933"
       fill="currentColor"
       id="rect21143" />
  </g>
  <g
     transform="translate(3.1967416e-8,8.0932791)"
     id="g21149">
    <rect
       x="75.1642"
       y="-0.0933"
       width="1.7588"
       height="0.1866"
       ry="0.0933"
       fill="currentColor"
       id="rect21147" />
  </g>
  <g
     transform="translate(3.1967416e-8,8.0932791)"
     id="g21153">
    <rect
       x="25.2502"
       y="-0.0933"
       width="1.7588"
       height="0.1866"
       ry="0.0933"
       fill="currentColor"
       id="rect21151" />
  </g>
  <g
     transform="translate(3.1967416e-8,8.0932791)"
     id="g21157">
    <rect
       x="20.2551"
       y="-0.0933"
       width="1.7588"
       height="0.1866"
       ry="0.0933"
       fill="currentColor"
       id="rect21155" />
  </g>
  <g
     transform="translate(3.1967416e-8,8.0932791)"
     id="g21161">
    <rect
       x="17.882601"
       y="-0.0933"
       width="1.7588"
       height="0.1866"
       ry="0.0933"
       fill="currentColor"
       id="rect21159" />
  </g>
  <g
     transform="translate(3.1967416e-8,8.0932791)"
     id="g21165">
    <rect
       x="15.2601"
       y="-0.0933"
       width="1.7588"
       height="0.1866"
       ry="0.0933"
       fill="currentColor"
       id="rect21163" />
  </g>
  <g
     transform="translate(3.1967416e-8,8.9932791)"
     id="g21169">
    <rect
       x="15.2601"
       y="-0.0933"
       width="1.7588"
       height="0.1866"
       ry="0.0933"
       fill="currentColor"
       id="rect21167" />
  </g>
  <g
     transform="translate(3.1967416e-8,8.0932791)"
     id="g21173">
    <rect
       x="12.8875"
       y="-0.0933"
       width="1.7588"
       height="0.1866"
       ry="0.0933"
       fill="currentColor"
       id="rect21171" />
  </g>
  <g
     transform="translate(3.1967416e-8,8.0932791)"
     id="g21177">
    <rect
       x="10.265"
       y="-0.0933"
       width="1.7588"
       height="0.1866"
       ry="0.0933"
       fill="currentColor"
       id="rect21175" />
  </g>
  <g
     transform="translate(3.1967416e-8,8.9932791)"
     id="g21181">
    <rect
       x="10.265"
       y="-0.0933"
       width="1.7588"
       height="0.1866"
       ry="0.0933"
       fill="currentColor"
       id="rect21179" />
  </g>
  <g
     transform="translate(60.2093,5.3932791)"
     id="g21185">
    <rect
       x="-0.062799998"
       y="-2.7"
       width="0.12549999"
       height="2.5386"
       ry="0.039999999"
       fill="currentColor"
       id="rect21183" />
  </g>
  <a
     style="color:inherit"
     xlink:href="textedit://C:/Users/Javier/Documents/lilypond%20scores/ricci%20left%20hand%20examples.ly:229:13:14"
     id="a21191"
     transform="translate(-5.6906,-106.87702)">
    <g
       transform="translate(64.7902,112.2703)"
       id="g21189">
      <path
         transform="scale(0.0036,-0.0036)"
         d="m 215,137 c 57,0 111,-29 111,-92 0,-71 -54,-120 -101,-148 -35,-21 -74,-34 -114,-34 -57,0 -111,29 -111,92 0,71 54,120 101,148 35,21 74,34 114,34 z"
         fill="currentColor"
         id="path21187" />
    </g>
  </a>
  <g
     transform="translate(57.5868,5.3932791)"
     id="g21195">
    <rect
       x="-0.062799998"
       y="-2.7"
       width="0.12549999"
       height="3.4386001"
       ry="0.039999999"
       fill="currentColor"
       id="rect21193" />
  </g>
  <a
     style="color:inherit"
     xlink:href="textedit://C:/Users/Javier/Documents/lilypond%20scores/ricci%20left%20hand%20examples.ly:229:11:12"
     id="a21201"
     transform="translate(-5.6906,-106.87702)">
    <g
       transform="translate(62.1677,113.1703)"
       id="g21199">
      <path
         transform="scale(0.0036,-0.0036)"
         d="m 215,137 c 57,0 111,-29 111,-92 0,-71 -54,-120 -101,-148 -35,-21 -74,-34 -114,-34 -57,0 -111,29 -111,92 0,71 54,120 101,148 35,21 74,34 114,34 z"
         fill="currentColor"
         id="path21197" />
    </g>
  </a>
  <g
     transform="translate(67.0769,5.3932791)"
     id="g21205">
    <rect
       x="-0.062799998"
       y="-1.8"
       width="0.12549999"
       height="3.4386001"
       ry="0.039999999"
       fill="currentColor"
       id="rect21203" />
  </g>
  <a
     style="color:inherit"
     xlink:href="textedit://C:/Users/Javier/Documents/lilypond%20scores/ricci%20left%20hand%20examples.ly:229:23:24"
     id="a21211"
     transform="translate(-5.6906,-106.87702)">
    <g
       transform="translate(71.6578,114.0703)"
       id="g21209">
      <path
         transform="scale(0.0036,-0.0036)"
         d="m 215,137 c 57,0 111,-29 111,-92 0,-71 -54,-120 -101,-148 -35,-21 -74,-34 -114,-34 -57,0 -111,29 -111,92 0,71 54,120 101,148 35,21 74,34 114,34 z"
         fill="currentColor"
         id="path21207" />
    </g>
  </a>
  <g
     transform="translate(64.9544,5.3932791)"
     id="g21215">
    <rect
       x="-0.062799998"
       y="-1.8"
       width="0.12549999"
       height="2.0885999"
       ry="0.039999999"
       fill="currentColor"
       id="rect21213" />
  </g>
  <a
     style="color:inherit"
     xlink:href="textedit://C:/Users/Javier/Documents/lilypond%20scores/ricci%20left%20hand%20examples.ly:229:21:22"
     id="a21221"
     transform="translate(-5.6906,-106.87702)">
    <g
       transform="translate(69.5352,112.7203)"
       id="g21219">
      <path
         transform="scale(0.0036,-0.0036)"
         d="m 215,137 c 57,0 111,-29 111,-92 0,-71 -54,-120 -101,-148 -35,-21 -74,-34 -114,-34 -57,0 -111,29 -111,92 0,71 54,120 101,148 35,21 74,34 114,34 z"
         fill="currentColor"
         id="path21217" />
    </g>
  </a>
  <g
     transform="translate(62.3319,5.3932791)"
     id="g21225">
    <rect
       x="-0.062799998"
       y="-1.8"
       width="0.12549999"
       height="2.9886"
       ry="0.039999999"
       fill="currentColor"
       id="rect21223" />
  </g>
  <a
     style="color:inherit"
     xlink:href="textedit://C:/Users/Javier/Documents/lilypond%20scores/ricci%20left%20hand%20examples.ly:229:18:19"
     id="a21231"
     transform="translate(-5.6906,-106.87702)">
    <g
       transform="translate(67.1234,109.8043)"
       id="g21229">
      <path
         transform="scale(0.002,-0.002)"
         d="m 129,149 h 7 c 36,0 74,-13 111,-40 19,-14 40,-21 59,-21 22,0 40,10 46,31 2,7 7,11 13,11 7,0 15,-5 15,-14 v -5 C 361,40 296,0 234,0 196,0 159,15 133,47 121,62 105,69 89,69 60,69 32,48 29,13 28,4 22,0 15,0 8,0 0,5 0,14 c 0,173 233,163 233,341 0,56 -14,116 -62,116 -33,0 -66,-15 -66,-44 0,-24 31,-37 31,-61 0,-34 -27,-61 -61,-61 -34,0 -61,27 -61,61 0,78 74,134 157,134 98,0 191,-55 191,-145 C 362,211 227,199 129,149 Z"
         fill="currentColor"
         id="path21227" />
    </g>
  </a>
  <a
     style="color:inherit"
     xlink:href="textedit://C:/Users/Javier/Documents/lilypond%20scores/ricci%20left%20hand%20examples.ly:229:15:16"
     id="a21237"
     transform="translate(-5.6906,-106.87702)">
    <g
       transform="translate(66.9127,113.6203)"
       id="g21235">
      <path
         transform="scale(0.0036,-0.0036)"
         d="m 215,137 c 57,0 111,-29 111,-92 0,-71 -54,-120 -101,-148 -35,-21 -74,-34 -114,-34 -57,0 -111,29 -111,92 0,71 54,120 101,148 35,21 74,34 114,34 z"
         fill="currentColor"
         id="path21233" />
    </g>
  </a>
  <g
     transform="translate(52.8418,5.3932791)"
     id="g21241">
    <rect
       x="-0.062799998"
       y="-2.7"
       width="0.12549999"
       height="2.9886"
       ry="0.039999999"
       fill="currentColor"
       id="rect21239" />
  </g>
  <a
     style="color:inherit"
     xlink:href="textedit://C:/Users/Javier/Documents/lilypond%20scores/ricci%20left%20hand%20examples.ly:233:7:8"
     id="a21247"
     transform="translate(-5.6906,-106.87702)">
    <g
       transform="translate(57.4226,114.5203)"
       id="g21245">
      <path
         transform="scale(0.0036,-0.0036)"
         d="m 211,111 c -49,0 -68,-43 -68,-88 0,-75 57,-134 132,-134 49,0 68,43 68,88 0,75 -57,134 -132,134 z M 486,0 c 0,-43 -33,-76 -71,-97 -52,-29 -112,-40 -172,-40 -60,0 -120,11 -172,40 -38,21 -71,54 -71,97 0,43 33,76 71,97 52,29 112,40 172,40 60,0 120,-11 172,-40 38,-21 71,-54 71,-97 z"
         fill="currentColor"
         id="path21243" />
    </g>
  </a>
  <a
     style="color:inherit"
     xlink:href="textedit://C:/Users/Javier/Documents/lilypond%20scores/ricci%20left%20hand%20examples.ly:229:6:7"
     id="a21253"
     transform="translate(-5.6906,-106.87702)">
    <g
       transform="translate(57.4226,112.7203)"
       id="g21251">
      <path
         transform="scale(0.0036,-0.0036)"
         d="m 215,137 c 57,0 111,-29 111,-92 0,-71 -54,-120 -101,-148 -35,-21 -74,-34 -114,-34 -57,0 -111,29 -111,92 0,71 54,120 101,148 35,21 74,34 114,34 z"
         fill="currentColor"
         id="path21249" />
    </g>
  </a>
  <g
     transform="translate(49.2557,5.3932791)"
     id="g21257">
    <rect
       x="-0.062799998"
       y="-3.145"
       width="0.12549999"
       height="2.9835999"
       ry="0.039999999"
       fill="currentColor"
       id="rect21255" />
  </g>
  <a
     style="color:inherit"
     xlink:href="textedit://C:/Users/Javier/Documents/lilypond%20scores/ricci%20left%20hand%20examples.ly:228:49:50"
     id="a21263"
     transform="translate(-5.6906,-106.87702)">
    <g
       transform="translate(53.8366,112.2703)"
       id="g21261">
      <path
         transform="scale(0.0036,-0.0036)"
         d="m 215,137 c 57,0 111,-29 111,-92 0,-71 -54,-120 -101,-148 -35,-21 -74,-34 -114,-34 -57,0 -111,29 -111,92 0,71 54,120 101,148 35,21 74,34 114,34 z"
         fill="currentColor"
         id="path21259" />
    </g>
  </a>
  <a
     style="color:inherit"
     xlink:href="textedit://C:/Users/Javier/Documents/lilypond%20scores/ricci%20left%20hand%20examples.ly:228:9:10"
     id="a21269"
     transform="translate(-5.6906,-106.87702)">
    <g
       transform="translate(16.2487,112.2703)"
       id="g21267">
      <path
         stroke-width="0.0773"
         stroke-linejoin="round"
         stroke-linecap="round"
         stroke="currentColor"
         fill="currentColor"
         d="M 1.0755,-0.4996 C 3.6921,-2.4562 35.7449,-5.28 38.6633,-3.811 v 0 C 35.755,-5.1645 3.7023,-2.3408 1.0755,-0.4996 Z"
         id="path21265" />
    </g>
  </a>
  <g
     transform="translate(55.4643,5.3932791)"
     id="g21273">
    <rect
       x="-0.062799998"
       y="-2.7"
       width="0.12549999"
       height="2.0885999"
       ry="0.039999999"
       fill="currentColor"
       id="rect21271" />
  </g>
  <a
     style="color:inherit"
     xlink:href="textedit://C:/Users/Javier/Documents/lilypond%20scores/ricci%20left%20hand%20examples.ly:229:9:10"
     id="a21279"
     transform="translate(-5.6906,-106.87702)">
    <g
       transform="translate(60.0451,111.8203)"
       id="g21277">
      <path
         transform="scale(0.0036,-0.0036)"
         d="m 215,137 c 57,0 111,-29 111,-92 0,-71 -54,-120 -101,-148 -35,-21 -74,-34 -114,-34 -57,0 -111,29 -111,92 0,71 54,120 101,148 35,21 74,34 114,34 z"
         fill="currentColor"
         id="path21275" />
    </g>
  </a>
  <g
     transform="translate(83.9346,5.3932791)"
     id="g21283">
    <rect
       x="-0.062799998"
       y="0"
       width="0.12549999"
       height="2.0885999"
       ry="0.039999999"
       fill="currentColor"
       id="rect21281" />
  </g>
  <g
     transform="translate(86.0571,5.3932791)"
     id="g21287">
    <rect
       x="-0.062799998"
       y="0"
       width="0.12549999"
       height="3.4386001"
       ry="0.039999999"
       fill="currentColor"
       id="rect21285" />
  </g>
  <a
     style="color:inherit"
     xlink:href="textedit://C:/Users/Javier/Documents/lilypond%20scores/ricci%20left%20hand%20examples.ly:229:45:46"
     id="a21293"
     transform="translate(-5.6906,-106.87702)">
    <g
       transform="translate(90.638,115.8703)"
       id="g21291">
      <path
         transform="scale(0.0036,-0.0036)"
         d="m 215,137 c 57,0 111,-29 111,-92 0,-71 -54,-120 -101,-148 -35,-21 -74,-34 -114,-34 -57,0 -111,29 -111,92 0,71 54,120 101,148 35,21 74,34 114,34 z"
         fill="currentColor"
         id="path21289" />
    </g>
  </a>
  <a
     style="color:inherit"
     xlink:href="textedit://C:/Users/Javier/Documents/lilypond%20scores/ricci%20left%20hand%20examples.ly:229:43:44"
     id="a21299"
     transform="translate(-5.6906,-106.87702)">
    <g
       transform="translate(88.5154,114.5203)"
       id="g21297">
      <path
         transform="scale(0.0036,-0.0036)"
         d="m 215,137 c 57,0 111,-29 111,-92 0,-71 -54,-120 -101,-148 -35,-21 -74,-34 -114,-34 -57,0 -111,29 -111,92 0,71 54,120 101,148 35,21 74,34 114,34 z"
         fill="currentColor"
         id="path21295" />
    </g>
  </a>
  <g
     transform="translate(81.3121,5.3932791)"
     id="g21303">
    <rect
       x="-0.062799998"
       y="0"
       width="0.12549999"
       height="2.9886"
       ry="0.039999999"
       fill="currentColor"
       id="rect21301" />
  </g>
  <a
     style="color:inherit"
     xlink:href="textedit://C:/Users/Javier/Documents/lilypond%20scores/ricci%20left%20hand%20examples.ly:229:40:41"
     id="a21309"
     transform="translate(-5.6906,-106.87702)">
    <g
       transform="translate(86.1036,109.7366)"
       id="g21307">
      <path
         transform="scale(0.002,-0.002)"
         d="m 129,149 h 7 c 36,0 74,-13 111,-40 19,-14 40,-21 59,-21 22,0 40,10 46,31 2,7 7,11 13,11 7,0 15,-5 15,-14 v -5 C 361,40 296,0 234,0 196,0 159,15 133,47 121,62 105,69 89,69 60,69 32,48 29,13 28,4 22,0 15,0 8,0 0,5 0,14 c 0,173 233,163 233,341 0,56 -14,116 -62,116 -33,0 -66,-15 -66,-44 0,-24 31,-37 31,-61 0,-34 -27,-61 -61,-61 -34,0 -61,27 -61,61 0,78 74,134 157,134 98,0 191,-55 191,-145 C 362,211 227,199 129,149 Z"
         fill="currentColor"
         id="path21305" />
    </g>
  </a>
  <g
     transform="translate(81.2493,5.3932791)"
     id="g21313">
    <polygon
       stroke-linejoin="round"
       stroke-linecap="round"
       stroke-width="0.08"
       fill="currentColor"
       stroke="currentColor"
       points="7.4531,-0.176 7.4531,0.176 0.04,0.176 0.04,-0.176 "
       id="polygon21311" />
  </g>
  <g
     transform="translate(81.2493,6.1255791)"
     id="g21317">
    <polygon
       stroke-linejoin="round"
       stroke-linecap="round"
       stroke-width="0.08"
       fill="currentColor"
       stroke="currentColor"
       points="7.4531,-0.176 7.4531,0.176 0.04,0.176 0.04,-0.176 "
       id="polygon21315" />
  </g>
  <g
     transform="translate(11.6051,5.5609791)"
     id="g21321">
    <polygon
       stroke-linejoin="round"
       stroke-linecap="round"
       stroke-width="0.08"
       fill="currentColor"
       stroke="currentColor"
       points="7.7031,-0.3437 7.7031,0.0083 0.04,0.176 0.04,-0.176 "
       id="polygon21319" />
  </g>
  <g
     transform="translate(11.6051,6.2932791)"
     id="g21325">
    <polygon
       stroke-linejoin="round"
       stroke-linecap="round"
       stroke-width="0.08"
       fill="currentColor"
       stroke="currentColor"
       points="7.7031,-0.3437 7.7031,0.0083 0.04,0.176 0.04,-0.176 "
       id="polygon21323" />
  </g>
  <g
     transform="translate(21.5952,5.3932791)"
     id="g21329">
    <polygon
       stroke-linejoin="round"
       stroke-linecap="round"
       stroke-width="0.08"
       fill="currentColor"
       stroke="currentColor"
       points="7.7031,-0.9083 7.7031,-0.5563 0.04,0.176 0.04,-0.176 "
       id="polygon21327" />
  </g>
  <g
     transform="translate(21.5952,6.1255791)"
     id="g21333">
    <polygon
       stroke-linejoin="round"
       stroke-linecap="round"
       stroke-width="0.08"
       fill="currentColor"
       stroke="currentColor"
       points="7.7031,-0.9083 7.7031,-0.5563 0.04,0.176 0.04,-0.176 "
       id="polygon21331" />
  </g>
  <g
     transform="translate(31.5853,4.4932791)"
     id="g21337">
    <polygon
       stroke-linejoin="round"
       stroke-linecap="round"
       stroke-width="0.08"
       fill="currentColor"
       stroke="currentColor"
       points="7.7031,-0.9083 7.7031,-0.5563 0.04,0.176 0.04,-0.176 "
       id="polygon21335" />
  </g>
  <g
     transform="translate(31.5853,5.2255791)"
     id="g21341">
    <polygon
       stroke-linejoin="round"
       stroke-linecap="round"
       stroke-width="0.08"
       fill="currentColor"
       stroke="currentColor"
       points="7.7031,-0.9083 7.7031,-0.5563 0.04,0.176 0.04,-0.176 "
       id="polygon21339" />
  </g>
  <g
     transform="translate(41.5754,2.8609791)"
     id="g21345">
    <polygon
       stroke-linejoin="round"
       stroke-linecap="round"
       stroke-width="0.08"
       fill="currentColor"
       stroke="currentColor"
       points="7.7031,-0.7937 7.7031,-0.4417 0.04,0.176 0.04,-0.176 "
       id="polygon21343" />
  </g>
  <g
     transform="translate(41.5754,3.5932791)"
     id="g21349">
    <polygon
       stroke-linejoin="round"
       stroke-linecap="round"
       stroke-width="0.08"
       fill="currentColor"
       stroke="currentColor"
       points="7.7031,-0.7937 7.7031,-0.4417 0.04,0.176 0.04,-0.176 "
       id="polygon21347" />
  </g>
  <a
     style="color:inherit"
     xlink:href="textedit://C:/Users/Javier/Documents/lilypond%20scores/ricci%20left%20hand%20examples.ly:229:7:8"
     id="a21355"
     transform="translate(-5.6906,-106.87702)">
    <g
       transform="translate(57.4226,112.2703)"
       id="g21353">
      <path
         stroke-width="0.0773"
         stroke-linejoin="round"
         stroke-linecap="round"
         stroke="currentColor"
         fill="currentColor"
         d="m 1.1391,-3.366 c 2.8679,-1.5014 33.2273,0.7859 35.8379,2.7 v 0 C 34.3577,-2.4646 3.9983,-4.7518 1.1391,-3.366 Z"
         id="path21351" />
    </g>
  </a>
  <g
     transform="translate(52.779,2.6932791)"
     id="g21359">
    <polygon
       stroke-linejoin="round"
       stroke-linecap="round"
       stroke-width="0.08"
       fill="currentColor"
       stroke="currentColor"
       points="7.4531,-0.176 7.4531,0.176 0.04,0.176 0.04,-0.176 "
       id="polygon21357" />
  </g>
  <g
     transform="translate(52.779,3.4255791)"
     id="g21363">
    <polygon
       stroke-linejoin="round"
       stroke-linecap="round"
       stroke-width="0.08"
       fill="currentColor"
       stroke="currentColor"
       points="7.4531,-0.176 7.4531,0.176 0.04,0.176 0.04,-0.176 "
       id="polygon21361" />
  </g>
  <g
     transform="translate(62.2691,3.5932791)"
     id="g21367">
    <polygon
       stroke-linejoin="round"
       stroke-linecap="round"
       stroke-width="0.08"
       fill="currentColor"
       stroke="currentColor"
       points="7.4531,-0.176 7.4531,0.176 0.04,0.176 0.04,-0.176 "
       id="polygon21365" />
  </g>
  <g
     transform="translate(62.2691,4.3255791)"
     id="g21371">
    <polygon
       stroke-linejoin="round"
       stroke-linecap="round"
       stroke-width="0.08"
       fill="currentColor"
       stroke="currentColor"
       points="7.4531,-0.176 7.4531,0.176 0.04,0.176 0.04,-0.176 "
       id="polygon21369" />
  </g>
  <g
     transform="translate(71.7592,4.4932791)"
     id="g21375">
    <polygon
       stroke-linejoin="round"
       stroke-linecap="round"
       stroke-width="0.08"
       fill="currentColor"
       stroke="currentColor"
       points="7.4531,-0.176 7.4531,0.176 0.04,0.176 0.04,-0.176 "
       id="polygon21373" />
  </g>
  <g
     transform="translate(71.7592,5.2255791)"
     id="g21379">
    <polygon
       stroke-linejoin="round"
       stroke-linecap="round"
       stroke-width="0.08"
       fill="currentColor"
       stroke="currentColor"
       points="7.4531,-0.176 7.4531,0.176 0.04,0.176 0.04,-0.176 "
       id="polygon21377" />
  </g>
  <a
     style="color:inherit"
     xlink:href="textedit://C:/Users/Javier/Documents/lilypond%20scores/ricci%20left%20hand%20examples.ly:229:39:40"
     id="a21385"
     transform="translate(-5.6906,-106.87702)">
    <g
       transform="translate(85.8929,115.4203)"
       id="g21383">
      <path
         transform="scale(0.0036,-0.0036)"
         d="m 215,137 c 57,0 111,-29 111,-92 0,-71 -54,-120 -101,-148 -35,-21 -74,-34 -114,-34 -57,0 -111,29 -111,92 0,71 54,120 101,148 35,21 74,34 114,34 z"
         fill="currentColor"
         id="path21381" />
    </g>
  </a>
  <g
     transform="translate(88.6797,5.3932791)"
     id="g21389">
    <rect
       x="-0.062799998"
       y="0"
       width="0.12549999"
       height="2.5386"
       ry="0.039999999"
       fill="currentColor"
       id="rect21387" />
  </g>
  <a
     style="color:inherit"
     xlink:href="textedit://C:/Users/Javier/Documents/lilypond%20scores/ricci%20left%20hand%20examples.ly:229:47:48"
     id="a21395"
     transform="translate(-5.6906,-106.87702)">
    <g
       transform="translate(93.2605,114.9703)"
       id="g21393">
      <path
         transform="scale(0.0036,-0.0036)"
         d="m 215,137 c 57,0 111,-29 111,-92 0,-71 -54,-120 -101,-148 -35,-21 -74,-34 -114,-34 -57,0 -111,29 -111,92 0,71 54,120 101,148 35,21 74,34 114,34 z"
         fill="currentColor"
         id="path21391" />
    </g>
  </a>
  <a
     style="color:inherit"
     xlink:href="textedit://C:/Users/Javier/Documents/lilypond%20scores/ricci%20left%20hand%20examples.ly:229:31:32"
     id="a21401"
     transform="translate(-5.6906,-106.87702)">
    <g
       transform="translate(79.0253,113.6203)"
       id="g21399">
      <path
         transform="scale(0.0036,-0.0036)"
         d="m 215,137 c 57,0 111,-29 111,-92 0,-71 -54,-120 -101,-148 -35,-21 -74,-34 -114,-34 -57,0 -111,29 -111,92 0,71 54,120 101,148 35,21 74,34 114,34 z"
         fill="currentColor"
         id="path21397" />
    </g>
  </a>
  <g
     transform="translate(71.822,5.3932791)"
     id="g21405">
    <rect
       x="-0.062799998"
       y="-0.89999998"
       width="0.12549999"
       height="2.9886"
       ry="0.039999999"
       fill="currentColor"
       id="rect21403" />
  </g>
  <a
     style="color:inherit"
     xlink:href="textedit://C:/Users/Javier/Documents/lilypond%20scores/ricci%20left%20hand%20examples.ly:229:28:29"
     id="a21411"
     transform="translate(-5.6906,-106.87702)">
    <g
       transform="translate(76.6135,108.8198)"
       id="g21409">
      <path
         transform="scale(0.002,-0.002)"
         d="m 129,149 h 7 c 36,0 74,-13 111,-40 19,-14 40,-21 59,-21 22,0 40,10 46,31 2,7 7,11 13,11 7,0 15,-5 15,-14 v -5 C 361,40 296,0 234,0 196,0 159,15 133,47 121,62 105,69 89,69 60,69 32,48 29,13 28,4 22,0 15,0 8,0 0,5 0,14 c 0,173 233,163 233,341 0,56 -14,116 -62,116 -33,0 -66,-15 -66,-44 0,-24 31,-37 31,-61 0,-34 -27,-61 -61,-61 -34,0 -61,27 -61,61 0,78 74,134 157,134 98,0 191,-55 191,-145 C 362,211 227,199 129,149 Z"
         fill="currentColor"
         id="path21407" />
    </g>
  </a>
  <a
     style="color:inherit"
     xlink:href="textedit://C:/Users/Javier/Documents/lilypond%20scores/ricci%20left%20hand%20examples.ly:229:27:28"
     id="a21417"
     transform="translate(-5.6906,-106.87702)">
    <g
       transform="translate(76.4028,114.5203)"
       id="g21415">
      <path
         transform="scale(0.0036,-0.0036)"
         d="m 215,137 c 57,0 111,-29 111,-92 0,-71 -54,-120 -101,-148 -35,-21 -74,-34 -114,-34 -57,0 -111,29 -111,92 0,71 54,120 101,148 35,21 74,34 114,34 z"
         fill="currentColor"
         id="path21413" />
    </g>
  </a>
  <g
     transform="translate(74.4445,5.3932791)"
     id="g21421">
    <rect
       x="-0.062799998"
       y="-0.89999998"
       width="0.12549999"
       height="2.0885999"
       ry="0.039999999"
       fill="currentColor"
       id="rect21419" />
  </g>
  <g
     transform="translate(69.6995,5.3932791)"
     id="g21425">
    <rect
       x="-0.062799998"
       y="-1.8"
       width="0.12549999"
       height="2.5386"
       ry="0.039999999"
       fill="currentColor"
       id="rect21423" />
  </g>
  <a
     style="color:inherit"
     xlink:href="textedit://C:/Users/Javier/Documents/lilypond%20scores/ricci%20left%20hand%20examples.ly:229:25:26"
     id="a21431"
     transform="translate(-5.6906,-106.87702)">
    <g
       transform="translate(74.2803,113.1703)"
       id="g21429">
      <path
         transform="scale(0.0036,-0.0036)"
         d="m 215,137 c 57,0 111,-29 111,-92 0,-71 -54,-120 -101,-148 -35,-21 -74,-34 -114,-34 -57,0 -111,29 -111,92 0,71 54,120 101,148 35,21 74,34 114,34 z"
         fill="currentColor"
         id="path21427" />
    </g>
  </a>
  <g
     transform="translate(79.1896,5.3932791)"
     id="g21435">
    <rect
       x="-0.062799998"
       y="-0.89999998"
       width="0.12549999"
       height="2.5386"
       ry="0.039999999"
       fill="currentColor"
       id="rect21433" />
  </g>
  <a
     style="color:inherit"
     xlink:href="textedit://C:/Users/Javier/Documents/lilypond%20scores/ricci%20left%20hand%20examples.ly:229:37:38"
     id="a21441"
     transform="translate(-5.6906,-106.87702)">
    <g
       transform="translate(83.7704,114.0703)"
       id="g21439">
      <path
         transform="scale(0.0036,-0.0036)"
         d="m 215,137 c 57,0 111,-29 111,-92 0,-71 -54,-120 -101,-148 -35,-21 -74,-34 -114,-34 -57,0 -111,29 -111,92 0,71 54,120 101,148 35,21 74,34 114,34 z"
         fill="currentColor"
         id="path21437" />
    </g>
  </a>
  <g
     transform="translate(76.567,5.3932791)"
     id="g21445">
    <rect
       x="-0.062799998"
       y="-0.89999998"
       width="0.12549999"
       height="3.4386001"
       ry="0.039999999"
       fill="currentColor"
       id="rect21443" />
  </g>
  <a
     style="color:inherit"
     xlink:href="textedit://C:/Users/Javier/Documents/lilypond%20scores/ricci%20left%20hand%20examples.ly:229:35:36"
     id="a21451"
     transform="translate(-5.6906,-106.87702)">
    <g
       transform="translate(81.1479,114.9703)"
       id="g21449">
      <path
         transform="scale(0.0036,-0.0036)"
         d="m 215,137 c 57,0 111,-29 111,-92 0,-71 -54,-120 -101,-148 -35,-21 -74,-34 -114,-34 -57,0 -111,29 -111,92 0,71 54,120 101,148 35,21 74,34 114,34 z"
         fill="currentColor"
         id="path21447" />
    </g>
  </a>
  <a
     style="color:inherit"
     xlink:href="textedit://C:/Users/Javier/Documents/lilypond%20scores/ricci%20left%20hand%20examples.ly:228:15:16"
     id="a21457"
     transform="translate(-5.6906,-106.87702)">
    <g
       transform="translate(23.8663,114.9703)"
       id="g21455">
      <path
         transform="scale(0.0036,-0.0036)"
         d="m 215,137 c 57,0 111,-29 111,-92 0,-71 -54,-120 -101,-148 -35,-21 -74,-34 -114,-34 -57,0 -111,29 -111,92 0,71 54,120 101,148 35,21 74,34 114,34 z"
         fill="currentColor"
         id="path21453" />
    </g>
  </a>
  <g
     transform="translate(21.6579,5.3932791)"
     id="g21461">
    <rect
       x="-0.062799998"
       y="-0.0059000002"
       width="0.12549999"
       height="2.9944999"
       ry="0.039999999"
       fill="currentColor"
       id="rect21459" />
  </g>
  <a
     style="color:inherit"
     xlink:href="textedit://C:/Users/Javier/Documents/lilypond%20scores/ricci%20left%20hand%20examples.ly:228:17:18"
     id="a21467"
     transform="translate(-5.6906,-106.87702)">
    <g
       transform="translate(26.2388,115.4203)"
       id="g21465">
      <path
         transform="scale(0.0036,-0.0036)"
         d="m 215,137 c 57,0 111,-29 111,-92 0,-71 -54,-120 -101,-148 -35,-21 -74,-34 -114,-34 -57,0 -111,29 -111,92 0,71 54,120 101,148 35,21 74,34 114,34 z"
         fill="currentColor"
         id="path21463" />
    </g>
  </a>
  <g
     transform="translate(19.2854,5.3932791)"
     id="g21471">
    <rect
       x="-0.062799998"
       y="0.0014"
       width="0.12549999"
       height="2.5372"
       ry="0.039999999"
       fill="currentColor"
       id="rect21469" />
  </g>
  <g
     transform="translate(16.6629,5.3932791)"
     id="g21475">
    <rect
       x="-0.062799998"
       y="0.058200002"
       width="0.12549999"
       height="3.3803999"
       ry="0.039999999"
       fill="currentColor"
       id="rect21473" />
  </g>
  <a
     style="color:inherit"
     xlink:href="textedit://C:/Users/Javier/Documents/lilypond%20scores/ricci%20left%20hand%20examples.ly:228:13:14"
     id="a21481"
     transform="translate(-5.6906,-106.87702)">
    <g
       transform="translate(21.2437,115.8703)"
       id="g21479">
      <path
         transform="scale(0.0036,-0.0036)"
         d="m 215,137 c 57,0 111,-29 111,-92 0,-71 -54,-120 -101,-148 -35,-21 -74,-34 -114,-34 -57,0 -111,29 -111,92 0,71 54,120 101,148 35,21 74,34 114,34 z"
         fill="currentColor"
         id="path21477" />
    </g>
  </a>
  <g
     transform="translate(26.653,5.3932791)"
     id="g21485">
    <rect
       x="-0.062799998"
       y="-0.47830001"
       width="0.12549999"
       height="3.0169001"
       ry="0.039999999"
       fill="currentColor"
       id="rect21483" />
  </g>
  <a
     style="color:inherit"
     xlink:href="textedit://C:/Users/Javier/Documents/lilypond%20scores/ricci%20left%20hand%20examples.ly:228:22:23"
     id="a21491"
     transform="translate(-5.6906,-106.87702)">
    <g
       transform="translate(31.4616,109.0384)"
       id="g21489">
      <path
         transform="scale(0.002,-0.002)"
         d="M 129,129 H 259 C 259,77 291,29 340,29 350,29 354,21 354,14 354,7 350,0 340,0 291,0 243,14 194,14 145,14 98,0 49,0 39,0 34,7 34,14 c 0,7 5,15 15,15 49,0 80,48 80,100 z M 0,250 129,500 c 3,7 13,3 21,0 14,-6 28,-14 44,-14 16,0 31,8 45,14 2,1 2,1 4,1 8,0 16,-9 16,-21 V 129 H 129 v 215 c 0,15 -11,23 -20,23 -5,0 -9,-2 -11,-7 L 32,233 c -4,-7 -9,-9 -15,-9 -9,0 -19,7 -19,17 0,3 0,6 2,9 z"
         fill="currentColor"
         id="path21487" />
    </g>
  </a>
  <a
     style="color:inherit"
     xlink:href="textedit://C:/Users/Javier/Documents/lilypond%20scores/ricci%20left%20hand%20examples.ly:228:21:22"
     id="a21497"
     transform="translate(-5.6906,-106.87702)">
    <g
       transform="translate(31.2338,114.9703)"
       id="g21495">
      <path
         transform="scale(0.0036,-0.0036)"
         d="m 215,137 c 57,0 111,-29 111,-92 0,-71 -54,-120 -101,-148 -35,-21 -74,-34 -114,-34 -57,0 -111,29 -111,92 0,71 54,120 101,148 35,21 74,34 114,34 z"
         fill="currentColor"
         id="path21493" />
    </g>
  </a>
  <g
     transform="translate(46.6332,5.3932791)"
     id="g21501">
    <rect
       x="-0.062799998"
       y="-2.9358001"
       width="0.12549999"
       height="3.6744001"
       ry="0.039999999"
       fill="currentColor"
       id="rect21499" />
  </g>
  <g
     transform="translate(24.2805,5.3932791)"
     id="g21505">
    <rect
       x="-0.062799998"
       y="-0.25400001"
       width="0.12549999"
       height="2.3425"
       ry="0.039999999"
       fill="currentColor"
       id="rect21503" />
  </g>
  <a
     style="color:inherit"
     xlink:href="textedit://C:/Users/Javier/Documents/lilypond%20scores/ricci%20left%20hand%20examples.ly:228:19:20"
     id="a21511"
     transform="translate(-5.6906,-106.87702)">
    <g
       transform="translate(28.8613,114.5203)"
       id="g21509">
      <path
         transform="scale(0.0036,-0.0036)"
         d="m 215,137 c 57,0 111,-29 111,-92 0,-71 -54,-120 -101,-148 -35,-21 -74,-34 -114,-34 -57,0 -111,29 -111,92 0,71 54,120 101,148 35,21 74,34 114,34 z"
         fill="currentColor"
         id="path21507" />
    </g>
  </a>
  <a
     style="color:inherit"
     xlink:href="textedit://C:/Users/Javier/Documents/lilypond%20scores/ricci%20left%20hand%20examples.ly:225:4:5"
     id="a21517"
     transform="translate(-5.6906,-106.87702)">
    <g
       transform="translate(9.9906,110.4703)"
       id="g21515">
      <path
         transform="scale(0.0036,-0.0036)"
         d="m 217,-311 c 0,-11 -8,-19 -19,-19 -11,0 -20,8 -20,19 v 142 l -81,-30 v -156 c 0,-11 -9,-20 -20,-20 -11,0 -19,9 -19,20 v 142 l -28,-11 c -3,-1 -5,-1 -8,-1 -12,0 -22,10 -22,23 v 57 c 0,9 6,18 15,21 l 43,16 V 49 L 30,39 C 27,38 25,38 22,38 10,38 0,47 0,60 v 57 c 0,9 6,18 15,21 l 43,16 v 157 c 0,11 8,19 19,19 11,0 20,-8 20,-19 V 169 l 81,30 v 156 c 0,11 9,20 20,20 11,0 19,-9 19,-20 V 213 l 28,11 c 3,1 5,1 8,1 12,0 22,-10 22,-23 v -57 c 0,-9 -6,-18 -15,-21 L 217,108 V -49 l 28,10 c 3,1 5,1 8,1 12,0 22,-9 22,-22 v -57 c 0,-9 -6,-18 -15,-21 l -43,-16 z M 97,64 V -94 l 81,30 V 94 Z"
         fill="currentColor"
         id="path21513" />
    </g>
  </a>
  <g
     transform="translate(11.6678,5.3932791)"
     id="g21521">
    <rect
       x="-0.062799998"
       y="0.1664"
       width="0.12549999"
       height="3.7221999"
       ry="0.039999999"
       fill="currentColor"
       id="rect21519" />
  </g>
  <g
     transform="translate(6.44,5.3932791)"
     id="g21525">
    <path
       transform="scale(0.0036,-0.0036)"
       d="m 358,29 c -49,0 -74,41 -74,73 0,38 27,76 71,76 4,0 7,0 11,-1 -27,36 -69,59 -116,59 -106,0 -113,-74 -113,-188 0,-15 1,-31 1,-48 0,-17 -1,-33 -1,-48 0,-114 7,-188 113,-188 79,0 136,70 155,150 2,7 7,10 13,10 7,0 14,-5 14,-13 0,-95 -105,-175 -182,-175 -68,0 -137,20 -184,70 C 17,-143 0,-71 0,0 c 0,71 17,143 66,194 47,50 116,70 184,70 86,0 159,-66 173,-152 1,-4 1,-9 1,-13 0,-39 -30,-70 -66,-70 z"
       fill="currentColor"
       id="path21523" />
  </g>
  <g
     transform="translate(0.80000003,6.2932791)"
     id="g21529">
    <path
       transform="scale(0.0036,-0.0036)"
       d="m 378,263 c 4,0 7,1 11,1 156,0 257,-129 257,-262 0,-76 -34,-154 -108,-210 -22,-17 -46,-29 -72,-37 3,-34 5,-68 5,-102 0,-20 -1,-40 -2,-60 -7,-121 -90,-228 -209,-228 -108,0 -196,87 -196,196 0,58 53,104 112,104 54,0 95,-48 95,-104 0,-52 -43,-95 -95,-95 -10,0 -20,2 -29,6 26,-38 68,-63 116,-63 h 3 c 93,2 153,92 159,190 1,19 2,37 2,56 0,30 -2,60 -4,90 -29,-5 -58,-8 -88,-8 -188,0 -333,173 -333,375 0,177 130,307 246,442 -20,62 -38,125 -46,190 -6,52 -7,104 -7,157 0,115 55,223 148,290 7,5 16,4 22,-1 71,-83 134,-244 134,-357 0,-143 -85,-255 -178,-364 21,-68 40,-137 57,-206 z m 84,-465 c 67,24 111,94 111,162 0,89 -65,178 -170,190 24,-115 46,-230 59,-352 z M 75,26 c 0,-134 129,-245 263,-245 28,0 55,2 81,6 C 405,-87 383,31 358,150 279,142 234,89 234,31 c 0,-43 25,-89 80,-121 5,-5 7,-11 7,-16 0,-12 -10,-23 -22,-23 -3,0 -6,1 -9,2 -81,43 -118,116 -118,186 0,89 58,175 161,198 -14,58 -29,116 -46,173 C 181,308 75,186 75,26 Z M 406,1042 C 307,995 244,894 244,785 c 0,-73 20,-132 38,-191 79,97 144,199 144,324 0,53 -4,76 -20,124 z"
       fill="currentColor"
       id="path21527" />
  </g>
  <a
     style="color:inherit"
     xlink:href="textedit://C:/Users/Javier/Documents/lilypond%20scores/ricci%20left%20hand%20examples.ly:233:4:5"
     id="a21535"
     transform="translate(-5.6906,-106.87702)">
    <g
       transform="translate(15.6533,114.5203)"
       id="g21533">
      <path
         transform="scale(0.0036,-0.0036)"
         d="m 211,111 c -49,0 -68,-43 -68,-88 0,-75 57,-134 132,-134 49,0 68,43 68,88 0,75 -57,134 -132,134 z M 486,0 c 0,-43 -33,-76 -71,-97 -52,-29 -112,-40 -172,-40 -60,0 -120,11 -172,40 -38,21 -71,54 -71,97 0,43 33,76 71,97 52,29 112,40 172,40 60,0 120,-11 172,-40 38,-21 71,-54 71,-97 z"
         fill="currentColor"
         id="path21531" />
    </g>
  </a>
  <a
     style="color:inherit"
     xlink:href="textedit://C:/Users/Javier/Documents/lilypond%20scores/ricci%20left%20hand%20examples.ly:228:6:7"
     id="a21541"
     transform="translate(-5.6906,-106.87702)">
    <g
       transform="translate(16.2487,116.3203)"
       id="g21539">
      <path
         transform="scale(0.0036,-0.0036)"
         d="m 215,137 c 57,0 111,-29 111,-92 0,-71 -54,-120 -101,-148 -35,-21 -74,-34 -114,-34 -57,0 -111,29 -111,92 0,71 54,120 101,148 35,21 74,34 114,34 z"
         fill="currentColor"
         id="path21537" />
    </g>
  </a>
  <g
     transform="translate(14.2904,5.3932791)"
     id="g21545">
    <rect
       x="-0.062799998"
       y="0.1096"
       width="0.12549999"
       height="2.8789999"
       ry="0.039999999"
       fill="currentColor"
       id="rect21543" />
  </g>
  <a
     style="color:inherit"
     xlink:href="textedit://C:/Users/Javier/Documents/lilypond%20scores/ricci%20left%20hand%20examples.ly:228:11:12"
     id="a21551"
     transform="translate(-5.6906,-106.87702)">
    <g
       transform="translate(18.8712,115.4203)"
       id="g21549">
      <path
         transform="scale(0.0036,-0.0036)"
         d="m 215,137 c 57,0 111,-29 111,-92 0,-71 -54,-120 -101,-148 -35,-21 -74,-34 -114,-34 -57,0 -111,29 -111,92 0,71 54,120 101,148 35,21 74,34 114,34 z"
         fill="currentColor"
         id="path21547" />
    </g>
  </a>
  <a
     style="color:inherit"
     xlink:href="textedit://C:/Users/Javier/Documents/lilypond%20scores/ricci%20left%20hand%20examples.ly:228:33:34"
     id="a21557"
     transform="translate(-5.6906,-106.87702)">
    <g
       transform="translate(41.2239,114.0703)"
       id="g21555">
      <path
         transform="scale(0.0036,-0.0036)"
         d="m 215,137 c 57,0 111,-29 111,-92 0,-71 -54,-120 -101,-148 -35,-21 -74,-34 -114,-34 -57,0 -111,29 -111,92 0,71 54,120 101,148 35,21 74,34 114,34 z"
         fill="currentColor"
         id="path21553" />
    </g>
  </a>
  <a
     style="color:inherit"
     xlink:href="textedit://C:/Users/Javier/Documents/lilypond%20scores/ricci%20left%20hand%20examples.ly:228:34:35"
     id="a21563"
     transform="translate(-5.6906,-106.87702)">
    <g
       transform="translate(41.4517,109.972)"
       id="g21561">
      <path
         transform="scale(0.002,-0.002)"
         d="M 129,129 H 259 C 259,77 291,29 340,29 350,29 354,21 354,14 354,7 350,0 340,0 291,0 243,14 194,14 145,14 98,0 49,0 39,0 34,7 34,14 c 0,7 5,15 15,15 49,0 80,48 80,100 z M 0,250 129,500 c 3,7 13,3 21,0 14,-6 28,-14 44,-14 16,0 31,8 45,14 2,1 2,1 4,1 8,0 16,-9 16,-21 V 129 H 129 v 215 c 0,15 -11,23 -20,23 -5,0 -9,-2 -11,-7 L 32,233 c -4,-7 -9,-9 -15,-9 -9,0 -19,7 -19,17 0,3 0,6 2,9 z"
         fill="currentColor"
         id="path21559" />
    </g>
  </a>
  <g
     transform="translate(36.6431,5.3932791)"
     id="g21567">
    <rect
       x="-0.062799998"
       y="-1.3783"
       width="0.12549999"
       height="3.0169001"
       ry="0.039999999"
       fill="currentColor"
       id="rect21565" />
  </g>
  <a
     style="color:inherit"
     xlink:href="textedit://C:/Users/Javier/Documents/lilypond%20scores/ricci%20left%20hand%20examples.ly:228:37:38"
     id="a21573"
     transform="translate(-5.6906,-106.87702)">
    <g
       transform="translate(43.8465,113.1703)"
       id="g21571">
      <path
         transform="scale(0.0036,-0.0036)"
         d="m 215,137 c 57,0 111,-29 111,-92 0,-71 -54,-120 -101,-148 -35,-21 -74,-34 -114,-34 -57,0 -111,29 -111,92 0,71 54,120 101,148 35,21 74,34 114,34 z"
         fill="currentColor"
         id="path21569" />
    </g>
  </a>
  <g
     transform="translate(39.2656,5.3932791)"
     id="g21577">
    <rect
       x="-0.062799998"
       y="-1.6263"
       width="0.12549999"
       height="2.3649001"
       ry="0.039999999"
       fill="currentColor"
       id="rect21575" />
  </g>
  <a
     style="color:inherit"
     xlink:href="textedit://C:/Users/Javier/Documents/lilypond%20scores/ricci%20left%20hand%20examples.ly:228:39:40"
     id="a21583"
     transform="translate(-5.6906,-106.87702)">
    <g
       transform="translate(46.219,113.6203)"
       id="g21581">
      <path
         transform="scale(0.0036,-0.0036)"
         d="m 215,137 c 57,0 111,-29 111,-92 0,-71 -54,-120 -101,-148 -35,-21 -74,-34 -114,-34 -57,0 -111,29 -111,92 0,71 54,120 101,148 35,21 74,34 114,34 z"
         fill="currentColor"
         id="path21579" />
    </g>
  </a>
  <g
     transform="translate(41.6381,5.3932791)"
     id="g21587">
    <rect
       x="-0.062799998"
       y="-2.5373001"
       width="0.12549999"
       height="3.7258999"
       ry="0.039999999"
       fill="currentColor"
       id="rect21585" />
  </g>
  <a
     style="color:inherit"
     xlink:href="textedit://C:/Users/Javier/Documents/lilypond%20scores/ricci%20left%20hand%20examples.ly:228:43:44"
     id="a21593"
     transform="translate(-5.6906,-106.87702)">
    <g
       transform="translate(48.8415,112.7203)"
       id="g21591">
      <path
         transform="scale(0.0036,-0.0036)"
         d="m 215,137 c 57,0 111,-29 111,-92 0,-71 -54,-120 -101,-148 -35,-21 -74,-34 -114,-34 -57,0 -111,29 -111,92 0,71 54,120 101,148 35,21 74,34 114,34 z"
         fill="currentColor"
         id="path21589" />
    </g>
  </a>
  <g
     transform="translate(44.2607,5.3932791)"
     id="g21597">
    <rect
       x="-0.062799998"
       y="-2.7465"
       width="0.12549999"
       height="3.0351"
       ry="0.039999999"
       fill="currentColor"
       id="rect21595" />
  </g>
  <a
     style="color:inherit"
     xlink:href="textedit://C:/Users/Javier/Documents/lilypond%20scores/ricci%20left%20hand%20examples.ly:228:45:46"
     id="a21603"
     transform="translate(-5.6906,-106.87702)">
    <g
       transform="translate(51.214,113.1703)"
       id="g21601">
      <path
         transform="scale(0.0036,-0.0036)"
         d="m 215,137 c 57,0 111,-29 111,-92 0,-71 -54,-120 -101,-148 -35,-21 -74,-34 -114,-34 -57,0 -111,29 -111,92 0,71 54,120 101,148 35,21 74,34 114,34 z"
         fill="currentColor"
         id="path21599" />
    </g>
  </a>
  <a
     style="color:inherit"
     xlink:href="textedit://C:/Users/Javier/Documents/lilypond%20scores/ricci%20left%20hand%20examples.ly:228:46:47"
     id="a21609"
     transform="translate(-5.6906,-106.87702)">
    <g
       transform="translate(51.4418,107.8848)"
       id="g21607">
      <path
         transform="scale(0.002,-0.002)"
         d="M 129,129 H 259 C 259,77 291,29 340,29 350,29 354,21 354,14 354,7 350,0 340,0 291,0 243,14 194,14 145,14 98,0 49,0 39,0 34,7 34,14 c 0,7 5,15 15,15 49,0 80,48 80,100 z M 0,250 129,500 c 3,7 13,3 21,0 14,-6 28,-14 44,-14 16,0 31,8 45,14 2,1 2,1 4,1 8,0 16,-9 16,-21 V 129 H 129 v 215 c 0,15 -11,23 -20,23 -5,0 -9,-2 -11,-7 L 32,233 c -4,-7 -9,-9 -15,-9 -9,0 -19,7 -19,17 0,3 0,6 2,9 z"
         fill="currentColor"
         id="path21605" />
    </g>
  </a>
  <a
     style="color:inherit"
     xlink:href="textedit://C:/Users/Javier/Documents/lilypond%20scores/ricci%20left%20hand%20examples.ly:228:25:26"
     id="a21615"
     transform="translate(-5.6906,-106.87702)">
    <g
       transform="translate(33.8564,114.0703)"
       id="g21613">
      <path
         transform="scale(0.0036,-0.0036)"
         d="m 215,137 c 57,0 111,-29 111,-92 0,-71 -54,-120 -101,-148 -35,-21 -74,-34 -114,-34 -57,0 -111,29 -111,92 0,71 54,120 101,148 35,21 74,34 114,34 z"
         fill="currentColor"
         id="path21611" />
    </g>
  </a>
  <a
     style="color:inherit"
     xlink:href="textedit://C:/Users/Javier/Documents/lilypond%20scores/ricci%20left%20hand%20examples.ly:228:27:28"
     id="a21621"
     transform="translate(-5.6906,-106.87702)">
    <g
       transform="translate(36.2289,114.5203)"
       id="g21619">
      <path
         transform="scale(0.0036,-0.0036)"
         d="m 215,137 c 57,0 111,-29 111,-92 0,-71 -54,-120 -101,-148 -35,-21 -74,-34 -114,-34 -57,0 -111,29 -111,92 0,71 54,120 101,148 35,21 74,34 114,34 z"
         fill="currentColor"
         id="path21617" />
    </g>
  </a>
  <g
     transform="translate(31.648,5.3932791)"
     id="g21625">
    <rect
       x="-0.062799998"
       y="-0.9059"
       width="0.12549999"
       height="2.9944999"
       ry="0.039999999"
       fill="currentColor"
       id="rect21623" />
  </g>
  <g
     transform="translate(29.2755,5.3932791)"
     id="g21629">
    <rect
       x="-0.062799998"
       y="-0.7263"
       width="0.12549999"
       height="2.3649001"
       ry="0.039999999"
       fill="currentColor"
       id="rect21627" />
  </g>
  <g
     transform="translate(34.2706,5.3932791)"
     id="g21633">
    <rect
       x="-0.062799998"
       y="-1.154"
       width="0.12549999"
       height="2.3425"
       ry="0.039999999"
       fill="currentColor"
       id="rect21631" />
  </g>
  <a
     style="color:inherit"
     xlink:href="textedit://C:/Users/Javier/Documents/lilypond%20scores/ricci%20left%20hand%20examples.ly:228:29:30"
     id="a21639"
     transform="translate(-5.6906,-106.87702)">
    <g
       transform="translate(38.8514,113.6203)"
       id="g21637">
      <path
         transform="scale(0.0036,-0.0036)"
         d="m 215,137 c 57,0 111,-29 111,-92 0,-71 -54,-120 -101,-148 -35,-21 -74,-34 -114,-34 -57,0 -111,29 -111,92 0,71 54,120 101,148 35,21 74,34 114,34 z"
         fill="currentColor"
         id="path21635" />
    </g>
  </a>
</svg>
