<!-- <?xml version="1.0" encoding="UTF-8" standalone="no"?> -->
<svg
   version="1.2"
   width="190mm"
   height="44.270348mm"
   viewBox="0 0 108.1205 25.192272"
   id="svg67467"
   sodipodi:docname="ricci left hand examples-3.svg"
   xmlns:inkscape="http://www.inkscape.org/namespaces/inkscape"
   xmlns:sodipodi="http://sodipodi.sourceforge.net/DTD/sodipodi-0.dtd"
   xmlns:xlink="http://www.w3.org/1999/xlink"
   xmlns="http://www.w3.org/2000/svg"
   xmlns:svg="http://www.w3.org/2000/svg">
  <defs
     id="defs67471" />
  <sodipodi:namedview
     id="namedview67469"
     pagecolor="#ffffff"
     bordercolor="#000000"
     borderopacity="0.25"
     inkscape:showpageshadow="2"
     inkscape:pageopacity="0.0"
     inkscape:pagecheckerboard="0"
     inkscape:deskcolor="#d1d1d1"
     inkscape:document-units="mm"
     showgrid="false" />
  <style
     type="text/css"
     id="style62385"><![CDATA[
tspan { white-space: pre; }
]]></style>
  <!-- Page: 3/6 -->
  <g
     transform="translate(3.1967416e-8,8.9740773)"
     id="g63929">
    <line
       stroke-linejoin="round"
       stroke-linecap="round"
       stroke-width="0.0966"
       stroke="currentColor"
       x1="0.048300002"
       y1="0"
       x2="108.0722"
       y2="0"
       id="line63927" />
  </g>
  <g
     transform="translate(3.1967416e-8,8.0740773)"
     id="g63933">
    <line
       stroke-linejoin="round"
       stroke-linecap="round"
       stroke-width="0.0966"
       stroke="currentColor"
       x1="0.048300002"
       y1="0"
       x2="108.0722"
       y2="0"
       id="line63931" />
  </g>
  <g
     transform="translate(3.1967416e-8,7.1740773)"
     id="g63937">
    <line
       stroke-linejoin="round"
       stroke-linecap="round"
       stroke-width="0.0966"
       stroke="currentColor"
       x1="0.048300002"
       y1="0"
       x2="108.0722"
       y2="0"
       id="line63935" />
  </g>
  <g
     transform="translate(3.1967416e-8,6.2740773)"
     id="g63941">
    <line
       stroke-linejoin="round"
       stroke-linecap="round"
       stroke-width="0.0966"
       stroke="currentColor"
       x1="0.048300002"
       y1="0"
       x2="108.0722"
       y2="0"
       id="line63939" />
  </g>
  <g
     transform="translate(3.1967416e-8,5.3740773)"
     id="g63945">
    <line
       stroke-linejoin="round"
       stroke-linecap="round"
       stroke-width="0.0966"
       stroke="currentColor"
       x1="0.048300002"
       y1="0"
       x2="108.0722"
       y2="0"
       id="line63943" />
  </g>
  <g
     transform="translate(3.1967416e-8,4.4740773)"
     id="g63949">
    <rect
       x="102.5565"
       y="-0.0933"
       width="1.7588"
       height="0.1866"
       ry="0.0933"
       fill="currentColor"
       id="rect63947" />
  </g>
  <g
     transform="translate(3.1967416e-8,4.4740773)"
     id="g63953">
    <rect
       x="92.381798"
       y="-0.0933"
       width="1.7588"
       height="0.1866"
       ry="0.0933"
       fill="currentColor"
       id="rect63951" />
  </g>
  <g
     transform="translate(3.1967416e-8,3.5740773)"
     id="g63957">
    <rect
       x="87.544502"
       y="-0.0933"
       width="1.7588"
       height="0.1866"
       ry="0.0933"
       fill="currentColor"
       id="rect63955" />
  </g>
  <g
     transform="translate(3.1967416e-8,4.4740773)"
     id="g63961">
    <rect
       x="87.544502"
       y="-0.0933"
       width="1.7588"
       height="0.1866"
       ry="0.0933"
       fill="currentColor"
       id="rect63959" />
  </g>
  <g
     transform="translate(3.1967416e-8,4.4740773)"
     id="g63965">
    <rect
       x="82.2071"
       y="-0.0933"
       width="1.7588"
       height="0.1866"
       ry="0.0933"
       fill="currentColor"
       id="rect63963" />
  </g>
  <g
     transform="translate(3.1967416e-8,4.4740773)"
     id="g63969">
    <rect
       x="70.111504"
       y="-0.0933"
       width="1.7588"
       height="0.1866"
       ry="0.0933"
       fill="currentColor"
       id="rect63967" />
  </g>
  <g
     transform="translate(107.9369,7.1740773)"
     id="g63973">
    <rect
       x="0"
       y="-1.8"
       width="0.18350001"
       height="3.5999999"
       ry="0.0000"
       fill="currentColor"
       id="rect63971" />
  </g>
  <g
     transform="translate(75.4919,7.1740773)"
     id="g63977">
    <rect
       x="0"
       y="-1.8"
       width="0.18350001"
       height="3.5999999"
       ry="0.0000"
       fill="currentColor"
       id="rect63975" />
  </g>
  <g
     transform="translate(42.5469,7.1740773)"
     id="g63981">
    <rect
       x="0"
       y="-1.8"
       width="0.18350001"
       height="3.5999999"
       ry="0.0000"
       fill="currentColor"
       id="rect63979" />
  </g>
  <g
     transform="translate(79.3153,7.6240773)"
     id="g63985">
    <path
       transform="scale(0.0036,-0.0036)"
       d="M 0,0 C 0,31 25,56 56,56 87,56 111,31 111,0 111,-31 87,-56 56,-56 25,-56 0,-31 0,0 Z"
       fill="currentColor"
       id="path63983" />
  </g>
  <a
     style="color:inherit"
     xlink:href="textedit://C:/Users/Javier/Documents/lilypond%20scores/ricci%20left%20hand%20examples.ly:349:23:24"
     id="a63991"
     transform="translate(-5.6906,-59.431423)">
    <g
       transform="translate(70.7578,64.8055)"
       id="g63989">
      <path
         transform="scale(0.0036,-0.0036)"
         d="m 215,137 c 57,0 111,-29 111,-92 0,-71 -54,-120 -101,-148 -35,-21 -74,-34 -114,-34 -57,0 -111,29 -111,92 0,71 54,120 101,148 35,21 74,34 114,34 z"
         fill="currentColor"
         id="path63987" />
    </g>
  </a>
  <a
     style="color:inherit"
     xlink:href="textedit://C:/Users/Javier/Documents/lilypond%20scores/ricci%20left%20hand%20examples.ly:349:26:27"
     id="a63997"
     transform="translate(-5.6906,-59.431423)">
    <g
       transform="translate(70.9856,63.8618)"
       id="g63995">
      <path
         transform="scale(0.002,-0.002)"
         d="M 129,129 H 259 C 259,77 291,29 340,29 350,29 354,21 354,14 354,7 350,0 340,0 291,0 243,14 194,14 145,14 98,0 49,0 39,0 34,7 34,14 c 0,7 5,15 15,15 49,0 80,48 80,100 z M 0,250 129,500 c 3,7 13,3 21,0 14,-6 28,-14 44,-14 16,0 31,8 45,14 2,1 2,1 4,1 8,0 16,-9 16,-21 V 129 H 129 v 215 c 0,15 -11,23 -20,23 -5,0 -9,-2 -11,-7 L 32,233 c -4,-7 -9,-9 -15,-9 -9,0 -19,7 -19,17 0,3 0,6 2,9 z"
         fill="currentColor"
         id="path63993" />
    </g>
  </a>
  <g
     transform="translate(66.177,7.1740773)"
     id="g64001">
    <rect
       x="-0.062799998"
       y="-4.1999998"
       width="0.12549999"
       height="2.2386"
       ry="0.039999999"
       fill="currentColor"
       id="rect63999" />
  </g>
  <a
     style="color:inherit"
     xlink:href="textedit://C:/Users/Javier/Documents/lilypond%20scores/ricci%20left%20hand%20examples.ly:349:29:30"
     id="a64007"
     transform="translate(-5.6906,-59.431423)">
    <g
       transform="translate(76.0952,63.9055)"
       id="g64005">
      <path
         transform="scale(0.0036,-0.0036)"
         d="m 215,137 c 57,0 111,-29 111,-92 0,-71 -54,-120 -101,-148 -35,-21 -74,-34 -114,-34 -57,0 -111,29 -111,92 0,71 54,120 101,148 35,21 74,34 114,34 z"
         fill="currentColor"
         id="path64003" />
    </g>
  </a>
  <g
     transform="translate(71.5143,7.1740773)"
     id="g64011">
    <rect
       x="-0.062799998"
       y="-4.9499998"
       width="0.12549999"
       height="2.0885999"
       ry="0.039999999"
       fill="currentColor"
       id="rect64009" />
  </g>
  <a
     style="color:inherit"
     xlink:href="textedit://C:/Users/Javier/Documents/lilypond%20scores/ricci%20left%20hand%20examples.ly:350:8:9"
     id="a64017"
     transform="translate(-5.6906,-59.431423)">
    <g
       transform="translate(82.8535,64.8055)"
       id="g64015">
      <path
         transform="scale(0.0036,-0.0036)"
         d="m 215,137 c 57,0 111,-29 111,-92 0,-71 -54,-120 -101,-148 -35,-21 -74,-34 -114,-34 -57,0 -111,29 -111,92 0,71 54,120 101,148 35,21 74,34 114,34 z"
         fill="currentColor"
         id="path64013" />
    </g>
  </a>
  <a
     style="color:inherit"
     xlink:href="textedit://C:/Users/Javier/Documents/lilypond%20scores/ricci%20left%20hand%20examples.ly:357:14:15"
     id="a64023"
     transform="translate(-5.6906,-59.431423)">
    <g
       transform="translate(82.8535,67.0555)"
       id="g64021">
      <path
         transform="scale(0.0036,-0.0036)"
         d="m 211,111 c -49,0 -68,-43 -68,-88 0,-75 57,-134 132,-134 49,0 68,43 68,88 0,75 -57,134 -132,134 z M 486,0 c 0,-43 -33,-76 -71,-97 -52,-29 -112,-40 -172,-40 -60,0 -120,11 -172,40 -38,21 -71,54 -71,97 0,43 33,76 71,97 52,29 112,40 172,40 60,0 120,-11 172,-40 38,-21 71,-54 71,-97 z"
         fill="currentColor"
         id="path64019" />
    </g>
  </a>
  <g
     transform="translate(78.2726,7.1740773)"
     id="g64027">
    <rect
       x="-0.062799998"
       y="-4.1999998"
       width="0.12549999"
       height="2.2386"
       ry="0.039999999"
       fill="currentColor"
       id="rect64025" />
  </g>
  <a
     style="color:inherit"
     xlink:href="textedit://C:/Users/Javier/Documents/lilypond%20scores/ricci%20left%20hand%20examples.ly:348:10:11"
     id="a64033"
     transform="translate(-5.6906,-59.431423)">
    <g
       transform="translate(16.9048,66.6055)"
       id="g64031">
      <path
         stroke-width="0.0773"
         stroke-linejoin="round"
         stroke-linecap="round"
         stroke="currentColor"
         fill="currentColor"
         d="m 1.4725,-0.0438 c 2.2708,-3.1784 22.7362,-4.7337 25.4612,-1.935 v 0 C 24.2174,-4.6619 3.7521,-3.1066 1.4725,-0.0438 Z"
         id="path64029" />
    </g>
  </a>
  <a
     style="color:inherit"
     xlink:href="textedit://C:/Users/Javier/Documents/lilypond%20scores/ricci%20left%20hand%20examples.ly:349:11:12"
     id="a64039"
     transform="translate(-5.6906,-59.431423)">
    <g
       transform="translate(55.2458,65.7055)"
       id="g64037">
      <path
         transform="scale(0.0036,-0.0036)"
         d="m 215,137 c 57,0 111,-29 111,-92 0,-71 -54,-120 -101,-148 -35,-21 -74,-34 -114,-34 -57,0 -111,29 -111,92 0,71 54,120 101,148 35,21 74,34 114,34 z"
         fill="currentColor"
         id="path64035" />
    </g>
  </a>
  <a
     style="color:inherit"
     xlink:href="textedit://C:/Users/Javier/Documents/lilypond%20scores/ricci%20left%20hand%20examples.ly:349:12:13"
     id="a64045"
     transform="translate(-5.6906,-59.431423)">
    <g
       transform="translate(55.4735,64.3072)"
       id="g64043">
      <path
         transform="scale(0.002,-0.002)"
         d="M 129,129 H 259 C 259,77 291,29 340,29 350,29 354,21 354,14 354,7 350,0 340,0 291,0 243,14 194,14 145,14 98,0 49,0 39,0 34,7 34,14 c 0,7 5,15 15,15 49,0 80,48 80,100 z M 0,250 129,500 c 3,7 13,3 21,0 14,-6 28,-14 44,-14 16,0 31,8 45,14 2,1 2,1 4,1 8,0 16,-9 16,-21 V 129 H 129 v 215 c 0,15 -11,23 -20,23 -5,0 -9,-2 -11,-7 L 32,233 c -4,-7 -9,-9 -15,-9 -9,0 -19,7 -19,17 0,3 0,6 2,9 z"
         fill="currentColor"
         id="path64041" />
    </g>
  </a>
  <g
     transform="translate(50.6649,7.1740773)"
     id="g64049">
    <rect
       x="-0.062799998"
       y="-3.5999999"
       width="0.12549999"
       height="2.5386"
       ry="0.039999999"
       fill="currentColor"
       id="rect64047" />
  </g>
  <a
     style="color:inherit"
     xlink:href="textedit://C:/Users/Javier/Documents/lilypond%20scores/ricci%20left%20hand%20examples.ly:349:15:16"
     id="a64055"
     transform="translate(-5.6906,-59.431423)">
    <g
       transform="translate(60.5831,64.8055)"
       id="g64053">
      <path
         transform="scale(0.0036,-0.0036)"
         d="m 215,137 c 57,0 111,-29 111,-92 0,-71 -54,-120 -101,-148 -35,-21 -74,-34 -114,-34 -57,0 -111,29 -111,92 0,71 54,120 101,148 35,21 74,34 114,34 z"
         fill="currentColor"
         id="path64051" />
    </g>
  </a>
  <a
     style="color:inherit"
     xlink:href="textedit://C:/Users/Javier/Documents/lilypond%20scores/ricci%20left%20hand%20examples.ly:349:18:19"
     id="a64061"
     transform="translate(-5.6906,-59.431423)">
    <g
       transform="translate(60.828,63.8618)"
       id="g64059">
      <path
         transform="scale(0.002,-0.002)"
         d="m 155,471 c -34,0 -70,-8 -70,-38 0,-19 31,-23 31,-42 0,-28 -23,-51 -51,-51 -28,0 -51,23 -51,51 0,67 68,109 141,109 93,0 174,-31 174,-113 0,-41 -6,-77 -42,-94 -11,-5 -17,-16 -17,-27 0,-11 6,-22 17,-27 40,-19 59,-53 59,-98 C 346,47 263,0 160,0 78,0 0,45 0,119 c 0,32 26,58 58,58 32,0 58,-26 58,-58 0,-22 -36,-26 -36,-48 0,-33 42,-42 80,-42 46,0 56,58 56,112 v 38 c 0,40 -4,69 -43,69 H 99 c -12,0 -18,9 -18,18 0,9 6,18 18,18 h 74 c 40,0 43,31 43,73 v 30 c 0,50 -16,84 -61,84 z"
         fill="currentColor"
         id="path64057" />
    </g>
  </a>
  <g
     transform="translate(56.0023,7.1740773)"
     id="g64065">
    <rect
       x="-0.062799998"
       y="-4.1999998"
       width="0.12549999"
       height="2.2386"
       ry="0.039999999"
       fill="currentColor"
       id="rect64063" />
  </g>
  <a
     style="color:inherit"
     xlink:href="textedit://C:/Users/Javier/Documents/lilypond%20scores/ricci%20left%20hand%20examples.ly:349:21:22"
     id="a64071"
     transform="translate(-5.6906,-59.431423)">
    <g
       transform="translate(65.4205,65.7055)"
       id="g64069">
      <path
         transform="scale(0.0036,-0.0036)"
         d="m 215,137 c 57,0 111,-29 111,-92 0,-71 -54,-120 -101,-148 -35,-21 -74,-34 -114,-34 -57,0 -111,29 -111,92 0,71 54,120 101,148 35,21 74,34 114,34 z"
         fill="currentColor"
         id="path64067" />
    </g>
  </a>
  <g
     transform="translate(60.8396,7.1740773)"
     id="g64075">
    <rect
       x="-0.062799998"
       y="-3.5999999"
       width="0.12549999"
       height="2.5386"
       ry="0.039999999"
       fill="currentColor"
       id="rect64073" />
  </g>
  <a
     style="color:inherit"
     xlink:href="textedit://C:/Users/Javier/Documents/lilypond%20scores/ricci%20left%20hand%20examples.ly:350:19:20"
     id="a64081"
     transform="translate(-5.6906,-59.431423)">
    <g
       transform="translate(98.3655,63.9055)"
       id="g64079">
      <path
         transform="scale(0.0036,-0.0036)"
         d="m 215,137 c 57,0 111,-29 111,-92 0,-71 -54,-120 -101,-148 -35,-21 -74,-34 -114,-34 -57,0 -111,29 -111,92 0,71 54,120 101,148 35,21 74,34 114,34 z"
         fill="currentColor"
         id="path64077" />
    </g>
  </a>
  <a
     style="color:inherit"
     xlink:href="textedit://C:/Users/Javier/Documents/lilypond%20scores/ricci%20left%20hand%20examples.ly:350:20:21"
     id="a64087"
     transform="translate(-5.6906,-59.431423)">
    <g
       transform="translate(98.6103,62.9618)"
       id="g64085">
      <path
         transform="scale(0.002,-0.002)"
         d="m 155,471 c -34,0 -70,-8 -70,-38 0,-19 31,-23 31,-42 0,-28 -23,-51 -51,-51 -28,0 -51,23 -51,51 0,67 68,109 141,109 93,0 174,-31 174,-113 0,-41 -6,-77 -42,-94 -11,-5 -17,-16 -17,-27 0,-11 6,-22 17,-27 40,-19 59,-53 59,-98 C 346,47 263,0 160,0 78,0 0,45 0,119 c 0,32 26,58 58,58 32,0 58,-26 58,-58 0,-22 -36,-26 -36,-48 0,-33 42,-42 80,-42 46,0 56,58 56,112 v 38 c 0,40 -4,69 -43,69 H 99 c -12,0 -18,9 -18,18 0,9 6,18 18,18 h 74 c 40,0 43,31 43,73 v 30 c 0,50 -16,84 -61,84 z"
         fill="currentColor"
         id="path64083" />
    </g>
  </a>
  <g
     transform="translate(93.7847,7.1740773)"
     id="g64091">
    <rect
       x="-0.062799998"
       y="-4.9499998"
       width="0.12549999"
       height="2.0885999"
       ry="0.039999999"
       fill="currentColor"
       id="rect64089" />
  </g>
  <a
     style="color:inherit"
     xlink:href="textedit://C:/Users/Javier/Documents/lilypond%20scores/ricci%20left%20hand%20examples.ly:350:23:24"
     id="a64097"
     transform="translate(-5.6906,-59.431423)">
    <g
       transform="translate(103.2028,64.8055)"
       id="g64095">
      <path
         transform="scale(0.0036,-0.0036)"
         d="m 215,137 c 57,0 111,-29 111,-92 0,-71 -54,-120 -101,-148 -35,-21 -74,-34 -114,-34 -57,0 -111,29 -111,92 0,71 54,120 101,148 35,21 74,34 114,34 z"
         fill="currentColor"
         id="path64093" />
    </g>
  </a>
  <g
     transform="translate(98.622,7.1740773)"
     id="g64101">
    <rect
       x="-0.062799998"
       y="-4.1999998"
       width="0.12549999"
       height="2.2386"
       ry="0.039999999"
       fill="currentColor"
       id="rect64099" />
  </g>
  <g
     transform="translate(88.9473,7.1740773)"
     id="g64105">
    <rect
       x="-0.062799998"
       y="-6.3000002"
       width="0.12549999"
       height="2.0885999"
       ry="0.039999999"
       fill="currentColor"
       id="rect64103" />
  </g>
  <a
     style="color:inherit"
     xlink:href="textedit://C:/Users/Javier/Documents/lilypond%20scores/ricci%20left%20hand%20examples.ly:350:27:28"
     id="a64111"
     transform="translate(-5.6906,-59.431423)">
    <g
       transform="translate(108.5402,63.9055)"
       id="g64109">
      <path
         transform="scale(0.0036,-0.0036)"
         d="m 215,137 c 57,0 111,-29 111,-92 0,-71 -54,-120 -101,-148 -35,-21 -74,-34 -114,-34 -57,0 -111,29 -111,92 0,71 54,120 101,148 35,21 74,34 114,34 z"
         fill="currentColor"
         id="path64107" />
    </g>
  </a>
  <g
     transform="translate(103.9593,7.1740773)"
     id="g64115">
    <rect
       x="-0.062799998"
       y="-4.9499998"
       width="0.12549999"
       height="2.0885999"
       ry="0.039999999"
       fill="currentColor"
       id="rect64113" />
  </g>
  <a
     style="color:inherit"
     xlink:href="textedit://C:/Users/Javier/Documents/lilypond%20scores/ricci%20left%20hand%20examples.ly:350:11:12"
     id="a64121"
     transform="translate(-5.6906,-59.431423)">
    <g
       transform="translate(82.8535,66.6055)"
       id="g64119">
      <path
         stroke-width="0.0773"
         stroke-linejoin="round"
         stroke-linecap="round"
         stroke="currentColor"
         fill="currentColor"
         d="m 1.1098,-5.8938 c 2.5096,-1.6555 23.177,-1.6555 25.6867,0 v 0 c -2.5097,-1.5397 -23.1771,-1.5397 -25.6867,0 z"
         id="path64117" />
    </g>
  </a>
  <a
     style="color:inherit"
     xlink:href="textedit://C:/Users/Javier/Documents/lilypond%20scores/ricci%20left%20hand%20examples.ly:349:9:10"
     id="a64127"
     transform="translate(-5.6906,-59.431423)">
    <g
       transform="translate(49.9084,66.6055)"
       id="g64125">
      <path
         stroke-width="0.0773"
         stroke-linejoin="round"
         stroke-linecap="round"
         stroke="currentColor"
         fill="currentColor"
         d="m 1.4725,-2.2938 c 2.3754,-2.4927 22.8356,-3.5776 25.4612,-1.35 v 0 C 24.3142,-5.7557 3.854,-4.6708 1.4725,-2.2938 Z"
         id="path64123" />
    </g>
  </a>
  <a
     style="color:inherit"
     xlink:href="textedit://C:/Users/Javier/Documents/lilypond%20scores/ricci%20left%20hand%20examples.ly:350:13:14"
     id="a64133"
     transform="translate(-5.6906,-59.431423)">
    <g
       transform="translate(88.1908,63.9055)"
       id="g64131">
      <path
         transform="scale(0.0036,-0.0036)"
         d="m 215,137 c 57,0 111,-29 111,-92 0,-71 -54,-120 -101,-148 -35,-21 -74,-34 -114,-34 -57,0 -111,29 -111,92 0,71 54,120 101,148 35,21 74,34 114,34 z"
         fill="currentColor"
         id="path64129" />
    </g>
  </a>
  <g
     transform="translate(83.61,7.1740773)"
     id="g64137">
    <rect
       x="-0.062799998"
       y="-4.9499998"
       width="0.12549999"
       height="2.0885999"
       ry="0.039999999"
       fill="currentColor"
       id="rect64135" />
  </g>
  <a
     style="color:inherit"
     xlink:href="textedit://C:/Users/Javier/Documents/lilypond%20scores/ricci%20left%20hand%20examples.ly:350:15:16"
     id="a64143"
     transform="translate(-5.6906,-59.431423)">
    <g
       transform="translate(93.5282,62.5555)"
       id="g64141">
      <path
         transform="scale(0.0036,-0.0036)"
         d="m 215,137 c 57,0 111,-29 111,-92 0,-71 -54,-120 -101,-148 -35,-21 -74,-34 -114,-34 -57,0 -111,29 -111,92 0,71 54,120 101,148 35,21 74,34 114,34 z"
         fill="currentColor"
         id="path64139" />
    </g>
  </a>
  <a
     style="color:inherit"
     xlink:href="textedit://C:/Users/Javier/Documents/lilypond%20scores/ricci%20left%20hand%20examples.ly:350:16:17"
     id="a64149"
     transform="translate(-5.6906,-59.431423)">
    <g
       transform="translate(93.6876,61.6118)"
       id="g64147">
      <path
         transform="scale(0.002,-0.002)"
         d="m 198,284 c 24,15 48,29 65,52 12,16 19,34 28,52 2,5 6,7 11,7 8,0 16,-6 16,-17 V 161 h 79 c 12,0 18,-9 18,-18 0,-9 -6,-18 -18,-18 h -79 c 2,-51 33,-96 80,-96 10,0 15,-8 15,-15 C 413,7 408,0 398,0 349,0 302,14 253,14 204,14 156,0 107,0 97,0 93,7 93,14 c 0,7 4,15 14,15 47,0 79,45 81,96 H 36 c -29,0 -38,17 -38,28 0,3 1,6 2,8 78,88 123,201 123,319 0,11 8,21 17,21 1,0 3,-1 4,-1 25,-7 50,-14 76,-14 26,0 52,7 77,14 2,1 4,1 6,1 10,0 17,-7 17,-14 0,-2 0,-5 -2,-7 L 36,161 h 152 v 96 c 0,10 1,21 10,27 z"
         fill="currentColor"
         id="path64145" />
    </g>
  </a>
  <g
     transform="translate(17.6613,7.1740773)"
     id="g64153">
    <rect
       x="-0.062799998"
       y="-1.8"
       width="0.12549999"
       height="2.9886"
       ry="0.039999999"
       fill="currentColor"
       id="rect64151" />
  </g>
  <a
     style="color:inherit"
     xlink:href="textedit://C:/Users/Javier/Documents/lilypond%20scores/ricci%20left%20hand%20examples.ly:348:18:19"
     id="a64159"
     transform="translate(-5.6906,-59.431423)">
    <g
       transform="translate(22.2421,67.9555)"
       id="g64157">
      <path
         transform="scale(0.0036,-0.0036)"
         d="m 215,137 c 57,0 111,-29 111,-92 0,-71 -54,-120 -101,-148 -35,-21 -74,-34 -114,-34 -57,0 -111,29 -111,92 0,71 54,120 101,148 35,21 74,34 114,34 z"
         fill="currentColor"
         id="path64155" />
    </g>
  </a>
  <a
     style="color:inherit"
     xlink:href="textedit://C:/Users/Javier/Documents/lilypond%20scores/ricci%20left%20hand%20examples.ly:348:21:22"
     id="a64165"
     transform="translate(-5.6906,-59.431423)">
    <g
       transform="translate(22.4699,64.2982)"
       id="g64163">
      <path
         transform="scale(0.002,-0.002)"
         d="M 129,129 H 259 C 259,77 291,29 340,29 350,29 354,21 354,14 354,7 350,0 340,0 291,0 243,14 194,14 145,14 98,0 49,0 39,0 34,7 34,14 c 0,7 5,15 15,15 49,0 80,48 80,100 z M 0,250 129,500 c 3,7 13,3 21,0 14,-6 28,-14 44,-14 16,0 31,8 45,14 2,1 2,1 4,1 8,0 16,-9 16,-21 V 129 H 129 v 215 c 0,15 -11,23 -20,23 -5,0 -9,-2 -11,-7 L 32,233 c -4,-7 -9,-9 -15,-9 -9,0 -19,7 -19,17 0,3 0,6 2,9 z"
         fill="currentColor"
         id="path64161" />
    </g>
  </a>
  <a
     style="color:inherit"
     xlink:href="textedit://C:/Users/Javier/Documents/lilypond%20scores/ricci%20left%20hand%20examples.ly:348:24:25"
     id="a64171"
     transform="translate(-5.6906,-59.431423)">
    <g
       transform="translate(27.5795,67.0555)"
       id="g64169">
      <path
         transform="scale(0.0036,-0.0036)"
         d="m 215,137 c 57,0 111,-29 111,-92 0,-71 -54,-120 -101,-148 -35,-21 -74,-34 -114,-34 -57,0 -111,29 -111,92 0,71 54,120 101,148 35,21 74,34 114,34 z"
         fill="currentColor"
         id="path64167" />
    </g>
  </a>
  <g
     transform="translate(22.9986,7.1740773)"
     id="g64175">
    <rect
       x="-0.062799998"
       y="-2.7"
       width="0.12549999"
       height="2.9886"
       ry="0.039999999"
       fill="currentColor"
       id="rect64173" />
  </g>
  <a
     style="color:inherit"
     xlink:href="textedit://C:/Users/Javier/Documents/lilypond%20scores/ricci%20left%20hand%20examples.ly:348:26:27"
     id="a64181"
     transform="translate(-5.6906,-59.431423)">
    <g
       transform="translate(32.4168,67.9555)"
       id="g64179">
      <path
         transform="scale(0.0036,-0.0036)"
         d="m 215,137 c 57,0 111,-29 111,-92 0,-71 -54,-120 -101,-148 -35,-21 -74,-34 -114,-34 -57,0 -111,29 -111,92 0,71 54,120 101,148 35,21 74,34 114,34 z"
         fill="currentColor"
         id="path64177" />
    </g>
  </a>
  <g
     transform="translate(12.324,7.1740773)"
     id="g64185">
    <rect
       x="-0.062799998"
       y="-0.89999998"
       width="0.12549999"
       height="2.9886"
       ry="0.039999999"
       fill="currentColor"
       id="rect64183" />
  </g>
  <a
     style="color:inherit"
     xlink:href="textedit://C:/Users/Javier/Documents/lilypond%20scores/ricci%20left%20hand%20examples.ly:348:8:9"
     id="a64191"
     transform="translate(-5.6906,-59.431423)">
    <g
       transform="translate(16.9048,68.8555)"
       id="g64189">
      <path
         transform="scale(0.0036,-0.0036)"
         d="m 215,137 c 57,0 111,-29 111,-92 0,-71 -54,-120 -101,-148 -35,-21 -74,-34 -114,-34 -57,0 -111,29 -111,92 0,71 54,120 101,148 35,21 74,34 114,34 z"
         fill="currentColor"
         id="path64187" />
    </g>
  </a>
  <a
     style="color:inherit"
     xlink:href="textedit://C:/Users/Javier/Documents/lilypond%20scores/ricci%20left%20hand%20examples.ly:348:13:14"
     id="a64199"
     transform="translate(-5.6906,-59.431423)">
    <g
       transform="translate(16.9048,62.7888)"
       id="g64197">
      <text
         font-family="serif"
         font-size="1.98px"
         text-anchor="start"
         fill="currentColor"
         id="text64195"><tspan
           id="tspan64193">III</tspan></text>
    </g>
  </a>
  <a
     style="color:inherit"
     xlink:href="textedit://C:/Users/Javier/Documents/lilypond%20scores/ricci%20left%20hand%20examples.ly:348:11:12"
     id="a64205"
     transform="translate(-5.6906,-59.431423)">
    <g
       transform="translate(17.1155,64.3072)"
       id="g64203">
      <path
         transform="scale(0.002,-0.002)"
         d="m 190,464 c -54,0 -61,-71 -61,-141 v -73 -73 c 0,-70 7,-141 61,-141 54,0 62,71 62,141 0,26 -1,51 -1,73 0,22 1,47 1,73 0,70 -8,141 -62,141 z m 0,36 C 308,500 380,378 380,250 380,122 308,0 190,0 72,0 0,122 0,250 0,378 72,500 190,500 Z"
         fill="currentColor"
         id="path64201" />
    </g>
  </a>
  <a
     style="color:inherit"
     xlink:href="textedit://C:/Users/Javier/Documents/lilypond%20scores/ricci%20left%20hand%20examples.ly:357:8:9"
     id="a64211"
     transform="translate(-5.6906,-59.431423)">
    <g
       transform="translate(16.5546,67.0555)"
       id="g64209">
      <path
         transform="scale(0.0036,-0.0036)"
         d="m 211,111 c -49,0 -68,-43 -68,-88 0,-75 57,-134 132,-134 49,0 68,43 68,88 0,75 -57,134 -132,134 z M 486,0 c 0,-43 -33,-76 -71,-97 -52,-29 -112,-40 -172,-40 -60,0 -120,11 -172,40 -38,21 -71,54 -71,97 0,43 33,76 71,97 52,29 112,40 172,40 60,0 120,-11 172,-40 38,-21 71,-54 71,-97 z"
         fill="currentColor"
         id="path64207" />
    </g>
  </a>
  <g
     transform="translate(0.80000003,8.0740773)"
     id="g64215">
    <path
       transform="scale(0.0036,-0.0036)"
       d="m 378,263 c 4,0 7,1 11,1 156,0 257,-129 257,-262 0,-76 -34,-154 -108,-210 -22,-17 -46,-29 -72,-37 3,-34 5,-68 5,-102 0,-20 -1,-40 -2,-60 -7,-121 -90,-228 -209,-228 -108,0 -196,87 -196,196 0,58 53,104 112,104 54,0 95,-48 95,-104 0,-52 -43,-95 -95,-95 -10,0 -20,2 -29,6 26,-38 68,-63 116,-63 h 3 c 93,2 153,92 159,190 1,19 2,37 2,56 0,30 -2,60 -4,90 -29,-5 -58,-8 -88,-8 -188,0 -333,173 -333,375 0,177 130,307 246,442 -20,62 -38,125 -46,190 -6,52 -7,104 -7,157 0,115 55,223 148,290 7,5 16,4 22,-1 71,-83 134,-244 134,-357 0,-143 -85,-255 -178,-364 21,-68 40,-137 57,-206 z m 84,-465 c 67,24 111,94 111,162 0,89 -65,178 -170,190 24,-115 46,-230 59,-352 z M 75,26 c 0,-134 129,-245 263,-245 28,0 55,2 81,6 C 405,-87 383,31 358,150 279,142 234,89 234,31 c 0,-43 25,-89 80,-121 5,-5 7,-11 7,-16 0,-12 -10,-23 -22,-23 -3,0 -6,1 -9,2 -81,43 -118,116 -118,186 0,89 58,175 161,198 -14,58 -29,116 -46,173 C 181,308 75,186 75,26 Z M 406,1042 C 307,995 244,894 244,785 c 0,-73 20,-132 38,-191 79,97 144,199 144,324 0,53 -4,76 -20,124 z"
       fill="currentColor"
       id="path64213" />
  </g>
  <a
     style="color:inherit"
     xlink:href="textedit://C:/Users/Javier/Documents/lilypond%20scores/ricci%20left%20hand%20examples.ly:345:4:5"
     id="a64225"
     transform="translate(-5.6906,-59.431423)">
    <g
       transform="translate(9.9906,64.8055)"
       id="g64219">
      <path
         transform="scale(0.0036,-0.0036)"
         d="m 217,-311 c 0,-11 -8,-19 -19,-19 -11,0 -20,8 -20,19 v 142 l -81,-30 v -156 c 0,-11 -9,-20 -20,-20 -11,0 -19,9 -19,20 v 142 l -28,-11 c -3,-1 -5,-1 -8,-1 -12,0 -22,10 -22,23 v 57 c 0,9 6,18 15,21 l 43,16 V 49 L 30,39 C 27,38 25,38 22,38 10,38 0,47 0,60 v 57 c 0,9 6,18 15,21 l 43,16 v 157 c 0,11 8,19 19,19 11,0 20,-8 20,-19 V 169 l 81,30 v 156 c 0,11 9,20 20,20 11,0 19,-9 19,-20 V 213 l 28,11 c 3,1 5,1 8,1 12,0 22,-10 22,-23 v -57 c 0,-9 -6,-18 -15,-21 L 217,108 V -49 l 28,10 c 3,1 5,1 8,1 12,0 22,-9 22,-22 v -57 c 0,-9 -6,-18 -15,-21 l -43,-16 z M 97,64 V -94 l 81,30 V 94 Z"
         fill="currentColor"
         id="path64217" />
    </g>
    <g
       transform="translate(10.9806,66.1555)"
       id="g64223">
      <path
         transform="scale(0.0036,-0.0036)"
         d="m 217,-311 c 0,-11 -8,-19 -19,-19 -11,0 -20,8 -20,19 v 142 l -81,-30 v -156 c 0,-11 -9,-20 -20,-20 -11,0 -19,9 -19,20 v 142 l -28,-11 c -3,-1 -5,-1 -8,-1 -12,0 -22,10 -22,23 v 57 c 0,9 6,18 15,21 l 43,16 V 49 L 30,39 C 27,38 25,38 22,38 10,38 0,47 0,60 v 57 c 0,9 6,18 15,21 l 43,16 v 157 c 0,11 8,19 19,19 11,0 20,-8 20,-19 V 169 l 81,30 v 156 c 0,11 9,20 20,20 11,0 19,-9 19,-20 V 213 l 28,11 c 3,1 5,1 8,1 12,0 22,-10 22,-23 v -57 c 0,-9 -6,-18 -15,-21 L 217,108 V -49 l 28,10 c 3,1 5,1 8,1 12,0 22,-9 22,-22 v -57 c 0,-9 -6,-18 -15,-21 l -43,-16 z M 97,64 V -94 l 81,30 V 94 Z"
         fill="currentColor"
         id="path64221" />
    </g>
  </a>
  <g
     transform="translate(7.5324,7.1740773)"
     id="g64229">
    <path
       transform="scale(0.0036,-0.0036)"
       d="m 172,256 c -49,0 -52,-40 -52,-94 v -22 -21 c 0,-54 3,-94 52,-94 56,0 59,50 59,115 0,65 -3,116 -59,116 z m -52,11 c 17,7 34,14 52,14 102,0 171,-46 171,-141 C 343,45 274,0 172,0 60,0 0,124 0,250 c 0,129 74,250 192,250 71,0 139,-40 139,-105 0,-36 -29,-65 -65,-65 -36,0 -65,29 -65,65 0,23 39,26 39,49 0,21 -24,31 -48,31 -64,0 -74,-62 -74,-134 0,-24 2,-49 2,-74 z"
       fill="currentColor"
       id="path64227" />
  </g>
  <g
     transform="translate(7.43,9.0178773)"
     id="g64233">
    <path
       transform="scale(0.0036,-0.0036)"
       d="m 194,120 h 120 c 0,-49 29,-95 75,-95 8,0 12,-7 12,-13 C 401,6 397,0 389,0 344,0 299,13 254,13 209,13 164,0 119,0 c -8,0 -12,6 -12,12 0,6 4,13 12,13 46,0 75,46 75,95 z m 9,181 c 22,15 45,30 61,51 12,15 19,34 27,51 2,4 5,6 9,6 6,0 14,-6 14,-15 V 156 h 74 c 10,0 16,-8 16,-16 0,-8 -6,-15 -16,-15 h -74 v -5 H 194 v 5 H 31 c -24,0 -33,15 -33,24 0,3 1,6 2,7 80,92 134,205 134,327 0,11 8,20 17,17 24,-7 48,-13 73,-13 25,0 48,6 72,13 2,1 4,1 6,1 9,0 14,-7 14,-13 0,-2 0,-3 -2,-5 L 31,156 h 163 v 122 c 0,9 2,18 9,23 z"
       fill="currentColor"
       id="path64231" />
  </g>
  <g
     transform="translate(13.0164,7.6240773)"
     id="g64237">
    <path
       transform="scale(0.0036,-0.0036)"
       d="M 0,0 C 0,31 25,56 56,56 87,56 111,31 111,0 111,-31 87,-56 56,-56 25,-56 0,-31 0,0 Z"
       fill="currentColor"
       id="path64235" />
  </g>
  <g
     transform="translate(47.5428,7.6240773)"
     id="g64241">
    <path
       transform="scale(0.0036,-0.0036)"
       d="M 0,0 C 0,31 25,56 56,56 87,56 111,31 111,0 111,-31 87,-56 56,-56 25,-56 0,-31 0,0 Z"
       fill="currentColor"
       id="path64239" />
  </g>
  <a
     style="color:inherit"
     xlink:href="textedit://C:/Users/Javier/Documents/lilypond%20scores/ricci%20left%20hand%20examples.ly:348:34:35"
     id="a64247"
     transform="translate(-5.6906,-59.431423)">
    <g
       transform="translate(43.0915,65.7055)"
       id="g64245">
      <path
         transform="scale(0.0036,-0.0036)"
         d="m 215,137 c 57,0 111,-29 111,-92 0,-71 -54,-120 -101,-148 -35,-21 -74,-34 -114,-34 -57,0 -111,29 -111,92 0,71 54,120 101,148 35,21 74,34 114,34 z"
         fill="currentColor"
         id="path64243" />
    </g>
  </a>
  <g
     transform="translate(38.5107,7.1740773)"
     id="g64251">
    <rect
       x="-0.062799998"
       y="-3.5999999"
       width="0.12549999"
       height="2.5386"
       ry="0.039999999"
       fill="currentColor"
       id="rect64249" />
  </g>
  <g
     transform="translate(27.836,7.1740773)"
     id="g64255">
    <rect
       x="-0.062799998"
       y="-1.8"
       width="0.12549999"
       height="2.9886"
       ry="0.039999999"
       fill="currentColor"
       id="rect64253" />
  </g>
  <a
     style="color:inherit"
     xlink:href="textedit://C:/Users/Javier/Documents/lilypond%20scores/ricci%20left%20hand%20examples.ly:349:8:9"
     id="a64261"
     transform="translate(-5.6906,-59.431423)">
    <g
       transform="translate(49.9084,67.0555)"
       id="g64259">
      <path
         transform="scale(0.0036,-0.0036)"
         d="m 215,137 c 57,0 111,-29 111,-92 0,-71 -54,-120 -101,-148 -35,-21 -74,-34 -114,-34 -57,0 -111,29 -111,92 0,71 54,120 101,148 35,21 74,34 114,34 z"
         fill="currentColor"
         id="path64257" />
    </g>
  </a>
  <a
     style="color:inherit"
     xlink:href="textedit://C:/Users/Javier/Documents/lilypond%20scores/ricci%20left%20hand%20examples.ly:357:12:13"
     id="a64267"
     transform="translate(-5.6906,-59.431423)">
    <g
       transform="translate(51.081,67.0555)"
       id="g64265">
      <path
         transform="scale(0.0036,-0.0036)"
         d="m 211,111 c -49,0 -68,-43 -68,-88 0,-75 57,-134 132,-134 49,0 68,43 68,88 0,75 -57,134 -132,134 z M 486,0 c 0,-43 -33,-76 -71,-97 -52,-29 -112,-40 -172,-40 -60,0 -120,11 -172,40 -38,21 -71,54 -71,97 0,43 33,76 71,97 52,29 112,40 172,40 60,0 120,-11 172,-40 38,-21 71,-54 71,-97 z"
         fill="currentColor"
         id="path64263" />
    </g>
  </a>
  <g
     transform="translate(45.3276,7.1740773)"
     id="g64271">
    <rect
       x="-0.062799998"
       y="-2.7"
       width="0.12549999"
       height="2.9886"
       ry="0.039999999"
       fill="currentColor"
       id="rect64269" />
  </g>
  <a
     style="color:inherit"
     xlink:href="textedit://C:/Users/Javier/Documents/lilypond%20scores/ricci%20left%20hand%20examples.ly:348:30:31"
     id="a64277"
     transform="translate(-5.6906,-59.431423)">
    <g
       transform="translate(37.7542,67.0555)"
       id="g64275">
      <path
         transform="scale(0.0036,-0.0036)"
         d="m 215,137 c 57,0 111,-29 111,-92 0,-71 -54,-120 -101,-148 -35,-21 -74,-34 -114,-34 -57,0 -111,29 -111,92 0,71 54,120 101,148 35,21 74,34 114,34 z"
         fill="currentColor"
         id="path64273" />
    </g>
  </a>
  <a
     style="color:inherit"
     xlink:href="textedit://C:/Users/Javier/Documents/lilypond%20scores/ricci%20left%20hand%20examples.ly:348:31:32"
     id="a64283"
     transform="translate(-5.6906,-59.431423)">
    <g
       transform="translate(37.9819,63.065)"
       id="g64281">
      <path
         transform="scale(0.002,-0.002)"
         d="M 129,129 H 259 C 259,77 291,29 340,29 350,29 354,21 354,14 354,7 350,0 340,0 291,0 243,14 194,14 145,14 98,0 49,0 39,0 34,7 34,14 c 0,7 5,15 15,15 49,0 80,48 80,100 z M 0,250 129,500 c 3,7 13,3 21,0 14,-6 28,-14 44,-14 16,0 31,8 45,14 2,1 2,1 4,1 8,0 16,-9 16,-21 V 129 H 129 v 215 c 0,15 -11,23 -20,23 -5,0 -9,-2 -11,-7 L 32,233 c -4,-7 -9,-9 -15,-9 -9,0 -19,7 -19,17 0,3 0,6 2,9 z"
         fill="currentColor"
         id="path64279" />
    </g>
  </a>
  <g
     transform="translate(33.1733,7.1740773)"
     id="g64287">
    <rect
       x="-0.062799998"
       y="-2.7"
       width="0.12549999"
       height="2.9886"
       ry="0.039999999"
       fill="currentColor"
       id="rect64285" />
  </g>
  <g
     transform="translate(3.1967416e-8,23.806277)"
     id="g64291">
    <line
       stroke-linejoin="round"
       stroke-linecap="round"
       stroke-width="0.0966"
       stroke="currentColor"
       x1="0.048300002"
       y1="0"
       x2="108.0722"
       y2="0"
       id="line64289" />
  </g>
  <g
     transform="translate(3.1967416e-8,22.906277)"
     id="g64295">
    <line
       stroke-linejoin="round"
       stroke-linecap="round"
       stroke-width="0.0966"
       stroke="currentColor"
       x1="0.048300002"
       y1="0"
       x2="108.0722"
       y2="0"
       id="line64293" />
  </g>
  <g
     transform="translate(3.1967416e-8,22.006277)"
     id="g64299">
    <line
       stroke-linejoin="round"
       stroke-linecap="round"
       stroke-width="0.0966"
       stroke="currentColor"
       x1="0.048300002"
       y1="0"
       x2="108.0722"
       y2="0"
       id="line64297" />
  </g>
  <g
     transform="translate(3.1967416e-8,21.106277)"
     id="g64303">
    <line
       stroke-linejoin="round"
       stroke-linecap="round"
       stroke-width="0.0966"
       stroke="currentColor"
       x1="0.048300002"
       y1="0"
       x2="108.0722"
       y2="0"
       id="line64301" />
  </g>
  <g
     transform="translate(3.1967416e-8,20.206277)"
     id="g64307">
    <line
       stroke-linejoin="round"
       stroke-linecap="round"
       stroke-width="0.0966"
       stroke="currentColor"
       x1="0.048300002"
       y1="0"
       x2="108.0722"
       y2="0"
       id="line64305" />
  </g>
  <g
     transform="translate(46.6757,22.006277)"
     id="g64311">
    <rect
       x="0"
       y="-1.8"
       width="0.18350001"
       height="3.5999999"
       ry="0.0000"
       fill="currentColor"
       id="rect64309" />
  </g>
  <g
     transform="translate(107.9369,22.006277)"
     id="g64315">
    <rect
       x="0"
       y="-1.8"
       width="0.18350001"
       height="3.5999999"
       ry="0.0000"
       fill="currentColor"
       id="rect64313" />
  </g>
  <g
     transform="translate(107.4637,22.006277)"
     id="g64319">
    <rect
       x="0"
       y="-1.8"
       width="0.18350001"
       height="3.5999999"
       ry="0.0000"
       fill="currentColor"
       id="rect64317" />
  </g>
  <g
     transform="translate(86.5179,21.556277)"
     id="g64323">
    <path
       transform="scale(0.0036,-0.0036)"
       d="M 0,0 C 0,31 25,56 56,56 87,56 111,31 111,0 111,-31 87,-56 56,-56 25,-56 0,-31 0,0 Z"
       fill="currentColor"
       id="path64321" />
  </g>
  <g
     transform="translate(86.5179,22.456277)"
     id="g64327">
    <path
       transform="scale(0.0036,-0.0036)"
       d="M 0,0 C 0,31 25,56 56,56 87,56 111,31 111,0 111,-31 87,-56 56,-56 25,-56 0,-31 0,0 Z"
       fill="currentColor"
       id="path64325" />
  </g>
  <g
     transform="translate(87.6822,22.006277)"
     id="g64331">
    <rect
       x="0"
       y="-1.8"
       width="0.5794"
       height="3.5999999"
       ry="0.0000"
       fill="currentColor"
       id="rect64329" />
  </g>
  <g
     transform="translate(87.209,22.006277)"
     id="g64335">
    <rect
       x="0"
       y="-1.8"
       width="0.18350001"
       height="3.5999999"
       ry="0.0000"
       fill="currentColor"
       id="rect64333" />
  </g>
  <a
     style="color:inherit"
     xlink:href="textedit://C:/Users/Javier/Documents/lilypond%20scores/ricci%20left%20hand%20examples.ly:353:19:20"
     id="a64341"
     transform="translate(-5.6906,-59.431423)">
    <g
       transform="translate(73.1649,82.7877)"
       id="g64339">
      <path
         transform="scale(0.0036,-0.0036)"
         d="m 215,137 c 57,0 111,-29 111,-92 0,-71 -54,-120 -101,-148 -35,-21 -74,-34 -114,-34 -57,0 -111,29 -111,92 0,71 54,120 101,148 35,21 74,34 114,34 z"
         fill="currentColor"
         id="path64337" />
    </g>
  </a>
  <g
     transform="translate(68.5841,22.006277)"
     id="g64345">
    <rect
       x="-0.062799998"
       y="-1.8"
       width="0.12549999"
       height="2.9886"
       ry="0.039999999"
       fill="currentColor"
       id="rect64343" />
  </g>
  <a
     style="color:inherit"
     xlink:href="textedit://C:/Users/Javier/Documents/lilypond%20scores/ricci%20left%20hand%20examples.ly:353:23:24"
     id="a64351"
     transform="translate(-5.6906,-59.431423)">
    <g
       transform="translate(79.2628,83.6877)"
       id="g64349">
      <path
         transform="scale(0.0036,-0.0036)"
         d="m 215,137 c 57,0 111,-29 111,-92 0,-71 -54,-120 -101,-148 -35,-21 -74,-34 -114,-34 -57,0 -111,29 -111,92 0,71 54,120 101,148 35,21 74,34 114,34 z"
         fill="currentColor"
         id="path64347" />
    </g>
  </a>
  <g
     transform="translate(74.6819,22.006277)"
     id="g64355">
    <rect
       x="-0.062799998"
       y="-0.89999998"
       width="0.12549999"
       height="2.9886"
       ry="0.039999999"
       fill="currentColor"
       id="rect64353" />
  </g>
  <a
     style="color:inherit"
     xlink:href="textedit://C:/Users/Javier/Documents/lilypond%20scores/ricci%20left%20hand%20examples.ly:353:25:26"
     id="a64361"
     transform="translate(-5.6906,-59.431423)">
    <g
       transform="translate(85.8606,82.7877)"
       id="g64359">
      <path
         transform="scale(0.0036,-0.0036)"
         d="m 215,137 c 57,0 111,-29 111,-92 0,-71 -54,-120 -101,-148 -35,-21 -74,-34 -114,-34 -57,0 -111,29 -111,92 0,71 54,120 101,148 35,21 74,34 114,34 z"
         fill="currentColor"
         id="path64357" />
    </g>
  </a>
  <g
     transform="translate(81.2798,22.006277)"
     id="g64365">
    <rect
       x="-0.062799998"
       y="-1.8"
       width="0.12549999"
       height="2.9886"
       ry="0.039999999"
       fill="currentColor"
       id="rect64363" />
  </g>
  <a
     style="color:inherit"
     xlink:href="textedit://C:/Users/Javier/Documents/lilypond%20scores/ricci%20left%20hand%20examples.ly:353:11:12"
     id="a64371"
     transform="translate(-5.6906,-59.431423)">
    <g
       transform="translate(60.4692,82.7877)"
       id="g64369">
      <path
         transform="scale(0.0036,-0.0036)"
         d="m 215,137 c 57,0 111,-29 111,-92 0,-71 -54,-120 -101,-148 -35,-21 -74,-34 -114,-34 -57,0 -111,29 -111,92 0,71 54,120 101,148 35,21 74,34 114,34 z"
         fill="currentColor"
         id="path64367" />
    </g>
  </a>
  <a
     style="color:inherit"
     xlink:href="textedit://C:/Users/Javier/Documents/lilypond%20scores/ricci%20left%20hand%20examples.ly:352:11:12"
     id="a64377"
     transform="translate(-5.6906,-59.431423)">
    <g
       transform="translate(14.4706,81.4377)"
       id="g64375">
      <path
         stroke-width="0.0773"
         stroke-linejoin="round"
         stroke-linecap="round"
         stroke="currentColor"
         fill="currentColor"
         d="m 1.4725,-2.7438 c 2.7124,-2.8025 28.194,-2.1689 30.7638,0.765 v 0 C 29.6636,-4.7968 4.1821,-5.4305 1.4725,-2.7438 Z"
         id="path64373" />
    </g>
  </a>
  <a
     style="color:inherit"
     xlink:href="textedit://C:/Users/Javier/Documents/lilypond%20scores/ricci%20left%20hand%20examples.ly:353:14:15"
     id="a64383"
     transform="translate(-5.6906,-59.431423)">
    <g
       transform="translate(60.697,78.1076)"
       id="g64381">
      <path
         transform="scale(0.002,-0.002)"
         d="M 129,129 H 259 C 259,77 291,29 340,29 350,29 354,21 354,14 354,7 350,0 340,0 291,0 243,14 194,14 145,14 98,0 49,0 39,0 34,7 34,14 c 0,7 5,15 15,15 49,0 80,48 80,100 z M 0,250 129,500 c 3,7 13,3 21,0 14,-6 28,-14 44,-14 16,0 31,8 45,14 2,1 2,1 4,1 8,0 16,-9 16,-21 V 129 H 129 v 215 c 0,15 -11,23 -20,23 -5,0 -9,-2 -11,-7 L 32,233 c -4,-7 -9,-9 -15,-9 -9,0 -19,7 -19,17 0,3 0,6 2,9 z"
         fill="currentColor"
         id="path64379" />
    </g>
  </a>
  <g
     transform="translate(55.8884,22.006277)"
     id="g64387">
    <rect
       x="-0.062799998"
       y="-1.8"
       width="0.12549999"
       height="2.9886"
       ry="0.039999999"
       fill="currentColor"
       id="rect64385" />
  </g>
  <a
     style="color:inherit"
     xlink:href="textedit://C:/Users/Javier/Documents/lilypond%20scores/ricci%20left%20hand%20examples.ly:353:17:18"
     id="a64393"
     transform="translate(-5.6906,-59.431423)">
    <g
       transform="translate(67.0671,81.8877)"
       id="g64391">
      <path
         transform="scale(0.0036,-0.0036)"
         d="m 215,137 c 57,0 111,-29 111,-92 0,-71 -54,-120 -101,-148 -35,-21 -74,-34 -114,-34 -57,0 -111,29 -111,92 0,71 54,120 101,148 35,21 74,34 114,34 z"
         fill="currentColor"
         id="path64389" />
    </g>
  </a>
  <g
     transform="translate(62.4862,22.006277)"
     id="g64397">
    <rect
       x="-0.062799998"
       y="-2.7"
       width="0.12549999"
       height="2.9886"
       ry="0.039999999"
       fill="currentColor"
       id="rect64395" />
  </g>
  <g
     transform="translate(9.8897,22.006277)"
     id="g64401">
    <rect
       x="-0.062799998"
       y="-4.1999998"
       width="0.12549999"
       height="2.2386"
       ry="0.039999999"
       fill="currentColor"
       id="rect64399" />
  </g>
  <a
     style="color:inherit"
     xlink:href="textedit://C:/Users/Javier/Documents/lilypond%20scores/ricci%20left%20hand%20examples.ly:357:16:17"
     id="a64407"
     transform="translate(-5.6906,-59.431423)">
    <g
       transform="translate(14.4706,81.8877)"
       id="g64405">
      <path
         transform="scale(0.0036,-0.0036)"
         d="m 211,111 c -49,0 -68,-43 -68,-88 0,-75 57,-134 132,-134 49,0 68,43 68,88 0,75 -57,134 -132,134 z M 486,0 c 0,-43 -33,-76 -71,-97 -52,-29 -112,-40 -172,-40 -60,0 -120,11 -172,40 -38,21 -71,54 -71,97 0,43 33,76 71,97 52,29 112,40 172,40 60,0 120,-11 172,-40 38,-21 71,-54 71,-97 z"
         fill="currentColor"
         id="path64403" />
    </g>
  </a>
  <a
     style="color:inherit"
     xlink:href="textedit://C:/Users/Javier/Documents/lilypond%20scores/ricci%20left%20hand%20examples.ly:352:8:9"
     id="a64413"
     transform="translate(-5.6906,-59.431423)">
    <g
       transform="translate(14.4706,79.6377)"
       id="g64411">
      <path
         transform="scale(0.0036,-0.0036)"
         d="m 215,137 c 57,0 111,-29 111,-92 0,-71 -54,-120 -101,-148 -35,-21 -74,-34 -114,-34 -57,0 -111,29 -111,92 0,71 54,120 101,148 35,21 74,34 114,34 z"
         fill="currentColor"
         id="path64409" />
    </g>
  </a>
  <a
     style="color:inherit"
     xlink:href="textedit://C:/Users/Javier/Documents/lilypond%20scores/ricci%20left%20hand%20examples.ly:353:9:10"
     id="a64419"
     transform="translate(-5.6906,-59.431423)">
    <g
       transform="translate(54.3713,81.4377)"
       id="g64417">
      <path
         stroke-width="0.0773"
         stroke-linejoin="round"
         stroke-linecap="round"
         stroke="currentColor"
         fill="currentColor"
         d="m 1.4725,-2.2938 c 2.6662,-1.6496 28.147,-1.2769 30.7638,0.45 v 0 C 29.6178,-3.4548 4.137,-3.8275 1.4725,-2.2938 Z"
         id="path64415" />
    </g>
  </a>
  <a
     style="color:inherit"
     xlink:href="textedit://C:/Users/Javier/Documents/lilypond%20scores/ricci%20left%20hand%20examples.ly:361:7:8"
     id="a64425"
     transform="translate(-5.6906,-59.431423)">
    <g
       transform="translate(96.7737,83.6877)"
       id="g64423">
      <path
         transform="scale(0.0036,-0.0036)"
         d="m 211,111 c -49,0 -68,-43 -68,-88 0,-75 57,-134 132,-134 49,0 68,43 68,88 0,75 -57,134 -132,134 z M 486,0 c 0,-43 -33,-76 -71,-97 -52,-29 -112,-40 -172,-40 -60,0 -120,11 -172,40 -38,21 -71,54 -71,97 0,43 33,76 71,97 52,29 112,40 172,40 60,0 120,-11 172,-40 38,-21 71,-54 71,-97 z"
         fill="currentColor"
         id="path64421" />
    </g>
  </a>
  <a
     style="color:inherit"
     xlink:href="textedit://C:/Users/Javier/Documents/lilypond%20scores/ricci%20left%20hand%20examples.ly:361:10:11"
     id="a64431"
     transform="translate(-5.6906,-59.431423)">
    <g
       transform="translate(96.7737,81.8877)"
       id="g64429">
      <path
         transform="scale(0.0036,-0.0036)"
         d="m 211,111 c -49,0 -68,-43 -68,-88 0,-75 57,-134 132,-134 49,0 68,43 68,88 0,75 -57,134 -132,134 z M 486,0 c 0,-43 -33,-76 -71,-97 -52,-29 -112,-40 -172,-40 -60,0 -120,11 -172,40 -38,21 -71,54 -71,97 0,43 33,76 71,97 52,29 112,40 172,40 60,0 120,-11 172,-40 38,-21 71,-54 71,-97 z"
         fill="currentColor"
         id="path64427" />
    </g>
  </a>
  <g
     transform="translate(93.2356,24.256277)"
     id="g64435">
    <path
       transform="scale(0.0036,-0.0036)"
       d="M 0,0 C 0,31 25,56 56,56 87,56 111,31 111,0 111,-31 87,-56 56,-56 25,-56 0,-31 0,0 Z"
       fill="currentColor"
       id="path64433" />
  </g>
  <g
     transform="translate(93.2356,22.456277)"
     id="g64439">
    <path
       transform="scale(0.0036,-0.0036)"
       d="M 0,0 C 0,31 25,56 56,56 87,56 111,31 111,0 111,-31 87,-56 56,-56 25,-56 0,-31 0,0 Z"
       fill="currentColor"
       id="path64437" />
  </g>
  <g
     transform="translate(10.9324,22.456277)"
     id="g64443">
    <path
       transform="scale(0.0036,-0.0036)"
       d="M 0,0 C 0,31 25,56 56,56 87,56 111,31 111,0 111,-31 87,-56 56,-56 25,-56 0,-31 0,0 Z"
       fill="currentColor"
       id="path64441" />
  </g>
  <a
     style="color:inherit"
     xlink:href="textedit://C:/Users/Javier/Documents/lilypond%20scores/ricci%20left%20hand%20examples.ly:352:13:14"
     id="a64449"
     transform="translate(-5.6906,-59.431423)">
    <g
       transform="translate(20.5684,80.5377)"
       id="g64447">
      <path
         transform="scale(0.0036,-0.0036)"
         d="m 215,137 c 57,0 111,-29 111,-92 0,-71 -54,-120 -101,-148 -35,-21 -74,-34 -114,-34 -57,0 -111,29 -111,92 0,71 54,120 101,148 35,21 74,34 114,34 z"
         fill="currentColor"
         id="path64445" />
    </g>
  </a>
  <a
     style="color:inherit"
     xlink:href="textedit://C:/Users/Javier/Documents/lilypond%20scores/ricci%20left%20hand%20examples.ly:352:14:15"
     id="a64455"
     transform="translate(-5.6906,-59.431423)">
    <g
       transform="translate(20.7962,79.1394)"
       id="g64453">
      <path
         transform="scale(0.002,-0.002)"
         d="M 129,129 H 259 C 259,77 291,29 340,29 350,29 354,21 354,14 354,7 350,0 340,0 291,0 243,14 194,14 145,14 98,0 49,0 39,0 34,7 34,14 c 0,7 5,15 15,15 49,0 80,48 80,100 z M 0,250 129,500 c 3,7 13,3 21,0 14,-6 28,-14 44,-14 16,0 31,8 45,14 2,1 2,1 4,1 8,0 16,-9 16,-21 V 129 H 129 v 215 c 0,15 -11,23 -20,23 -5,0 -9,-2 -11,-7 L 32,233 c -4,-7 -9,-9 -15,-9 -9,0 -19,7 -19,17 0,3 0,6 2,9 z"
         fill="currentColor"
         id="path64451" />
    </g>
  </a>
  <g
     transform="translate(15.9876,22.006277)"
     id="g64459">
    <rect
       x="-0.062799998"
       y="-3.5999999"
       width="0.12549999"
       height="2.5386"
       ry="0.039999999"
       fill="currentColor"
       id="rect64457" />
  </g>
  <a
     style="color:inherit"
     xlink:href="textedit://C:/Users/Javier/Documents/lilypond%20scores/ricci%20left%20hand%20examples.ly:352:17:18"
     id="a64465"
     transform="translate(-5.6906,-59.431423)">
    <g
       transform="translate(27.1663,79.6377)"
       id="g64463">
      <path
         transform="scale(0.0036,-0.0036)"
         d="m 215,137 c 57,0 111,-29 111,-92 0,-71 -54,-120 -101,-148 -35,-21 -74,-34 -114,-34 -57,0 -111,29 -111,92 0,71 54,120 101,148 35,21 74,34 114,34 z"
         fill="currentColor"
         id="path64461" />
    </g>
  </a>
  <g
     transform="translate(22.5854,22.006277)"
     id="g64469">
    <rect
       x="-0.062799998"
       y="-4.1999998"
       width="0.12549999"
       height="2.2386"
       ry="0.039999999"
       fill="currentColor"
       id="rect64467" />
  </g>
  <a
     style="color:inherit"
     xlink:href="textedit://C:/Users/Javier/Documents/lilypond%20scores/ricci%20left%20hand%20examples.ly:352:21:22"
     id="a64475"
     transform="translate(-5.6906,-59.431423)">
    <g
       transform="translate(33.2641,80.5377)"
       id="g64473">
      <path
         transform="scale(0.0036,-0.0036)"
         d="m 215,137 c 57,0 111,-29 111,-92 0,-71 -54,-120 -101,-148 -35,-21 -74,-34 -114,-34 -57,0 -111,29 -111,92 0,71 54,120 101,148 35,21 74,34 114,34 z"
         fill="currentColor"
         id="path64471" />
    </g>
  </a>
  <a
     style="color:inherit"
     xlink:href="textedit://C:/Users/Javier/Documents/lilypond%20scores/ricci%20left%20hand%20examples.ly:352:22:23"
     id="a64481"
     transform="translate(-5.6906,-59.431423)">
    <g
       transform="translate(33.4919,79.1394)"
       id="g64479">
      <path
         transform="scale(0.002,-0.002)"
         d="M 129,129 H 259 C 259,77 291,29 340,29 350,29 354,21 354,14 354,7 350,0 340,0 291,0 243,14 194,14 145,14 98,0 49,0 39,0 34,7 34,14 c 0,7 5,15 15,15 49,0 80,48 80,100 z M 0,250 129,500 c 3,7 13,3 21,0 14,-6 28,-14 44,-14 16,0 31,8 45,14 2,1 2,1 4,1 8,0 16,-9 16,-21 V 129 H 129 v 215 c 0,15 -11,23 -20,23 -5,0 -9,-2 -11,-7 L 32,233 c -4,-7 -9,-9 -15,-9 -9,0 -19,7 -19,17 0,3 0,6 2,9 z"
         fill="currentColor"
         id="path64477" />
    </g>
  </a>
  <g
     transform="translate(0.80000003,22.906277)"
     id="g64485">
    <path
       transform="scale(0.0036,-0.0036)"
       d="m 378,263 c 4,0 7,1 11,1 156,0 257,-129 257,-262 0,-76 -34,-154 -108,-210 -22,-17 -46,-29 -72,-37 3,-34 5,-68 5,-102 0,-20 -1,-40 -2,-60 -7,-121 -90,-228 -209,-228 -108,0 -196,87 -196,196 0,58 53,104 112,104 54,0 95,-48 95,-104 0,-52 -43,-95 -95,-95 -10,0 -20,2 -29,6 26,-38 68,-63 116,-63 h 3 c 93,2 153,92 159,190 1,19 2,37 2,56 0,30 -2,60 -4,90 -29,-5 -58,-8 -88,-8 -188,0 -333,173 -333,375 0,177 130,307 246,442 -20,62 -38,125 -46,190 -6,52 -7,104 -7,157 0,115 55,223 148,290 7,5 16,4 22,-1 71,-83 134,-244 134,-357 0,-143 -85,-255 -178,-364 21,-68 40,-137 57,-206 z m 84,-465 c 67,24 111,94 111,162 0,89 -65,178 -170,190 24,-115 46,-230 59,-352 z M 75,26 c 0,-134 129,-245 263,-245 28,0 55,2 81,6 C 405,-87 383,31 358,150 279,142 234,89 234,31 c 0,-43 25,-89 80,-121 5,-5 7,-11 7,-16 0,-12 -10,-23 -22,-23 -3,0 -6,1 -9,2 -81,43 -118,116 -118,186 0,89 58,175 161,198 -14,58 -29,116 -46,173 C 181,308 75,186 75,26 Z M 406,1042 C 307,995 244,894 244,785 c 0,-73 20,-132 38,-191 79,97 144,199 144,324 0,53 -4,76 -20,124 z"
       fill="currentColor"
       id="path64483" />
  </g>
  <g
     transform="translate(4.3,20.206277)"
     id="g64489">
    <path
       transform="scale(0.0036,-0.0036)"
       d="m 217,-311 c 0,-11 -8,-19 -19,-19 -11,0 -20,8 -20,19 v 142 l -81,-30 v -156 c 0,-11 -9,-20 -20,-20 -11,0 -19,9 -19,20 v 142 l -28,-11 c -3,-1 -5,-1 -8,-1 -12,0 -22,10 -22,23 v 57 c 0,9 6,18 15,21 l 43,16 V 49 L 30,39 C 27,38 25,38 22,38 10,38 0,47 0,60 v 57 c 0,9 6,18 15,21 l 43,16 v 157 c 0,11 8,19 19,19 11,0 20,-8 20,-19 V 169 l 81,30 v 156 c 0,11 9,20 20,20 11,0 19,-9 19,-20 V 213 l 28,11 c 3,1 5,1 8,1 12,0 22,-10 22,-23 v -57 c 0,-9 -6,-18 -15,-21 L 217,108 V -49 l 28,10 c 3,1 5,1 8,1 12,0 22,-9 22,-22 v -57 c 0,-9 -6,-18 -15,-21 l -43,-16 z M 97,64 V -94 l 81,30 V 94 Z"
       fill="currentColor"
       id="path64487" />
  </g>
  <g
     transform="translate(5.29,21.556277)"
     id="g64493">
    <path
       transform="scale(0.0036,-0.0036)"
       d="m 217,-311 c 0,-11 -8,-19 -19,-19 -11,0 -20,8 -20,19 v 142 l -81,-30 v -156 c 0,-11 -9,-20 -20,-20 -11,0 -19,9 -19,20 v 142 l -28,-11 c -3,-1 -5,-1 -8,-1 -12,0 -22,10 -22,23 v 57 c 0,9 6,18 15,21 l 43,16 V 49 L 30,39 C 27,38 25,38 22,38 10,38 0,47 0,60 v 57 c 0,9 6,18 15,21 l 43,16 v 157 c 0,11 8,19 19,19 11,0 20,-8 20,-19 V 169 l 81,30 v 156 c 0,11 9,20 20,20 11,0 19,-9 19,-20 V 213 l 28,11 c 3,1 5,1 8,1 12,0 22,-10 22,-23 v -57 c 0,-9 -6,-18 -15,-21 L 217,108 V -49 l 28,10 c 3,1 5,1 8,1 12,0 22,-9 22,-22 v -57 c 0,-9 -6,-18 -15,-21 l -43,-16 z M 97,64 V -94 l 81,30 V 94 Z"
       fill="currentColor"
       id="path64491" />
  </g>
  <g
     transform="translate(28.6833,22.006277)"
     id="g64497">
    <rect
       x="-0.062799998"
       y="-3.5999999"
       width="0.12549999"
       height="2.5386"
       ry="0.039999999"
       fill="currentColor"
       id="rect64495" />
  </g>
  <a
     style="color:inherit"
     xlink:href="textedit://C:/Users/Javier/Documents/lilypond%20scores/ricci%20left%20hand%20examples.ly:353:8:9"
     id="a64503"
     transform="translate(-5.6906,-59.431423)">
    <g
       transform="translate(54.3713,81.8877)"
       id="g64501">
      <path
         transform="scale(0.0036,-0.0036)"
         d="m 215,137 c 57,0 111,-29 111,-92 0,-71 -54,-120 -101,-148 -35,-21 -74,-34 -114,-34 -57,0 -111,29 -111,92 0,71 54,120 101,148 35,21 74,34 114,34 z"
         fill="currentColor"
         id="path64499" />
    </g>
  </a>
  <a
     style="color:inherit"
     xlink:href="textedit://C:/Users/Javier/Documents/lilypond%20scores/ricci%20left%20hand%20examples.ly:357:18:19"
     id="a64509"
     transform="translate(-5.6906,-59.431423)">
    <g
       transform="translate(55.5439,81.8877)"
       id="g64507">
      <path
         transform="scale(0.0036,-0.0036)"
         d="m 211,111 c -49,0 -68,-43 -68,-88 0,-75 57,-134 132,-134 49,0 68,43 68,88 0,75 -57,134 -132,134 z M 486,0 c 0,-43 -33,-76 -71,-97 -52,-29 -112,-40 -172,-40 -60,0 -120,11 -172,40 -38,21 -71,54 -71,97 0,43 33,76 71,97 52,29 112,40 172,40 60,0 120,-11 172,-40 38,-21 71,-54 71,-97 z"
         fill="currentColor"
         id="path64505" />
    </g>
  </a>
  <g
     transform="translate(49.7905,22.006277)"
     id="g64513">
    <rect
       x="-0.062799998"
       y="-2.7"
       width="0.12549999"
       height="2.9886"
       ry="0.039999999"
       fill="currentColor"
       id="rect64511" />
  </g>
  <g
     transform="translate(52.0057,22.456277)"
     id="g64517">
    <path
       transform="scale(0.0036,-0.0036)"
       d="M 0,0 C 0,31 25,56 56,56 87,56 111,31 111,0 111,-31 87,-56 56,-56 25,-56 0,-31 0,0 Z"
       fill="currentColor"
       id="path64515" />
  </g>
  <a
     style="color:inherit"
     xlink:href="textedit://C:/Users/Javier/Documents/lilypond%20scores/ricci%20left%20hand%20examples.ly:352:25:26"
     id="a64523"
     transform="translate(-5.6906,-59.431423)">
    <g
       transform="translate(39.362,81.8877)"
       id="g64521">
      <path
         transform="scale(0.0036,-0.0036)"
         d="m 215,137 c 57,0 111,-29 111,-92 0,-71 -54,-120 -101,-148 -35,-21 -74,-34 -114,-34 -57,0 -111,29 -111,92 0,71 54,120 101,148 35,21 74,34 114,34 z"
         fill="currentColor"
         id="path64519" />
    </g>
  </a>
  <g
     transform="translate(34.7812,22.006277)"
     id="g64527">
    <rect
       x="-0.062799998"
       y="-2.7"
       width="0.12549999"
       height="2.9886"
       ry="0.039999999"
       fill="currentColor"
       id="rect64525" />
  </g>
  <g
     transform="translate(41.379,22.006277)"
     id="g64531">
    <rect
       x="-0.062799998"
       y="-3.5999999"
       width="0.12549999"
       height="2.5386"
       ry="0.039999999"
       fill="currentColor"
       id="rect64529" />
  </g>
  <a
     style="color:inherit"
     xlink:href="textedit://C:/Users/Javier/Documents/lilypond%20scores/ricci%20left%20hand%20examples.ly:352:27:28"
     id="a64537"
     transform="translate(-5.6906,-59.431423)">
    <g
       transform="translate(45.9599,80.5377)"
       id="g64535">
      <path
         transform="scale(0.0036,-0.0036)"
         d="m 215,137 c 57,0 111,-29 111,-92 0,-71 -54,-120 -101,-148 -35,-21 -74,-34 -114,-34 -57,0 -111,29 -111,92 0,71 54,120 101,148 35,21 74,34 114,34 z"
         fill="currentColor"
         id="path64533" />
    </g>
  </a>
</svg>
