<!-- <?xml version="1.0" encoding="UTF-8" standalone="no"?> -->
<svg
   version="1.2"
   width="173.08742mm"
   height="19.319881mm"
   viewBox="0 0 98.496302 10.994079"
   id="svg67467"
   sodipodi:docname="ricci left hand examples-3.svg"
   xmlns:inkscape="http://www.inkscape.org/namespaces/inkscape"
   xmlns:sodipodi="http://sodipodi.sourceforge.net/DTD/sodipodi-0.dtd"
   xmlns:xlink="http://www.w3.org/1999/xlink"
   xmlns="http://www.w3.org/2000/svg"
   xmlns:svg="http://www.w3.org/2000/svg">
  <defs
     id="defs67471" />
  <sodipodi:namedview
     id="namedview67469"
     pagecolor="#ffffff"
     bordercolor="#000000"
     borderopacity="0.25"
     inkscape:showpageshadow="2"
     inkscape:pageopacity="0.0"
     inkscape:pagecheckerboard="0"
     inkscape:deskcolor="#d1d1d1"
     inkscape:document-units="mm"
     showgrid="false" />
  <style
     type="text/css"
     id="style62385"><![CDATA[
tspan { white-space: pre; }
]]></style>
  <!-- Page: 3/6 -->
  <g
     transform="translate(30.2415,7.694082)"
     id="g65151">
    <rect
       x="0"
       y="-1.8"
       width="0.18350001"
       height="3.5999999"
       ry="0.0000"
       fill="currentColor"
       id="rect65149" />
  </g>
  <g
     transform="translate(89.205,7.694082)"
     id="g65155">
    <rect
       x="0"
       y="-1.8"
       width="0.18350001"
       height="3.5999999"
       ry="0.0000"
       fill="currentColor"
       id="rect65153" />
  </g>
  <g
     transform="translate(69.1561,7.694082)"
     id="g65159">
    <rect
       x="0"
       y="-1.8"
       width="0.18350001"
       height="3.5999999"
       ry="0.0000"
       fill="currentColor"
       id="rect65157" />
  </g>
  <g
     transform="translate(51.1307,7.694082)"
     id="g65163">
    <rect
       x="0"
       y="-1.8"
       width="0.18350001"
       height="3.5999999"
       ry="0.0000"
       fill="currentColor"
       id="rect65161" />
  </g>
  <g
     transform="translate(98.3127,7.694082)"
     id="g65167">
    <rect
       x="0"
       y="-1.8"
       width="0.18350001"
       height="3.5999999"
       ry="0.0000"
       fill="currentColor"
       id="rect65165" />
  </g>
  <g
     transform="translate(97.8395,7.694082)"
     id="g65171">
    <rect
       x="0"
       y="-1.8"
       width="0.18350001"
       height="3.5999999"
       ry="0.0000"
       fill="currentColor"
       id="rect65169" />
  </g>
  <g
     transform="translate(3.1967416e-8,9.494082)"
     id="g65175">
    <line
       stroke-linejoin="round"
       stroke-linecap="round"
       stroke-width="0.0966"
       stroke="currentColor"
       x1="0.048300002"
       y1="0"
       x2="98.447998"
       y2="0"
       id="line65173" />
  </g>
  <g
     transform="translate(3.1967416e-8,8.594082)"
     id="g65179">
    <line
       stroke-linejoin="round"
       stroke-linecap="round"
       stroke-width="0.0966"
       stroke="currentColor"
       x1="0.048300002"
       y1="0"
       x2="98.447998"
       y2="0"
       id="line65177" />
  </g>
  <g
     transform="translate(3.1967416e-8,7.694082)"
     id="g65183">
    <line
       stroke-linejoin="round"
       stroke-linecap="round"
       stroke-width="0.0966"
       stroke="currentColor"
       x1="0.048300002"
       y1="0"
       x2="98.447998"
       y2="0"
       id="line65181" />
  </g>
  <g
     transform="translate(3.1967416e-8,6.794082)"
     id="g65187">
    <line
       stroke-linejoin="round"
       stroke-linecap="round"
       stroke-width="0.0966"
       stroke="currentColor"
       x1="0.048300002"
       y1="0"
       x2="98.447998"
       y2="0"
       id="line65185" />
  </g>
  <g
     transform="translate(3.1967416e-8,5.894082)"
     id="g65191">
    <line
       stroke-linejoin="round"
       stroke-linecap="round"
       stroke-width="0.0966"
       stroke="currentColor"
       x1="0.048300002"
       y1="0"
       x2="98.447998"
       y2="0"
       id="line65189" />
  </g>
  <g
     transform="translate(3.1967416e-8,4.994082)"
     id="g65195">
    <rect
       x="62.186798"
       y="-0.0933"
       width="1.7588"
       height="0.1866"
       ry="0.0933"
       fill="currentColor"
       id="rect65193" />
  </g>
  <g
     transform="translate(3.1967416e-8,4.994082)"
     id="g65199">
    <rect
       x="55.319199"
       y="-0.0933"
       width="1.7588"
       height="0.1866"
       ry="0.0933"
       fill="currentColor"
       id="rect65197" />
  </g>
  <g
     transform="translate(3.1967416e-8,4.094082)"
     id="g65203">
    <rect
       x="51.9967"
       y="-0.0933"
       width="1.7588"
       height="0.1866"
       ry="0.0933"
       fill="currentColor"
       id="rect65201" />
  </g>
  <g
     transform="translate(3.1967416e-8,4.994082)"
     id="g65207">
    <rect
       x="51.9967"
       y="-0.0933"
       width="1.7588"
       height="0.1866"
       ry="0.0933"
       fill="currentColor"
       id="rect65205" />
  </g>
  <g
     transform="translate(3.1967416e-8,4.994082)"
     id="g65211">
    <rect
       x="48.465099"
       y="-0.0933"
       width="1.7588"
       height="0.1866"
       ry="0.0933"
       fill="currentColor"
       id="rect65209" />
  </g>
  <g
     transform="translate(3.1967416e-8,4.994082)"
     id="g65215">
    <rect
       x="41.0975"
       y="-0.0933"
       width="1.7588"
       height="0.1866"
       ry="0.0933"
       fill="currentColor"
       id="rect65213" />
  </g>
  <a
     style="color:inherit"
     xlink:href="textedit://C:/Users/Javier/Documents/lilypond%20scores/ricci%20left%20hand%20examples.ly:404:6:7"
     id="a65221"
     transform="translate(-5.6906,-113.07232)">
    <g
       transform="translate(76.0057,121.2164)"
       id="g65219">
      <path
         transform="scale(0.0036,-0.0036)"
         d="m 215,137 c 57,0 111,-29 111,-92 0,-71 -54,-120 -101,-148 -35,-21 -74,-34 -114,-34 -57,0 -111,29 -111,92 0,71 54,120 101,148 35,21 74,34 114,34 z"
         fill="currentColor"
         id="path65217" />
    </g>
  </a>
  <g
     transform="translate(67.8347,7.694082)"
     id="g65225">
    <rect
       x="-0.062799998"
       y="-4.9499998"
       width="0.12549999"
       height="3.8886001"
       ry="0.039999999"
       fill="currentColor"
       id="rect65223" />
  </g>
  <a
     style="color:inherit"
     xlink:href="textedit://C:/Users/Javier/Documents/lilypond%20scores/ricci%20left%20hand%20examples.ly:403:30:31"
     id="a65231"
     transform="translate(-5.6906,-113.07232)">
    <g
       transform="translate(72.4155,119.8664)"
       id="g65229">
      <path
         transform="scale(0.0036,-0.0036)"
         d="m 215,137 c 57,0 111,-29 111,-92 0,-71 -54,-120 -101,-148 -35,-21 -74,-34 -114,-34 -57,0 -111,29 -111,92 0,71 54,120 101,148 35,21 74,34 114,34 z"
         fill="currentColor"
         id="path65227" />
    </g>
  </a>
  <a
     style="color:inherit"
     xlink:href="textedit://C:/Users/Javier/Documents/lilypond%20scores/ricci%20left%20hand%20examples.ly:403:23:24"
     id="a65237"
     transform="translate(-5.6906,-113.07232)">
    <g
       transform="translate(68.1705,118.0664)"
       id="g65235">
      <path
         transform="scale(0.0036,-0.0036)"
         d="m 215,137 c 57,0 111,-29 111,-92 0,-71 -54,-120 -101,-148 -35,-21 -74,-34 -114,-34 -57,0 -111,29 -111,92 0,71 54,120 101,148 35,21 74,34 114,34 z"
         fill="currentColor"
         id="path65233" />
    </g>
  </a>
  <g
     transform="translate(65.7122,7.694082)"
     id="g65241">
    <rect
       x="-0.062799998"
       y="-4.9499998"
       width="0.12549999"
       height="2.9886"
       ry="0.039999999"
       fill="currentColor"
       id="rect65239" />
  </g>
  <a
     style="color:inherit"
     xlink:href="textedit://C:/Users/Javier/Documents/lilypond%20scores/ricci%20left%20hand%20examples.ly:403:26:27"
     id="a65247"
     transform="translate(-5.6906,-113.07232)">
    <g
       transform="translate(70.293,118.9664)"
       id="g65245">
      <path
         transform="scale(0.0036,-0.0036)"
         d="m 215,137 c 57,0 111,-29 111,-92 0,-71 -54,-120 -101,-148 -35,-21 -74,-34 -114,-34 -57,0 -111,29 -111,92 0,71 54,120 101,148 35,21 74,34 114,34 z"
         fill="currentColor"
         id="path65243" />
    </g>
  </a>
  <g
     transform="translate(63.5896,7.694082)"
     id="g65251">
    <rect
       x="-0.062799998"
       y="-4.9499998"
       width="0.12549999"
       height="2.0885999"
       ry="0.039999999"
       fill="currentColor"
       id="rect65249" />
  </g>
  <g
     transform="translate(53.3995,7.694082)"
     id="g65255">
    <rect
       x="-0.062799998"
       y="-6.3000002"
       width="0.12549999"
       height="2.0885999"
       ry="0.039999999"
       fill="currentColor"
       id="rect65253" />
  </g>
  <a
     style="color:inherit"
     xlink:href="textedit://C:/Users/Javier/Documents/lilypond%20scores/ricci%20left%20hand%20examples.ly:404:8:9"
     id="a65261"
     transform="translate(-5.6906,-113.07232)">
    <g
       transform="translate(76.2335,116.0504)"
       id="g65259">
      <path
         transform="scale(0.002,-0.002)"
         d="M 129,129 H 259 C 259,77 291,29 340,29 350,29 354,21 354,14 354,7 350,0 340,0 291,0 243,14 194,14 145,14 98,0 49,0 39,0 34,7 34,14 c 0,7 5,15 15,15 49,0 80,48 80,100 z M 0,250 129,500 c 3,7 13,3 21,0 14,-6 28,-14 44,-14 16,0 31,8 45,14 2,1 2,1 4,1 8,0 16,-9 16,-21 V 129 H 129 v 215 c 0,15 -11,23 -20,23 -5,0 -9,-2 -11,-7 L 32,233 c -4,-7 -9,-9 -15,-9 -9,0 -19,7 -19,17 0,3 0,6 2,9 z"
         fill="currentColor"
         id="path65257" />
    </g>
  </a>
  <g
     transform="translate(71.5504,7.694082)"
     id="g65265">
    <rect
       x="-0.062799998"
       y="0.67769998"
       width="0.12549999"
       height="2.6222999"
       ry="0.039999999"
       fill="currentColor"
       id="rect65263" />
  </g>
  <g
     transform="translate(71.4249,7.694082)"
     id="g65269">
    <rect
       x="-0.062799998"
       y="-4.0500002"
       width="0.12549999"
       height="4.3386002"
       ry="0.039999999"
       fill="currentColor"
       id="rect65267" />
  </g>
  <a
     style="color:inherit"
     xlink:href="textedit://C:/Users/Javier/Documents/lilypond%20scores/ricci%20left%20hand%20examples.ly:408:21:22"
     id="a65275"
     transform="translate(-5.6906,-113.07232)">
    <g
       transform="translate(77.1782,121.2164)"
       id="g65273">
      <path
         transform="scale(0.0036,-0.0036)"
         d="m 312,64 c 0,24 -20,41 -41,41 -4,0 -8,-1 -12,-2 C 229,94 182,65 146,41 110,17 63,-13 43,-37 36,-45 33,-54 33,-64 c 0,-24 20,-41 41,-41 4,0 8,1 12,2 30,9 77,38 113,62 36,24 83,54 103,78 7,8 10,17 10,27 z m -53,73 c 48,0 86,-22 86,-74 0,-18 -4,-38 -10,-56 -12,-38 -30,-73 -63,-95 -53,-36 -113,-49 -186,-49 -48,0 -86,22 -86,74 0,18 4,38 10,56 12,38 31,73 64,95 53,36 112,49 185,49 z"
         fill="currentColor"
         id="path65271" />
    </g>
  </a>
  <g
     transform="translate(56.7221,7.694082)"
     id="g65279">
    <rect
       x="-0.062799998"
       y="-4.9373999"
       width="0.12549999"
       height="2.076"
       ry="0.039999999"
       fill="currentColor"
       id="rect65277" />
  </g>
  <a
     style="color:inherit"
     xlink:href="textedit://C:/Users/Javier/Documents/lilypond%20scores/ricci%20left%20hand%20examples.ly:403:10:11"
     id="a65285"
     transform="translate(-5.6906,-113.07232)">
    <g
       transform="translate(61.3029,118.0664)"
       id="g65283">
      <path
         transform="scale(0.0036,-0.0036)"
         d="m 215,137 c 57,0 111,-29 111,-92 0,-71 -54,-120 -101,-148 -35,-21 -74,-34 -114,-34 -57,0 -111,29 -111,92 0,71 54,120 101,148 35,21 74,34 114,34 z"
         fill="currentColor"
         id="path65281" />
    </g>
  </a>
  <g
     transform="translate(52.3525,7.694082)"
     id="g65289">
    <rect
       x="-0.062799998"
       y="0.67769998"
       width="0.12549999"
       height="2.6222999"
       ry="0.039999999"
       fill="currentColor"
       id="rect65287" />
  </g>
  <a
     style="color:inherit"
     xlink:href="textedit://C:/Users/Javier/Documents/lilypond%20scores/ricci%20left%20hand%20examples.ly:401:8:9"
     id="a65295"
     transform="translate(-5.6906,-113.07232)">
    <g
       transform="translate(17.0658,120.7664)"
       id="g65293">
      <path
         stroke-width="0.0773"
         stroke-linejoin="round"
         stroke-linecap="round"
         stroke="currentColor"
         fill="currentColor"
         d="M 1.4725,-0.4938 C 2.202,-2.0935 5.7118,-3.6882 7.3966,-3.1854 v 0 C 5.7598,-3.5827 2.25,-1.988 1.4725,-0.4938 Z"
         id="path65291" />
    </g>
  </a>
  <a
     style="color:inherit"
     xlink:href="textedit://C:/Users/Javier/Documents/lilypond%20scores/ricci%20left%20hand%20examples.ly:403:20:21"
     id="a65301"
     transform="translate(-5.6906,-113.07232)">
    <g
       transform="translate(65.7757,115.1504)"
       id="g65299">
      <path
         transform="scale(0.002,-0.002)"
         d="M 129,129 H 259 C 259,77 291,29 340,29 350,29 354,21 354,14 354,7 350,0 340,0 291,0 243,14 194,14 145,14 98,0 49,0 39,0 34,7 34,14 c 0,7 5,15 15,15 49,0 80,48 80,100 z M 0,250 129,500 c 3,7 13,3 21,0 14,-6 28,-14 44,-14 16,0 31,8 45,14 2,1 2,1 4,1 8,0 16,-9 16,-21 V 129 H 129 v 215 c 0,15 -11,23 -20,23 -5,0 -9,-2 -11,-7 L 32,233 c -4,-7 -9,-9 -15,-9 -9,0 -19,7 -19,17 0,3 0,6 2,9 z"
         fill="currentColor"
         id="path65297" />
    </g>
  </a>
  <g
     transform="translate(59.9201,7.694082)"
     id="g65305">
    <rect
       x="-0.062799998"
       y="0.67769998"
       width="0.12549999"
       height="2.6222999"
       ry="0.039999999"
       fill="currentColor"
       id="rect65303" />
  </g>
  <g
     transform="translate(60.9671,7.694082)"
     id="g65309">
    <rect
       x="-0.062799998"
       y="-4.9499998"
       width="0.12549999"
       height="3.8886001"
       ry="0.039999999"
       fill="currentColor"
       id="rect65307" />
  </g>
  <a
     style="color:inherit"
     xlink:href="textedit://C:/Users/Javier/Documents/lilypond%20scores/ricci%20left%20hand%20examples.ly:408:19:20"
     id="a65315"
     transform="translate(-5.6906,-113.07232)">
    <g
       transform="translate(65.5479,121.2164)"
       id="g65313">
      <path
         transform="scale(0.0036,-0.0036)"
         d="m 312,64 c 0,24 -20,41 -41,41 -4,0 -8,-1 -12,-2 C 229,94 182,65 146,41 110,17 63,-13 43,-37 36,-45 33,-54 33,-64 c 0,-24 20,-41 41,-41 4,0 8,1 12,2 30,9 77,38 113,62 36,24 83,54 103,78 7,8 10,17 10,27 z m -53,73 c 48,0 86,-22 86,-74 0,-18 -4,-38 -10,-56 -12,-38 -30,-73 -63,-95 -53,-36 -113,-49 -186,-49 -48,0 -86,22 -86,74 0,18 4,38 10,56 12,38 31,73 64,95 53,36 112,49 185,49 z"
         fill="currentColor"
         id="path65311" />
    </g>
  </a>
  <a
     style="color:inherit"
     xlink:href="textedit://C:/Users/Javier/Documents/lilypond%20scores/ricci%20left%20hand%20examples.ly:403:18:19"
     id="a65321"
     transform="translate(-5.6906,-113.07232)">
    <g
       transform="translate(65.5479,119.8664)"
       id="g65319">
      <path
         transform="scale(0.0036,-0.0036)"
         d="m 215,137 c 57,0 111,-29 111,-92 0,-71 -54,-120 -101,-148 -35,-21 -74,-34 -114,-34 -57,0 -111,29 -111,92 0,71 54,120 101,148 35,21 74,34 114,34 z"
         fill="currentColor"
         id="path65317" />
    </g>
  </a>
  <g
     transform="translate(58.8446,7.694082)"
     id="g65325">
    <rect
       x="-0.062799998"
       y="-4.5125999"
       width="0.12549999"
       height="2.5511"
       ry="0.039999999"
       fill="currentColor"
       id="rect65323" />
  </g>
  <a
     style="color:inherit"
     xlink:href="textedit://C:/Users/Javier/Documents/lilypond%20scores/ricci%20left%20hand%20examples.ly:403:13:14"
     id="a65331"
     transform="translate(-5.6906,-113.07232)">
    <g
       transform="translate(63.4254,118.9664)"
       id="g65329">
      <path
         transform="scale(0.0036,-0.0036)"
         d="m 215,137 c 57,0 111,-29 111,-92 0,-71 -54,-120 -101,-148 -35,-21 -74,-34 -114,-34 -57,0 -111,29 -111,92 0,71 54,120 101,148 35,21 74,34 114,34 z"
         fill="currentColor"
         id="path65327" />
    </g>
  </a>
  <a
     style="color:inherit"
     xlink:href="textedit://C:/Users/Javier/Documents/lilypond%20scores/ricci%20left%20hand%20examples.ly:411:7:8"
     id="a65337"
     transform="translate(-5.6906,-113.07232)">
    <g
       transform="translate(96.979,123.0164)"
       id="g65335">
      <path
         transform="scale(0.0036,-0.0036)"
         d="m 211,111 c -49,0 -68,-43 -68,-88 0,-75 57,-134 132,-134 49,0 68,43 68,88 0,75 -57,134 -132,134 z M 486,0 c 0,-43 -33,-76 -71,-97 -52,-29 -112,-40 -172,-40 -60,0 -120,11 -172,40 -38,21 -71,54 -71,97 0,43 33,76 71,97 52,29 112,40 172,40 60,0 120,-11 172,-40 38,-21 71,-54 71,-97 z"
         fill="currentColor"
         id="path65333" />
    </g>
  </a>
  <a
     style="color:inherit"
     xlink:href="textedit://C:/Users/Javier/Documents/lilypond%20scores/ricci%20left%20hand%20examples.ly:411:5:6"
     id="a65343"
     transform="translate(-5.6906,-113.07232)">
    <g
       transform="translate(96.979,121.2164)"
       id="g65341">
      <path
         transform="scale(0.0036,-0.0036)"
         d="m 211,111 c -49,0 -68,-43 -68,-88 0,-75 57,-134 132,-134 49,0 68,43 68,88 0,75 -57,134 -132,134 z M 486,0 c 0,-43 -33,-76 -71,-97 -52,-29 -112,-40 -172,-40 -60,0 -120,11 -172,40 -38,21 -71,54 -71,97 0,43 33,76 71,97 52,29 112,40 172,40 60,0 120,-11 172,-40 38,-21 71,-54 71,-97 z"
         fill="currentColor"
         id="path65339" />
    </g>
  </a>
  <g
     transform="translate(87.705,7.694082)"
     id="g65347">
    <rect
       x="-0.062799998"
       y="-3.1500001"
       width="0.12549999"
       height="4.3386002"
       ry="0.039999999"
       fill="currentColor"
       id="rect65345" />
  </g>
  <a
     style="color:inherit"
     xlink:href="textedit://C:/Users/Javier/Documents/lilypond%20scores/ricci%20left%20hand%20examples.ly:404:45:46"
     id="a65353"
     transform="translate(-5.6906,-113.07232)">
    <g
       transform="translate(92.5136,116.2841)"
       id="g65351">
      <path
         transform="scale(0.002,-0.002)"
         d="M 129,129 H 259 C 259,77 291,29 340,29 350,29 354,21 354,14 354,7 350,0 340,0 291,0 243,14 194,14 145,14 98,0 49,0 39,0 34,7 34,14 c 0,7 5,15 15,15 49,0 80,48 80,100 z M 0,250 129,500 c 3,7 13,3 21,0 14,-6 28,-14 44,-14 16,0 31,8 45,14 2,1 2,1 4,1 8,0 16,-9 16,-21 V 129 H 129 v 215 c 0,15 -11,23 -20,23 -5,0 -9,-2 -11,-7 L 32,233 c -4,-7 -9,-9 -15,-9 -9,0 -19,7 -19,17 0,3 0,6 2,9 z"
         fill="currentColor"
         id="path65349" />
    </g>
  </a>
  <a
     style="color:inherit"
     xlink:href="textedit://C:/Users/Javier/Documents/lilypond%20scores/ricci%20left%20hand%20examples.ly:404:41:42"
     id="a65359"
     transform="translate(-5.6906,-113.07232)">
    <g
       transform="translate(92.2858,122.1164)"
       id="g65357">
      <path
         transform="scale(0.0036,-0.0036)"
         d="m 215,137 c 57,0 111,-29 111,-92 0,-71 -54,-120 -101,-148 -35,-21 -74,-34 -114,-34 -57,0 -111,29 -111,92 0,71 54,120 101,148 35,21 74,34 114,34 z"
         fill="currentColor"
         id="path65355" />
    </g>
  </a>
  <g
     transform="translate(85.5825,7.694082)"
     id="g65363">
    <rect
       x="-0.062799998"
       y="-3.1500001"
       width="0.12549999"
       height="3.4386001"
       ry="0.039999999"
       fill="currentColor"
       id="rect65361" />
  </g>
  <a
     style="color:inherit"
     xlink:href="textedit://C:/Users/Javier/Documents/lilypond%20scores/ricci%20left%20hand%20examples.ly:404:38:39"
     id="a65369"
     transform="translate(-5.6906,-113.07232)">
    <g
       transform="translate(90.374,115.9146)"
       id="g65367">
      <path
         transform="scale(0.002,-0.002)"
         d="m 129,149 h 7 c 36,0 74,-13 111,-40 19,-14 40,-21 59,-21 22,0 40,10 46,31 2,7 7,11 13,11 7,0 15,-5 15,-14 v -5 C 361,40 296,0 234,0 196,0 159,15 133,47 121,62 105,69 89,69 60,69 32,48 29,13 28,4 22,0 15,0 8,0 0,5 0,14 c 0,173 233,163 233,341 0,56 -14,116 -62,116 -33,0 -66,-15 -66,-44 0,-24 31,-37 31,-61 0,-34 -27,-61 -61,-61 -34,0 -61,27 -61,61 0,78 74,134 157,134 98,0 191,-55 191,-145 C 362,211 227,199 129,149 Z"
         fill="currentColor"
         id="path65365" />
    </g>
  </a>
  <g
     transform="translate(60.9043,2.744082)"
     id="g65373">
    <polygon
       stroke-linejoin="round"
       stroke-linecap="round"
       stroke-width="0.08"
       fill="currentColor"
       stroke="currentColor"
       points="6.9531,-0.176 6.9531,0.176 0.04,0.176 0.04,-0.176 "
       id="polygon65371" />
  </g>
  <a
     style="color:inherit"
     xlink:href="textedit://C:/Users/Javier/Documents/lilypond%20scores/ricci%20left%20hand%20examples.ly:401:23:24"
     id="a65379"
     transform="translate(-5.6906,-113.07232)">
    <g
       transform="translate(26.1334,120.7664)"
       id="g65377">
      <path
         stroke-width="0.0773"
         stroke-linejoin="round"
         stroke-linecap="round"
         stroke="currentColor"
         fill="currentColor"
         d="m 1.1098,-3.816 c 1.4315,-1.2202 5.936,-1.2202 7.3675,0 v 0 c -1.4315,-1.1043 -5.936,-1.1043 -7.3675,0 z"
         id="path65375" />
    </g>
  </a>
  <g
     transform="translate(16.2447,5.726282)"
     id="g65383">
    <polygon
       stroke-linejoin="round"
       stroke-linecap="round"
       stroke-width="0.08"
       fill="currentColor"
       stroke="currentColor"
       points="2.7081,-0.7406 2.7081,-0.3886 0.04,0.176 0.04,-0.176 "
       id="polygon65381" />
  </g>
  <g
     transform="translate(21.4897,4.544082)"
     id="g65387">
    <polygon
       stroke-linejoin="round"
       stroke-linecap="round"
       stroke-width="0.08"
       fill="currentColor"
       stroke="currentColor"
       points="7.4531,-0.176 7.4531,0.176 0.04,0.176 0.04,-0.176 "
       id="polygon65385" />
  </g>
  <a
     style="color:inherit"
     xlink:href="textedit://C:/Users/Javier/Documents/lilypond%20scores/ricci%20left%20hand%20examples.ly:402:9:10"
     id="a65393"
     transform="translate(-5.6906,-113.07232)">
    <g
       transform="translate(37.0911,120.7664)"
       id="g65391">
      <path
         stroke-width="0.0773"
         stroke-linejoin="round"
         stroke-linecap="round"
         stroke="currentColor"
         fill="currentColor"
         d="m 1.1098,-4.716 c 1.4315,-1.2202 5.936,-1.2202 7.3675,0 v 0 c -1.4315,-1.1043 -5.936,-1.1043 -7.3675,0 z"
         id="path65389" />
    </g>
  </a>
  <a
     style="color:inherit"
     xlink:href="textedit://C:/Users/Javier/Documents/lilypond%20scores/ricci%20left%20hand%20examples.ly:402:26:27"
     id="a65399"
     transform="translate(-5.6906,-113.07232)">
    <g
       transform="translate(47.0812,120.7664)"
       id="g65397">
      <path
         stroke-width="0.0773"
         stroke-linejoin="round"
         stroke-linecap="round"
         stroke="currentColor"
         fill="currentColor"
         d="m 1.1098,-5.616 c 1.4315,-1.2202 5.936,-1.2202 7.3675,0 v 0 c -1.4315,-1.1043 -5.936,-1.1043 -7.3675,0 z"
         id="path65395" />
    </g>
  </a>
  <g
     transform="translate(32.4475,3.644082)"
     id="g65403">
    <polygon
       stroke-linejoin="round"
       stroke-linecap="round"
       stroke-width="0.08"
       fill="currentColor"
       stroke="currentColor"
       points="7.4531,-0.176 7.4531,0.176 0.04,0.176 0.04,-0.176 "
       id="polygon65401" />
  </g>
  <g
     transform="translate(42.4376,2.744082)"
     id="g65407">
    <polygon
       stroke-linejoin="round"
       stroke-linecap="round"
       stroke-width="0.08"
       fill="currentColor"
       stroke="currentColor"
       points="7.4531,-0.176 7.4531,0.176 0.04,0.176 0.04,-0.176 "
       id="polygon65405" />
  </g>
  <a
     style="color:inherit"
     xlink:href="textedit://C:/Users/Javier/Documents/lilypond%20scores/ricci%20left%20hand%20examples.ly:403:8:9"
     id="a65413"
     transform="translate(-5.6906,-113.07232)">
    <g
       transform="translate(57.9804,120.7664)"
       id="g65411">
      <path
         stroke-width="0.0773"
         stroke-linejoin="round"
         stroke-linecap="round"
         stroke="currentColor"
         fill="currentColor"
         d="m 1.4725,-5.4438 c 1.182,-0.96 4.0265,-0.8121 5.1027,0.2652 v 0 C 5.493,-6.1402 2.6485,-6.288 1.4725,-5.4438 Z"
         id="path65409" />
    </g>
  </a>
  <a
     style="color:inherit"
     xlink:href="textedit://C:/Users/Javier/Documents/lilypond%20scores/ricci%20left%20hand%20examples.ly:403:19:20"
     id="a65419"
     transform="translate(-5.6906,-113.07232)">
    <g
       transform="translate(65.5479,120.7664)"
       id="g65417">
      <path
         stroke-width="0.0773"
         stroke-linejoin="round"
         stroke-linecap="round"
         stroke="currentColor"
         fill="currentColor"
         d="m 1.1098,-5.616 c 1.3714,-1.1835 5.4961,-1.1835 6.8675,0 v 0 c -1.3714,-1.0676 -5.4961,-1.0676 -6.8675,0 z"
         id="path65415" />
    </g>
  </a>
  <g
     transform="translate(56.6593,2.744082)"
     id="g65423">
    <polygon
       stroke-linejoin="round"
       stroke-linecap="round"
       stroke-width="0.08"
       fill="currentColor"
       stroke="currentColor"
       points="2.2081,0.274 2.2081,0.626 0.04,0.176 0.04,-0.176 "
       id="polygon65421" />
  </g>
  <a
     style="color:inherit"
     xlink:href="textedit://C:/Users/Javier/Documents/lilypond%20scores/ricci%20left%20hand%20examples.ly:404:37:38"
     id="a65429"
     transform="translate(-5.6906,-113.07232)">
    <g
       transform="translate(90.1633,121.2164)"
       id="g65427">
      <path
         transform="scale(0.0036,-0.0036)"
         d="m 215,137 c 57,0 111,-29 111,-92 0,-71 -54,-120 -101,-148 -35,-21 -74,-34 -114,-34 -57,0 -111,29 -111,92 0,71 54,120 101,148 35,21 74,34 114,34 z"
         fill="currentColor"
         id="path65425" />
    </g>
  </a>
  <a
     style="color:inherit"
     xlink:href="textedit://C:/Users/Javier/Documents/lilypond%20scores/ricci%20left%20hand%20examples.ly:404:7:8"
     id="a65435"
     transform="translate(-5.6906,-113.07232)">
    <g
       transform="translate(76.0057,120.7664)"
       id="g65433">
      <path
         stroke-width="0.0773"
         stroke-linejoin="round"
         stroke-linecap="round"
         stroke="currentColor"
         fill="currentColor"
         d="m 1.1098,-4.716 c 1.3714,-1.1835 5.4961,-1.1835 6.8675,0 v 0 c -1.3714,-1.0676 -5.4961,-1.0676 -6.8675,0 z"
         id="path65431" />
    </g>
  </a>
  <a
     style="color:inherit"
     xlink:href="textedit://C:/Users/Javier/Documents/lilypond%20scores/ricci%20left%20hand%20examples.ly:404:26:27"
     id="a65441"
     transform="translate(-5.6906,-113.07232)">
    <g
       transform="translate(85.4183,120.7664)"
       id="g65439">
      <path
         stroke-width="0.0773"
         stroke-linejoin="round"
         stroke-linecap="round"
         stroke="currentColor"
         fill="currentColor"
         d="m 1.1098,-3.816 c 1.3714,-1.1835 5.4961,-1.1835 6.8675,0 v 0 c -1.3714,-1.0676 -5.4961,-1.0676 -6.8675,0 z"
         id="path65437" />
    </g>
  </a>
  <g
     transform="translate(71.3621,3.644082)"
     id="g65445">
    <polygon
       stroke-linejoin="round"
       stroke-linecap="round"
       stroke-width="0.08"
       fill="currentColor"
       stroke="currentColor"
       points="6.9531,-0.176 6.9531,0.176 0.04,0.176 0.04,-0.176 "
       id="polygon65443" />
  </g>
  <g
     transform="translate(80.7747,4.544082)"
     id="g65449">
    <polygon
       stroke-linejoin="round"
       stroke-linecap="round"
       stroke-width="0.08"
       fill="currentColor"
       stroke="currentColor"
       points="6.9531,-0.176 6.9531,0.176 0.04,0.176 0.04,-0.176 "
       id="polygon65447" />
  </g>
  <a
     style="color:inherit"
     xlink:href="textedit://C:/Users/Javier/Documents/lilypond%20scores/ricci%20left%20hand%20examples.ly:408:23:24"
     id="a65455"
     transform="translate(-5.6906,-113.07232)">
    <g
       transform="translate(84.9958,121.2164)"
       id="g65453">
      <path
         transform="scale(0.0036,-0.0036)"
         d="m 312,64 c 0,24 -20,41 -41,41 -4,0 -8,-1 -12,-2 C 229,94 182,65 146,41 110,17 63,-13 43,-37 36,-45 33,-54 33,-64 c 0,-24 20,-41 41,-41 4,0 8,1 12,2 30,9 77,38 113,62 36,24 83,54 103,78 7,8 10,17 10,27 z m -53,73 c 48,0 86,-22 86,-74 0,-18 -4,-38 -10,-56 -12,-38 -30,-73 -63,-95 -53,-36 -113,-49 -186,-49 -48,0 -86,22 -86,74 0,18 4,38 10,56 12,38 31,73 64,95 53,36 112,49 185,49 z"
         fill="currentColor"
         id="path65451" />
    </g>
  </a>
  <a
     style="color:inherit"
     xlink:href="textedit://C:/Users/Javier/Documents/lilypond%20scores/ricci%20left%20hand%20examples.ly:404:27:28"
     id="a65461"
     transform="translate(-5.6906,-113.07232)">
    <g
       transform="translate(85.646,116.9504)"
       id="g65459">
      <path
         transform="scale(0.002,-0.002)"
         d="M 129,129 H 259 C 259,77 291,29 340,29 350,29 354,21 354,14 354,7 350,0 340,0 291,0 243,14 194,14 145,14 98,0 49,0 39,0 34,7 34,14 c 0,7 5,15 15,15 49,0 80,48 80,100 z M 0,250 129,500 c 3,7 13,3 21,0 14,-6 28,-14 44,-14 16,0 31,8 45,14 2,1 2,1 4,1 8,0 16,-9 16,-21 V 129 H 129 v 215 c 0,15 -11,23 -20,23 -5,0 -9,-2 -11,-7 L 32,233 c -4,-7 -9,-9 -15,-9 -9,0 -19,7 -19,17 0,3 0,6 2,9 z"
         fill="currentColor"
         id="path65457" />
    </g>
  </a>
  <a
     style="color:inherit"
     xlink:href="textedit://C:/Users/Javier/Documents/lilypond%20scores/ricci%20left%20hand%20examples.ly:404:23:24"
     id="a65467"
     transform="translate(-5.6906,-113.07232)">
    <g
       transform="translate(85.4183,122.1164)"
       id="g65465">
      <path
         transform="scale(0.0036,-0.0036)"
         d="m 215,137 c 57,0 111,-29 111,-92 0,-71 -54,-120 -101,-148 -35,-21 -74,-34 -114,-34 -57,0 -111,29 -111,92 0,71 54,120 101,148 35,21 74,34 114,34 z"
         fill="currentColor"
         id="path65463" />
    </g>
  </a>
  <g
     transform="translate(78.2924,7.694082)"
     id="g65471">
    <rect
       x="-0.062799998"
       y="-4.0500002"
       width="0.12549999"
       height="4.3386002"
       ry="0.039999999"
       fill="currentColor"
       id="rect65469" />
  </g>
  <a
     style="color:inherit"
     xlink:href="textedit://C:/Users/Javier/Documents/lilypond%20scores/ricci%20left%20hand%20examples.ly:404:20:21"
     id="a65477"
     transform="translate(-5.6906,-113.07232)">
    <g
       transform="translate(83.1181,115.3901)"
       id="g65475">
      <path
         transform="scale(0.002,-0.002)"
         d="m 155,471 c -34,0 -70,-8 -70,-38 0,-19 31,-23 31,-42 0,-28 -23,-51 -51,-51 -28,0 -51,23 -51,51 0,67 68,109 141,109 93,0 174,-31 174,-113 0,-41 -6,-77 -42,-94 -11,-5 -17,-16 -17,-27 0,-11 6,-22 17,-27 40,-19 59,-53 59,-98 C 346,47 263,0 160,0 78,0 0,45 0,119 c 0,32 26,58 58,58 32,0 58,-26 58,-58 0,-22 -36,-26 -36,-48 0,-33 42,-42 80,-42 46,0 56,58 56,112 v 38 c 0,40 -4,69 -43,69 H 99 c -12,0 -18,9 -18,18 0,9 6,18 18,18 h 74 c 40,0 43,31 43,73 v 30 c 0,50 -16,84 -61,84 z"
         fill="currentColor"
         id="path65473" />
    </g>
  </a>
  <a
     style="color:inherit"
     xlink:href="textedit://C:/Users/Javier/Documents/lilypond%20scores/ricci%20left%20hand%20examples.ly:404:18:19"
     id="a65483"
     transform="translate(-5.6906,-113.07232)">
    <g
       transform="translate(82.8733,121.2164)"
       id="g65481">
      <path
         transform="scale(0.0036,-0.0036)"
         d="m 215,137 c 57,0 111,-29 111,-92 0,-71 -54,-120 -101,-148 -35,-21 -74,-34 -114,-34 -57,0 -111,29 -111,92 0,71 54,120 101,148 35,21 74,34 114,34 z"
         fill="currentColor"
         id="path65479" />
    </g>
  </a>
  <g
     transform="translate(80.8374,7.694082)"
     id="g65487">
    <rect
       x="-0.062799998"
       y="-3.1500001"
       width="0.12549999"
       height="4.3386002"
       ry="0.039999999"
       fill="currentColor"
       id="rect65485" />
  </g>
  <g
     transform="translate(76.1699,7.694082)"
     id="g65491">
    <rect
       x="-0.062799998"
       y="-4.0500002"
       width="0.12549999"
       height="2.9886"
       ry="0.039999999"
       fill="currentColor"
       id="rect65489" />
  </g>
  <a
     style="color:inherit"
     xlink:href="textedit://C:/Users/Javier/Documents/lilypond%20scores/ricci%20left%20hand%20examples.ly:404:16:17"
     id="a65497"
     transform="translate(-5.6906,-113.07232)">
    <g
       transform="translate(80.7508,119.8664)"
       id="g65495">
      <path
         transform="scale(0.0036,-0.0036)"
         d="m 215,137 c 57,0 111,-29 111,-92 0,-71 -54,-120 -101,-148 -35,-21 -74,-34 -114,-34 -57,0 -111,29 -111,92 0,71 54,120 101,148 35,21 74,34 114,34 z"
         fill="currentColor"
         id="path65493" />
    </g>
  </a>
  <g
     transform="translate(74.0474,7.694082)"
     id="g65501">
    <rect
       x="-0.062799998"
       y="-4.0500002"
       width="0.12549999"
       height="2.0885999"
       ry="0.039999999"
       fill="currentColor"
       id="rect65499" />
  </g>
  <a
     style="color:inherit"
     xlink:href="textedit://C:/Users/Javier/Documents/lilypond%20scores/ricci%20left%20hand%20examples.ly:404:34:35"
     id="a65507"
     transform="translate(-5.6906,-113.07232)">
    <g
       transform="translate(88.2003,114.4784)"
       id="g65505">
      <path
         transform="scale(0.002,-0.002)"
         d="m 198,284 c 24,15 48,29 65,52 12,16 19,34 28,52 2,5 6,7 11,7 8,0 16,-6 16,-17 V 161 h 79 c 12,0 18,-9 18,-18 0,-9 -6,-18 -18,-18 h -79 c 2,-51 33,-96 80,-96 10,0 15,-8 15,-15 C 413,7 408,0 398,0 349,0 302,14 253,14 204,14 156,0 107,0 97,0 93,7 93,14 c 0,7 4,15 14,15 47,0 79,45 81,96 H 36 c -29,0 -38,17 -38,28 0,3 1,6 2,8 78,88 123,201 123,319 0,11 8,21 17,21 1,0 3,-1 4,-1 25,-7 50,-14 76,-14 26,0 52,7 77,14 2,1 4,1 6,1 10,0 17,-7 17,-14 0,-2 0,-5 -2,-7 L 36,161 h 152 v 96 c 0,10 1,21 10,27 z"
         fill="currentColor"
         id="path65503" />
    </g>
  </a>
  <g
     transform="translate(83.46,7.694082)"
     id="g65511">
    <rect
       x="-0.062799998"
       y="-3.1500001"
       width="0.12549999"
       height="2.0885999"
       ry="0.039999999"
       fill="currentColor"
       id="rect65509" />
  </g>
  <a
     style="color:inherit"
     xlink:href="textedit://C:/Users/Javier/Documents/lilypond%20scores/ricci%20left%20hand%20examples.ly:404:32:33"
     id="a65517"
     transform="translate(-5.6906,-113.07232)">
    <g
       transform="translate(88.2515,115.9527)"
       id="g65515">
      <path
         transform="scale(0.002,-0.002)"
         d="m 190,464 c -54,0 -61,-71 -61,-141 v -73 -73 c 0,-70 7,-141 61,-141 54,0 62,71 62,141 0,26 -1,51 -1,73 0,22 1,47 1,73 0,70 -8,141 -62,141 z m 0,36 C 308,500 380,378 380,250 380,122 308,0 190,0 72,0 0,122 0,250 0,378 72,500 190,500 Z"
         fill="currentColor"
         id="path65513" />
    </g>
  </a>
  <a
     style="color:inherit"
     xlink:href="textedit://C:/Users/Javier/Documents/lilypond%20scores/ricci%20left%20hand%20examples.ly:404:11:12"
     id="a65523"
     transform="translate(-5.6906,-113.07232)">
    <g
       transform="translate(78.6282,118.9664)"
       id="g65521">
      <path
         transform="scale(0.0036,-0.0036)"
         d="m 215,137 c 57,0 111,-29 111,-92 0,-71 -54,-120 -101,-148 -35,-21 -74,-34 -114,-34 -57,0 -111,29 -111,92 0,71 54,120 101,148 35,21 74,34 114,34 z"
         fill="currentColor"
         id="path65519" />
    </g>
  </a>
  <a
     style="color:inherit"
     xlink:href="textedit://C:/Users/Javier/Documents/lilypond%20scores/ricci%20left%20hand%20examples.ly:404:30:31"
     id="a65529"
     transform="translate(-5.6906,-113.07232)">
    <g
       transform="translate(88.0408,119.8664)"
       id="g65527">
      <path
         transform="scale(0.0036,-0.0036)"
         d="m 215,137 c 57,0 111,-29 111,-92 0,-71 -54,-120 -101,-148 -35,-21 -74,-34 -114,-34 -57,0 -111,29 -111,92 0,71 54,120 101,148 35,21 74,34 114,34 z"
         fill="currentColor"
         id="path65525" />
    </g>
  </a>
  <g
     transform="translate(79.368,7.694082)"
     id="g65533">
    <rect
       x="-0.062799998"
       y="0.67769998"
       width="0.12549999"
       height="2.6222999"
       ry="0.039999999"
       fill="currentColor"
       id="rect65531" />
  </g>
  <a
     style="color:inherit"
     xlink:href="textedit://C:/Users/Javier/Documents/lilypond%20scores/ricci%20left%20hand%20examples.ly:401:32:33"
     id="a65539"
     transform="translate(-5.6906,-113.07232)">
    <g
       transform="translate(30.8784,121.2164)"
       id="g65537">
      <path
         transform="scale(0.0036,-0.0036)"
         d="m 215,137 c 57,0 111,-29 111,-92 0,-71 -54,-120 -101,-148 -35,-21 -74,-34 -114,-34 -57,0 -111,29 -111,92 0,71 54,120 101,148 35,21 74,34 114,34 z"
         fill="currentColor"
         id="path65535" />
    </g>
  </a>
  <g
     transform="translate(23.675,7.694082)"
     id="g65543">
    <rect
       x="-0.062799998"
       y="-3.1500001"
       width="0.12549999"
       height="4.3386002"
       ry="0.039999999"
       fill="currentColor"
       id="rect65541" />
  </g>
  <a
     style="color:inherit"
     xlink:href="textedit://C:/Users/Javier/Documents/lilypond%20scores/ricci%20left%20hand%20examples.ly:401:27:28"
     id="a65549"
     transform="translate(-5.6906,-113.07232)">
    <g
       transform="translate(28.2559,122.1164)"
       id="g65547">
      <path
         transform="scale(0.0036,-0.0036)"
         d="m 215,137 c 57,0 111,-29 111,-92 0,-71 -54,-120 -101,-148 -35,-21 -74,-34 -114,-34 -57,0 -111,29 -111,92 0,71 54,120 101,148 35,21 74,34 114,34 z"
         fill="currentColor"
         id="path65545" />
    </g>
  </a>
  <a
     style="color:inherit"
     xlink:href="textedit://C:/Users/Javier/Documents/lilypond%20scores/ricci%20left%20hand%20examples.ly:401:33:34"
     id="a65555"
     transform="translate(-5.6906,-113.07232)">
    <g
       transform="translate(31.1062,115.8801)"
       id="g65553">
      <path
         transform="scale(0.002,-0.002)"
         d="M 129,129 H 259 C 259,77 291,29 340,29 350,29 354,21 354,14 354,7 350,0 340,0 291,0 243,14 194,14 145,14 98,0 49,0 39,0 34,7 34,14 c 0,7 5,15 15,15 49,0 80,48 80,100 z M 0,250 129,500 c 3,7 13,3 21,0 14,-6 28,-14 44,-14 16,0 31,8 45,14 2,1 2,1 4,1 8,0 16,-9 16,-21 V 129 H 129 v 215 c 0,15 -11,23 -20,23 -5,0 -9,-2 -11,-7 L 32,233 c -4,-7 -9,-9 -15,-9 -9,0 -19,7 -19,17 0,3 0,6 2,9 z"
         fill="currentColor"
         id="path65551" />
    </g>
  </a>
  <g
     transform="translate(20.5055,7.694082)"
     id="g65559">
    <rect
       x="-0.062799998"
       y="0.67769998"
       width="0.12549999"
       height="2.6222999"
       ry="0.039999999"
       fill="currentColor"
       id="rect65557" />
  </g>
  <g
     transform="translate(21.5525,7.694082)"
     id="g65563">
    <rect
       x="-0.062799998"
       y="-3.1500001"
       width="0.12549999"
       height="2.0885999"
       ry="0.039999999"
       fill="currentColor"
       id="rect65561" />
  </g>
  <a
     style="color:inherit"
     xlink:href="textedit://C:/Users/Javier/Documents/lilypond%20scores/ricci%20left%20hand%20examples.ly:408:11:12"
     id="a65569"
     transform="translate(-5.6906,-113.07232)">
    <g
       transform="translate(26.1334,121.2164)"
       id="g65567">
      <path
         transform="scale(0.0036,-0.0036)"
         d="m 312,64 c 0,24 -20,41 -41,41 -4,0 -8,-1 -12,-2 C 229,94 182,65 146,41 110,17 63,-13 43,-37 36,-45 33,-54 33,-64 c 0,-24 20,-41 41,-41 4,0 8,1 12,2 30,9 77,38 113,62 36,24 83,54 103,78 7,8 10,17 10,27 z m -53,73 c 48,0 86,-22 86,-74 0,-18 -4,-38 -10,-56 -12,-38 -30,-73 -63,-95 -53,-36 -113,-49 -186,-49 -48,0 -86,22 -86,74 0,18 4,38 10,56 12,38 31,73 64,95 53,36 112,49 185,49 z"
         fill="currentColor"
         id="path65565" />
    </g>
  </a>
  <a
     style="color:inherit"
     xlink:href="textedit://C:/Users/Javier/Documents/lilypond%20scores/ricci%20left%20hand%20examples.ly:401:24:25"
     id="a65575"
     transform="translate(-5.6906,-113.07232)">
    <g
       transform="translate(26.2928,116.9504)"
       id="g65573">
      <path
         transform="scale(0.002,-0.002)"
         d="m 198,284 c 24,15 48,29 65,52 12,16 19,34 28,52 2,5 6,7 11,7 8,0 16,-6 16,-17 V 161 h 79 c 12,0 18,-9 18,-18 0,-9 -6,-18 -18,-18 h -79 c 2,-51 33,-96 80,-96 10,0 15,-8 15,-15 C 413,7 408,0 398,0 349,0 302,14 253,14 204,14 156,0 107,0 97,0 93,7 93,14 c 0,7 4,15 14,15 47,0 79,45 81,96 H 36 c -29,0 -38,17 -38,28 0,3 1,6 2,8 78,88 123,201 123,319 0,11 8,21 17,21 1,0 3,-1 4,-1 25,-7 50,-14 76,-14 26,0 52,7 77,14 2,1 4,1 6,1 10,0 17,-7 17,-14 0,-2 0,-5 -2,-7 L 36,161 h 152 v 96 c 0,10 1,21 10,27 z"
         fill="currentColor"
         id="path65571" />
    </g>
  </a>
  <g
     transform="translate(31.4633,7.694082)"
     id="g65579">
    <rect
       x="-0.062799998"
       y="0.67769998"
       width="0.12549999"
       height="2.6222999"
       ry="0.039999999"
       fill="currentColor"
       id="rect65577" />
  </g>
  <g
     transform="translate(32.5103,7.694082)"
     id="g65583">
    <rect
       x="-0.062799998"
       y="-4.0500002"
       width="0.12549999"
       height="2.0885999"
       ry="0.039999999"
       fill="currentColor"
       id="rect65581" />
  </g>
  <a
     style="color:inherit"
     xlink:href="textedit://C:/Users/Javier/Documents/lilypond%20scores/ricci%20left%20hand%20examples.ly:408:13:14"
     id="a65589"
     transform="translate(-5.6906,-113.07232)">
    <g
       transform="translate(37.0911,121.2164)"
       id="g65587">
      <path
         transform="scale(0.0036,-0.0036)"
         d="m 312,64 c 0,24 -20,41 -41,41 -4,0 -8,-1 -12,-2 C 229,94 182,65 146,41 110,17 63,-13 43,-37 36,-45 33,-54 33,-64 c 0,-24 20,-41 41,-41 4,0 8,1 12,2 30,9 77,38 113,62 36,24 83,54 103,78 7,8 10,17 10,27 z m -53,73 c 48,0 86,-22 86,-74 0,-18 -4,-38 -10,-56 -12,-38 -30,-73 -63,-95 -53,-36 -113,-49 -186,-49 -48,0 -86,22 -86,74 0,18 4,38 10,56 12,38 31,73 64,95 53,36 112,49 185,49 z"
         fill="currentColor"
         id="path65585" />
    </g>
  </a>
  <a
     style="color:inherit"
     xlink:href="textedit://C:/Users/Javier/Documents/lilypond%20scores/ricci%20left%20hand%20examples.ly:408:17:18"
     id="a65595"
     transform="translate(-5.6906,-113.07232)">
    <g
       transform="translate(57.9804,121.2164)"
       id="g65593">
      <path
         transform="scale(0.0036,-0.0036)"
         d="m 312,64 c 0,24 -20,41 -41,41 -4,0 -8,-1 -12,-2 C 229,94 182,65 146,41 110,17 63,-13 43,-37 36,-45 33,-54 33,-64 c 0,-24 20,-41 41,-41 4,0 8,1 12,2 30,9 77,38 113,62 36,24 83,54 103,78 7,8 10,17 10,27 z m -53,73 c 48,0 86,-22 86,-74 0,-18 -4,-38 -10,-56 -12,-38 -30,-73 -63,-95 -53,-36 -113,-49 -186,-49 -48,0 -86,22 -86,74 0,18 4,38 10,56 12,38 31,73 64,95 53,36 112,49 185,49 z"
         fill="currentColor"
         id="path65591" />
    </g>
  </a>
  <a
     style="color:inherit"
     xlink:href="textedit://C:/Users/Javier/Documents/lilypond%20scores/ricci%20left%20hand%20examples.ly:401:22:23"
     id="a65601"
     transform="translate(-5.6906,-113.07232)">
    <g
       transform="translate(26.1334,119.8664)"
       id="g65599">
      <path
         transform="scale(0.0036,-0.0036)"
         d="m 215,137 c 57,0 111,-29 111,-92 0,-71 -54,-120 -101,-148 -35,-21 -74,-34 -114,-34 -57,0 -111,29 -111,92 0,71 54,120 101,148 35,21 74,34 114,34 z"
         fill="currentColor"
         id="path65597" />
    </g>
  </a>
  <g
     transform="translate(28.9201,7.694082)"
     id="g65605">
    <rect
       x="-0.062799998"
       y="-3.1500001"
       width="0.12549999"
       height="2.0885999"
       ry="0.039999999"
       fill="currentColor"
       id="rect65603" />
  </g>
  <a
     style="color:inherit"
     xlink:href="textedit://C:/Users/Javier/Documents/lilypond%20scores/ricci%20left%20hand%20examples.ly:401:37:38"
     id="a65611"
     transform="translate(-5.6906,-113.07232)">
    <g
       transform="translate(33.7458,116.2934)"
       id="g65609">
      <path
         transform="scale(0.002,-0.002)"
         d="m 155,471 c -34,0 -70,-8 -70,-38 0,-19 31,-23 31,-42 0,-28 -23,-51 -51,-51 -28,0 -51,23 -51,51 0,67 68,109 141,109 93,0 174,-31 174,-113 0,-41 -6,-77 -42,-94 -11,-5 -17,-16 -17,-27 0,-11 6,-22 17,-27 40,-19 59,-53 59,-98 C 346,47 263,0 160,0 78,0 0,45 0,119 c 0,32 26,58 58,58 32,0 58,-26 58,-58 0,-22 -36,-26 -36,-48 0,-33 42,-42 80,-42 46,0 56,58 56,112 v 38 c 0,40 -4,69 -43,69 H 99 c -12,0 -18,9 -18,18 0,9 6,18 18,18 h 74 c 40,0 43,31 43,73 v 30 c 0,50 -16,84 -61,84 z"
         fill="currentColor"
         id="path65607" />
    </g>
  </a>
  <a
     style="color:inherit"
     xlink:href="textedit://C:/Users/Javier/Documents/lilypond%20scores/ricci%20left%20hand%20examples.ly:401:36:37"
     id="a65617"
     transform="translate(-5.6906,-113.07232)">
    <g
       transform="translate(33.5009,119.8664)"
       id="g65615">
      <path
         transform="scale(0.0036,-0.0036)"
         d="m 215,137 c 57,0 111,-29 111,-92 0,-71 -54,-120 -101,-148 -35,-21 -74,-34 -114,-34 -57,0 -111,29 -111,92 0,71 54,120 101,148 35,21 74,34 114,34 z"
         fill="currentColor"
         id="path65613" />
    </g>
  </a>
  <g
     transform="translate(26.2976,7.694082)"
     id="g65621">
    <rect
       x="-0.062799998"
       y="-3.1500001"
       width="0.12549999"
       height="3.4386001"
       ry="0.039999999"
       fill="currentColor"
       id="rect65619" />
  </g>
  <g
     transform="translate(11.0155,7.694082)"
     id="g65625">
    <rect
       x="-0.062799998"
       y="0.67769998"
       width="0.12549999"
       height="2.6222999"
       ry="0.039999999"
       fill="currentColor"
       id="rect65623" />
  </g>
  <g
     transform="translate(12.4849,7.694082)"
     id="g65629">
    <rect
       x="-0.062799998"
       y="-0.89999998"
       width="0.12549999"
       height="2.9886"
       ry="0.039999999"
       fill="currentColor"
       id="rect65627" />
  </g>
  <g
     transform="translate(7.43,7.694082)"
     id="g65633">
    <path
       transform="scale(0.0036,-0.0036)"
       d="m 358,29 c -49,0 -74,41 -74,73 0,38 27,76 71,76 4,0 7,0 11,-1 -27,36 -69,59 -116,59 -106,0 -113,-74 -113,-188 0,-15 1,-31 1,-48 0,-17 -1,-33 -1,-48 0,-114 7,-188 113,-188 79,0 136,70 155,150 2,7 7,10 13,10 7,0 14,-5 14,-13 0,-95 -105,-175 -182,-175 -68,0 -137,20 -184,70 C 17,-143 0,-71 0,0 c 0,71 17,143 66,194 47,50 116,70 184,70 86,0 159,-66 173,-152 1,-4 1,-9 1,-13 0,-39 -30,-70 -66,-70 z"
       fill="currentColor"
       id="path65631" />
  </g>
  <a
     style="color:inherit"
     xlink:href="textedit://C:/Users/Javier/Documents/lilypond%20scores/ricci%20left%20hand%20examples.ly:398:4:5"
     id="a65643"
     transform="translate(-5.6906,-113.07232)">
    <g
       transform="translate(9.9906,118.9664)"
       id="g65637">
      <path
         transform="scale(0.0036,-0.0036)"
         d="m 217,-311 c 0,-11 -8,-19 -19,-19 -11,0 -20,8 -20,19 v 142 l -81,-30 v -156 c 0,-11 -9,-20 -20,-20 -11,0 -19,9 -19,20 v 142 l -28,-11 c -3,-1 -5,-1 -8,-1 -12,0 -22,10 -22,23 v 57 c 0,9 6,18 15,21 l 43,16 V 49 L 30,39 C 27,38 25,38 22,38 10,38 0,47 0,60 v 57 c 0,9 6,18 15,21 l 43,16 v 157 c 0,11 8,19 19,19 11,0 20,-8 20,-19 V 169 l 81,30 v 156 c 0,11 9,20 20,20 11,0 19,-9 19,-20 V 213 l 28,11 c 3,1 5,1 8,1 12,0 22,-10 22,-23 v -57 c 0,-9 -6,-18 -15,-21 L 217,108 V -49 l 28,10 c 3,1 5,1 8,1 12,0 22,-9 22,-22 v -57 c 0,-9 -6,-18 -15,-21 l -43,-16 z M 97,64 V -94 l 81,30 V 94 Z"
         fill="currentColor"
         id="path65635" />
    </g>
    <g
       transform="translate(10.9806,120.3164)"
       id="g65641">
      <path
         transform="scale(0.0036,-0.0036)"
         d="m 217,-311 c 0,-11 -8,-19 -19,-19 -11,0 -20,8 -20,19 v 142 l -81,-30 v -156 c 0,-11 -9,-20 -20,-20 -11,0 -19,9 -19,20 v 142 l -28,-11 c -3,-1 -5,-1 -8,-1 -12,0 -22,10 -22,23 v 57 c 0,9 6,18 15,21 l 43,16 V 49 L 30,39 C 27,38 25,38 22,38 10,38 0,47 0,60 v 57 c 0,9 6,18 15,21 l 43,16 v 157 c 0,11 8,19 19,19 11,0 20,-8 20,-19 V 169 l 81,30 v 156 c 0,11 9,20 20,20 11,0 19,-9 19,-20 V 213 l 28,11 c 3,1 5,1 8,1 12,0 22,-10 22,-23 v -57 c 0,-9 -6,-18 -15,-21 L 217,108 V -49 l 28,10 c 3,1 5,1 8,1 12,0 22,-9 22,-22 v -57 c 0,-9 -6,-18 -15,-21 l -43,-16 z M 97,64 V -94 l 81,30 V 94 Z"
         fill="currentColor"
         id="path65639" />
    </g>
  </a>
  <g
     transform="translate(0.80000003,8.594082)"
     id="g65647">
    <path
       transform="scale(0.0036,-0.0036)"
       d="m 378,263 c 4,0 7,1 11,1 156,0 257,-129 257,-262 0,-76 -34,-154 -108,-210 -22,-17 -46,-29 -72,-37 3,-34 5,-68 5,-102 0,-20 -1,-40 -2,-60 -7,-121 -90,-228 -209,-228 -108,0 -196,87 -196,196 0,58 53,104 112,104 54,0 95,-48 95,-104 0,-52 -43,-95 -95,-95 -10,0 -20,2 -29,6 26,-38 68,-63 116,-63 h 3 c 93,2 153,92 159,190 1,19 2,37 2,56 0,30 -2,60 -4,90 -29,-5 -58,-8 -88,-8 -188,0 -333,173 -333,375 0,177 130,307 246,442 -20,62 -38,125 -46,190 -6,52 -7,104 -7,157 0,115 55,223 148,290 7,5 16,4 22,-1 71,-83 134,-244 134,-357 0,-143 -85,-255 -178,-364 21,-68 40,-137 57,-206 z m 84,-465 c 67,24 111,94 111,162 0,89 -65,178 -170,190 24,-115 46,-230 59,-352 z M 75,26 c 0,-134 129,-245 263,-245 28,0 55,2 81,6 C 405,-87 383,31 358,150 279,142 234,89 234,31 c 0,-43 25,-89 80,-121 5,-5 7,-11 7,-16 0,-12 -10,-23 -22,-23 -3,0 -6,1 -9,2 -81,43 -118,116 -118,186 0,89 58,175 161,198 -14,58 -29,116 -46,173 C 181,308 75,186 75,26 Z M 406,1042 C 307,995 244,894 244,785 c 0,-73 20,-132 38,-191 79,97 144,199 144,324 0,53 -4,76 -20,124 z"
       fill="currentColor"
       id="path65645" />
  </g>
  <a
     style="color:inherit"
     xlink:href="textedit://C:/Users/Javier/Documents/lilypond%20scores/ricci%20left%20hand%20examples.ly:408:8:9"
     id="a65653"
     transform="translate(-5.6906,-113.07232)">
    <g
       transform="translate(16.6433,121.2164)"
       id="g65651">
      <path
         transform="scale(0.0036,-0.0036)"
         d="m 312,64 c 0,24 -20,41 -41,41 -4,0 -8,-1 -12,-2 C 229,94 182,65 146,41 110,17 63,-13 43,-37 36,-45 33,-54 33,-64 c 0,-24 20,-41 41,-41 4,0 8,1 12,2 30,9 77,38 113,62 36,24 83,54 103,78 7,8 10,17 10,27 z m -53,73 c 48,0 86,-22 86,-74 0,-18 -4,-38 -10,-56 -12,-38 -30,-73 -63,-95 -53,-36 -113,-49 -186,-49 -48,0 -86,22 -86,74 0,18 4,38 10,56 12,38 31,73 64,95 53,36 112,49 185,49 z"
         fill="currentColor"
         id="path65649" />
    </g>
  </a>
  <a
     style="color:inherit"
     xlink:href="textedit://C:/Users/Javier/Documents/lilypond%20scores/ricci%20left%20hand%20examples.ly:401:6:7"
     id="a65659"
     transform="translate(-5.6906,-113.07232)">
    <g
       transform="translate(17.0658,123.0164)"
       id="g65657">
      <path
         transform="scale(0.0036,-0.0036)"
         d="m 215,137 c 57,0 111,-29 111,-92 0,-71 -54,-120 -101,-148 -35,-21 -74,-34 -114,-34 -57,0 -111,29 -111,92 0,71 54,120 101,148 35,21 74,34 114,34 z"
         fill="currentColor"
         id="path65655" />
    </g>
  </a>
  <g
     transform="translate(18.93,7.694082)"
     id="g65663">
    <rect
       x="-0.062799998"
       y="-2.5193999"
       width="0.12549999"
       height="2.8080001"
       ry="0.039999999"
       fill="currentColor"
       id="rect65661" />
  </g>
  <a
     style="color:inherit"
     xlink:href="textedit://C:/Users/Javier/Documents/lilypond%20scores/ricci%20left%20hand%20examples.ly:401:18:19"
     id="a65669"
     transform="translate(-5.6906,-113.07232)">
    <g
       transform="translate(23.7215,117.3036)"
       id="g65667">
      <path
         transform="scale(0.002,-0.002)"
         d="m 129,149 h 7 c 36,0 74,-13 111,-40 19,-14 40,-21 59,-21 22,0 40,10 46,31 2,7 7,11 13,11 7,0 15,-5 15,-14 v -5 C 361,40 296,0 234,0 196,0 159,15 133,47 121,62 105,69 89,69 60,69 32,48 29,13 28,4 22,0 15,0 8,0 0,5 0,14 c 0,173 233,163 233,341 0,56 -14,116 -62,116 -33,0 -66,-15 -66,-44 0,-24 31,-37 31,-61 0,-34 -27,-61 -61,-61 -34,0 -61,27 -61,61 0,78 74,134 157,134 98,0 191,-55 191,-145 C 362,211 227,199 129,149 Z"
         fill="currentColor"
         id="path65665" />
    </g>
  </a>
  <a
     style="color:inherit"
     xlink:href="textedit://C:/Users/Javier/Documents/lilypond%20scores/ricci%20left%20hand%20examples.ly:401:17:18"
     id="a65675"
     transform="translate(-5.6906,-113.07232)">
    <g
       transform="translate(23.5108,121.2164)"
       id="g65673">
      <path
         transform="scale(0.0036,-0.0036)"
         d="m 215,137 c 57,0 111,-29 111,-92 0,-71 -54,-120 -101,-148 -35,-21 -74,-34 -114,-34 -57,0 -111,29 -111,92 0,71 54,120 101,148 35,21 74,34 114,34 z"
         fill="currentColor"
         id="path65671" />
    </g>
  </a>
  <a
     style="color:inherit"
     xlink:href="textedit://C:/Users/Javier/Documents/lilypond%20scores/ricci%20left%20hand%20examples.ly:402:6:7"
     id="a65681"
     transform="translate(-5.6906,-113.07232)">
    <g
       transform="translate(37.0911,118.9664)"
       id="g65679">
      <path
         transform="scale(0.0036,-0.0036)"
         d="m 215,137 c 57,0 111,-29 111,-92 0,-71 -54,-120 -101,-148 -35,-21 -74,-34 -114,-34 -57,0 -111,29 -111,92 0,71 54,120 101,148 35,21 74,34 114,34 z"
         fill="currentColor"
         id="path65677" />
    </g>
  </a>
  <g
     transform="translate(16.3075,7.694082)"
     id="g65685">
    <rect
       x="-0.062799998"
       y="-1.9806"
       width="0.12549999"
       height="3.1691999"
       ry="0.039999999"
       fill="currentColor"
       id="rect65683" />
  </g>
  <a
     style="color:inherit"
     xlink:href="textedit://C:/Users/Javier/Documents/lilypond%20scores/ricci%20left%20hand%20examples.ly:401:14:15"
     id="a65691"
     transform="translate(-5.6906,-113.07232)">
    <g
       transform="translate(21.1161,117.704)"
       id="g65689">
      <path
         transform="scale(0.002,-0.002)"
         d="M 129,129 H 259 C 259,77 291,29 340,29 350,29 354,21 354,14 354,7 350,0 340,0 291,0 243,14 194,14 145,14 98,0 49,0 39,0 34,7 34,14 c 0,7 5,15 15,15 49,0 80,48 80,100 z M 0,250 129,500 c 3,7 13,3 21,0 14,-6 28,-14 44,-14 16,0 31,8 45,14 2,1 2,1 4,1 8,0 16,-9 16,-21 V 129 H 129 v 215 c 0,15 -11,23 -20,23 -5,0 -9,-2 -11,-7 L 32,233 c -4,-7 -9,-9 -15,-9 -9,0 -19,7 -19,17 0,3 0,6 2,9 z"
         fill="currentColor"
         id="path65687" />
    </g>
  </a>
  <a
     style="color:inherit"
     xlink:href="textedit://C:/Users/Javier/Documents/lilypond%20scores/ricci%20left%20hand%20examples.ly:401:10:11"
     id="a65697"
     transform="translate(-5.6906,-113.07232)">
    <g
       transform="translate(20.8883,122.1164)"
       id="g65695">
      <path
         transform="scale(0.0036,-0.0036)"
         d="m 215,137 c 57,0 111,-29 111,-92 0,-71 -54,-120 -101,-148 -35,-21 -74,-34 -114,-34 -57,0 -111,29 -111,92 0,71 54,120 101,148 35,21 74,34 114,34 z"
         fill="currentColor"
         id="path65693" />
    </g>
  </a>
  <a
     style="color:inherit"
     xlink:href="textedit://C:/Users/Javier/Documents/lilypond%20scores/ricci%20left%20hand%20examples.ly:408:15:16"
     id="a65703"
     transform="translate(-5.6906,-113.07232)">
    <g
       transform="translate(47.0812,121.2164)"
       id="g65701">
      <path
         transform="scale(0.0036,-0.0036)"
         d="m 312,64 c 0,24 -20,41 -41,41 -4,0 -8,-1 -12,-2 C 229,94 182,65 146,41 110,17 63,-13 43,-37 36,-45 33,-54 33,-64 c 0,-24 20,-41 41,-41 4,0 8,1 12,2 30,9 77,38 113,62 36,24 83,54 103,78 7,8 10,17 10,27 z m -53,73 c 48,0 86,-22 86,-74 0,-18 -4,-38 -10,-56 -12,-38 -30,-73 -63,-95 -53,-36 -113,-49 -186,-49 -48,0 -86,22 -86,74 0,18 4,38 10,56 12,38 31,73 64,95 53,36 112,49 185,49 z"
         fill="currentColor"
         id="path65699" />
    </g>
  </a>
  <g
     transform="translate(41.4534,7.694082)"
     id="g65707">
    <rect
       x="-0.062799998"
       y="0.67769998"
       width="0.12549999"
       height="2.6222999"
       ry="0.039999999"
       fill="currentColor"
       id="rect65705" />
  </g>
  <g
     transform="translate(42.5004,7.694082)"
     id="g65711">
    <rect
       x="-0.062799998"
       y="-4.9499998"
       width="0.12549999"
       height="2.0885999"
       ry="0.039999999"
       fill="currentColor"
       id="rect65709" />
  </g>
  <a
     style="color:inherit"
     xlink:href="textedit://C:/Users/Javier/Documents/lilypond%20scores/ricci%20left%20hand%20examples.ly:402:28:29"
     id="a65717"
     transform="translate(-5.6906,-113.07232)">
    <g
       transform="translate(49.2037,119.8664)"
       id="g65715">
      <path
         transform="scale(0.0036,-0.0036)"
         d="m 215,137 c 57,0 111,-29 111,-92 0,-71 -54,-120 -101,-148 -35,-21 -74,-34 -114,-34 -57,0 -111,29 -111,92 0,71 54,120 101,148 35,21 74,34 114,34 z"
         fill="currentColor"
         id="path65713" />
    </g>
  </a>
  <a
     style="color:inherit"
     xlink:href="textedit://C:/Users/Javier/Documents/lilypond%20scores/ricci%20left%20hand%20examples.ly:402:25:26"
     id="a65723"
     transform="translate(-5.6906,-113.07232)">
    <g
       transform="translate(47.0812,118.0664)"
       id="g65721">
      <path
         transform="scale(0.0036,-0.0036)"
         d="m 215,137 c 57,0 111,-29 111,-92 0,-71 -54,-120 -101,-148 -35,-21 -74,-34 -114,-34 -57,0 -111,29 -111,92 0,71 54,120 101,148 35,21 74,34 114,34 z"
         fill="currentColor"
         id="path65719" />
    </g>
  </a>
  <g
     transform="translate(39.8779,7.694082)"
     id="g65727">
    <rect
       x="-0.062799998"
       y="-4.0500002"
       width="0.12549999"
       height="2.0885999"
       ry="0.039999999"
       fill="currentColor"
       id="rect65725" />
  </g>
  <a
     style="color:inherit"
     xlink:href="textedit://C:/Users/Javier/Documents/lilypond%20scores/ricci%20left%20hand%20examples.ly:402:21:22"
     id="a65733"
     transform="translate(-5.6906,-113.07232)">
    <g
       transform="translate(44.7035,115.3934)"
       id="g65731">
      <path
         transform="scale(0.002,-0.002)"
         d="m 155,471 c -34,0 -70,-8 -70,-38 0,-19 31,-23 31,-42 0,-28 -23,-51 -51,-51 -28,0 -51,23 -51,51 0,67 68,109 141,109 93,0 174,-31 174,-113 0,-41 -6,-77 -42,-94 -11,-5 -17,-16 -17,-27 0,-11 6,-22 17,-27 40,-19 59,-53 59,-98 C 346,47 263,0 160,0 78,0 0,45 0,119 c 0,32 26,58 58,58 32,0 58,-26 58,-58 0,-22 -36,-26 -36,-48 0,-33 42,-42 80,-42 46,0 56,58 56,112 v 38 c 0,40 -4,69 -43,69 H 99 c -12,0 -18,9 -18,18 0,9 6,18 18,18 h 74 c 40,0 43,31 43,73 v 30 c 0,50 -16,84 -61,84 z"
         fill="currentColor"
         id="path65729" />
    </g>
  </a>
  <a
     style="color:inherit"
     xlink:href="textedit://C:/Users/Javier/Documents/lilypond%20scores/ricci%20left%20hand%20examples.ly:402:18:19"
     id="a65739"
     transform="translate(-5.6906,-113.07232)">
    <g
       transform="translate(44.4587,118.9664)"
       id="g65737">
      <path
         transform="scale(0.0036,-0.0036)"
         d="m 215,137 c 57,0 111,-29 111,-92 0,-71 -54,-120 -101,-148 -35,-21 -74,-34 -114,-34 -57,0 -111,29 -111,92 0,71 54,120 101,148 35,21 74,34 114,34 z"
         fill="currentColor"
         id="path65735" />
    </g>
  </a>
  <a
     style="color:inherit"
     xlink:href="textedit://C:/Users/Javier/Documents/lilypond%20scores/ricci%20left%20hand%20examples.ly:403:6:7"
     id="a65745"
     transform="translate(-5.6906,-113.07232)">
    <g
       transform="translate(57.9804,116.7164)"
       id="g65743">
      <path
         transform="scale(0.0036,-0.0036)"
         d="m 215,137 c 57,0 111,-29 111,-92 0,-71 -54,-120 -101,-148 -35,-21 -74,-34 -114,-34 -57,0 -111,29 -111,92 0,71 54,120 101,148 35,21 74,34 114,34 z"
         fill="currentColor"
         id="path65741" />
    </g>
  </a>
  <g
     transform="translate(49.868,7.694082)"
     id="g65749">
    <rect
       x="-0.062799998"
       y="-4.9499998"
       width="0.12549999"
       height="2.0885999"
       ry="0.039999999"
       fill="currentColor"
       id="rect65747" />
  </g>
  <a
     style="color:inherit"
     xlink:href="textedit://C:/Users/Javier/Documents/lilypond%20scores/ricci%20left%20hand%20examples.ly:402:39:40"
     id="a65755"
     transform="translate(-5.6906,-113.07232)">
    <g
       transform="translate(54.6936,114.4934)"
       id="g65753">
      <path
         transform="scale(0.002,-0.002)"
         d="m 155,471 c -34,0 -70,-8 -70,-38 0,-19 31,-23 31,-42 0,-28 -23,-51 -51,-51 -28,0 -51,23 -51,51 0,67 68,109 141,109 93,0 174,-31 174,-113 0,-41 -6,-77 -42,-94 -11,-5 -17,-16 -17,-27 0,-11 6,-22 17,-27 40,-19 59,-53 59,-98 C 346,47 263,0 160,0 78,0 0,45 0,119 c 0,32 26,58 58,58 32,0 58,-26 58,-58 0,-22 -36,-26 -36,-48 0,-33 42,-42 80,-42 46,0 56,58 56,112 v 38 c 0,40 -4,69 -43,69 H 99 c -12,0 -18,9 -18,18 0,9 6,18 18,18 h 74 c 40,0 43,31 43,73 v 30 c 0,50 -16,84 -61,84 z"
         fill="currentColor"
         id="path65751" />
    </g>
  </a>
  <a
     style="color:inherit"
     xlink:href="textedit://C:/Users/Javier/Documents/lilypond%20scores/ricci%20left%20hand%20examples.ly:402:37:38"
     id="a65761"
     transform="translate(-5.6906,-113.07232)">
    <g
       transform="translate(54.4488,118.0664)"
       id="g65759">
      <path
         transform="scale(0.0036,-0.0036)"
         d="m 215,137 c 57,0 111,-29 111,-92 0,-71 -54,-120 -101,-148 -35,-21 -74,-34 -114,-34 -57,0 -111,29 -111,92 0,71 54,120 101,148 35,21 74,34 114,34 z"
         fill="currentColor"
         id="path65757" />
    </g>
  </a>
  <g
     transform="translate(47.2454,7.694082)"
     id="g65765">
    <rect
       x="-0.062799998"
       y="-4.9499998"
       width="0.12549999"
       height="2.9886"
       ry="0.039999999"
       fill="currentColor"
       id="rect65763" />
  </g>
  <a
     style="color:inherit"
     xlink:href="textedit://C:/Users/Javier/Documents/lilypond%20scores/ricci%20left%20hand%20examples.ly:402:34:35"
     id="a65771"
     transform="translate(-5.6906,-113.07232)">
    <g
       transform="translate(52.054,114.0801)"
       id="g65769">
      <path
         transform="scale(0.002,-0.002)"
         d="M 129,129 H 259 C 259,77 291,29 340,29 350,29 354,21 354,14 354,7 350,0 340,0 291,0 243,14 194,14 145,14 98,0 49,0 39,0 34,7 34,14 c 0,7 5,15 15,15 49,0 80,48 80,100 z M 0,250 129,500 c 3,7 13,3 21,0 14,-6 28,-14 44,-14 16,0 31,8 45,14 2,1 2,1 4,1 8,0 16,-9 16,-21 V 129 H 129 v 215 c 0,15 -11,23 -20,23 -5,0 -9,-2 -11,-7 L 32,233 c -4,-7 -9,-9 -15,-9 -9,0 -19,7 -19,17 0,3 0,6 2,9 z"
         fill="currentColor"
         id="path65767" />
    </g>
  </a>
  <a
     style="color:inherit"
     xlink:href="textedit://C:/Users/Javier/Documents/lilypond%20scores/ricci%20left%20hand%20examples.ly:402:31:32"
     id="a65777"
     transform="translate(-5.6906,-113.07232)">
    <g
       transform="translate(51.8263,118.9664)"
       id="g65775">
      <path
         transform="scale(0.0036,-0.0036)"
         d="m 215,137 c 57,0 111,-29 111,-92 0,-71 -54,-120 -101,-148 -35,-21 -74,-34 -114,-34 -57,0 -111,29 -111,92 0,71 54,120 101,148 35,21 74,34 114,34 z"
         fill="currentColor"
         id="path65773" />
    </g>
  </a>
  <g
     transform="translate(44.6229,7.694082)"
     id="g65781">
    <rect
       x="-0.062799998"
       y="-4.9499998"
       width="0.12549999"
       height="3.8886001"
       ry="0.039999999"
       fill="currentColor"
       id="rect65779" />
  </g>
  <a
     style="color:inherit"
     xlink:href="textedit://C:/Users/Javier/Documents/lilypond%20scores/ricci%20left%20hand%20examples.ly:402:11:12"
     id="a65787"
     transform="translate(-5.6906,-113.07232)">
    <g
       transform="translate(39.2136,121.2164)"
       id="g65785">
      <path
         transform="scale(0.0036,-0.0036)"
         d="m 215,137 c 57,0 111,-29 111,-92 0,-71 -54,-120 -101,-148 -35,-21 -74,-34 -114,-34 -57,0 -111,29 -111,92 0,71 54,120 101,148 35,21 74,34 114,34 z"
         fill="currentColor"
         id="path65783" />
    </g>
  </a>
  <g
     transform="translate(34.6328,7.694082)"
     id="g65791">
    <rect
       x="-0.062799998"
       y="-4.0500002"
       width="0.12549999"
       height="4.3386002"
       ry="0.039999999"
       fill="currentColor"
       id="rect65789" />
  </g>
  <a
     style="color:inherit"
     xlink:href="textedit://C:/Users/Javier/Documents/lilypond%20scores/ricci%20left%20hand%20examples.ly:402:14:15"
     id="a65797"
     transform="translate(-5.6906,-113.07232)">
    <g
       transform="translate(41.8362,119.8664)"
       id="g65795">
      <path
         transform="scale(0.0036,-0.0036)"
         d="m 215,137 c 57,0 111,-29 111,-92 0,-71 -54,-120 -101,-148 -35,-21 -74,-34 -114,-34 -57,0 -111,29 -111,92 0,71 54,120 101,148 35,21 74,34 114,34 z"
         fill="currentColor"
         id="path65793" />
    </g>
  </a>
  <a
     style="color:inherit"
     xlink:href="textedit://C:/Users/Javier/Documents/lilypond%20scores/ricci%20left%20hand%20examples.ly:402:15:16"
     id="a65803"
     transform="translate(-5.6906,-113.07232)">
    <g
       transform="translate(42.0639,114.9801)"
       id="g65801">
      <path
         transform="scale(0.002,-0.002)"
         d="M 129,129 H 259 C 259,77 291,29 340,29 350,29 354,21 354,14 354,7 350,0 340,0 291,0 243,14 194,14 145,14 98,0 49,0 39,0 34,7 34,14 c 0,7 5,15 15,15 49,0 80,48 80,100 z M 0,250 129,500 c 3,7 13,3 21,0 14,-6 28,-14 44,-14 16,0 31,8 45,14 2,1 2,1 4,1 8,0 16,-9 16,-21 V 129 H 129 v 215 c 0,15 -11,23 -20,23 -5,0 -9,-2 -11,-7 L 32,233 c -4,-7 -9,-9 -15,-9 -9,0 -19,7 -19,17 0,3 0,6 2,9 z"
         fill="currentColor"
         id="path65799" />
    </g>
  </a>
  <g
     transform="translate(37.2553,7.694082)"
     id="g65807">
    <rect
       x="-0.062799998"
       y="-4.0500002"
       width="0.12549999"
       height="2.9886"
       ry="0.039999999"
       fill="currentColor"
       id="rect65805" />
  </g>
</svg>
