<!-- <?xml version="1.0" encoding="UTF-8" standalone="no"?> -->
<svg
   version="1.2"
   width="150.85355mm"
   height="19.951315mm"
   viewBox="0 0 85.844001 11.3534"
   id="svg6098"
   sodipodi:docname="ricci left hand examples-1.svg"
   xmlns:inkscape="http://www.inkscape.org/namespaces/inkscape"
   xmlns:sodipodi="http://sodipodi.sourceforge.net/DTD/sodipodi-0.dtd"
   xmlns:xlink="http://www.w3.org/1999/xlink"
   xmlns="http://www.w3.org/2000/svg"
   xmlns:svg="http://www.w3.org/2000/svg">
  <defs
     id="defs6102" />
  <sodipodi:namedview
     id="namedview6100"
     pagecolor="#ffffff"
     bordercolor="#000000"
     borderopacity="0.25"
     inkscape:showpageshadow="2"
     inkscape:pageopacity="0.0"
     inkscape:pagecheckerboard="0"
     inkscape:deskcolor="#d1d1d1"
     inkscape:document-units="mm"
     showgrid="false" />
  <style
     type="text/css"
     id="style2"><![CDATA[
tspan { white-space: pre; }
]]></style>
  <!-- Page: 1/6 -->
  <g
     transform="translate(3.1967416e-8,8.6102001)"
     id="g6"
     inkscape:export-filename="ex2.svg"
     inkscape:export-xdpi="96"
     inkscape:export-ydpi="96">
    <line
       stroke-linejoin="round"
       stroke-linecap="round"
       stroke-width="0.0966"
       stroke="currentColor"
       x1="0.048300002"
       y1="0"
       x2="85.7957"
       y2="0"
       id="line4" />
  </g>
  <g
     transform="translate(3.1967416e-8,7.7102001)"
     id="g10">
    <line
       stroke-linejoin="round"
       stroke-linecap="round"
       stroke-width="0.0966"
       stroke="currentColor"
       x1="0.048300002"
       y1="0"
       x2="85.7957"
       y2="0"
       id="line8" />
  </g>
  <g
     transform="translate(3.1967416e-8,6.8102001)"
     id="g14">
    <line
       stroke-linejoin="round"
       stroke-linecap="round"
       stroke-width="0.0966"
       stroke="currentColor"
       x1="0.048300002"
       y1="0"
       x2="85.7957"
       y2="0"
       id="line12" />
  </g>
  <g
     transform="translate(3.1967416e-8,5.9102001)"
     id="g18">
    <line
       stroke-linejoin="round"
       stroke-linecap="round"
       stroke-width="0.0966"
       stroke="currentColor"
       x1="0.048300002"
       y1="0"
       x2="85.7957"
       y2="0"
       id="line16" />
  </g>
  <g
     transform="translate(3.1967416e-8,5.0102001)"
     id="g22">
    <line
       stroke-linejoin="round"
       stroke-linecap="round"
       stroke-width="0.0966"
       stroke="currentColor"
       x1="0.048300002"
       y1="0"
       x2="85.7957"
       y2="0"
       id="line20" />
  </g>
  <g
     transform="translate(85.6605,6.8102001)"
     id="g26">
    <rect
       x="0"
       y="-1.8"
       width="0.18350001"
       height="3.5999999"
       ry="0.0000"
       fill="currentColor"
       id="rect24" />
  </g>
  <g
     transform="translate(85.1873,6.8102001)"
     id="g30">
    <rect
       x="0"
       y="-1.8"
       width="0.18350001"
       height="3.5999999"
       ry="0.0000"
       fill="currentColor"
       id="rect28" />
  </g>
  <g
     transform="translate(47.1731,6.8102001)"
     id="g34">
    <rect
       x="0"
       y="-1.8"
       width="0.18350001"
       height="3.5999999"
       ry="0.0000"
       fill="currentColor"
       id="rect32" />
  </g>
  <g
     transform="translate(3.1967416e-8,9.5102001)"
     id="g38">
    <rect
       x="81.178802"
       y="-0.0933"
       width="1.7588"
       height="0.1866"
       ry="0.0933"
       fill="currentColor"
       id="rect36" />
  </g>
  <g
     transform="translate(3.1967416e-8,10.4102)"
     id="g42">
    <rect
       x="81.178802"
       y="-0.0933"
       width="1.7588"
       height="0.1866"
       ry="0.0933"
       fill="currentColor"
       id="rect40" />
  </g>
  <g
     transform="translate(3.1967416e-8,9.5102001)"
     id="g46">
    <rect
       x="78.806297"
       y="-0.0933"
       width="1.7588"
       height="0.1866"
       ry="0.0933"
       fill="currentColor"
       id="rect44" />
  </g>
  <g
     transform="translate(3.1967416e-8,10.4102)"
     id="g50">
    <rect
       x="78.806297"
       y="-0.0933"
       width="1.7588"
       height="0.1866"
       ry="0.0933"
       fill="currentColor"
       id="rect48" />
  </g>
  <g
     transform="translate(3.1967416e-8,9.5102001)"
     id="g54">
    <rect
       x="76.4338"
       y="-0.0933"
       width="1.7588"
       height="0.1866"
       ry="0.0933"
       fill="currentColor"
       id="rect52" />
  </g>
  <g
     transform="translate(3.1967416e-8,9.5102001)"
     id="g58">
    <rect
       x="74.061203"
       y="-0.0933"
       width="1.7588"
       height="0.1866"
       ry="0.0933"
       fill="currentColor"
       id="rect56" />
  </g>
  <g
     transform="translate(3.1967416e-8,9.5102001)"
     id="g62">
    <rect
       x="17.2097"
       y="-0.0933"
       width="1.7588"
       height="0.1866"
       ry="0.0933"
       fill="currentColor"
       id="rect60" />
  </g>
  <g
     transform="translate(3.1967416e-8,9.5102001)"
     id="g66">
    <rect
       x="14.8371"
       y="-0.0933"
       width="1.7588"
       height="0.1866"
       ry="0.0933"
       fill="currentColor"
       id="rect64" />
  </g>
  <g
     transform="translate(3.1967416e-8,9.5102001)"
     id="g70">
    <rect
       x="12.4646"
       y="-0.0933"
       width="1.7588"
       height="0.1866"
       ry="0.0933"
       fill="currentColor"
       id="rect68" />
  </g>
  <g
     transform="translate(3.1967416e-8,10.4102)"
     id="g74">
    <rect
       x="12.4646"
       y="-0.0933"
       width="1.7588"
       height="0.1866"
       ry="0.0933"
       fill="currentColor"
       id="rect72" />
  </g>
  <g
     transform="translate(3.1967416e-8,9.5102001)"
     id="g78">
    <rect
       x="10.0921"
       y="-0.0933"
       width="1.7588"
       height="0.1866"
       ry="0.0933"
       fill="currentColor"
       id="rect76" />
  </g>
  <g
     transform="translate(3.1967416e-8,10.4102)"
     id="g82">
    <rect
       x="10.0921"
       y="-0.0933"
       width="1.7588"
       height="0.1866"
       ry="0.0933"
       fill="currentColor"
       id="rect80" />
  </g>
  <g
     transform="translate(56.4839,6.8102001)"
     id="g86">
    <rect
       x="-0.062799998"
       y="-3.7741001"
       width="0.12549999"
       height="2.7126"
       ry="0.039999999"
       fill="currentColor"
       id="rect84" />
  </g>
  <a
     style="color:inherit"
     xlink:href="textedit://C:/Users/Javier/Documents/lilypond%20scores/ricci%20left%20hand%20examples.ly:20:21:22"
     id="a92"
     transform="translate(-5.6906,-3.8675999)">
    <g
       transform="translate(61.0647,9.7778)"
       id="g90">
      <path
         transform="scale(0.0036,-0.0036)"
         d="m 215,137 c 57,0 111,-29 111,-92 0,-71 -54,-120 -101,-148 -35,-21 -74,-34 -114,-34 -57,0 -111,29 -111,92 0,71 54,120 101,148 35,21 74,34 114,34 z"
         fill="currentColor"
         id="path88" />
    </g>
  </a>
  <a
     style="color:inherit"
     xlink:href="textedit://C:/Users/Javier/Documents/lilypond%20scores/ricci%20left%20hand%20examples.ly:20:23:24"
     id="a98"
     transform="translate(-5.6906,-3.8675999)">
    <g
       transform="translate(63.4372,10.2278)"
       id="g96">
      <path
         transform="scale(0.0036,-0.0036)"
         d="m 215,137 c 57,0 111,-29 111,-92 0,-71 -54,-120 -101,-148 -35,-21 -74,-34 -114,-34 -57,0 -111,29 -111,92 0,71 54,120 101,148 35,21 74,34 114,34 z"
         fill="currentColor"
         id="path94" />
    </g>
  </a>
  <g
     transform="translate(54.1113,6.8102001)"
     id="g102">
    <rect
       x="-0.062799998"
       y="-4.0138998"
       width="0.12549999"
       height="2.5025001"
       ry="0.039999999"
       fill="currentColor"
       id="rect100" />
  </g>
  <a
     style="color:inherit"
     xlink:href="textedit://C:/Users/Javier/Documents/lilypond%20scores/ricci%20left%20hand%20examples.ly:20:19:20"
     id="a108"
     transform="translate(-5.6906,-3.8675999)">
    <g
       transform="translate(58.6922,9.3278)"
       id="g106">
      <path
         transform="scale(0.0036,-0.0036)"
         d="m 215,137 c 57,0 111,-29 111,-92 0,-71 -54,-120 -101,-148 -35,-21 -74,-34 -114,-34 -57,0 -111,29 -111,92 0,71 54,120 101,148 35,21 74,34 114,34 z"
         fill="currentColor"
         id="path104" />
    </g>
  </a>
  <g
     transform="translate(61.2289,6.8102001)"
     id="g112">
    <rect
       x="-0.062799998"
       y="-3.1861"
       width="0.12549999"
       height="3.0246"
       ry="0.039999999"
       fill="currentColor"
       id="rect110" />
  </g>
  <g
     transform="translate(63.6014,6.8102001)"
     id="g116">
    <rect
       x="-0.062799998"
       y="-2.9461999"
       width="0.12549999"
       height="3.2348001"
       ry="0.039999999"
       fill="currentColor"
       id="rect114" />
  </g>
  <a
     style="color:inherit"
     xlink:href="textedit://C:/Users/Javier/Documents/lilypond%20scores/ricci%20left%20hand%20examples.ly:20:29:30"
     id="a122"
     transform="translate(-5.6906,-3.8675999)">
    <g
       transform="translate(68.1823,11.1278)"
       id="g120">
      <path
         transform="scale(0.0036,-0.0036)"
         d="m 215,137 c 57,0 111,-29 111,-92 0,-71 -54,-120 -101,-148 -35,-21 -74,-34 -114,-34 -57,0 -111,29 -111,92 0,71 54,120 101,148 35,21 74,34 114,34 z"
         fill="currentColor"
         id="path118" />
    </g>
  </a>
  <a
     style="color:inherit"
     xlink:href="textedit://C:/Users/Javier/Documents/lilypond%20scores/ricci%20left%20hand%20examples.ly:20:26:27"
     id="a128"
     transform="translate(-5.6906,-3.8675999)">
    <g
       transform="translate(66.0546,5.4343)"
       id="g126">
      <path
         transform="scale(0.002,-0.002)"
         d="m 155,471 c -34,0 -70,-8 -70,-38 0,-19 31,-23 31,-42 0,-28 -23,-51 -51,-51 -28,0 -51,23 -51,51 0,67 68,109 141,109 93,0 174,-31 174,-113 0,-41 -6,-77 -42,-94 -11,-5 -17,-16 -17,-27 0,-11 6,-22 17,-27 40,-19 59,-53 59,-98 C 346,47 263,0 160,0 78,0 0,45 0,119 c 0,32 26,58 58,58 32,0 58,-26 58,-58 0,-22 -36,-26 -36,-48 0,-33 42,-42 80,-42 46,0 56,58 56,112 v 38 c 0,40 -4,69 -43,69 H 99 c -12,0 -18,9 -18,18 0,9 6,18 18,18 h 74 c 40,0 43,31 43,73 v 30 c 0,50 -16,84 -61,84 z"
         fill="currentColor"
         id="path124" />
    </g>
  </a>
  <a
     style="color:inherit"
     xlink:href="textedit://C:/Users/Javier/Documents/lilypond%20scores/ricci%20left%20hand%20examples.ly:20:25:26"
     id="a134"
     transform="translate(-5.6906,-3.8675999)">
    <g
       transform="translate(65.8098,10.6778)"
       id="g132">
      <path
         transform="scale(0.0036,-0.0036)"
         d="m 215,137 c 57,0 111,-29 111,-92 0,-71 -54,-120 -101,-148 -35,-21 -74,-34 -114,-34 -57,0 -111,29 -111,92 0,71 54,120 101,148 35,21 74,34 114,34 z"
         fill="currentColor"
         id="path130" />
    </g>
  </a>
  <g
     transform="translate(58.8564,6.8102001)"
     id="g138">
    <rect
       x="-0.062799998"
       y="-3.4259"
       width="0.12549999"
       height="2.8145001"
       ry="0.039999999"
       fill="currentColor"
       id="rect136" />
  </g>
  <g
     transform="translate(48.3193,6.8102001)"
     id="g142">
    <rect
       x="-0.062799998"
       y="2.4777"
       width="0.12549999"
       height="2.0223"
       ry="0.039999999"
       fill="currentColor"
       id="rect140" />
  </g>
  <g
     transform="translate(49.3663,6.8102001)"
     id="g146">
    <rect
       x="-0.062799998"
       y="-4.4937"
       width="0.12549999"
       height="2.0822001"
       ry="0.039999999"
       fill="currentColor"
       id="rect144" />
  </g>
  <a
     style="color:inherit"
     xlink:href="textedit://C:/Users/Javier/Documents/lilypond%20scores/ricci%20left%20hand%20examples.ly:22:15:16"
     id="a152"
     transform="translate(-5.6906,-3.8675999)">
    <g
       transform="translate(53.9471,12.9278)"
       id="g150">
      <path
         transform="scale(0.0036,-0.0036)"
         d="m 312,64 c 0,24 -20,41 -41,41 -4,0 -8,-1 -12,-2 C 229,94 182,65 146,41 110,17 63,-13 43,-37 36,-45 33,-54 33,-64 c 0,-24 20,-41 41,-41 4,0 8,1 12,2 30,9 77,38 113,62 36,24 83,54 103,78 7,8 10,17 10,27 z m -53,73 c 48,0 86,-22 86,-74 0,-18 -4,-38 -10,-56 -12,-38 -30,-73 -63,-95 -53,-36 -113,-49 -186,-49 -48,0 -86,22 -86,74 0,18 4,38 10,56 12,38 31,73 64,95 53,36 112,49 185,49 z"
         fill="currentColor"
         id="path148" />
    </g>
  </a>
  <a
     style="color:inherit"
     xlink:href="textedit://C:/Users/Javier/Documents/lilypond%20scores/ricci%20left%20hand%20examples.ly:20:8:9"
     id="a158"
     transform="translate(-5.6906,-3.8675999)">
    <g
       transform="translate(53.9471,8.4278)"
       id="g156">
      <path
         transform="scale(0.0036,-0.0036)"
         d="m 215,137 c 57,0 111,-29 111,-92 0,-71 -54,-120 -101,-148 -35,-21 -74,-34 -114,-34 -57,0 -111,29 -111,92 0,71 54,120 101,148 35,21 74,34 114,34 z"
         fill="currentColor"
         id="path154" />
    </g>
  </a>
  <g
     transform="translate(44.7103,6.8102001)"
     id="g162">
    <rect
       x="-0.062799998"
       y="-4.6598001"
       width="0.12549999"
       height="2.2483001"
       ry="0.039999999"
       fill="currentColor"
       id="rect160" />
  </g>
  <a
     style="color:inherit"
     xlink:href="textedit://C:/Users/Javier/Documents/lilypond%20scores/ricci%20left%20hand%20examples.ly:19:59:60"
     id="a168"
     transform="translate(-5.6906,-3.8675999)">
    <g
       transform="translate(49.2911,8.4278)"
       id="g166">
      <path
         transform="scale(0.0036,-0.0036)"
         d="m 215,137 c 57,0 111,-29 111,-92 0,-71 -54,-120 -101,-148 -35,-21 -74,-34 -114,-34 -57,0 -111,29 -111,92 0,71 54,120 101,148 35,21 74,34 114,34 z"
         fill="currentColor"
         id="path164" />
    </g>
  </a>
  <a
     style="color:inherit"
     xlink:href="textedit://C:/Users/Javier/Documents/lilypond%20scores/ricci%20left%20hand%20examples.ly:19:12:13"
     id="a174"
     transform="translate(-5.6906,-3.8675999)">
    <g
       transform="translate(16.0758,10.6778)"
       id="g172">
      <path
         stroke-width="0.0773"
         stroke-linejoin="round"
         stroke-linecap="round"
         stroke="currentColor"
         fill="currentColor"
         d="m 1.0678,-0.4997 c 1.9793,-1.7737 14.2956,-3.1028 16.6077,-1.7922 v 0 C 15.3758,-3.4873 3.0595,-2.1582 1.0678,-0.4997 Z"
         id="path170" />
    </g>
  </a>
  <g
     transform="translate(51.7388,6.8102001)"
     id="g178">
    <rect
       x="-0.062799998"
       y="-4.2537999"
       width="0.12549999"
       height="2.2923999"
       ry="0.039999999"
       fill="currentColor"
       id="rect176" />
  </g>
  <a
     style="color:inherit"
     xlink:href="textedit://C:/Users/Javier/Documents/lilypond%20scores/ricci%20left%20hand%20examples.ly:20:16:17"
     id="a184"
     transform="translate(-5.6906,-3.8675999)">
    <g
       transform="translate(56.4791,4.8696)"
       id="g182">
      <path
         transform="scale(0.002,-0.002)"
         d="m 198,284 c 24,15 48,29 65,52 12,16 19,34 28,52 2,5 6,7 11,7 8,0 16,-6 16,-17 V 161 h 79 c 12,0 18,-9 18,-18 0,-9 -6,-18 -18,-18 h -79 c 2,-51 33,-96 80,-96 10,0 15,-8 15,-15 C 413,7 408,0 398,0 349,0 302,14 253,14 204,14 156,0 107,0 97,0 93,7 93,14 c 0,7 4,15 14,15 47,0 79,45 81,96 H 36 c -29,0 -38,17 -38,28 0,3 1,6 2,8 78,88 123,201 123,319 0,11 8,21 17,21 1,0 3,-1 4,-1 25,-7 50,-14 76,-14 26,0 52,7 77,14 2,1 4,1 6,1 10,0 17,-7 17,-14 0,-2 0,-5 -2,-7 L 36,161 h 152 v 96 c 0,10 1,21 10,27 z"
         fill="currentColor"
         id="path180" />
    </g>
  </a>
  <a
     style="color:inherit"
     xlink:href="textedit://C:/Users/Javier/Documents/lilypond%20scores/ricci%20left%20hand%20examples.ly:20:13:14"
     id="a190"
     transform="translate(-5.6906,-3.8675999)">
    <g
       transform="translate(56.3197,8.8778)"
       id="g188">
      <path
         transform="scale(0.0036,-0.0036)"
         d="m 215,137 c 57,0 111,-29 111,-92 0,-71 -54,-120 -101,-148 -35,-21 -74,-34 -114,-34 -57,0 -111,29 -111,92 0,71 54,120 101,148 35,21 74,34 114,34 z"
         fill="currentColor"
         id="path186" />
    </g>
  </a>
  <g
     transform="translate(80.2091,6.8102001)"
     id="g194">
    <rect
       x="-0.062799998"
       y="0"
       width="0.12549999"
       height="3.4386001"
       ry="0.039999999"
       fill="currentColor"
       id="rect192" />
  </g>
  <a
     style="color:inherit"
     xlink:href="textedit://C:/Users/Javier/Documents/lilypond%20scores/ricci%20left%20hand%20examples.ly:20:51:52"
     id="a200"
     transform="translate(-5.6906,-3.8675999)">
    <g
       transform="translate(84.79,14.2778)"
       id="g198">
      <path
         transform="scale(0.0036,-0.0036)"
         d="m 215,137 c 57,0 111,-29 111,-92 0,-71 -54,-120 -101,-148 -35,-21 -74,-34 -114,-34 -57,0 -111,29 -111,92 0,71 54,120 101,148 35,21 74,34 114,34 z"
         fill="currentColor"
         id="path196" />
    </g>
  </a>
  <a
     style="color:inherit"
     xlink:href="textedit://C:/Users/Javier/Documents/lilypond%20scores/ricci%20left%20hand%20examples.ly:20:53:54"
     id="a206"
     transform="translate(-5.6906,-3.8675999)">
    <g
       transform="translate(87.1625,14.7278)"
       id="g204">
      <path
         transform="scale(0.0036,-0.0036)"
         d="m 215,137 c 57,0 111,-29 111,-92 0,-71 -54,-120 -101,-148 -35,-21 -74,-34 -114,-34 -57,0 -111,29 -111,92 0,71 54,120 101,148 35,21 74,34 114,34 z"
         fill="currentColor"
         id="path202" />
    </g>
  </a>
  <g
     transform="translate(77.8366,6.8102001)"
     id="g210">
    <rect
       x="-0.062799998"
       y="0"
       width="0.12549999"
       height="2.9886"
       ry="0.039999999"
       fill="currentColor"
       id="rect208" />
  </g>
  <a
     style="color:inherit"
     xlink:href="textedit://C:/Users/Javier/Documents/lilypond%20scores/ricci%20left%20hand%20examples.ly:20:48:49"
     id="a216"
     transform="translate(-5.6906,-3.8675999)">
    <g
       transform="translate(82.6281,8.0936)"
       id="g214">
      <path
         transform="scale(0.002,-0.002)"
         d="m 129,149 h 7 c 36,0 74,-13 111,-40 19,-14 40,-21 59,-21 22,0 40,10 46,31 2,7 7,11 13,11 7,0 15,-5 15,-14 v -5 C 361,40 296,0 234,0 196,0 159,15 133,47 121,62 105,69 89,69 60,69 32,48 29,13 28,4 22,0 15,0 8,0 0,5 0,14 c 0,173 233,163 233,341 0,56 -14,116 -62,116 -33,0 -66,-15 -66,-44 0,-24 31,-37 31,-61 0,-34 -27,-61 -61,-61 -34,0 -61,27 -61,61 0,78 74,134 157,134 98,0 191,-55 191,-145 C 362,211 227,199 129,149 Z"
         fill="currentColor"
         id="path212" />
    </g>
  </a>
  <a
     style="color:inherit"
     xlink:href="textedit://C:/Users/Javier/Documents/lilypond%20scores/ricci%20left%20hand%20examples.ly:20:47:48"
     id="a222"
     transform="translate(-5.6906,-3.8675999)">
    <g
       transform="translate(82.4174,13.8278)"
       id="g220">
      <path
         transform="scale(0.0036,-0.0036)"
         d="m 215,137 c 57,0 111,-29 111,-92 0,-71 -54,-120 -101,-148 -35,-21 -74,-34 -114,-34 -57,0 -111,29 -111,92 0,71 54,120 101,148 35,21 74,34 114,34 z"
         fill="currentColor"
         id="path218" />
    </g>
  </a>
  <g
     transform="translate(58.7936,3.3780001)"
     id="g226">
    <polygon
       stroke-linejoin="round"
       stroke-linecap="round"
       stroke-width="0.08"
       fill="currentColor"
       stroke="currentColor"
       points="7.2031,0.5563 7.2031,0.9083 0.04,0.176 0.04,-0.176 "
       id="polygon224" />
  </g>
  <g
     transform="translate(58.7936,4.1102001)"
     id="g230">
    <polygon
       stroke-linejoin="round"
       stroke-linecap="round"
       stroke-width="0.08"
       fill="currentColor"
       stroke="currentColor"
       points="7.2031,0.5563 7.2031,0.9083 0.04,0.176 0.04,-0.176 "
       id="polygon228" />
  </g>
  <g
     transform="translate(11.4322,6.9780001)"
     id="g234">
    <polygon
       stroke-linejoin="round"
       stroke-linecap="round"
       stroke-width="0.08"
       fill="currentColor"
       stroke="currentColor"
       points="7.2031,-0.3437 7.2031,0.0083 0.04,0.176 0.04,-0.176 "
       id="polygon232" />
  </g>
  <g
     transform="translate(11.4322,7.7102001)"
     id="g238">
    <polygon
       stroke-linejoin="round"
       stroke-linecap="round"
       stroke-width="0.08"
       fill="currentColor"
       stroke="currentColor"
       points="7.2031,-0.3437 7.2031,0.0083 0.04,0.176 0.04,-0.176 "
       id="polygon236" />
  </g>
  <a
     style="color:inherit"
     xlink:href="textedit://C:/Users/Javier/Documents/lilypond%20scores/ricci%20left%20hand%20examples.ly:19:41:42"
     id="a244"
     transform="translate(-5.6906,-3.8675999)">
    <g
       transform="translate(35.056,10.6778)"
       id="g242">
      <path
         stroke-width="0.0773"
         stroke-linejoin="round"
         stroke-linecap="round"
         stroke="currentColor"
         fill="currentColor"
         d="m 1.0566,-3.3723 c 1.803,-1.7656 12.0233,-3.1681 14.2352,-1.9535 v 0 C 13.0956,-6.4256 2.8753,-5.0231 1.0566,-3.3723 Z"
         id="path240" />
    </g>
  </a>
  <g
     transform="translate(20.9223,5.9102001)"
     id="g248">
    <polygon
       stroke-linejoin="round"
       stroke-linecap="round"
       stroke-width="0.08"
       fill="currentColor"
       stroke="currentColor"
       points="7.2031,-0.9083 7.2031,-0.5563 0.04,0.176 0.04,-0.176 "
       id="polygon246" />
  </g>
  <g
     transform="translate(20.9223,6.6425001)"
     id="g252">
    <polygon
       stroke-linejoin="round"
       stroke-linecap="round"
       stroke-width="0.08"
       fill="currentColor"
       stroke="currentColor"
       points="7.2031,-0.9083 7.2031,-0.5563 0.04,0.176 0.04,-0.176 "
       id="polygon250" />
  </g>
  <g
     transform="translate(30.4124,4.1102001)"
     id="g256">
    <polygon
       stroke-linejoin="round"
       stroke-linecap="round"
       stroke-width="0.08"
       fill="currentColor"
       stroke="currentColor"
       points="7.2031,-0.9083 7.2031,-0.5563 0.04,0.176 0.04,-0.176 "
       id="polygon254" />
  </g>
  <g
     transform="translate(30.4124,4.8425001)"
     id="g260">
    <polygon
       stroke-linejoin="round"
       stroke-linecap="round"
       stroke-width="0.08"
       fill="currentColor"
       stroke="currentColor"
       points="7.2031,-0.9083 7.2031,-0.5563 0.04,0.176 0.04,-0.176 "
       id="polygon258" />
  </g>
  <g
     transform="translate(39.9025,2.7602001)"
     id="g264">
    <polygon
       stroke-linejoin="round"
       stroke-linecap="round"
       stroke-width="0.08"
       fill="currentColor"
       stroke="currentColor"
       points="4.8306,-0.7937 4.8306,-0.4417 0.04,0.176 0.04,-0.176 "
       id="polygon262" />
  </g>
  <g
     transform="translate(39.9025,3.4925001)"
     id="g268">
    <polygon
       stroke-linejoin="round"
       stroke-linecap="round"
       stroke-width="0.08"
       fill="currentColor"
       stroke="currentColor"
       points="2.4581,-0.4928 2.4581,-0.1408 0.04,0.176 0.04,-0.176 "
       id="polygon266" />
  </g>
  <a
     style="color:inherit"
     xlink:href="textedit://C:/Users/Javier/Documents/lilypond%20scores/ricci%20left%20hand%20examples.ly:20:11:12"
     id="a274"
     transform="translate(-5.6906,-3.8675999)">
    <g
       transform="translate(53.9471,10.6778)"
       id="g272">
      <path
         stroke-width="0.0773"
         stroke-linejoin="round"
         stroke-linecap="round"
         stroke="currentColor"
         fill="currentColor"
         d="m 1.1516,-5.1597 c 2.3117,-1.3112 14.6279,0.0143 16.6077,1.7874 v 0 C 15.7671,-5.0302 3.4509,-6.3557 1.1516,-5.1597 Z"
         id="path270" />
    </g>
  </a>
  <g
     transform="translate(49.3035,2.3102001)"
     id="g278">
    <polygon
       stroke-linejoin="round"
       stroke-linecap="round"
       stroke-width="0.08"
       fill="currentColor"
       stroke="currentColor"
       points="7.2031,0.5563 7.2031,0.9083 0.04,0.176 0.04,-0.176 "
       id="polygon276" />
  </g>
  <g
     transform="translate(49.3035,3.0425001)"
     id="g282">
    <polygon
       stroke-linejoin="round"
       stroke-linecap="round"
       stroke-width="0.08"
       fill="currentColor"
       stroke="currentColor"
       points="7.2031,0.5563 7.2031,0.9083 0.04,0.176 0.04,-0.176 "
       id="polygon280" />
  </g>
  <a
     style="color:inherit"
     xlink:href="textedit://C:/Users/Javier/Documents/lilypond%20scores/ricci%20left%20hand%20examples.ly:20:37:38"
     id="a288"
     transform="translate(-5.6906,-3.8675999)">
    <g
       transform="translate(72.9273,10.6778)"
       id="g286">
      <path
         stroke-width="0.0773"
         stroke-linejoin="round"
         stroke-linecap="round"
         stroke="currentColor"
         fill="currentColor"
         d="m 1.1541,-2.2919 c 2.1812,-1.2638 12.3951,-0.0972 14.2352,1.6259 v 0 C 13.536,-2.2739 3.3222,-3.4406 1.1541,-2.2919 Z"
         id="path284" />
    </g>
  </a>
  <g
     transform="translate(75.4641,6.8102001)"
     id="g292">
    <rect
       x="-0.062799998"
       y="-0.90630001"
       width="0.12549999"
       height="3.4449"
       ry="0.039999999"
       fill="currentColor"
       id="rect290" />
  </g>
  <g
     transform="translate(68.2837,5.1780001)"
     id="g296">
    <polygon
       stroke-linejoin="round"
       stroke-linecap="round"
       stroke-width="0.08"
       fill="currentColor"
       stroke="currentColor"
       points="7.2031,0.5563 7.2031,0.9083 0.04,0.176 0.04,-0.176 "
       id="polygon294" />
  </g>
  <g
     transform="translate(68.2837,5.9102001)"
     id="g300">
    <polygon
       stroke-linejoin="round"
       stroke-linecap="round"
       stroke-width="0.08"
       fill="currentColor"
       stroke="currentColor"
       points="7.2031,0.5563 7.2031,0.9083 0.04,0.176 0.04,-0.176 "
       id="polygon298" />
  </g>
  <g
     transform="translate(77.7738,6.8102001)"
     id="g304">
    <polygon
       stroke-linejoin="round"
       stroke-linecap="round"
       stroke-width="0.08"
       fill="currentColor"
       stroke="currentColor"
       points="4.8306,-0.176 4.8306,0.176 0.04,0.176 0.04,-0.176 "
       id="polygon302" />
  </g>
  <g
     transform="translate(77.7738,7.5425001)"
     id="g308">
    <polygon
       stroke-linejoin="round"
       stroke-linecap="round"
       stroke-width="0.08"
       fill="currentColor"
       stroke="currentColor"
       points="2.4581,-0.176 2.4581,0.176 0.04,0.176 0.04,-0.176 "
       id="polygon306" />
  </g>
  <g
     transform="translate(82.5816,6.8102001)"
     id="g312">
    <rect
       x="-0.062799998"
       y="0"
       width="0.12549999"
       height="3.8886001"
       ry="0.039999999"
       fill="currentColor"
       id="rect310" />
  </g>
  <a
     style="color:inherit"
     xlink:href="textedit://C:/Users/Javier/Documents/lilypond%20scores/ricci%20left%20hand%20examples.ly:20:34:35"
     id="a318"
     transform="translate(-5.6906,-3.8675999)">
    <g
       transform="translate(72.9273,12.0278)"
       id="g316">
      <path
         transform="scale(0.0036,-0.0036)"
         d="m 215,137 c 57,0 111,-29 111,-92 0,-71 -54,-120 -101,-148 -35,-21 -74,-34 -114,-34 -57,0 -111,29 -111,92 0,71 54,120 101,148 35,21 74,34 114,34 z"
         fill="currentColor"
         id="path314" />
    </g>
  </a>
  <g
     transform="translate(67.2995,6.8102001)"
     id="g322">
    <rect
       x="-0.062799998"
       y="2.4777"
       width="0.12549999"
       height="2.0223"
       ry="0.039999999"
       fill="currentColor"
       id="rect320" />
  </g>
  <g
     transform="translate(68.3465,6.8102001)"
     id="g326">
    <rect
       x="-0.062799998"
       y="-1.6259"
       width="0.12549999"
       height="2.8145001"
       ry="0.039999999"
       fill="currentColor"
       id="rect324" />
  </g>
  <a
     style="color:inherit"
     xlink:href="textedit://C:/Users/Javier/Documents/lilypond%20scores/ricci%20left%20hand%20examples.ly:22:17:18"
     id="a332"
     transform="translate(-5.6906,-3.8675999)">
    <g
       transform="translate(72.9273,12.9278)"
       id="g330">
      <path
         transform="scale(0.0036,-0.0036)"
         d="m 312,64 c 0,24 -20,41 -41,41 -4,0 -8,-1 -12,-2 C 229,94 182,65 146,41 110,17 63,-13 43,-37 36,-45 33,-54 33,-64 c 0,-24 20,-41 41,-41 4,0 8,1 12,2 30,9 77,38 113,62 36,24 83,54 103,78 7,8 10,17 10,27 z m -53,73 c 48,0 86,-22 86,-74 0,-18 -4,-38 -10,-56 -12,-38 -30,-73 -63,-95 -53,-36 -113,-49 -186,-49 -48,0 -86,22 -86,74 0,18 4,38 10,56 12,38 31,73 64,95 53,36 112,49 185,49 z"
         fill="currentColor"
         id="path328" />
    </g>
  </a>
  <a
     style="color:inherit"
     xlink:href="textedit://C:/Users/Javier/Documents/lilypond%20scores/ricci%20left%20hand%20examples.ly:20:38:39"
     id="a338"
     transform="translate(-5.6906,-3.8675999)">
    <g
       transform="translate(73.0868,8.3796)"
       id="g336">
      <path
         transform="scale(0.002,-0.002)"
         d="m 198,284 c 24,15 48,29 65,52 12,16 19,34 28,52 2,5 6,7 11,7 8,0 16,-6 16,-17 V 161 h 79 c 12,0 18,-9 18,-18 0,-9 -6,-18 -18,-18 h -79 c 2,-51 33,-96 80,-96 10,0 15,-8 15,-15 C 413,7 408,0 398,0 349,0 302,14 253,14 204,14 156,0 107,0 97,0 93,7 93,14 c 0,7 4,15 14,15 47,0 79,45 81,96 H 36 c -29,0 -38,17 -38,28 0,3 1,6 2,8 78,88 123,201 123,319 0,11 8,21 17,21 1,0 3,-1 4,-1 25,-7 50,-14 76,-14 26,0 52,7 77,14 2,1 4,1 6,1 10,0 17,-7 17,-14 0,-2 0,-5 -2,-7 L 36,161 h 152 v 96 c 0,10 1,21 10,27 z"
         fill="currentColor"
         id="path334" />
    </g>
  </a>
  <g
     transform="translate(65.974,6.8102001)"
     id="g342">
    <rect
       x="-0.062799998"
       y="-2.7063"
       width="0.12549999"
       height="3.4449"
       ry="0.039999999"
       fill="currentColor"
       id="rect340" />
  </g>
  <a
     style="color:inherit"
     xlink:href="textedit://C:/Users/Javier/Documents/lilypond%20scores/ricci%20left%20hand%20examples.ly:20:31:32"
     id="a348"
     transform="translate(-5.6906,-3.8675999)">
    <g
       transform="translate(70.5548,11.5778)"
       id="g346">
      <path
         transform="scale(0.0036,-0.0036)"
         d="m 215,137 c 57,0 111,-29 111,-92 0,-71 -54,-120 -101,-148 -35,-21 -74,-34 -114,-34 -57,0 -111,29 -111,92 0,71 54,120 101,148 35,21 74,34 114,34 z"
         fill="currentColor"
         id="path344" />
    </g>
  </a>
  <a
     style="color:inherit"
     xlink:href="textedit://C:/Users/Javier/Documents/lilypond%20scores/ricci%20left%20hand%20examples.ly:20:45:46"
     id="a354"
     transform="translate(-5.6906,-3.8675999)">
    <g
       transform="translate(80.0449,13.3778)"
       id="g352">
      <path
         transform="scale(0.0036,-0.0036)"
         d="m 215,137 c 57,0 111,-29 111,-92 0,-71 -54,-120 -101,-148 -35,-21 -74,-34 -114,-34 -57,0 -111,29 -111,92 0,71 54,120 101,148 35,21 74,34 114,34 z"
         fill="currentColor"
         id="path350" />
    </g>
  </a>
  <g
     transform="translate(73.0915,6.8102001)"
     id="g358">
    <rect
       x="-0.062799998"
       y="-1.1461999"
       width="0.12549999"
       height="3.2348001"
       ry="0.039999999"
       fill="currentColor"
       id="rect356" />
  </g>
  <a
     style="color:inherit"
     xlink:href="textedit://C:/Users/Javier/Documents/lilypond%20scores/ricci%20left%20hand%20examples.ly:20:43:44"
     id="a364"
     transform="translate(-5.6906,-3.8675999)">
    <g
       transform="translate(77.6724,12.9278)"
       id="g362">
      <path
         transform="scale(0.0036,-0.0036)"
         d="m 215,137 c 57,0 111,-29 111,-92 0,-71 -54,-120 -101,-148 -35,-21 -74,-34 -114,-34 -57,0 -111,29 -111,92 0,71 54,120 101,148 35,21 74,34 114,34 z"
         fill="currentColor"
         id="path360" />
    </g>
  </a>
  <g
     transform="translate(70.719,6.8102001)"
     id="g368">
    <rect
       x="-0.062799998"
       y="-1.3861001"
       width="0.12549999"
       height="3.0246"
       ry="0.039999999"
       fill="currentColor"
       id="rect366" />
  </g>
  <a
     style="color:inherit"
     xlink:href="textedit://C:/Users/Javier/Documents/lilypond%20scores/ricci%20left%20hand%20examples.ly:20:41:42"
     id="a374"
     transform="translate(-5.6906,-3.8675999)">
    <g
       transform="translate(75.2999,12.4778)"
       id="g372">
      <path
         transform="scale(0.0036,-0.0036)"
         d="m 215,137 c 57,0 111,-29 111,-92 0,-71 -54,-120 -101,-148 -35,-21 -74,-34 -114,-34 -57,0 -111,29 -111,92 0,71 54,120 101,148 35,21 74,34 114,34 z"
         fill="currentColor"
         id="path370" />
    </g>
  </a>
  <a
     style="color:inherit"
     xlink:href="textedit://C:/Users/Javier/Documents/lilypond%20scores/ricci%20left%20hand%20examples.ly:19:21:22"
     id="a380"
     transform="translate(-5.6906,-3.8675999)">
    <g
       transform="translate(23.1934,13.3778)"
       id="g378">
      <path
         transform="scale(0.0036,-0.0036)"
         d="m 215,137 c 57,0 111,-29 111,-92 0,-71 -54,-120 -101,-148 -35,-21 -74,-34 -114,-34 -57,0 -111,29 -111,92 0,71 54,120 101,148 35,21 74,34 114,34 z"
         fill="currentColor"
         id="path376" />
    </g>
  </a>
  <a
     style="color:inherit"
     xlink:href="textedit://C:/Users/Javier/Documents/lilypond%20scores/ricci%20left%20hand%20examples.ly:19:25:26"
     id="a386"
     transform="translate(-5.6906,-3.8675999)">
    <g
       transform="translate(25.5659,12.9278)"
       id="g384">
      <path
         transform="scale(0.0036,-0.0036)"
         d="m 215,137 c 57,0 111,-29 111,-92 0,-71 -54,-120 -101,-148 -35,-21 -74,-34 -114,-34 -57,0 -111,29 -111,92 0,71 54,120 101,148 35,21 74,34 114,34 z"
         fill="currentColor"
         id="path382" />
    </g>
  </a>
  <g
     transform="translate(18.6125,6.8102001)"
     id="g390">
    <rect
       x="-0.062799998"
       y="0.0015"
       width="0.12549999"
       height="2.5371001"
       ry="0.039999999"
       fill="currentColor"
       id="rect388" />
  </g>
  <a
     style="color:inherit"
     xlink:href="textedit://C:/Users/Javier/Documents/lilypond%20scores/ricci%20left%20hand%20examples.ly:19:22:23"
     id="a396"
     transform="translate(-5.6906,-3.8675999)">
    <g
       transform="translate(23.4211,8.1106)"
       id="g394">
      <path
         transform="scale(0.002,-0.002)"
         d="M 129,129 H 259 C 259,77 291,29 340,29 350,29 354,21 354,14 354,7 350,0 340,0 291,0 243,14 194,14 145,14 98,0 49,0 39,0 34,7 34,14 c 0,7 5,15 15,15 49,0 80,48 80,100 z M 0,250 129,500 c 3,7 13,3 21,0 14,-6 28,-14 44,-14 16,0 31,8 45,14 2,1 2,1 4,1 8,0 16,-9 16,-21 V 129 H 129 v 215 c 0,15 -11,23 -20,23 -5,0 -9,-2 -11,-7 L 32,233 c -4,-7 -9,-9 -15,-9 -9,0 -19,7 -19,17 0,3 0,6 2,9 z"
         fill="currentColor"
         id="path392" />
    </g>
  </a>
  <g
     transform="translate(20.985,6.8102001)"
     id="g400">
    <rect
       x="-0.062799998"
       y="-0.90630001"
       width="0.12549999"
       height="2.9949"
       ry="0.039999999"
       fill="currentColor"
       id="rect398" />
  </g>
  <g
     transform="translate(16.24,6.8102001)"
     id="g404">
    <rect
       x="-0.062799998"
       y="0.056400001"
       width="0.12549999"
       height="2.9322"
       ry="0.039999999"
       fill="currentColor"
       id="rect402" />
  </g>
  <a
     style="color:inherit"
     xlink:href="textedit://C:/Users/Javier/Documents/lilypond%20scores/ricci%20left%20hand%20examples.ly:19:19:20"
     id="a410"
     transform="translate(-5.6906,-3.8675999)">
    <g
       transform="translate(20.8208,13.8278)"
       id="g408">
      <path
         transform="scale(0.0036,-0.0036)"
         d="m 215,137 c 57,0 111,-29 111,-92 0,-71 -54,-120 -101,-148 -35,-21 -74,-34 -114,-34 -57,0 -111,29 -111,92 0,71 54,120 101,148 35,21 74,34 114,34 z"
         fill="currentColor"
         id="path406" />
    </g>
  </a>
  <g
     transform="translate(23.3576,6.8102001)"
     id="g414">
    <rect
       x="-0.062799998"
       y="-1.1461999"
       width="0.12549999"
       height="2.7848001"
       ry="0.039999999"
       fill="currentColor"
       id="rect412" />
  </g>
  <g
     transform="translate(25.7301,6.8102001)"
     id="g418">
    <rect
       x="-0.062799998"
       y="-1.3861001"
       width="0.12549999"
       height="2.5746"
       ry="0.039999999"
       fill="currentColor"
       id="rect416" />
  </g>
  <a
     style="color:inherit"
     xlink:href="textedit://C:/Users/Javier/Documents/lilypond%20scores/ricci%20left%20hand%20examples.ly:19:31:32"
     id="a424"
     transform="translate(-5.6906,-3.8675999)">
    <g
       transform="translate(30.3109,12.0278)"
       id="g422">
      <path
         transform="scale(0.0036,-0.0036)"
         d="m 215,137 c 57,0 111,-29 111,-92 0,-71 -54,-120 -101,-148 -35,-21 -74,-34 -114,-34 -57,0 -111,29 -111,92 0,71 54,120 101,148 35,21 74,34 114,34 z"
         fill="currentColor"
         id="path420" />
    </g>
  </a>
  <a
     style="color:inherit"
     xlink:href="textedit://C:/Users/Javier/Documents/lilypond%20scores/ricci%20left%20hand%20examples.ly:19:28:29"
     id="a430"
     transform="translate(-5.6906,-3.8675999)">
    <g
       transform="translate(28.1662,7.7116)"
       id="g428">
      <path
         transform="scale(0.002,-0.002)"
         d="M 129,129 H 259 C 259,77 291,29 340,29 350,29 354,21 354,14 354,7 350,0 340,0 291,0 243,14 194,14 145,14 98,0 49,0 39,0 34,7 34,14 c 0,7 5,15 15,15 49,0 80,48 80,100 z M 0,250 129,500 c 3,7 13,3 21,0 14,-6 28,-14 44,-14 16,0 31,8 45,14 2,1 2,1 4,1 8,0 16,-9 16,-21 V 129 H 129 v 215 c 0,15 -11,23 -20,23 -5,0 -9,-2 -11,-7 L 32,233 c -4,-7 -9,-9 -15,-9 -9,0 -19,7 -19,17 0,3 0,6 2,9 z"
         fill="currentColor"
         id="path426" />
    </g>
  </a>
  <a
     style="color:inherit"
     xlink:href="textedit://C:/Users/Javier/Documents/lilypond%20scores/ricci%20left%20hand%20examples.ly:19:27:28"
     id="a436"
     transform="translate(-5.6906,-3.8675999)">
    <g
       transform="translate(27.9384,12.4778)"
       id="g434">
      <path
         transform="scale(0.0036,-0.0036)"
         d="m 215,137 c 57,0 111,-29 111,-92 0,-71 -54,-120 -101,-148 -35,-21 -74,-34 -114,-34 -57,0 -111,29 -111,92 0,71 54,120 101,148 35,21 74,34 114,34 z"
         fill="currentColor"
         id="path432" />
    </g>
  </a>
  <g
     transform="translate(0.80000003,7.7102001)"
     id="g440">
    <path
       transform="scale(0.0036,-0.0036)"
       d="m 378,263 c 4,0 7,1 11,1 156,0 257,-129 257,-262 0,-76 -34,-154 -108,-210 -22,-17 -46,-29 -72,-37 3,-34 5,-68 5,-102 0,-20 -1,-40 -2,-60 -7,-121 -90,-228 -209,-228 -108,0 -196,87 -196,196 0,58 53,104 112,104 54,0 95,-48 95,-104 0,-52 -43,-95 -95,-95 -10,0 -20,2 -29,6 26,-38 68,-63 116,-63 h 3 c 93,2 153,92 159,190 1,19 2,37 2,56 0,30 -2,60 -4,90 -29,-5 -58,-8 -88,-8 -188,0 -333,173 -333,375 0,177 130,307 246,442 -20,62 -38,125 -46,190 -6,52 -7,104 -7,157 0,115 55,223 148,290 7,5 16,4 22,-1 71,-83 134,-244 134,-357 0,-143 -85,-255 -178,-364 21,-68 40,-137 57,-206 z m 84,-465 c 67,24 111,94 111,162 0,89 -65,178 -170,190 24,-115 46,-230 59,-352 z M 75,26 c 0,-134 129,-245 263,-245 28,0 55,2 81,6 C 405,-87 383,31 358,150 279,142 234,89 234,31 c 0,-43 25,-89 80,-121 5,-5 7,-11 7,-16 0,-12 -10,-23 -22,-23 -3,0 -6,1 -9,2 -81,43 -118,116 -118,186 0,89 58,175 161,198 -14,58 -29,116 -46,173 C 181,308 75,186 75,26 Z M 406,1042 C 307,995 244,894 244,785 c 0,-73 20,-132 38,-191 79,97 144,199 144,324 0,53 -4,76 -20,124 z"
       fill="currentColor"
       id="path438" />
  </g>
  <g
     transform="translate(10.0255,6.8102001)"
     id="g444">
    <rect
       x="-0.062799998"
       y="2.4777"
       width="0.12549999"
       height="2.0223"
       ry="0.039999999"
       fill="currentColor"
       id="rect442" />
  </g>
  <g
     transform="translate(11.4949,6.8102001)"
     id="g448">
    <rect
       x="-0.062799998"
       y="0.1663"
       width="0.12549999"
       height="3.7223001"
       ry="0.039999999"
       fill="currentColor"
       id="rect446" />
  </g>
  <g
     transform="translate(6.44,6.8102001)"
     id="g452">
    <path
       transform="scale(0.0036,-0.0036)"
       d="m 358,29 c -49,0 -74,41 -74,73 0,38 27,76 71,76 4,0 7,0 11,-1 -27,36 -69,59 -116,59 -106,0 -113,-74 -113,-188 0,-15 1,-31 1,-48 0,-17 -1,-33 -1,-48 0,-114 7,-188 113,-188 79,0 136,70 155,150 2,7 7,10 13,10 7,0 14,-5 14,-13 0,-95 -105,-175 -182,-175 -68,0 -137,20 -184,70 C 17,-143 0,-71 0,0 c 0,71 17,143 66,194 47,50 116,70 184,70 86,0 159,-66 173,-152 1,-4 1,-9 1,-13 0,-39 -30,-70 -66,-70 z"
       fill="currentColor"
       id="path450" />
  </g>
  <a
     style="color:inherit"
     xlink:href="textedit://C:/Users/Javier/Documents/lilypond%20scores/ricci%20left%20hand%20examples.ly:17:8:9"
     id="a458"
     transform="translate(-5.6906,-3.8675999)">
    <g
       transform="translate(9.9906,8.8778)"
       id="g456">
      <path
         transform="scale(0.0036,-0.0036)"
         d="m 217,-311 c 0,-11 -8,-19 -19,-19 -11,0 -20,8 -20,19 v 142 l -81,-30 v -156 c 0,-11 -9,-20 -20,-20 -11,0 -19,9 -19,20 v 142 l -28,-11 c -3,-1 -5,-1 -8,-1 -12,0 -22,10 -22,23 v 57 c 0,9 6,18 15,21 l 43,16 V 49 L 30,39 C 27,38 25,38 22,38 10,38 0,47 0,60 v 57 c 0,9 6,18 15,21 l 43,16 v 157 c 0,11 8,19 19,19 11,0 20,-8 20,-19 V 169 l 81,30 v 156 c 0,11 9,20 20,20 11,0 19,-9 19,-20 V 213 l 28,11 c 3,1 5,1 8,1 12,0 22,-10 22,-23 v -57 c 0,-9 -6,-18 -15,-21 L 217,108 V -49 l 28,10 c 3,1 5,1 8,1 12,0 22,-9 22,-22 v -57 c 0,-9 -6,-18 -15,-21 l -43,-16 z M 97,64 V -94 l 81,30 V 94 Z"
         fill="currentColor"
         id="path454" />
    </g>
  </a>
  <a
     style="color:inherit"
     xlink:href="textedit://C:/Users/Javier/Documents/lilypond%20scores/ricci%20left%20hand%20examples.ly:22:9:10"
     id="a464"
     transform="translate(-5.6906,-3.8675999)">
    <g
       transform="translate(15.6533,12.9278)"
       id="g462">
      <path
         transform="scale(0.0036,-0.0036)"
         d="m 312,64 c 0,24 -20,41 -41,41 -4,0 -8,-1 -12,-2 C 229,94 182,65 146,41 110,17 63,-13 43,-37 36,-45 33,-54 33,-64 c 0,-24 20,-41 41,-41 4,0 8,1 12,2 30,9 77,38 113,62 36,24 83,54 103,78 7,8 10,17 10,27 z m -53,73 c 48,0 86,-22 86,-74 0,-18 -4,-38 -10,-56 -12,-38 -30,-73 -63,-95 -53,-36 -113,-49 -186,-49 -48,0 -86,22 -86,74 0,18 4,38 10,56 12,38 31,73 64,95 53,36 112,49 185,49 z"
         fill="currentColor"
         id="path460" />
    </g>
  </a>
  <a
     style="color:inherit"
     xlink:href="textedit://C:/Users/Javier/Documents/lilypond%20scores/ricci%20left%20hand%20examples.ly:19:13:14"
     id="a472"
     transform="translate(-5.6906,-3.8675999)">
    <g
       transform="translate(16.0758,8.3354)"
       id="g470">
      <text
         font-family="serif"
         font-size="1.98px"
         text-anchor="start"
         fill="currentColor"
         id="text468"><tspan
           id="tspan466">IV</tspan></text>
    </g>
  </a>
  <a
     style="color:inherit"
     xlink:href="textedit://C:/Users/Javier/Documents/lilypond%20scores/ricci%20left%20hand%20examples.ly:19:9:10"
     id="a478"
     transform="translate(-5.6906,-3.8675999)">
    <g
       transform="translate(16.0758,14.7278)"
       id="g476">
      <path
         transform="scale(0.0036,-0.0036)"
         d="m 215,137 c 57,0 111,-29 111,-92 0,-71 -54,-120 -101,-148 -35,-21 -74,-34 -114,-34 -57,0 -111,29 -111,92 0,71 54,120 101,148 35,21 74,34 114,34 z"
         fill="currentColor"
         id="path474" />
    </g>
  </a>
  <g
     transform="translate(13.8675,6.8102001)"
     id="g482">
    <rect
       x="-0.062799998"
       y="0.1113"
       width="0.12549999"
       height="3.3271999"
       ry="0.039999999"
       fill="currentColor"
       id="rect480" />
  </g>
  <a
     style="color:inherit"
     xlink:href="textedit://C:/Users/Javier/Documents/lilypond%20scores/ricci%20left%20hand%20examples.ly:19:17:18"
     id="a488"
     transform="translate(-5.6906,-3.8675999)">
    <g
       transform="translate(18.4483,14.2778)"
       id="g486">
      <path
         transform="scale(0.0036,-0.0036)"
         d="m 215,137 c 57,0 111,-29 111,-92 0,-71 -54,-120 -101,-148 -35,-21 -74,-34 -114,-34 -57,0 -111,29 -111,92 0,71 54,120 101,148 35,21 74,34 114,34 z"
         fill="currentColor"
         id="path484" />
    </g>
  </a>
  <g
     transform="translate(35.2202,6.8102001)"
     id="g492">
    <rect
       x="-0.062799998"
       y="-3.1861"
       width="0.12549999"
       height="2.5746"
       ry="0.039999999"
       fill="currentColor"
       id="rect490" />
  </g>
  <a
     style="color:inherit"
     xlink:href="textedit://C:/Users/Javier/Documents/lilypond%20scores/ricci%20left%20hand%20examples.ly:19:47:48"
     id="a498"
     transform="translate(-5.6906,-3.8675999)">
    <g
       transform="translate(39.801,10.2278)"
       id="g496">
      <path
         transform="scale(0.0036,-0.0036)"
         d="m 215,137 c 57,0 111,-29 111,-92 0,-71 -54,-120 -101,-148 -35,-21 -74,-34 -114,-34 -57,0 -111,29 -111,92 0,71 54,120 101,148 35,21 74,34 114,34 z"
         fill="currentColor"
         id="path494" />
    </g>
  </a>
  <a
     style="color:inherit"
     xlink:href="textedit://C:/Users/Javier/Documents/lilypond%20scores/ricci%20left%20hand%20examples.ly:19:49:50"
     id="a504"
     transform="translate(-5.6906,-3.8675999)">
    <g
       transform="translate(42.1736,9.7778)"
       id="g502">
      <path
         transform="scale(0.0036,-0.0036)"
         d="m 215,137 c 57,0 111,-29 111,-92 0,-71 -54,-120 -101,-148 -35,-21 -74,-34 -114,-34 -57,0 -111,29 -111,92 0,71 54,120 101,148 35,21 74,34 114,34 z"
         fill="currentColor"
         id="path500" />
    </g>
  </a>
  <g
     transform="translate(32.8477,6.8102001)"
     id="g508">
    <rect
       x="-0.062799998"
       y="-2.9461999"
       width="0.12549999"
       height="2.7848001"
       ry="0.039999999"
       fill="currentColor"
       id="rect506" />
  </g>
  <a
     style="color:inherit"
     xlink:href="textedit://C:/Users/Javier/Documents/lilypond%20scores/ricci%20left%20hand%20examples.ly:19:44:45"
     id="a514"
     transform="translate(-5.6906,-3.8675999)">
    <g
       transform="translate(37.6563,6.0405)"
       id="g512">
      <path
         transform="scale(0.002,-0.002)"
         d="M 129,129 H 259 C 259,77 291,29 340,29 350,29 354,21 354,14 354,7 350,0 340,0 291,0 243,14 194,14 145,14 98,0 49,0 39,0 34,7 34,14 c 0,7 5,15 15,15 49,0 80,48 80,100 z M 0,250 129,500 c 3,7 13,3 21,0 14,-6 28,-14 44,-14 16,0 31,8 45,14 2,1 2,1 4,1 8,0 16,-9 16,-21 V 129 H 129 v 215 c 0,15 -11,23 -20,23 -5,0 -9,-2 -11,-7 L 32,233 c -4,-7 -9,-9 -15,-9 -9,0 -19,7 -19,17 0,3 0,6 2,9 z"
         fill="currentColor"
         id="path510" />
    </g>
  </a>
  <a
     style="color:inherit"
     xlink:href="textedit://C:/Users/Javier/Documents/lilypond%20scores/ricci%20left%20hand%20examples.ly:19:43:44"
     id="a520"
     transform="translate(-5.6906,-3.8675999)">
    <g
       transform="translate(37.4285,10.6778)"
       id="g518">
      <path
         transform="scale(0.0036,-0.0036)"
         d="m 215,137 c 57,0 111,-29 111,-92 0,-71 -54,-120 -101,-148 -35,-21 -74,-34 -114,-34 -57,0 -111,29 -111,92 0,71 54,120 101,148 35,21 74,34 114,34 z"
         fill="currentColor"
         id="path516" />
    </g>
  </a>
  <a
     style="color:inherit"
     xlink:href="textedit://C:/Users/Javier/Documents/lilypond%20scores/ricci%20left%20hand%20examples.ly:19:50:51"
     id="a526"
     transform="translate(-5.6906,-3.8675999)">
    <g
       transform="translate(42.4013,5.0494)"
       id="g524">
      <path
         transform="scale(0.002,-0.002)"
         d="M 129,129 H 259 C 259,77 291,29 340,29 350,29 354,21 354,14 354,7 350,0 340,0 291,0 243,14 194,14 145,14 98,0 49,0 39,0 34,7 34,14 c 0,7 5,15 15,15 49,0 80,48 80,100 z M 0,250 129,500 c 3,7 13,3 21,0 14,-6 28,-14 44,-14 16,0 31,8 45,14 2,1 2,1 4,1 8,0 16,-9 16,-21 V 129 H 129 v 215 c 0,15 -11,23 -20,23 -5,0 -9,-2 -11,-7 L 32,233 c -4,-7 -9,-9 -15,-9 -9,0 -19,7 -19,17 0,3 0,6 2,9 z"
         fill="currentColor"
         id="path522" />
    </g>
  </a>
  <g
     transform="translate(37.5927,6.8102001)"
     id="g530">
    <rect
       x="-0.062799998"
       y="-3.4259"
       width="0.12549999"
       height="2.3645"
       ry="0.039999999"
       fill="currentColor"
       id="rect528" />
  </g>
  <a
     style="color:inherit"
     xlink:href="textedit://C:/Users/Javier/Documents/lilypond%20scores/ricci%20left%20hand%20examples.ly:19:53:54"
     id="a536"
     transform="translate(-5.6906,-3.8675999)">
    <g
       transform="translate(44.5461,9.3278)"
       id="g534">
      <path
         transform="scale(0.0036,-0.0036)"
         d="m 215,137 c 57,0 111,-29 111,-92 0,-71 -54,-120 -101,-148 -35,-21 -74,-34 -114,-34 -57,0 -111,29 -111,92 0,71 54,120 101,148 35,21 74,34 114,34 z"
         fill="currentColor"
         id="path532" />
    </g>
  </a>
  <g
     transform="translate(39.9652,6.8102001)"
     id="g540">
    <rect
       x="-0.062799998"
       y="-4.0580001"
       width="0.12549999"
       height="2.5465"
       ry="0.039999999"
       fill="currentColor"
       id="rect538" />
  </g>
  <a
     style="color:inherit"
     xlink:href="textedit://C:/Users/Javier/Documents/lilypond%20scores/ricci%20left%20hand%20examples.ly:19:55:56"
     id="a546"
     transform="translate(-5.6906,-3.8675999)">
    <g
       transform="translate(46.9186,8.8778)"
       id="g544">
      <path
         transform="scale(0.0036,-0.0036)"
         d="m 215,137 c 57,0 111,-29 111,-92 0,-71 -54,-120 -101,-148 -35,-21 -74,-34 -114,-34 -57,0 -111,29 -111,92 0,71 54,120 101,148 35,21 74,34 114,34 z"
         fill="currentColor"
         id="path542" />
    </g>
  </a>
  <g
     transform="translate(42.3378,6.8102001)"
     id="g550">
    <rect
       x="-0.062799998"
       y="-4.3589001"
       width="0.12549999"
       height="2.3973999"
       ry="0.039999999"
       fill="currentColor"
       id="rect548" />
  </g>
  <a
     style="color:inherit"
     xlink:href="textedit://C:/Users/Javier/Documents/lilypond%20scores/ricci%20left%20hand%20examples.ly:19:35:36"
     id="a556"
     transform="translate(-5.6906,-3.8675999)">
    <g
       transform="translate(32.6835,11.5778)"
       id="g554">
      <path
         transform="scale(0.0036,-0.0036)"
         d="m 215,137 c 57,0 111,-29 111,-92 0,-71 -54,-120 -101,-148 -35,-21 -74,-34 -114,-34 -57,0 -111,29 -111,92 0,71 54,120 101,148 35,21 74,34 114,34 z"
         fill="currentColor"
         id="path552" />
    </g>
  </a>
  <g
     transform="translate(28.1026,6.8102001)"
     id="g560">
    <rect
       x="-0.062799998"
       y="-1.6259"
       width="0.12549999"
       height="2.3645"
       ry="0.039999999"
       fill="currentColor"
       id="rect558" />
  </g>
  <a
     style="color:inherit"
     xlink:href="textedit://C:/Users/Javier/Documents/lilypond%20scores/ricci%20left%20hand%20examples.ly:19:36:37"
     id="a566"
     transform="translate(-5.6906,-3.8675999)">
    <g
       transform="translate(32.9112,7.911)"
       id="g564">
      <path
         transform="scale(0.002,-0.002)"
         d="M 129,129 H 259 C 259,77 291,29 340,29 350,29 354,21 354,14 354,7 350,0 340,0 291,0 243,14 194,14 145,14 98,0 49,0 39,0 34,7 34,14 c 0,7 5,15 15,15 49,0 80,48 80,100 z M 0,250 129,500 c 3,7 13,3 21,0 14,-6 28,-14 44,-14 16,0 31,8 45,14 2,1 2,1 4,1 8,0 16,-9 16,-21 V 129 H 129 v 215 c 0,15 -11,23 -20,23 -5,0 -9,-2 -11,-7 L 32,233 c -4,-7 -9,-9 -15,-9 -9,0 -19,7 -19,17 0,3 0,6 2,9 z"
         fill="currentColor"
         id="path562" />
    </g>
  </a>
  <a
     style="color:inherit"
     xlink:href="textedit://C:/Users/Javier/Documents/lilypond%20scores/ricci%20left%20hand%20examples.ly:19:40:41"
     id="a572"
     transform="translate(-5.6906,-3.8675999)">
    <g
       transform="translate(35.056,11.1278)"
       id="g570">
      <path
         transform="scale(0.0036,-0.0036)"
         d="m 215,137 c 57,0 111,-29 111,-92 0,-71 -54,-120 -101,-148 -35,-21 -74,-34 -114,-34 -57,0 -111,29 -111,92 0,71 54,120 101,148 35,21 74,34 114,34 z"
         fill="currentColor"
         id="path568" />
    </g>
  </a>
  <a
     style="color:inherit"
     xlink:href="textedit://C:/Users/Javier/Documents/lilypond%20scores/ricci%20left%20hand%20examples.ly:22:13:14"
     id="a578"
     transform="translate(-5.6906,-3.8675999)">
    <g
       transform="translate(35.056,12.9278)"
       id="g576">
      <path
         transform="scale(0.0036,-0.0036)"
         d="m 312,64 c 0,24 -20,41 -41,41 -4,0 -8,-1 -12,-2 C 229,94 182,65 146,41 110,17 63,-13 43,-37 36,-45 33,-54 33,-64 c 0,-24 20,-41 41,-41 4,0 8,1 12,2 30,9 77,38 113,62 36,24 83,54 103,78 7,8 10,17 10,27 z m -53,73 c 48,0 86,-22 86,-74 0,-18 -4,-38 -10,-56 -12,-38 -30,-73 -63,-95 -53,-36 -113,-49 -186,-49 -48,0 -86,22 -86,74 0,18 4,38 10,56 12,38 31,73 64,95 53,36 112,49 185,49 z"
         fill="currentColor"
         id="path574" />
    </g>
  </a>
  <g
     transform="translate(30.4751,6.8102001)"
     id="g582">
    <rect
       x="-0.062799998"
       y="-2.7063"
       width="0.12549999"
       height="2.9949"
       ry="0.039999999"
       fill="currentColor"
       id="rect580" />
  </g>
  <g
     transform="translate(29.4281,6.8102001)"
     id="g586">
    <rect
       x="-0.062799998"
       y="2.4777"
       width="0.12549999"
       height="2.0223"
       ry="0.039999999"
       fill="currentColor"
       id="rect584" />
  </g>
</svg>
