<!-- <?xml version="1.0" encoding="UTF-8" standalone="no"?> -->
<svg
   version="1.2"
   width="112.92909mm"
   height="26.929873mm"
   viewBox="0 0 64.262892 15.324584"
   id="svg67467"
   sodipodi:docname="ricci left hand examples-3.svg"
   xmlns:inkscape="http://www.inkscape.org/namespaces/inkscape"
   xmlns:sodipodi="http://sodipodi.sourceforge.net/DTD/sodipodi-0.dtd"
   xmlns:xlink="http://www.w3.org/1999/xlink"
   xmlns="http://www.w3.org/2000/svg"
   xmlns:svg="http://www.w3.org/2000/svg">
  <defs
     id="defs67471" />
  <sodipodi:namedview
     id="namedview67469"
     pagecolor="#ffffff"
     bordercolor="#000000"
     borderopacity="0.25"
     inkscape:showpageshadow="2"
     inkscape:pageopacity="0.0"
     inkscape:pagecheckerboard="0"
     inkscape:deskcolor="#d1d1d1"
     inkscape:document-units="mm"
     showgrid="false" />
  <style
     type="text/css"
     id="style62385"><![CDATA[
tspan { white-space: pre; }
]]></style>
  <!-- Page: 3/6 -->
  <g
     transform="translate(3.1967416e-8,12.62457)"
     id="g66939">
    <line
       stroke-linejoin="round"
       stroke-linecap="round"
       stroke-width="0.0966"
       stroke="currentColor"
       x1="0.048300002"
       y1="0"
       x2="64.2146"
       y2="0"
       id="line66937" />
  </g>
  <g
     transform="translate(3.1967416e-8,11.72457)"
     id="g66943">
    <line
       stroke-linejoin="round"
       stroke-linecap="round"
       stroke-width="0.0966"
       stroke="currentColor"
       x1="0.048300002"
       y1="0"
       x2="64.2146"
       y2="0"
       id="line66941" />
  </g>
  <g
     transform="translate(3.1967416e-8,10.82457)"
     id="g66947">
    <line
       stroke-linejoin="round"
       stroke-linecap="round"
       stroke-width="0.0966"
       stroke="currentColor"
       x1="0.048300002"
       y1="0"
       x2="64.2146"
       y2="0"
       id="line66945" />
  </g>
  <g
     transform="translate(3.1967416e-8,9.9245698)"
     id="g66951">
    <line
       stroke-linejoin="round"
       stroke-linecap="round"
       stroke-width="0.0966"
       stroke="currentColor"
       x1="0.048300002"
       y1="0"
       x2="64.2146"
       y2="0"
       id="line66949" />
  </g>
  <g
     transform="translate(3.1967416e-8,9.0245698)"
     id="g66955">
    <line
       stroke-linejoin="round"
       stroke-linecap="round"
       stroke-width="0.0966"
       stroke="currentColor"
       x1="0.048300002"
       y1="0"
       x2="64.2146"
       y2="0"
       id="line66953" />
  </g>
  <g
     transform="translate(55.062,10.82457)"
     id="g66959">
    <rect
       x="0"
       y="-1.8"
       width="0.18350001"
       height="3.5999999"
       ry="0.0000"
       fill="currentColor"
       id="rect66957" />
  </g>
  <g
     transform="translate(64.0794,10.82457)"
     id="g66963">
    <rect
       x="0"
       y="-1.8"
       width="0.18350001"
       height="3.5999999"
       ry="0.0000"
       fill="currentColor"
       id="rect66961" />
  </g>
  <g
     transform="translate(63.6062,10.82457)"
     id="g66967">
    <rect
       x="0"
       y="-1.8"
       width="0.18350001"
       height="3.5999999"
       ry="0.0000"
       fill="currentColor"
       id="rect66965" />
  </g>
  <g
     transform="translate(34.3092,10.82457)"
     id="g66971">
    <rect
       x="0"
       y="-1.8"
       width="0.18350001"
       height="3.5999999"
       ry="0.0000"
       fill="currentColor"
       id="rect66969" />
  </g>
  <g
     transform="translate(3.1967416e-8,8.1245698)"
     id="g66975">
    <rect
       x="43.669102"
       y="-0.0933"
       width="1.7588"
       height="0.1866"
       ry="0.0933"
       fill="currentColor"
       id="rect66973" />
  </g>
  <g
     transform="translate(3.1967416e-8,7.2245698)"
     id="g66979">
    <rect
       x="41.5466"
       y="-0.0933"
       width="1.7588"
       height="0.1866"
       ry="0.0933"
       fill="currentColor"
       id="rect66977" />
  </g>
  <g
     transform="translate(3.1967416e-8,8.1245698)"
     id="g66983">
    <rect
       x="41.5466"
       y="-0.0933"
       width="1.7588"
       height="0.1866"
       ry="0.0933"
       fill="currentColor"
       id="rect66981" />
  </g>
  <g
     transform="translate(3.1967416e-8,6.3245698)"
     id="g66987">
    <rect
       x="39.424"
       y="-0.0933"
       width="1.7588"
       height="0.1866"
       ry="0.0933"
       fill="currentColor"
       id="rect66985" />
  </g>
  <g
     transform="translate(3.1967416e-8,7.2245698)"
     id="g66991">
    <rect
       x="39.424"
       y="-0.0933"
       width="1.7588"
       height="0.1866"
       ry="0.0933"
       fill="currentColor"
       id="rect66989" />
  </g>
  <g
     transform="translate(3.1967416e-8,8.1245698)"
     id="g66995">
    <rect
       x="39.424"
       y="-0.0933"
       width="1.7588"
       height="0.1866"
       ry="0.0933"
       fill="currentColor"
       id="rect66993" />
  </g>
  <g
     transform="translate(3.1967416e-8,5.4245698)"
     id="g66999">
    <rect
       x="37.301498"
       y="-0.0933"
       width="1.7588"
       height="0.1866"
       ry="0.0933"
       fill="currentColor"
       id="rect66997" />
  </g>
  <g
     transform="translate(3.1967416e-8,6.3245698)"
     id="g67003">
    <rect
       x="37.301498"
       y="-0.0933"
       width="1.7588"
       height="0.1866"
       ry="0.0933"
       fill="currentColor"
       id="rect67001" />
  </g>
  <g
     transform="translate(3.1967416e-8,7.2245698)"
     id="g67007">
    <rect
       x="37.301498"
       y="-0.0933"
       width="1.7588"
       height="0.1866"
       ry="0.0933"
       fill="currentColor"
       id="rect67005" />
  </g>
  <g
     transform="translate(3.1967416e-8,8.1245698)"
     id="g67011">
    <rect
       x="37.301498"
       y="-0.0933"
       width="1.7588"
       height="0.1866"
       ry="0.0933"
       fill="currentColor"
       id="rect67009" />
  </g>
  <g
     transform="translate(3.1967416e-8,3.6245698)"
     id="g67015">
    <rect
       x="35.179001"
       y="-0.0933"
       width="1.7588"
       height="0.1866"
       ry="0.0933"
       fill="currentColor"
       id="rect67013" />
  </g>
  <g
     transform="translate(3.1967416e-8,4.5245698)"
     id="g67019">
    <rect
       x="35.179001"
       y="-0.0933"
       width="1.7588"
       height="0.1866"
       ry="0.0933"
       fill="currentColor"
       id="rect67017" />
  </g>
  <g
     transform="translate(3.1967416e-8,5.4245698)"
     id="g67023">
    <rect
       x="35.179001"
       y="-0.0933"
       width="1.7588"
       height="0.1866"
       ry="0.0933"
       fill="currentColor"
       id="rect67021" />
  </g>
  <g
     transform="translate(3.1967416e-8,6.3245698)"
     id="g67027">
    <rect
       x="35.179001"
       y="-0.0933"
       width="1.7588"
       height="0.1866"
       ry="0.0933"
       fill="currentColor"
       id="rect67025" />
  </g>
  <g
     transform="translate(3.1967416e-8,7.2245698)"
     id="g67031">
    <rect
       x="35.179001"
       y="-0.0933"
       width="1.7588"
       height="0.1866"
       ry="0.0933"
       fill="currentColor"
       id="rect67029" />
  </g>
  <g
     transform="translate(3.1967416e-8,8.1245698)"
     id="g67035">
    <rect
       x="35.179001"
       y="-0.0933"
       width="1.7588"
       height="0.1866"
       ry="0.0933"
       fill="currentColor"
       id="rect67033" />
  </g>
  <g
     transform="translate(3.1967416e-8,5.4245698)"
     id="g67039">
    <rect
       x="31.6436"
       y="-0.0933"
       width="1.7588"
       height="0.1866"
       ry="0.0933"
       fill="currentColor"
       id="rect67037" />
  </g>
  <g
     transform="translate(3.1967416e-8,6.3245698)"
     id="g67043">
    <rect
       x="31.6436"
       y="-0.0933"
       width="1.7588"
       height="0.1866"
       ry="0.0933"
       fill="currentColor"
       id="rect67041" />
  </g>
  <g
     transform="translate(3.1967416e-8,7.2245698)"
     id="g67047">
    <rect
       x="31.6436"
       y="-0.0933"
       width="1.7588"
       height="0.1866"
       ry="0.0933"
       fill="currentColor"
       id="rect67045" />
  </g>
  <g
     transform="translate(3.1967416e-8,8.1245698)"
     id="g67051">
    <rect
       x="31.6436"
       y="-0.0933"
       width="1.7588"
       height="0.1866"
       ry="0.0933"
       fill="currentColor"
       id="rect67049" />
  </g>
  <g
     transform="translate(3.1967416e-8,6.3245698)"
     id="g67055">
    <rect
       x="29.021099"
       y="-0.0933"
       width="1.7588"
       height="0.1866"
       ry="0.0933"
       fill="currentColor"
       id="rect67053" />
  </g>
  <g
     transform="translate(3.1967416e-8,7.2245698)"
     id="g67059">
    <rect
       x="29.021099"
       y="-0.0933"
       width="1.7588"
       height="0.1866"
       ry="0.0933"
       fill="currentColor"
       id="rect67057" />
  </g>
  <g
     transform="translate(3.1967416e-8,8.1245698)"
     id="g67063">
    <rect
       x="29.021099"
       y="-0.0933"
       width="1.7588"
       height="0.1866"
       ry="0.0933"
       fill="currentColor"
       id="rect67061" />
  </g>
  <g
     transform="translate(3.1967416e-8,7.2245698)"
     id="g67067">
    <rect
       x="26.3986"
       y="-0.0933"
       width="1.7588"
       height="0.1866"
       ry="0.0933"
       fill="currentColor"
       id="rect67065" />
  </g>
  <g
     transform="translate(3.1967416e-8,8.1245698)"
     id="g67071">
    <rect
       x="26.3986"
       y="-0.0933"
       width="1.7588"
       height="0.1866"
       ry="0.0933"
       fill="currentColor"
       id="rect67069" />
  </g>
  <g
     transform="translate(3.1967416e-8,8.1245698)"
     id="g67075">
    <rect
       x="23.775999"
       y="-0.0933"
       width="1.7588"
       height="0.1866"
       ry="0.0933"
       fill="currentColor"
       id="rect67073" />
  </g>
  <a
     style="color:inherit"
     xlink:href="textedit://C:/Users/Javier/Documents/lilypond%20scores/ricci%20left%20hand%20examples.ly:450:23:24"
     id="a67081"
     transform="translate(-5.6906,-149.27043)">
    <g
       transform="translate(49.8634,153.8879)"
       id="g67079">
      <path
         transform="scale(0.002,-0.002)"
         d="m 190,464 c -54,0 -61,-71 -61,-141 v -73 -73 c 0,-70 7,-141 61,-141 54,0 62,71 62,141 0,26 -1,51 -1,73 0,22 1,47 1,73 0,70 -8,141 -62,141 z m 0,36 C 308,500 380,378 380,250 380,122 308,0 190,0 72,0 0,122 0,250 0,378 72,500 190,500 Z"
         fill="currentColor"
         id="path67077" />
    </g>
  </a>
  <g
     transform="translate(42.9494,10.82457)"
     id="g67085">
    <rect
       x="-0.062799998"
       y="-6.1153002"
       width="0.12549999"
       height="1.9039"
       ry="0.039999999"
       fill="currentColor"
       id="rect67083" />
  </g>
  <g
     transform="translate(41.9024,10.82457)"
     id="g67089">
    <rect
       x="-0.062799998"
       y="2.4777"
       width="0.12549999"
       height="2.0223"
       ry="0.039999999"
       fill="currentColor"
       id="rect67087" />
  </g>
  <a
     style="color:inherit"
     xlink:href="textedit://C:/Users/Javier/Documents/lilypond%20scores/ricci%20left%20hand%20examples.ly:450:22:23"
     id="a67095"
     transform="translate(-5.6906,-149.27043)">
    <g
       transform="translate(49.6528,157.395)"
       id="g67093">
      <path
         transform="scale(0.0036,-0.0036)"
         d="m 215,137 c 57,0 111,-29 111,-92 0,-71 -54,-120 -101,-148 -35,-21 -74,-34 -114,-34 -57,0 -111,29 -111,92 0,71 54,120 101,148 35,21 74,34 114,34 z"
         fill="currentColor"
         id="path67091" />
    </g>
  </a>
  <a
     style="color:inherit"
     xlink:href="textedit://C:/Users/Javier/Documents/lilypond%20scores/ricci%20left%20hand%20examples.ly:450:25:26"
     id="a67101"
     transform="translate(-5.6906,-149.27043)">
    <g
       transform="translate(49.8805,151.84)"
       id="g67099">
      <path
         transform="scale(0.002,-0.002)"
         d="M 129,129 H 259 C 259,77 291,29 340,29 350,29 354,21 354,14 354,7 350,0 340,0 291,0 243,14 194,14 145,14 98,0 49,0 39,0 34,7 34,14 c 0,7 5,15 15,15 49,0 80,48 80,100 z M 0,250 129,500 c 3,7 13,3 21,0 14,-6 28,-14 44,-14 16,0 31,8 45,14 2,1 2,1 4,1 8,0 16,-9 16,-21 V 129 H 129 v 215 c 0,15 -11,23 -20,23 -5,0 -9,-2 -11,-7 L 32,233 c -4,-7 -9,-9 -15,-9 -9,0 -19,7 -19,17 0,3 0,6 2,9 z"
         fill="currentColor"
         id="path67097" />
    </g>
  </a>
  <a
     style="color:inherit"
     xlink:href="textedit://C:/Users/Javier/Documents/lilypond%20scores/ricci%20left%20hand%20examples.ly:454:15:16"
     id="a67107"
     transform="translate(-5.6906,-149.27043)">
    <g
       transform="translate(47.5302,162.345)"
       id="g67105">
      <path
         transform="scale(0.0036,-0.0036)"
         d="m 312,64 c 0,24 -20,41 -41,41 -4,0 -8,-1 -12,-2 C 229,94 182,65 146,41 110,17 63,-13 43,-37 36,-45 33,-54 33,-64 c 0,-24 20,-41 41,-41 4,0 8,1 12,2 30,9 77,38 113,62 36,24 83,54 103,78 7,8 10,17 10,27 z m -53,73 c 48,0 86,-22 86,-74 0,-18 -4,-38 -10,-56 -12,-38 -30,-73 -63,-95 -53,-36 -113,-49 -186,-49 -48,0 -86,22 -86,74 0,18 4,38 10,56 12,38 31,73 64,95 53,36 112,49 185,49 z"
         fill="currentColor"
         id="path67103" />
    </g>
  </a>
  <g
     transform="translate(45.0719,10.82457)"
     id="g67111">
    <rect
       x="-0.062799998"
       y="-5.5411"
       width="0.12549999"
       height="2.6796999"
       ry="0.039999999"
       fill="currentColor"
       id="rect67109" />
  </g>
  <a
     style="color:inherit"
     xlink:href="textedit://C:/Users/Javier/Documents/lilypond%20scores/ricci%20left%20hand%20examples.ly:450:28:29"
     id="a67117"
     transform="translate(-5.6906,-149.27043)">
    <g
       transform="translate(51.7753,158.295)"
       id="g67115">
      <path
         transform="scale(0.0036,-0.0036)"
         d="m 215,137 c 57,0 111,-29 111,-92 0,-71 -54,-120 -101,-148 -35,-21 -74,-34 -114,-34 -57,0 -111,29 -111,92 0,71 54,120 101,148 35,21 74,34 114,34 z"
         fill="currentColor"
         id="path67113" />
    </g>
  </a>
  <a
     style="color:inherit"
     xlink:href="textedit://C:/Users/Javier/Documents/lilypond%20scores/ricci%20left%20hand%20examples.ly:450:31:32"
     id="a67123"
     transform="translate(-5.6906,-149.27043)">
    <g
       transform="translate(52.0201,152.7604)"
       id="g67121">
      <path
         transform="scale(0.002,-0.002)"
         d="m 155,471 c -34,0 -70,-8 -70,-38 0,-19 31,-23 31,-42 0,-28 -23,-51 -51,-51 -28,0 -51,23 -51,51 0,67 68,109 141,109 93,0 174,-31 174,-113 0,-41 -6,-77 -42,-94 -11,-5 -17,-16 -17,-27 0,-11 6,-22 17,-27 40,-19 59,-53 59,-98 C 346,47 263,0 160,0 78,0 0,45 0,119 c 0,32 26,58 58,58 32,0 58,-26 58,-58 0,-22 -36,-26 -36,-48 0,-33 42,-42 80,-42 46,0 56,58 56,112 v 38 c 0,40 -4,69 -43,69 H 99 c -12,0 -18,9 -18,18 0,9 6,18 18,18 h 74 c 40,0 43,31 43,73 v 30 c 0,50 -16,84 -61,84 z"
         fill="currentColor"
         id="path67119" />
    </g>
  </a>
  <g
     transform="translate(47.1944,10.82457)"
     id="g67127">
    <rect
       x="-0.062799998"
       y="-4.967"
       width="0.12549999"
       height="3.0056"
       ry="0.039999999"
       fill="currentColor"
       id="rect67125" />
  </g>
  <a
     style="color:inherit"
     xlink:href="textedit://C:/Users/Javier/Documents/lilypond%20scores/ricci%20left%20hand%20examples.ly:449:9:10"
     id="a67133"
     transform="translate(-5.6906,-149.27043)">
    <g
       transform="translate(16.5546,160.095)"
       id="g67131">
      <path
         stroke-width="0.0773"
         stroke-linejoin="round"
         stroke-linecap="round"
         stroke="currentColor"
         fill="currentColor"
         d="m 0.9838,-1.5783 c 1.746,-2.3114 18.2789,-7.9408 21.0727,-7.1752 v 0 C 19.3001,-9.4094 2.7672,-3.78 0.9838,-1.5783 Z"
         id="path67129" />
    </g>
  </a>
  <a
     style="color:inherit"
     xlink:href="textedit://C:/Users/Javier/Documents/lilypond%20scores/ricci%20left%20hand%20examples.ly:450:9:10"
     id="a67139"
     transform="translate(-5.6906,-149.27043)">
    <g
       transform="translate(43.2852,154.245)"
       id="g67137">
      <path
         transform="scale(0.0036,-0.0036)"
         d="m 215,137 c 57,0 111,-29 111,-92 0,-71 -54,-120 -101,-148 -35,-21 -74,-34 -114,-34 -57,0 -111,29 -111,92 0,71 54,120 101,148 35,21 74,34 114,34 z"
         fill="currentColor"
         id="path67135" />
    </g>
  </a>
  <g
     transform="translate(38.7043,10.82457)"
     id="g67143">
    <rect
       x="-0.062799998"
       y="-8.8589001"
       width="0.12549999"
       height="2.8474"
       ry="0.039999999"
       fill="currentColor"
       id="rect67141" />
  </g>
  <a
     style="color:inherit"
     xlink:href="textedit://C:/Users/Javier/Documents/lilypond%20scores/ricci%20left%20hand%20examples.ly:450:11:12"
     id="a67149"
     transform="translate(-5.6906,-149.27043)">
    <g
       transform="translate(45.4077,155.145)"
       id="g67147">
      <path
         transform="scale(0.0036,-0.0036)"
         d="m 215,137 c 57,0 111,-29 111,-92 0,-71 -54,-120 -101,-148 -35,-21 -74,-34 -114,-34 -57,0 -111,29 -111,92 0,71 54,120 101,148 35,21 74,34 114,34 z"
         fill="currentColor"
         id="path67145" />
    </g>
  </a>
  <g
     transform="translate(40.8269,10.82457)"
     id="g67153">
    <rect
       x="-0.062799998"
       y="-8.2847004"
       width="0.12549999"
       height="3.1733"
       ry="0.039999999"
       fill="currentColor"
       id="rect67151" />
  </g>
  <a
     style="color:inherit"
     xlink:href="textedit://C:/Users/Javier/Documents/lilypond%20scores/ricci%20left%20hand%20examples.ly:450:15:16"
     id="a67159"
     transform="translate(-5.6906,-149.27043)">
    <g
       transform="translate(47.5302,156.045)"
       id="g67157">
      <path
         transform="scale(0.0036,-0.0036)"
         d="m 215,137 c 57,0 111,-29 111,-92 0,-71 -54,-120 -101,-148 -35,-21 -74,-34 -114,-34 -57,0 -111,29 -111,92 0,71 54,120 101,148 35,21 74,34 114,34 z"
         fill="currentColor"
         id="path67155" />
    </g>
  </a>
  <a
     style="color:inherit"
     xlink:href="textedit://C:/Users/Javier/Documents/lilypond%20scores/ricci%20left%20hand%20examples.ly:450:18:19"
     id="a67167"
     transform="translate(-5.6906,-149.27043)">
    <g
       transform="translate(47.5302,150.5814)"
       id="g67165">
      <text
         font-family="serif"
         font-size="1.98px"
         text-anchor="start"
         fill="currentColor"
         id="text67163"><tspan
           id="tspan67161">II</tspan></text>
    </g>
  </a>
  <a
     style="color:inherit"
     xlink:href="textedit://C:/Users/Javier/Documents/lilypond%20scores/ricci%20left%20hand%20examples.ly:450:16:17"
     id="a67173"
     transform="translate(-5.6906,-149.27043)">
    <g
       transform="translate(47.7751,153.3137)"
       id="g67171">
      <path
         transform="scale(0.002,-0.002)"
         d="m 155,471 c -34,0 -70,-8 -70,-38 0,-19 31,-23 31,-42 0,-28 -23,-51 -51,-51 -28,0 -51,23 -51,51 0,67 68,109 141,109 93,0 174,-31 174,-113 0,-41 -6,-77 -42,-94 -11,-5 -17,-16 -17,-27 0,-11 6,-22 17,-27 40,-19 59,-53 59,-98 C 346,47 263,0 160,0 78,0 0,45 0,119 c 0,32 26,58 58,58 32,0 58,-26 58,-58 0,-22 -36,-26 -36,-48 0,-33 42,-42 80,-42 46,0 56,58 56,112 v 38 c 0,40 -4,69 -43,69 H 99 c -12,0 -18,9 -18,18 0,9 6,18 18,18 h 74 c 40,0 43,31 43,73 v 30 c 0,50 -16,84 -61,84 z"
         fill="currentColor"
         id="path67169" />
    </g>
  </a>
  <g
     transform="translate(36.519,1.3745698)"
     id="g67177">
    <polygon
       stroke-linejoin="round"
       stroke-linecap="round"
       stroke-width="0.08"
       fill="currentColor"
       stroke="currentColor"
       points="4.3306,1.0063 4.3306,1.3583 0.04,0.176 0.04,-0.176 "
       id="polygon67175" />
  </g>
  <g
     transform="translate(49.2542,7.6745698)"
     id="g67181">
    <polygon
       stroke-linejoin="round"
       stroke-linecap="round"
       stroke-width="0.08"
       fill="currentColor"
       stroke="currentColor"
       points="4.3306,1.0063 4.3306,1.3583 0.04,0.176 0.04,-0.176 "
       id="polygon67179" />
  </g>
  <g
     transform="translate(42.8866,4.6923698)"
     id="g67185">
    <polygon
       stroke-linejoin="round"
       stroke-linecap="round"
       stroke-width="0.08"
       fill="currentColor"
       stroke="currentColor"
       points="4.3306,1.0063 4.3306,1.3583 0.04,0.176 0.04,-0.176 "
       id="polygon67183" />
  </g>
  <a
     style="color:inherit"
     xlink:href="textedit://C:/Users/Javier/Documents/lilypond%20scores/ricci%20left%20hand%20examples.ly:450:7:8"
     id="a67197"
     transform="translate(-5.6906,-149.27043)">
    <g
       transform="translate(41.1627,160.095)"
       id="g67195">
      <path
         stroke-width="0.0773"
         stroke-linejoin="round"
         stroke-linecap="round"
         stroke="currentColor"
         fill="currentColor"
         d="m 1.2668,-10.099 c 2.6928,-0.5444 15.5569,5.0984 16.9802,7.4483 v 0 C 16.7771,-4.8945 3.9131,-10.5373 1.2668,-10.099 Z"
         id="path67193" />
    </g>
  </a>
  <g
     transform="translate(27.7386,3.7923698)"
     id="g67201">
    <polygon
       stroke-linejoin="round"
       stroke-linecap="round"
       stroke-width="0.08"
       fill="currentColor"
       stroke="currentColor"
       points="5.3306,-1.2437 5.3306,-0.8917 0.04,0.176 0.04,-0.176 "
       id="polygon67199" />
  </g>
  <g
     transform="translate(19.8711,7.0568698)"
     id="g67205">
    <polygon
       stroke-linejoin="round"
       stroke-linecap="round"
       stroke-width="0.08"
       fill="currentColor"
       stroke="currentColor"
       points="5.3306,-1.3583 5.3306,-1.0063 0.04,0.176 0.04,-0.176 "
       id="polygon67203" />
  </g>
  <g
     transform="translate(11.911,9.9245698)"
     id="g67211">
    <polygon
       stroke-linejoin="round"
       stroke-linecap="round"
       stroke-width="0.08"
       fill="currentColor"
       stroke="currentColor"
       points="5.4231,-1.2437 5.4231,-0.8917 0.04,0.176 0.04,-0.176 "
       id="polygon67209" />
  </g>
  <a
     style="color:inherit"
     xlink:href="textedit://C:/Users/Javier/Documents/lilypond%20scores/ricci%20left%20hand%20examples.ly:450:44:45"
     id="a67221"
     transform="translate(-5.6906,-149.27043)">
    <g
       transform="translate(58.3535,154.7168)"
       id="g67219">
      <path
         transform="scale(0.002,-0.002)"
         d="m 129,149 h 7 c 36,0 74,-13 111,-40 19,-14 40,-21 59,-21 22,0 40,10 46,31 2,7 7,11 13,11 7,0 15,-5 15,-14 v -5 C 361,40 296,0 234,0 196,0 159,15 133,47 121,62 105,69 89,69 60,69 32,48 29,13 28,4 22,0 15,0 8,0 0,5 0,14 c 0,173 233,163 233,341 0,56 -14,116 -62,116 -33,0 -66,-15 -66,-44 0,-24 31,-37 31,-61 0,-34 -27,-61 -61,-61 -34,0 -61,27 -61,61 0,78 74,134 157,134 98,0 191,-55 191,-145 C 362,211 227,199 129,149 Z"
         fill="currentColor"
         id="path67217" />
    </g>
  </a>
  <a
     style="color:inherit"
     xlink:href="textedit://C:/Users/Javier/Documents/lilypond%20scores/ricci%20left%20hand%20examples.ly:450:34:35"
     id="a67227"
     transform="translate(-5.6906,-149.27043)">
    <g
       transform="translate(53.8978,159.195)"
       id="g67225">
      <path
         transform="scale(0.0036,-0.0036)"
         d="m 215,137 c 57,0 111,-29 111,-92 0,-71 -54,-120 -101,-148 -35,-21 -74,-34 -114,-34 -57,0 -111,29 -111,92 0,71 54,120 101,148 35,21 74,34 114,34 z"
         fill="currentColor"
         id="path67223" />
    </g>
  </a>
  <g
     transform="translate(49.317,10.82457)"
     id="g67231">
    <rect
       x="-0.062799998"
       y="-3.1329999"
       width="0.12549999"
       height="2.0716"
       ry="0.039999999"
       fill="currentColor"
       id="rect67229" />
  </g>
  <a
     style="color:inherit"
     xlink:href="textedit://C:/Users/Javier/Documents/lilypond%20scores/ricci%20left%20hand%20examples.ly:450:36:37"
     id="a67237"
     transform="translate(-5.6906,-149.27043)">
    <g
       transform="translate(56.0203,160.545)"
       id="g67235">
      <path
         transform="scale(0.0036,-0.0036)"
         d="m 215,137 c 57,0 111,-29 111,-92 0,-71 -54,-120 -101,-148 -35,-21 -74,-34 -114,-34 -57,0 -111,29 -111,92 0,71 54,120 101,148 35,21 74,34 114,34 z"
         fill="currentColor"
         id="path67233" />
    </g>
  </a>
  <g
     transform="translate(51.4395,10.82457)"
     id="g67241">
    <rect
       x="-0.062799998"
       y="-2.5589001"
       width="0.12549999"
       height="2.8474"
       ry="0.039999999"
       fill="currentColor"
       id="rect67239" />
  </g>
  <a
     style="color:inherit"
     xlink:href="textedit://C:/Users/Javier/Documents/lilypond%20scores/ricci%20left%20hand%20examples.ly:450:38:39"
     id="a67247"
     transform="translate(-5.6906,-149.27043)">
    <g
       transform="translate(58.1429,161.445)"
       id="g67245">
      <path
         transform="scale(0.0036,-0.0036)"
         d="m 215,137 c 57,0 111,-29 111,-92 0,-71 -54,-120 -101,-148 -35,-21 -74,-34 -114,-34 -57,0 -111,29 -111,92 0,71 54,120 101,148 35,21 74,34 114,34 z"
         fill="currentColor"
         id="path67243" />
    </g>
  </a>
  <a
     style="color:inherit"
     xlink:href="textedit://C:/Users/Javier/Documents/lilypond%20scores/ricci%20left%20hand%20examples.ly:450:42:43"
     id="a67253"
     transform="translate(-5.6906,-149.27043)">
    <g
       transform="translate(58.3023,156.1911)"
       id="g67251">
      <path
         transform="scale(0.002,-0.002)"
         d="m 198,284 c 24,15 48,29 65,52 12,16 19,34 28,52 2,5 6,7 11,7 8,0 16,-6 16,-17 V 161 h 79 c 12,0 18,-9 18,-18 0,-9 -6,-18 -18,-18 h -79 c 2,-51 33,-96 80,-96 10,0 15,-8 15,-15 C 413,7 408,0 398,0 349,0 302,14 253,14 204,14 156,0 107,0 97,0 93,7 93,14 c 0,7 4,15 14,15 47,0 79,45 81,96 H 36 c -29,0 -38,17 -38,28 0,3 1,6 2,8 78,88 123,201 123,319 0,11 8,21 17,21 1,0 3,-1 4,-1 25,-7 50,-14 76,-14 26,0 52,7 77,14 2,1 4,1 6,1 10,0 17,-7 17,-14 0,-2 0,-5 -2,-7 L 36,161 h 152 v 96 c 0,10 1,21 10,27 z"
         fill="currentColor"
         id="path67249" />
    </g>
  </a>
  <g
     transform="translate(53.562,10.82457)"
     id="g67257">
    <rect
       x="-0.062799998"
       y="-1.9847"
       width="0.12549999"
       height="3.1733"
       ry="0.039999999"
       fill="currentColor"
       id="rect67255" />
  </g>
  <a
     style="color:inherit"
     xlink:href="textedit://C:/Users/Javier/Documents/lilypond%20scores/ricci%20left%20hand%20examples.ly:458:4:5"
     id="a67263"
     transform="translate(-5.6906,-149.27043)">
    <g
       transform="translate(62.8361,162.345)"
       id="g67261">
      <path
         transform="scale(0.0036,-0.0036)"
         d="m 312,64 c 0,24 -20,41 -41,41 -4,0 -8,-1 -12,-2 C 229,94 182,65 146,41 110,17 63,-13 43,-37 36,-45 33,-54 33,-64 c 0,-24 20,-41 41,-41 4,0 8,1 12,2 30,9 77,38 113,62 36,24 83,54 103,78 7,8 10,17 10,27 z m -53,73 c 48,0 86,-22 86,-74 0,-18 -4,-38 -10,-56 -12,-38 -30,-73 -63,-95 -53,-36 -113,-49 -186,-49 -48,0 -86,22 -86,74 0,18 4,38 10,56 12,38 31,73 64,95 53,36 112,49 185,49 z"
         fill="currentColor"
         id="path67259" />
    </g>
  </a>
  <g
     transform="translate(58.7894,13.07457)"
     id="g67267">
    <path
       transform="scale(0.0036,-0.0036)"
       d="M 0,0 C 0,31 25,56 56,56 87,56 111,31 111,0 111,-31 87,-56 56,-56 25,-56 0,-31 0,0 Z"
       fill="currentColor"
       id="path67265" />
  </g>
  <g
     transform="translate(58.3252,10.82457)"
     id="g67271">
    <rect
       x="-0.062799998"
       y="-0.89999998"
       width="0.12549999"
       height="2.9223001"
       ry="0.039999999"
       fill="currentColor"
       id="rect67269" />
  </g>
  <a
     style="color:inherit"
     xlink:href="textedit://C:/Users/Javier/Documents/lilypond%20scores/ricci%20left%20hand%20examples.ly:449:15:16"
     id="a67277"
     transform="translate(-5.6906,-149.27043)">
    <g
       transform="translate(19.2696,161.445)"
       id="g67275">
      <path
         transform="scale(0.0036,-0.0036)"
         d="m 215,137 c 57,0 111,-29 111,-92 0,-71 -54,-120 -101,-148 -35,-21 -74,-34 -114,-34 -57,0 -111,29 -111,92 0,71 54,120 101,148 35,21 74,34 114,34 z"
         fill="currentColor"
         id="path67273" />
    </g>
  </a>
  <g
     transform="translate(14.6888,10.82457)"
     id="g67281">
    <rect
       x="-0.062799998"
       y="-1.4428999"
       width="0.12549999"
       height="2.6315"
       ry="0.039999999"
       fill="currentColor"
       id="rect67279" />
  </g>
  <a
     style="color:inherit"
     xlink:href="textedit://C:/Users/Javier/Documents/lilypond%20scores/ricci%20left%20hand%20examples.ly:449:19:20"
     id="a67287"
     transform="translate(-5.6906,-149.27043)">
    <g
       transform="translate(21.8922,160.545)"
       id="g67285">
      <path
         transform="scale(0.0036,-0.0036)"
         d="m 215,137 c 57,0 111,-29 111,-92 0,-71 -54,-120 -101,-148 -35,-21 -74,-34 -114,-34 -57,0 -111,29 -111,92 0,71 54,120 101,148 35,21 74,34 114,34 z"
         fill="currentColor"
         id="path67283" />
    </g>
  </a>
  <a
     style="color:inherit"
     xlink:href="textedit://C:/Users/Javier/Documents/lilypond%20scores/ricci%20left%20hand%20examples.ly:449:22:23"
     id="a67293"
     transform="translate(-5.6906,-149.27043)">
    <g
       transform="translate(22.1028,155.4246)"
       id="g67291">
      <path
         transform="scale(0.002,-0.002)"
         d="m 190,464 c -54,0 -61,-71 -61,-141 v -73 -73 c 0,-70 7,-141 61,-141 54,0 62,71 62,141 0,26 -1,51 -1,73 0,22 1,47 1,73 0,70 -8,141 -62,141 z m 0,36 C 308,500 380,378 380,250 380,122 308,0 190,0 72,0 0,122 0,250 0,378 72,500 190,500 Z"
         fill="currentColor"
         id="path67289" />
    </g>
  </a>
  <a
     style="color:inherit"
     xlink:href="textedit://C:/Users/Javier/Documents/lilypond%20scores/ricci%20left%20hand%20examples.ly:449:20:21"
     id="a67299"
     transform="translate(-5.6906,-149.27043)">
    <g
       transform="translate(22.1028,157.4736)"
       id="g67297">
      <path
         transform="scale(0.002,-0.002)"
         d="m 190,464 c -54,0 -61,-71 -61,-141 v -73 -73 c 0,-70 7,-141 61,-141 54,0 62,71 62,141 0,26 -1,51 -1,73 0,22 1,47 1,73 0,70 -8,141 -62,141 z m 0,36 C 308,500 380,378 380,250 380,122 308,0 190,0 72,0 0,122 0,250 0,378 72,500 190,500 Z"
         fill="currentColor"
         id="path67295" />
    </g>
  </a>
  <g
     transform="translate(17.3113,10.82457)"
     id="g67303">
    <rect
       x="-0.062799998"
       y="-1.9554"
       width="0.12549999"
       height="2.244"
       ry="0.039999999"
       fill="currentColor"
       id="rect67301" />
  </g>
  <a
     style="color:inherit"
     xlink:href="textedit://C:/Users/Javier/Documents/lilypond%20scores/ricci%20left%20hand%20examples.ly:449:25:26"
     id="a67309"
     transform="translate(-5.6906,-149.27043)">
    <g
       transform="translate(24.5147,159.195)"
       id="g67307">
      <path
         transform="scale(0.0036,-0.0036)"
         d="m 215,137 c 57,0 111,-29 111,-92 0,-71 -54,-120 -101,-148 -35,-21 -74,-34 -114,-34 -57,0 -111,29 -111,92 0,71 54,120 101,148 35,21 74,34 114,34 z"
         fill="currentColor"
         id="path67305" />
    </g>
  </a>
  <a
     style="color:inherit"
     xlink:href="textedit://C:/Users/Javier/Documents/lilypond%20scores/ricci%20left%20hand%20examples.ly:449:26:27"
     id="a67315"
     transform="translate(-5.6906,-149.27043)">
    <g
       transform="translate(24.7424,154.4098)"
       id="g67313">
      <path
         transform="scale(0.002,-0.002)"
         d="M 129,129 H 259 C 259,77 291,29 340,29 350,29 354,21 354,14 354,7 350,0 340,0 291,0 243,14 194,14 145,14 98,0 49,0 39,0 34,7 34,14 c 0,7 5,15 15,15 49,0 80,48 80,100 z M 0,250 129,500 c 3,7 13,3 21,0 14,-6 28,-14 44,-14 16,0 31,8 45,14 2,1 2,1 4,1 8,0 16,-9 16,-21 V 129 H 129 v 215 c 0,15 -11,23 -20,23 -5,0 -9,-2 -11,-7 L 32,233 c -4,-7 -9,-9 -15,-9 -9,0 -19,7 -19,17 0,3 0,6 2,9 z"
         fill="currentColor"
         id="path67311" />
    </g>
  </a>
  <g
     transform="translate(19.9338,10.82457)"
     id="g67319">
    <rect
       x="-0.062799998"
       y="-3.7815001"
       width="0.12549999"
       height="2.7200999"
       ry="0.039999999"
       fill="currentColor"
       id="rect67317" />
  </g>
  <a
     style="color:inherit"
     xlink:href="textedit://C:/Users/Javier/Documents/lilypond%20scores/ricci%20left%20hand%20examples.ly:449:7:8"
     id="a67325"
     transform="translate(-5.6906,-149.27043)">
    <g
       transform="translate(16.5546,162.345)"
       id="g67323">
      <path
         transform="scale(0.0036,-0.0036)"
         d="m 215,137 c 57,0 111,-29 111,-92 0,-71 -54,-120 -101,-148 -35,-21 -74,-34 -114,-34 -57,0 -111,29 -111,92 0,71 54,120 101,148 35,21 74,34 114,34 z"
         fill="currentColor"
         id="path67321" />
    </g>
  </a>
  <a
     style="color:inherit"
     xlink:href="textedit://C:/Users/Javier/Documents/lilypond%20scores/ricci%20left%20hand%20examples.ly:449:12:13"
     id="a67331"
     transform="translate(-5.6906,-149.27043)">
    <g
       transform="translate(16.7653,156.3225)"
       id="g67329">
      <path
         transform="scale(0.002,-0.002)"
         d="m 190,464 c -54,0 -61,-71 -61,-141 v -73 -73 c 0,-70 7,-141 61,-141 54,0 62,71 62,141 0,26 -1,51 -1,73 0,22 1,47 1,73 0,70 -8,141 -62,141 z m 0,36 C 308,500 380,378 380,250 380,122 308,0 190,0 72,0 0,122 0,250 0,378 72,500 190,500 Z"
         fill="currentColor"
         id="path67327" />
    </g>
  </a>
  <a
     style="color:inherit"
     xlink:href="textedit://C:/Users/Javier/Documents/lilypond%20scores/ricci%20left%20hand%20examples.ly:449:10:11"
     id="a67337"
     transform="translate(-5.6906,-149.27043)">
    <g
       transform="translate(16.7141,157.7968)"
       id="g67335">
      <path
         transform="scale(0.002,-0.002)"
         d="m 198,284 c 24,15 48,29 65,52 12,16 19,34 28,52 2,5 6,7 11,7 8,0 16,-6 16,-17 V 161 h 79 c 12,0 18,-9 18,-18 0,-9 -6,-18 -18,-18 h -79 c 2,-51 33,-96 80,-96 10,0 15,-8 15,-15 C 413,7 408,0 398,0 349,0 302,14 253,14 204,14 156,0 107,0 97,0 93,7 93,14 c 0,7 4,15 14,15 47,0 79,45 81,96 H 36 c -29,0 -38,17 -38,28 0,3 1,6 2,8 78,88 123,201 123,319 0,11 8,21 17,21 1,0 3,-1 4,-1 25,-7 50,-14 76,-14 26,0 52,7 77,14 2,1 4,1 6,1 10,0 17,-7 17,-14 0,-2 0,-5 -2,-7 L 36,161 h 152 v 96 c 0,10 1,21 10,27 z"
         fill="currentColor"
         id="path67333" />
    </g>
  </a>
  <a
     style="color:inherit"
     xlink:href="textedit://C:/Users/Javier/Documents/lilypond%20scores/ricci%20left%20hand%20examples.ly:454:6:7"
     id="a67343"
     transform="translate(-5.6906,-149.27043)">
    <g
       transform="translate(17.7271,162.345)"
       id="g67341">
      <path
         transform="scale(0.0036,-0.0036)"
         d="m 312,64 c 0,24 -20,41 -41,41 -4,0 -8,-1 -12,-2 C 229,94 182,65 146,41 110,17 63,-13 43,-37 36,-45 33,-54 33,-64 c 0,-24 20,-41 41,-41 4,0 8,1 12,2 30,9 77,38 113,62 36,24 83,54 103,78 7,8 10,17 10,27 z m -53,73 c 48,0 86,-22 86,-74 0,-18 -4,-38 -10,-56 -12,-38 -30,-73 -63,-95 -53,-36 -113,-49 -186,-49 -48,0 -86,22 -86,74 0,18 4,38 10,56 12,38 31,73 64,95 53,36 112,49 185,49 z"
         fill="currentColor"
         id="path67339" />
    </g>
  </a>
  <g
     transform="translate(0.80000003,11.72457)"
     id="g67347">
    <path
       transform="scale(0.0036,-0.0036)"
       d="m 378,263 c 4,0 7,1 11,1 156,0 257,-129 257,-262 0,-76 -34,-154 -108,-210 -22,-17 -46,-29 -72,-37 3,-34 5,-68 5,-102 0,-20 -1,-40 -2,-60 -7,-121 -90,-228 -209,-228 -108,0 -196,87 -196,196 0,58 53,104 112,104 54,0 95,-48 95,-104 0,-52 -43,-95 -95,-95 -10,0 -20,2 -29,6 26,-38 68,-63 116,-63 h 3 c 93,2 153,92 159,190 1,19 2,37 2,56 0,30 -2,60 -4,90 -29,-5 -58,-8 -88,-8 -188,0 -333,173 -333,375 0,177 130,307 246,442 -20,62 -38,125 -46,190 -6,52 -7,104 -7,157 0,115 55,223 148,290 7,5 16,4 22,-1 71,-83 134,-244 134,-357 0,-143 -85,-255 -178,-364 21,-68 40,-137 57,-206 z m 84,-465 c 67,24 111,94 111,162 0,89 -65,178 -170,190 24,-115 46,-230 59,-352 z M 75,26 c 0,-134 129,-245 263,-245 28,0 55,2 81,6 C 405,-87 383,31 358,150 279,142 234,89 234,31 c 0,-43 25,-89 80,-121 5,-5 7,-11 7,-16 0,-12 -10,-23 -22,-23 -3,0 -6,1 -9,2 -81,43 -118,116 -118,186 0,89 58,175 161,198 -14,58 -29,116 -46,173 C 181,308 75,186 75,26 Z M 406,1042 C 307,995 244,894 244,785 c 0,-73 20,-132 38,-191 79,97 144,199 144,324 0,53 -4,76 -20,124 z"
       fill="currentColor"
       id="path67345" />
  </g>
  <a
     style="color:inherit"
     xlink:href="textedit://C:/Users/Javier/Documents/lilypond%20scores/ricci%20left%20hand%20examples.ly:445:4:5"
     id="a67357"
     transform="translate(-5.6906,-149.27043)">
    <g
       transform="translate(9.9906,158.295)"
       id="g67351">
      <path
         transform="scale(0.0036,-0.0036)"
         d="m 217,-311 c 0,-11 -8,-19 -19,-19 -11,0 -20,8 -20,19 v 142 l -81,-30 v -156 c 0,-11 -9,-20 -20,-20 -11,0 -19,9 -19,20 v 142 l -28,-11 c -3,-1 -5,-1 -8,-1 -12,0 -22,10 -22,23 v 57 c 0,9 6,18 15,21 l 43,16 V 49 L 30,39 C 27,38 25,38 22,38 10,38 0,47 0,60 v 57 c 0,9 6,18 15,21 l 43,16 v 157 c 0,11 8,19 19,19 11,0 20,-8 20,-19 V 169 l 81,30 v 156 c 0,11 9,20 20,20 11,0 19,-9 19,-20 V 213 l 28,11 c 3,1 5,1 8,1 12,0 22,-10 22,-23 v -57 c 0,-9 -6,-18 -15,-21 L 217,108 V -49 l 28,10 c 3,1 5,1 8,1 12,0 22,-9 22,-22 v -57 c 0,-9 -6,-18 -15,-21 l -43,-16 z M 97,64 V -94 l 81,30 V 94 Z"
         fill="currentColor"
         id="path67349" />
    </g>
    <g
       transform="translate(10.9806,159.645)"
       id="g67355">
      <path
         transform="scale(0.0036,-0.0036)"
         d="m 217,-311 c 0,-11 -8,-19 -19,-19 -11,0 -20,8 -20,19 v 142 l -81,-30 v -156 c 0,-11 -9,-20 -20,-20 -11,0 -19,9 -19,20 v 142 l -28,-11 c -3,-1 -5,-1 -8,-1 -12,0 -22,10 -22,23 v 57 c 0,9 6,18 15,21 l 43,16 V 49 L 30,39 C 27,38 25,38 22,38 10,38 0,47 0,60 v 57 c 0,9 6,18 15,21 l 43,16 v 157 c 0,11 8,19 19,19 11,0 20,-8 20,-19 V 169 l 81,30 v 156 c 0,11 9,20 20,20 11,0 19,-9 19,-20 V 213 l 28,11 c 3,1 5,1 8,1 12,0 22,-10 22,-23 v -57 c 0,-9 -6,-18 -15,-21 L 217,108 V -49 l 28,10 c 3,1 5,1 8,1 12,0 22,-9 22,-22 v -57 c 0,-9 -6,-18 -15,-21 l -43,-16 z M 97,64 V -94 l 81,30 V 94 Z"
         fill="currentColor"
         id="path67353" />
    </g>
  </a>
  <g
     transform="translate(7.5495,10.82457)"
     id="g67361">
    <path
       transform="scale(0.0036,-0.0036)"
       d="m 151,475 c -29,0 -60,-8 -60,-33 0,-22 35,-25 35,-47 0,-31 -26,-57 -57,-57 -31,0 -57,26 -57,57 0,65 68,105 139,105 92,0 170,-33 170,-114 0,-42 -5,-81 -42,-98 -10,-5 -15,-14 -15,-23 0,-9 5,-18 15,-23 41,-19 57,-56 57,-102 C 336,48 256,0 156,0 77,0 0,43 0,115 c 0,36 29,65 65,65 36,0 65,-29 65,-65 0,-25 -40,-29 -40,-54 0,-28 34,-36 66,-36 48,0 61,59 61,115 v 22 c 0,50 -3,88 -49,88 H 90 c -10,0 -15,7 -15,15 0,8 5,15 15,15 h 78 c 46,0 49,40 49,92 v 14 c 0,53 -18,89 -66,89 z"
       fill="currentColor"
       id="path67359" />
  </g>
  <g
     transform="translate(7.43,12.66837)"
     id="g67365">
    <path
       transform="scale(0.0036,-0.0036)"
       d="m 194,120 h 120 c 0,-49 29,-95 75,-95 8,0 12,-7 12,-13 C 401,6 397,0 389,0 344,0 299,13 254,13 209,13 164,0 119,0 c -8,0 -12,6 -12,12 0,6 4,13 12,13 46,0 75,46 75,95 z m 9,181 c 22,15 45,30 61,51 12,15 19,34 27,51 2,4 5,6 9,6 6,0 14,-6 14,-15 V 156 h 74 c 10,0 16,-8 16,-16 0,-8 -6,-15 -16,-15 h -74 v -5 H 194 v 5 H 31 c -24,0 -33,15 -33,24 0,3 1,6 2,7 80,92 134,205 134,327 0,11 8,20 17,17 24,-7 48,-13 73,-13 25,0 48,6 72,13 2,1 4,1 6,1 9,0 14,-7 14,-13 0,-2 0,-3 -2,-5 L 31,156 h 163 v 122 c 0,9 2,18 9,23 z"
       fill="currentColor"
       id="path67363" />
  </g>
  <g
     transform="translate(11.9737,10.82457)"
     id="g67369">
    <rect
       x="-0.062799998"
       y="-0.91229999"
       width="0.12549999"
       height="3.0007999"
       ry="0.039999999"
       fill="currentColor"
       id="rect67367" />
  </g>
  <g
     transform="translate(12.0993,10.82457)"
     id="g67373">
    <rect
       x="-0.062799998"
       y="2.4777"
       width="0.12549999"
       height="2.0223"
       ry="0.039999999"
       fill="currentColor"
       id="rect67371" />
  </g>
  <g
     transform="translate(26.7544,10.82457)"
     id="g67377">
    <rect
       x="-0.062799998"
       y="0.61140001"
       width="0.12549999"
       height="2.6886001"
       ry="0.039999999"
       fill="currentColor"
       id="rect67375" />
  </g>
  <a
     style="color:inherit"
     xlink:href="textedit://C:/Users/Javier/Documents/lilypond%20scores/ricci%20left%20hand%20examples.ly:449:29:30"
     id="a67383"
     transform="translate(-5.6906,-149.27043)">
    <g
       transform="translate(27.1372,158.295)"
       id="g67381">
      <path
         transform="scale(0.0036,-0.0036)"
         d="m 215,137 c 57,0 111,-29 111,-92 0,-71 -54,-120 -101,-148 -35,-21 -74,-34 -114,-34 -57,0 -111,29 -111,92 0,71 54,120 101,148 35,21 74,34 114,34 z"
         fill="currentColor"
         id="path67379" />
    </g>
  </a>
  <a
     style="color:inherit"
     xlink:href="textedit://C:/Users/Javier/Documents/lilypond%20scores/ricci%20left%20hand%20examples.ly:449:39:40"
     id="a67389"
     transform="translate(-5.6906,-149.27043)">
    <g
       transform="translate(35.0048,155.145)"
       id="g67387">
      <path
         transform="scale(0.0036,-0.0036)"
         d="m 215,137 c 57,0 111,-29 111,-92 0,-71 -54,-120 -101,-148 -35,-21 -74,-34 -114,-34 -57,0 -111,29 -111,92 0,71 54,120 101,148 35,21 74,34 114,34 z"
         fill="currentColor"
         id="path67385" />
    </g>
  </a>
  <a
     style="color:inherit"
     xlink:href="textedit://C:/Users/Javier/Documents/lilypond%20scores/ricci%20left%20hand%20examples.ly:449:42:43"
     id="a67395"
     transform="translate(-5.6906,-149.27043)">
    <g
       transform="translate(35.2325,151.3159)"
       id="g67393">
      <path
         transform="scale(0.002,-0.002)"
         d="M 129,129 H 259 C 259,77 291,29 340,29 350,29 354,21 354,14 354,7 350,0 340,0 291,0 243,14 194,14 145,14 98,0 49,0 39,0 34,7 34,14 c 0,7 5,15 15,15 49,0 80,48 80,100 z M 0,250 129,500 c 3,7 13,3 21,0 14,-6 28,-14 44,-14 16,0 31,8 45,14 2,1 2,1 4,1 8,0 16,-9 16,-21 V 129 H 129 v 215 c 0,15 -11,23 -20,23 -5,0 -9,-2 -11,-7 L 32,233 c -4,-7 -9,-9 -15,-9 -9,0 -19,7 -19,17 0,3 0,6 2,9 z"
         fill="currentColor"
         id="path67391" />
    </g>
  </a>
  <g
     transform="translate(30.4239,10.82457)"
     id="g67399">
    <rect
       x="-0.062799998"
       y="-7.5661001"
       width="0.12549999"
       height="2.4547"
       ry="0.039999999"
       fill="currentColor"
       id="rect67397" />
  </g>
  <a
     style="color:inherit"
     xlink:href="textedit://C:/Users/Javier/Documents/lilypond%20scores/ricci%20left%20hand%20examples.ly:449:45:46"
     id="a67405"
     transform="translate(-5.6906,-149.27043)">
    <g
       transform="translate(37.6273,154.245)"
       id="g67403">
      <path
         transform="scale(0.0036,-0.0036)"
         d="m 215,137 c 57,0 111,-29 111,-92 0,-71 -54,-120 -101,-148 -35,-21 -74,-34 -114,-34 -57,0 -111,29 -111,92 0,71 54,120 101,148 35,21 74,34 114,34 z"
         fill="currentColor"
         id="path67401" />
    </g>
  </a>
  <g
     transform="translate(33.0465,10.82457)"
     id="g67409">
    <rect
       x="-0.062799998"
       y="-8.0874996"
       width="0.12549999"
       height="2.0761001"
       ry="0.039999999"
       fill="currentColor"
       id="rect67407" />
  </g>
  <a
     style="color:inherit"
     xlink:href="textedit://C:/Users/Javier/Documents/lilypond%20scores/ricci%20left%20hand%20examples.ly:450:6:7"
     id="a67415"
     transform="translate(-5.6906,-149.27043)">
    <g
       transform="translate(41.1627,152.895)"
       id="g67413">
      <path
         transform="scale(0.0036,-0.0036)"
         d="m 215,137 c 57,0 111,-29 111,-92 0,-71 -54,-120 -101,-148 -35,-21 -74,-34 -114,-34 -57,0 -111,29 -111,92 0,71 54,120 101,148 35,21 74,34 114,34 z"
         fill="currentColor"
         id="path67411" />
    </g>
  </a>
  <a
     style="color:inherit"
     xlink:href="textedit://C:/Users/Javier/Documents/lilypond%20scores/ricci%20left%20hand%20examples.ly:454:13:14"
     id="a67421"
     transform="translate(-5.6906,-149.27043)">
    <g
       transform="translate(41.1627,160.545)"
       id="g67419">
      <path
         transform="scale(0.0036,-0.0036)"
         d="m 215,137 c 57,0 111,-29 111,-92 0,-71 -54,-120 -101,-148 -35,-21 -74,-34 -114,-34 -57,0 -111,29 -111,92 0,71 54,120 101,148 35,21 74,34 114,34 z"
         fill="currentColor"
         id="path67417" />
    </g>
  </a>
  <g
     transform="translate(36.5818,10.82457)"
     id="g67425">
    <rect
       x="-0.062799998"
       y="-9.4329996"
       width="0.12549999"
       height="2.0716"
       ry="0.039999999"
       fill="currentColor"
       id="rect67423" />
  </g>
  <g
     transform="translate(35.5348,10.82457)"
     id="g67429">
    <rect
       x="-0.062799998"
       y="0.61140001"
       width="0.12549999"
       height="2.6886001"
       ry="0.039999999"
       fill="currentColor"
       id="rect67427" />
  </g>
  <a
     style="color:inherit"
     xlink:href="textedit://C:/Users/Javier/Documents/lilypond%20scores/ricci%20left%20hand%20examples.ly:449:32:33"
     id="a67435"
     transform="translate(-5.6906,-149.27043)">
    <g
       transform="translate(27.365,153.4859)"
       id="g67433">
      <path
         transform="scale(0.002,-0.002)"
         d="M 129,129 H 259 C 259,77 291,29 340,29 350,29 354,21 354,14 354,7 350,0 340,0 291,0 243,14 194,14 145,14 98,0 49,0 39,0 34,7 34,14 c 0,7 5,15 15,15 49,0 80,48 80,100 z M 0,250 129,500 c 3,7 13,3 21,0 14,-6 28,-14 44,-14 16,0 31,8 45,14 2,1 2,1 4,1 8,0 16,-9 16,-21 V 129 H 129 v 215 c 0,15 -11,23 -20,23 -5,0 -9,-2 -11,-7 L 32,233 c -4,-7 -9,-9 -15,-9 -9,0 -19,7 -19,17 0,3 0,6 2,9 z"
         fill="currentColor"
         id="path67431" />
    </g>
  </a>
  <g
     transform="translate(22.5564,10.82457)"
     id="g67439">
    <rect
       x="-0.062799998"
       y="-4.3589001"
       width="0.12549999"
       height="2.3973999"
       ry="0.039999999"
       fill="currentColor"
       id="rect67437" />
  </g>
  <a
     style="color:inherit"
     xlink:href="textedit://C:/Users/Javier/Documents/lilypond%20scores/ricci%20left%20hand%20examples.ly:449:35:36"
     id="a67445"
     transform="translate(-5.6906,-149.27043)">
    <g
       transform="translate(29.7597,157.395)"
       id="g67443">
      <path
         transform="scale(0.0036,-0.0036)"
         d="m 215,137 c 57,0 111,-29 111,-92 0,-71 -54,-120 -101,-148 -35,-21 -74,-34 -114,-34 -57,0 -111,29 -111,92 0,71 54,120 101,148 35,21 74,34 114,34 z"
         fill="currentColor"
         id="path67441" />
    </g>
  </a>
  <g
     transform="translate(25.1789,10.82457)"
     id="g67449">
    <rect
       x="-0.062799998"
       y="-4.9362001"
       width="0.12549999"
       height="2.0748"
       ry="0.039999999"
       fill="currentColor"
       id="rect67447" />
  </g>
  <a
     style="color:inherit"
     xlink:href="textedit://C:/Users/Javier/Documents/lilypond%20scores/ricci%20left%20hand%20examples.ly:449:37:38"
     id="a67455"
     transform="translate(-5.6906,-149.27043)">
    <g
       transform="translate(32.3823,156.045)"
       id="g67453">
      <path
         transform="scale(0.0036,-0.0036)"
         d="m 215,137 c 57,0 111,-29 111,-92 0,-71 -54,-120 -101,-148 -35,-21 -74,-34 -114,-34 -57,0 -111,29 -111,92 0,71 54,120 101,148 35,21 74,34 114,34 z"
         fill="currentColor"
         id="path67451" />
    </g>
  </a>
  <g
     transform="translate(27.8014,10.82457)"
     id="g67459">
    <rect
       x="-0.062799998"
       y="-7.0447998"
       width="0.12549999"
       height="2.8333001"
       ry="0.039999999"
       fill="currentColor"
       id="rect67457" />
  </g>
  <a
     style="color:inherit"
     xlink:href="textedit://C:/Users/Javier/Documents/lilypond%20scores/ricci%20left%20hand%20examples.ly:454:9:10"
     id="a67465"
     transform="translate(-5.6906,-149.27043)">
    <g
       transform="translate(32.3823,160.545)"
       id="g67463">
      <path
         transform="scale(0.0036,-0.0036)"
         d="m 215,137 c 57,0 111,-29 111,-92 0,-71 -54,-120 -101,-148 -35,-21 -74,-34 -114,-34 -57,0 -111,29 -111,92 0,71 54,120 101,148 35,21 74,34 114,34 z"
         fill="currentColor"
         id="path67461" />
    </g>
  </a>
</svg>
