<!-- <?xml version="1.0" encoding="UTF-8" standalone="no"?> -->
<svg
   version="1.2"
   width="190mm"
   height="28.120291mm"
   viewBox="0 0 108.1205 16.001998"
   id="svg17566"
   sodipodi:docname="ricci left hand examples-4.svg"
   xmlns:inkscape="http://www.inkscape.org/namespaces/inkscape"
   xmlns:sodipodi="http://sodipodi.sourceforge.net/DTD/sodipodi-0.dtd"
   xmlns:xlink="http://www.w3.org/1999/xlink"
   xmlns="http://www.w3.org/2000/svg"
   xmlns:svg="http://www.w3.org/2000/svg">
  <defs
     id="defs17570" />
  <sodipodi:namedview
     id="namedview17568"
     pagecolor="#ffffff"
     bordercolor="#000000"
     borderopacity="0.25"
     inkscape:showpageshadow="2"
     inkscape:pageopacity="0.0"
     inkscape:pagecheckerboard="0"
     inkscape:deskcolor="#d1d1d1"
     inkscape:document-units="mm"
     showgrid="false" />
  <style
     type="text/css"
     id="style10622"><![CDATA[
tspan { white-space: pre; }
]]></style>
  <!-- Page: 4/6 -->
  <g
     transform="translate(3.1967416e-8,13.253689)"
     id="g15426">
    <line
       stroke-linejoin="round"
       stroke-linecap="round"
       stroke-width="0.0966"
       stroke="currentColor"
       x1="0.048300002"
       y1="0"
       x2="108.0722"
       y2="0"
       id="line15424" />
  </g>
  <g
     transform="translate(3.1967416e-8,12.353689)"
     id="g15430">
    <line
       stroke-linejoin="round"
       stroke-linecap="round"
       stroke-width="0.0966"
       stroke="currentColor"
       x1="0.048300002"
       y1="0"
       x2="108.0722"
       y2="0"
       id="line15428" />
  </g>
  <g
     transform="translate(3.1967416e-8,11.453689)"
     id="g15434">
    <line
       stroke-linejoin="round"
       stroke-linecap="round"
       stroke-width="0.0966"
       stroke="currentColor"
       x1="0.048300002"
       y1="0"
       x2="108.0722"
       y2="0"
       id="line15432" />
  </g>
  <g
     transform="translate(3.1967416e-8,10.553689)"
     id="g15438">
    <line
       stroke-linejoin="round"
       stroke-linecap="round"
       stroke-width="0.0966"
       stroke="currentColor"
       x1="0.048300002"
       y1="0"
       x2="108.0722"
       y2="0"
       id="line15436" />
  </g>
  <g
     transform="translate(3.1967416e-8,9.6536887)"
     id="g15442">
    <line
       stroke-linejoin="round"
       stroke-linecap="round"
       stroke-width="0.0966"
       stroke="currentColor"
       x1="0.048300002"
       y1="0"
       x2="108.0722"
       y2="0"
       id="line15440" />
  </g>
  <g
     transform="translate(88.8839,11.453689)"
     id="g15446">
    <rect
       x="0"
       y="-1.8"
       width="0.18350001"
       height="3.5999999"
       ry="0.0000"
       fill="currentColor"
       id="rect15444" />
  </g>
  <g
     transform="translate(36.2467,11.453689)"
     id="g15450">
    <rect
       x="0"
       y="-1.8"
       width="0.18350001"
       height="3.5999999"
       ry="0.0000"
       fill="currentColor"
       id="rect15448" />
  </g>
  <g
     transform="translate(107.9369,11.453689)"
     id="g15454">
    <rect
       x="0"
       y="-1.8"
       width="0.18350001"
       height="3.5999999"
       ry="0.0000"
       fill="currentColor"
       id="rect15452" />
  </g>
  <g
     transform="translate(107.4637,11.453689)"
     id="g15458">
    <rect
       x="0"
       y="-1.8"
       width="0.18350001"
       height="3.5999999"
       ry="0.0000"
       fill="currentColor"
       id="rect15456" />
  </g>
  <g
     transform="translate(62.536,11.453689)"
     id="g15462">
    <rect
       x="0"
       y="-1.8"
       width="0.18350001"
       height="3.5999999"
       ry="0.0000"
       fill="currentColor"
       id="rect15460" />
  </g>
  <g
     transform="translate(3.1967416e-8,8.7536887)"
     id="g15466">
    <rect
       x="77.992996"
       y="-0.0933"
       width="1.7588"
       height="0.1866"
       ry="0.0933"
       fill="currentColor"
       id="rect15464" />
  </g>
  <g
     transform="translate(3.1967416e-8,8.7536887)"
     id="g15470">
    <rect
       x="75.885201"
       y="-0.0933"
       width="1.7588"
       height="0.1866"
       ry="0.0933"
       fill="currentColor"
       id="rect15468" />
  </g>
  <g
     transform="translate(3.1967416e-8,7.8536887)"
     id="g15474">
    <rect
       x="73.777397"
       y="-0.0933"
       width="1.7588"
       height="0.1866"
       ry="0.0933"
       fill="currentColor"
       id="rect15472" />
  </g>
  <g
     transform="translate(3.1967416e-8,8.7536887)"
     id="g15478">
    <rect
       x="73.777397"
       y="-0.0933"
       width="1.7588"
       height="0.1866"
       ry="0.0933"
       fill="currentColor"
       id="rect15476" />
  </g>
  <g
     transform="translate(3.1967416e-8,7.8536887)"
     id="g15482">
    <rect
       x="71.669502"
       y="-0.0933"
       width="1.7588"
       height="0.1866"
       ry="0.0933"
       fill="currentColor"
       id="rect15480" />
  </g>
  <g
     transform="translate(3.1967416e-8,8.7536887)"
     id="g15486">
    <rect
       x="71.669502"
       y="-0.0933"
       width="1.7588"
       height="0.1866"
       ry="0.0933"
       fill="currentColor"
       id="rect15484" />
  </g>
  <g
     transform="translate(3.1967416e-8,6.9536887)"
     id="g15490">
    <rect
       x="69.561699"
       y="-0.0933"
       width="1.7588"
       height="0.1866"
       ry="0.0933"
       fill="currentColor"
       id="rect15488" />
  </g>
  <g
     transform="translate(3.1967416e-8,7.8536887)"
     id="g15494">
    <rect
       x="69.561699"
       y="-0.0933"
       width="1.7588"
       height="0.1866"
       ry="0.0933"
       fill="currentColor"
       id="rect15492" />
  </g>
  <g
     transform="translate(3.1967416e-8,8.7536887)"
     id="g15498">
    <rect
       x="69.561699"
       y="-0.0933"
       width="1.7588"
       height="0.1866"
       ry="0.0933"
       fill="currentColor"
       id="rect15496" />
  </g>
  <g
     transform="translate(3.1967416e-8,6.9536887)"
     id="g15502">
    <rect
       x="67.453903"
       y="-0.0933"
       width="1.7588"
       height="0.1866"
       ry="0.0933"
       fill="currentColor"
       id="rect15500" />
  </g>
  <g
     transform="translate(3.1967416e-8,7.8536887)"
     id="g15506">
    <rect
       x="67.453903"
       y="-0.0933"
       width="1.7588"
       height="0.1866"
       ry="0.0933"
       fill="currentColor"
       id="rect15504" />
  </g>
  <g
     transform="translate(3.1967416e-8,8.7536887)"
     id="g15510">
    <rect
       x="67.453903"
       y="-0.0933"
       width="1.7588"
       height="0.1866"
       ry="0.0933"
       fill="currentColor"
       id="rect15508" />
  </g>
  <g
     transform="translate(3.1967416e-8,6.0536887)"
     id="g15514">
    <rect
       x="65.346001"
       y="-0.0933"
       width="1.7588"
       height="0.1866"
       ry="0.0933"
       fill="currentColor"
       id="rect15512" />
  </g>
  <g
     transform="translate(3.1967416e-8,6.9536887)"
     id="g15518">
    <rect
       x="65.346001"
       y="-0.0933"
       width="1.7588"
       height="0.1866"
       ry="0.0933"
       fill="currentColor"
       id="rect15516" />
  </g>
  <g
     transform="translate(3.1967416e-8,7.8536887)"
     id="g15522">
    <rect
       x="65.346001"
       y="-0.0933"
       width="1.7588"
       height="0.1866"
       ry="0.0933"
       fill="currentColor"
       id="rect15520" />
  </g>
  <g
     transform="translate(3.1967416e-8,8.7536887)"
     id="g15526">
    <rect
       x="65.346001"
       y="-0.0933"
       width="1.7588"
       height="0.1866"
       ry="0.0933"
       fill="currentColor"
       id="rect15524" />
  </g>
  <g
     transform="translate(3.1967416e-8,6.0536887)"
     id="g15530">
    <rect
       x="63.238201"
       y="-0.0933"
       width="1.7588"
       height="0.1866"
       ry="0.0933"
       fill="currentColor"
       id="rect15528" />
  </g>
  <g
     transform="translate(3.1967416e-8,6.9536887)"
     id="g15534">
    <rect
       x="63.238201"
       y="-0.0933"
       width="1.7588"
       height="0.1866"
       ry="0.0933"
       fill="currentColor"
       id="rect15532" />
  </g>
  <g
     transform="translate(3.1967416e-8,7.8536887)"
     id="g15538">
    <rect
       x="63.238201"
       y="-0.0933"
       width="1.7588"
       height="0.1866"
       ry="0.0933"
       fill="currentColor"
       id="rect15536" />
  </g>
  <g
     transform="translate(3.1967416e-8,8.7536887)"
     id="g15542">
    <rect
       x="63.238201"
       y="-0.0933"
       width="1.7588"
       height="0.1866"
       ry="0.0933"
       fill="currentColor"
       id="rect15540" />
  </g>
  <g
     transform="translate(3.1967416e-8,5.1536887)"
     id="g15546">
    <rect
       x="60.135101"
       y="-0.0933"
       width="1.7588"
       height="0.1866"
       ry="0.0933"
       fill="currentColor"
       id="rect15544" />
  </g>
  <g
     transform="translate(3.1967416e-8,6.0536887)"
     id="g15550">
    <rect
       x="60.135101"
       y="-0.0933"
       width="1.7588"
       height="0.1866"
       ry="0.0933"
       fill="currentColor"
       id="rect15548" />
  </g>
  <g
     transform="translate(3.1967416e-8,6.9536887)"
     id="g15554">
    <rect
       x="60.135101"
       y="-0.0933"
       width="1.7588"
       height="0.1866"
       ry="0.0933"
       fill="currentColor"
       id="rect15552" />
  </g>
  <g
     transform="translate(3.1967416e-8,7.8536887)"
     id="g15558">
    <rect
       x="60.135101"
       y="-0.0933"
       width="1.7588"
       height="0.1866"
       ry="0.0933"
       fill="currentColor"
       id="rect15556" />
  </g>
  <g
     transform="translate(3.1967416e-8,8.7536887)"
     id="g15562">
    <rect
       x="60.135101"
       y="-0.0933"
       width="1.7588"
       height="0.1866"
       ry="0.0933"
       fill="currentColor"
       id="rect15560" />
  </g>
  <g
     transform="translate(3.1967416e-8,5.1536887)"
     id="g15566">
    <rect
       x="58.027302"
       y="-0.0933"
       width="1.7588"
       height="0.1866"
       ry="0.0933"
       fill="currentColor"
       id="rect15564" />
  </g>
  <g
     transform="translate(3.1967416e-8,6.0536887)"
     id="g15570">
    <rect
       x="58.027302"
       y="-0.0933"
       width="1.7588"
       height="0.1866"
       ry="0.0933"
       fill="currentColor"
       id="rect15568" />
  </g>
  <g
     transform="translate(3.1967416e-8,6.9536887)"
     id="g15574">
    <rect
       x="58.027302"
       y="-0.0933"
       width="1.7588"
       height="0.1866"
       ry="0.0933"
       fill="currentColor"
       id="rect15572" />
  </g>
  <g
     transform="translate(3.1967416e-8,7.8536887)"
     id="g15578">
    <rect
       x="58.027302"
       y="-0.0933"
       width="1.7588"
       height="0.1866"
       ry="0.0933"
       fill="currentColor"
       id="rect15576" />
  </g>
  <g
     transform="translate(3.1967416e-8,8.7536887)"
     id="g15582">
    <rect
       x="58.027302"
       y="-0.0933"
       width="1.7588"
       height="0.1866"
       ry="0.0933"
       fill="currentColor"
       id="rect15580" />
  </g>
  <g
     transform="translate(3.1967416e-8,4.2536887)"
     id="g15586">
    <rect
       x="55.919399"
       y="-0.0933"
       width="1.7588"
       height="0.1866"
       ry="0.0933"
       fill="currentColor"
       id="rect15584" />
  </g>
  <g
     transform="translate(3.1967416e-8,5.1536887)"
     id="g15590">
    <rect
       x="55.919399"
       y="-0.0933"
       width="1.7588"
       height="0.1866"
       ry="0.0933"
       fill="currentColor"
       id="rect15588" />
  </g>
  <g
     transform="translate(3.1967416e-8,6.0536887)"
     id="g15594">
    <rect
       x="55.919399"
       y="-0.0933"
       width="1.7588"
       height="0.1866"
       ry="0.0933"
       fill="currentColor"
       id="rect15592" />
  </g>
  <g
     transform="translate(3.1967416e-8,6.9536887)"
     id="g15598">
    <rect
       x="55.919399"
       y="-0.0933"
       width="1.7588"
       height="0.1866"
       ry="0.0933"
       fill="currentColor"
       id="rect15596" />
  </g>
  <g
     transform="translate(3.1967416e-8,7.8536887)"
     id="g15602">
    <rect
       x="55.919399"
       y="-0.0933"
       width="1.7588"
       height="0.1866"
       ry="0.0933"
       fill="currentColor"
       id="rect15600" />
  </g>
  <g
     transform="translate(3.1967416e-8,8.7536887)"
     id="g15606">
    <rect
       x="55.919399"
       y="-0.0933"
       width="1.7588"
       height="0.1866"
       ry="0.0933"
       fill="currentColor"
       id="rect15604" />
  </g>
  <g
     transform="translate(3.1967416e-8,5.1536887)"
     id="g15610">
    <rect
       x="53.8116"
       y="-0.0933"
       width="1.7588"
       height="0.1866"
       ry="0.0933"
       fill="currentColor"
       id="rect15608" />
  </g>
  <g
     transform="translate(3.1967416e-8,6.0536887)"
     id="g15614">
    <rect
       x="53.8116"
       y="-0.0933"
       width="1.7588"
       height="0.1866"
       ry="0.0933"
       fill="currentColor"
       id="rect15612" />
  </g>
  <g
     transform="translate(3.1967416e-8,6.9536887)"
     id="g15618">
    <rect
       x="53.8116"
       y="-0.0933"
       width="1.7588"
       height="0.1866"
       ry="0.0933"
       fill="currentColor"
       id="rect15616" />
  </g>
  <g
     transform="translate(3.1967416e-8,7.8536887)"
     id="g15622">
    <rect
       x="53.8116"
       y="-0.0933"
       width="1.7588"
       height="0.1866"
       ry="0.0933"
       fill="currentColor"
       id="rect15620" />
  </g>
  <g
     transform="translate(3.1967416e-8,8.7536887)"
     id="g15626">
    <rect
       x="53.8116"
       y="-0.0933"
       width="1.7588"
       height="0.1866"
       ry="0.0933"
       fill="currentColor"
       id="rect15624" />
  </g>
  <g
     transform="translate(3.1967416e-8,5.1536887)"
     id="g15630">
    <rect
       x="51.7038"
       y="-0.0933"
       width="1.7588"
       height="0.1866"
       ry="0.0933"
       fill="currentColor"
       id="rect15628" />
  </g>
  <g
     transform="translate(3.1967416e-8,6.0536887)"
     id="g15634">
    <rect
       x="51.7038"
       y="-0.0933"
       width="1.7588"
       height="0.1866"
       ry="0.0933"
       fill="currentColor"
       id="rect15632" />
  </g>
  <g
     transform="translate(3.1967416e-8,6.9536887)"
     id="g15638">
    <rect
       x="51.7038"
       y="-0.0933"
       width="1.7588"
       height="0.1866"
       ry="0.0933"
       fill="currentColor"
       id="rect15636" />
  </g>
  <g
     transform="translate(3.1967416e-8,7.8536887)"
     id="g15642">
    <rect
       x="51.7038"
       y="-0.0933"
       width="1.7588"
       height="0.1866"
       ry="0.0933"
       fill="currentColor"
       id="rect15640" />
  </g>
  <g
     transform="translate(3.1967416e-8,8.7536887)"
     id="g15646">
    <rect
       x="51.7038"
       y="-0.0933"
       width="1.7588"
       height="0.1866"
       ry="0.0933"
       fill="currentColor"
       id="rect15644" />
  </g>
  <g
     transform="translate(3.1967416e-8,6.0536887)"
     id="g15650">
    <rect
       x="49.595901"
       y="-0.0933"
       width="1.7588"
       height="0.1866"
       ry="0.0933"
       fill="currentColor"
       id="rect15648" />
  </g>
  <g
     transform="translate(3.1967416e-8,6.9536887)"
     id="g15654">
    <rect
       x="49.595901"
       y="-0.0933"
       width="1.7588"
       height="0.1866"
       ry="0.0933"
       fill="currentColor"
       id="rect15652" />
  </g>
  <g
     transform="translate(3.1967416e-8,7.8536887)"
     id="g15658">
    <rect
       x="49.595901"
       y="-0.0933"
       width="1.7588"
       height="0.1866"
       ry="0.0933"
       fill="currentColor"
       id="rect15656" />
  </g>
  <g
     transform="translate(3.1967416e-8,8.7536887)"
     id="g15662">
    <rect
       x="49.595901"
       y="-0.0933"
       width="1.7588"
       height="0.1866"
       ry="0.0933"
       fill="currentColor"
       id="rect15660" />
  </g>
  <g
     transform="translate(3.1967416e-8,6.0536887)"
     id="g15666">
    <rect
       x="47.488098"
       y="-0.0933"
       width="1.7588"
       height="0.1866"
       ry="0.0933"
       fill="currentColor"
       id="rect15664" />
  </g>
  <g
     transform="translate(3.1967416e-8,6.9536887)"
     id="g15670">
    <rect
       x="47.488098"
       y="-0.0933"
       width="1.7588"
       height="0.1866"
       ry="0.0933"
       fill="currentColor"
       id="rect15668" />
  </g>
  <g
     transform="translate(3.1967416e-8,7.8536887)"
     id="g15674">
    <rect
       x="47.488098"
       y="-0.0933"
       width="1.7588"
       height="0.1866"
       ry="0.0933"
       fill="currentColor"
       id="rect15672" />
  </g>
  <g
     transform="translate(3.1967416e-8,8.7536887)"
     id="g15678">
    <rect
       x="47.488098"
       y="-0.0933"
       width="1.7588"
       height="0.1866"
       ry="0.0933"
       fill="currentColor"
       id="rect15676" />
  </g>
  <g
     transform="translate(3.1967416e-8,6.9536887)"
     id="g15682">
    <rect
       x="45.380299"
       y="-0.0933"
       width="1.7588"
       height="0.1866"
       ry="0.0933"
       fill="currentColor"
       id="rect15680" />
  </g>
  <g
     transform="translate(3.1967416e-8,7.8536887)"
     id="g15686">
    <rect
       x="45.380299"
       y="-0.0933"
       width="1.7588"
       height="0.1866"
       ry="0.0933"
       fill="currentColor"
       id="rect15684" />
  </g>
  <g
     transform="translate(3.1967416e-8,8.7536887)"
     id="g15690">
    <rect
       x="45.380299"
       y="-0.0933"
       width="1.7588"
       height="0.1866"
       ry="0.0933"
       fill="currentColor"
       id="rect15688" />
  </g>
  <g
     transform="translate(3.1967416e-8,6.9536887)"
     id="g15694">
    <rect
       x="43.2724"
       y="-0.0933"
       width="1.7588"
       height="0.1866"
       ry="0.0933"
       fill="currentColor"
       id="rect15692" />
  </g>
  <g
     transform="translate(3.1967416e-8,7.8536887)"
     id="g15698">
    <rect
       x="43.2724"
       y="-0.0933"
       width="1.7588"
       height="0.1866"
       ry="0.0933"
       fill="currentColor"
       id="rect15696" />
  </g>
  <g
     transform="translate(3.1967416e-8,8.7536887)"
     id="g15702">
    <rect
       x="43.2724"
       y="-0.0933"
       width="1.7588"
       height="0.1866"
       ry="0.0933"
       fill="currentColor"
       id="rect15700" />
  </g>
  <g
     transform="translate(3.1967416e-8,7.8536887)"
     id="g15706">
    <rect
       x="41.1646"
       y="-0.0933"
       width="1.7588"
       height="0.1866"
       ry="0.0933"
       fill="currentColor"
       id="rect15704" />
  </g>
  <g
     transform="translate(3.1967416e-8,8.7536887)"
     id="g15710">
    <rect
       x="41.1646"
       y="-0.0933"
       width="1.7588"
       height="0.1866"
       ry="0.0933"
       fill="currentColor"
       id="rect15708" />
  </g>
  <g
     transform="translate(3.1967416e-8,7.8536887)"
     id="g15714">
    <rect
       x="39.056702"
       y="-0.0933"
       width="1.7588"
       height="0.1866"
       ry="0.0933"
       fill="currentColor"
       id="rect15712" />
  </g>
  <g
     transform="translate(3.1967416e-8,8.7536887)"
     id="g15718">
    <rect
       x="39.056702"
       y="-0.0933"
       width="1.7588"
       height="0.1866"
       ry="0.0933"
       fill="currentColor"
       id="rect15716" />
  </g>
  <g
     transform="translate(3.1967416e-8,8.7536887)"
     id="g15722">
    <rect
       x="36.948898"
       y="-0.0933"
       width="1.7588"
       height="0.1866"
       ry="0.0933"
       fill="currentColor"
       id="rect15720" />
  </g>
  <g
     transform="translate(3.1967416e-8,8.7536887)"
     id="g15726">
    <rect
       x="33.845798"
       y="-0.0933"
       width="1.7588"
       height="0.1866"
       ry="0.0933"
       fill="currentColor"
       id="rect15724" />
  </g>
  <g
     transform="translate(79.3959,11.453689)"
     id="g15730">
    <rect
       x="-0.062799998"
       y="-4.9499998"
       width="0.12549999"
       height="2.0885999"
       ry="0.039999999"
       fill="currentColor"
       id="rect15728" />
  </g>
  <a
     style="color:inherit"
     xlink:href="textedit://C:/Users/Javier/Documents/lilypond%20scores/ricci%20left%20hand%20examples.ly:610:12:13"
     id="a15736"
     transform="translate(-5.6906,-128.09831)">
    <g
       transform="translate(83.9767,136.852)"
       id="g15734">
      <path
         transform="scale(0.0036,-0.0036)"
         d="m 215,137 c 57,0 111,-29 111,-92 0,-71 -54,-120 -101,-148 -35,-21 -74,-34 -114,-34 -57,0 -111,29 -111,92 0,71 54,120 101,148 35,21 74,34 114,34 z"
         fill="currentColor"
         id="path15732" />
    </g>
  </a>
  <g
     transform="translate(77.288,11.453689)"
     id="g15740">
    <rect
       x="-0.062799998"
       y="-5.2241001"
       width="0.12549999"
       height="1.9127001"
       ry="0.039999999"
       fill="currentColor"
       id="rect15738" />
  </g>
  <a
     style="color:inherit"
     xlink:href="textedit://C:/Users/Javier/Documents/lilypond%20scores/ricci%20left%20hand%20examples.ly:610:9:10"
     id="a15746"
     transform="translate(-5.6906,-128.09831)">
    <g
       transform="translate(81.8689,136.402)"
       id="g15744">
      <path
         transform="scale(0.0036,-0.0036)"
         d="m 215,137 c 57,0 111,-29 111,-92 0,-71 -54,-120 -101,-148 -35,-21 -74,-34 -114,-34 -57,0 -111,29 -111,92 0,71 54,120 101,148 35,21 74,34 114,34 z"
         fill="currentColor"
         id="path15742" />
    </g>
  </a>
  <g
     transform="translate(75.1802,11.453689)"
     id="g15750">
    <rect
       x="-0.062799998"
       y="-6.1412001"
       width="0.12549999"
       height="2.3798001"
       ry="0.039999999"
       fill="currentColor"
       id="rect15748" />
  </g>
  <a
     style="color:inherit"
     xlink:href="textedit://C:/Users/Javier/Documents/lilypond%20scores/ricci%20left%20hand%20examples.ly:609:34:35"
     id="a15756"
     transform="translate(-5.6906,-128.09831)">
    <g
       transform="translate(79.761,135.952)"
       id="g15754">
      <path
         transform="scale(0.0036,-0.0036)"
         d="m 215,137 c 57,0 111,-29 111,-92 0,-71 -54,-120 -101,-148 -35,-21 -74,-34 -114,-34 -57,0 -111,29 -111,92 0,71 54,120 101,148 35,21 74,34 114,34 z"
         fill="currentColor"
         id="path15752" />
    </g>
  </a>
  <g
     transform="translate(73.0724,11.453689)"
     id="g15760">
    <rect
       x="-0.062799998"
       y="-6.4411001"
       width="0.12549999"
       height="2.2297001"
       ry="0.039999999"
       fill="currentColor"
       id="rect15758" />
  </g>
  <a
     style="color:inherit"
     xlink:href="textedit://C:/Users/Javier/Documents/lilypond%20scores/ricci%20left%20hand%20examples.ly:609:31:32"
     id="a15766"
     transform="translate(-5.6906,-128.09831)">
    <g
       transform="translate(77.8127,131.0968)"
       id="g15764">
      <path
         transform="scale(0.002,-0.002)"
         d="m 198,284 c 24,15 48,29 65,52 12,16 19,34 28,52 2,5 6,7 11,7 8,0 16,-6 16,-17 V 161 h 79 c 12,0 18,-9 18,-18 0,-9 -6,-18 -18,-18 h -79 c 2,-51 33,-96 80,-96 10,0 15,-8 15,-15 C 413,7 408,0 398,0 349,0 302,14 253,14 204,14 156,0 107,0 97,0 93,7 93,14 c 0,7 4,15 14,15 47,0 79,45 81,96 H 36 c -29,0 -38,17 -38,28 0,3 1,6 2,8 78,88 123,201 123,319 0,11 8,21 17,21 1,0 3,-1 4,-1 25,-7 50,-14 76,-14 26,0 52,7 77,14 2,1 4,1 6,1 10,0 17,-7 17,-14 0,-2 0,-5 -2,-7 L 36,161 h 152 v 96 c 0,10 1,21 10,27 z"
         fill="currentColor"
         id="path15762" />
    </g>
  </a>
  <a
     style="color:inherit"
     xlink:href="textedit://C:/Users/Javier/Documents/lilypond%20scores/ricci%20left%20hand%20examples.ly:609:30:31"
     id="a15772"
     transform="translate(-5.6906,-128.09831)">
    <g
       transform="translate(77.6532,135.502)"
       id="g15770">
      <path
         transform="scale(0.0036,-0.0036)"
         d="m 215,137 c 57,0 111,-29 111,-92 0,-71 -54,-120 -101,-148 -35,-21 -74,-34 -114,-34 -57,0 -111,29 -111,92 0,71 54,120 101,148 35,21 74,34 114,34 z"
         fill="currentColor"
         id="path15768" />
    </g>
  </a>
  <g
     transform="translate(85.7194,11.453689)"
     id="g15776">
    <rect
       x="-0.062799998"
       y="-3.7411001"
       width="0.12549999"
       height="2.2297001"
       ry="0.039999999"
       fill="currentColor"
       id="rect15774" />
  </g>
  <a
     style="color:inherit"
     xlink:href="textedit://C:/Users/Javier/Documents/lilypond%20scores/ricci%20left%20hand%20examples.ly:608:26:27"
     id="a15782"
     transform="translate(-5.6906,-128.09831)">
    <g
       transform="translate(64.0109,132.802)"
       id="g15780">
      <path
         transform="scale(0.0036,-0.0036)"
         d="m 215,137 c 57,0 111,-29 111,-92 0,-71 -54,-120 -101,-148 -35,-21 -74,-34 -114,-34 -57,0 -111,29 -111,92 0,71 54,120 101,148 35,21 74,34 114,34 z"
         fill="currentColor"
         id="path15778" />
    </g>
  </a>
  <g
     transform="translate(87.8272,11.453689)"
     id="g15786">
    <rect
       x="-0.062799998"
       y="-3.4412"
       width="0.12549999"
       height="2.3798001"
       ry="0.039999999"
       fill="currentColor"
       id="rect15784" />
  </g>
  <a
     style="color:inherit"
     xlink:href="textedit://C:/Users/Javier/Documents/lilypond%20scores/ricci%20left%20hand%20examples.ly:610:26:27"
     id="a15792"
     transform="translate(-5.6906,-128.09831)">
    <g
       transform="translate(92.5675,134.5562)"
       id="g15790">
      <path
         transform="scale(0.002,-0.002)"
         d="m 198,284 c 24,15 48,29 65,52 12,16 19,34 28,52 2,5 6,7 11,7 8,0 16,-6 16,-17 V 161 h 79 c 12,0 18,-9 18,-18 0,-9 -6,-18 -18,-18 h -79 c 2,-51 33,-96 80,-96 10,0 15,-8 15,-15 C 413,7 408,0 398,0 349,0 302,14 253,14 204,14 156,0 107,0 97,0 93,7 93,14 c 0,7 4,15 14,15 47,0 79,45 81,96 H 36 c -29,0 -38,17 -38,28 0,3 1,6 2,8 78,88 123,201 123,319 0,11 8,21 17,21 1,0 3,-1 4,-1 25,-7 50,-14 76,-14 26,0 52,7 77,14 2,1 4,1 6,1 10,0 17,-7 17,-14 0,-2 0,-5 -2,-7 L 36,161 h 152 v 96 c 0,10 1,21 10,27 z"
         fill="currentColor"
         id="path15788" />
    </g>
  </a>
  <a
     style="color:inherit"
     xlink:href="textedit://C:/Users/Javier/Documents/lilypond%20scores/ricci%20left%20hand%20examples.ly:610:28:29"
     id="a15798"
     transform="translate(-5.6906,-128.09831)">
    <g
       transform="translate(92.6529,133.082)"
       id="g15796">
      <path
         transform="scale(0.002,-0.002)"
         d="m 155,471 c -34,0 -70,-8 -70,-38 0,-19 31,-23 31,-42 0,-28 -23,-51 -51,-51 -28,0 -51,23 -51,51 0,67 68,109 141,109 93,0 174,-31 174,-113 0,-41 -6,-77 -42,-94 -11,-5 -17,-16 -17,-27 0,-11 6,-22 17,-27 40,-19 59,-53 59,-98 C 346,47 263,0 160,0 78,0 0,45 0,119 c 0,32 26,58 58,58 32,0 58,-26 58,-58 0,-22 -36,-26 -36,-48 0,-33 42,-42 80,-42 46,0 56,58 56,112 v 38 c 0,40 -4,69 -43,69 H 99 c -12,0 -18,9 -18,18 0,9 6,18 18,18 h 74 c 40,0 43,31 43,73 v 30 c 0,50 -16,84 -61,84 z"
         fill="currentColor"
         id="path15794" />
    </g>
  </a>
  <a
     style="color:inherit"
     xlink:href="textedit://C:/Users/Javier/Documents/lilypond%20scores/ricci%20left%20hand%20examples.ly:610:24:25"
     id="a15804"
     transform="translate(-5.6906,-128.09831)">
    <g
       transform="translate(92.408,138.652)"
       id="g15802">
      <path
         transform="scale(0.0036,-0.0036)"
         d="m 215,137 c 57,0 111,-29 111,-92 0,-71 -54,-120 -101,-148 -35,-21 -74,-34 -114,-34 -57,0 -111,29 -111,92 0,71 54,120 101,148 35,21 74,34 114,34 z"
         fill="currentColor"
         id="path15800" />
    </g>
  </a>
  <a
     style="color:inherit"
     xlink:href="textedit://C:/Users/Javier/Documents/lilypond%20scores/ricci%20left%20hand%20examples.ly:610:14:15"
     id="a15810"
     transform="translate(-5.6906,-128.09831)">
    <g
       transform="translate(86.0845,137.302)"
       id="g15808">
      <path
         transform="scale(0.0036,-0.0036)"
         d="m 215,137 c 57,0 111,-29 111,-92 0,-71 -54,-120 -101,-148 -35,-21 -74,-34 -114,-34 -57,0 -111,29 -111,92 0,71 54,120 101,148 35,21 74,34 114,34 z"
         fill="currentColor"
         id="path15806" />
    </g>
  </a>
  <a
     style="color:inherit"
     xlink:href="textedit://C:/Users/Javier/Documents/lilypond%20scores/ricci%20left%20hand%20examples.ly:610:22:23"
     id="a15816"
     transform="translate(-5.6906,-128.09831)">
    <g
       transform="translate(90.3002,138.202)"
       id="g15814">
      <path
         transform="scale(0.0036,-0.0036)"
         d="m 215,137 c 57,0 111,-29 111,-92 0,-71 -54,-120 -101,-148 -35,-21 -74,-34 -114,-34 -57,0 -111,29 -111,92 0,71 54,120 101,148 35,21 74,34 114,34 z"
         fill="currentColor"
         id="path15812" />
    </g>
  </a>
  <g
     transform="translate(83.6115,11.453689)"
     id="g15820">
    <rect
       x="-0.062799998"
       y="-4.0411"
       width="0.12549999"
       height="2.0796001"
       ry="0.039999999"
       fill="currentColor"
       id="rect15818" />
  </g>
  <a
     style="color:inherit"
     xlink:href="textedit://C:/Users/Javier/Documents/lilypond%20scores/ricci%20left%20hand%20examples.ly:610:18:19"
     id="a15826"
     transform="translate(-5.6906,-128.09831)">
    <g
       transform="translate(88.1924,137.752)"
       id="g15824">
      <path
         transform="scale(0.0036,-0.0036)"
         d="m 215,137 c 57,0 111,-29 111,-92 0,-71 -54,-120 -101,-148 -35,-21 -74,-34 -114,-34 -57,0 -111,29 -111,92 0,71 54,120 101,148 35,21 74,34 114,34 z"
         fill="currentColor"
         id="path15822" />
    </g>
  </a>
  <g
     transform="translate(81.5037,11.453689)"
     id="g15830">
    <rect
       x="-0.062799998"
       y="-4.6759"
       width="0.12549999"
       height="2.2644999"
       ry="0.039999999"
       fill="currentColor"
       id="rect15828" />
  </g>
  <a
     style="color:inherit"
     xlink:href="textedit://C:/Users/Javier/Documents/lilypond%20scores/ricci%20left%20hand%20examples.ly:610:15:16"
     id="a15836"
     transform="translate(-5.6906,-128.09831)">
    <g
       transform="translate(86.2952,133.1104)"
       id="g15834">
      <path
         transform="scale(0.002,-0.002)"
         d="m 129,149 h 7 c 36,0 74,-13 111,-40 19,-14 40,-21 59,-21 22,0 40,10 46,31 2,7 7,11 13,11 7,0 15,-5 15,-14 v -5 C 361,40 296,0 234,0 196,0 159,15 133,47 121,62 105,69 89,69 60,69 32,48 29,13 28,4 22,0 15,0 8,0 0,5 0,14 c 0,173 233,163 233,341 0,56 -14,116 -62,116 -33,0 -66,-15 -66,-44 0,-24 31,-37 31,-61 0,-34 -27,-61 -61,-61 -34,0 -61,27 -61,61 0,78 74,134 157,134 98,0 191,-55 191,-145 C 362,211 227,199 129,149 Z"
         fill="currentColor"
         id="path15832" />
    </g>
  </a>
  <a
     style="color:inherit"
     xlink:href="textedit://C:/Users/Javier/Documents/lilypond%20scores/ricci%20left%20hand%20examples.ly:609:9:10"
     id="a15842"
     transform="translate(-5.6906,-128.09831)">
    <g
       transform="translate(69.2219,133.702)"
       id="g15840">
      <path
         transform="scale(0.0036,-0.0036)"
         d="m 215,137 c 57,0 111,-29 111,-92 0,-71 -54,-120 -101,-148 -35,-21 -74,-34 -114,-34 -57,0 -111,29 -111,92 0,71 54,120 101,148 35,21 74,34 114,34 z"
         fill="currentColor"
         id="path15838" />
    </g>
  </a>
  <g
     transform="translate(64.641,11.453689)"
     id="g15846">
    <rect
       x="-0.062799998"
       y="-7.9240999"
       width="0.12549999"
       height="1.9127001"
       ry="0.039999999"
       fill="currentColor"
       id="rect15844" />
  </g>
  <a
     style="color:inherit"
     xlink:href="textedit://C:/Users/Javier/Documents/lilypond%20scores/ricci%20left%20hand%20examples.ly:619:13:14"
     id="a15852"
     transform="translate(-5.6906,-128.09831)">
    <g
       transform="translate(69.2219,140.002)"
       id="g15850">
      <path
         transform="scale(0.0036,-0.0036)"
         d="m 211,111 c -49,0 -68,-43 -68,-88 0,-75 57,-134 132,-134 49,0 68,43 68,88 0,75 -57,134 -132,134 z M 486,0 c 0,-43 -33,-76 -71,-97 -52,-29 -112,-40 -172,-40 -60,0 -120,11 -172,40 -38,21 -71,54 -71,97 0,43 33,76 71,97 52,29 112,40 172,40 60,0 120,-11 172,-40 38,-21 71,-54 71,-97 z"
         fill="currentColor"
         id="path15848" />
    </g>
  </a>
  <a
     style="color:inherit"
     xlink:href="textedit://C:/Users/Javier/Documents/lilypond%20scores/ricci%20left%20hand%20examples.ly:609:11:12"
     id="a15858"
     transform="translate(-5.6906,-128.09831)">
    <g
       transform="translate(69.4326,130.9619)"
       id="g15856">
      <path
         transform="scale(0.002,-0.002)"
         d="m 129,149 h 7 c 36,0 74,-13 111,-40 19,-14 40,-21 59,-21 22,0 40,10 46,31 2,7 7,11 13,11 7,0 15,-5 15,-14 v -5 C 361,40 296,0 234,0 196,0 159,15 133,47 121,62 105,69 89,69 60,69 32,48 29,13 28,4 22,0 15,0 8,0 0,5 0,14 c 0,173 233,163 233,341 0,56 -14,116 -62,116 -33,0 -66,-15 -66,-44 0,-24 31,-37 31,-61 0,-34 -27,-61 -61,-61 -34,0 -61,27 -61,61 0,78 74,134 157,134 98,0 191,-55 191,-145 C 362,211 227,199 129,149 Z"
         fill="currentColor"
         id="path15854" />
    </g>
  </a>
  <g
     transform="translate(61.5379,11.453689)"
     id="g15862">
    <rect
       x="-0.062799998"
       y="-8.8411999"
       width="0.12549999"
       height="2.3798001"
       ry="0.039999999"
       fill="currentColor"
       id="rect15860" />
  </g>
  <a
     style="color:inherit"
     xlink:href="textedit://C:/Users/Javier/Documents/lilypond%20scores/ricci%20left%20hand%20examples.ly:608:34:35"
     id="a15868"
     transform="translate(-5.6906,-128.09831)">
    <g
       transform="translate(66.3636,129.4743)"
       id="g15866">
      <path
         transform="scale(0.002,-0.002)"
         d="m 155,471 c -34,0 -70,-8 -70,-38 0,-19 31,-23 31,-42 0,-28 -23,-51 -51,-51 -28,0 -51,23 -51,51 0,67 68,109 141,109 93,0 174,-31 174,-113 0,-41 -6,-77 -42,-94 -11,-5 -17,-16 -17,-27 0,-11 6,-22 17,-27 40,-19 59,-53 59,-98 C 346,47 263,0 160,0 78,0 0,45 0,119 c 0,32 26,58 58,58 32,0 58,-26 58,-58 0,-22 -36,-26 -36,-48 0,-33 42,-42 80,-42 46,0 56,58 56,112 v 38 c 0,40 -4,69 -43,69 H 99 c -12,0 -18,9 -18,18 0,9 6,18 18,18 h 74 c 40,0 43,31 43,73 v 30 c 0,50 -16,84 -61,84 z"
         fill="currentColor"
         id="path15864" />
    </g>
  </a>
  <a
     style="color:inherit"
     xlink:href="textedit://C:/Users/Javier/Documents/lilypond%20scores/ricci%20left%20hand%20examples.ly:608:32:33"
     id="a15874"
     transform="translate(-5.6906,-128.09831)">
    <g
       transform="translate(66.1188,133.252)"
       id="g15872">
      <path
         transform="scale(0.0036,-0.0036)"
         d="m 215,137 c 57,0 111,-29 111,-92 0,-71 -54,-120 -101,-148 -35,-21 -74,-34 -114,-34 -57,0 -111,29 -111,92 0,71 54,120 101,148 35,21 74,34 114,34 z"
         fill="currentColor"
         id="path15870" />
    </g>
  </a>
  <g
     transform="translate(59.4301,11.453689)"
     id="g15878">
    <rect
       x="-0.062799998"
       y="-9.1410999"
       width="0.12549999"
       height="2.2297001"
       ry="0.039999999"
       fill="currentColor"
       id="rect15876" />
  </g>
  <a
     style="color:inherit"
     xlink:href="textedit://C:/Users/Javier/Documents/lilypond%20scores/ricci%20left%20hand%20examples.ly:608:29:30"
     id="a15884"
     transform="translate(-5.6906,-128.09831)">
    <g
       transform="translate(64.1704,129.134)"
       id="g15882">
      <path
         transform="scale(0.002,-0.002)"
         d="m 198,284 c 24,15 48,29 65,52 12,16 19,34 28,52 2,5 6,7 11,7 8,0 16,-6 16,-17 V 161 h 79 c 12,0 18,-9 18,-18 0,-9 -6,-18 -18,-18 h -79 c 2,-51 33,-96 80,-96 10,0 15,-8 15,-15 C 413,7 408,0 398,0 349,0 302,14 253,14 204,14 156,0 107,0 97,0 93,7 93,14 c 0,7 4,15 14,15 47,0 79,45 81,96 H 36 c -29,0 -38,17 -38,28 0,3 1,6 2,8 78,88 123,201 123,319 0,11 8,21 17,21 1,0 3,-1 4,-1 25,-7 50,-14 76,-14 26,0 52,7 77,14 2,1 4,1 6,1 10,0 17,-7 17,-14 0,-2 0,-5 -2,-7 L 36,161 h 152 v 96 c 0,10 1,21 10,27 z"
         fill="currentColor"
         id="path15880" />
    </g>
  </a>
  <a
     style="color:inherit"
     xlink:href="textedit://C:/Users/Javier/Documents/lilypond%20scores/ricci%20left%20hand%20examples.ly:605:21:22"
     id="a15890"
     transform="translate(-5.6906,-128.09831)">
    <g
       transform="translate(16.6433,139.552)"
       id="g15888">
      <path
         stroke-width="0.0773"
         stroke-linejoin="round"
         stroke-linecap="round"
         stroke="currentColor"
         fill="currentColor"
         d="m 0.5,1.3062 c 1.4187,-1.7546 8.5033,-3.3578 10.5392,-2.385 v 0 C 9.0288,-1.9386 1.9443,-0.3353 0.5,1.3062 Z"
         id="path15886" />
    </g>
  </a>
  <a
     style="color:inherit"
     xlink:href="textedit://C:/Users/Javier/Documents/lilypond%20scores/ricci%20left%20hand%20examples.ly:609:21:22"
     id="a15896"
     transform="translate(-5.6906,-128.09831)">
    <g
       transform="translate(73.6482,130.4104)"
       id="g15894">
      <path
         transform="scale(0.002,-0.002)"
         d="m 129,149 h 7 c 36,0 74,-13 111,-40 19,-14 40,-21 59,-21 22,0 40,10 46,31 2,7 7,11 13,11 7,0 15,-5 15,-14 v -5 C 361,40 296,0 234,0 196,0 159,15 133,47 121,62 105,69 89,69 60,69 32,48 29,13 28,4 22,0 15,0 8,0 0,5 0,14 c 0,173 233,163 233,341 0,56 -14,116 -62,116 -33,0 -66,-15 -66,-44 0,-24 31,-37 31,-61 0,-34 -27,-61 -61,-61 -34,0 -61,27 -61,61 0,78 74,134 157,134 98,0 191,-55 191,-145 C 362,211 227,199 129,149 Z"
         fill="currentColor"
         id="path15892" />
    </g>
  </a>
  <g
     transform="translate(70.9645,11.453689)"
     id="g15900">
    <rect
       x="-0.062799998"
       y="-6.7410998"
       width="0.12549999"
       height="2.0796001"
       ry="0.039999999"
       fill="currentColor"
       id="rect15898" />
  </g>
  <a
     style="color:inherit"
     xlink:href="textedit://C:/Users/Javier/Documents/lilypond%20scores/ricci%20left%20hand%20examples.ly:609:25:26"
     id="a15906"
     transform="translate(-5.6906,-128.09831)">
    <g
       transform="translate(75.7561,130.6526)"
       id="g15904">
      <path
         transform="scale(0.002,-0.002)"
         d="m 190,464 c -54,0 -61,-71 -61,-141 v -73 -73 c 0,-70 7,-141 61,-141 54,0 62,71 62,141 0,26 -1,51 -1,73 0,22 1,47 1,73 0,70 -8,141 -62,141 z m 0,36 C 308,500 380,378 380,250 380,122 308,0 190,0 72,0 0,122 0,250 0,378 72,500 190,500 Z"
         fill="currentColor"
         id="path15902" />
    </g>
  </a>
  <a
     style="color:inherit"
     xlink:href="textedit://C:/Users/Javier/Documents/lilypond%20scores/ricci%20left%20hand%20examples.ly:609:27:28"
     id="a15912"
     transform="translate(-5.6906,-128.09831)">
    <g
       transform="translate(75.7731,129.1783)"
       id="g15910">
      <path
         transform="scale(0.002,-0.002)"
         d="M 129,129 H 259 C 259,77 291,29 340,29 350,29 354,21 354,14 354,7 350,0 340,0 291,0 243,14 194,14 145,14 98,0 49,0 39,0 34,7 34,14 c 0,7 5,15 15,15 49,0 80,48 80,100 z M 0,250 129,500 c 3,7 13,3 21,0 14,-6 28,-14 44,-14 16,0 31,8 45,14 2,1 2,1 4,1 8,0 16,-9 16,-21 V 129 H 129 v 215 c 0,15 -11,23 -20,23 -5,0 -9,-2 -11,-7 L 32,233 c -4,-7 -9,-9 -15,-9 -9,0 -19,7 -19,17 0,3 0,6 2,9 z"
         fill="currentColor"
         id="path15908" />
    </g>
  </a>
  <a
     style="color:inherit"
     xlink:href="textedit://C:/Users/Javier/Documents/lilypond%20scores/ricci%20left%20hand%20examples.ly:609:24:25"
     id="a15918"
     transform="translate(-5.6906,-128.09831)">
    <g
       transform="translate(75.5454,135.052)"
       id="g15916">
      <path
         transform="scale(0.0036,-0.0036)"
         d="m 215,137 c 57,0 111,-29 111,-92 0,-71 -54,-120 -101,-148 -35,-21 -74,-34 -114,-34 -57,0 -111,29 -111,92 0,71 54,120 101,148 35,21 74,34 114,34 z"
         fill="currentColor"
         id="path15914" />
    </g>
  </a>
  <g
     transform="translate(68.8567,11.453689)"
     id="g15922">
    <rect
       x="-0.062799998"
       y="-7.3758998"
       width="0.12549999"
       height="2.2644999"
       ry="0.039999999"
       fill="currentColor"
       id="rect15920" />
  </g>
  <a
     style="color:inherit"
     xlink:href="textedit://C:/Users/Javier/Documents/lilypond%20scores/ricci%20left%20hand%20examples.ly:609:18:19"
     id="a15928"
     transform="translate(-5.6906,-128.09831)">
    <g
       transform="translate(73.4375,134.602)"
       id="g15926">
      <path
         transform="scale(0.0036,-0.0036)"
         d="m 215,137 c 57,0 111,-29 111,-92 0,-71 -54,-120 -101,-148 -35,-21 -74,-34 -114,-34 -57,0 -111,29 -111,92 0,71 54,120 101,148 35,21 74,34 114,34 z"
         fill="currentColor"
         id="path15924" />
    </g>
  </a>
  <g
     transform="translate(66.7489,11.453689)"
     id="g15932">
    <rect
       x="-0.062799998"
       y="-7.6500001"
       width="0.12549999"
       height="2.0885999"
       ry="0.039999999"
       fill="currentColor"
       id="rect15930" />
  </g>
  <a
     style="color:inherit"
     xlink:href="textedit://C:/Users/Javier/Documents/lilypond%20scores/ricci%20left%20hand%20examples.ly:609:15:16"
     id="a15938"
     transform="translate(-5.6906,-128.09831)">
    <g
       transform="translate(71.5575,130.3911)"
       id="g15936">
      <path
         transform="scale(0.002,-0.002)"
         d="M 129,129 H 259 C 259,77 291,29 340,29 350,29 354,21 354,14 354,7 350,0 340,0 291,0 243,14 194,14 145,14 98,0 49,0 39,0 34,7 34,14 c 0,7 5,15 15,15 49,0 80,48 80,100 z M 0,250 129,500 c 3,7 13,3 21,0 14,-6 28,-14 44,-14 16,0 31,8 45,14 2,1 2,1 4,1 8,0 16,-9 16,-21 V 129 H 129 v 215 c 0,15 -11,23 -20,23 -5,0 -9,-2 -11,-7 L 32,233 c -4,-7 -9,-9 -15,-9 -9,0 -19,7 -19,17 0,3 0,6 2,9 z"
         fill="currentColor"
         id="path15934" />
    </g>
  </a>
  <a
     style="color:inherit"
     xlink:href="textedit://C:/Users/Javier/Documents/lilypond%20scores/ricci%20left%20hand%20examples.ly:609:14:15"
     id="a15944"
     transform="translate(-5.6906,-128.09831)">
    <g
       transform="translate(71.3297,134.152)"
       id="g15942">
      <path
         transform="scale(0.0036,-0.0036)"
         d="m 215,137 c 57,0 111,-29 111,-92 0,-71 -54,-120 -101,-148 -35,-21 -74,-34 -114,-34 -57,0 -111,29 -111,92 0,71 54,120 101,148 35,21 74,34 114,34 z"
         fill="currentColor"
         id="path15940" />
    </g>
  </a>
  <g
     transform="translate(64.5782,3.5213887)"
     id="g15952">
    <polygon
       stroke-linejoin="round"
       stroke-linecap="round"
       stroke-width="0.08"
       fill="currentColor"
       stroke="currentColor"
       points="4.3012,0.3886 4.3012,0.7406 0.04,0.176 0.04,-0.176 "
       id="polygon15950" />
  </g>
  <a
     style="color:inherit"
     xlink:href="textedit://C:/Users/Javier/Documents/lilypond%20scores/ricci%20left%20hand%20examples.ly:610:10:11"
     id="a15958"
     transform="translate(-5.6906,-128.09831)">
    <g
       transform="translate(81.8689,139.552)"
       id="g15956">
      <path
         stroke-width="0.0773"
         stroke-linejoin="round"
         stroke-linecap="round"
         stroke="currentColor"
         fill="currentColor"
         d="m 1.1749,-5.8901 c 1.969,-1.0805 9.0352,0.1149 10.5392,1.7829 v 0 C 10.1907,-5.6609 3.1246,-6.8563 1.1749,-5.8901 Z"
         id="path15954" />
    </g>
  </a>
  <g
     transform="translate(70.9018,4.7036887)"
     id="g15964">
    <polygon
       stroke-linejoin="round"
       stroke-linecap="round"
       stroke-width="0.08"
       fill="currentColor"
       stroke="currentColor"
       points="4.3012,0.4417 4.3012,0.7937 0.04,0.176 0.04,-0.176 "
       id="polygon15962" />
  </g>
  <g
     transform="translate(77.2253,6.2213887)"
     id="g15970">
    <polygon
       stroke-linejoin="round"
       stroke-linecap="round"
       stroke-width="0.08"
       fill="currentColor"
       stroke="currentColor"
       points="4.3012,0.3886 4.3012,0.7406 0.04,0.176 0.04,-0.176 "
       id="polygon15968" />
  </g>
  <g
     transform="translate(83.5488,7.4036887)"
     id="g15974">
    <polygon
       stroke-linejoin="round"
       stroke-linecap="round"
       stroke-width="0.08"
       fill="currentColor"
       stroke="currentColor"
       points="4.3012,0.4417 4.3012,0.7937 0.04,0.176 0.04,-0.176 "
       id="polygon15972" />
  </g>
  <a
     style="color:inherit"
     xlink:href="textedit://C:/Users/Javier/Documents/lilypond%20scores/ricci%20left%20hand%20examples.ly:611:12:13"
     id="a15980"
     transform="translate(-5.6906,-128.09831)">
    <g
       transform="translate(95.6343,139.552)"
       id="g15978">
      <path
         stroke-width="0.0773"
         stroke-linejoin="round"
         stroke-linecap="round"
         stroke="currentColor"
         fill="currentColor"
         d="m 1.1581,-3.1901 c 1.9139,-1.1634 8.9692,-0.2842 10.5392,1.3132 v 0 C 10.113,-3.3593 3.0577,-4.2385 1.1581,-3.1901 Z"
         id="path15976" />
    </g>
  </a>
  <g
     transform="translate(90.9907,8.9213887)"
     id="g15986">
    <polygon
       stroke-linejoin="round"
       stroke-linecap="round"
       stroke-width="0.08"
       fill="currentColor"
       stroke="currentColor"
       points="4.3012,0.3886 4.3012,0.7406 0.04,0.176 0.04,-0.176 "
       id="polygon15984" />
  </g>
  <g
     transform="translate(97.3142,9.8213887)"
     id="g15990">
    <polygon
       stroke-linejoin="round"
       stroke-linecap="round"
       stroke-width="0.08"
       fill="currentColor"
       stroke="currentColor"
       points="4.3012,0.3886 4.3012,0.7406 0.04,0.176 0.04,-0.176 "
       id="polygon15988" />
  </g>
  <a
     style="color:inherit"
     xlink:href="textedit://C:/Users/Javier/Documents/lilypond%20scores/ricci%20left%20hand%20examples.ly:622:5:6"
     id="a15996"
     transform="translate(-5.6906,-128.09831)">
    <g
       transform="translate(108.3088,140.002)"
       id="g15994">
      <path
         transform="scale(0.0036,-0.0036)"
         d="m 312,64 c 0,24 -20,41 -41,41 -4,0 -8,-1 -12,-2 C 229,94 182,65 146,41 110,17 63,-13 43,-37 36,-45 33,-54 33,-64 c 0,-24 20,-41 41,-41 4,0 8,1 12,2 30,9 77,38 113,62 36,24 83,54 103,78 7,8 10,17 10,27 z m -53,73 c 48,0 86,-22 86,-74 0,-18 -4,-38 -10,-56 -12,-38 -30,-73 -63,-95 -53,-36 -113,-49 -186,-49 -48,0 -86,22 -86,74 0,18 4,38 10,56 12,38 31,73 64,95 53,36 112,49 185,49 z"
         fill="currentColor"
         id="path15992" />
    </g>
  </a>
  <g
     transform="translate(101.5926,11.453689)"
     id="g16000">
    <rect
       x="-0.062799998"
       y="-1.0759"
       width="0.12549999"
       height="2.7145"
       ry="0.039999999"
       fill="currentColor"
       id="rect15998" />
  </g>
  <a
     style="color:inherit"
     xlink:href="textedit://C:/Users/Javier/Documents/lilypond%20scores/ricci%20left%20hand%20examples.ly:611:32:33"
     id="a16006"
     transform="translate(-5.6906,-128.09831)">
    <g
       transform="translate(106.1735,141.352)"
       id="g16004">
      <path
         transform="scale(0.0036,-0.0036)"
         d="m 215,137 c 57,0 111,-29 111,-92 0,-71 -54,-120 -101,-148 -35,-21 -74,-34 -114,-34 -57,0 -111,29 -111,92 0,71 54,120 101,148 35,21 74,34 114,34 z"
         fill="currentColor"
         id="path16002" />
    </g>
  </a>
  <a
     style="color:inherit"
     xlink:href="textedit://C:/Users/Javier/Documents/lilypond%20scores/ricci%20left%20hand%20examples.ly:622:7:8"
     id="a16012"
     transform="translate(-5.6906,-128.09831)">
    <g
       transform="translate(108.3088,141.802)"
       id="g16010">
      <path
         transform="scale(0.0036,-0.0036)"
         d="m 312,64 c 0,24 -20,41 -41,41 -4,0 -8,-1 -12,-2 C 229,94 182,65 146,41 110,17 63,-13 43,-37 36,-45 33,-54 33,-64 c 0,-24 20,-41 41,-41 4,0 8,1 12,2 30,9 77,38 113,62 36,24 83,54 103,78 7,8 10,17 10,27 z m -53,73 c 48,0 86,-22 86,-74 0,-18 -4,-38 -10,-56 -12,-38 -30,-73 -63,-95 -53,-36 -113,-49 -186,-49 -48,0 -86,22 -86,74 0,18 4,38 10,56 12,38 31,73 64,95 53,36 112,49 185,49 z"
         fill="currentColor"
         id="path16008" />
    </g>
  </a>
  <g
     transform="translate(10.9527,15.785989)"
     id="g16022">
    <polygon
       stroke-linejoin="round"
       stroke-linecap="round"
       stroke-width="0.08"
       fill="currentColor"
       stroke="currentColor"
       points="4.3012,-0.7406 4.3012,-0.3886 0.04,0.176 0.04,-0.176 "
       id="polygon16020" />
  </g>
  <a
     style="color:inherit"
     xlink:href="textedit://C:/Users/Javier/Documents/lilypond%20scores/ricci%20left%20hand%20examples.ly:606:20:21"
     id="a16028"
     transform="translate(-5.6906,-128.09831)">
    <g
       transform="translate(29.2903,139.552)"
       id="g16026">
      <path
         stroke-width="0.0773"
         stroke-linejoin="round"
         stroke-linecap="round"
         stroke="currentColor"
         fill="currentColor"
         d="M 1.0346,-3.5419 C 2.4987,-5.251 9.5729,-6.6372 11.5738,-5.6071 v 0 C 9.5952,-6.5235 2.521,-5.1373 1.0346,-3.5419 Z"
         id="path16024" />
    </g>
  </a>
  <g
     transform="translate(17.2762,14.603689)"
     id="g16034">
    <polygon
       stroke-linejoin="round"
       stroke-linecap="round"
       stroke-width="0.08"
       fill="currentColor"
       stroke="currentColor"
       points="4.3012,-0.7937 4.3012,-0.4417 0.04,0.176 0.04,-0.176 "
       id="polygon16032" />
  </g>
  <g
     transform="translate(24.6467,8.5859887)"
     id="g16040">
    <polygon
       stroke-linejoin="round"
       stroke-linecap="round"
       stroke-width="0.08"
       fill="currentColor"
       stroke="currentColor"
       points="4.3012,-0.7406 4.3012,-0.3886 0.04,0.176 0.04,-0.176 "
       id="polygon16038" />
  </g>
  <g
     transform="translate(30.9702,7.1213887)"
     id="g16044">
    <polygon
       stroke-linejoin="round"
       stroke-linecap="round"
       stroke-width="0.08"
       fill="currentColor"
       stroke="currentColor"
       points="4.3012,-0.7937 4.3012,-0.4417 0.04,0.176 0.04,-0.176 "
       id="polygon16042" />
  </g>
  <a
     style="color:inherit"
     xlink:href="textedit://C:/Users/Javier/Documents/lilypond%20scores/ricci%20left%20hand%20examples.ly:607:10:11"
     id="a16050"
     transform="translate(-5.6906,-128.09831)">
    <g
       transform="translate(42.9326,139.552)"
       id="g16048">
      <path
         stroke-width="0.0773"
         stroke-linejoin="round"
         stroke-linecap="round"
         stroke="currentColor"
         fill="currentColor"
         d="M 1.0346,-6.2419 C 2.4987,-7.951 9.5729,-9.3372 11.5738,-8.3071 v 0 C 9.5952,-9.2235 2.521,-7.8373 1.0346,-6.2419 Z"
         id="path16046" />
    </g>
  </a>
  <g
     transform="translate(38.289,5.8859887)"
     id="g16056">
    <polygon
       stroke-linejoin="round"
       stroke-linecap="round"
       stroke-width="0.08"
       fill="currentColor"
       stroke="currentColor"
       points="4.3012,-0.7406 4.3012,-0.3886 0.04,0.176 0.04,-0.176 "
       id="polygon16054" />
  </g>
  <a
     style="color:inherit"
     xlink:href="textedit://C:/Users/Javier/Documents/lilypond%20scores/ricci%20left%20hand%20examples.ly:608:10:11"
     id="a16062"
     transform="translate(-5.6906,-128.09831)">
    <g
       transform="translate(55.5796,139.552)"
       id="g16060">
      <path
         stroke-width="0.0773"
         stroke-linejoin="round"
         stroke-linecap="round"
         stroke="currentColor"
         fill="currentColor"
         d="m 1.0888,-8.9419 c 1.6729,-1.4802 8.7175,-1.858 10.5392,-0.5653 v 0 c -1.8155,-1.177 -8.8601,-0.7991 -10.5392,0.5653 z"
         id="path16058" />
    </g>
  </a>
  <g
     transform="translate(44.6125,4.4213887)"
     id="g16068">
    <polygon
       stroke-linejoin="round"
       stroke-linecap="round"
       stroke-width="0.08"
       fill="currentColor"
       stroke="currentColor"
       points="4.3012,-0.7937 4.3012,-0.4417 0.04,0.176 0.04,-0.176 "
       id="polygon16066" />
  </g>
  <g
     transform="translate(50.936,3.1859887)"
     id="g16074">
    <polygon
       stroke-linejoin="round"
       stroke-linecap="round"
       stroke-width="0.08"
       fill="currentColor"
       stroke="currentColor"
       points="4.3012,-0.7406 4.3012,-0.3886 0.04,0.176 0.04,-0.176 "
       id="polygon16072" />
  </g>
  <g
     transform="translate(57.2595,2.0036887)"
     id="g16078">
    <polygon
       stroke-linejoin="round"
       stroke-linecap="round"
       stroke-width="0.08"
       fill="currentColor"
       stroke="currentColor"
       points="4.3012,0.4417 4.3012,0.7937 0.04,0.176 0.04,-0.176 "
       id="polygon16076" />
  </g>
  <a
     style="color:inherit"
     xlink:href="textedit://C:/Users/Javier/Documents/lilypond%20scores/ricci%20left%20hand%20examples.ly:609:10:11"
     id="a16084"
     transform="translate(-5.6906,-128.09831)">
    <g
       transform="translate(69.2219,139.552)"
       id="g16082">
      <path
         stroke-width="0.0773"
         stroke-linejoin="round"
         stroke-linecap="round"
         stroke="currentColor"
         fill="currentColor"
         d="m 1.1749,-8.5901 c 1.969,-1.0805 9.0352,0.1149 10.5392,1.7829 v 0 C 10.1907,-8.3609 3.1246,-9.5563 1.1749,-8.5901 Z"
         id="path16080" />
    </g>
  </a>
  <a
     style="color:inherit"
     xlink:href="textedit://C:/Users/Javier/Documents/lilypond%20scores/ricci%20left%20hand%20examples.ly:611:18:19"
     id="a16092"
     transform="translate(-5.6906,-128.09831)">
    <g
       transform="translate(97.7421,139.552)"
       id="g16090">
      <path
         transform="scale(0.0036,-0.0036)"
         d="m 215,137 c 57,0 111,-29 111,-92 0,-71 -54,-120 -101,-148 -35,-21 -74,-34 -114,-34 -57,0 -111,29 -111,92 0,71 54,120 101,148 35,21 74,34 114,34 z"
         fill="currentColor"
         id="path16088" />
    </g>
  </a>
  <g
     transform="translate(90.0065,11.453689)"
     id="g16096">
    <rect
       x="-0.062799998"
       y="0.67769998"
       width="0.12549999"
       height="2.6222999"
       ry="0.039999999"
       fill="currentColor"
       id="rect16094" />
  </g>
  <g
     transform="translate(91.0534,11.453689)"
     id="g16100">
    <rect
       x="-0.062799998"
       y="-2.5241001"
       width="0.12549999"
       height="1.9127001"
       ry="0.039999999"
       fill="currentColor"
       id="rect16098" />
  </g>
  <a
     style="color:inherit"
     xlink:href="textedit://C:/Users/Javier/Documents/lilypond%20scores/ricci%20left%20hand%20examples.ly:619:15:16"
     id="a16106"
     transform="translate(-5.6906,-128.09831)">
    <g
       transform="translate(95.6343,140.002)"
       id="g16104">
      <path
         transform="scale(0.0036,-0.0036)"
         d="m 312,64 c 0,24 -20,41 -41,41 -4,0 -8,-1 -12,-2 C 229,94 182,65 146,41 110,17 63,-13 43,-37 36,-45 33,-54 33,-64 c 0,-24 20,-41 41,-41 4,0 8,1 12,2 30,9 77,38 113,62 36,24 83,54 103,78 7,8 10,17 10,27 z m -53,73 c 48,0 86,-22 86,-74 0,-18 -4,-38 -10,-56 -12,-38 -30,-73 -63,-95 -53,-36 -113,-49 -186,-49 -48,0 -86,22 -86,74 0,18 4,38 10,56 12,38 31,73 64,95 53,36 112,49 185,49 z"
         fill="currentColor"
         id="path16102" />
    </g>
  </a>
  <a
     style="color:inherit"
     xlink:href="textedit://C:/Users/Javier/Documents/lilypond%20scores/ricci%20left%20hand%20examples.ly:611:13:14"
     id="a16112"
     transform="translate(-5.6906,-128.09831)">
    <g
       transform="translate(95.7938,136.3619)"
       id="g16110">
      <path
         transform="scale(0.002,-0.002)"
         d="m 198,284 c 24,15 48,29 65,52 12,16 19,34 28,52 2,5 6,7 11,7 8,0 16,-6 16,-17 V 161 h 79 c 12,0 18,-9 18,-18 0,-9 -6,-18 -18,-18 h -79 c 2,-51 33,-96 80,-96 10,0 15,-8 15,-15 C 413,7 408,0 398,0 349,0 302,14 253,14 204,14 156,0 107,0 97,0 93,7 93,14 c 0,7 4,15 14,15 47,0 79,45 81,96 H 36 c -29,0 -38,17 -38,28 0,3 1,6 2,8 78,88 123,201 123,319 0,11 8,21 17,21 1,0 3,-1 4,-1 25,-7 50,-14 76,-14 26,0 52,7 77,14 2,1 4,1 6,1 10,0 17,-7 17,-14 0,-2 0,-5 -2,-7 L 36,161 h 152 v 96 c 0,10 1,21 10,27 z"
         fill="currentColor"
         id="path16108" />
    </g>
  </a>
  <a
     style="color:inherit"
     xlink:href="textedit://C:/Users/Javier/Documents/lilypond%20scores/ricci%20left%20hand%20examples.ly:611:15:16"
     id="a16118"
     transform="translate(-5.6906,-128.09831)">
    <g
       transform="translate(95.845,134.8876)"
       id="g16116">
      <path
         transform="scale(0.002,-0.002)"
         d="m 129,149 h 7 c 36,0 74,-13 111,-40 19,-14 40,-21 59,-21 22,0 40,10 46,31 2,7 7,11 13,11 7,0 15,-5 15,-14 v -5 C 361,40 296,0 234,0 196,0 159,15 133,47 121,62 105,69 89,69 60,69 32,48 29,13 28,4 22,0 15,0 8,0 0,5 0,14 c 0,173 233,163 233,341 0,56 -14,116 -62,116 -33,0 -66,-15 -66,-44 0,-24 31,-37 31,-61 0,-34 -27,-61 -61,-61 -34,0 -61,27 -61,61 0,78 74,134 157,134 98,0 191,-55 191,-145 C 362,211 227,199 129,149 Z"
         fill="currentColor"
         id="path16114" />
    </g>
  </a>
  <a
     style="color:inherit"
     xlink:href="textedit://C:/Users/Javier/Documents/lilypond%20scores/ricci%20left%20hand%20examples.ly:611:9:10"
     id="a16124"
     transform="translate(-5.6906,-128.09831)">
    <g
       transform="translate(95.6343,139.102)"
       id="g16122">
      <path
         transform="scale(0.0036,-0.0036)"
         d="m 215,137 c 57,0 111,-29 111,-92 0,-71 -54,-120 -101,-148 -35,-21 -74,-34 -114,-34 -57,0 -111,29 -111,92 0,71 54,120 101,148 35,21 74,34 114,34 z"
         fill="currentColor"
         id="path16120" />
    </g>
  </a>
  <g
     transform="translate(95.2691,11.453689)"
     id="g16128">
    <rect
       x="-0.062799998"
       y="-1.9759001"
       width="0.12549999"
       height="2.2644999"
       ry="0.039999999"
       fill="currentColor"
       id="rect16126" />
  </g>
  <g
     transform="translate(99.4848,11.453689)"
     id="g16132">
    <rect
       x="-0.062799998"
       y="-1.35"
       width="0.12549999"
       height="2.5386"
       ry="0.039999999"
       fill="currentColor"
       id="rect16130" />
  </g>
  <a
     style="color:inherit"
     xlink:href="textedit://C:/Users/Javier/Documents/lilypond%20scores/ricci%20left%20hand%20examples.ly:611:28:29"
     id="a16138"
     transform="translate(-5.6906,-128.09831)">
    <g
       transform="translate(104.0656,140.902)"
       id="g16136">
      <path
         transform="scale(0.0036,-0.0036)"
         d="m 215,137 c 57,0 111,-29 111,-92 0,-71 -54,-120 -101,-148 -35,-21 -74,-34 -114,-34 -57,0 -111,29 -111,92 0,71 54,120 101,148 35,21 74,34 114,34 z"
         fill="currentColor"
         id="path16134" />
    </g>
  </a>
  <g
     transform="translate(103.7979,11.453689)"
     id="g16142">
    <rect
       x="-0.062799998"
       y="-2.7"
       width="0.12549999"
       height="4.7223001"
       ry="0.039999999"
       fill="currentColor"
       id="rect16140" />
  </g>
  <g
     transform="translate(97.3769,11.453689)"
     id="g16146">
    <rect
       x="-0.062799998"
       y="-1.6241"
       width="0.12549999"
       height="2.3627"
       ry="0.039999999"
       fill="currentColor"
       id="rect16144" />
  </g>
  <a
     style="color:inherit"
     xlink:href="textedit://C:/Users/Javier/Documents/lilypond%20scores/ricci%20left%20hand%20examples.ly:611:26:27"
     id="a16152"
     transform="translate(-5.6906,-128.09831)">
    <g
       transform="translate(101.9578,140.452)"
       id="g16150">
      <path
         transform="scale(0.0036,-0.0036)"
         d="m 215,137 c 57,0 111,-29 111,-92 0,-71 -54,-120 -101,-148 -35,-21 -74,-34 -114,-34 -57,0 -111,29 -111,92 0,71 54,120 101,148 35,21 74,34 114,34 z"
         fill="currentColor"
         id="path16148" />
    </g>
  </a>
  <a
     style="color:inherit"
     xlink:href="textedit://C:/Users/Javier/Documents/lilypond%20scores/ricci%20left%20hand%20examples.ly:611:24:25"
     id="a16158"
     transform="translate(-5.6906,-128.09831)">
    <g
       transform="translate(99.85,140.002)"
       id="g16156">
      <path
         transform="scale(0.0036,-0.0036)"
         d="m 215,137 c 57,0 111,-29 111,-92 0,-71 -54,-120 -101,-148 -35,-21 -74,-34 -114,-34 -57,0 -111,29 -111,92 0,71 54,120 101,148 35,21 74,34 114,34 z"
         fill="currentColor"
         id="path16154" />
    </g>
  </a>
  <g
     transform="translate(93.1613,11.453689)"
     id="g16162">
    <rect
       x="-0.062799998"
       y="-2.25"
       width="0.12549999"
       height="2.0885999"
       ry="0.039999999"
       fill="currentColor"
       id="rect16160" />
  </g>
  <a
     style="color:inherit"
     xlink:href="textedit://C:/Users/Javier/Documents/lilypond%20scores/ricci%20left%20hand%20examples.ly:611:19:20"
     id="a16168"
     transform="translate(-5.6906,-128.09831)">
    <g
       transform="translate(97.9016,135.7007)"
       id="g16166">
      <path
         transform="scale(0.002,-0.002)"
         d="m 198,284 c 24,15 48,29 65,52 12,16 19,34 28,52 2,5 6,7 11,7 8,0 16,-6 16,-17 V 161 h 79 c 12,0 18,-9 18,-18 0,-9 -6,-18 -18,-18 h -79 c 2,-51 33,-96 80,-96 10,0 15,-8 15,-15 C 413,7 408,0 398,0 349,0 302,14 253,14 204,14 156,0 107,0 97,0 93,7 93,14 c 0,7 4,15 14,15 47,0 79,45 81,96 H 36 c -29,0 -38,17 -38,28 0,3 1,6 2,8 78,88 123,201 123,319 0,11 8,21 17,21 1,0 3,-1 4,-1 25,-7 50,-14 76,-14 26,0 52,7 77,14 2,1 4,1 6,1 10,0 17,-7 17,-14 0,-2 0,-5 -2,-7 L 36,161 h 152 v 96 c 0,10 1,21 10,27 z"
         fill="currentColor"
         id="path16164" />
    </g>
  </a>
  <a
     style="color:inherit"
     xlink:href="textedit://C:/Users/Javier/Documents/lilypond%20scores/ricci%20left%20hand%20examples.ly:611:21:22"
     id="a16174"
     transform="translate(-5.6906,-128.09831)">
    <g
       transform="translate(97.9699,134.2264)"
       id="g16172">
      <path
         transform="scale(0.002,-0.002)"
         d="M 129,129 H 259 C 259,77 291,29 340,29 350,29 354,21 354,14 354,7 350,0 340,0 291,0 243,14 194,14 145,14 98,0 49,0 39,0 34,7 34,14 c 0,7 5,15 15,15 49,0 80,48 80,100 z M 0,250 129,500 c 3,7 13,3 21,0 14,-6 28,-14 44,-14 16,0 31,8 45,14 2,1 2,1 4,1 8,0 16,-9 16,-21 V 129 H 129 v 215 c 0,15 -11,23 -20,23 -5,0 -9,-2 -11,-7 L 32,233 c -4,-7 -9,-9 -15,-9 -9,0 -19,7 -19,17 0,3 0,6 2,9 z"
         fill="currentColor"
         id="path16170" />
    </g>
  </a>
  <a
     style="color:inherit"
     xlink:href="textedit://C:/Users/Javier/Documents/lilypond%20scores/ricci%20left%20hand%20examples.ly:606:17:18"
     id="a16180"
     transform="translate(-5.6906,-128.09831)">
    <g
       transform="translate(29.2903,139.102)"
       id="g16178">
      <path
         transform="scale(0.0036,-0.0036)"
         d="m 215,137 c 57,0 111,-29 111,-92 0,-71 -54,-120 -101,-148 -35,-21 -74,-34 -114,-34 -57,0 -111,29 -111,92 0,71 54,120 101,148 35,21 74,34 114,34 z"
         fill="currentColor"
         id="path16176" />
    </g>
  </a>
  <a
     style="color:inherit"
     xlink:href="textedit://C:/Users/Javier/Documents/lilypond%20scores/ricci%20left%20hand%20examples.ly:606:29:30"
     id="a16186"
     transform="translate(-5.6906,-128.09831)">
    <g
       transform="translate(31.643,133.1423)"
       id="g16184">
      <path
         transform="scale(0.002,-0.002)"
         d="m 155,471 c -34,0 -70,-8 -70,-38 0,-19 31,-23 31,-42 0,-28 -23,-51 -51,-51 -28,0 -51,23 -51,51 0,67 68,109 141,109 93,0 174,-31 174,-113 0,-41 -6,-77 -42,-94 -11,-5 -17,-16 -17,-27 0,-11 6,-22 17,-27 40,-19 59,-53 59,-98 C 346,47 263,0 160,0 78,0 0,45 0,119 c 0,32 26,58 58,58 32,0 58,-26 58,-58 0,-22 -36,-26 -36,-48 0,-33 42,-42 80,-42 46,0 56,58 56,112 v 38 c 0,40 -4,69 -43,69 H 99 c -12,0 -18,9 -18,18 0,9 6,18 18,18 h 74 c 40,0 43,31 43,73 v 30 c 0,50 -16,84 -61,84 z"
         fill="currentColor"
         id="path16182" />
    </g>
  </a>
  <a
     style="color:inherit"
     xlink:href="textedit://C:/Users/Javier/Documents/lilypond%20scores/ricci%20left%20hand%20examples.ly:606:26:27"
     id="a16192"
     transform="translate(-5.6906,-128.09831)">
    <g
       transform="translate(31.3982,138.652)"
       id="g16190">
      <path
         transform="scale(0.0036,-0.0036)"
         d="m 215,137 c 57,0 111,-29 111,-92 0,-71 -54,-120 -101,-148 -35,-21 -74,-34 -114,-34 -57,0 -111,29 -111,92 0,71 54,120 101,148 35,21 74,34 114,34 z"
         fill="currentColor"
         id="path16188" />
    </g>
  </a>
  <g
     transform="translate(24.7095,11.453689)"
     id="g16196">
    <rect
       x="-0.062799998"
       y="-2.8759"
       width="0.12549999"
       height="2.2644999"
       ry="0.039999999"
       fill="currentColor"
       id="rect16194" />
  </g>
  <a
     style="color:inherit"
     xlink:href="textedit://C:/Users/Javier/Documents/lilypond%20scores/ricci%20left%20hand%20examples.ly:606:21:22"
     id="a16202"
     transform="translate(-5.6906,-128.09831)">
    <g
       transform="translate(29.4498,136.0101)"
       id="g16200">
      <path
         transform="scale(0.002,-0.002)"
         d="m 198,284 c 24,15 48,29 65,52 12,16 19,34 28,52 2,5 6,7 11,7 8,0 16,-6 16,-17 V 161 h 79 c 12,0 18,-9 18,-18 0,-9 -6,-18 -18,-18 h -79 c 2,-51 33,-96 80,-96 10,0 15,-8 15,-15 C 413,7 408,0 398,0 349,0 302,14 253,14 204,14 156,0 107,0 97,0 93,7 93,14 c 0,7 4,15 14,15 47,0 79,45 81,96 H 36 c -29,0 -38,17 -38,28 0,3 1,6 2,8 78,88 123,201 123,319 0,11 8,21 17,21 1,0 3,-1 4,-1 25,-7 50,-14 76,-14 26,0 52,7 77,14 2,1 4,1 6,1 10,0 17,-7 17,-14 0,-2 0,-5 -2,-7 L 36,161 h 152 v 96 c 0,10 1,21 10,27 z"
         fill="currentColor"
         id="path16198" />
    </g>
  </a>
  <a
     style="color:inherit"
     xlink:href="textedit://C:/Users/Javier/Documents/lilypond%20scores/ricci%20left%20hand%20examples.ly:606:23:24"
     id="a16208"
     transform="translate(-5.6906,-128.09831)">
    <g
       transform="translate(29.501,134.5358)"
       id="g16206">
      <path
         transform="scale(0.002,-0.002)"
         d="m 129,149 h 7 c 36,0 74,-13 111,-40 19,-14 40,-21 59,-21 22,0 40,10 46,31 2,7 7,11 13,11 7,0 15,-5 15,-14 v -5 C 361,40 296,0 234,0 196,0 159,15 133,47 121,62 105,69 89,69 60,69 32,48 29,13 28,4 22,0 15,0 8,0 0,5 0,14 c 0,173 233,163 233,341 0,56 -14,116 -62,116 -33,0 -66,-15 -66,-44 0,-24 31,-37 31,-61 0,-34 -27,-61 -61,-61 -34,0 -61,27 -61,61 0,78 74,134 157,134 98,0 191,-55 191,-145 C 362,211 227,199 129,149 Z"
         fill="currentColor"
         id="path16204" />
    </g>
  </a>
  <a
     style="color:inherit"
     xlink:href="textedit://C:/Users/Javier/Documents/lilypond%20scores/ricci%20left%20hand%20examples.ly:606:27:28"
     id="a16214"
     transform="translate(-5.6906,-128.09831)">
    <g
       transform="translate(31.5576,134.6166)"
       id="g16212">
      <path
         transform="scale(0.002,-0.002)"
         d="m 198,284 c 24,15 48,29 65,52 12,16 19,34 28,52 2,5 6,7 11,7 8,0 16,-6 16,-17 V 161 h 79 c 12,0 18,-9 18,-18 0,-9 -6,-18 -18,-18 h -79 c 2,-51 33,-96 80,-96 10,0 15,-8 15,-15 C 413,7 408,0 398,0 349,0 302,14 253,14 204,14 156,0 107,0 97,0 93,7 93,14 c 0,7 4,15 14,15 47,0 79,45 81,96 H 36 c -29,0 -38,17 -38,28 0,3 1,6 2,8 78,88 123,201 123,319 0,11 8,21 17,21 1,0 3,-1 4,-1 25,-7 50,-14 76,-14 26,0 52,7 77,14 2,1 4,1 6,1 10,0 17,-7 17,-14 0,-2 0,-5 -2,-7 L 36,161 h 152 v 96 c 0,10 1,21 10,27 z"
         fill="currentColor"
         id="path16210" />
    </g>
  </a>
  <g
     transform="translate(21.5547,11.453689)"
     id="g16218">
    <rect
       x="-0.062799998"
       y="0.16140001"
       width="0.12549999"
       height="2.3798001"
       ry="0.039999999"
       fill="currentColor"
       id="rect16216" />
  </g>
  <a
     style="color:inherit"
     xlink:href="textedit://C:/Users/Javier/Documents/lilypond%20scores/ricci%20left%20hand%20examples.ly:605:39:40"
     id="a16224"
     transform="translate(-5.6906,-128.09831)">
    <g
       transform="translate(27.342,137.2537)"
       id="g16222">
      <path
         transform="scale(0.002,-0.002)"
         d="m 198,284 c 24,15 48,29 65,52 12,16 19,34 28,52 2,5 6,7 11,7 8,0 16,-6 16,-17 V 161 h 79 c 12,0 18,-9 18,-18 0,-9 -6,-18 -18,-18 h -79 c 2,-51 33,-96 80,-96 10,0 15,-8 15,-15 C 413,7 408,0 398,0 349,0 302,14 253,14 204,14 156,0 107,0 97,0 93,7 93,14 c 0,7 4,15 14,15 47,0 79,45 81,96 H 36 c -29,0 -38,17 -38,28 0,3 1,6 2,8 78,88 123,201 123,319 0,11 8,21 17,21 1,0 3,-1 4,-1 25,-7 50,-14 76,-14 26,0 52,7 77,14 2,1 4,1 6,1 10,0 17,-7 17,-14 0,-2 0,-5 -2,-7 L 36,161 h 152 v 96 c 0,10 1,21 10,27 z"
         fill="currentColor"
         id="path16220" />
    </g>
  </a>
  <a
     style="color:inherit"
     xlink:href="textedit://C:/Users/Javier/Documents/lilypond%20scores/ricci%20left%20hand%20examples.ly:605:41:42"
     id="a16230"
     transform="translate(-5.6906,-128.09831)">
    <g
       transform="translate(27.4103,135.7794)"
       id="g16228">
      <path
         transform="scale(0.002,-0.002)"
         d="M 129,129 H 259 C 259,77 291,29 340,29 350,29 354,21 354,14 354,7 350,0 340,0 291,0 243,14 194,14 145,14 98,0 49,0 39,0 34,7 34,14 c 0,7 5,15 15,15 49,0 80,48 80,100 z M 0,250 129,500 c 3,7 13,3 21,0 14,-6 28,-14 44,-14 16,0 31,8 45,14 2,1 2,1 4,1 8,0 16,-9 16,-21 V 129 H 129 v 215 c 0,15 -11,23 -20,23 -5,0 -9,-2 -11,-7 L 32,233 c -4,-7 -9,-9 -15,-9 -9,0 -19,7 -19,17 0,3 0,6 2,9 z"
         fill="currentColor"
         id="path16226" />
    </g>
  </a>
  <a
     style="color:inherit"
     xlink:href="textedit://C:/Users/Javier/Documents/lilypond%20scores/ricci%20left%20hand%20examples.ly:605:37:38"
     id="a16236"
     transform="translate(-5.6906,-128.09831)">
    <g
       transform="translate(27.1825,139.552)"
       id="g16234">
      <path
         transform="scale(0.0036,-0.0036)"
         d="m 215,137 c 57,0 111,-29 111,-92 0,-71 -54,-120 -101,-148 -35,-21 -74,-34 -114,-34 -57,0 -111,29 -111,92 0,71 54,120 101,148 35,21 74,34 114,34 z"
         fill="currentColor"
         id="path16232" />
    </g>
  </a>
  <a
     style="color:inherit"
     xlink:href="textedit://C:/Users/Javier/Documents/lilypond%20scores/ricci%20left%20hand%20examples.ly:606:42:43"
     id="a16242"
     transform="translate(-5.6906,-128.09831)">
    <g
       transform="translate(37.7217,137.302)"
       id="g16240">
      <path
         transform="scale(0.0036,-0.0036)"
         d="m 215,137 c 57,0 111,-29 111,-92 0,-71 -54,-120 -101,-148 -35,-21 -74,-34 -114,-34 -57,0 -111,29 -111,92 0,71 54,120 101,148 35,21 74,34 114,34 z"
         fill="currentColor"
         id="path16238" />
    </g>
  </a>
  <g
     transform="translate(31.033,11.453689)"
     id="g16246">
    <rect
       x="-0.062799998"
       y="-4.3411999"
       width="0.12549999"
       height="2.3798001"
       ry="0.039999999"
       fill="currentColor"
       id="rect16244" />
  </g>
  <a
     style="color:inherit"
     xlink:href="textedit://C:/Users/Javier/Documents/lilypond%20scores/ricci%20left%20hand%20examples.ly:606:38:39"
     id="a16252"
     transform="translate(-5.6906,-128.09831)">
    <g
       transform="translate(35.6138,137.752)"
       id="g16250">
      <path
         transform="scale(0.0036,-0.0036)"
         d="m 215,137 c 57,0 111,-29 111,-92 0,-71 -54,-120 -101,-148 -35,-21 -74,-34 -114,-34 -57,0 -111,29 -111,92 0,71 54,120 101,148 35,21 74,34 114,34 z"
         fill="currentColor"
         id="path16248" />
    </g>
  </a>
  <g
     transform="translate(28.9252,11.453689)"
     id="g16256">
    <rect
       x="-0.062799998"
       y="-3.4240999"
       width="0.12549999"
       height="1.9127001"
       ry="0.039999999"
       fill="currentColor"
       id="rect16254" />
  </g>
  <a
     style="color:inherit"
     xlink:href="textedit://C:/Users/Javier/Documents/lilypond%20scores/ricci%20left%20hand%20examples.ly:606:33:34"
     id="a16262"
     transform="translate(-5.6906,-128.09831)">
    <g
       transform="translate(33.7167,133.9967)"
       id="g16260">
      <path
         transform="scale(0.002,-0.002)"
         d="m 190,464 c -54,0 -61,-71 -61,-141 v -73 -73 c 0,-70 7,-141 61,-141 54,0 62,71 62,141 0,26 -1,51 -1,73 0,22 1,47 1,73 0,70 -8,141 -62,141 z m 0,36 C 308,500 380,378 380,250 380,122 308,0 190,0 72,0 0,122 0,250 0,378 72,500 190,500 Z"
         fill="currentColor"
         id="path16258" />
    </g>
  </a>
  <a
     style="color:inherit"
     xlink:href="textedit://C:/Users/Javier/Documents/lilypond%20scores/ricci%20left%20hand%20examples.ly:606:35:36"
     id="a16268"
     transform="translate(-5.6906,-128.09831)">
    <g
       transform="translate(33.7167,132.5224)"
       id="g16266">
      <path
         transform="scale(0.002,-0.002)"
         d="m 190,464 c -54,0 -61,-71 -61,-141 v -73 -73 c 0,-70 7,-141 61,-141 54,0 62,71 62,141 0,26 -1,51 -1,73 0,22 1,47 1,73 0,70 -8,141 -62,141 z m 0,36 C 308,500 380,378 380,250 380,122 308,0 190,0 72,0 0,122 0,250 0,378 72,500 190,500 Z"
         fill="currentColor"
         id="path16264" />
    </g>
  </a>
  <a
     style="color:inherit"
     xlink:href="textedit://C:/Users/Javier/Documents/lilypond%20scores/ricci%20left%20hand%20examples.ly:606:32:33"
     id="a16274"
     transform="translate(-5.6906,-128.09831)">
    <g
       transform="translate(33.506,138.202)"
       id="g16272">
      <path
         transform="scale(0.0036,-0.0036)"
         d="m 215,137 c 57,0 111,-29 111,-92 0,-71 -54,-120 -101,-148 -35,-21 -74,-34 -114,-34 -57,0 -111,29 -111,92 0,71 54,120 101,148 35,21 74,34 114,34 z"
         fill="currentColor"
         id="path16270" />
    </g>
  </a>
  <g
     transform="translate(26.8173,11.453689)"
     id="g16278">
    <rect
       x="-0.062799998"
       y="-3.1500001"
       width="0.12549999"
       height="2.0885999"
       ry="0.039999999"
       fill="currentColor"
       id="rect16276" />
  </g>
  <g
     transform="translate(13.1233,11.453689)"
     id="g16282">
    <rect
       x="-0.062799998"
       y="1.9614"
       width="0.12549999"
       height="2.0885999"
       ry="0.039999999"
       fill="currentColor"
       id="rect16280" />
  </g>
  <a
     style="color:inherit"
     xlink:href="textedit://C:/Users/Javier/Documents/lilypond%20scores/ricci%20left%20hand%20examples.ly:605:23:24"
     id="a16288"
     transform="translate(-5.6906,-128.09831)">
    <g
       transform="translate(18.7512,141.352)"
       id="g16286">
      <path
         transform="scale(0.0036,-0.0036)"
         d="m 215,137 c 57,0 111,-29 111,-92 0,-71 -54,-120 -101,-148 -35,-21 -74,-34 -114,-34 -57,0 -111,29 -111,92 0,71 54,120 101,148 35,21 74,34 114,34 z"
         fill="currentColor"
         id="path16284" />
    </g>
  </a>
  <g
     transform="translate(11.0155,11.453689)"
     id="g16292">
    <rect
       x="-0.062799998"
       y="2.4114001"
       width="0.12549999"
       height="1.9127001"
       ry="0.039999999"
       fill="currentColor"
       id="rect16290" />
  </g>
  <g
     transform="translate(7.43,11.453689)"
     id="g16296">
    <path
       transform="scale(0.0036,-0.0036)"
       d="m 358,29 c -49,0 -74,41 -74,73 0,38 27,76 71,76 4,0 7,0 11,-1 -27,36 -69,59 -116,59 -106,0 -113,-74 -113,-188 0,-15 1,-31 1,-48 0,-17 -1,-33 -1,-48 0,-114 7,-188 113,-188 79,0 136,70 155,150 2,7 7,10 13,10 7,0 14,-5 14,-13 0,-95 -105,-175 -182,-175 -68,0 -137,20 -184,70 C 17,-143 0,-71 0,0 c 0,71 17,143 66,194 47,50 116,70 184,70 86,0 159,-66 173,-152 1,-4 1,-9 1,-13 0,-39 -30,-70 -66,-70 z"
       fill="currentColor"
       id="path16294" />
  </g>
  <a
     style="color:inherit"
     xlink:href="textedit://C:/Users/Javier/Documents/lilypond%20scores/ricci%20left%20hand%20examples.ly:600:4:5"
     id="a16306"
     transform="translate(-5.6906,-128.09831)">
    <g
       transform="translate(9.9906,137.752)"
       id="g16300">
      <path
         transform="scale(0.0036,-0.0036)"
         d="m 217,-311 c 0,-11 -8,-19 -19,-19 -11,0 -20,8 -20,19 v 142 l -81,-30 v -156 c 0,-11 -9,-20 -20,-20 -11,0 -19,9 -19,20 v 142 l -28,-11 c -3,-1 -5,-1 -8,-1 -12,0 -22,10 -22,23 v 57 c 0,9 6,18 15,21 l 43,16 V 49 L 30,39 C 27,38 25,38 22,38 10,38 0,47 0,60 v 57 c 0,9 6,18 15,21 l 43,16 v 157 c 0,11 8,19 19,19 11,0 20,-8 20,-19 V 169 l 81,30 v 156 c 0,11 9,20 20,20 11,0 19,-9 19,-20 V 213 l 28,11 c 3,1 5,1 8,1 12,0 22,-10 22,-23 v -57 c 0,-9 -6,-18 -15,-21 L 217,108 V -49 l 28,10 c 3,1 5,1 8,1 12,0 22,-9 22,-22 v -57 c 0,-9 -6,-18 -15,-21 l -43,-16 z M 97,64 V -94 l 81,30 V 94 Z"
         fill="currentColor"
         id="path16298" />
    </g>
    <g
       transform="translate(10.9806,139.102)"
       id="g16304">
      <path
         transform="scale(0.0036,-0.0036)"
         d="m 217,-311 c 0,-11 -8,-19 -19,-19 -11,0 -20,8 -20,19 v 142 l -81,-30 v -156 c 0,-11 -9,-20 -20,-20 -11,0 -19,9 -19,20 v 142 l -28,-11 c -3,-1 -5,-1 -8,-1 -12,0 -22,10 -22,23 v 57 c 0,9 6,18 15,21 l 43,16 V 49 L 30,39 C 27,38 25,38 22,38 10,38 0,47 0,60 v 57 c 0,9 6,18 15,21 l 43,16 v 157 c 0,11 8,19 19,19 11,0 20,-8 20,-19 V 169 l 81,30 v 156 c 0,11 9,20 20,20 11,0 19,-9 19,-20 V 213 l 28,11 c 3,1 5,1 8,1 12,0 22,-10 22,-23 v -57 c 0,-9 -6,-18 -15,-21 L 217,108 V -49 l 28,10 c 3,1 5,1 8,1 12,0 22,-9 22,-22 v -57 c 0,-9 -6,-18 -15,-21 l -43,-16 z M 97,64 V -94 l 81,30 V 94 Z"
         fill="currentColor"
         id="path16302" />
    </g>
  </a>
  <g
     transform="translate(0.80000003,12.353689)"
     id="g16310">
    <path
       transform="scale(0.0036,-0.0036)"
       d="m 378,263 c 4,0 7,1 11,1 156,0 257,-129 257,-262 0,-76 -34,-154 -108,-210 -22,-17 -46,-29 -72,-37 3,-34 5,-68 5,-102 0,-20 -1,-40 -2,-60 -7,-121 -90,-228 -209,-228 -108,0 -196,87 -196,196 0,58 53,104 112,104 54,0 95,-48 95,-104 0,-52 -43,-95 -95,-95 -10,0 -20,2 -29,6 26,-38 68,-63 116,-63 h 3 c 93,2 153,92 159,190 1,19 2,37 2,56 0,30 -2,60 -4,90 -29,-5 -58,-8 -88,-8 -188,0 -333,173 -333,375 0,177 130,307 246,442 -20,62 -38,125 -46,190 -6,52 -7,104 -7,157 0,115 55,223 148,290 7,5 16,4 22,-1 71,-83 134,-244 134,-357 0,-143 -85,-255 -178,-364 21,-68 40,-137 57,-206 z m 84,-465 c 67,24 111,94 111,162 0,89 -65,178 -170,190 24,-115 46,-230 59,-352 z M 75,26 c 0,-134 129,-245 263,-245 28,0 55,2 81,6 C 405,-87 383,31 358,150 279,142 234,89 234,31 c 0,-43 25,-89 80,-121 5,-5 7,-11 7,-16 0,-12 -10,-23 -22,-23 -3,0 -6,1 -9,2 -81,43 -118,116 -118,186 0,89 58,175 161,198 -14,58 -29,116 -46,173 C 181,308 75,186 75,26 Z M 406,1042 C 307,995 244,894 244,785 c 0,-73 20,-132 38,-191 79,97 144,199 144,324 0,53 -4,76 -20,124 z"
       fill="currentColor"
       id="path16308" />
  </g>
  <a
     style="color:inherit"
     xlink:href="textedit://C:/Users/Javier/Documents/lilypond%20scores/ricci%20left%20hand%20examples.ly:619:8:9"
     id="a16316"
     transform="translate(-5.6906,-128.09831)">
    <g
       transform="translate(16.6433,140.002)"
       id="g16314">
      <path
         transform="scale(0.0036,-0.0036)"
         d="m 211,111 c -49,0 -68,-43 -68,-88 0,-75 57,-134 132,-134 49,0 68,43 68,88 0,75 -57,134 -132,134 z M 486,0 c 0,-43 -33,-76 -71,-97 -52,-29 -112,-40 -172,-40 -60,0 -120,11 -172,40 -38,21 -71,54 -71,97 0,43 33,76 71,97 52,29 112,40 172,40 60,0 120,-11 172,-40 38,-21 71,-54 71,-97 z"
         fill="currentColor"
         id="path16312" />
    </g>
  </a>
  <a
     style="color:inherit"
     xlink:href="textedit://C:/Users/Javier/Documents/lilypond%20scores/ricci%20left%20hand%20examples.ly:605:19:20"
     id="a16322"
     transform="translate(-5.6906,-128.09831)">
    <g
       transform="translate(16.6433,141.802)"
       id="g16320">
      <path
         transform="scale(0.0036,-0.0036)"
         d="m 215,137 c 57,0 111,-29 111,-92 0,-71 -54,-120 -101,-148 -35,-21 -74,-34 -114,-34 -57,0 -111,29 -111,92 0,71 54,120 101,148 35,21 74,34 114,34 z"
         fill="currentColor"
         id="path16318" />
    </g>
  </a>
  <g
     transform="translate(19.4468,11.453689)"
     id="g16326">
    <rect
       x="-0.062799998"
       y="0.61140001"
       width="0.12549999"
       height="2.2297001"
       ry="0.039999999"
       fill="currentColor"
       id="rect16324" />
  </g>
  <a
     style="color:inherit"
     xlink:href="textedit://C:/Users/Javier/Documents/lilypond%20scores/ricci%20left%20hand%20examples.ly:605:32:33"
     id="a16332"
     transform="translate(-5.6906,-128.09831)">
    <g
       transform="translate(25.2341,137.2537)"
       id="g16330">
      <path
         transform="scale(0.002,-0.002)"
         d="m 198,284 c 24,15 48,29 65,52 12,16 19,34 28,52 2,5 6,7 11,7 8,0 16,-6 16,-17 V 161 h 79 c 12,0 18,-9 18,-18 0,-9 -6,-18 -18,-18 h -79 c 2,-51 33,-96 80,-96 10,0 15,-8 15,-15 C 413,7 408,0 398,0 349,0 302,14 253,14 204,14 156,0 107,0 97,0 93,7 93,14 c 0,7 4,15 14,15 47,0 79,45 81,96 H 36 c -29,0 -38,17 -38,28 0,3 1,6 2,8 78,88 123,201 123,319 0,11 8,21 17,21 1,0 3,-1 4,-1 25,-7 50,-14 76,-14 26,0 52,7 77,14 2,1 4,1 6,1 10,0 17,-7 17,-14 0,-2 0,-5 -2,-7 L 36,161 h 152 v 96 c 0,10 1,21 10,27 z"
         fill="currentColor"
         id="path16328" />
    </g>
  </a>
  <a
     style="color:inherit"
     xlink:href="textedit://C:/Users/Javier/Documents/lilypond%20scores/ricci%20left%20hand%20examples.ly:605:34:35"
     id="a16338"
     transform="translate(-5.6906,-128.09831)">
    <g
       transform="translate(25.2853,135.7794)"
       id="g16336">
      <path
         transform="scale(0.002,-0.002)"
         d="m 190,464 c -54,0 -61,-71 -61,-141 v -73 -73 c 0,-70 7,-141 61,-141 54,0 62,71 62,141 0,26 -1,51 -1,73 0,22 1,47 1,73 0,70 -8,141 -62,141 z m 0,36 C 308,500 380,378 380,250 380,122 308,0 190,0 72,0 0,122 0,250 0,378 72,500 190,500 Z"
         fill="currentColor"
         id="path16334" />
    </g>
  </a>
  <a
     style="color:inherit"
     xlink:href="textedit://C:/Users/Javier/Documents/lilypond%20scores/ricci%20left%20hand%20examples.ly:605:31:32"
     id="a16344"
     transform="translate(-5.6906,-128.09831)">
    <g
       transform="translate(25.0747,140.002)"
       id="g16342">
      <path
         transform="scale(0.0036,-0.0036)"
         d="m 215,137 c 57,0 111,-29 111,-92 0,-71 -54,-120 -101,-148 -35,-21 -74,-34 -114,-34 -57,0 -111,29 -111,92 0,71 54,120 101,148 35,21 74,34 114,34 z"
         fill="currentColor"
         id="path16340" />
    </g>
  </a>
  <g
     transform="translate(17.339,11.453689)"
     id="g16348">
    <rect
       x="-0.062799998"
       y="1.0614001"
       width="0.12549999"
       height="2.0796001"
       ry="0.039999999"
       fill="currentColor"
       id="rect16346" />
  </g>
  <a
     style="color:inherit"
     xlink:href="textedit://C:/Users/Javier/Documents/lilypond%20scores/ricci%20left%20hand%20examples.ly:605:29:30"
     id="a16354"
     transform="translate(-5.6906,-128.09831)">
    <g
       transform="translate(22.9668,140.452)"
       id="g16352">
      <path
         transform="scale(0.0036,-0.0036)"
         d="m 215,137 c 57,0 111,-29 111,-92 0,-71 -54,-120 -101,-148 -35,-21 -74,-34 -114,-34 -57,0 -111,29 -111,92 0,71 54,120 101,148 35,21 74,34 114,34 z"
         fill="currentColor"
         id="path16350" />
    </g>
  </a>
  <g
     transform="translate(15.2312,11.453689)"
     id="g16358">
    <rect
       x="-0.062799998"
       y="1.5114"
       width="0.12549999"
       height="2.2644999"
       ry="0.039999999"
       fill="currentColor"
       id="rect16356" />
  </g>
  <a
     style="color:inherit"
     xlink:href="textedit://C:/Users/Javier/Documents/lilypond%20scores/ricci%20left%20hand%20examples.ly:605:25:26"
     id="a16364"
     transform="translate(-5.6906,-128.09831)">
    <g
       transform="translate(20.859,140.902)"
       id="g16362">
      <path
         transform="scale(0.0036,-0.0036)"
         d="m 215,137 c 57,0 111,-29 111,-92 0,-71 -54,-120 -101,-148 -35,-21 -74,-34 -114,-34 -57,0 -111,29 -111,92 0,71 54,120 101,148 35,21 74,34 114,34 z"
         fill="currentColor"
         id="path16360" />
    </g>
  </a>
  <a
     style="color:inherit"
     xlink:href="textedit://C:/Users/Javier/Documents/lilypond%20scores/ricci%20left%20hand%20examples.ly:608:13:14"
     id="a16370"
     transform="translate(-5.6906,-128.09831)">
    <g
       transform="translate(57.9323,129.5845)"
       id="g16368">
      <path
         transform="scale(0.002,-0.002)"
         d="m 155,471 c -34,0 -70,-8 -70,-38 0,-19 31,-23 31,-42 0,-28 -23,-51 -51,-51 -28,0 -51,23 -51,51 0,67 68,109 141,109 93,0 174,-31 174,-113 0,-41 -6,-77 -42,-94 -11,-5 -17,-16 -17,-27 0,-11 6,-22 17,-27 40,-19 59,-53 59,-98 C 346,47 263,0 160,0 78,0 0,45 0,119 c 0,32 26,58 58,58 32,0 58,-26 58,-58 0,-22 -36,-26 -36,-48 0,-33 42,-42 80,-42 46,0 56,58 56,112 v 38 c 0,40 -4,69 -43,69 H 99 c -12,0 -18,9 -18,18 0,9 6,18 18,18 h 74 c 40,0 43,31 43,73 v 30 c 0,50 -16,84 -61,84 z"
         fill="currentColor"
         id="path16366" />
    </g>
  </a>
  <a
     style="color:inherit"
     xlink:href="textedit://C:/Users/Javier/Documents/lilypond%20scores/ricci%20left%20hand%20examples.ly:607:21:22"
     id="a16376"
     transform="translate(-5.6906,-128.09831)">
    <g
       transform="translate(49.4839,130.8977)"
       id="g16374">
      <path
         transform="scale(0.002,-0.002)"
         d="M 129,129 H 259 C 259,77 291,29 340,29 350,29 354,21 354,14 354,7 350,0 340,0 291,0 243,14 194,14 145,14 98,0 49,0 39,0 34,7 34,14 c 0,7 5,15 15,15 49,0 80,48 80,100 z M 0,250 129,500 c 3,7 13,3 21,0 14,-6 28,-14 44,-14 16,0 31,8 45,14 2,1 2,1 4,1 8,0 16,-9 16,-21 V 129 H 129 v 215 c 0,15 -11,23 -20,23 -5,0 -9,-2 -11,-7 L 32,233 c -4,-7 -9,-9 -15,-9 -9,0 -19,7 -19,17 0,3 0,6 2,9 z"
         fill="currentColor"
         id="path16372" />
    </g>
  </a>
  <a
     style="color:inherit"
     xlink:href="textedit://C:/Users/Javier/Documents/lilypond%20scores/ricci%20left%20hand%20examples.ly:607:20:21"
     id="a16382"
     transform="translate(-5.6906,-128.09831)">
    <g
       transform="translate(49.2561,135.052)"
       id="g16380">
      <path
         transform="scale(0.0036,-0.0036)"
         d="m 215,137 c 57,0 111,-29 111,-92 0,-71 -54,-120 -101,-148 -35,-21 -74,-34 -114,-34 -57,0 -111,29 -111,92 0,71 54,120 101,148 35,21 74,34 114,34 z"
         fill="currentColor"
         id="path16378" />
    </g>
  </a>
  <g
     transform="translate(53.1066,11.453689)"
     id="g16386">
    <rect
       x="-0.062799998"
       y="-8.5500002"
       width="0.12549999"
       height="2.0885999"
       ry="0.039999999"
       fill="currentColor"
       id="rect16384" />
  </g>
  <g
     transform="translate(33.1408,11.453689)"
     id="g16390">
    <rect
       x="-0.062799998"
       y="-4.6410999"
       width="0.12549999"
       height="2.2297001"
       ry="0.039999999"
       fill="currentColor"
       id="rect16388" />
  </g>
  <g
     transform="translate(42.5674,11.453689)"
     id="g16394">
    <rect
       x="-0.062799998"
       y="-6.1241002"
       width="0.12549999"
       height="1.9127001"
       ry="0.039999999"
       fill="currentColor"
       id="rect16392" />
  </g>
  <a
     style="color:inherit"
     xlink:href="textedit://C:/Users/Javier/Documents/lilypond%20scores/ricci%20left%20hand%20examples.ly:607:18:19"
     id="a16400"
     transform="translate(-5.6906,-128.09831)">
    <g
       transform="translate(47.1483,135.502)"
       id="g16398">
      <path
         transform="scale(0.0036,-0.0036)"
         d="m 215,137 c 57,0 111,-29 111,-92 0,-71 -54,-120 -101,-148 -35,-21 -74,-34 -114,-34 -57,0 -111,29 -111,92 0,71 54,120 101,148 35,21 74,34 114,34 z"
         fill="currentColor"
         id="path16396" />
    </g>
  </a>
  <a
     style="color:inherit"
     xlink:href="textedit://C:/Users/Javier/Documents/lilypond%20scores/ricci%20left%20hand%20examples.ly:608:12:13"
     id="a16406"
     transform="translate(-5.6906,-128.09831)">
    <g
       transform="translate(57.6874,133.252)"
       id="g16404">
      <path
         transform="scale(0.0036,-0.0036)"
         d="m 215,137 c 57,0 111,-29 111,-92 0,-71 -54,-120 -101,-148 -35,-21 -74,-34 -114,-34 -57,0 -111,29 -111,92 0,71 54,120 101,148 35,21 74,34 114,34 z"
         fill="currentColor"
         id="path16402" />
    </g>
  </a>
  <g
     transform="translate(40.4596,11.453689)"
     id="g16410">
    <rect
       x="-0.062799998"
       y="-5.8499999"
       width="0.12549999"
       height="2.0885999"
       ry="0.039999999"
       fill="currentColor"
       id="rect16408" />
  </g>
  <a
     style="color:inherit"
     xlink:href="textedit://C:/Users/Javier/Documents/lilypond%20scores/ricci%20left%20hand%20examples.ly:607:15:16"
     id="a16416"
     transform="translate(-5.6906,-128.09831)">
    <g
       transform="translate(45.2682,131.9425)"
       id="g16414">
      <path
         transform="scale(0.002,-0.002)"
         d="M 129,129 H 259 C 259,77 291,29 340,29 350,29 354,21 354,14 354,7 350,0 340,0 291,0 243,14 194,14 145,14 98,0 49,0 39,0 34,7 34,14 c 0,7 5,15 15,15 49,0 80,48 80,100 z M 0,250 129,500 c 3,7 13,3 21,0 14,-6 28,-14 44,-14 16,0 31,8 45,14 2,1 2,1 4,1 8,0 16,-9 16,-21 V 129 H 129 v 215 c 0,15 -11,23 -20,23 -5,0 -9,-2 -11,-7 L 32,233 c -4,-7 -9,-9 -15,-9 -9,0 -19,7 -19,17 0,3 0,6 2,9 z"
         fill="currentColor"
         id="path16412" />
    </g>
  </a>
  <a
     style="color:inherit"
     xlink:href="textedit://C:/Users/Javier/Documents/lilypond%20scores/ricci%20left%20hand%20examples.ly:607:12:13"
     id="a16422"
     transform="translate(-5.6906,-128.09831)">
    <g
       transform="translate(45.0404,135.952)"
       id="g16420">
      <path
         transform="scale(0.0036,-0.0036)"
         d="m 215,137 c 57,0 111,-29 111,-92 0,-71 -54,-120 -101,-148 -35,-21 -74,-34 -114,-34 -57,0 -111,29 -111,92 0,71 54,120 101,148 35,21 74,34 114,34 z"
         fill="currentColor"
         id="path16418" />
    </g>
  </a>
  <a
     style="color:inherit"
     xlink:href="textedit://C:/Users/Javier/Documents/lilypond%20scores/ricci%20left%20hand%20examples.ly:608:16:17"
     id="a16428"
     transform="translate(-5.6906,-128.09831)">
    <g
       transform="translate(59.7953,132.802)"
       id="g16426">
      <path
         transform="scale(0.0036,-0.0036)"
         d="m 215,137 c 57,0 111,-29 111,-92 0,-71 -54,-120 -101,-148 -35,-21 -74,-34 -114,-34 -57,0 -111,29 -111,92 0,71 54,120 101,148 35,21 74,34 114,34 z"
         fill="currentColor"
         id="path16424" />
    </g>
  </a>
  <g
     transform="translate(48.8909,11.453689)"
     id="g16432">
    <rect
       x="-0.062799998"
       y="-7.6410999"
       width="0.12549999"
       height="2.0796001"
       ry="0.039999999"
       fill="currentColor"
       id="rect16430" />
  </g>
  <a
     style="color:inherit"
     xlink:href="textedit://C:/Users/Javier/Documents/lilypond%20scores/ricci%20left%20hand%20examples.ly:607:29:30"
     id="a16438"
     transform="translate(-5.6906,-128.09831)">
    <g
       transform="translate(53.6995,130.8099)"
       id="g16436">
      <path
         transform="scale(0.002,-0.002)"
         d="M 129,129 H 259 C 259,77 291,29 340,29 350,29 354,21 354,14 354,7 350,0 340,0 291,0 243,14 194,14 145,14 98,0 49,0 39,0 34,7 34,14 c 0,7 5,15 15,15 49,0 80,48 80,100 z M 0,250 129,500 c 3,7 13,3 21,0 14,-6 28,-14 44,-14 16,0 31,8 45,14 2,1 2,1 4,1 8,0 16,-9 16,-21 V 129 H 129 v 215 c 0,15 -11,23 -20,23 -5,0 -9,-2 -11,-7 L 32,233 c -4,-7 -9,-9 -15,-9 -9,0 -19,7 -19,17 0,3 0,6 2,9 z"
         fill="currentColor"
         id="path16434" />
    </g>
  </a>
  <a
     style="color:inherit"
     xlink:href="textedit://C:/Users/Javier/Documents/lilypond%20scores/ricci%20left%20hand%20examples.ly:608:9:10"
     id="a16444"
     transform="translate(-5.6906,-128.09831)">
    <g
       transform="translate(55.5796,133.702)"
       id="g16442">
      <path
         transform="scale(0.0036,-0.0036)"
         d="m 215,137 c 57,0 111,-29 111,-92 0,-71 -54,-120 -101,-148 -35,-21 -74,-34 -114,-34 -57,0 -111,29 -111,92 0,71 54,120 101,148 35,21 74,34 114,34 z"
         fill="currentColor"
         id="path16440" />
    </g>
  </a>
  <g
     transform="translate(50.9988,11.453689)"
     id="g16448">
    <rect
       x="-0.062799998"
       y="-8.2758999"
       width="0.12549999"
       height="2.2644999"
       ry="0.039999999"
       fill="currentColor"
       id="rect16446" />
  </g>
  <a
     style="color:inherit"
     xlink:href="textedit://C:/Users/Javier/Documents/lilypond%20scores/ricci%20left%20hand%20examples.ly:607:28:29"
     id="a16454"
     transform="translate(-5.6906,-128.09831)">
    <g
       transform="translate(53.4718,134.152)"
       id="g16452">
      <path
         transform="scale(0.0036,-0.0036)"
         d="m 215,137 c 57,0 111,-29 111,-92 0,-71 -54,-120 -101,-148 -35,-21 -74,-34 -114,-34 -57,0 -111,29 -111,92 0,71 54,120 101,148 35,21 74,34 114,34 z"
         fill="currentColor"
         id="path16450" />
    </g>
  </a>
  <g
     transform="translate(46.7831,11.453689)"
     id="g16458">
    <rect
       x="-0.062799998"
       y="-7.3411002"
       width="0.12549999"
       height="2.2297001"
       ry="0.039999999"
       fill="currentColor"
       id="rect16456" />
  </g>
  <a
     style="color:inherit"
     xlink:href="textedit://C:/Users/Javier/Documents/lilypond%20scores/ricci%20left%20hand%20examples.ly:607:24:25"
     id="a16464"
     transform="translate(-5.6906,-128.09831)">
    <g
       transform="translate(51.3639,134.602)"
       id="g16462">
      <path
         transform="scale(0.0036,-0.0036)"
         d="m 215,137 c 57,0 111,-29 111,-92 0,-71 -54,-120 -101,-148 -35,-21 -74,-34 -114,-34 -57,0 -111,29 -111,92 0,71 54,120 101,148 35,21 74,34 114,34 z"
         fill="currentColor"
         id="path16460" />
    </g>
  </a>
  <g
     transform="translate(44.6753,11.453689)"
     id="g16468">
    <rect
       x="-0.062799998"
       y="-7.0412002"
       width="0.12549999"
       height="2.3798001"
       ry="0.039999999"
       fill="currentColor"
       id="rect16466" />
  </g>
  <a
     style="color:inherit"
     xlink:href="textedit://C:/Users/Javier/Documents/lilypond%20scores/ricci%20left%20hand%20examples.ly:608:23:24"
     id="a16474"
     transform="translate(-5.6906,-128.09831)">
    <g
       transform="translate(62.0626,129.1003)"
       id="g16472">
      <path
         transform="scale(0.002,-0.002)"
         d="m 198,284 c 24,15 48,29 65,52 12,16 19,34 28,52 2,5 6,7 11,7 8,0 16,-6 16,-17 V 161 h 79 c 12,0 18,-9 18,-18 0,-9 -6,-18 -18,-18 h -79 c 2,-51 33,-96 80,-96 10,0 15,-8 15,-15 C 413,7 408,0 398,0 349,0 302,14 253,14 204,14 156,0 107,0 97,0 93,7 93,14 c 0,7 4,15 14,15 47,0 79,45 81,96 H 36 c -29,0 -38,17 -38,28 0,3 1,6 2,8 78,88 123,201 123,319 0,11 8,21 17,21 1,0 3,-1 4,-1 25,-7 50,-14 76,-14 26,0 52,7 77,14 2,1 4,1 6,1 10,0 17,-7 17,-14 0,-2 0,-5 -2,-7 L 36,161 h 152 v 96 c 0,10 1,21 10,27 z"
         fill="currentColor"
         id="path16470" />
    </g>
  </a>
  <a
     style="color:inherit"
     xlink:href="textedit://C:/Users/Javier/Documents/lilypond%20scores/ricci%20left%20hand%20examples.ly:619:11:12"
     id="a16480"
     transform="translate(-5.6906,-128.09831)">
    <g
       transform="translate(42.9326,140.002)"
       id="g16478">
      <path
         transform="scale(0.0036,-0.0036)"
         d="m 211,111 c -49,0 -68,-43 -68,-88 0,-75 57,-134 132,-134 49,0 68,43 68,88 0,75 -57,134 -132,134 z M 486,0 c 0,-43 -33,-76 -71,-97 -52,-29 -112,-40 -172,-40 -60,0 -120,11 -172,40 -38,21 -71,54 -71,97 0,43 33,76 71,97 52,29 112,40 172,40 60,0 120,-11 172,-40 38,-21 71,-54 71,-97 z"
         fill="currentColor"
         id="path16476" />
    </g>
  </a>
  <a
     style="color:inherit"
     xlink:href="textedit://C:/Users/Javier/Documents/lilypond%20scores/ricci%20left%20hand%20examples.ly:607:9:10"
     id="a16486"
     transform="translate(-5.6906,-128.09831)">
    <g
       transform="translate(42.9326,136.402)"
       id="g16484">
      <path
         transform="scale(0.0036,-0.0036)"
         d="m 215,137 c 57,0 111,-29 111,-92 0,-71 -54,-120 -101,-148 -35,-21 -74,-34 -114,-34 -57,0 -111,29 -111,92 0,71 54,120 101,148 35,21 74,34 114,34 z"
         fill="currentColor"
         id="path16482" />
    </g>
  </a>
  <g
     transform="translate(35.2487,11.453689)"
     id="g16490">
    <rect
       x="-0.062799998"
       y="-4.9411001"
       width="0.12549999"
       height="2.0796001"
       ry="0.039999999"
       fill="currentColor"
       id="rect16488" />
  </g>
  <a
     style="color:inherit"
     xlink:href="textedit://C:/Users/Javier/Documents/lilypond%20scores/ricci%20left%20hand%20examples.ly:608:22:23"
     id="a16496"
     transform="translate(-5.6906,-128.09831)">
    <g
       transform="translate(61.9031,132.352)"
       id="g16494">
      <path
         transform="scale(0.0036,-0.0036)"
         d="m 215,137 c 57,0 111,-29 111,-92 0,-71 -54,-120 -101,-148 -35,-21 -74,-34 -114,-34 -57,0 -111,29 -111,92 0,71 54,120 101,148 35,21 74,34 114,34 z"
         fill="currentColor"
         id="path16492" />
    </g>
  </a>
  <a
     style="color:inherit"
     xlink:href="textedit://C:/Users/Javier/Documents/lilypond%20scores/ricci%20left%20hand%20examples.ly:606:45:46"
     id="a16502"
     transform="translate(-5.6906,-128.09831)">
    <g
       transform="translate(40.0573,133.5099)"
       id="g16500">
      <path
         transform="scale(0.002,-0.002)"
         d="M 129,129 H 259 C 259,77 291,29 340,29 350,29 354,21 354,14 354,7 350,0 340,0 291,0 243,14 194,14 145,14 98,0 49,0 39,0 34,7 34,14 c 0,7 5,15 15,15 49,0 80,48 80,100 z M 0,250 129,500 c 3,7 13,3 21,0 14,-6 28,-14 44,-14 16,0 31,8 45,14 2,1 2,1 4,1 8,0 16,-9 16,-21 V 129 H 129 v 215 c 0,15 -11,23 -20,23 -5,0 -9,-2 -11,-7 L 32,233 c -4,-7 -9,-9 -15,-9 -9,0 -19,7 -19,17 0,3 0,6 2,9 z"
         fill="currentColor"
         id="path16498" />
    </g>
  </a>
  <a
     style="color:inherit"
     xlink:href="textedit://C:/Users/Javier/Documents/lilypond%20scores/ricci%20left%20hand%20examples.ly:606:44:45"
     id="a16508"
     transform="translate(-5.6906,-128.09831)">
    <g
       transform="translate(39.8295,136.852)"
       id="g16506">
      <path
         transform="scale(0.0036,-0.0036)"
         d="m 215,137 c 57,0 111,-29 111,-92 0,-71 -54,-120 -101,-148 -35,-21 -74,-34 -114,-34 -57,0 -111,29 -111,92 0,71 54,120 101,148 35,21 74,34 114,34 z"
         fill="currentColor"
         id="path16504" />
    </g>
  </a>
  <g
     transform="translate(57.3223,11.453689)"
     id="g16512">
    <rect
       x="-0.062799998"
       y="-9.4411001"
       width="0.12549999"
       height="2.0796001"
       ry="0.039999999"
       fill="currentColor"
       id="rect16510" />
  </g>
  <a
     style="color:inherit"
     xlink:href="textedit://C:/Users/Javier/Documents/lilypond%20scores/ricci%20left%20hand%20examples.ly:608:19:20"
     id="a16518"
     transform="translate(-5.6906,-128.09831)">
    <g
       transform="translate(59.9547,129.2157)"
       id="g16516">
      <path
         transform="scale(0.002,-0.002)"
         d="m 198,284 c 24,15 48,29 65,52 12,16 19,34 28,52 2,5 6,7 11,7 8,0 16,-6 16,-17 V 161 h 79 c 12,0 18,-9 18,-18 0,-9 -6,-18 -18,-18 h -79 c 2,-51 33,-96 80,-96 10,0 15,-8 15,-15 C 413,7 408,0 398,0 349,0 302,14 253,14 204,14 156,0 107,0 97,0 93,7 93,14 c 0,7 4,15 14,15 47,0 79,45 81,96 H 36 c -29,0 -38,17 -38,28 0,3 1,6 2,8 78,88 123,201 123,319 0,11 8,21 17,21 1,0 3,-1 4,-1 25,-7 50,-14 76,-14 26,0 52,7 77,14 2,1 4,1 6,1 10,0 17,-7 17,-14 0,-2 0,-5 -2,-7 L 36,161 h 152 v 96 c 0,10 1,21 10,27 z"
         fill="currentColor"
         id="path16514" />
    </g>
  </a>
  <g
     transform="translate(55.2144,11.453689)"
     id="g16522">
    <rect
       x="-0.062799998"
       y="-8.8240995"
       width="0.12549999"
       height="1.9127001"
       ry="0.039999999"
       fill="currentColor"
       id="rect16520" />
  </g>
  <g
     transform="translate(38.3517,11.453689)"
     id="g16526">
    <rect
       x="-0.062799998"
       y="-5.5759001"
       width="0.12549999"
       height="2.2644999"
       ry="0.039999999"
       fill="currentColor"
       id="rect16524" />
  </g>
</svg>
