<!-- <?xml version="1.0" encoding="UTF-8" standalone="no"?> -->
<svg
   version="1.2"
   width="142.78456mm"
   height="31.348362mm"
   viewBox="0 0 81.252302 17.838949"
   id="svg76652"
   sodipodi:docname="ricci left hand examples-5.svg"
   xmlns:inkscape="http://www.inkscape.org/namespaces/inkscape"
   xmlns:sodipodi="http://sodipodi.sourceforge.net/DTD/sodipodi-0.dtd"
   xmlns:xlink="http://www.w3.org/1999/xlink"
   xmlns="http://www.w3.org/2000/svg"
   xmlns:svg="http://www.w3.org/2000/svg">
  <defs
     id="defs76656" />
  <sodipodi:namedview
     id="namedview76654"
     pagecolor="#ffffff"
     bordercolor="#000000"
     borderopacity="0.25"
     inkscape:showpageshadow="2"
     inkscape:pageopacity="0.0"
     inkscape:pagecheckerboard="0"
     inkscape:deskcolor="#d1d1d1"
     inkscape:document-units="mm"
     showgrid="false" />
  <style
     type="text/css"
     id="style69758"><![CDATA[
tspan { white-space: pre; }
]]></style>
  <!-- Page: 5/6 -->
  <g
     transform="translate(3.1967416e-8,13.788947)"
     id="g70816"
     inkscape:export-filename="ex29.png"
     inkscape:export-xdpi="96"
     inkscape:export-ydpi="96">
    <line
       stroke-linejoin="round"
       stroke-linecap="round"
       stroke-width="0.0966"
       stroke="currentColor"
       x1="0.048300002"
       y1="0"
       x2="81.204002"
       y2="0"
       id="line70814" />
  </g>
  <g
     transform="translate(3.1967416e-8,12.888947)"
     id="g70820">
    <line
       stroke-linejoin="round"
       stroke-linecap="round"
       stroke-width="0.0966"
       stroke="currentColor"
       x1="0.048300002"
       y1="0"
       x2="81.204002"
       y2="0"
       id="line70818" />
  </g>
  <g
     transform="translate(3.1967416e-8,11.988947)"
     id="g70824">
    <line
       stroke-linejoin="round"
       stroke-linecap="round"
       stroke-width="0.0966"
       stroke="currentColor"
       x1="0.048300002"
       y1="0"
       x2="81.204002"
       y2="0"
       id="line70822" />
  </g>
  <g
     transform="translate(3.1967416e-8,11.088947)"
     id="g70828">
    <line
       stroke-linejoin="round"
       stroke-linecap="round"
       stroke-width="0.0966"
       stroke="currentColor"
       x1="0.048300002"
       y1="0"
       x2="81.204002"
       y2="0"
       id="line70826" />
  </g>
  <g
     transform="translate(3.1967416e-8,10.188947)"
     id="g70832">
    <line
       stroke-linejoin="round"
       stroke-linecap="round"
       stroke-width="0.0966"
       stroke="currentColor"
       x1="0.048300002"
       y1="0"
       x2="81.204002"
       y2="0"
       id="line70830" />
  </g>
  <g
     transform="translate(3.1967416e-8,14.688947)"
     id="g70836">
    <rect
       x="74.490501"
       y="-0.0933"
       width="1.8638"
       height="0.1866"
       ry="0.0933"
       fill="currentColor"
       id="rect70834" />
  </g>
  <g
     transform="translate(3.1967416e-8,15.588947)"
     id="g70840">
    <rect
       x="74.490501"
       y="-0.0933"
       width="1.8638"
       height="0.1866"
       ry="0.0933"
       fill="currentColor"
       id="rect70838" />
  </g>
  <g
     transform="translate(3.1967416e-8,14.688947)"
     id="g70844">
    <rect
       x="69.802002"
       y="-0.0933"
       width="1.7588"
       height="0.1866"
       ry="0.0933"
       fill="currentColor"
       id="rect70842" />
  </g>
  <g
     transform="translate(3.1967416e-8,9.2889467)"
     id="g70848">
    <rect
       x="59.189301"
       y="-0.0933"
       width="1.7588"
       height="0.1866"
       ry="0.0933"
       fill="currentColor"
       id="rect70846" />
  </g>
  <g
     transform="translate(3.1967416e-8,8.3889467)"
     id="g70852">
    <rect
       x="55.657799"
       y="-0.0933"
       width="1.7588"
       height="0.1866"
       ry="0.0933"
       fill="currentColor"
       id="rect70850" />
  </g>
  <g
     transform="translate(3.1967416e-8,9.2889467)"
     id="g70856">
    <rect
       x="55.657799"
       y="-0.0933"
       width="1.7588"
       height="0.1866"
       ry="0.0933"
       fill="currentColor"
       id="rect70854" />
  </g>
  <g
     transform="translate(3.1967416e-8,7.4889467)"
     id="g70860">
    <rect
       x="53.535301"
       y="-0.0933"
       width="1.7588"
       height="0.1866"
       ry="0.0933"
       fill="currentColor"
       id="rect70858" />
  </g>
  <g
     transform="translate(3.1967416e-8,8.3889467)"
     id="g70864">
    <rect
       x="53.535301"
       y="-0.0933"
       width="1.7588"
       height="0.1866"
       ry="0.0933"
       fill="currentColor"
       id="rect70862" />
  </g>
  <g
     transform="translate(3.1967416e-8,9.2889467)"
     id="g70868">
    <rect
       x="53.535301"
       y="-0.0933"
       width="1.7588"
       height="0.1866"
       ry="0.0933"
       fill="currentColor"
       id="rect70866" />
  </g>
  <g
     transform="translate(3.1967416e-8,6.5889467)"
     id="g70872">
    <rect
       x="51.412701"
       y="-0.0933"
       width="1.7588"
       height="0.1866"
       ry="0.0933"
       fill="currentColor"
       id="rect70870" />
  </g>
  <g
     transform="translate(3.1967416e-8,7.4889467)"
     id="g70876">
    <rect
       x="51.412701"
       y="-0.0933"
       width="1.7588"
       height="0.1866"
       ry="0.0933"
       fill="currentColor"
       id="rect70874" />
  </g>
  <g
     transform="translate(3.1967416e-8,8.3889467)"
     id="g70880">
    <rect
       x="51.412701"
       y="-0.0933"
       width="1.7588"
       height="0.1866"
       ry="0.0933"
       fill="currentColor"
       id="rect70878" />
  </g>
  <g
     transform="translate(3.1967416e-8,9.2889467)"
     id="g70884">
    <rect
       x="51.412701"
       y="-0.0933"
       width="1.7588"
       height="0.1866"
       ry="0.0933"
       fill="currentColor"
       id="rect70882" />
  </g>
  <g
     transform="translate(3.1967416e-8,8.3889467)"
     id="g70888">
    <rect
       x="48.790199"
       y="-0.0933"
       width="1.7588"
       height="0.1866"
       ry="0.0933"
       fill="currentColor"
       id="rect70886" />
  </g>
  <g
     transform="translate(3.1967416e-8,9.2889467)"
     id="g70892">
    <rect
       x="48.790199"
       y="-0.0933"
       width="1.7588"
       height="0.1866"
       ry="0.0933"
       fill="currentColor"
       id="rect70890" />
  </g>
  <g
     transform="translate(3.1967416e-8,7.4889467)"
     id="g70896">
    <rect
       x="46.667702"
       y="-0.0933"
       width="1.7588"
       height="0.1866"
       ry="0.0933"
       fill="currentColor"
       id="rect70894" />
  </g>
  <g
     transform="translate(3.1967416e-8,8.3889467)"
     id="g70900">
    <rect
       x="46.667702"
       y="-0.0933"
       width="1.7588"
       height="0.1866"
       ry="0.0933"
       fill="currentColor"
       id="rect70898" />
  </g>
  <g
     transform="translate(3.1967416e-8,9.2889467)"
     id="g70904">
    <rect
       x="46.667702"
       y="-0.0933"
       width="1.7588"
       height="0.1866"
       ry="0.0933"
       fill="currentColor"
       id="rect70902" />
  </g>
  <g
     transform="translate(3.1967416e-8,6.5889467)"
     id="g70908">
    <rect
       x="44.545101"
       y="-0.0933"
       width="1.7588"
       height="0.1866"
       ry="0.0933"
       fill="currentColor"
       id="rect70906" />
  </g>
  <g
     transform="translate(3.1967416e-8,7.4889467)"
     id="g70912">
    <rect
       x="44.545101"
       y="-0.0933"
       width="1.7588"
       height="0.1866"
       ry="0.0933"
       fill="currentColor"
       id="rect70910" />
  </g>
  <g
     transform="translate(3.1967416e-8,8.3889467)"
     id="g70916">
    <rect
       x="44.545101"
       y="-0.0933"
       width="1.7588"
       height="0.1866"
       ry="0.0933"
       fill="currentColor"
       id="rect70914" />
  </g>
  <g
     transform="translate(3.1967416e-8,9.2889467)"
     id="g70920">
    <rect
       x="44.545101"
       y="-0.0933"
       width="1.7588"
       height="0.1866"
       ry="0.0933"
       fill="currentColor"
       id="rect70918" />
  </g>
  <g
     transform="translate(3.1967416e-8,14.688947)"
     id="g70924">
    <rect
       x="44.527699"
       y="-0.0933"
       width="1.8638"
       height="0.1866"
       ry="0.0933"
       fill="currentColor"
       id="rect70922" />
  </g>
  <g
     transform="translate(3.1967416e-8,15.588947)"
     id="g70928">
    <rect
       x="44.527699"
       y="-0.0933"
       width="1.8638"
       height="0.1866"
       ry="0.0933"
       fill="currentColor"
       id="rect70926" />
  </g>
  <g
     transform="translate(3.1967416e-8,7.4889467)"
     id="g70932">
    <rect
       x="41.0891"
       y="-0.0933"
       width="1.7588"
       height="0.1866"
       ry="0.0933"
       fill="currentColor"
       id="rect70930" />
  </g>
  <g
     transform="translate(3.1967416e-8,8.3889467)"
     id="g70936">
    <rect
       x="41.0891"
       y="-0.0933"
       width="1.7588"
       height="0.1866"
       ry="0.0933"
       fill="currentColor"
       id="rect70934" />
  </g>
  <g
     transform="translate(3.1967416e-8,9.2889467)"
     id="g70940">
    <rect
       x="41.0891"
       y="-0.0933"
       width="1.7588"
       height="0.1866"
       ry="0.0933"
       fill="currentColor"
       id="rect70938" />
  </g>
  <g
     transform="translate(3.1967416e-8,8.3889467)"
     id="g70944">
    <rect
       x="38.466599"
       y="-0.0933"
       width="1.7588"
       height="0.1866"
       ry="0.0933"
       fill="currentColor"
       id="rect70942" />
  </g>
  <g
     transform="translate(3.1967416e-8,9.2889467)"
     id="g70948">
    <rect
       x="38.466599"
       y="-0.0933"
       width="1.7588"
       height="0.1866"
       ry="0.0933"
       fill="currentColor"
       id="rect70946" />
  </g>
  <g
     transform="translate(3.1967416e-8,9.2889467)"
     id="g70952">
    <rect
       x="35.844101"
       y="-0.0933"
       width="1.7588"
       height="0.1866"
       ry="0.0933"
       fill="currentColor"
       id="rect70950" />
  </g>
  <g
     transform="translate(3.1967416e-8,7.4889467)"
     id="g70956">
    <rect
       x="33.7216"
       y="-0.0933"
       width="1.7588"
       height="0.1866"
       ry="0.0933"
       fill="currentColor"
       id="rect70954" />
  </g>
  <g
     transform="translate(3.1967416e-8,8.3889467)"
     id="g70960">
    <rect
       x="33.7216"
       y="-0.0933"
       width="1.7588"
       height="0.1866"
       ry="0.0933"
       fill="currentColor"
       id="rect70958" />
  </g>
  <g
     transform="translate(3.1967416e-8,9.2889467)"
     id="g70964">
    <rect
       x="33.7216"
       y="-0.0933"
       width="1.7588"
       height="0.1866"
       ry="0.0933"
       fill="currentColor"
       id="rect70962" />
  </g>
  <g
     transform="translate(3.1967416e-8,8.3889467)"
     id="g70968">
    <rect
       x="31.099001"
       y="-0.0933"
       width="1.7588"
       height="0.1866"
       ry="0.0933"
       fill="currentColor"
       id="rect70966" />
  </g>
  <g
     transform="translate(3.1967416e-8,9.2889467)"
     id="g70972">
    <rect
       x="31.099001"
       y="-0.0933"
       width="1.7588"
       height="0.1866"
       ry="0.0933"
       fill="currentColor"
       id="rect70970" />
  </g>
  <g
     transform="translate(3.1967416e-8,9.2889467)"
     id="g70976">
    <rect
       x="28.4765"
       y="-0.0933"
       width="1.7588"
       height="0.1866"
       ry="0.0933"
       fill="currentColor"
       id="rect70974" />
  </g>
  <g
     transform="translate(3.1967416e-8,14.688947)"
     id="g70980">
    <rect
       x="14.4319"
       y="-0.0933"
       width="1.7588"
       height="0.1866"
       ry="0.0933"
       fill="currentColor"
       id="rect70978" />
  </g>
  <g
     transform="translate(3.1967416e-8,14.688947)"
     id="g70984">
    <rect
       x="11.8094"
       y="-0.0933"
       width="1.7588"
       height="0.1866"
       ry="0.0933"
       fill="currentColor"
       id="rect70982" />
  </g>
  <g
     transform="translate(3.1967416e-8,15.588947)"
     id="g70988">
    <rect
       x="11.8094"
       y="-0.0933"
       width="1.7588"
       height="0.1866"
       ry="0.0933"
       fill="currentColor"
       id="rect70986" />
  </g>
  <g
     transform="translate(72.7176,11.988947)"
     id="g70992">
    <rect
       x="0"
       y="-1.8"
       width="0.18350001"
       height="3.5999999"
       ry="0.0000"
       fill="currentColor"
       id="rect70990" />
  </g>
  <g
     transform="translate(58.3234,11.988947)"
     id="g70996">
    <rect
       x="0"
       y="-1.8"
       width="0.18350001"
       height="3.5999999"
       ry="0.0000"
       fill="currentColor"
       id="rect70994" />
  </g>
  <g
     transform="translate(81.0687,11.988947)"
     id="g71000">
    <rect
       x="0"
       y="-1.8"
       width="0.18350001"
       height="3.5999999"
       ry="0.0000"
       fill="currentColor"
       id="rect70998" />
  </g>
  <g
     transform="translate(80.5955,11.988947)"
     id="g71004">
    <rect
       x="0"
       y="-1.8"
       width="0.18350001"
       height="3.5999999"
       ry="0.0000"
       fill="currentColor"
       id="rect71002" />
  </g>
  <g
     transform="translate(43.7547,11.988947)"
     id="g71008">
    <rect
       x="0"
       y="-1.8"
       width="0.18350001"
       height="3.5999999"
       ry="0.0000"
       fill="currentColor"
       id="rect71006" />
  </g>
  <g
     transform="translate(27.6105,11.988947)"
     id="g71012">
    <rect
       x="0"
       y="-1.8"
       width="0.18350001"
       height="3.5999999"
       ry="0.0000"
       fill="currentColor"
       id="rect71010" />
  </g>
  <a
     style="color:inherit"
     xlink:href="textedit://C:/Users/Javier/Documents/lilypond%20scores/ricci%20left%20hand%20examples.ly:686:31:32"
     id="a71018"
     transform="translate(-5.6906,-22.101953)">
    <g
       transform="translate(57.3964,28.2409)"
       id="g71016">
      <path
         transform="scale(0.0036,-0.0036)"
         d="m 215,137 c 57,0 111,-29 111,-92 0,-71 -54,-120 -101,-148 -35,-21 -74,-34 -114,-34 -57,0 -111,29 -111,92 0,71 54,120 101,148 35,21 74,34 114,34 z"
         fill="currentColor"
         id="path71014" />
    </g>
  </a>
  <g
     transform="translate(57.0606,11.988947)"
     id="g71022">
    <rect
       x="-0.062799998"
       y="-7.9323001"
       width="0.12549999"
       height="4.1708999"
       ry="0.039999999"
       fill="currentColor"
       id="rect71020" />
  </g>
  <a
     style="color:inherit"
     xlink:href="textedit://C:/Users/Javier/Documents/lilypond%20scores/ricci%20left%20hand%20examples.ly:686:43:44"
     id="a71028"
     transform="translate(-5.6906,-22.101953)">
    <g
       transform="translate(61.8863,24.8675)"
       id="g71026">
      <path
         transform="scale(0.002,-0.002)"
         d="m 155,471 c -34,0 -70,-8 -70,-38 0,-19 31,-23 31,-42 0,-28 -23,-51 -51,-51 -28,0 -51,23 -51,51 0,67 68,109 141,109 93,0 174,-31 174,-113 0,-41 -6,-77 -42,-94 -11,-5 -17,-16 -17,-27 0,-11 6,-22 17,-27 40,-19 59,-53 59,-98 C 346,47 263,0 160,0 78,0 0,45 0,119 c 0,32 26,58 58,58 32,0 58,-26 58,-58 0,-22 -36,-26 -36,-48 0,-33 42,-42 80,-42 46,0 56,58 56,112 v 38 c 0,40 -4,69 -43,69 H 99 c -12,0 -18,9 -18,18 0,9 6,18 18,18 h 74 c 40,0 43,31 43,73 v 30 c 0,50 -16,84 -61,84 z"
         fill="currentColor"
         id="path71024" />
    </g>
  </a>
  <a
     style="color:inherit"
     xlink:href="textedit://C:/Users/Javier/Documents/lilypond%20scores/ricci%20left%20hand%20examples.ly:686:39:40"
     id="a71034"
     transform="translate(-5.6906,-22.101953)">
    <g
       transform="translate(61.6415,30.4909)"
       id="g71032">
      <path
         transform="scale(0.0036,-0.0036)"
         d="m 215,137 c 57,0 111,-29 111,-92 0,-71 -54,-120 -101,-148 -35,-21 -74,-34 -114,-34 -57,0 -111,29 -111,92 0,71 54,120 101,148 35,21 74,34 114,34 z"
         fill="currentColor"
         id="path71030" />
    </g>
  </a>
  <g
     transform="translate(54.9381,11.988947)"
     id="g71038">
    <rect
       x="-0.062799998"
       y="-7.9323001"
       width="0.12549999"
       height="3.2709"
       ry="0.039999999"
       fill="currentColor"
       id="rect71036" />
  </g>
  <a
     style="color:inherit"
     xlink:href="textedit://C:/Users/Javier/Documents/lilypond%20scores/ricci%20left%20hand%20examples.ly:686:36:37"
     id="a71044"
     transform="translate(-5.6906,-22.101953)">
    <g
       transform="translate(59.6784,24.4142)"
       id="g71042">
      <path
         transform="scale(0.002,-0.002)"
         d="m 198,284 c 24,15 48,29 65,52 12,16 19,34 28,52 2,5 6,7 11,7 8,0 16,-6 16,-17 V 161 h 79 c 12,0 18,-9 18,-18 0,-9 -6,-18 -18,-18 h -79 c 2,-51 33,-96 80,-96 10,0 15,-8 15,-15 C 413,7 408,0 398,0 349,0 302,14 253,14 204,14 156,0 107,0 97,0 93,7 93,14 c 0,7 4,15 14,15 47,0 79,45 81,96 H 36 c -29,0 -38,17 -38,28 0,3 1,6 2,8 78,88 123,201 123,319 0,11 8,21 17,21 1,0 3,-1 4,-1 25,-7 50,-14 76,-14 26,0 52,7 77,14 2,1 4,1 6,1 10,0 17,-7 17,-14 0,-2 0,-5 -2,-7 L 36,161 h 152 v 96 c 0,10 1,21 10,27 z"
         fill="currentColor"
         id="path71040" />
    </g>
  </a>
  <a
     style="color:inherit"
     xlink:href="textedit://C:/Users/Javier/Documents/lilypond%20scores/ricci%20left%20hand%20examples.ly:686:35:36"
     id="a71050"
     transform="translate(-5.6906,-22.101953)">
    <g
       transform="translate(59.5189,29.5909)"
       id="g71048">
      <path
         transform="scale(0.0036,-0.0036)"
         d="m 215,137 c 57,0 111,-29 111,-92 0,-71 -54,-120 -101,-148 -35,-21 -74,-34 -114,-34 -57,0 -111,29 -111,92 0,71 54,120 101,148 35,21 74,34 114,34 z"
         fill="currentColor"
         id="path71046" />
    </g>
  </a>
  <g
     transform="translate(52.8156,11.988947)"
     id="g71054">
    <rect
       x="-0.062799998"
       y="-7.9323001"
       width="0.12549999"
       height="1.9209"
       ry="0.039999999"
       fill="currentColor"
       id="rect71052" />
  </g>
  <a
     style="color:inherit"
     xlink:href="textedit://C:/Users/Javier/Documents/lilypond%20scores/ricci%20left%20hand%20examples.ly:686:32:33"
     id="a71060"
     transform="translate(-5.6906,-22.101953)">
    <g
       transform="translate(57.6242,24.2826)"
       id="g71058">
      <path
         transform="scale(0.002,-0.002)"
         d="M 129,129 H 259 C 259,77 291,29 340,29 350,29 354,21 354,14 354,7 350,0 340,0 291,0 243,14 194,14 145,14 98,0 49,0 39,0 34,7 34,14 c 0,7 5,15 15,15 49,0 80,48 80,100 z M 0,250 129,500 c 3,7 13,3 21,0 14,-6 28,-14 44,-14 16,0 31,8 45,14 2,1 2,1 4,1 8,0 16,-9 16,-21 V 129 H 129 v 215 c 0,15 -11,23 -20,23 -5,0 -9,-2 -11,-7 L 32,233 c -4,-7 -9,-9 -15,-9 -9,0 -19,7 -19,17 0,3 0,6 2,9 z"
         fill="currentColor"
         id="path71056" />
    </g>
  </a>
  <g
     transform="translate(59.5452,11.988947)"
     id="g71064">
    <rect
       x="-0.062799998"
       y="0.67769998"
       width="0.12549999"
       height="2.6222999"
       ry="0.039999999"
       fill="currentColor"
       id="rect71062" />
  </g>
  <g
     transform="translate(61.1263,12.438947)"
     id="g71068">
    <path
       transform="scale(0.0036,-0.0036)"
       d="M 0,0 C 0,31 25,56 56,56 87,56 111,31 111,0 111,-31 87,-56 56,-56 25,-56 0,-31 0,0 Z"
       fill="currentColor"
       id="path71066" />
  </g>
  <g
     transform="translate(60.5922,11.988947)"
     id="g71072">
    <rect
       x="-0.062799998"
       y="-4.9326"
       width="0.12549999"
       height="2.0711"
       ry="0.039999999"
       fill="currentColor"
       id="rect71070" />
  </g>
  <a
     style="color:inherit"
     xlink:href="textedit://C:/Users/Javier/Documents/lilypond%20scores/ricci%20left%20hand%20examples.ly:692:15:16"
     id="a71078"
     transform="translate(-5.6906,-22.101953)">
    <g
       transform="translate(65.173,34.5409)"
       id="g71076">
      <path
         transform="scale(0.0036,-0.0036)"
         d="m 312,64 c 0,24 -20,41 -41,41 -4,0 -8,-1 -12,-2 C 229,94 182,65 146,41 110,17 63,-13 43,-37 36,-45 33,-54 33,-64 c 0,-24 20,-41 41,-41 4,0 8,1 12,2 30,9 77,38 113,62 36,24 83,54 103,78 7,8 10,17 10,27 z m -53,73 c 48,0 86,-22 86,-74 0,-18 -4,-38 -10,-56 -12,-38 -30,-73 -63,-95 -53,-36 -113,-49 -186,-49 -48,0 -86,22 -86,74 0,18 4,38 10,56 12,38 31,73 64,95 53,36 112,49 185,49 z"
         fill="currentColor"
         id="path71074" />
    </g>
  </a>
  <a
     style="color:inherit"
     xlink:href="textedit://C:/Users/Javier/Documents/lilypond%20scores/ricci%20left%20hand%20examples.ly:688:5:6"
     id="a71084"
     transform="translate(-5.6906,-22.101953)">
    <g
       transform="translate(65.173,31.3909)"
       id="g71082">
      <path
         transform="scale(0.0036,-0.0036)"
         d="m 215,137 c 57,0 111,-29 111,-92 0,-71 -54,-120 -101,-148 -35,-21 -74,-34 -114,-34 -57,0 -111,29 -111,92 0,71 54,120 101,148 35,21 74,34 114,34 z"
         fill="currentColor"
         id="path71080" />
    </g>
  </a>
  <g
     transform="translate(46.4821,16.038947)"
     id="g71088">
    <path
       transform="scale(0.0036,-0.0036)"
       d="M 0,0 C 0,31 25,56 56,56 87,56 111,31 111,0 111,-31 87,-56 56,-56 25,-56 0,-31 0,0 Z"
       fill="currentColor"
       id="path71086" />
  </g>
  <g
     transform="translate(44.901,11.988947)"
     id="g71092">
    <rect
       x="-0.062799998"
       y="3.8276999"
       width="0.12549999"
       height="2.0223"
       ry="0.039999999"
       fill="currentColor"
       id="rect71090" />
  </g>
  <g
     transform="translate(45.948,11.988947)"
     id="g71096">
    <rect
       x="-0.062799998"
       y="-7.9323001"
       width="0.12549999"
       height="1.9209"
       ry="0.039999999"
       fill="currentColor"
       id="rect71094" />
  </g>
  <a
     style="color:inherit"
     xlink:href="textedit://C:/Users/Javier/Documents/lilypond%20scores/ricci%20left%20hand%20examples.ly:692:13:14"
     id="a71102"
     transform="translate(-5.6906,-22.101953)">
    <g
       transform="translate(50.5288,37.6909)"
       id="g71100">
      <path
         transform="scale(0.0036,-0.0036)"
         d="m 312,64 c 0,24 -20,41 -41,41 -4,0 -8,-1 -12,-2 C 229,94 182,65 146,41 110,17 63,-13 43,-37 36,-45 33,-54 33,-64 c 0,-24 20,-41 41,-41 4,0 8,1 12,2 30,9 77,38 113,62 36,24 83,54 103,78 7,8 10,17 10,27 z m -53,73 c 48,0 86,-22 86,-74 0,-18 -4,-38 -10,-56 -12,-38 -30,-73 -63,-95 -53,-36 -113,-49 -186,-49 -48,0 -86,22 -86,74 0,18 4,38 10,56 12,38 31,73 64,95 53,36 112,49 185,49 z"
         fill="currentColor"
         id="path71098" />
    </g>
  </a>
  <a
     style="color:inherit"
     xlink:href="textedit://C:/Users/Javier/Documents/lilypond%20scores/ricci%20left%20hand%20examples.ly:686:7:8"
     id="a71108"
     transform="translate(-5.6906,-22.101953)">
    <g
       transform="translate(50.6883,25.4926)"
       id="g71106">
      <path
         transform="scale(0.002,-0.002)"
         d="m 198,284 c 24,15 48,29 65,52 12,16 19,34 28,52 2,5 6,7 11,7 8,0 16,-6 16,-17 V 161 h 79 c 12,0 18,-9 18,-18 0,-9 -6,-18 -18,-18 h -79 c 2,-51 33,-96 80,-96 10,0 15,-8 15,-15 C 413,7 408,0 398,0 349,0 302,14 253,14 204,14 156,0 107,0 97,0 93,7 93,14 c 0,7 4,15 14,15 47,0 79,45 81,96 H 36 c -29,0 -38,17 -38,28 0,3 1,6 2,8 78,88 123,201 123,319 0,11 8,21 17,21 1,0 3,-1 4,-1 25,-7 50,-14 76,-14 26,0 52,7 77,14 2,1 4,1 6,1 10,0 17,-7 17,-14 0,-2 0,-5 -2,-7 L 36,161 h 152 v 96 c 0,10 1,21 10,27 z"
         fill="currentColor"
         id="path71104" />
    </g>
  </a>
  <a
     style="color:inherit"
     xlink:href="textedit://C:/Users/Javier/Documents/lilypond%20scores/ricci%20left%20hand%20examples.ly:686:5:6"
     id="a71114"
     transform="translate(-5.6906,-22.101953)">
    <g
       transform="translate(50.5288,28.2409)"
       id="g71112">
      <path
         transform="scale(0.0036,-0.0036)"
         d="m 215,137 c 57,0 111,-29 111,-92 0,-71 -54,-120 -101,-148 -35,-21 -74,-34 -114,-34 -57,0 -111,29 -111,92 0,71 54,120 101,148 35,21 74,34 114,34 z"
         fill="currentColor"
         id="path71110" />
    </g>
  </a>
  <a
     style="color:inherit"
     xlink:href="textedit://C:/Users/Javier/Documents/lilypond%20scores/ricci%20left%20hand%20examples.ly:683:7:8"
     id="a71120"
     transform="translate(-5.6906,-22.101953)">
    <g
       transform="translate(17.7931,34.0909)"
       id="g71118">
      <path
         stroke-width="0.0773"
         stroke-linejoin="round"
         stroke-linecap="round"
         stroke="currentColor"
         fill="currentColor"
         d="m 1.0363,-1.578 c 1.6481,-1.821 10.9088,-3.5925 13.1126,-2.5083 v 0 C 11.9669,-5.0567 2.7062,-3.2852 1.0363,-1.578 Z"
         id="path71116" />
    </g>
  </a>
  <g
     transform="translate(50.193,11.988947)"
     id="g71124">
    <rect
       x="-0.062799998"
       y="-7.9323001"
       width="0.12549999"
       height="4.1708999"
       ry="0.039999999"
       fill="currentColor"
       id="rect71122" />
  </g>
  <a
     style="color:inherit"
     xlink:href="textedit://C:/Users/Javier/Documents/lilypond%20scores/ricci%20left%20hand%20examples.ly:686:17:18"
     id="a71130"
     transform="translate(-5.6906,-22.101953)">
    <g
       transform="translate(54.9846,24.3238)"
       id="g71128">
      <path
         transform="scale(0.002,-0.002)"
         d="m 129,149 h 7 c 36,0 74,-13 111,-40 19,-14 40,-21 59,-21 22,0 40,10 46,31 2,7 7,11 13,11 7,0 15,-5 15,-14 v -5 C 361,40 296,0 234,0 196,0 159,15 133,47 121,62 105,69 89,69 60,69 32,48 29,13 28,4 22,0 15,0 8,0 0,5 0,14 c 0,173 233,163 233,341 0,56 -14,116 -62,116 -33,0 -66,-15 -66,-44 0,-24 31,-37 31,-61 0,-34 -27,-61 -61,-61 -34,0 -61,27 -61,61 0,78 74,134 157,134 98,0 191,-55 191,-145 C 362,211 227,199 129,149 Z"
         fill="currentColor"
         id="path71126" />
    </g>
  </a>
  <a
     style="color:inherit"
     xlink:href="textedit://C:/Users/Javier/Documents/lilypond%20scores/ricci%20left%20hand%20examples.ly:686:14:15"
     id="a71136"
     transform="translate(-5.6906,-22.101953)">
    <g
       transform="translate(54.7739,30.4909)"
       id="g71134">
      <path
         transform="scale(0.0036,-0.0036)"
         d="m 215,137 c 57,0 111,-29 111,-92 0,-71 -54,-120 -101,-148 -35,-21 -74,-34 -114,-34 -57,0 -111,29 -111,92 0,71 54,120 101,148 35,21 74,34 114,34 z"
         fill="currentColor"
         id="path71132" />
    </g>
  </a>
  <g
     transform="translate(48.0705,11.988947)"
     id="g71140">
    <rect
       x="-0.062799998"
       y="-7.9323001"
       width="0.12549999"
       height="3.2709"
       ry="0.039999999"
       fill="currentColor"
       id="rect71138" />
  </g>
  <a
     style="color:inherit"
     xlink:href="textedit://C:/Users/Javier/Documents/lilypond%20scores/ricci%20left%20hand%20examples.ly:686:11:12"
     id="a71146"
     transform="translate(-5.6906,-22.101953)">
    <g
       transform="translate(52.8962,24.5876)"
       id="g71144">
      <path
         transform="scale(0.002,-0.002)"
         d="m 155,471 c -34,0 -70,-8 -70,-38 0,-19 31,-23 31,-42 0,-28 -23,-51 -51,-51 -28,0 -51,23 -51,51 0,67 68,109 141,109 93,0 174,-31 174,-113 0,-41 -6,-77 -42,-94 -11,-5 -17,-16 -17,-27 0,-11 6,-22 17,-27 40,-19 59,-53 59,-98 C 346,47 263,0 160,0 78,0 0,45 0,119 c 0,32 26,58 58,58 32,0 58,-26 58,-58 0,-22 -36,-26 -36,-48 0,-33 42,-42 80,-42 46,0 56,58 56,112 v 38 c 0,40 -4,69 -43,69 H 99 c -12,0 -18,9 -18,18 0,9 6,18 18,18 h 74 c 40,0 43,31 43,73 v 30 c 0,50 -16,84 -61,84 z"
         fill="currentColor"
         id="path71142" />
    </g>
  </a>
  <a
     style="color:inherit"
     xlink:href="textedit://C:/Users/Javier/Documents/lilypond%20scores/ricci%20left%20hand%20examples.ly:686:10:11"
     id="a71152"
     transform="translate(-5.6906,-22.101953)">
    <g
       transform="translate(52.6514,29.5909)"
       id="g71150">
      <path
         transform="scale(0.0036,-0.0036)"
         d="m 215,137 c 57,0 111,-29 111,-92 0,-71 -54,-120 -101,-148 -35,-21 -74,-34 -114,-34 -57,0 -111,29 -111,92 0,71 54,120 101,148 35,21 74,34 114,34 z"
         fill="currentColor"
         id="path71148" />
    </g>
  </a>
  <a
     style="color:inherit"
     xlink:href="textedit://C:/Users/Javier/Documents/lilypond%20scores/ricci%20left%20hand%20examples.ly:695:5:6"
     id="a71158"
     transform="translate(-5.6906,-22.101953)">
    <g
       transform="translate(80.4917,37.6909)"
       id="g71156">
      <path
         transform="scale(0.0036,-0.0036)"
         d="m 312,64 c 0,24 -20,41 -41,41 -4,0 -8,-1 -12,-2 C 229,94 182,65 146,41 110,17 63,-13 43,-37 36,-45 33,-54 33,-64 c 0,-24 20,-41 41,-41 4,0 8,1 12,2 30,9 77,38 113,62 36,24 83,54 103,78 7,8 10,17 10,27 z m -53,73 c 48,0 86,-22 86,-74 0,-18 -4,-38 -10,-56 -12,-38 -30,-73 -63,-95 -53,-36 -113,-49 -186,-49 -48,0 -86,22 -86,74 0,18 4,38 10,56 12,38 31,73 64,95 53,36 112,49 185,49 z"
         fill="currentColor"
         id="path71154" />
    </g>
  </a>
  <g
     transform="translate(76.445,15.138947)"
     id="g71162">
    <path
       transform="scale(0.0036,-0.0036)"
       d="M 0,0 C 0,31 25,56 56,56 87,56 111,31 111,0 111,-31 87,-56 56,-56 25,-56 0,-31 0,0 Z"
       fill="currentColor"
       id="path71160" />
  </g>
  <g
     transform="translate(75.9808,11.988947)"
     id="g71166">
    <rect
       x="-0.062799998"
       y="-2.7"
       width="0.12549999"
       height="6.0723"
       ry="0.039999999"
       fill="currentColor"
       id="rect71164" />
  </g>
  <g
     transform="translate(76.445,12.438947)"
     id="g71170">
    <path
       transform="scale(0.0036,-0.0036)"
       d="M 0,0 C 0,31 25,56 56,56 87,56 111,31 111,0 111,-31 87,-56 56,-56 25,-56 0,-31 0,0 Z"
       fill="currentColor"
       id="path71168" />
  </g>
  <a
     style="color:inherit"
     xlink:href="textedit://C:/Users/Javier/Documents/lilypond%20scores/ricci%20left%20hand%20examples.ly:695:8:9"
     id="a71176"
     transform="translate(-5.6906,-22.101953)">
    <g
       transform="translate(80.7544,31.7926)"
       id="g71174">
      <path
         transform="scale(0.002,-0.002)"
         d="M 129,129 H 259 C 259,77 291,29 340,29 350,29 354,21 354,14 354,7 350,0 340,0 291,0 243,14 194,14 145,14 98,0 49,0 39,0 34,7 34,14 c 0,7 5,15 15,15 49,0 80,48 80,100 z M 0,250 129,500 c 3,7 13,3 21,0 14,-6 28,-14 44,-14 16,0 31,8 45,14 2,1 2,1 4,1 8,0 16,-9 16,-21 V 129 H 129 v 215 c 0,15 -11,23 -20,23 -5,0 -9,-2 -11,-7 L 32,233 c -4,-7 -9,-9 -15,-9 -9,0 -19,7 -19,17 0,3 0,6 2,9 z"
         fill="currentColor"
         id="path71172" />
    </g>
  </a>
  <a
     style="color:inherit"
     xlink:href="textedit://C:/Users/Javier/Documents/lilypond%20scores/ricci%20left%20hand%20examples.ly:695:10:11"
     id="a71182"
     transform="translate(-5.6906,-22.101953)">
    <g
       transform="translate(80.6861,30.2841)"
       id="g71180">
      <path
         transform="scale(0.002,-0.002)"
         d="m 198,284 c 24,15 48,29 65,52 12,16 19,34 28,52 2,5 6,7 11,7 8,0 16,-6 16,-17 V 161 h 79 c 12,0 18,-9 18,-18 0,-9 -6,-18 -18,-18 h -79 c 2,-51 33,-96 80,-96 10,0 15,-8 15,-15 C 413,7 408,0 398,0 349,0 302,14 253,14 204,14 156,0 107,0 97,0 93,7 93,14 c 0,7 4,15 14,15 47,0 79,45 81,96 H 36 c -29,0 -38,17 -38,28 0,3 1,6 2,8 78,88 123,201 123,319 0,11 8,21 17,21 1,0 3,-1 4,-1 25,-7 50,-14 76,-14 26,0 52,7 77,14 2,1 4,1 6,1 10,0 17,-7 17,-14 0,-2 0,-5 -2,-7 L 36,161 h 152 v 96 c 0,10 1,21 10,27 z"
         fill="currentColor"
         id="path71178" />
    </g>
  </a>
  <a
     style="color:inherit"
     xlink:href="textedit://C:/Users/Javier/Documents/lilypond%20scores/ricci%20left%20hand%20examples.ly:695:3:4"
     id="a71188"
     transform="translate(-5.6906,-22.101953)">
    <g
       transform="translate(80.4917,34.5409)"
       id="g71186">
      <path
         transform="scale(0.0036,-0.0036)"
         d="m 312,64 c 0,24 -20,41 -41,41 -4,0 -8,-1 -12,-2 C 229,94 182,65 146,41 110,17 63,-13 43,-37 36,-45 33,-54 33,-64 c 0,-24 20,-41 41,-41 4,0 8,1 12,2 30,9 77,38 113,62 36,24 83,54 103,78 7,8 10,17 10,27 z m -53,73 c 48,0 86,-22 86,-74 0,-18 -4,-38 -10,-56 -12,-38 -30,-73 -63,-95 -53,-36 -113,-49 -186,-49 -48,0 -86,22 -86,74 0,18 4,38 10,56 12,38 31,73 64,95 53,36 112,49 185,49 z"
         fill="currentColor"
         id="path71184" />
    </g>
  </a>
  <g
     transform="translate(13.1495,11.088947)"
     id="g71192">
    <polygon
       stroke-linejoin="round"
       stroke-linecap="round"
       stroke-width="0.08"
       fill="currentColor"
       stroke="currentColor"
       points="13.1982,-2.7083 13.1982,-2.3563 0.04,0.176 0.04,-0.176 "
       id="polygon71190" />
  </g>
  <a
     style="color:inherit"
     xlink:href="textedit://C:/Users/Javier/Documents/lilypond%20scores/ricci%20left%20hand%20examples.ly:685:7:8"
     id="a71198"
     transform="translate(-5.6906,-22.101953)">
    <g
       transform="translate(34.4602,34.0909)"
       id="g71196">
      <path
         stroke-width="0.0773"
         stroke-linejoin="round"
         stroke-linecap="round"
         stroke="currentColor"
         fill="currentColor"
         d="m 1.1098,-7.416 c 1.9099,-1.4585 10.7026,-1.4585 12.6126,0 v 0 c -1.91,-1.3426 -10.7027,-1.3426 -12.6126,0 z"
         id="path71194" />
    </g>
  </a>
  <g
     transform="translate(35.3372,1.3380467)"
     id="g71204">
    <text
       font-family="serif"
       font-weight="bold"
       font-style="italic"
       font-size="1.98px"
       text-anchor="start"
       fill="currentColor"
       id="text71202"><tspan
         id="tspan71200">8</tspan></text>
  </g>
  <g
     transform="translate(36.6273,0.68934669)"
     id="g71208">
    <line
       stroke-linejoin="round"
       stroke-linecap="round"
       stroke-width="0.0966"
       stroke="currentColor"
       x1="14.2285"
       y1="0"
       x2="14.2285"
       y2="0.80000001"
       id="line71206" />
  </g>
  <g
     transform="translate(36.6273,0.68934669)"
     id="g71212">
    <line
       stroke-linejoin="round"
       stroke-linecap="round"
       stroke-width="0.0966"
       stroke="currentColor"
       x1="0"
       y1="0"
       x2="0"
       y2="0"
       id="line71210" />
  </g>
  <g
     transform="translate(36.6273,0.68934669)"
     id="g71216">
    <line
       stroke-linejoin="round"
       stroke-linecap="round"
       stroke-width="0.0966"
       stroke="currentColor"
       x1="0"
       y1="0"
       x2="14.2285"
       y2="0"
       stroke-dasharray="0.261874, 0.611039"
       id="line71214" />
  </g>
  <g
     transform="translate(29.8166,5.2389467)"
     id="g71220">
    <polygon
       stroke-linejoin="round"
       stroke-linecap="round"
       stroke-width="0.08"
       fill="currentColor"
       stroke="currentColor"
       points="12.6982,-0.176 12.6982,0.176 0.04,0.176 0.04,-0.176 "
       id="polygon71218" />
  </g>
  <a
     style="color:inherit"
     xlink:href="textedit://C:/Users/Javier/Documents/lilypond%20scores/ricci%20left%20hand%20examples.ly:686:6:7"
     id="a71226"
     transform="translate(-5.6906,-22.101953)">
    <g
       transform="translate(50.5288,34.0909)"
       id="g71224">
      <path
         stroke-width="0.0773"
         stroke-linejoin="round"
         stroke-linecap="round"
         stroke="currentColor"
         fill="currentColor"
         d="m 1.1098,-8.5983 c 1.7961,-1.4096 9.3164,-1.4096 11.1126,0 v 0 c -1.7962,-1.2937 -9.3165,-1.2937 -11.1126,0 z"
         id="path71222" />
    </g>
  </a>
  <g
     transform="translate(45.8852,4.0566467)"
     id="g71230">
    <polygon
       stroke-linejoin="round"
       stroke-linecap="round"
       stroke-width="0.08"
       fill="currentColor"
       stroke="currentColor"
       points="11.1982,-0.176 11.1982,0.176 0.04,0.176 0.04,-0.176 "
       id="polygon71228" />
  </g>
  <a
     style="color:inherit"
     xlink:href="textedit://C:/Users/Javier/Documents/lilypond%20scores/ricci%20left%20hand%20examples.ly:688:6:7"
     id="a71236"
     transform="translate(-5.6906,-22.101953)">
    <g
       transform="translate(65.173,34.0909)"
       id="g71234">
      <path
         stroke-width="0.0773"
         stroke-linejoin="round"
         stroke-linecap="round"
         stroke="currentColor"
         fill="currentColor"
         d="m 1.2143,-5.5986 c 2.0993,-0.8762 9.266,1.1142 10.6127,2.9475 v 0 C 10.4493,-4.3728 3.2825,-6.3632 1.2143,-5.5986 Z"
         id="path71232" />
    </g>
  </a>
  <g
     transform="translate(60.5294,7.0389467)"
     id="g71240">
    <polygon
       stroke-linejoin="round"
       stroke-linecap="round"
       stroke-width="0.08"
       fill="currentColor"
       stroke="currentColor"
       points="10.6982,2.8063 10.6982,3.1583 0.04,0.176 0.04,-0.176 "
       id="polygon71238" />
  </g>
  <g
     transform="translate(71.2048,11.988947)"
     id="g71244">
    <rect
       x="-0.062799998"
       y="-1.9851"
       width="0.12549999"
       height="4.5237002"
       ry="0.039999999"
       fill="currentColor"
       id="rect71242" />
  </g>
  <g
     transform="translate(64.8372,11.988947)"
     id="g71248">
    <rect
       x="-0.062799998"
       y="-3.7535999"
       width="0.12549999"
       height="3.1422"
       ry="0.039999999"
       fill="currentColor"
       id="rect71246" />
  </g>
  <a
     style="color:inherit"
     xlink:href="textedit://C:/Users/Javier/Documents/lilypond%20scores/ricci%20left%20hand%20examples.ly:688:13:14"
     id="a71254"
     transform="translate(-5.6906,-22.101953)">
    <g
       transform="translate(69.5776,28.2667)"
       id="g71252">
      <path
         transform="scale(0.002,-0.002)"
         d="m 198,284 c 24,15 48,29 65,52 12,16 19,34 28,52 2,5 6,7 11,7 8,0 16,-6 16,-17 V 161 h 79 c 12,0 18,-9 18,-18 0,-9 -6,-18 -18,-18 h -79 c 2,-51 33,-96 80,-96 10,0 15,-8 15,-15 C 413,7 408,0 398,0 349,0 302,14 253,14 204,14 156,0 107,0 97,0 93,7 93,14 c 0,7 4,15 14,15 47,0 79,45 81,96 H 36 c -29,0 -38,17 -38,28 0,3 1,6 2,8 78,88 123,201 123,319 0,11 8,21 17,21 1,0 3,-1 4,-1 25,-7 50,-14 76,-14 26,0 52,7 77,14 2,1 4,1 6,1 10,0 17,-7 17,-14 0,-2 0,-5 -2,-7 L 36,161 h 152 v 96 c 0,10 1,21 10,27 z"
         fill="currentColor"
         id="path71250" />
    </g>
  </a>
  <a
     style="color:inherit"
     xlink:href="textedit://C:/Users/Javier/Documents/lilypond%20scores/ricci%20left%20hand%20examples.ly:688:15:16"
     id="a71260"
     transform="translate(-5.6906,-22.101953)">
    <g
       transform="translate(69.6288,26.7924)"
       id="g71258">
      <path
         transform="scale(0.002,-0.002)"
         d="m 129,149 h 7 c 36,0 74,-13 111,-40 19,-14 40,-21 59,-21 22,0 40,10 46,31 2,7 7,11 13,11 7,0 15,-5 15,-14 v -5 C 361,40 296,0 234,0 196,0 159,15 133,47 121,62 105,69 89,69 60,69 32,48 29,13 28,4 22,0 15,0 8,0 0,5 0,14 c 0,173 233,163 233,341 0,56 -14,116 -62,116 -33,0 -66,-15 -66,-44 0,-24 31,-37 31,-61 0,-34 -27,-61 -61,-61 -34,0 -61,27 -61,61 0,78 74,134 157,134 98,0 191,-55 191,-145 C 362,211 227,199 129,149 Z"
         fill="currentColor"
         id="path71256" />
    </g>
  </a>
  <a
     style="color:inherit"
     xlink:href="textedit://C:/Users/Javier/Documents/lilypond%20scores/ricci%20left%20hand%20examples.ly:688:10:11"
     id="a71266"
     transform="translate(-5.6906,-22.101953)">
    <g
       transform="translate(69.4181,33.6409)"
       id="g71264">
      <path
         transform="scale(0.0036,-0.0036)"
         d="m 215,137 c 57,0 111,-29 111,-92 0,-71 -54,-120 -101,-148 -35,-21 -74,-34 -114,-34 -57,0 -111,29 -111,92 0,71 54,120 101,148 35,21 74,34 114,34 z"
         fill="currentColor"
         id="path71262" />
    </g>
  </a>
  <g
     transform="translate(62.7147,11.988947)"
     id="g71270">
    <rect
       x="-0.062799998"
       y="-4.3431001"
       width="0.12549999"
       height="2.8317001"
       ry="0.039999999"
       fill="currentColor"
       id="rect71268" />
  </g>
  <a
     style="color:inherit"
     xlink:href="textedit://C:/Users/Javier/Documents/lilypond%20scores/ricci%20left%20hand%20examples.ly:688:8:9"
     id="a71276"
     transform="translate(-5.6906,-22.101953)">
    <g
       transform="translate(67.2956,32.7409)"
       id="g71274">
      <path
         transform="scale(0.0036,-0.0036)"
         d="m 215,137 c 57,0 111,-29 111,-92 0,-71 -54,-120 -101,-148 -35,-21 -74,-34 -114,-34 -57,0 -111,29 -111,92 0,71 54,120 101,148 35,21 74,34 114,34 z"
         fill="currentColor"
         id="path71272" />
    </g>
  </a>
  <a
     style="color:inherit"
     xlink:href="textedit://C:/Users/Javier/Documents/lilypond%20scores/ricci%20left%20hand%20examples.ly:688:26:27"
     id="a71282"
     transform="translate(-5.6906,-22.101953)">
    <g
       transform="translate(76.0305,30.4348)"
       id="g71280">
      <path
         transform="scale(0.002,-0.002)"
         d="m 155,471 c -34,0 -70,-8 -70,-38 0,-19 31,-23 31,-42 0,-28 -23,-51 -51,-51 -28,0 -51,23 -51,51 0,67 68,109 141,109 93,0 174,-31 174,-113 0,-41 -6,-77 -42,-94 -11,-5 -17,-16 -17,-27 0,-11 6,-22 17,-27 40,-19 59,-53 59,-98 C 346,47 263,0 160,0 78,0 0,45 0,119 c 0,32 26,58 58,58 32,0 58,-26 58,-58 0,-22 -36,-26 -36,-48 0,-33 42,-42 80,-42 46,0 56,58 56,112 v 38 c 0,40 -4,69 -43,69 H 99 c -12,0 -18,9 -18,18 0,9 6,18 18,18 h 74 c 40,0 43,31 43,73 v 30 c 0,50 -16,84 -61,84 z"
         fill="currentColor"
         id="path71278" />
    </g>
  </a>
  <a
     style="color:inherit"
     xlink:href="textedit://C:/Users/Javier/Documents/lilypond%20scores/ricci%20left%20hand%20examples.ly:688:28:29"
     id="a71288"
     transform="translate(-5.6906,-22.101953)">
    <g
       transform="translate(75.9451,28.9605)"
       id="g71286">
      <path
         transform="scale(0.002,-0.002)"
         d="m 198,284 c 24,15 48,29 65,52 12,16 19,34 28,52 2,5 6,7 11,7 8,0 16,-6 16,-17 V 161 h 79 c 12,0 18,-9 18,-18 0,-9 -6,-18 -18,-18 h -79 c 2,-51 33,-96 80,-96 10,0 15,-8 15,-15 C 413,7 408,0 398,0 349,0 302,14 253,14 204,14 156,0 107,0 97,0 93,7 93,14 c 0,7 4,15 14,15 47,0 79,45 81,96 H 36 c -29,0 -38,17 -38,28 0,3 1,6 2,8 78,88 123,201 123,319 0,11 8,21 17,21 1,0 3,-1 4,-1 25,-7 50,-14 76,-14 26,0 52,7 77,14 2,1 4,1 6,1 10,0 17,-7 17,-14 0,-2 0,-5 -2,-7 L 36,161 h 152 v 96 c 0,10 1,21 10,27 z"
         fill="currentColor"
         id="path71284" />
    </g>
  </a>
  <a
     style="color:inherit"
     xlink:href="textedit://C:/Users/Javier/Documents/lilypond%20scores/ricci%20left%20hand%20examples.ly:688:22:23"
     id="a71294"
     transform="translate(-5.6906,-22.101953)">
    <g
       transform="translate(75.7857,36.7909)"
       id="g71292">
      <path
         transform="scale(0.0036,-0.0036)"
         d="m 215,137 c 57,0 111,-29 111,-92 0,-71 -54,-120 -101,-148 -35,-21 -74,-34 -114,-34 -57,0 -111,29 -111,92 0,71 54,120 101,148 35,21 74,34 114,34 z"
         fill="currentColor"
         id="path71290" />
    </g>
  </a>
  <g
     transform="translate(69.0823,11.988947)"
     id="g71298">
    <rect
       x="-0.062799998"
       y="-2.5746"
       width="0.12549999"
       height="4.2132001"
       ry="0.039999999"
       fill="currentColor"
       id="rect71296" />
  </g>
  <a
     style="color:inherit"
     xlink:href="textedit://C:/Users/Javier/Documents/lilypond%20scores/ricci%20left%20hand%20examples.ly:688:20:21"
     id="a71304"
     transform="translate(-5.6906,-22.101953)">
    <g
       transform="translate(73.6631,35.8909)"
       id="g71302">
      <path
         transform="scale(0.0036,-0.0036)"
         d="m 215,137 c 57,0 111,-29 111,-92 0,-71 -54,-120 -101,-148 -35,-21 -74,-34 -114,-34 -57,0 -111,29 -111,92 0,71 54,120 101,148 35,21 74,34 114,34 z"
         fill="currentColor"
         id="path71300" />
    </g>
  </a>
  <g
     transform="translate(66.9598,11.988947)"
     id="g71308">
    <rect
       x="-0.062799998"
       y="-3.1640999"
       width="0.12549999"
       height="3.4526999"
       ry="0.039999999"
       fill="currentColor"
       id="rect71306" />
  </g>
  <a
     style="color:inherit"
     xlink:href="textedit://C:/Users/Javier/Documents/lilypond%20scores/ricci%20left%20hand%20examples.ly:688:18:19"
     id="a71314"
     transform="translate(-5.6906,-22.101953)">
    <g
       transform="translate(71.5406,34.5409)"
       id="g71312">
      <path
         transform="scale(0.0036,-0.0036)"
         d="m 215,137 c 57,0 111,-29 111,-92 0,-71 -54,-120 -101,-148 -35,-21 -74,-34 -114,-34 -57,0 -111,29 -111,92 0,71 54,120 101,148 35,21 74,34 114,34 z"
         fill="currentColor"
         id="path71310" />
    </g>
  </a>
  <g
     transform="translate(23.7023,11.988947)"
     id="g71318">
    <rect
       x="-0.062799998"
       y="-2.9186001"
       width="0.12549999"
       height="2.3072"
       ry="0.039999999"
       fill="currentColor"
       id="rect71316" />
  </g>
  <a
     style="color:inherit"
     xlink:href="textedit://C:/Users/Javier/Documents/lilypond%20scores/ricci%20left%20hand%20examples.ly:683:29:30"
     id="a71324"
     transform="translate(-5.6906,-22.101953)">
    <g
       transform="translate(28.2832,33.6409)"
       id="g71322">
      <path
         transform="scale(0.0036,-0.0036)"
         d="m 215,137 c 57,0 111,-29 111,-92 0,-71 -54,-120 -101,-148 -35,-21 -74,-34 -114,-34 -57,0 -111,29 -111,92 0,71 54,120 101,148 35,21 74,34 114,34 z"
         fill="currentColor"
         id="path71320" />
    </g>
  </a>
  <g
     transform="translate(13.4979,12.438947)"
     id="g71328">
    <path
       transform="scale(0.0036,-0.0036)"
       d="M 0,0 C 0,31 25,56 56,56 87,56 111,31 111,0 111,-31 87,-56 56,-56 25,-56 0,-31 0,0 Z"
       fill="currentColor"
       id="path71326" />
  </g>
  <g
     transform="translate(21.0798,11.988947)"
     id="g71332">
    <rect
       x="-0.062799998"
       y="-2.4170001"
       width="0.12549999"
       height="2.7054999"
       ry="0.039999999"
       fill="currentColor"
       id="rect71330" />
  </g>
  <a
     style="color:inherit"
     xlink:href="textedit://C:/Users/Javier/Documents/lilypond%20scores/ricci%20left%20hand%20examples.ly:683:24:25"
     id="a71338"
     transform="translate(-5.6906,-22.101953)">
    <g
       transform="translate(25.8201,29.7616)"
       id="g71336">
      <path
         transform="scale(0.002,-0.002)"
         d="m 198,284 c 24,15 48,29 65,52 12,16 19,34 28,52 2,5 6,7 11,7 8,0 16,-6 16,-17 V 161 h 79 c 12,0 18,-9 18,-18 0,-9 -6,-18 -18,-18 h -79 c 2,-51 33,-96 80,-96 10,0 15,-8 15,-15 C 413,7 408,0 398,0 349,0 302,14 253,14 204,14 156,0 107,0 97,0 93,7 93,14 c 0,7 4,15 14,15 47,0 79,45 81,96 H 36 c -29,0 -38,17 -38,28 0,3 1,6 2,8 78,88 123,201 123,319 0,11 8,21 17,21 1,0 3,-1 4,-1 25,-7 50,-14 76,-14 26,0 52,7 77,14 2,1 4,1 6,1 10,0 17,-7 17,-14 0,-2 0,-5 -2,-7 L 36,161 h 152 v 96 c 0,10 1,21 10,27 z"
         fill="currentColor"
         id="path71334" />
    </g>
  </a>
  <a
     style="color:inherit"
     xlink:href="textedit://C:/Users/Javier/Documents/lilypond%20scores/ricci%20left%20hand%20examples.ly:683:26:27"
     id="a71344"
     transform="translate(-5.6906,-22.101953)">
    <g
       transform="translate(25.8714,28.2873)"
       id="g71342">
      <path
         transform="scale(0.002,-0.002)"
         d="m 190,464 c -54,0 -61,-71 -61,-141 v -73 -73 c 0,-70 7,-141 61,-141 54,0 62,71 62,141 0,26 -1,51 -1,73 0,22 1,47 1,73 0,70 -8,141 -62,141 z m 0,36 C 308,500 380,378 380,250 380,122 308,0 190,0 72,0 0,122 0,250 0,378 72,500 190,500 Z"
         fill="currentColor"
         id="path71340" />
    </g>
  </a>
  <a
     style="color:inherit"
     xlink:href="textedit://C:/Users/Javier/Documents/lilypond%20scores/ricci%20left%20hand%20examples.ly:683:23:24"
     id="a71350"
     transform="translate(-5.6906,-22.101953)">
    <g
       transform="translate(25.6607,34.5409)"
       id="g71348">
      <path
         transform="scale(0.0036,-0.0036)"
         d="m 215,137 c 57,0 111,-29 111,-92 0,-71 -54,-120 -101,-148 -35,-21 -74,-34 -114,-34 -57,0 -111,29 -111,92 0,71 54,120 101,148 35,21 74,34 114,34 z"
         fill="currentColor"
         id="path71346" />
    </g>
  </a>
  <g
     transform="translate(26.3249,11.988947)"
     id="g71354">
    <rect
       x="-0.062799998"
       y="-3.4203"
       width="0.12549999"
       height="1.9089"
       ry="0.039999999"
       fill="currentColor"
       id="rect71352" />
  </g>
  <g
     transform="translate(11.9168,11.988947)"
     id="g71358">
    <rect
       x="-0.062799998"
       y="0.67769998"
       width="0.12549999"
       height="2.6222999"
       ry="0.039999999"
       fill="currentColor"
       id="rect71356" />
  </g>
  <a
     style="color:inherit"
     xlink:href="textedit://C:/Users/Javier/Documents/lilypond%20scores/ricci%20left%20hand%20examples.ly:683:35:36"
     id="a71364"
     transform="translate(-5.6906,-22.101953)">
    <g
       transform="translate(31.1164,29.5819)"
       id="g71362">
      <path
         transform="scale(0.002,-0.002)"
         d="m 190,464 c -54,0 -61,-71 -61,-141 v -73 -73 c 0,-70 7,-141 61,-141 54,0 62,71 62,141 0,26 -1,51 -1,73 0,22 1,47 1,73 0,70 -8,141 -62,141 z m 0,36 C 308,500 380,378 380,250 380,122 308,0 190,0 72,0 0,122 0,250 0,378 72,500 190,500 Z"
         fill="currentColor"
         id="path71360" />
    </g>
  </a>
  <a
     style="color:inherit"
     xlink:href="textedit://C:/Users/Javier/Documents/lilypond%20scores/ricci%20left%20hand%20examples.ly:683:37:38"
     id="a71370"
     transform="translate(-5.6906,-22.101953)">
    <g
       transform="translate(31.1164,28.1076)"
       id="g71368">
      <path
         transform="scale(0.002,-0.002)"
         d="m 190,464 c -54,0 -61,-71 -61,-141 v -73 -73 c 0,-70 7,-141 61,-141 54,0 62,71 62,141 0,26 -1,51 -1,73 0,22 1,47 1,73 0,70 -8,141 -62,141 z m 0,36 C 308,500 380,378 380,250 380,122 308,0 190,0 72,0 0,122 0,250 0,378 72,500 190,500 Z"
         fill="currentColor"
         id="path71366" />
    </g>
  </a>
  <a
     style="color:inherit"
     xlink:href="textedit://C:/Users/Javier/Documents/lilypond%20scores/ricci%20left%20hand%20examples.ly:683:33:34"
     id="a71376"
     transform="translate(-5.6906,-22.101953)">
    <g
       transform="translate(30.9057,32.7409)"
       id="g71374">
      <path
         transform="scale(0.0036,-0.0036)"
         d="m 215,137 c 57,0 111,-29 111,-92 0,-71 -54,-120 -101,-148 -35,-21 -74,-34 -114,-34 -57,0 -111,29 -111,92 0,71 54,120 101,148 35,21 74,34 114,34 z"
         fill="currentColor"
         id="path71372" />
    </g>
  </a>
  <g
     transform="translate(15.8348,11.988947)"
     id="g71380">
    <rect
       x="-0.062799998"
       y="-1.4137"
       width="0.12549999"
       height="3.9521999"
       ry="0.039999999"
       fill="currentColor"
       id="rect71378" />
  </g>
  <a
     style="color:inherit"
     xlink:href="textedit://C:/Users/Javier/Documents/lilypond%20scores/ricci%20left%20hand%20examples.ly:683:13:14"
     id="a71386"
     transform="translate(-5.6906,-22.101953)">
    <g
       transform="translate(20.4156,36.7909)"
       id="g71384">
      <path
         transform="scale(0.0036,-0.0036)"
         d="m 215,137 c 57,0 111,-29 111,-92 0,-71 -54,-120 -101,-148 -35,-21 -74,-34 -114,-34 -57,0 -111,29 -111,92 0,71 54,120 101,148 35,21 74,34 114,34 z"
         fill="currentColor"
         id="path71382" />
    </g>
  </a>
  <g
     transform="translate(18.4573,11.988947)"
     id="g71390">
    <rect
       x="-0.062799998"
       y="-1.9153"
       width="0.12549999"
       height="3.5539"
       ry="0.039999999"
       fill="currentColor"
       id="rect71388" />
  </g>
  <a
     style="color:inherit"
     xlink:href="textedit://C:/Users/Javier/Documents/lilypond%20scores/ricci%20left%20hand%20examples.ly:683:18:19"
     id="a71396"
     transform="translate(-5.6906,-22.101953)">
    <g
       transform="translate(23.2659,30.2646)"
       id="g71394">
      <path
         transform="scale(0.002,-0.002)"
         d="M 129,129 H 259 C 259,77 291,29 340,29 350,29 354,21 354,14 354,7 350,0 340,0 291,0 243,14 194,14 145,14 98,0 49,0 39,0 34,7 34,14 c 0,7 5,15 15,15 49,0 80,48 80,100 z M 0,250 129,500 c 3,7 13,3 21,0 14,-6 28,-14 44,-14 16,0 31,8 45,14 2,1 2,1 4,1 8,0 16,-9 16,-21 V 129 H 129 v 215 c 0,15 -11,23 -20,23 -5,0 -9,-2 -11,-7 L 32,233 c -4,-7 -9,-9 -15,-9 -9,0 -19,7 -19,17 0,3 0,6 2,9 z"
         fill="currentColor"
         id="path71392" />
    </g>
  </a>
  <a
     style="color:inherit"
     xlink:href="textedit://C:/Users/Javier/Documents/lilypond%20scores/ricci%20left%20hand%20examples.ly:683:20:21"
     id="a71402"
     transform="translate(-5.6906,-22.101953)">
    <g
       transform="translate(23.2488,28.7562)"
       id="g71400">
      <path
         transform="scale(0.002,-0.002)"
         d="m 190,464 c -54,0 -61,-71 -61,-141 v -73 -73 c 0,-70 7,-141 61,-141 54,0 62,71 62,141 0,26 -1,51 -1,73 0,22 1,47 1,73 0,70 -8,141 -62,141 z m 0,36 C 308,500 380,378 380,250 380,122 308,0 190,0 72,0 0,122 0,250 0,378 72,500 190,500 Z"
         fill="currentColor"
         id="path71398" />
    </g>
  </a>
  <a
     style="color:inherit"
     xlink:href="textedit://C:/Users/Javier/Documents/lilypond%20scores/ricci%20left%20hand%20examples.ly:683:17:18"
     id="a71408"
     transform="translate(-5.6906,-22.101953)">
    <g
       transform="translate(23.0381,35.8909)"
       id="g71406">
      <path
         transform="scale(0.0036,-0.0036)"
         d="m 215,137 c 57,0 111,-29 111,-92 0,-71 -54,-120 -101,-148 -35,-21 -74,-34 -114,-34 -57,0 -111,29 -111,92 0,71 54,120 101,148 35,21 74,34 114,34 z"
         fill="currentColor"
         id="path71404" />
    </g>
  </a>
  <a
     style="color:inherit"
     xlink:href="textedit://C:/Users/Javier/Documents/lilypond%20scores/ricci%20left%20hand%20examples.ly:683:5:6"
     id="a71414"
     transform="translate(-5.6906,-22.101953)">
    <g
       transform="translate(17.7931,37.6909)"
       id="g71412">
      <path
         transform="scale(0.0036,-0.0036)"
         d="m 215,137 c 57,0 111,-29 111,-92 0,-71 -54,-120 -101,-148 -35,-21 -74,-34 -114,-34 -57,0 -111,29 -111,92 0,71 54,120 101,148 35,21 74,34 114,34 z"
         fill="currentColor"
         id="path71410" />
    </g>
  </a>
  <g
     transform="translate(37.2469,11.988947)"
     id="g71418">
    <rect
       x="-0.062799998"
       y="-6.75"
       width="0.12549999"
       height="3.8886001"
       ry="0.039999999"
       fill="currentColor"
       id="rect71416" />
  </g>
  <a
     style="color:inherit"
     xlink:href="textedit://C:/Users/Javier/Documents/lilypond%20scores/ricci%20left%20hand%20examples.ly:685:30:31"
     id="a71424"
     transform="translate(-5.6906,-22.101953)">
    <g
       transform="translate(41.8278,31.3909)"
       id="g71422">
      <path
         transform="scale(0.0036,-0.0036)"
         d="m 215,137 c 57,0 111,-29 111,-92 0,-71 -54,-120 -101,-148 -35,-21 -74,-34 -114,-34 -57,0 -111,29 -111,92 0,71 54,120 101,148 35,21 74,34 114,34 z"
         fill="currentColor"
         id="path71420" />
    </g>
  </a>
  <g
     transform="translate(35.1244,11.988947)"
     id="g71428">
    <rect
       x="-0.062799998"
       y="-6.75"
       width="0.12549999"
       height="2.0885999"
       ry="0.039999999"
       fill="currentColor"
       id="rect71426" />
  </g>
  <a
     style="color:inherit"
     xlink:href="textedit://C:/Users/Javier/Documents/lilypond%20scores/ricci%20left%20hand%20examples.ly:685:16:17"
     id="a71434"
     transform="translate(-5.6906,-22.101953)">
    <g
       transform="translate(39.933,25.4492)"
       id="g71432">
      <path
         transform="scale(0.002,-0.002)"
         d="M 129,129 H 259 C 259,77 291,29 340,29 350,29 354,21 354,14 354,7 350,0 340,0 291,0 243,14 194,14 145,14 98,0 49,0 39,0 34,7 34,14 c 0,7 5,15 15,15 49,0 80,48 80,100 z M 0,250 129,500 c 3,7 13,3 21,0 14,-6 28,-14 44,-14 16,0 31,8 45,14 2,1 2,1 4,1 8,0 16,-9 16,-21 V 129 H 129 v 215 c 0,15 -11,23 -20,23 -5,0 -9,-2 -11,-7 L 32,233 c -4,-7 -9,-9 -15,-9 -9,0 -19,7 -19,17 0,3 0,6 2,9 z"
         fill="currentColor"
         id="path71430" />
    </g>
  </a>
  <a
     style="color:inherit"
     xlink:href="textedit://C:/Users/Javier/Documents/lilypond%20scores/ricci%20left%20hand%20examples.ly:685:15:16"
     id="a71440"
     transform="translate(-5.6906,-22.101953)">
    <g
       transform="translate(39.7052,29.5909)"
       id="g71438">
      <path
         transform="scale(0.0036,-0.0036)"
         d="m 215,137 c 57,0 111,-29 111,-92 0,-71 -54,-120 -101,-148 -35,-21 -74,-34 -114,-34 -57,0 -111,29 -111,92 0,71 54,120 101,148 35,21 74,34 114,34 z"
         fill="currentColor"
         id="path71436" />
    </g>
  </a>
  <a
     style="color:inherit"
     xlink:href="textedit://C:/Users/Javier/Documents/lilypond%20scores/ricci%20left%20hand%20examples.ly:683:10:11"
     id="a71446"
     transform="translate(-5.6906,-22.101953)">
    <g
       transform="translate(17.9526,30.2841)"
       id="g71444">
      <path
         transform="scale(0.002,-0.002)"
         d="m 198,284 c 24,15 48,29 65,52 12,16 19,34 28,52 2,5 6,7 11,7 8,0 16,-6 16,-17 V 161 h 79 c 12,0 18,-9 18,-18 0,-9 -6,-18 -18,-18 h -79 c 2,-51 33,-96 80,-96 10,0 15,-8 15,-15 C 413,7 408,0 398,0 349,0 302,14 253,14 204,14 156,0 107,0 97,0 93,7 93,14 c 0,7 4,15 14,15 47,0 79,45 81,96 H 36 c -29,0 -38,17 -38,28 0,3 1,6 2,8 78,88 123,201 123,319 0,11 8,21 17,21 1,0 3,-1 4,-1 25,-7 50,-14 76,-14 26,0 52,7 77,14 2,1 4,1 6,1 10,0 17,-7 17,-14 0,-2 0,-5 -2,-7 L 36,161 h 152 v 96 c 0,10 1,21 10,27 z"
         fill="currentColor"
         id="path71442" />
    </g>
  </a>
  <a
     style="color:inherit"
     xlink:href="textedit://C:/Users/Javier/Documents/lilypond%20scores/ricci%20left%20hand%20examples.ly:683:8:9"
     id="a71452"
     transform="translate(-5.6906,-22.101953)">
    <g
       transform="translate(18.0209,31.7926)"
       id="g71450">
      <path
         transform="scale(0.002,-0.002)"
         d="M 129,129 H 259 C 259,77 291,29 340,29 350,29 354,21 354,14 354,7 350,0 340,0 291,0 243,14 194,14 145,14 98,0 49,0 39,0 34,7 34,14 c 0,7 5,15 15,15 49,0 80,48 80,100 z M 0,250 129,500 c 3,7 13,3 21,0 14,-6 28,-14 44,-14 16,0 31,8 45,14 2,1 2,1 4,1 8,0 16,-9 16,-21 V 129 H 129 v 215 c 0,15 -11,23 -20,23 -5,0 -9,-2 -11,-7 L 32,233 c -4,-7 -9,-9 -15,-9 -9,0 -19,7 -19,17 0,3 0,6 2,9 z"
         fill="currentColor"
         id="path71448" />
    </g>
  </a>
  <g
     transform="translate(42.492,11.988947)"
     id="g71456">
    <rect
       x="-0.062799998"
       y="-6.75"
       width="0.12549999"
       height="2.0885999"
       ry="0.039999999"
       fill="currentColor"
       id="rect71454" />
  </g>
  <a
     style="color:inherit"
     xlink:href="textedit://C:/Users/Javier/Documents/lilypond%20scores/ricci%20left%20hand%20examples.ly:685:40:41"
     id="a71462"
     transform="translate(-5.6906,-22.101953)">
    <g
       transform="translate(47.3177,26.0625)"
       id="g71460">
      <path
         transform="scale(0.002,-0.002)"
         d="m 155,471 c -34,0 -70,-8 -70,-38 0,-19 31,-23 31,-42 0,-28 -23,-51 -51,-51 -28,0 -51,23 -51,51 0,67 68,109 141,109 93,0 174,-31 174,-113 0,-41 -6,-77 -42,-94 -11,-5 -17,-16 -17,-27 0,-11 6,-22 17,-27 40,-19 59,-53 59,-98 C 346,47 263,0 160,0 78,0 0,45 0,119 c 0,32 26,58 58,58 32,0 58,-26 58,-58 0,-22 -36,-26 -36,-48 0,-33 42,-42 80,-42 46,0 56,58 56,112 v 38 c 0,40 -4,69 -43,69 H 99 c -12,0 -18,9 -18,18 0,9 6,18 18,18 h 74 c 40,0 43,31 43,73 v 30 c 0,50 -16,84 -61,84 z"
         fill="currentColor"
         id="path71458" />
    </g>
  </a>
  <a
     style="color:inherit"
     xlink:href="textedit://C:/Users/Javier/Documents/lilypond%20scores/ricci%20left%20hand%20examples.ly:685:38:39"
     id="a71468"
     transform="translate(-5.6906,-22.101953)">
    <g
       transform="translate(47.0728,29.5909)"
       id="g71466">
      <path
         transform="scale(0.0036,-0.0036)"
         d="m 215,137 c 57,0 111,-29 111,-92 0,-71 -54,-120 -101,-148 -35,-21 -74,-34 -114,-34 -57,0 -111,29 -111,92 0,71 54,120 101,148 35,21 74,34 114,34 z"
         fill="currentColor"
         id="path71464" />
    </g>
  </a>
  <g
     transform="translate(39.8694,11.988947)"
     id="g71472">
    <rect
       x="-0.062799998"
       y="-6.75"
       width="0.12549999"
       height="2.9886"
       ry="0.039999999"
       fill="currentColor"
       id="rect71470" />
  </g>
  <a
     style="color:inherit"
     xlink:href="textedit://C:/Users/Javier/Documents/lilypond%20scores/ricci%20left%20hand%20examples.ly:685:35:36"
     id="a71478"
     transform="translate(-5.6906,-22.101953)">
    <g
       transform="translate(44.661,25.5581)"
       id="g71476">
      <path
         transform="scale(0.002,-0.002)"
         d="m 129,149 h 7 c 36,0 74,-13 111,-40 19,-14 40,-21 59,-21 22,0 40,10 46,31 2,7 7,11 13,11 7,0 15,-5 15,-14 v -5 C 361,40 296,0 234,0 196,0 159,15 133,47 121,62 105,69 89,69 60,69 32,48 29,13 28,4 22,0 15,0 8,0 0,5 0,14 c 0,173 233,163 233,341 0,56 -14,116 -62,116 -33,0 -66,-15 -66,-44 0,-24 31,-37 31,-61 0,-34 -27,-61 -61,-61 -34,0 -61,27 -61,61 0,78 74,134 157,134 98,0 191,-55 191,-145 C 362,211 227,199 129,149 Z"
         fill="currentColor"
         id="path71474" />
    </g>
  </a>
  <a
     style="color:inherit"
     xlink:href="textedit://C:/Users/Javier/Documents/lilypond%20scores/ricci%20left%20hand%20examples.ly:685:32:33"
     id="a71484"
     transform="translate(-5.6906,-22.101953)">
    <g
       transform="translate(44.4503,30.4909)"
       id="g71482">
      <path
         transform="scale(0.0036,-0.0036)"
         d="m 215,137 c 57,0 111,-29 111,-92 0,-71 -54,-120 -101,-148 -35,-21 -74,-34 -114,-34 -57,0 -111,29 -111,92 0,71 54,120 101,148 35,21 74,34 114,34 z"
         fill="currentColor"
         id="path71480" />
    </g>
  </a>
  <g
     transform="translate(8.5395,11.988947)"
     id="g71488">
    <path
       transform="scale(0.0036,-0.0036)"
       d="m 151,475 c -29,0 -60,-8 -60,-33 0,-22 35,-25 35,-47 0,-31 -26,-57 -57,-57 -31,0 -57,26 -57,57 0,65 68,105 139,105 92,0 170,-33 170,-114 0,-42 -5,-81 -42,-98 -10,-5 -15,-14 -15,-23 0,-9 5,-18 15,-23 41,-19 57,-56 57,-102 C 336,48 256,0 156,0 77,0 0,43 0,115 c 0,36 29,65 65,65 36,0 65,-29 65,-65 0,-25 -40,-29 -40,-54 0,-28 34,-36 66,-36 48,0 61,59 61,115 v 22 c 0,50 -3,88 -49,88 H 90 c -10,0 -15,7 -15,15 0,8 5,15 15,15 h 78 c 46,0 49,40 49,92 v 14 c 0,53 -18,89 -66,89 z"
       fill="currentColor"
       id="path71486" />
  </g>
  <g
     transform="translate(8.42,13.832647)"
     id="g71492">
    <path
       transform="scale(0.0036,-0.0036)"
       d="m 194,120 h 120 c 0,-49 29,-95 75,-95 8,0 12,-7 12,-13 C 401,6 397,0 389,0 344,0 299,13 254,13 209,13 164,0 119,0 c -8,0 -12,6 -12,12 0,6 4,13 12,13 46,0 75,46 75,95 z m 9,181 c 22,15 45,30 61,51 12,15 19,34 27,51 2,4 5,6 9,6 6,0 14,-6 14,-15 V 156 h 74 c 10,0 16,-8 16,-16 0,-8 -6,-15 -16,-15 h -74 v -5 H 194 v 5 H 31 c -24,0 -33,15 -33,24 0,3 1,6 2,7 80,92 134,205 134,327 0,11 8,20 17,17 24,-7 48,-13 73,-13 25,0 48,6 72,13 2,1 4,1 6,1 9,0 14,-7 14,-13 0,-2 0,-3 -2,-5 L 31,156 h 163 v 122 c 0,9 2,18 9,23 z"
       fill="currentColor"
       id="path71490" />
  </g>
  <g
     transform="translate(28.8324,11.988947)"
     id="g71496">
    <rect
       x="-0.062799998"
       y="0.67769998"
       width="0.12549999"
       height="2.6222999"
       ry="0.039999999"
       fill="currentColor"
       id="rect71494" />
  </g>
  <g
     transform="translate(30.4135,12.438947)"
     id="g71500">
    <path
       transform="scale(0.0036,-0.0036)"
       d="M 0,0 C 0,31 25,56 56,56 87,56 111,31 111,0 111,-31 87,-56 56,-56 25,-56 0,-31 0,0 Z"
       fill="currentColor"
       id="path71498" />
  </g>
  <g
     transform="translate(13.2122,11.988947)"
     id="g71504">
    <rect
       x="-0.062799998"
       y="-0.912"
       width="0.12549999"
       height="4.3505998"
       ry="0.039999999"
       fill="currentColor"
       id="rect71502" />
  </g>
  <g
     transform="translate(29.8793,11.988947)"
     id="g71508">
    <rect
       x="-0.062799998"
       y="-6.75"
       width="0.12549999"
       height="3.8886001"
       ry="0.039999999"
       fill="currentColor"
       id="rect71506" />
  </g>
  <a
     style="color:inherit"
     xlink:href="textedit://C:/Users/Javier/Documents/lilypond%20scores/ricci%20left%20hand%20examples.ly:692:11:12"
     id="a71514"
     transform="translate(-5.6906,-22.101953)">
    <g
       transform="translate(34.4602,34.5409)"
       id="g71512">
      <path
         transform="scale(0.0036,-0.0036)"
         d="m 312,64 c 0,24 -20,41 -41,41 -4,0 -8,-1 -12,-2 C 229,94 182,65 146,41 110,17 63,-13 43,-37 36,-45 33,-54 33,-64 c 0,-24 20,-41 41,-41 4,0 8,1 12,2 30,9 77,38 113,62 36,24 83,54 103,78 7,8 10,17 10,27 z m -53,73 c 48,0 86,-22 86,-74 0,-18 -4,-38 -10,-56 -12,-38 -30,-73 -63,-95 -53,-36 -113,-49 -186,-49 -48,0 -86,22 -86,74 0,18 4,38 10,56 12,38 31,73 64,95 53,36 112,49 185,49 z"
         fill="currentColor"
         id="path71510" />
    </g>
  </a>
  <a
     style="color:inherit"
     xlink:href="textedit://C:/Users/Javier/Documents/lilypond%20scores/ricci%20left%20hand%20examples.ly:685:8:9"
     id="a71520"
     transform="translate(-5.6906,-22.101953)">
    <g
       transform="translate(34.688,26.6749)"
       id="g71518">
      <path
         transform="scale(0.002,-0.002)"
         d="M 129,129 H 259 C 259,77 291,29 340,29 350,29 354,21 354,14 354,7 350,0 340,0 291,0 243,14 194,14 145,14 98,0 49,0 39,0 34,7 34,14 c 0,7 5,15 15,15 49,0 80,48 80,100 z M 0,250 129,500 c 3,7 13,3 21,0 14,-6 28,-14 44,-14 16,0 31,8 45,14 2,1 2,1 4,1 8,0 16,-9 16,-21 V 129 H 129 v 215 c 0,15 -11,23 -20,23 -5,0 -9,-2 -11,-7 L 32,233 c -4,-7 -9,-9 -15,-9 -9,0 -19,7 -19,17 0,3 0,6 2,9 z"
         fill="currentColor"
         id="path71516" />
    </g>
  </a>
  <a
     style="color:inherit"
     xlink:href="textedit://C:/Users/Javier/Documents/lilypond%20scores/ricci%20left%20hand%20examples.ly:685:5:6"
     id="a71526"
     transform="translate(-5.6906,-22.101953)">
    <g
       transform="translate(34.4602,31.3909)"
       id="g71524">
      <path
         transform="scale(0.0036,-0.0036)"
         d="m 215,137 c 57,0 111,-29 111,-92 0,-71 -54,-120 -101,-148 -35,-21 -74,-34 -114,-34 -57,0 -111,29 -111,92 0,71 54,120 101,148 35,21 74,34 114,34 z"
         fill="currentColor"
         id="path71522" />
    </g>
  </a>
  <g
     transform="translate(32.5019,11.988947)"
     id="g71530">
    <rect
       x="-0.062799998"
       y="-6.75"
       width="0.12549999"
       height="2.9886"
       ry="0.039999999"
       fill="currentColor"
       id="rect71528" />
  </g>
  <a
     style="color:inherit"
     xlink:href="textedit://C:/Users/Javier/Documents/lilypond%20scores/ricci%20left%20hand%20examples.ly:685:11:12"
     id="a71536"
     transform="translate(-5.6906,-22.101953)">
    <g
       transform="translate(37.0827,30.4909)"
       id="g71534">
      <path
         transform="scale(0.0036,-0.0036)"
         d="m 215,137 c 57,0 111,-29 111,-92 0,-71 -54,-120 -101,-148 -35,-21 -74,-34 -114,-34 -57,0 -111,29 -111,92 0,71 54,120 101,148 35,21 74,34 114,34 z"
         fill="currentColor"
         id="path71532" />
    </g>
  </a>
  <a
     style="color:inherit"
     xlink:href="textedit://C:/Users/Javier/Documents/lilypond%20scores/ricci%20left%20hand%20examples.ly:692:6:7"
     id="a71542"
     transform="translate(-5.6906,-22.101953)">
    <g
       transform="translate(17.5446,34.5409)"
       id="g71540">
      <path
         transform="scale(0.0036,-0.0036)"
         d="m 312,64 c 0,24 -20,41 -41,41 -4,0 -8,-1 -12,-2 C 229,94 182,65 146,41 110,17 63,-13 43,-37 36,-45 33,-54 33,-64 c 0,-24 20,-41 41,-41 4,0 8,1 12,2 30,9 77,38 113,62 36,24 83,54 103,78 7,8 10,17 10,27 z m -53,73 c 48,0 86,-22 86,-74 0,-18 -4,-38 -10,-56 -12,-38 -30,-73 -63,-95 -53,-36 -113,-49 -186,-49 -48,0 -86,22 -86,74 0,18 4,38 10,56 12,38 31,73 64,95 53,36 112,49 185,49 z"
         fill="currentColor"
         id="path71538" />
    </g>
  </a>
  <g
     transform="translate(0.80000003,12.888947)"
     id="g71546">
    <path
       transform="scale(0.0036,-0.0036)"
       d="m 378,263 c 4,0 7,1 11,1 156,0 257,-129 257,-262 0,-76 -34,-154 -108,-210 -22,-17 -46,-29 -72,-37 3,-34 5,-68 5,-102 0,-20 -1,-40 -2,-60 -7,-121 -90,-228 -209,-228 -108,0 -196,87 -196,196 0,58 53,104 112,104 54,0 95,-48 95,-104 0,-52 -43,-95 -95,-95 -10,0 -20,2 -29,6 26,-38 68,-63 116,-63 h 3 c 93,2 153,92 159,190 1,19 2,37 2,56 0,30 -2,60 -4,90 -29,-5 -58,-8 -88,-8 -188,0 -333,173 -333,375 0,177 130,307 246,442 -20,62 -38,125 -46,190 -6,52 -7,104 -7,157 0,115 55,223 148,290 7,5 16,4 22,-1 71,-83 134,-244 134,-357 0,-143 -85,-255 -178,-364 21,-68 40,-137 57,-206 z m 84,-465 c 67,24 111,94 111,162 0,89 -65,178 -170,190 24,-115 46,-230 59,-352 z M 75,26 c 0,-134 129,-245 263,-245 28,0 55,2 81,6 C 405,-87 383,31 358,150 279,142 234,89 234,31 c 0,-43 25,-89 80,-121 5,-5 7,-11 7,-16 0,-12 -10,-23 -22,-23 -3,0 -6,1 -9,2 -81,43 -118,116 -118,186 0,89 58,175 161,198 -14,58 -29,116 -46,173 C 181,308 75,186 75,26 Z M 406,1042 C 307,995 244,894 244,785 c 0,-73 20,-132 38,-191 79,97 144,199 144,324 0,53 -4,76 -20,124 z"
       fill="currentColor"
       id="path71544" />
  </g>
  <a
     style="color:inherit"
     xlink:href="textedit://C:/Users/Javier/Documents/lilypond%20scores/ricci%20left%20hand%20examples.ly:680:4:5"
     id="a71560"
     transform="translate(-5.6906,-22.101953)">
    <g
       transform="translate(9.9906,32.2909)"
       id="g71550">
      <path
         transform="scale(0.0036,-0.0036)"
         d="m 217,-311 c 0,-11 -8,-19 -19,-19 -11,0 -20,8 -20,19 v 142 l -81,-30 v -156 c 0,-11 -9,-20 -20,-20 -11,0 -19,9 -19,20 v 142 l -28,-11 c -3,-1 -5,-1 -8,-1 -12,0 -22,10 -22,23 v 57 c 0,9 6,18 15,21 l 43,16 V 49 L 30,39 C 27,38 25,38 22,38 10,38 0,47 0,60 v 57 c 0,9 6,18 15,21 l 43,16 v 157 c 0,11 8,19 19,19 11,0 20,-8 20,-19 V 169 l 81,30 v 156 c 0,11 9,20 20,20 11,0 19,-9 19,-20 V 213 l 28,11 c 3,1 5,1 8,1 12,0 22,-10 22,-23 v -57 c 0,-9 -6,-18 -15,-21 L 217,108 V -49 l 28,10 c 3,1 5,1 8,1 12,0 22,-9 22,-22 v -57 c 0,-9 -6,-18 -15,-21 l -43,-16 z M 97,64 V -94 l 81,30 V 94 Z"
         fill="currentColor"
         id="path71548" />
    </g>
    <g
       transform="translate(10.9806,33.6409)"
       id="g71554">
      <path
         transform="scale(0.0036,-0.0036)"
         d="m 217,-311 c 0,-11 -8,-19 -19,-19 -11,0 -20,8 -20,19 v 142 l -81,-30 v -156 c 0,-11 -9,-20 -20,-20 -11,0 -19,9 -19,20 v 142 l -28,-11 c -3,-1 -5,-1 -8,-1 -12,0 -22,10 -22,23 v 57 c 0,9 6,18 15,21 l 43,16 V 49 L 30,39 C 27,38 25,38 22,38 10,38 0,47 0,60 v 57 c 0,9 6,18 15,21 l 43,16 v 157 c 0,11 8,19 19,19 11,0 20,-8 20,-19 V 169 l 81,30 v 156 c 0,11 9,20 20,20 11,0 19,-9 19,-20 V 213 l 28,11 c 3,1 5,1 8,1 12,0 22,-10 22,-23 v -57 c 0,-9 -6,-18 -15,-21 L 217,108 V -49 l 28,10 c 3,1 5,1 8,1 12,0 22,-9 22,-22 v -57 c 0,-9 -6,-18 -15,-21 l -43,-16 z M 97,64 V -94 l 81,30 V 94 Z"
         fill="currentColor"
         id="path71552" />
    </g>
    <g
       transform="translate(11.9706,31.8409)"
       id="g71558">
      <path
         transform="scale(0.0036,-0.0036)"
         d="m 217,-311 c 0,-11 -8,-19 -19,-19 -11,0 -20,8 -20,19 v 142 l -81,-30 v -156 c 0,-11 -9,-20 -20,-20 -11,0 -19,9 -19,20 v 142 l -28,-11 c -3,-1 -5,-1 -8,-1 -12,0 -22,10 -22,23 v 57 c 0,9 6,18 15,21 l 43,16 V 49 L 30,39 C 27,38 25,38 22,38 10,38 0,47 0,60 v 57 c 0,9 6,18 15,21 l 43,16 v 157 c 0,11 8,19 19,19 11,0 20,-8 20,-19 V 169 l 81,30 v 156 c 0,11 9,20 20,20 11,0 19,-9 19,-20 V 213 l 28,11 c 3,1 5,1 8,1 12,0 22,-10 22,-23 v -57 c 0,-9 -6,-18 -15,-21 L 217,108 V -49 l 28,10 c 3,1 5,1 8,1 12,0 22,-9 22,-22 v -57 c 0,-9 -6,-18 -15,-21 l -43,-16 z M 97,64 V -94 l 81,30 V 94 Z"
         fill="currentColor"
         id="path71556" />
    </g>
  </a>
</svg>
