<!-- <?xml version="1.0" encoding="UTF-8" standalone="no"?> -->
<svg
   version="1.2"
   width="165.7709mm"
   height="21.380758mm"
   viewBox="0 0 94.332802 12.166832"
   id="svg76652"
   sodipodi:docname="ricci left hand examples-5.svg"
   xmlns:inkscape="http://www.inkscape.org/namespaces/inkscape"
   xmlns:sodipodi="http://sodipodi.sourceforge.net/DTD/sodipodi-0.dtd"
   xmlns:xlink="http://www.w3.org/1999/xlink"
   xmlns="http://www.w3.org/2000/svg"
   xmlns:svg="http://www.w3.org/2000/svg">
  <defs
     id="defs76656" />
  <sodipodi:namedview
     id="namedview76654"
     pagecolor="#ffffff"
     bordercolor="#000000"
     borderopacity="0.25"
     inkscape:showpageshadow="2"
     inkscape:pageopacity="0.0"
     inkscape:pagecheckerboard="0"
     inkscape:deskcolor="#d1d1d1"
     inkscape:document-units="mm"
     showgrid="false" />
  <style
     type="text/css"
     id="style69758"><![CDATA[
tspan { white-space: pre; }
]]></style>
  <!-- Page: 5/6 -->
  <g
     transform="translate(3.1967416e-8,10.071704)"
     id="g74326">
    <line
       stroke-linejoin="round"
       stroke-linecap="round"
       stroke-width="0.0966"
       stroke="currentColor"
       x1="0.048300002"
       y1="0"
       x2="94.2845"
       y2="0"
       id="line74324" />
  </g>
  <g
     transform="translate(3.1967416e-8,9.1717042)"
     id="g74330">
    <line
       stroke-linejoin="round"
       stroke-linecap="round"
       stroke-width="0.0966"
       stroke="currentColor"
       x1="0.048300002"
       y1="0"
       x2="94.2845"
       y2="0"
       id="line74328" />
  </g>
  <g
     transform="translate(3.1967416e-8,8.2717042)"
     id="g74334">
    <line
       stroke-linejoin="round"
       stroke-linecap="round"
       stroke-width="0.0966"
       stroke="currentColor"
       x1="0.048300002"
       y1="0"
       x2="94.2845"
       y2="0"
       id="line74332" />
  </g>
  <g
     transform="translate(3.1967416e-8,7.3717042)"
     id="g74338">
    <line
       stroke-linejoin="round"
       stroke-linecap="round"
       stroke-width="0.0966"
       stroke="currentColor"
       x1="0.048300002"
       y1="0"
       x2="94.2845"
       y2="0"
       id="line74336" />
  </g>
  <g
     transform="translate(3.1967416e-8,6.4717042)"
     id="g74342">
    <line
       stroke-linejoin="round"
       stroke-linecap="round"
       stroke-width="0.0966"
       stroke="currentColor"
       x1="0.048300002"
       y1="0"
       x2="94.2845"
       y2="0"
       id="line74340" />
  </g>
  <g
     transform="translate(53.3377,8.2717042)"
     id="g74346">
    <rect
       x="0"
       y="-1.8"
       width="0.18350001"
       height="3.5999999"
       ry="0.0000"
       fill="currentColor"
       id="rect74344" />
  </g>
  <g
     transform="translate(31.6729,8.2717042)"
     id="g74350">
    <rect
       x="0"
       y="-1.8"
       width="0.18350001"
       height="3.5999999"
       ry="0.0000"
       fill="currentColor"
       id="rect74348" />
  </g>
  <g
     transform="translate(72.4243,8.2717042)"
     id="g74354">
    <rect
       x="0"
       y="-1.8"
       width="0.18350001"
       height="3.5999999"
       ry="0.0000"
       fill="currentColor"
       id="rect74352" />
  </g>
  <g
     transform="translate(92.589,7.8217042)"
     id="g74358">
    <path
       transform="scale(0.0036,-0.0036)"
       d="M 0,0 C 0,31 25,56 56,56 87,56 111,31 111,0 111,-31 87,-56 56,-56 25,-56 0,-31 0,0 Z"
       fill="currentColor"
       id="path74356" />
  </g>
  <g
     transform="translate(92.589,8.7217042)"
     id="g74362">
    <path
       transform="scale(0.0036,-0.0036)"
       d="M 0,0 C 0,31 25,56 56,56 87,56 111,31 111,0 111,-31 87,-56 56,-56 25,-56 0,-31 0,0 Z"
       fill="currentColor"
       id="path74360" />
  </g>
  <g
     transform="translate(93.7533,8.2717042)"
     id="g74366">
    <rect
       x="0"
       y="-1.8"
       width="0.5794"
       height="3.5999999"
       ry="0.0000"
       fill="currentColor"
       id="rect74364" />
  </g>
  <g
     transform="translate(93.2801,8.2717042)"
     id="g74370">
    <rect
       x="0"
       y="-1.8"
       width="0.18350001"
       height="3.5999999"
       ry="0.0000"
       fill="currentColor"
       id="rect74368" />
  </g>
  <g
     transform="translate(3.1967416e-8,5.5717042)"
     id="g74374">
    <rect
       x="63.118198"
       y="-0.0933"
       width="1.7588"
       height="0.1866"
       ry="0.0933"
       fill="currentColor"
       id="rect74372" />
  </g>
  <g
     transform="translate(3.1967416e-8,5.5717042)"
     id="g74378">
    <rect
       x="58.6231"
       y="-0.0933"
       width="1.7588"
       height="0.1866"
       ry="0.0933"
       fill="currentColor"
       id="rect74376" />
  </g>
  <g
     transform="translate(3.1967416e-8,5.5717042)"
     id="g74382">
    <rect
       x="56.250599"
       y="-0.0933"
       width="1.7588"
       height="0.1866"
       ry="0.0933"
       fill="currentColor"
       id="rect74380" />
  </g>
  <g
     transform="translate(3.1967416e-8,4.6717042)"
     id="g74386">
    <rect
       x="54.128101"
       y="-0.0933"
       width="1.7588"
       height="0.1866"
       ry="0.0933"
       fill="currentColor"
       id="rect74384" />
  </g>
  <g
     transform="translate(3.1967416e-8,5.5717042)"
     id="g74390">
    <rect
       x="54.128101"
       y="-0.0933"
       width="1.7588"
       height="0.1866"
       ry="0.0933"
       fill="currentColor"
       id="rect74388" />
  </g>
  <g
     transform="translate(3.1967416e-8,4.6717042)"
     id="g74394">
    <rect
       x="50.6721"
       y="-0.0933"
       width="1.7588"
       height="0.1866"
       ry="0.0933"
       fill="currentColor"
       id="rect74392" />
  </g>
  <g
     transform="translate(3.1967416e-8,5.5717042)"
     id="g74398">
    <rect
       x="50.6721"
       y="-0.0933"
       width="1.7588"
       height="0.1866"
       ry="0.0933"
       fill="currentColor"
       id="rect74396" />
  </g>
  <g
     transform="translate(3.1967416e-8,5.5717042)"
     id="g74402">
    <rect
       x="48.049599"
       y="-0.0933"
       width="1.7588"
       height="0.1866"
       ry="0.0933"
       fill="currentColor"
       id="rect74400" />
  </g>
  <g
     transform="translate(3.1967416e-8,5.5717042)"
     id="g74406">
    <rect
       x="45.676998"
       y="-0.0933"
       width="1.7588"
       height="0.1866"
       ry="0.0933"
       fill="currentColor"
       id="rect74404" />
  </g>
  <g
     transform="translate(3.1967416e-8,5.5717042)"
     id="g74410">
    <rect
       x="40.681999"
       y="-0.0933"
       width="1.7588"
       height="0.1866"
       ry="0.0933"
       fill="currentColor"
       id="rect74408" />
  </g>
  <a
     style="color:inherit"
     xlink:href="textedit://C:/Users/Javier/Documents/lilypond%20scores/ricci%20left%20hand%20examples.ly:792:20:21"
     id="a74416"
     transform="translate(-5.6906,-114.8614)">
    <g
       transform="translate(64.7663,115.8747)"
       id="g74414">
      <path
         transform="scale(0.002,-0.002)"
         d="m 198,284 c 24,15 48,29 65,52 12,16 19,34 28,52 2,5 6,7 11,7 8,0 16,-6 16,-17 V 161 h 79 c 12,0 18,-9 18,-18 0,-9 -6,-18 -18,-18 h -79 c 2,-51 33,-96 80,-96 10,0 15,-8 15,-15 C 413,7 408,0 398,0 349,0 302,14 253,14 204,14 156,0 107,0 97,0 93,7 93,14 c 0,7 4,15 14,15 47,0 79,45 81,96 H 36 c -29,0 -38,17 -38,28 0,3 1,6 2,8 78,88 123,201 123,319 0,11 8,21 17,21 1,0 3,-1 4,-1 25,-7 50,-14 76,-14 26,0 52,7 77,14 2,1 4,1 6,1 10,0 17,-7 17,-14 0,-2 0,-5 -2,-7 L 36,161 h 152 v 96 c 0,10 1,21 10,27 z"
         fill="currentColor"
         id="path74412" />
    </g>
  </a>
  <g
     transform="translate(64.521,8.2717042)"
     id="g74420">
    <rect
       x="-0.062799998"
       y="-4.9442"
       width="0.12549999"
       height="2.0827999"
       ry="0.039999999"
       fill="currentColor"
       id="rect74418" />
  </g>
  <a
     style="color:inherit"
     xlink:href="textedit://C:/Users/Javier/Documents/lilypond%20scores/ricci%20left%20hand%20examples.ly:792:27:28"
     id="a74426"
     transform="translate(-5.6906,-114.8614)">
    <g
       transform="translate(69.1019,120.4331)"
       id="g74424">
      <path
         transform="scale(0.0036,-0.0036)"
         d="m 215,137 c 57,0 111,-29 111,-92 0,-71 -54,-120 -101,-148 -35,-21 -74,-34 -114,-34 -57,0 -111,29 -111,92 0,71 54,120 101,148 35,21 74,34 114,34 z"
         fill="currentColor"
         id="path74422" />
    </g>
  </a>
  <g
     transform="translate(60.026,8.2717042)"
     id="g74430">
    <rect
       x="-0.062799998"
       y="-5.4324999"
       width="0.12549999"
       height="2.1210001"
       ry="0.039999999"
       fill="currentColor"
       id="rect74428" />
  </g>
  <g
     transform="translate(62.1485,8.2717042)"
     id="g74434">
    <rect
       x="-0.062799998"
       y="-5.2379999"
       width="0.12549999"
       height="2.8266001"
       ry="0.039999999"
       fill="currentColor"
       id="rect74432" />
  </g>
  <a
     style="color:inherit"
     xlink:href="textedit://C:/Users/Javier/Documents/lilypond%20scores/ricci%20left%20hand%20examples.ly:792:23:24"
     id="a74440"
     transform="translate(-5.6906,-114.8614)">
    <g
       transform="translate(66.7294,120.8831)"
       id="g74438">
      <path
         transform="scale(0.0036,-0.0036)"
         d="m 215,137 c 57,0 111,-29 111,-92 0,-71 -54,-120 -101,-148 -35,-21 -74,-34 -114,-34 -57,0 -111,29 -111,92 0,71 54,120 101,148 35,21 74,34 114,34 z"
         fill="currentColor"
         id="path74436" />
    </g>
  </a>
  <a
     style="color:inherit"
     xlink:href="textedit://C:/Users/Javier/Documents/lilypond%20scores/ricci%20left%20hand%20examples.ly:792:36:37"
     id="a74446"
     transform="translate(-5.6906,-114.8614)">
    <g
       transform="translate(73.7564,116.7746)"
       id="g74444">
      <path
         transform="scale(0.002,-0.002)"
         d="m 198,284 c 24,15 48,29 65,52 12,16 19,34 28,52 2,5 6,7 11,7 8,0 16,-6 16,-17 V 161 h 79 c 12,0 18,-9 18,-18 0,-9 -6,-18 -18,-18 h -79 c 2,-51 33,-96 80,-96 10,0 15,-8 15,-15 C 413,7 408,0 398,0 349,0 302,14 253,14 204,14 156,0 107,0 97,0 93,7 93,14 c 0,7 4,15 14,15 47,0 79,45 81,96 H 36 c -29,0 -38,17 -38,28 0,3 1,6 2,8 78,88 123,201 123,319 0,11 8,21 17,21 1,0 3,-1 4,-1 25,-7 50,-14 76,-14 26,0 52,7 77,14 2,1 4,1 6,1 10,0 17,-7 17,-14 0,-2 0,-5 -2,-7 L 36,161 h 152 v 96 c 0,10 1,21 10,27 z"
         fill="currentColor"
         id="path74442" />
    </g>
  </a>
  <g
     transform="translate(71.1386,8.2717042)"
     id="g74450">
    <rect
       x="-0.062799998"
       y="-4.3379998"
       width="0.12549999"
       height="2.8266001"
       ry="0.039999999"
       fill="currentColor"
       id="rect74448" />
  </g>
  <a
     style="color:inherit"
     xlink:href="textedit://C:/Users/Javier/Documents/lilypond%20scores/ricci%20left%20hand%20examples.ly:792:39:40"
     id="a74456"
     transform="translate(-5.6906,-114.8614)">
    <g
       transform="translate(75.7195,121.7831)"
       id="g74454">
      <path
         transform="scale(0.0036,-0.0036)"
         d="m 215,137 c 57,0 111,-29 111,-92 0,-71 -54,-120 -101,-148 -35,-21 -74,-34 -114,-34 -57,0 -111,29 -111,92 0,71 54,120 101,148 35,21 74,34 114,34 z"
         fill="currentColor"
         id="path74452" />
    </g>
  </a>
  <g
     transform="translate(69.0161,8.2717042)"
     id="g74460">
    <rect
       x="-0.062799998"
       y="-4.5324998"
       width="0.12549999"
       height="2.1210001"
       ry="0.039999999"
       fill="currentColor"
       id="rect74458" />
  </g>
  <a
     style="color:inherit"
     xlink:href="textedit://C:/Users/Javier/Documents/lilypond%20scores/ricci%20left%20hand%20examples.ly:792:33:34"
     id="a74466"
     transform="translate(-5.6906,-114.8614)">
    <g
       transform="translate(73.5969,120.8831)"
       id="g74464">
      <path
         transform="scale(0.0036,-0.0036)"
         d="m 215,137 c 57,0 111,-29 111,-92 0,-71 -54,-120 -101,-148 -35,-21 -74,-34 -114,-34 -57,0 -111,29 -111,92 0,71 54,120 101,148 35,21 74,34 114,34 z"
         fill="currentColor"
         id="path74462" />
    </g>
  </a>
  <g
     transform="translate(66.6436,8.2717042)"
     id="g74470">
    <rect
       x="-0.062799998"
       y="-4.7498002"
       width="0.12549999"
       height="2.7883999"
       ry="0.039999999"
       fill="currentColor"
       id="rect74468" />
  </g>
  <a
     style="color:inherit"
     xlink:href="textedit://C:/Users/Javier/Documents/lilypond%20scores/ricci%20left%20hand%20examples.ly:792:29:30"
     id="a74476"
     transform="translate(-5.6906,-114.8614)">
    <g
       transform="translate(71.2244,121.3331)"
       id="g74474">
      <path
         transform="scale(0.0036,-0.0036)"
         d="m 215,137 c 57,0 111,-29 111,-92 0,-71 -54,-120 -101,-148 -35,-21 -74,-34 -114,-34 -57,0 -111,29 -111,92 0,71 54,120 101,148 35,21 74,34 114,34 z"
         fill="currentColor"
         id="path74472" />
    </g>
  </a>
  <a
     style="color:inherit"
     xlink:href="textedit://C:/Users/Javier/Documents/lilypond%20scores/ricci%20left%20hand%20examples.ly:792:8:9"
     id="a74482"
     transform="translate(-5.6906,-114.8614)">
    <g
       transform="translate(60.1118,119.5331)"
       id="g74480">
      <path
         transform="scale(0.0036,-0.0036)"
         d="m 215,137 c 57,0 111,-29 111,-92 0,-71 -54,-120 -101,-148 -35,-21 -74,-34 -114,-34 -57,0 -111,29 -111,92 0,71 54,120 101,148 35,21 74,34 114,34 z"
         fill="currentColor"
         id="path74478" />
    </g>
  </a>
  <g
     transform="translate(55.5309,8.2717042)"
     id="g74486">
    <rect
       x="-0.062799998"
       y="-5.8442001"
       width="0.12549999"
       height="2.0827999"
       ry="0.039999999"
       fill="currentColor"
       id="rect74484" />
  </g>
  <a
     style="color:inherit"
     xlink:href="textedit://C:/Users/Javier/Documents/lilypond%20scores/ricci%20left%20hand%20examples.ly:797:13:14"
     id="a74492"
     transform="translate(-5.6906,-114.8614)">
    <g
       transform="translate(60.1118,121.7831)"
       id="g74490">
      <path
         transform="scale(0.0036,-0.0036)"
         d="m 211,111 c -49,0 -68,-43 -68,-88 0,-75 57,-134 132,-134 49,0 68,43 68,88 0,75 -57,134 -132,134 z M 486,0 c 0,-43 -33,-76 -71,-97 -52,-29 -112,-40 -172,-40 -60,0 -120,11 -172,40 -38,21 -71,54 -71,97 0,43 33,76 71,97 52,29 112,40 172,40 60,0 120,-11 172,-40 38,-21 71,-54 71,-97 z"
         fill="currentColor"
         id="path74488" />
    </g>
  </a>
  <a
     style="color:inherit"
     xlink:href="textedit://C:/Users/Javier/Documents/lilypond%20scores/ricci%20left%20hand%20examples.ly:792:12:13"
     id="a74498"
     transform="translate(-5.6906,-114.8614)">
    <g
       transform="translate(60.2713,116.6228)"
       id="g74496">
      <path
         transform="scale(0.002,-0.002)"
         d="m 198,284 c 24,15 48,29 65,52 12,16 19,34 28,52 2,5 6,7 11,7 8,0 16,-6 16,-17 V 161 h 79 c 12,0 18,-9 18,-18 0,-9 -6,-18 -18,-18 h -79 c 2,-51 33,-96 80,-96 10,0 15,-8 15,-15 C 413,7 408,0 398,0 349,0 302,14 253,14 204,14 156,0 107,0 97,0 93,7 93,14 c 0,7 4,15 14,15 47,0 79,45 81,96 H 36 c -29,0 -38,17 -38,28 0,3 1,6 2,8 78,88 123,201 123,319 0,11 8,21 17,21 1,0 3,-1 4,-1 25,-7 50,-14 76,-14 26,0 52,7 77,14 2,1 4,1 6,1 10,0 17,-7 17,-14 0,-2 0,-5 -2,-7 L 36,161 h 152 v 96 c 0,10 1,21 10,27 z"
         fill="currentColor"
         id="path74494" />
    </g>
  </a>
  <g
     transform="translate(52.0749,8.2717042)"
     id="g74502">
    <rect
       x="-0.062799998"
       y="-5.8449998"
       width="0.12549999"
       height="2.0836"
       ry="0.039999999"
       fill="currentColor"
       id="rect74500" />
  </g>
  <a
     style="color:inherit"
     xlink:href="textedit://C:/Users/Javier/Documents/lilypond%20scores/ricci%20left%20hand%20examples.ly:791:37:38"
     id="a74508"
     transform="translate(-5.6906,-114.8614)">
    <g
       transform="translate(56.8152,116.1171)"
       id="g74506">
      <path
         transform="scale(0.002,-0.002)"
         d="m 198,284 c 24,15 48,29 65,52 12,16 19,34 28,52 2,5 6,7 11,7 8,0 16,-6 16,-17 V 161 h 79 c 12,0 18,-9 18,-18 0,-9 -6,-18 -18,-18 h -79 c 2,-51 33,-96 80,-96 10,0 15,-8 15,-15 C 413,7 408,0 398,0 349,0 302,14 253,14 204,14 156,0 107,0 97,0 93,7 93,14 c 0,7 4,15 14,15 47,0 79,45 81,96 H 36 c -29,0 -38,17 -38,28 0,3 1,6 2,8 78,88 123,201 123,319 0,11 8,21 17,21 1,0 3,-1 4,-1 25,-7 50,-14 76,-14 26,0 52,7 77,14 2,1 4,1 6,1 10,0 17,-7 17,-14 0,-2 0,-5 -2,-7 L 36,161 h 152 v 96 c 0,10 1,21 10,27 z"
         fill="currentColor"
         id="path74504" />
    </g>
  </a>
  <a
     style="color:inherit"
     xlink:href="textedit://C:/Users/Javier/Documents/lilypond%20scores/ricci%20left%20hand%20examples.ly:791:33:34"
     id="a74514"
     transform="translate(-5.6906,-114.8614)">
    <g
       transform="translate(56.6558,119.5331)"
       id="g74512">
      <path
         transform="scale(0.0036,-0.0036)"
         d="m 215,137 c 57,0 111,-29 111,-92 0,-71 -54,-120 -101,-148 -35,-21 -74,-34 -114,-34 -57,0 -111,29 -111,92 0,71 54,120 101,148 35,21 74,34 114,34 z"
         fill="currentColor"
         id="path74510" />
    </g>
  </a>
  <a
     style="color:inherit"
     xlink:href="textedit://C:/Users/Javier/Documents/lilypond%20scores/ricci%20left%20hand%20examples.ly:789:21:22"
     id="a74520"
     transform="translate(-5.6906,-114.8614)">
    <g
       transform="translate(17.6333,123.1331)"
       id="g74518">
      <path
         stroke-width="0.0773"
         stroke-linejoin="round"
         stroke-linecap="round"
         stroke="currentColor"
         fill="currentColor"
         d="M 0.092,3.1937 C 2.4088,4.5913 15.6172,3.6008 17.6997,1.8733 v 0 C 15.6085,3.4852 2.4002,4.4757 0.092,3.1937 Z"
         id="path74516" />
    </g>
  </a>
  <g
     transform="translate(57.6535,8.2717042)"
     id="g74524">
    <rect
       x="-0.062799998"
       y="-5.6497998"
       width="0.12549999"
       height="2.7883999"
       ry="0.039999999"
       fill="currentColor"
       id="rect74522" />
  </g>
  <a
     style="color:inherit"
     xlink:href="textedit://C:/Users/Javier/Documents/lilypond%20scores/ricci%20left%20hand%20examples.ly:792:16:17"
     id="a74530"
     transform="translate(-5.6906,-114.8614)">
    <g
       transform="translate(62.4791,115.9679)"
       id="g74528">
      <path
         transform="scale(0.002,-0.002)"
         d="m 155,471 c -34,0 -70,-8 -70,-38 0,-19 31,-23 31,-42 0,-28 -23,-51 -51,-51 -28,0 -51,23 -51,51 0,67 68,109 141,109 93,0 174,-31 174,-113 0,-41 -6,-77 -42,-94 -11,-5 -17,-16 -17,-27 0,-11 6,-22 17,-27 40,-19 59,-53 59,-98 C 346,47 263,0 160,0 78,0 0,45 0,119 c 0,32 26,58 58,58 32,0 58,-26 58,-58 0,-22 -36,-26 -36,-48 0,-33 42,-42 80,-42 46,0 56,58 56,112 v 38 c 0,40 -4,69 -43,69 H 99 c -12,0 -18,9 -18,18 0,9 6,18 18,18 h 74 c 40,0 43,31 43,73 v 30 c 0,50 -16,84 -61,84 z"
         fill="currentColor"
         id="path74526" />
    </g>
  </a>
  <a
     style="color:inherit"
     xlink:href="textedit://C:/Users/Javier/Documents/lilypond%20scores/ricci%20left%20hand%20examples.ly:792:15:16"
     id="a74536"
     transform="translate(-5.6906,-114.8614)">
    <g
       transform="translate(62.2343,120.4331)"
       id="g74534">
      <path
         transform="scale(0.0036,-0.0036)"
         d="m 215,137 c 57,0 111,-29 111,-92 0,-71 -54,-120 -101,-148 -35,-21 -74,-34 -114,-34 -57,0 -111,29 -111,92 0,71 54,120 101,148 35,21 74,34 114,34 z"
         fill="currentColor"
         id="path74532" />
    </g>
  </a>
  <a
     style="color:inherit"
     xlink:href="textedit://C:/Users/Javier/Documents/lilypond%20scores/ricci%20left%20hand%20examples.ly:792:19:20"
     id="a74542"
     transform="translate(-5.6906,-114.8614)">
    <g
       transform="translate(64.6068,119.9831)"
       id="g74540">
      <path
         transform="scale(0.0036,-0.0036)"
         d="m 215,137 c 57,0 111,-29 111,-92 0,-71 -54,-120 -101,-148 -35,-21 -74,-34 -114,-34 -57,0 -111,29 -111,92 0,71 54,120 101,148 35,21 74,34 114,34 z"
         fill="currentColor"
         id="path74538" />
    </g>
  </a>
  <a
     style="color:inherit"
     xlink:href="textedit://C:/Users/Javier/Documents/lilypond%20scores/ricci%20left%20hand%20examples.ly:793:24:25"
     id="a74548"
     transform="translate(-5.6906,-114.8614)">
    <g
       transform="translate(91.4121,123.1331)"
       id="g74546">
      <path
         transform="scale(0.0036,-0.0036)"
         d="m 215,137 c 57,0 111,-29 111,-92 0,-71 -54,-120 -101,-148 -35,-21 -74,-34 -114,-34 -57,0 -111,29 -111,92 0,71 54,120 101,148 35,21 74,34 114,34 z"
         fill="currentColor"
         id="path74544" />
    </g>
  </a>
  <g
     transform="translate(89.2038,8.2717042)"
     id="g74552">
    <rect
       x="-0.062799998"
       y="-2.7325001"
       width="0.12549999"
       height="2.1210001"
       ry="0.039999999"
       fill="currentColor"
       id="rect74550" />
  </g>
  <a
     style="color:inherit"
     xlink:href="textedit://C:/Users/Javier/Documents/lilypond%20scores/ricci%20left%20hand%20examples.ly:793:26:27"
     id="a74558"
     transform="translate(-5.6906,-114.8614)">
    <g
       transform="translate(93.7846,122.6831)"
       id="g74556">
      <path
         transform="scale(0.0036,-0.0036)"
         d="m 215,137 c 57,0 111,-29 111,-92 0,-71 -54,-120 -101,-148 -35,-21 -74,-34 -114,-34 -57,0 -111,29 -111,92 0,71 54,120 101,148 35,21 74,34 114,34 z"
         fill="currentColor"
         id="path74554" />
    </g>
  </a>
  <g
     transform="translate(86.8312,8.2717042)"
     id="g74562">
    <rect
       x="-0.062799998"
       y="-2.9498"
       width="0.12549999"
       height="2.7883999"
       ry="0.039999999"
       fill="currentColor"
       id="rect74560" />
  </g>
  <g
     transform="translate(84.7087,8.2717042)"
     id="g74566">
    <rect
       x="-0.062799998"
       y="-3.1442001"
       width="0.12549999"
       height="2.0827999"
       ry="0.039999999"
       fill="currentColor"
       id="rect74564" />
  </g>
  <a
     style="color:inherit"
     xlink:href="textedit://C:/Users/Javier/Documents/lilypond%20scores/ricci%20left%20hand%20examples.ly:793:22:23"
     id="a74572"
     transform="translate(-5.6906,-114.8614)">
    <g
       transform="translate(89.2895,122.2331)"
       id="g74570">
      <path
         transform="scale(0.0036,-0.0036)"
         d="m 215,137 c 57,0 111,-29 111,-92 0,-71 -54,-120 -101,-148 -35,-21 -74,-34 -114,-34 -57,0 -111,29 -111,92 0,71 54,120 101,148 35,21 74,34 114,34 z"
         fill="currentColor"
         id="path74568" />
    </g>
  </a>
  <g
     transform="translate(74.5548,4.2217042)"
     id="g74576">
    <polygon
       stroke-linejoin="round"
       stroke-linecap="round"
       stroke-width="0.08"
       fill="currentColor"
       stroke="currentColor"
       points="7.8042,0.4417 7.8042,0.7937 0.04,0.176 0.04,-0.176 "
       id="polygon74574" />
  </g>
  <g
     transform="translate(11.9427,10.804004)"
     id="g74580">
    <polygon
       stroke-linejoin="round"
       stroke-linecap="round"
       stroke-width="0.08"
       fill="currentColor"
       stroke="currentColor"
       points="7.7031,-0.7406 7.7031,-0.3886 0.04,0.176 0.04,-0.176 "
       id="polygon74578" />
  </g>
  <g
     transform="translate(21.9328,9.9040042)"
     id="g74584">
    <polygon
       stroke-linejoin="round"
       stroke-linecap="round"
       stroke-width="0.08"
       fill="currentColor"
       stroke="currentColor"
       points="7.7031,-0.7406 7.7031,-0.3886 0.04,0.176 0.04,-0.176 "
       id="polygon74582" />
  </g>
  <a
     style="color:inherit"
     xlink:href="textedit://C:/Users/Javier/Documents/lilypond%20scores/ricci%20left%20hand%20examples.ly:791:9:10"
     id="a74590"
     transform="translate(-5.6906,-114.8614)">
    <g
       transform="translate(38.447,123.1331)"
       id="g74588">
      <path
         stroke-width="0.0773"
         stroke-linejoin="round"
         stroke-linecap="round"
         stroke="currentColor"
         fill="currentColor"
         d="M 1.0775,-5.0029 C 3.1747,-6.7583 16.9289,-7.8974 19.2862,-6.511 v 0 C 16.9384,-7.7819 3.1842,-6.6428 1.0775,-5.0029 Z"
         id="path74586" />
    </g>
  </a>
  <g
     transform="translate(33.8034,3.9394042)"
     id="g74594">
    <polygon
       stroke-linejoin="round"
       stroke-linecap="round"
       stroke-width="0.08"
       fill="currentColor"
       stroke="currentColor"
       points="8.3042,-0.7937 8.3042,-0.4417 0.04,0.176 0.04,-0.176 "
       id="polygon74592" />
  </g>
  <g
     transform="translate(44.3946,3.0394042)"
     id="g74598">
    <polygon
       stroke-linejoin="round"
       stroke-linecap="round"
       stroke-width="0.08"
       fill="currentColor"
       stroke="currentColor"
       points="7.7031,-0.7937 7.7031,-0.4417 0.04,0.176 0.04,-0.176 "
       id="polygon74596" />
  </g>
  <a
     style="color:inherit"
     xlink:href="textedit://C:/Users/Javier/Documents/lilypond%20scores/ricci%20left%20hand%20examples.ly:792:11:12"
     id="a74604"
     transform="translate(-5.6906,-114.8614)">
    <g
       transform="translate(60.1118,123.1331)"
       id="g74602">
      <path
         stroke-width="0.0773"
         stroke-linejoin="round"
         stroke-linecap="round"
         stroke="currentColor"
         fill="currentColor"
         d="M 1.1473,-6.5102 C 3.3879,-7.8332 14.8087,-6.731 16.755,-5.004 v 0 C 14.7976,-6.6157 3.3767,-7.7178 1.1473,-6.5102 Z"
         id="path74600" />
    </g>
  </a>
  <g
     transform="translate(55.4682,2.4217042)"
     id="g74608">
    <polygon
       stroke-linejoin="round"
       stroke-linecap="round"
       stroke-width="0.08"
       fill="currentColor"
       stroke="currentColor"
       points="6.7031,0.4417 6.7031,0.7937 0.04,0.176 0.04,-0.176 "
       id="polygon74606" />
  </g>
  <g
     transform="translate(64.4583,3.3217042)"
     id="g74612">
    <polygon
       stroke-linejoin="round"
       stroke-linecap="round"
       stroke-width="0.08"
       fill="currentColor"
       stroke="currentColor"
       points="6.7031,0.4417 6.7031,0.7937 0.04,0.176 0.04,-0.176 "
       id="polygon74610" />
  </g>
  <a
     style="color:inherit"
     xlink:href="textedit://C:/Users/Javier/Documents/lilypond%20scores/ricci%20left%20hand%20examples.ly:793:11:12"
     id="a74618"
     transform="translate(-5.6906,-114.8614)">
    <g
       transform="translate(79.1984,123.1331)"
       id="g74616">
      <path
         stroke-width="0.0773"
         stroke-linejoin="round"
         stroke-linecap="round"
         stroke="currentColor"
         fill="currentColor"
         d="m 1.1449,-4.7111 c 2.2926,-1.3518 14.695,-0.2332 16.7087,1.5071 v 0 C 15.8295,-4.8289 3.427,-5.9475 1.1449,-4.7111 Z"
         id="path74614" />
    </g>
  </a>
  <g
     transform="translate(84.6459,5.1217042)"
     id="g74622">
    <polygon
       stroke-linejoin="round"
       stroke-linecap="round"
       stroke-width="0.08"
       fill="currentColor"
       stroke="currentColor"
       points="6.7031,0.4417 6.7031,0.7937 0.04,0.176 0.04,-0.176 "
       id="polygon74620" />
  </g>
  <g
     transform="translate(91.3263,8.2717042)"
     id="g74626">
    <rect
       x="-0.062799998"
       y="-2.5380001"
       width="0.12549999"
       height="2.8266001"
       ry="0.039999999"
       fill="currentColor"
       id="rect74624" />
  </g>
  <a
     style="color:inherit"
     xlink:href="textedit://C:/Users/Javier/Documents/lilypond%20scores/ricci%20left%20hand%20examples.ly:793:30:31"
     id="a74632"
     transform="translate(-5.6906,-114.8614)">
    <g
       transform="translate(95.9071,123.5831)"
       id="g74630">
      <path
         transform="scale(0.0036,-0.0036)"
         d="m 215,137 c 57,0 111,-29 111,-92 0,-71 -54,-120 -101,-148 -35,-21 -74,-34 -114,-34 -57,0 -111,29 -111,92 0,71 54,120 101,148 35,21 74,34 114,34 z"
         fill="currentColor"
         id="path74628" />
    </g>
  </a>
  <g
     transform="translate(74.6175,8.2717042)"
     id="g74636">
    <rect
       x="-0.062799998"
       y="-4.0451002"
       width="0.12549999"
       height="2.0836"
       ry="0.039999999"
       fill="currentColor"
       id="rect74634" />
  </g>
  <a
     style="color:inherit"
     xlink:href="textedit://C:/Users/Javier/Documents/lilypond%20scores/ricci%20left%20hand%20examples.ly:797:15:16"
     id="a74642"
     transform="translate(-5.6906,-114.8614)">
    <g
       transform="translate(80.3709,121.7831)"
       id="g74640">
      <path
         transform="scale(0.0036,-0.0036)"
         d="m 211,111 c -49,0 -68,-43 -68,-88 0,-75 57,-134 132,-134 49,0 68,43 68,88 0,75 -57,134 -132,134 z M 486,0 c 0,-43 -33,-76 -71,-97 -52,-29 -112,-40 -172,-40 -60,0 -120,11 -172,40 -38,21 -71,54 -71,97 0,43 33,76 71,97 52,29 112,40 172,40 60,0 120,-11 172,-40 38,-21 71,-54 71,-97 z"
         fill="currentColor"
         id="path74638" />
    </g>
  </a>
  <a
     style="color:inherit"
     xlink:href="textedit://C:/Users/Javier/Documents/lilypond%20scores/ricci%20left%20hand%20examples.ly:793:8:9"
     id="a74648"
     transform="translate(-5.6906,-114.8614)">
    <g
       transform="translate(79.1984,121.3331)"
       id="g74646">
      <path
         transform="scale(0.0036,-0.0036)"
         d="m 215,137 c 57,0 111,-29 111,-92 0,-71 -54,-120 -101,-148 -35,-21 -74,-34 -114,-34 -57,0 -111,29 -111,92 0,71 54,120 101,148 35,21 74,34 114,34 z"
         fill="currentColor"
         id="path74644" />
    </g>
  </a>
  <g
     transform="translate(82.3362,8.2717042)"
     id="g74652">
    <rect
       x="-0.062799998"
       y="-3.4372001"
       width="0.12549999"
       height="2.8257999"
       ry="0.039999999"
       fill="currentColor"
       id="rect74650" />
  </g>
  <a
     style="color:inherit"
     xlink:href="textedit://C:/Users/Javier/Documents/lilypond%20scores/ricci%20left%20hand%20examples.ly:793:18:19"
     id="a74658"
     transform="translate(-5.6906,-114.8614)">
    <g
       transform="translate(86.917,122.6831)"
       id="g74656">
      <path
         transform="scale(0.0036,-0.0036)"
         d="m 215,137 c 57,0 111,-29 111,-92 0,-71 -54,-120 -101,-148 -35,-21 -74,-34 -114,-34 -57,0 -111,29 -111,92 0,71 54,120 101,148 35,21 74,34 114,34 z"
         fill="currentColor"
         id="path74654" />
    </g>
  </a>
  <g
     transform="translate(80.2137,8.2717042)"
     id="g74662">
    <rect
       x="-0.062799998"
       y="-3.6043999"
       width="0.12549999"
       height="2.0929"
       ry="0.039999999"
       fill="currentColor"
       id="rect74660" />
  </g>
  <a
     style="color:inherit"
     xlink:href="textedit://C:/Users/Javier/Documents/lilypond%20scores/ricci%20left%20hand%20examples.ly:793:15:16"
     id="a74668"
     transform="translate(-5.6906,-114.8614)">
    <g
       transform="translate(84.954,117.6601)"
       id="g74666">
      <path
         transform="scale(0.002,-0.002)"
         d="m 198,284 c 24,15 48,29 65,52 12,16 19,34 28,52 2,5 6,7 11,7 8,0 16,-6 16,-17 V 161 h 79 c 12,0 18,-9 18,-18 0,-9 -6,-18 -18,-18 h -79 c 2,-51 33,-96 80,-96 10,0 15,-8 15,-15 C 413,7 408,0 398,0 349,0 302,14 253,14 204,14 156,0 107,0 97,0 93,7 93,14 c 0,7 4,15 14,15 47,0 79,45 81,96 H 36 c -29,0 -38,17 -38,28 0,3 1,6 2,8 78,88 123,201 123,319 0,11 8,21 17,21 1,0 3,-1 4,-1 25,-7 50,-14 76,-14 26,0 52,7 77,14 2,1 4,1 6,1 10,0 17,-7 17,-14 0,-2 0,-5 -2,-7 L 36,161 h 152 v 96 c 0,10 1,21 10,27 z"
         fill="currentColor"
         id="path74664" />
    </g>
  </a>
  <a
     style="color:inherit"
     xlink:href="textedit://C:/Users/Javier/Documents/lilypond%20scores/ricci%20left%20hand%20examples.ly:793:14:15"
     id="a74674"
     transform="translate(-5.6906,-114.8614)">
    <g
       transform="translate(84.7945,121.7831)"
       id="g74672">
      <path
         transform="scale(0.0036,-0.0036)"
         d="m 215,137 c 57,0 111,-29 111,-92 0,-71 -54,-120 -101,-148 -35,-21 -74,-34 -114,-34 -57,0 -111,29 -111,92 0,71 54,120 101,148 35,21 74,34 114,34 z"
         fill="currentColor"
         id="path74670" />
    </g>
  </a>
  <g
     transform="translate(77.8411,8.2717042)"
     id="g74678">
    <rect
       x="-0.062799998"
       y="-3.7911999"
       width="0.12549999"
       height="2.7298"
       ry="0.039999999"
       fill="currentColor"
       id="rect74676" />
  </g>
  <a
     style="color:inherit"
     xlink:href="textedit://C:/Users/Javier/Documents/lilypond%20scores/ricci%20left%20hand%20examples.ly:793:12:13"
     id="a74684"
     transform="translate(-5.6906,-114.8614)">
    <g
       transform="translate(82.422,122.2331)"
       id="g74682">
      <path
         transform="scale(0.0036,-0.0036)"
         d="m 215,137 c 57,0 111,-29 111,-92 0,-71 -54,-120 -101,-148 -35,-21 -74,-34 -114,-34 -57,0 -111,29 -111,92 0,71 54,120 101,148 35,21 74,34 114,34 z"
         fill="currentColor"
         id="path74680" />
    </g>
  </a>
  <g
     transform="translate(24.6181,8.2717042)"
     id="g74688">
    <rect
       x="-0.062799998"
       y="-1.1885999"
       width="0.12549999"
       height="2.6250999"
       ry="0.039999999"
       fill="currentColor"
       id="rect74686" />
  </g>
  <a
     style="color:inherit"
     xlink:href="textedit://C:/Users/Javier/Documents/lilypond%20scores/ricci%20left%20hand%20examples.ly:789:35:36"
     id="a74694"
     transform="translate(-5.6906,-114.8614)">
    <g
       transform="translate(30.246,121.7831)"
       id="g74692">
      <path
         transform="scale(0.0036,-0.0036)"
         d="m 215,137 c 57,0 111,-29 111,-92 0,-71 -54,-120 -101,-148 -35,-21 -74,-34 -114,-34 -57,0 -111,29 -111,92 0,71 54,120 101,148 35,21 74,34 114,34 z"
         fill="currentColor"
         id="path74690" />
    </g>
  </a>
  <g
     transform="translate(21.9956,8.2717042)"
     id="g74698">
    <rect
       x="-0.062799998"
       y="-0.2886"
       width="0.12549999"
       height="1.9163001"
       ry="0.039999999"
       fill="currentColor"
       id="rect74696" />
  </g>
  <a
     style="color:inherit"
     xlink:href="textedit://C:/Users/Javier/Documents/lilypond%20scores/ricci%20left%20hand%20examples.ly:789:31:32"
     id="a74704"
     transform="translate(-5.6906,-114.8614)">
    <g
       transform="translate(27.6234,122.6831)"
       id="g74702">
      <path
         transform="scale(0.0036,-0.0036)"
         d="m 215,137 c 57,0 111,-29 111,-92 0,-71 -54,-120 -101,-148 -35,-21 -74,-34 -114,-34 -57,0 -111,29 -111,92 0,71 54,120 101,148 35,21 74,34 114,34 z"
         fill="currentColor"
         id="path74700" />
    </g>
  </a>
  <g
     transform="translate(19.6231,8.2717042)"
     id="g74708">
    <rect
       x="-0.062799998"
       y="-0.73860002"
       width="0.12549999"
       height="2.7109001"
       ry="0.039999999"
       fill="currentColor"
       id="rect74706" />
  </g>
  <a
     style="color:inherit"
     xlink:href="textedit://C:/Users/Javier/Documents/lilypond%20scores/ricci%20left%20hand%20examples.ly:789:29:30"
     id="a74714"
     transform="translate(-5.6906,-114.8614)">
    <g
       transform="translate(25.2509,122.2331)"
       id="g74712">
      <path
         transform="scale(0.0036,-0.0036)"
         d="m 215,137 c 57,0 111,-29 111,-92 0,-71 -54,-120 -101,-148 -35,-21 -74,-34 -114,-34 -57,0 -111,29 -111,92 0,71 54,120 101,148 35,21 74,34 114,34 z"
         fill="currentColor"
         id="path74710" />
    </g>
  </a>
  <g
     transform="translate(29.6132,8.2717042)"
     id="g74718">
    <rect
       x="-0.062799998"
       y="-1.6386"
       width="0.12549999"
       height="2.7109001"
       ry="0.039999999"
       fill="currentColor"
       id="rect74716" />
  </g>
  <a
     style="color:inherit"
     xlink:href="textedit://C:/Users/Javier/Documents/lilypond%20scores/ricci%20left%20hand%20examples.ly:789:41:42"
     id="a74724"
     transform="translate(-5.6906,-114.8614)">
    <g
       transform="translate(35.241,121.3331)"
       id="g74722">
      <path
         transform="scale(0.0036,-0.0036)"
         d="m 215,137 c 57,0 111,-29 111,-92 0,-71 -54,-120 -101,-148 -35,-21 -74,-34 -114,-34 -57,0 -111,29 -111,92 0,71 54,120 101,148 35,21 74,34 114,34 z"
         fill="currentColor"
         id="path74720" />
    </g>
  </a>
  <g
     transform="translate(26.9907,8.2717042)"
     id="g74728">
    <rect
       x="-0.062799998"
       y="-0.73860002"
       width="0.12549999"
       height="2.0021"
       ry="0.039999999"
       fill="currentColor"
       id="rect74726" />
  </g>
  <a
     style="color:inherit"
     xlink:href="textedit://C:/Users/Javier/Documents/lilypond%20scores/ricci%20left%20hand%20examples.ly:789:38:39"
     id="a74734"
     transform="translate(-5.6906,-114.8614)">
    <g
       transform="translate(32.8462,120.8348)"
       id="g74732">
      <path
         transform="scale(0.002,-0.002)"
         d="M 129,129 H 259 C 259,77 291,29 340,29 350,29 354,21 354,14 354,7 350,0 340,0 291,0 243,14 194,14 145,14 98,0 49,0 39,0 34,7 34,14 c 0,7 5,15 15,15 49,0 80,48 80,100 z M 0,250 129,500 c 3,7 13,3 21,0 14,-6 28,-14 44,-14 16,0 31,8 45,14 2,1 2,1 4,1 8,0 16,-9 16,-21 V 129 H 129 v 215 c 0,15 -11,23 -20,23 -5,0 -9,-2 -11,-7 L 32,233 c -4,-7 -9,-9 -15,-9 -9,0 -19,7 -19,17 0,3 0,6 2,9 z"
         fill="currentColor"
         id="path74730" />
    </g>
  </a>
  <a
     style="color:inherit"
     xlink:href="textedit://C:/Users/Javier/Documents/lilypond%20scores/ricci%20left%20hand%20examples.ly:789:37:38"
     id="a74740"
     transform="translate(-5.6906,-114.8614)">
    <g
       transform="translate(32.6185,122.2331)"
       id="g74738">
      <path
         transform="scale(0.0036,-0.0036)"
         d="m 215,137 c 57,0 111,-29 111,-92 0,-71 -54,-120 -101,-148 -35,-21 -74,-34 -114,-34 -57,0 -111,29 -111,92 0,71 54,120 101,148 35,21 74,34 114,34 z"
         fill="currentColor"
         id="path74736" />
    </g>
  </a>
  <g
     transform="translate(8.42,8.2717042)"
     id="g74744">
    <path
       transform="scale(0.0036,-0.0036)"
       d="m 358,29 c -49,0 -74,41 -74,73 0,38 27,76 71,76 4,0 7,0 11,-1 -27,36 -69,59 -116,59 -106,0 -113,-74 -113,-188 0,-15 1,-31 1,-48 0,-17 -1,-33 -1,-48 0,-114 7,-188 113,-188 79,0 136,70 155,150 2,7 7,10 13,10 7,0 14,-5 14,-13 0,-95 -105,-175 -182,-175 -68,0 -137,20 -184,70 C 17,-143 0,-71 0,0 c 0,71 17,143 66,194 47,50 116,70 184,70 86,0 159,-66 173,-152 1,-4 1,-9 1,-13 0,-39 -30,-70 -66,-70 z"
       fill="currentColor"
       id="path74742" />
  </g>
  <g
     transform="translate(12.0055,8.2717042)"
     id="g74748">
    <rect
       x="-0.062799998"
       y="0.61140001"
       width="0.12549999"
       height="1.9163001"
       ry="0.039999999"
       fill="currentColor"
       id="rect74746" />
  </g>
  <a
     style="color:inherit"
     xlink:href="textedit://C:/Users/Javier/Documents/lilypond%20scores/ricci%20left%20hand%20examples.ly:785:4:5"
     id="a74762"
     transform="translate(-5.6906,-114.8614)">
    <g
       transform="translate(9.9906,121.3331)"
       id="g74752">
      <path
         transform="scale(0.0036,-0.0036)"
         d="m 217,-311 c 0,-11 -8,-19 -19,-19 -11,0 -20,8 -20,19 v 142 l -81,-30 v -156 c 0,-11 -9,-20 -20,-20 -11,0 -19,9 -19,20 v 142 l -28,-11 c -3,-1 -5,-1 -8,-1 -12,0 -22,10 -22,23 v 57 c 0,9 6,18 15,21 l 43,16 V 49 L 30,39 C 27,38 25,38 22,38 10,38 0,47 0,60 v 57 c 0,9 6,18 15,21 l 43,16 v 157 c 0,11 8,19 19,19 11,0 20,-8 20,-19 V 169 l 81,30 v 156 c 0,11 9,20 20,20 11,0 19,-9 19,-20 V 213 l 28,11 c 3,1 5,1 8,1 12,0 22,-10 22,-23 v -57 c 0,-9 -6,-18 -15,-21 L 217,108 V -49 l 28,10 c 3,1 5,1 8,1 12,0 22,-9 22,-22 v -57 c 0,-9 -6,-18 -15,-21 l -43,-16 z M 97,64 V -94 l 81,30 V 94 Z"
         fill="currentColor"
         id="path74750" />
    </g>
    <g
       transform="translate(10.9806,122.6831)"
       id="g74756">
      <path
         transform="scale(0.0036,-0.0036)"
         d="m 217,-311 c 0,-11 -8,-19 -19,-19 -11,0 -20,8 -20,19 v 142 l -81,-30 v -156 c 0,-11 -9,-20 -20,-20 -11,0 -19,9 -19,20 v 142 l -28,-11 c -3,-1 -5,-1 -8,-1 -12,0 -22,10 -22,23 v 57 c 0,9 6,18 15,21 l 43,16 V 49 L 30,39 C 27,38 25,38 22,38 10,38 0,47 0,60 v 57 c 0,9 6,18 15,21 l 43,16 v 157 c 0,11 8,19 19,19 11,0 20,-8 20,-19 V 169 l 81,30 v 156 c 0,11 9,20 20,20 11,0 19,-9 19,-20 V 213 l 28,11 c 3,1 5,1 8,1 12,0 22,-10 22,-23 v -57 c 0,-9 -6,-18 -15,-21 L 217,108 V -49 l 28,10 c 3,1 5,1 8,1 12,0 22,-9 22,-22 v -57 c 0,-9 -6,-18 -15,-21 l -43,-16 z M 97,64 V -94 l 81,30 V 94 Z"
         fill="currentColor"
         id="path74754" />
    </g>
    <g
       transform="translate(11.9706,120.8831)"
       id="g74760">
      <path
         transform="scale(0.0036,-0.0036)"
         d="m 217,-311 c 0,-11 -8,-19 -19,-19 -11,0 -20,8 -20,19 v 142 l -81,-30 v -156 c 0,-11 -9,-20 -20,-20 -11,0 -19,9 -19,20 v 142 l -28,-11 c -3,-1 -5,-1 -8,-1 -12,0 -22,10 -22,23 v 57 c 0,9 6,18 15,21 l 43,16 V 49 L 30,39 C 27,38 25,38 22,38 10,38 0,47 0,60 v 57 c 0,9 6,18 15,21 l 43,16 v 157 c 0,11 8,19 19,19 11,0 20,-8 20,-19 V 169 l 81,30 v 156 c 0,11 9,20 20,20 11,0 19,-9 19,-20 V 213 l 28,11 c 3,1 5,1 8,1 12,0 22,-10 22,-23 v -57 c 0,-9 -6,-18 -15,-21 L 217,108 V -49 l 28,10 c 3,1 5,1 8,1 12,0 22,-9 22,-22 v -57 c 0,-9 -6,-18 -15,-21 l -43,-16 z M 97,64 V -94 l 81,30 V 94 Z"
         fill="currentColor"
         id="path74758" />
    </g>
  </a>
  <g
     transform="translate(0.80000003,9.1717042)"
     id="g74766">
    <path
       transform="scale(0.0036,-0.0036)"
       d="m 378,263 c 4,0 7,1 11,1 156,0 257,-129 257,-262 0,-76 -34,-154 -108,-210 -22,-17 -46,-29 -72,-37 3,-34 5,-68 5,-102 0,-20 -1,-40 -2,-60 -7,-121 -90,-228 -209,-228 -108,0 -196,87 -196,196 0,58 53,104 112,104 54,0 95,-48 95,-104 0,-52 -43,-95 -95,-95 -10,0 -20,2 -29,6 26,-38 68,-63 116,-63 h 3 c 93,2 153,92 159,190 1,19 2,37 2,56 0,30 -2,60 -4,90 -29,-5 -58,-8 -88,-8 -188,0 -333,173 -333,375 0,177 130,307 246,442 -20,62 -38,125 -46,190 -6,52 -7,104 -7,157 0,115 55,223 148,290 7,5 16,4 22,-1 71,-83 134,-244 134,-357 0,-143 -85,-255 -178,-364 21,-68 40,-137 57,-206 z m 84,-465 c 67,24 111,94 111,162 0,89 -65,178 -170,190 24,-115 46,-230 59,-352 z M 75,26 c 0,-134 129,-245 263,-245 28,0 55,2 81,6 C 405,-87 383,31 358,150 279,142 234,89 234,31 c 0,-43 25,-89 80,-121 5,-5 7,-11 7,-16 0,-12 -10,-23 -22,-23 -3,0 -6,1 -9,2 -81,43 -118,116 -118,186 0,89 58,175 161,198 -14,58 -29,116 -46,173 C 181,308 75,186 75,26 Z M 406,1042 C 307,995 244,894 244,785 c 0,-73 20,-132 38,-191 79,97 144,199 144,324 0,53 -4,76 -20,124 z"
       fill="currentColor"
       id="path74764" />
  </g>
  <a
     style="color:inherit"
     xlink:href="textedit://C:/Users/Javier/Documents/lilypond%20scores/ricci%20left%20hand%20examples.ly:797:7:8"
     id="a74772"
     transform="translate(-5.6906,-114.8614)">
    <g
       transform="translate(17.6333,121.7831)"
       id="g74770">
      <path
         transform="scale(0.0036,-0.0036)"
         d="m 211,111 c -49,0 -68,-43 -68,-88 0,-75 57,-134 132,-134 49,0 68,43 68,88 0,75 -57,134 -132,134 z M 486,0 c 0,-43 -33,-76 -71,-97 -52,-29 -112,-40 -172,-40 -60,0 -120,11 -172,40 -38,21 -71,54 -71,97 0,43 33,76 71,97 52,29 112,40 172,40 60,0 120,-11 172,-40 38,-21 71,-54 71,-97 z"
         fill="currentColor"
         id="path74768" />
    </g>
  </a>
  <a
     style="color:inherit"
     xlink:href="textedit://C:/Users/Javier/Documents/lilypond%20scores/ricci%20left%20hand%20examples.ly:789:18:19"
     id="a74778"
     transform="translate(-5.6906,-114.8614)">
    <g
       transform="translate(17.6333,123.5831)"
       id="g74776">
      <path
         transform="scale(0.0036,-0.0036)"
         d="m 215,137 c 57,0 111,-29 111,-92 0,-71 -54,-120 -101,-148 -35,-21 -74,-34 -114,-34 -57,0 -111,29 -111,92 0,71 54,120 101,148 35,21 74,34 114,34 z"
         fill="currentColor"
         id="path74774" />
    </g>
  </a>
  <a
     style="color:inherit"
     xlink:href="textedit://C:/Users/Javier/Documents/lilypond%20scores/ricci%20left%20hand%20examples.ly:789:23:24"
     id="a74784"
     transform="translate(-5.6906,-114.8614)">
    <g
       transform="translate(20.2559,122.6831)"
       id="g74782">
      <path
         transform="scale(0.0036,-0.0036)"
         d="m 215,137 c 57,0 111,-29 111,-92 0,-71 -54,-120 -101,-148 -35,-21 -74,-34 -114,-34 -57,0 -111,29 -111,92 0,71 54,120 101,148 35,21 74,34 114,34 z"
         fill="currentColor"
         id="path74780" />
    </g>
  </a>
  <g
     transform="translate(17.0006,8.2717042)"
     id="g74788">
    <rect
       x="-0.062799998"
       y="0.16140001"
       width="0.12549999"
       height="2.0021"
       ry="0.039999999"
       fill="currentColor"
       id="rect74786" />
  </g>
  <a
     style="color:inherit"
     xlink:href="textedit://C:/Users/Javier/Documents/lilypond%20scores/ricci%20left%20hand%20examples.ly:789:27:28"
     id="a74794"
     transform="translate(-5.6906,-114.8614)">
    <g
       transform="translate(22.6284,123.1331)"
       id="g74792">
      <path
         transform="scale(0.0036,-0.0036)"
         d="m 215,137 c 57,0 111,-29 111,-92 0,-71 -54,-120 -101,-148 -35,-21 -74,-34 -114,-34 -57,0 -111,29 -111,92 0,71 54,120 101,148 35,21 74,34 114,34 z"
         fill="currentColor"
         id="path74790" />
    </g>
  </a>
  <g
     transform="translate(14.628,8.2717042)"
     id="g74798">
    <rect
       x="-0.062799998"
       y="-0.2886"
       width="0.12549999"
       height="2.6250999"
       ry="0.039999999"
       fill="currentColor"
       id="rect74796" />
  </g>
  <g
     transform="translate(39.4623,8.2717042)"
     id="g74802">
    <rect
       x="-0.062799998"
       y="-4.7512002"
       width="0.12549999"
       height="2.7897999"
       ry="0.039999999"
       fill="currentColor"
       id="rect74800" />
  </g>
  <g
     transform="translate(42.0848,8.2717042)"
     id="g74806">
    <rect
       x="-0.062799998"
       y="-4.9454002"
       width="0.12549999"
       height="2.0839"
       ry="0.039999999"
       fill="currentColor"
       id="rect74804" />
  </g>
  <a
     style="color:inherit"
     xlink:href="textedit://C:/Users/Javier/Documents/lilypond%20scores/ricci%20left%20hand%20examples.ly:791:21:22"
     id="a74812"
     transform="translate(-5.6906,-114.8614)">
    <g
       transform="translate(46.6657,120.4331)"
       id="g74810">
      <path
         transform="scale(0.0036,-0.0036)"
         d="m 215,137 c 57,0 111,-29 111,-92 0,-71 -54,-120 -101,-148 -35,-21 -74,-34 -114,-34 -57,0 -111,29 -111,92 0,71 54,120 101,148 35,21 74,34 114,34 z"
         fill="currentColor"
         id="path74808" />
    </g>
  </a>
  <a
     style="color:inherit"
     xlink:href="textedit://C:/Users/Javier/Documents/lilypond%20scores/ricci%20left%20hand%20examples.ly:791:18:19"
     id="a74818"
     transform="translate(-5.6906,-114.8614)">
    <g
       transform="translate(44.2709,116.4402)"
       id="g74816">
      <path
         transform="scale(0.002,-0.002)"
         d="M 129,129 H 259 C 259,77 291,29 340,29 350,29 354,21 354,14 354,7 350,0 340,0 291,0 243,14 194,14 145,14 98,0 49,0 39,0 34,7 34,14 c 0,7 5,15 15,15 49,0 80,48 80,100 z M 0,250 129,500 c 3,7 13,3 21,0 14,-6 28,-14 44,-14 16,0 31,8 45,14 2,1 2,1 4,1 8,0 16,-9 16,-21 V 129 H 129 v 215 c 0,15 -11,23 -20,23 -5,0 -9,-2 -11,-7 L 32,233 c -4,-7 -9,-9 -15,-9 -9,0 -19,7 -19,17 0,3 0,6 2,9 z"
         fill="currentColor"
         id="path74814" />
    </g>
  </a>
  <g
     transform="translate(37.0898,8.2717042)"
     id="g74822">
    <rect
       x="-0.062799998"
       y="-4.5756001"
       width="0.12549999"
       height="2.1640999"
       ry="0.039999999"
       fill="currentColor"
       id="rect74820" />
  </g>
  <a
     style="color:inherit"
     xlink:href="textedit://C:/Users/Javier/Documents/lilypond%20scores/ricci%20left%20hand%20examples.ly:791:11:12"
     id="a74828"
     transform="translate(-5.6906,-114.8614)">
    <g
       transform="translate(41.6706,120.8831)"
       id="g74826">
      <path
         transform="scale(0.0036,-0.0036)"
         d="m 215,137 c 57,0 111,-29 111,-92 0,-71 -54,-120 -101,-148 -35,-21 -74,-34 -114,-34 -57,0 -111,29 -111,92 0,71 54,120 101,148 35,21 74,34 114,34 z"
         fill="currentColor"
         id="path74824" />
    </g>
  </a>
  <g
     transform="translate(49.4524,8.2717042)"
     id="g74832">
    <rect
       x="-0.062799998"
       y="-5.6357999"
       width="0.12549999"
       height="2.7744"
       ry="0.039999999"
       fill="currentColor"
       id="rect74830" />
  </g>
  <a
     style="color:inherit"
     xlink:href="textedit://C:/Users/Javier/Documents/lilypond%20scores/ricci%20left%20hand%20examples.ly:791:30:31"
     id="a74838"
     transform="translate(-5.6906,-114.8614)">
    <g
       transform="translate(54.2781,115.8614)"
       id="g74836">
      <path
         transform="scale(0.002,-0.002)"
         d="m 155,471 c -34,0 -70,-8 -70,-38 0,-19 31,-23 31,-42 0,-28 -23,-51 -51,-51 -28,0 -51,23 -51,51 0,67 68,109 141,109 93,0 174,-31 174,-113 0,-41 -6,-77 -42,-94 -11,-5 -17,-16 -17,-27 0,-11 6,-22 17,-27 40,-19 59,-53 59,-98 C 346,47 263,0 160,0 78,0 0,45 0,119 c 0,32 26,58 58,58 32,0 58,-26 58,-58 0,-22 -36,-26 -36,-48 0,-33 42,-42 80,-42 46,0 56,58 56,112 v 38 c 0,40 -4,69 -43,69 H 99 c -12,0 -18,9 -18,18 0,9 6,18 18,18 h 74 c 40,0 43,31 43,73 v 30 c 0,50 -16,84 -61,84 z"
         fill="currentColor"
         id="path74834" />
    </g>
  </a>
  <a
     style="color:inherit"
     xlink:href="textedit://C:/Users/Javier/Documents/lilypond%20scores/ricci%20left%20hand%20examples.ly:791:29:30"
     id="a74844"
     transform="translate(-5.6906,-114.8614)">
    <g
       transform="translate(54.0332,120.4331)"
       id="g74842">
      <path
         transform="scale(0.0036,-0.0036)"
         d="m 215,137 c 57,0 111,-29 111,-92 0,-71 -54,-120 -101,-148 -35,-21 -74,-34 -114,-34 -57,0 -111,29 -111,92 0,71 54,120 101,148 35,21 74,34 114,34 z"
         fill="currentColor"
         id="path74840" />
    </g>
  </a>
  <a
     style="color:inherit"
     xlink:href="textedit://C:/Users/Javier/Documents/lilypond%20scores/ricci%20left%20hand%20examples.ly:791:15:16"
     id="a74850"
     transform="translate(-5.6906,-114.8614)">
    <g
       transform="translate(44.0431,121.3331)"
       id="g74848">
      <path
         transform="scale(0.0036,-0.0036)"
         d="m 215,137 c 57,0 111,-29 111,-92 0,-71 -54,-120 -101,-148 -35,-21 -74,-34 -114,-34 -57,0 -111,29 -111,92 0,71 54,120 101,148 35,21 74,34 114,34 z"
         fill="currentColor"
         id="path74846" />
    </g>
  </a>
  <g
     transform="translate(47.0799,8.2717042)"
     id="g74854">
    <rect
       x="-0.062799998"
       y="-5.4464998"
       width="0.12549999"
       height="2.1350999"
       ry="0.039999999"
       fill="currentColor"
       id="rect74852" />
  </g>
  <a
     style="color:inherit"
     xlink:href="textedit://C:/Users/Javier/Documents/lilypond%20scores/ricci%20left%20hand%20examples.ly:791:27:28"
     id="a74860"
     transform="translate(-5.6906,-114.8614)">
    <g
       transform="translate(51.6607,119.9831)"
       id="g74858">
      <path
         transform="scale(0.0036,-0.0036)"
         d="m 215,137 c 57,0 111,-29 111,-92 0,-71 -54,-120 -101,-148 -35,-21 -74,-34 -114,-34 -57,0 -111,29 -111,92 0,71 54,120 101,148 35,21 74,34 114,34 z"
         fill="currentColor"
         id="path74856" />
    </g>
  </a>
  <g
     transform="translate(44.4573,8.2717042)"
     id="g74864">
    <rect
       x="-0.062799998"
       y="-5.2372999"
       width="0.12549999"
       height="2.8259001"
       ry="0.039999999"
       fill="currentColor"
       id="rect74862" />
  </g>
  <a
     style="color:inherit"
     xlink:href="textedit://C:/Users/Javier/Documents/lilypond%20scores/ricci%20left%20hand%20examples.ly:791:23:24"
     id="a74870"
     transform="translate(-5.6906,-114.8614)">
    <g
       transform="translate(49.0382,120.8831)"
       id="g74868">
      <path
         transform="scale(0.0036,-0.0036)"
         d="m 215,137 c 57,0 111,-29 111,-92 0,-71 -54,-120 -101,-148 -35,-21 -74,-34 -114,-34 -57,0 -111,29 -111,92 0,71 54,120 101,148 35,21 74,34 114,34 z"
         fill="currentColor"
         id="path74866" />
    </g>
  </a>
  <a
     style="color:inherit"
     xlink:href="textedit://C:/Users/Javier/Documents/lilypond%20scores/ricci%20left%20hand%20examples.ly:791:8:9"
     id="a74876"
     transform="translate(-5.6906,-114.8614)">
    <g
       transform="translate(38.447,121.7831)"
       id="g74874">
      <path
         transform="scale(0.0036,-0.0036)"
         d="m 215,137 c 57,0 111,-29 111,-92 0,-71 -54,-120 -101,-148 -35,-21 -74,-34 -114,-34 -57,0 -111,29 -111,92 0,71 54,120 101,148 35,21 74,34 114,34 z"
         fill="currentColor"
         id="path74872" />
    </g>
  </a>
  <g
     transform="translate(33.8662,8.2717042)"
     id="g74880">
    <rect
       x="-0.062799998"
       y="-4.3369002"
       width="0.12549999"
       height="2.8255"
       ry="0.039999999"
       fill="currentColor"
       id="rect74878" />
  </g>
  <a
     style="color:inherit"
     xlink:href="textedit://C:/Users/Javier/Documents/lilypond%20scores/ricci%20left%20hand%20examples.ly:797:11:12"
     id="a74886"
     transform="translate(-5.6906,-114.8614)">
    <g
       transform="translate(39.6195,121.7831)"
       id="g74884">
      <path
         transform="scale(0.0036,-0.0036)"
         d="m 211,111 c -49,0 -68,-43 -68,-88 0,-75 57,-134 132,-134 49,0 68,43 68,88 0,75 -57,134 -132,134 z M 486,0 c 0,-43 -33,-76 -71,-97 -52,-29 -112,-40 -172,-40 -60,0 -120,11 -172,40 -38,21 -71,54 -71,97 0,43 33,76 71,97 52,29 112,40 172,40 60,0 120,-11 172,-40 38,-21 71,-54 71,-97 z"
         fill="currentColor"
         id="path74882" />
    </g>
  </a>
</svg>
