<!-- <?xml version="1.0" encoding="UTF-8" standalone="no"?> -->
<svg
   version="1.2"
   width="190mm"
   height="23.00119mm"
   viewBox="0 0 108.1205 13.088947"
   id="svg134403"
   sodipodi:docname="ricci left hand examples-6.svg"
   xmlns:inkscape="http://www.inkscape.org/namespaces/inkscape"
   xmlns:sodipodi="http://sodipodi.sourceforge.net/DTD/sodipodi-0.dtd"
   xmlns:xlink="http://www.w3.org/1999/xlink"
   xmlns="http://www.w3.org/2000/svg"
   xmlns:svg="http://www.w3.org/2000/svg">
  <defs
     id="defs134407" />
  <sodipodi:namedview
     id="namedview134405"
     pagecolor="#ffffff"
     bordercolor="#000000"
     borderopacity="0.25"
     inkscape:showpageshadow="2"
     inkscape:pageopacity="0.0"
     inkscape:pagecheckerboard="0"
     inkscape:deskcolor="#d1d1d1"
     inkscape:document-units="mm"
     showgrid="false" />
  <style
     type="text/css"
     id="style128413"><![CDATA[
tspan { white-space: pre; }
]]></style>
  <!-- Page: 6/6 -->
  <g
     transform="translate(3.1967416e-8,10.795745)"
     id="g129515">
    <line
       stroke-linejoin="round"
       stroke-linecap="round"
       stroke-width="0.0966"
       stroke="currentColor"
       x1="0.048300002"
       y1="0"
       x2="108.0722"
       y2="0"
       id="line129513" />
  </g>
  <g
     transform="translate(3.1967416e-8,9.8957453)"
     id="g129519">
    <line
       stroke-linejoin="round"
       stroke-linecap="round"
       stroke-width="0.0966"
       stroke="currentColor"
       x1="0.048300002"
       y1="0"
       x2="108.0722"
       y2="0"
       id="line129517" />
  </g>
  <g
     transform="translate(3.1967416e-8,8.9957453)"
     id="g129523">
    <line
       stroke-linejoin="round"
       stroke-linecap="round"
       stroke-width="0.0966"
       stroke="currentColor"
       x1="0.048300002"
       y1="0"
       x2="108.0722"
       y2="0"
       id="line129521" />
  </g>
  <g
     transform="translate(3.1967416e-8,8.0957453)"
     id="g129527">
    <line
       stroke-linejoin="round"
       stroke-linecap="round"
       stroke-width="0.0966"
       stroke="currentColor"
       x1="0.048300002"
       y1="0"
       x2="108.0722"
       y2="0"
       id="line129525" />
  </g>
  <g
     transform="translate(3.1967416e-8,7.1957453)"
     id="g129531">
    <line
       stroke-linejoin="round"
       stroke-linecap="round"
       stroke-width="0.0966"
       stroke="currentColor"
       x1="0.048300002"
       y1="0"
       x2="108.0722"
       y2="0"
       id="line129529" />
  </g>
  <g
     transform="translate(3.1967416e-8,11.695745)"
     id="g129535">
    <rect
       x="100.9776"
       y="-0.0933"
       width="1.8638"
       height="0.1866"
       ry="0.0933"
       fill="currentColor"
       id="rect129533" />
  </g>
  <g
     transform="translate(3.1967416e-8,12.595745)"
     id="g129539">
    <rect
       x="100.9776"
       y="-0.0933"
       width="1.8638"
       height="0.1866"
       ry="0.0933"
       fill="currentColor"
       id="rect129537" />
  </g>
  <g
     transform="translate(3.1967416e-8,11.695745)"
     id="g129543">
    <rect
       x="97.2612"
       y="-0.0933"
       width="1.6407"
       height="0.1866"
       ry="0.0933"
       fill="currentColor"
       id="rect129541" />
  </g>
  <g
     transform="translate(3.1967416e-8,11.695745)"
     id="g129547">
    <rect
       x="94.383797"
       y="-0.0933"
       width="1.7588"
       height="0.1866"
       ry="0.0933"
       fill="currentColor"
       id="rect129545" />
  </g>
  <g
     transform="translate(3.1967416e-8,11.695745)"
     id="g129551">
    <rect
       x="92.482697"
       y="-0.0933"
       width="1.6486"
       height="0.1866"
       ry="0.0933"
       fill="currentColor"
       id="rect129549" />
  </g>
  <g
     transform="translate(3.1967416e-8,11.695745)"
     id="g129555">
    <rect
       x="89.834099"
       y="-0.0933"
       width="1.7588"
       height="0.1866"
       ry="0.0933"
       fill="currentColor"
       id="rect129553" />
  </g>
  <g
     transform="translate(3.1967416e-8,6.2957453)"
     id="g129559">
    <rect
       x="40.6078"
       y="-0.0933"
       width="1.7588"
       height="0.1866"
       ry="0.0933"
       fill="currentColor"
       id="rect129557" />
  </g>
  <g
     transform="translate(3.1967416e-8,6.2957453)"
     id="g129563">
    <rect
       x="11.5609"
       y="-0.0933"
       width="1.7588"
       height="0.1866"
       ry="0.0933"
       fill="currentColor"
       id="rect129561" />
  </g>
  <g
     transform="translate(68.9242,8.9957453)"
     id="g129567">
    <rect
       x="0"
       y="-1.8"
       width="0.18350001"
       height="3.5999999"
       ry="0.0000"
       fill="currentColor"
       id="rect129565" />
  </g>
  <g
     transform="translate(106.3767,8.5457453)"
     id="g129571">
    <path
       transform="scale(0.0036,-0.0036)"
       d="M 0,0 C 0,31 25,56 56,56 87,56 111,31 111,0 111,-31 87,-56 56,-56 25,-56 0,-31 0,0 Z"
       fill="currentColor"
       id="path129569" />
  </g>
  <g
     transform="translate(106.3767,9.4457453)"
     id="g129575">
    <path
       transform="scale(0.0036,-0.0036)"
       d="M 0,0 C 0,31 25,56 56,56 87,56 111,31 111,0 111,-31 87,-56 56,-56 25,-56 0,-31 0,0 Z"
       fill="currentColor"
       id="path129573" />
  </g>
  <g
     transform="translate(107.541,8.9957453)"
     id="g129579">
    <rect
       x="0"
       y="-1.8"
       width="0.5794"
       height="3.5999999"
       ry="0.0000"
       fill="currentColor"
       id="rect129577" />
  </g>
  <g
     transform="translate(107.0678,8.9957453)"
     id="g129583">
    <rect
       x="0"
       y="-1.8"
       width="0.18350001"
       height="3.5999999"
       ry="0.0000"
       fill="currentColor"
       id="rect129581" />
  </g>
  <g
     transform="translate(39.8773,8.9957453)"
     id="g129587">
    <rect
       x="0"
       y="-1.8"
       width="0.18350001"
       height="3.5999999"
       ry="0.0000"
       fill="currentColor"
       id="rect129585" />
  </g>
  <g
     transform="translate(99.626,8.9957453)"
     id="g129591">
    <rect
       x="0"
       y="-1.8"
       width="0.18350001"
       height="3.5999999"
       ry="0.0000"
       fill="currentColor"
       id="rect129589" />
  </g>
  <g
     transform="translate(71.1831,8.9957453)"
     id="g129595">
    <rect
       x="-0.062799998"
       y="0.67769998"
       width="0.12549999"
       height="2.6222999"
       ry="0.039999999"
       fill="currentColor"
       id="rect129593" />
  </g>
  <a
     style="color:inherit"
     xlink:href="textedit://C:/Users/Javier/Documents/lilypond%20scores/ricci%20left%20hand%20examples.ly:881:7:8"
     id="a129601"
     transform="translate(-5.6906,-38.873455)">
    <g
       transform="translate(75.6384,48.3192)"
       id="g129599">
      <path
         transform="scale(0.0036,-0.0036)"
         d="m 215,137 c 57,0 111,-29 111,-92 0,-71 -54,-120 -101,-148 -35,-21 -74,-34 -114,-34 -57,0 -111,29 -111,92 0,71 54,120 101,148 35,21 74,34 114,34 z"
         fill="currentColor"
         id="path129597" />
    </g>
  </a>
  <a
     style="color:inherit"
     xlink:href="textedit://C:/Users/Javier/Documents/lilypond%20scores/ricci%20left%20hand%20examples.ly:881:9:10"
     id="a129607"
     transform="translate(-5.6906,-38.873455)">
    <g
       transform="translate(75.7978,44.9566)"
       id="g129605">
      <path
         transform="scale(0.002,-0.002)"
         d="m 198,284 c 24,15 48,29 65,52 12,16 19,34 28,52 2,5 6,7 11,7 8,0 16,-6 16,-17 V 161 h 79 c 12,0 18,-9 18,-18 0,-9 -6,-18 -18,-18 h -79 c 2,-51 33,-96 80,-96 10,0 15,-8 15,-15 C 413,7 408,0 398,0 349,0 302,14 253,14 204,14 156,0 107,0 97,0 93,7 93,14 c 0,7 4,15 14,15 47,0 79,45 81,96 H 36 c -29,0 -38,17 -38,28 0,3 1,6 2,8 78,88 123,201 123,319 0,11 8,21 17,21 1,0 3,-1 4,-1 25,-7 50,-14 76,-14 26,0 52,7 77,14 2,1 4,1 6,1 10,0 17,-7 17,-14 0,-2 0,-5 -2,-7 L 36,161 h 152 v 96 c 0,10 1,21 10,27 z"
         fill="currentColor"
         id="path129603" />
    </g>
  </a>
  <a
     style="color:inherit"
     xlink:href="textedit://C:/Users/Javier/Documents/lilypond%20scores/ricci%20left%20hand%20examples.ly:885:17:18"
     id="a129613"
     transform="translate(-5.6906,-38.873455)">
    <g
       transform="translate(76.8109,48.3192)"
       id="g129611">
      <path
         transform="scale(0.0036,-0.0036)"
         d="m 312,64 c 0,24 -20,41 -41,41 -4,0 -8,-1 -12,-2 C 229,94 182,65 146,41 110,17 63,-13 43,-37 36,-45 33,-54 33,-64 c 0,-24 20,-41 41,-41 4,0 8,1 12,2 30,9 77,38 113,62 36,24 83,54 103,78 7,8 10,17 10,27 z m -53,73 c 48,0 86,-22 86,-74 0,-18 -4,-38 -10,-56 -12,-38 -30,-73 -63,-95 -53,-36 -113,-49 -186,-49 -48,0 -86,22 -86,74 0,18 4,38 10,56 12,38 31,73 64,95 53,36 112,49 185,49 z"
         fill="currentColor"
         id="path129609" />
    </g>
  </a>
  <g
     transform="translate(71.0575,8.9957453)"
     id="g129617">
    <rect
       x="-0.062799998"
       y="-2.2465999"
       width="0.12549999"
       height="2.5352001"
       ry="0.039999999"
       fill="currentColor"
       id="rect129615" />
  </g>
  <g
     transform="translate(72.7642,9.4457453)"
     id="g129621">
    <path
       transform="scale(0.0036,-0.0036)"
       d="M 0,0 C 0,31 25,56 56,56 87,56 111,31 111,0 111,-31 87,-56 56,-56 25,-56 0,-31 0,0 Z"
       fill="currentColor"
       id="path129619" />
  </g>
  <g
     transform="translate(65.7128,8.9957453)"
     id="g129625">
    <path
       transform="scale(0.0036,-0.0036)"
       d="m 29,39 -2,-64 v -11 c 0,-22 2,-43 5,-65 44,38 91,80 91,138 0,33 -13,66 -42,66 C 50,103 30,72 29,39 Z m -57,415 c 9,5 18,8 28,8 10,0 19,-3 28,-8 L 21,111 c 25,23 58,36 92,36 51,0 87,-49 87,-103 0,-79 -84,-117 -144,-169 -16,-14 -25,-41 -47,-41 -14,0 -25,13 -25,27 z"
       fill="currentColor"
       id="path129623" />
  </g>
  <g
     transform="translate(67.8925,8.9957453)"
     id="g129629">
    <rect
       x="-0.062799998"
       y="-3.1524"
       width="0.12549999"
       height="2.9909999"
       ry="0.039999999"
       fill="currentColor"
       id="rect129627" />
  </g>
  <a
     style="color:inherit"
     xlink:href="textedit://C:/Users/Javier/Documents/lilypond%20scores/ricci%20left%20hand%20examples.ly:880:70:71"
     id="a129635"
     transform="translate(-5.6906,-38.873455)">
    <g
       transform="translate(72.6328,43.3905)"
       id="g129633">
      <path
         transform="scale(0.002,-0.002)"
         d="m 198,284 c 24,15 48,29 65,52 12,16 19,34 28,52 2,5 6,7 11,7 8,0 16,-6 16,-17 V 161 h 79 c 12,0 18,-9 18,-18 0,-9 -6,-18 -18,-18 h -79 c 2,-51 33,-96 80,-96 10,0 15,-8 15,-15 C 413,7 408,0 398,0 349,0 302,14 253,14 204,14 156,0 107,0 97,0 93,7 93,14 c 0,7 4,15 14,15 47,0 79,45 81,96 H 36 c -29,0 -38,17 -38,28 0,3 1,6 2,8 78,88 123,201 123,319 0,11 8,21 17,21 1,0 3,-1 4,-1 25,-7 50,-14 76,-14 26,0 52,7 77,14 2,1 4,1 6,1 10,0 17,-7 17,-14 0,-2 0,-5 -2,-7 L 36,161 h 152 v 96 c 0,10 1,21 10,27 z"
         fill="currentColor"
         id="path129631" />
    </g>
  </a>
  <a
     style="color:inherit"
     xlink:href="textedit://C:/Users/Javier/Documents/lilypond%20scores/ricci%20left%20hand%20examples.ly:880:72:73"
     id="a129641"
     transform="translate(-5.6906,-38.873455)">
    <g
       transform="translate(72.7011,41.9162)"
       id="g129639">
      <path
         transform="scale(0.002,-0.002)"
         d="M 129,129 H 259 C 259,77 291,29 340,29 350,29 354,21 354,14 354,7 350,0 340,0 291,0 243,14 194,14 145,14 98,0 49,0 39,0 34,7 34,14 c 0,7 5,15 15,15 49,0 80,48 80,100 z M 0,250 129,500 c 3,7 13,3 21,0 14,-6 28,-14 44,-14 16,0 31,8 45,14 2,1 2,1 4,1 8,0 16,-9 16,-21 V 129 H 129 v 215 c 0,15 -11,23 -20,23 -5,0 -9,-2 -11,-7 L 32,233 c -4,-7 -9,-9 -15,-9 -9,0 -19,7 -19,17 0,3 0,6 2,9 z"
         fill="currentColor"
         id="path129637" />
    </g>
  </a>
  <a
     style="color:inherit"
     xlink:href="textedit://C:/Users/Javier/Documents/lilypond%20scores/ricci%20left%20hand%20examples.ly:880:66:67"
     id="a129647"
     transform="translate(-5.6906,-38.873455)">
    <g
       transform="translate(72.4734,47.8692)"
       id="g129645">
      <path
         transform="scale(0.0036,-0.0036)"
         d="m 215,137 c 57,0 111,-29 111,-92 0,-71 -54,-120 -101,-148 -35,-21 -74,-34 -114,-34 -57,0 -111,29 -111,92 0,71 54,120 101,148 35,21 74,34 114,34 z"
         fill="currentColor"
         id="path129643" />
    </g>
  </a>
  <g
     transform="translate(77.2137,8.9957453)"
     id="g129651">
    <rect
       x="-0.062799998"
       y="-1.9125"
       width="0.12549999"
       height="2.6510999"
       ry="0.039999999"
       fill="currentColor"
       id="rect129649" />
  </g>
  <a
     style="color:inherit"
     xlink:href="textedit://C:/Users/Javier/Documents/lilypond%20scores/ricci%20left%20hand%20examples.ly:881:17:18"
     id="a129657"
     transform="translate(-5.6906,-38.873455)">
    <g
       transform="translate(82.0052,44.2948)"
       id="g129655">
      <path
         transform="scale(0.002,-0.002)"
         d="m 129,149 h 7 c 36,0 74,-13 111,-40 19,-14 40,-21 59,-21 22,0 40,10 46,31 2,7 7,11 13,11 7,0 15,-5 15,-14 v -5 C 361,40 296,0 234,0 196,0 159,15 133,47 121,62 105,69 89,69 60,69 32,48 29,13 28,4 22,0 15,0 8,0 0,5 0,14 c 0,173 233,163 233,341 0,56 -14,116 -62,116 -33,0 -66,-15 -66,-44 0,-24 31,-37 31,-61 0,-34 -27,-61 -61,-61 -34,0 -61,27 -61,61 0,78 74,134 157,134 98,0 191,-55 191,-145 C 362,211 227,199 129,149 Z"
         fill="currentColor"
         id="path129653" />
    </g>
  </a>
  <a
     style="color:inherit"
     xlink:href="textedit://C:/Users/Javier/Documents/lilypond%20scores/ricci%20left%20hand%20examples.ly:881:16:17"
     id="a129663"
     transform="translate(-5.6906,-38.873455)">
    <g
       transform="translate(81.7945,48.7692)"
       id="g129661">
      <path
         transform="scale(0.0036,-0.0036)"
         d="m 215,137 c 57,0 111,-29 111,-92 0,-71 -54,-120 -101,-148 -35,-21 -74,-34 -114,-34 -57,0 -111,29 -111,92 0,71 54,120 101,148 35,21 74,34 114,34 z"
         fill="currentColor"
         id="path129659" />
    </g>
  </a>
  <g
     transform="translate(74.6753,8.9957453)"
     id="g129667">
    <rect
       x="-0.062799998"
       y="-2.0502999"
       width="0.12549999"
       height="2.7888999"
       ry="0.039999999"
       fill="currentColor"
       id="rect129665" />
  </g>
  <a
     style="color:inherit"
     xlink:href="textedit://C:/Users/Javier/Documents/lilypond%20scores/ricci%20left%20hand%20examples.ly:881:12:13"
     id="a129673"
     transform="translate(-5.6906,-38.873455)">
    <g
       transform="translate(79.2562,48.7692)"
       id="g129671">
      <path
         transform="scale(0.0036,-0.0036)"
         d="m 215,137 c 57,0 111,-29 111,-92 0,-71 -54,-120 -101,-148 -35,-21 -74,-34 -114,-34 -57,0 -111,29 -111,92 0,71 54,120 101,148 35,21 74,34 114,34 z"
         fill="currentColor"
         id="path129669" />
    </g>
  </a>
  <g
     transform="translate(60.5836,8.9957453)"
     id="g129677">
    <rect
       x="-0.062799998"
       y="-3.4298999"
       width="0.12549999"
       height="2.8185"
       ry="0.039999999"
       fill="currentColor"
       id="rect129675" />
  </g>
  <a
     style="color:inherit"
     xlink:href="textedit://C:/Users/Javier/Documents/lilypond%20scores/ricci%20left%20hand%20examples.ly:880:49:50"
     id="a129683"
     transform="translate(-5.6906,-38.873455)">
    <g
       transform="translate(65.3239,43.7733)"
       id="g129681">
      <path
         transform="scale(0.002,-0.002)"
         d="m 198,284 c 24,15 48,29 65,52 12,16 19,34 28,52 2,5 6,7 11,7 8,0 16,-6 16,-17 V 161 h 79 c 12,0 18,-9 18,-18 0,-9 -6,-18 -18,-18 h -79 c 2,-51 33,-96 80,-96 10,0 15,-8 15,-15 C 413,7 408,0 398,0 349,0 302,14 253,14 204,14 156,0 107,0 97,0 93,7 93,14 c 0,7 4,15 14,15 47,0 79,45 81,96 H 36 c -29,0 -38,17 -38,28 0,3 1,6 2,8 78,88 123,201 123,319 0,11 8,21 17,21 1,0 3,-1 4,-1 25,-7 50,-14 76,-14 26,0 52,7 77,14 2,1 4,1 6,1 10,0 17,-7 17,-14 0,-2 0,-5 -2,-7 L 36,161 h 152 v 96 c 0,10 1,21 10,27 z"
         fill="currentColor"
         id="path129679" />
    </g>
  </a>
  <a
     style="color:inherit"
     xlink:href="textedit://C:/Users/Javier/Documents/lilypond%20scores/ricci%20left%20hand%20examples.ly:880:51:52"
     id="a129689"
     transform="translate(-5.6906,-38.873455)">
    <g
       transform="translate(65.3751,42.0182)"
       id="g129687">
      <path
         transform="scale(0.002,-0.002)"
         d="m 129,149 h 7 c 36,0 74,-13 111,-40 19,-14 40,-21 59,-21 22,0 40,10 46,31 2,7 7,11 13,11 7,0 15,-5 15,-14 v -5 C 361,40 296,0 234,0 196,0 159,15 133,47 121,62 105,69 89,69 60,69 32,48 29,13 28,4 22,0 15,0 8,0 0,5 0,14 c 0,173 233,163 233,341 0,56 -14,116 -62,116 -33,0 -66,-15 -66,-44 0,-24 31,-37 31,-61 0,-34 -27,-61 -61,-61 -34,0 -61,27 -61,61 0,78 74,134 157,134 98,0 191,-55 191,-145 C 362,211 227,199 129,149 Z"
         fill="currentColor"
         id="path129685" />
    </g>
  </a>
  <a
     style="color:inherit"
     xlink:href="textedit://C:/Users/Javier/Documents/lilypond%20scores/ricci%20left%20hand%20examples.ly:880:46:47"
     id="a129695"
     transform="translate(-5.6906,-38.873455)">
    <g
       transform="translate(65.1645,47.4192)"
       id="g129693">
      <path
         transform="scale(0.0036,-0.0036)"
         d="m 215,137 c 57,0 111,-29 111,-92 0,-71 -54,-120 -101,-148 -35,-21 -74,-34 -114,-34 -57,0 -111,29 -111,92 0,71 54,120 101,148 35,21 74,34 114,34 z"
         fill="currentColor"
         id="path129691" />
    </g>
  </a>
  <g
     transform="translate(56.4967,8.0957453)"
     id="g129699">
    <path
       transform="scale(0.0036,-0.0036)"
       d="m -8,375 c 8,5 17,7 26,7 9,0 18,-2 26,-7 l -3,-187 104,21 h 4 c 10,0 18,-8 18,-18 l 7,-566 c -8,-5 -16,-7 -25,-7 -9,0 -18,2 -26,7 l 2,187 -103,-21 h -4 c -10,0 -18,8 -18,18 z M 130,111 40,93 l -3,-204 90,18 z"
       fill="currentColor"
       id="path129697" />
  </g>
  <g
     transform="translate(58.5722,8.9957453)"
     id="g129703">
    <rect
       x="-0.062799998"
       y="-3.7723999"
       width="0.12549999"
       height="2.711"
       ry="0.039999999"
       fill="currentColor"
       id="rect129701" />
  </g>
  <a
     style="color:inherit"
     xlink:href="textedit://C:/Users/Javier/Documents/lilypond%20scores/ricci%20left%20hand%20examples.ly:880:41:42"
     id="a129709"
     transform="translate(-5.6906,-38.873455)">
    <g
       transform="translate(63.3126,43.4308)"
       id="g129707">
      <path
         transform="scale(0.002,-0.002)"
         d="m 198,284 c 24,15 48,29 65,52 12,16 19,34 28,52 2,5 6,7 11,7 8,0 16,-6 16,-17 V 161 h 79 c 12,0 18,-9 18,-18 0,-9 -6,-18 -18,-18 h -79 c 2,-51 33,-96 80,-96 10,0 15,-8 15,-15 C 413,7 408,0 398,0 349,0 302,14 253,14 204,14 156,0 107,0 97,0 93,7 93,14 c 0,7 4,15 14,15 47,0 79,45 81,96 H 36 c -29,0 -38,17 -38,28 0,3 1,6 2,8 78,88 123,201 123,319 0,11 8,21 17,21 1,0 3,-1 4,-1 25,-7 50,-14 76,-14 26,0 52,7 77,14 2,1 4,1 6,1 10,0 17,-7 17,-14 0,-2 0,-5 -2,-7 L 36,161 h 152 v 96 c 0,10 1,21 10,27 z"
         fill="currentColor"
         id="path129705" />
    </g>
  </a>
  <a
     style="color:inherit"
     xlink:href="textedit://C:/Users/Javier/Documents/lilypond%20scores/ricci%20left%20hand%20examples.ly:880:43:44"
     id="a129715"
     transform="translate(-5.6906,-38.873455)">
    <g
       transform="translate(63.3979,41.7878)"
       id="g129713">
      <path
         transform="scale(0.002,-0.002)"
         d="m 155,471 c -34,0 -70,-8 -70,-38 0,-19 31,-23 31,-42 0,-28 -23,-51 -51,-51 -28,0 -51,23 -51,51 0,67 68,109 141,109 93,0 174,-31 174,-113 0,-41 -6,-77 -42,-94 -11,-5 -17,-16 -17,-27 0,-11 6,-22 17,-27 40,-19 59,-53 59,-98 C 346,47 263,0 160,0 78,0 0,45 0,119 c 0,32 26,58 58,58 32,0 58,-26 58,-58 0,-22 -36,-26 -36,-48 0,-33 42,-42 80,-42 46,0 56,58 56,112 v 38 c 0,40 -4,69 -43,69 H 99 c -12,0 -18,9 -18,18 0,9 6,18 18,18 h 74 c 40,0 43,31 43,73 v 30 c 0,50 -16,84 -61,84 z"
         fill="currentColor"
         id="path129711" />
    </g>
  </a>
  <a
     style="color:inherit"
     xlink:href="textedit://C:/Users/Javier/Documents/lilypond%20scores/ricci%20left%20hand%20examples.ly:880:40:41"
     id="a129721"
     transform="translate(-5.6906,-38.873455)">
    <g
       transform="translate(63.1531,46.9692)"
       id="g129719">
      <path
         transform="scale(0.0036,-0.0036)"
         d="m 215,137 c 57,0 111,-29 111,-92 0,-71 -54,-120 -101,-148 -35,-21 -74,-34 -114,-34 -57,0 -111,29 -111,92 0,71 54,120 101,148 35,21 74,34 114,34 z"
         fill="currentColor"
         id="path129717" />
    </g>
  </a>
  <g
     transform="translate(53.5842,8.0957453)"
     id="g129725">
    <path
       transform="scale(0.0036,-0.0036)"
       d="m 217,-311 c 0,-11 -8,-19 -19,-19 -11,0 -20,8 -20,19 v 142 l -81,-30 v -156 c 0,-11 -9,-20 -20,-20 -11,0 -19,9 -19,20 v 142 l -28,-11 c -3,-1 -5,-1 -8,-1 -12,0 -22,10 -22,23 v 57 c 0,9 6,18 15,21 l 43,16 V 49 L 30,39 C 27,38 25,38 22,38 10,38 0,47 0,60 v 57 c 0,9 6,18 15,21 l 43,16 v 157 c 0,11 8,19 19,19 11,0 20,-8 20,-19 V 169 l 81,30 v 156 c 0,11 9,20 20,20 11,0 19,-9 19,-20 V 213 l 28,11 c 3,1 5,1 8,1 12,0 22,-10 22,-23 v -57 c 0,-9 -6,-18 -15,-21 L 217,108 V -49 l 28,10 c 3,1 5,1 8,1 12,0 22,-9 22,-22 v -57 c 0,-9 -6,-18 -15,-21 l -43,-16 z M 97,64 V -94 l 81,30 V 94 Z"
       fill="currentColor"
       id="path129723" />
  </g>
  <a
     style="color:inherit"
     xlink:href="textedit://C:/Users/Javier/Documents/lilypond%20scores/ricci%20left%20hand%20examples.ly:878:13:14"
     id="a129731"
     transform="translate(-5.6906,-38.873455)">
    <g
       transform="translate(17.5446,47.8692)"
       id="g129729">
      <path
         stroke-width="0.0773"
         stroke-linejoin="round"
         stroke-linecap="round"
         stroke="currentColor"
         fill="currentColor"
         d="m 1.1435,-6.0618 c 2.652,-1.4341 23.5162,0.3743 25.8819,2.2434 v 0 C 24.6497,-5.572 3.7855,-7.3805 1.1435,-6.0618 Z"
         id="path129727" />
    </g>
  </a>
  <g
     transform="translate(61.0464,8.5457453)"
     id="g129735">
    <path
       transform="scale(0.0036,-0.0036)"
       d="m -8,375 c 8,5 17,7 26,7 9,0 18,-2 26,-7 l -3,-187 104,21 h 4 c 10,0 18,-8 18,-18 l 7,-566 c -8,-5 -16,-7 -25,-7 -9,0 -18,2 -26,7 l 2,187 -103,-21 h -4 c -10,0 -18,8 -18,18 z M 130,111 40,93 l -3,-204 90,18 z"
       fill="currentColor"
       id="path129733" />
  </g>
  <g
     transform="translate(65.1333,8.9957453)"
     id="g129739">
    <rect
       x="-0.062799998"
       y="-3.2572"
       width="0.12549999"
       height="3.0957"
       ry="0.039999999"
       fill="currentColor"
       id="rect129737" />
  </g>
  <a
     style="color:inherit"
     xlink:href="textedit://C:/Users/Javier/Documents/lilypond%20scores/ricci%20left%20hand%20examples.ly:880:61:62"
     id="a129745"
     transform="translate(-5.6906,-38.873455)">
    <g
       transform="translate(69.8736,42.7117)"
       id="g129743">
      <path
         transform="scale(0.002,-0.002)"
         d="m 198,284 c 24,15 48,29 65,52 12,16 19,34 28,52 2,5 6,7 11,7 8,0 16,-6 16,-17 V 161 h 79 c 12,0 18,-9 18,-18 0,-9 -6,-18 -18,-18 h -79 c 2,-51 33,-96 80,-96 10,0 15,-8 15,-15 C 413,7 408,0 398,0 349,0 302,14 253,14 204,14 156,0 107,0 97,0 93,7 93,14 c 0,7 4,15 14,15 47,0 79,45 81,96 H 36 c -29,0 -38,17 -38,28 0,3 1,6 2,8 78,88 123,201 123,319 0,11 8,21 17,21 1,0 3,-1 4,-1 25,-7 50,-14 76,-14 26,0 52,7 77,14 2,1 4,1 6,1 10,0 17,-7 17,-14 0,-2 0,-5 -2,-7 L 36,161 h 152 v 96 c 0,10 1,21 10,27 z"
         fill="currentColor"
         id="path129741" />
    </g>
  </a>
  <a
     style="color:inherit"
     xlink:href="textedit://C:/Users/Javier/Documents/lilypond%20scores/ricci%20left%20hand%20examples.ly:880:63:64"
     id="a129751"
     transform="translate(-5.6906,-38.873455)">
    <g
       transform="translate(69.9419,41.2374)"
       id="g129749">
      <path
         transform="scale(0.002,-0.002)"
         d="M 129,129 H 259 C 259,77 291,29 340,29 350,29 354,21 354,14 354,7 350,0 340,0 291,0 243,14 194,14 145,14 98,0 49,0 39,0 34,7 34,14 c 0,7 5,15 15,15 49,0 80,48 80,100 z M 0,250 129,500 c 3,7 13,3 21,0 14,-6 28,-14 44,-14 16,0 31,8 45,14 2,1 2,1 4,1 8,0 16,-9 16,-21 V 129 H 129 v 215 c 0,15 -11,23 -20,23 -5,0 -9,-2 -11,-7 L 32,233 c -4,-7 -9,-9 -15,-9 -9,0 -19,7 -19,17 0,3 0,6 2,9 z"
         fill="currentColor"
         id="path129747" />
    </g>
  </a>
  <a
     style="color:inherit"
     xlink:href="textedit://C:/Users/Javier/Documents/lilypond%20scores/ricci%20left%20hand%20examples.ly:880:60:61"
     id="a129757"
     transform="translate(-5.6906,-38.873455)">
    <g
       transform="translate(69.7141,47.8692)"
       id="g129755">
      <path
         transform="scale(0.0036,-0.0036)"
         d="m 215,137 c 57,0 111,-29 111,-92 0,-71 -54,-120 -101,-148 -35,-21 -74,-34 -114,-34 -57,0 -111,29 -111,92 0,71 54,120 101,148 35,21 74,34 114,34 z"
         fill="currentColor"
         id="path129753" />
    </g>
  </a>
  <g
     transform="translate(63.1219,8.9957453)"
     id="g129761">
    <rect
       x="-0.062799998"
       y="-3.3334999"
       width="0.12549999"
       height="2.7221"
       ry="0.039999999"
       fill="currentColor"
       id="rect129759" />
  </g>
  <a
     style="color:inherit"
     xlink:href="textedit://C:/Users/Javier/Documents/lilypond%20scores/ricci%20left%20hand%20examples.ly:880:55:56"
     id="a129767"
     transform="translate(-5.6906,-38.873455)">
    <g
       transform="translate(67.8623,42.3654)"
       id="g129765">
      <path
         transform="scale(0.002,-0.002)"
         d="m 198,284 c 24,15 48,29 65,52 12,16 19,34 28,52 2,5 6,7 11,7 8,0 16,-6 16,-17 V 161 h 79 c 12,0 18,-9 18,-18 0,-9 -6,-18 -18,-18 h -79 c 2,-51 33,-96 80,-96 10,0 15,-8 15,-15 C 413,7 408,0 398,0 349,0 302,14 253,14 204,14 156,0 107,0 97,0 93,7 93,14 c 0,7 4,15 14,15 47,0 79,45 81,96 H 36 c -29,0 -38,17 -38,28 0,3 1,6 2,8 78,88 123,201 123,319 0,11 8,21 17,21 1,0 3,-1 4,-1 25,-7 50,-14 76,-14 26,0 52,7 77,14 2,1 4,1 6,1 10,0 17,-7 17,-14 0,-2 0,-5 -2,-7 L 36,161 h 152 v 96 c 0,10 1,21 10,27 z"
         fill="currentColor"
         id="path129763" />
    </g>
  </a>
  <a
     style="color:inherit"
     xlink:href="textedit://C:/Users/Javier/Documents/lilypond%20scores/ricci%20left%20hand%20examples.ly:880:57:58"
     id="a129773"
     transform="translate(-5.6906,-38.873455)">
    <g
       transform="translate(67.9135,40.8911)"
       id="g129771">
      <path
         transform="scale(0.002,-0.002)"
         d="m 129,149 h 7 c 36,0 74,-13 111,-40 19,-14 40,-21 59,-21 22,0 40,10 46,31 2,7 7,11 13,11 7,0 15,-5 15,-14 v -5 C 361,40 296,0 234,0 196,0 159,15 133,47 121,62 105,69 89,69 60,69 32,48 29,13 28,4 22,0 15,0 8,0 0,5 0,14 c 0,173 233,163 233,341 0,56 -14,116 -62,116 -33,0 -66,-15 -66,-44 0,-24 31,-37 31,-61 0,-34 -27,-61 -61,-61 -34,0 -61,27 -61,61 0,78 74,134 157,134 98,0 191,-55 191,-145 C 362,211 227,199 129,149 Z"
         fill="currentColor"
         id="path129769" />
    </g>
  </a>
  <a
     style="color:inherit"
     xlink:href="textedit://C:/Users/Javier/Documents/lilypond%20scores/ricci%20left%20hand%20examples.ly:880:54:55"
     id="a129779"
     transform="translate(-5.6906,-38.873455)">
    <g
       transform="translate(67.7028,47.4192)"
       id="g129777">
      <path
         transform="scale(0.0036,-0.0036)"
         d="m 215,137 c 57,0 111,-29 111,-92 0,-71 -54,-120 -101,-148 -35,-21 -74,-34 -114,-34 -57,0 -111,29 -111,92 0,71 54,120 101,148 35,21 74,34 114,34 z"
         fill="currentColor"
         id="path129775" />
    </g>
  </a>
  <a
     style="color:inherit"
     xlink:href="textedit://C:/Users/Javier/Documents/lilypond%20scores/ricci%20left%20hand%20examples.ly:888:7:8"
     id="a129785"
     transform="translate(-5.6906,-38.873455)">
    <g
       transform="translate(106.9788,51.4692)"
       id="g129783">
      <path
         transform="scale(0.0036,-0.0036)"
         d="m 312,64 c 0,24 -20,41 -41,41 -4,0 -8,-1 -12,-2 C 229,94 182,65 146,41 110,17 63,-13 43,-37 36,-45 33,-54 33,-64 c 0,-24 20,-41 41,-41 4,0 8,1 12,2 30,9 77,38 113,62 36,24 83,54 103,78 7,8 10,17 10,27 z m -53,73 c 48,0 86,-22 86,-74 0,-18 -4,-38 -10,-56 -12,-38 -30,-73 -63,-95 -53,-36 -113,-49 -186,-49 -48,0 -86,22 -86,74 0,18 4,38 10,56 12,38 31,73 64,95 53,36 112,49 185,49 z"
         fill="currentColor"
         id="path129781" />
    </g>
  </a>
  <a
     style="color:inherit"
     xlink:href="textedit://C:/Users/Javier/Documents/lilypond%20scores/ricci%20left%20hand%20examples.ly:888:5:6"
     id="a129791"
     transform="translate(-5.6906,-38.873455)">
    <g
       transform="translate(106.9788,48.3192)"
       id="g129789">
      <path
         transform="scale(0.0036,-0.0036)"
         d="m 312,64 c 0,24 -20,41 -41,41 -4,0 -8,-1 -12,-2 C 229,94 182,65 146,41 110,17 63,-13 43,-37 36,-45 33,-54 33,-64 c 0,-24 20,-41 41,-41 4,0 8,1 12,2 30,9 77,38 113,62 36,24 83,54 103,78 7,8 10,17 10,27 z m -53,73 c 48,0 86,-22 86,-74 0,-18 -4,-38 -10,-56 -12,-38 -30,-73 -63,-95 -53,-36 -113,-49 -186,-49 -48,0 -86,22 -86,74 0,18 4,38 10,56 12,38 31,73 64,95 53,36 112,49 185,49 z"
         fill="currentColor"
         id="path129787" />
    </g>
  </a>
  <g
     transform="translate(96.3661,12.145745)"
     id="g129795">
    <path
       transform="scale(0.0036,-0.0036)"
       d="m 29,39 -2,-64 v -11 c 0,-22 2,-43 5,-65 44,38 91,80 91,138 0,33 -13,66 -42,66 C 50,103 30,72 29,39 Z m -57,415 c 9,5 18,8 28,8 10,0 19,-3 28,-8 L 21,111 c 25,23 58,36 92,36 51,0 87,-49 87,-103 0,-79 -84,-117 -144,-169 -16,-14 -25,-41 -47,-41 -14,0 -25,13 -25,27 z"
       fill="currentColor"
       id="path129793" />
  </g>
  <g
     transform="translate(98.5459,8.9957453)"
     id="g129799">
    <rect
       x="-0.062799998"
       y="0.1663"
       width="0.12549999"
       height="2.8223"
       ry="0.039999999"
       fill="currentColor"
       id="rect129797" />
  </g>
  <a
     style="color:inherit"
     xlink:href="textedit://C:/Users/Javier/Documents/lilypond%20scores/ricci%20left%20hand%20examples.ly:881:60:61"
     id="a129805"
     transform="translate(-5.6906,-38.873455)">
    <g
       transform="translate(103.3374,45.5709)"
       id="g129803">
      <path
         transform="scale(0.002,-0.002)"
         d="m 129,149 h 7 c 36,0 74,-13 111,-40 19,-14 40,-21 59,-21 22,0 40,10 46,31 2,7 7,11 13,11 7,0 15,-5 15,-14 v -5 C 361,40 296,0 234,0 196,0 159,15 133,47 121,62 105,69 89,69 60,69 32,48 29,13 28,4 22,0 15,0 8,0 0,5 0,14 c 0,173 233,163 233,341 0,56 -14,116 -62,116 -33,0 -66,-15 -66,-44 0,-24 31,-37 31,-61 0,-34 -27,-61 -61,-61 -34,0 -61,27 -61,61 0,78 74,134 157,134 98,0 191,-55 191,-145 C 362,211 227,199 129,149 Z"
         fill="currentColor"
         id="path129801" />
    </g>
  </a>
  <a
     style="color:inherit"
     xlink:href="textedit://C:/Users/Javier/Documents/lilypond%20scores/ricci%20left%20hand%20examples.ly:881:56:57"
     id="a129811"
     transform="translate(-5.6906,-38.873455)">
    <g
       transform="translate(103.1267,51.0192)"
       id="g129809">
      <path
         transform="scale(0.0036,-0.0036)"
         d="m 215,137 c 57,0 111,-29 111,-92 0,-71 -54,-120 -101,-148 -35,-21 -74,-34 -114,-34 -57,0 -111,29 -111,92 0,71 54,120 101,148 35,21 74,34 114,34 z"
         fill="currentColor"
         id="path129807" />
    </g>
  </a>
  <g
     transform="translate(102.9321,9.4457453)"
     id="g129815">
    <path
       transform="scale(0.0036,-0.0036)"
       d="M 0,0 C 0,31 25,56 56,56 87,56 111,31 111,0 111,-31 87,-56 56,-56 25,-56 0,-31 0,0 Z"
       fill="currentColor"
       id="path129813" />
  </g>
  <g
     transform="translate(95.7866,8.9957453)"
     id="g129819">
    <rect
       x="-0.062799998"
       y="0.1041"
       width="0.12549999"
       height="2.8845"
       ry="0.039999999"
       fill="currentColor"
       id="rect129817" />
  </g>
  <a
     style="color:inherit"
     xlink:href="textedit://C:/Users/Javier/Documents/lilypond%20scores/ricci%20left%20hand%20examples.ly:881:53:54"
     id="a129825"
     transform="translate(-5.6906,-38.873455)">
    <g
       transform="translate(100.5782,45.5709)"
       id="g129823">
      <path
         transform="scale(0.002,-0.002)"
         d="m 129,149 h 7 c 36,0 74,-13 111,-40 19,-14 40,-21 59,-21 22,0 40,10 46,31 2,7 7,11 13,11 7,0 15,-5 15,-14 v -5 C 361,40 296,0 234,0 196,0 159,15 133,47 121,62 105,69 89,69 60,69 32,48 29,13 28,4 22,0 15,0 8,0 0,5 0,14 c 0,173 233,163 233,341 0,56 -14,116 -62,116 -33,0 -66,-15 -66,-44 0,-24 31,-37 31,-61 0,-34 -27,-61 -61,-61 -34,0 -61,27 -61,61 0,78 74,134 157,134 98,0 191,-55 191,-145 C 362,211 227,199 129,149 Z"
         fill="currentColor"
         id="path129821" />
    </g>
  </a>
  <a
     style="color:inherit"
     xlink:href="textedit://C:/Users/Javier/Documents/lilypond%20scores/ricci%20left%20hand%20examples.ly:881:52:53"
     id="a129831"
     transform="translate(-5.6906,-38.873455)">
    <g
       transform="translate(100.3675,51.0192)"
       id="g129829">
      <path
         transform="scale(0.0036,-0.0036)"
         d="m 215,137 c 57,0 111,-29 111,-92 0,-71 -54,-120 -101,-148 -35,-21 -74,-34 -114,-34 -57,0 -111,29 -111,92 0,71 54,120 101,148 35,21 74,34 114,34 z"
         fill="currentColor"
         id="path129827" />
    </g>
  </a>
  <g
     transform="translate(91.6997,11.695745)"
     id="g129835">
    <path
       transform="scale(0.0036,-0.0036)"
       d="m -8,375 c 8,5 17,7 26,7 9,0 18,-2 26,-7 l -3,-187 104,21 h 4 c 10,0 18,-8 18,-18 l 7,-566 c -8,-5 -16,-7 -25,-7 -9,0 -18,2 -26,7 l 2,187 -103,-21 h -4 c -10,0 -18,8 -18,18 z M 130,111 40,93 l -3,-204 90,18 z"
       fill="currentColor"
       id="path129833" />
  </g>
  <g
     transform="translate(93.7753,8.9957453)"
     id="g129839">
    <rect
       x="-0.062799998"
       y="0.058699999"
       width="0.12549999"
       height="2.4798999"
       ry="0.039999999"
       fill="currentColor"
       id="rect129837" />
  </g>
  <a
     style="color:inherit"
     xlink:href="textedit://C:/Users/Javier/Documents/lilypond%20scores/ricci%20left%20hand%20examples.ly:881:49:50"
     id="a129845"
     transform="translate(-5.6906,-38.873455)">
    <g
       transform="translate(98.601,45.5709)"
       id="g129843">
      <path
         transform="scale(0.002,-0.002)"
         d="m 155,471 c -34,0 -70,-8 -70,-38 0,-19 31,-23 31,-42 0,-28 -23,-51 -51,-51 -28,0 -51,23 -51,51 0,67 68,109 141,109 93,0 174,-31 174,-113 0,-41 -6,-77 -42,-94 -11,-5 -17,-16 -17,-27 0,-11 6,-22 17,-27 40,-19 59,-53 59,-98 C 346,47 263,0 160,0 78,0 0,45 0,119 c 0,32 26,58 58,58 32,0 58,-26 58,-58 0,-22 -36,-26 -36,-48 0,-33 42,-42 80,-42 46,0 56,58 56,112 v 38 c 0,40 -4,69 -43,69 H 99 c -12,0 -18,9 -18,18 0,9 6,18 18,18 h 74 c 40,0 43,31 43,73 v 30 c 0,50 -16,84 -61,84 z"
         fill="currentColor"
         id="path129841" />
    </g>
  </a>
  <g
     transform="translate(11.054,1.3380453)"
     id="g129851">
    <text
       font-family="serif"
       font-weight="bold"
       font-style="italic"
       font-size="1.98px"
       text-anchor="start"
       fill="currentColor"
       id="text129849"><tspan
         id="tspan129847">8</tspan></text>
  </g>
  <g
     transform="translate(12.3441,0.68934529)"
     id="g129855">
    <line
       stroke-linejoin="round"
       stroke-linecap="round"
       stroke-width="0.0966"
       stroke="currentColor"
       x1="27.1642"
       y1="0"
       x2="27.1642"
       y2="0.80000001"
       id="line129853" />
  </g>
  <g
     transform="translate(12.3441,0.68934529)"
     id="g129859">
    <line
       stroke-linejoin="round"
       stroke-linecap="round"
       stroke-width="0.0966"
       stroke="currentColor"
       x1="0"
       y1="0"
       x2="0"
       y2="0"
       id="line129857" />
  </g>
  <g
     transform="translate(12.3441,0.68934529)"
     id="g129863">
    <line
       stroke-linejoin="round"
       stroke-linecap="round"
       stroke-width="0.0966"
       stroke="currentColor"
       x1="0"
       y1="0"
       x2="27.1642"
       y2="0"
       stroke-dasharray="0.268953, 0.627557"
       id="line129861" />
  </g>
  <g
     transform="translate(12.901,3.5957453)"
     id="g129867">
    <polygon
       stroke-linejoin="round"
       stroke-linecap="round"
       stroke-width="0.08"
       fill="currentColor"
       stroke="currentColor"
       points="6.6466,0.274 6.6466,0.626 0.04,0.176 0.04,-0.176 "
       id="polygon129865" />
  </g>
  <g
     transform="translate(12.901,4.3279453)"
     id="g129871">
    <polygon
       stroke-linejoin="round"
       stroke-linecap="round"
       stroke-width="0.08"
       fill="currentColor"
       stroke="currentColor"
       points="6.6466,0.274 6.6466,0.626 0.04,0.176 0.04,-0.176 "
       id="polygon129869" />
  </g>
  <g
     transform="translate(22.0004,4.6634453)"
     id="g129875">
    <polygon
       stroke-linejoin="round"
       stroke-linecap="round"
       stroke-width="0.08"
       fill="currentColor"
       stroke="currentColor"
       points="7.5478,0.3886 7.5478,0.7406 0.04,0.176 0.04,-0.176 "
       id="polygon129873" />
  </g>
  <g
     transform="translate(22.0004,5.3957453)"
     id="g129879">
    <polygon
       stroke-linejoin="round"
       stroke-linecap="round"
       stroke-width="0.08"
       fill="currentColor"
       stroke="currentColor"
       points="7.5478,0.3886 7.5478,0.7406 0.04,0.176 0.04,-0.176 "
       id="polygon129877" />
  </g>
  <g
     transform="translate(31.4739,5.5634453)"
     id="g129883">
    <polygon
       stroke-linejoin="round"
       stroke-linecap="round"
       stroke-width="0.08"
       fill="currentColor"
       stroke="currentColor"
       points="7.3945,0.1063 7.3945,0.4583 0.04,0.176 0.04,-0.176 "
       id="polygon129881" />
  </g>
  <g
     transform="translate(31.4739,6.2957453)"
     id="g129887">
    <polygon
       stroke-linejoin="round"
       stroke-linecap="round"
       stroke-width="0.08"
       fill="currentColor"
       stroke="currentColor"
       points="7.3945,0.1063 7.3945,0.4583 0.04,0.176 0.04,-0.176 "
       id="polygon129885" />
  </g>
  <a
     style="color:inherit"
     xlink:href="textedit://C:/Users/Javier/Documents/lilypond%20scores/ricci%20left%20hand%20examples.ly:880:8:9"
     id="a129893"
     transform="translate(-5.6906,-38.873455)">
    <g
       transform="translate(46.5915,47.8692)"
       id="g129891">
      <path
         stroke-width="0.0773"
         stroke-linejoin="round"
         stroke-linecap="round"
         stroke="currentColor"
         fill="currentColor"
         d="m 1.1435,-6.0618 c 2.652,-1.4341 23.5162,0.3743 25.8819,2.2434 v 0 C 24.6497,-5.572 3.7855,-7.3805 1.1435,-6.0618 Z"
         id="path129889" />
    </g>
  </a>
  <g
     transform="translate(41.9479,3.5957453)"
     id="g129897">
    <polygon
       stroke-linejoin="round"
       stroke-linecap="round"
       stroke-width="0.08"
       fill="currentColor"
       stroke="currentColor"
       points="6.6466,0.274 6.6466,0.626 0.04,0.176 0.04,-0.176 "
       id="polygon129895" />
  </g>
  <g
     transform="translate(41.9479,4.3279453)"
     id="g129901">
    <polygon
       stroke-linejoin="round"
       stroke-linecap="round"
       stroke-width="0.08"
       fill="currentColor"
       stroke="currentColor"
       points="6.6466,0.274 6.6466,0.626 0.04,0.176 0.04,-0.176 "
       id="polygon129899" />
  </g>
  <g
     transform="translate(51.0473,4.6634453)"
     id="g129905">
    <polygon
       stroke-linejoin="round"
       stroke-linecap="round"
       stroke-width="0.08"
       fill="currentColor"
       stroke="currentColor"
       points="7.5478,0.3886 7.5478,0.7406 0.04,0.176 0.04,-0.176 "
       id="polygon129903" />
  </g>
  <g
     transform="translate(51.0473,5.3957453)"
     id="g129909">
    <polygon
       stroke-linejoin="round"
       stroke-linecap="round"
       stroke-width="0.08"
       fill="currentColor"
       stroke="currentColor"
       points="7.5478,0.3886 7.5478,0.7406 0.04,0.176 0.04,-0.176 "
       id="polygon129907" />
  </g>
  <g
     transform="translate(60.5208,5.5634453)"
     id="g129913">
    <polygon
       stroke-linejoin="round"
       stroke-linecap="round"
       stroke-width="0.08"
       fill="currentColor"
       stroke="currentColor"
       points="7.3945,0.1063 7.3945,0.4583 0.04,0.176 0.04,-0.176 "
       id="polygon129911" />
  </g>
  <g
     transform="translate(60.5208,6.2957453)"
     id="g129917">
    <polygon
       stroke-linejoin="round"
       stroke-linecap="round"
       stroke-width="0.08"
       fill="currentColor"
       stroke="currentColor"
       points="7.3945,0.1063 7.3945,0.4583 0.04,0.176 0.04,-0.176 "
       id="polygon129915" />
  </g>
  <a
     style="color:inherit"
     xlink:href="textedit://C:/Users/Javier/Documents/lilypond%20scores/ricci%20left%20hand%20examples.ly:881:8:9"
     id="a129923"
     transform="translate(-5.6906,-38.873455)">
    <g
       transform="translate(75.6384,47.8692)"
       id="g129921">
      <path
         stroke-width="0.0773"
         stroke-linejoin="round"
         stroke-linecap="round"
         stroke="currentColor"
         fill="currentColor"
         d="m 1.1439,-2.9126 c 2.6995,-1.4388 25.0808,0.5258 27.4884,2.4129 v 0 C 26.2146,-2.2713 3.8333,-4.2359 1.1439,-2.9126 Z"
         id="path129919" />
    </g>
  </a>
  <g
     transform="translate(70.9948,6.7457453)"
     id="g129927">
    <polygon
       stroke-linejoin="round"
       stroke-linecap="round"
       stroke-width="0.08"
       fill="currentColor"
       stroke="currentColor"
       points="8.253,0.274 8.253,0.626 0.04,0.176 0.04,-0.176 "
       id="polygon129925" />
  </g>
  <g
     transform="translate(70.9948,7.4779453)"
     id="g129931">
    <polygon
       stroke-linejoin="round"
       stroke-linecap="round"
       stroke-width="0.08"
       fill="currentColor"
       stroke="currentColor"
       points="8.253,0.274 8.253,0.626 0.04,0.176 0.04,-0.176 "
       id="polygon129929" />
  </g>
  <g
     transform="translate(81.7006,7.3634453)"
     id="g129935">
    <polygon
       stroke-linejoin="round"
       stroke-linecap="round"
       stroke-width="0.08"
       fill="currentColor"
       stroke="currentColor"
       points="7.5478,0.5563 7.5478,0.9083 0.04,0.176 0.04,-0.176 "
       id="polygon129933" />
  </g>
  <g
     transform="translate(81.7006,8.0957453)"
     id="g129939">
    <polygon
       stroke-linejoin="round"
       stroke-linecap="round"
       stroke-width="0.08"
       fill="currentColor"
       stroke="currentColor"
       points="7.5478,0.5563 7.5478,0.9083 0.04,0.176 0.04,-0.176 "
       id="polygon129937" />
  </g>
  <g
     transform="translate(91.1742,8.9957453)"
     id="g129943">
    <polygon
       stroke-linejoin="round"
       stroke-linecap="round"
       stroke-width="0.08"
       fill="currentColor"
       stroke="currentColor"
       points="7.3945,-0.0083 7.3945,0.3437 0.04,0.176 0.04,-0.176 "
       id="polygon129941" />
  </g>
  <g
     transform="translate(91.1742,9.7279453)"
     id="g129947">
    <polygon
       stroke-linejoin="round"
       stroke-linecap="round"
       stroke-width="0.08"
       fill="currentColor"
       stroke="currentColor"
       points="7.3945,-0.0083 7.3945,0.3437 0.04,0.176 0.04,-0.176 "
       id="polygon129945" />
  </g>
  <a
     style="color:inherit"
     xlink:href="textedit://C:/Users/Javier/Documents/lilypond%20scores/ricci%20left%20hand%20examples.ly:881:48:49"
     id="a129953"
     transform="translate(-5.6906,-38.873455)">
    <g
       transform="translate(98.3561,50.5692)"
       id="g129951">
      <path
         transform="scale(0.0036,-0.0036)"
         d="m 215,137 c 57,0 111,-29 111,-92 0,-71 -54,-120 -101,-148 -35,-21 -74,-34 -114,-34 -57,0 -111,29 -111,92 0,71 54,120 101,148 35,21 74,34 114,34 z"
         fill="currentColor"
         id="path129949" />
    </g>
  </a>
  <g
     transform="translate(102.9321,12.145745)"
     id="g129957">
    <path
       transform="scale(0.0036,-0.0036)"
       d="M 0,0 C 0,31 25,56 56,56 87,56 111,31 111,0 111,-31 87,-56 56,-56 25,-56 0,-31 0,0 Z"
       fill="currentColor"
       id="path129955" />
  </g>
  <g
     transform="translate(102.4679,8.9957453)"
     id="g129961">
    <rect
       x="-0.062799998"
       y="-2.7"
       width="0.12549999"
       height="6.0723"
       ry="0.039999999"
       fill="currentColor"
       id="rect129959" />
  </g>
  <a
     style="color:inherit"
     xlink:href="textedit://C:/Users/Javier/Documents/lilypond%20scores/ricci%20left%20hand%20examples.ly:881:35:36"
     id="a129967"
     transform="translate(-5.6906,-38.873455)">
    <g
       transform="translate(91.4959,44.8375)"
       id="g129965">
      <path
         transform="scale(0.002,-0.002)"
         d="M 129,129 H 259 C 259,77 291,29 340,29 350,29 354,21 354,14 354,7 350,0 340,0 291,0 243,14 194,14 145,14 98,0 49,0 39,0 34,7 34,14 c 0,7 5,15 15,15 49,0 80,48 80,100 z M 0,250 129,500 c 3,7 13,3 21,0 14,-6 28,-14 44,-14 16,0 31,8 45,14 2,1 2,1 4,1 8,0 16,-9 16,-21 V 129 H 129 v 215 c 0,15 -11,23 -20,23 -5,0 -9,-2 -11,-7 L 32,233 c -4,-7 -9,-9 -15,-9 -9,0 -19,7 -19,17 0,3 0,6 2,9 z"
         fill="currentColor"
         id="path129963" />
    </g>
  </a>
  <a
     style="color:inherit"
     xlink:href="textedit://C:/Users/Javier/Documents/lilypond%20scores/ricci%20left%20hand%20examples.ly:881:32:33"
     id="a129973"
     transform="translate(-5.6906,-38.873455)">
    <g
       transform="translate(91.2681,50.1192)"
       id="g129971">
      <path
         transform="scale(0.0036,-0.0036)"
         d="m 215,137 c 57,0 111,-29 111,-92 0,-71 -54,-120 -101,-148 -35,-21 -74,-34 -114,-34 -57,0 -111,29 -111,92 0,71 54,120 101,148 35,21 74,34 114,34 z"
         fill="currentColor"
         id="path129969" />
    </g>
  </a>
  <g
     transform="translate(83.7747,8.9957453)"
     id="g129977">
    <rect
       x="-0.062799998"
       y="-1.4321001"
       width="0.12549999"
       height="3.0706999"
       ry="0.039999999"
       fill="currentColor"
       id="rect129975" />
  </g>
  <a
     style="color:inherit"
     xlink:href="textedit://C:/Users/Javier/Documents/lilypond%20scores/ricci%20left%20hand%20examples.ly:881:30:31"
     id="a129983"
     transform="translate(-5.6906,-38.873455)">
    <g
       transform="translate(88.3556,49.6692)"
       id="g129981">
      <path
         transform="scale(0.0036,-0.0036)"
         d="m 215,137 c 57,0 111,-29 111,-92 0,-71 -54,-120 -101,-148 -35,-21 -74,-34 -114,-34 -57,0 -111,29 -111,92 0,71 54,120 101,148 35,21 74,34 114,34 z"
         fill="currentColor"
         id="path129979" />
    </g>
  </a>
  <g
     transform="translate(79.6878,10.345745)"
     id="g129987">
    <path
       transform="scale(0.0036,-0.0036)"
       d="m -8,375 c 8,5 17,7 26,7 9,0 18,-2 26,-7 l -3,-187 104,21 h 4 c 10,0 18,-8 18,-18 l 7,-566 c -8,-5 -16,-7 -25,-7 -9,0 -18,2 -26,7 l 2,187 -103,-21 h -4 c -10,0 -18,8 -18,18 z M 130,111 40,93 l -3,-204 90,18 z"
       fill="currentColor"
       id="path129985" />
  </g>
  <g
     transform="translate(86.6873,8.9957453)"
     id="g129991">
    <rect
       x="-0.062799998"
       y="-1.151"
       width="0.12549999"
       height="3.2395999"
       ry="0.039999999"
       fill="currentColor"
       id="rect129989" />
  </g>
  <g
     transform="translate(81.7634,8.9957453)"
     id="g129995">
    <rect
       x="-0.062799998"
       y="-1.6262"
       width="0.12549999"
       height="2.8148"
       ry="0.039999999"
       fill="currentColor"
       id="rect129993" />
  </g>
  <a
     style="color:inherit"
     xlink:href="textedit://C:/Users/Javier/Documents/lilypond%20scores/ricci%20left%20hand%20examples.ly:881:27:28"
     id="a130001"
     transform="translate(-5.6906,-38.873455)">
    <g
       transform="translate(86.5549,44.4602)"
       id="g129999">
      <path
         transform="scale(0.002,-0.002)"
         d="m 129,149 h 7 c 36,0 74,-13 111,-40 19,-14 40,-21 59,-21 22,0 40,10 46,31 2,7 7,11 13,11 7,0 15,-5 15,-14 v -5 C 361,40 296,0 234,0 196,0 159,15 133,47 121,62 105,69 89,69 60,69 32,48 29,13 28,4 22,0 15,0 8,0 0,5 0,14 c 0,173 233,163 233,341 0,56 -14,116 -62,116 -33,0 -66,-15 -66,-44 0,-24 31,-37 31,-61 0,-34 -27,-61 -61,-61 -34,0 -61,27 -61,61 0,78 74,134 157,134 98,0 191,-55 191,-145 C 362,211 227,199 129,149 Z"
         fill="currentColor"
         id="path129997" />
    </g>
  </a>
  <a
     style="color:inherit"
     xlink:href="textedit://C:/Users/Javier/Documents/lilypond%20scores/ricci%20left%20hand%20examples.ly:881:26:27"
     id="a130007"
     transform="translate(-5.6906,-38.873455)">
    <g
       transform="translate(86.3442,49.2192)"
       id="g130005">
      <path
         transform="scale(0.0036,-0.0036)"
         d="m 215,137 c 57,0 111,-29 111,-92 0,-71 -54,-120 -101,-148 -35,-21 -74,-34 -114,-34 -57,0 -111,29 -111,92 0,71 54,120 101,148 35,21 74,34 114,34 z"
         fill="currentColor"
         id="path130003" />
    </g>
  </a>
  <g
     transform="translate(79.225,8.9957453)"
     id="g130011">
    <rect
       x="-0.062799998"
       y="-1.8034"
       width="0.12549999"
       height="2.9920001"
       ry="0.039999999"
       fill="currentColor"
       id="rect130009" />
  </g>
  <a
     style="color:inherit"
     xlink:href="textedit://C:/Users/Javier/Documents/lilypond%20scores/ricci%20left%20hand%20examples.ly:881:23:24"
     id="a130017"
     transform="translate(-5.6906,-38.873455)">
    <g
       transform="translate(84.0336,44.3415)"
       id="g130015">
      <path
         transform="scale(0.002,-0.002)"
         d="M 129,129 H 259 C 259,77 291,29 340,29 350,29 354,21 354,14 354,7 350,0 340,0 291,0 243,14 194,14 145,14 98,0 49,0 39,0 34,7 34,14 c 0,7 5,15 15,15 49,0 80,48 80,100 z M 0,250 129,500 c 3,7 13,3 21,0 14,-6 28,-14 44,-14 16,0 31,8 45,14 2,1 2,1 4,1 8,0 16,-9 16,-21 V 129 H 129 v 215 c 0,15 -11,23 -20,23 -5,0 -9,-2 -11,-7 L 32,233 c -4,-7 -9,-9 -15,-9 -9,0 -19,7 -19,17 0,3 0,6 2,9 z"
         fill="currentColor"
         id="path130013" />
    </g>
  </a>
  <a
     style="color:inherit"
     xlink:href="textedit://C:/Users/Javier/Documents/lilypond%20scores/ricci%20left%20hand%20examples.ly:881:20:21"
     id="a130023"
     transform="translate(-5.6906,-38.873455)">
    <g
       transform="translate(83.8059,49.2192)"
       id="g130021">
      <path
         transform="scale(0.0036,-0.0036)"
         d="m 215,137 c 57,0 111,-29 111,-92 0,-71 -54,-120 -101,-148 -35,-21 -74,-34 -114,-34 -57,0 -111,29 -111,92 0,71 54,120 101,148 35,21 74,34 114,34 z"
         fill="currentColor"
         id="path130019" />
    </g>
  </a>
  <g
     transform="translate(87.15,11.245745)"
     id="g130027">
    <path
       transform="scale(0.0036,-0.0036)"
       d="m -8,375 c 8,5 17,7 26,7 9,0 18,-2 26,-7 l -3,-187 104,21 h 4 c 10,0 18,-8 18,-18 l 7,-566 c -8,-5 -16,-7 -25,-7 -9,0 -18,2 -26,7 l 2,187 -103,-21 h -4 c -10,0 -18,8 -18,18 z M 130,111 40,93 l -3,-204 90,18 z"
       fill="currentColor"
       id="path130025" />
  </g>
  <g
     transform="translate(91.2369,8.9957453)"
     id="g130031">
    <rect
       x="-0.062799998"
       y="0.0014"
       width="0.12549999"
       height="2.5372"
       ry="0.039999999"
       fill="currentColor"
       id="rect130029" />
  </g>
  <a
     style="color:inherit"
     xlink:href="textedit://C:/Users/Javier/Documents/lilypond%20scores/ricci%20left%20hand%20examples.ly:881:43:44"
     id="a130037"
     transform="translate(-5.6906,-38.873455)">
    <g
       transform="translate(96.0626,45.3434)"
       id="g130035">
      <path
         transform="scale(0.002,-0.002)"
         d="m 155,471 c -34,0 -70,-8 -70,-38 0,-19 31,-23 31,-42 0,-28 -23,-51 -51,-51 -28,0 -51,23 -51,51 0,67 68,109 141,109 93,0 174,-31 174,-113 0,-41 -6,-77 -42,-94 -11,-5 -17,-16 -17,-27 0,-11 6,-22 17,-27 40,-19 59,-53 59,-98 C 346,47 263,0 160,0 78,0 0,45 0,119 c 0,32 26,58 58,58 32,0 58,-26 58,-58 0,-22 -36,-26 -36,-48 0,-33 42,-42 80,-42 46,0 56,58 56,112 v 38 c 0,40 -4,69 -43,69 H 99 c -12,0 -18,9 -18,18 0,9 6,18 18,18 h 74 c 40,0 43,31 43,73 v 30 c 0,50 -16,84 -61,84 z"
         fill="currentColor"
         id="path130033" />
    </g>
  </a>
  <a
     style="color:inherit"
     xlink:href="textedit://C:/Users/Javier/Documents/lilypond%20scores/ricci%20left%20hand%20examples.ly:881:45:46"
     id="a130043"
     transform="translate(-5.6906,-38.873455)">
    <g
       transform="translate(95.9773,43.8691)"
       id="g130041">
      <path
         transform="scale(0.002,-0.002)"
         d="m 198,284 c 24,15 48,29 65,52 12,16 19,34 28,52 2,5 6,7 11,7 8,0 16,-6 16,-17 V 161 h 79 c 12,0 18,-9 18,-18 0,-9 -6,-18 -18,-18 h -79 c 2,-51 33,-96 80,-96 10,0 15,-8 15,-15 C 413,7 408,0 398,0 349,0 302,14 253,14 204,14 156,0 107,0 97,0 93,7 93,14 c 0,7 4,15 14,15 47,0 79,45 81,96 H 36 c -29,0 -38,17 -38,28 0,3 1,6 2,8 78,88 123,201 123,319 0,11 8,21 17,21 1,0 3,-1 4,-1 25,-7 50,-14 76,-14 26,0 52,7 77,14 2,1 4,1 6,1 10,0 17,-7 17,-14 0,-2 0,-5 -2,-7 L 36,161 h 152 v 96 c 0,10 1,21 10,27 z"
         fill="currentColor"
         id="path130039" />
    </g>
  </a>
  <a
     style="color:inherit"
     xlink:href="textedit://C:/Users/Javier/Documents/lilypond%20scores/ricci%20left%20hand%20examples.ly:881:40:41"
     id="a130049"
     transform="translate(-5.6906,-38.873455)">
    <g
       transform="translate(95.8178,50.5692)"
       id="g130047">
      <path
         transform="scale(0.0036,-0.0036)"
         d="m 215,137 c 57,0 111,-29 111,-92 0,-71 -54,-120 -101,-148 -35,-21 -74,-34 -114,-34 -57,0 -111,29 -111,92 0,71 54,120 101,148 35,21 74,34 114,34 z"
         fill="currentColor"
         id="path130045" />
    </g>
  </a>
  <g
     transform="translate(75.1381,9.8957453)"
     id="g130053">
    <path
       transform="scale(0.0036,-0.0036)"
       d="m -8,375 c 8,5 17,7 26,7 9,0 18,-2 26,-7 l -3,-187 104,21 h 4 c 10,0 18,-8 18,-18 l 7,-566 c -8,-5 -16,-7 -25,-7 -9,0 -18,2 -26,7 l 2,187 -103,-21 h -4 c -10,0 -18,8 -18,18 z M 130,111 40,93 l -3,-204 90,18 z"
       fill="currentColor"
       id="path130051" />
  </g>
  <g
     transform="translate(89.2256,8.9957453)"
     id="g130057">
    <rect
       x="-0.062799998"
       y="-0.90609998"
       width="0.12549999"
       height="2.9946001"
       ry="0.039999999"
       fill="currentColor"
       id="rect130055" />
  </g>
  <a
     style="color:inherit"
     xlink:href="textedit://C:/Users/Javier/Documents/lilypond%20scores/ricci%20left%20hand%20examples.ly:881:38:39"
     id="a130063"
     transform="translate(-5.6906,-38.873455)">
    <g
       transform="translate(93.8064,50.1192)"
       id="g130061">
      <path
         transform="scale(0.0036,-0.0036)"
         d="m 215,137 c 57,0 111,-29 111,-92 0,-71 -54,-120 -101,-148 -35,-21 -74,-34 -114,-34 -57,0 -111,29 -111,92 0,71 54,120 101,148 35,21 74,34 114,34 z"
         fill="currentColor"
         id="path130059" />
    </g>
  </a>
  <g
     transform="translate(84.2375,11.245745)"
     id="g130067">
    <path
       transform="scale(0.0036,-0.0036)"
       d="m 217,-311 c 0,-11 -8,-19 -19,-19 -11,0 -20,8 -20,19 v 142 l -81,-30 v -156 c 0,-11 -9,-20 -20,-20 -11,0 -19,9 -19,20 v 142 l -28,-11 c -3,-1 -5,-1 -8,-1 -12,0 -22,10 -22,23 v 57 c 0,9 6,18 15,21 l 43,16 V 49 L 30,39 C 27,38 25,38 22,38 10,38 0,47 0,60 v 57 c 0,9 6,18 15,21 l 43,16 v 157 c 0,11 8,19 19,19 11,0 20,-8 20,-19 V 169 l 81,30 v 156 c 0,11 9,20 20,20 11,0 19,-9 19,-20 V 213 l 28,11 c 3,1 5,1 8,1 12,0 22,-10 22,-23 v -57 c 0,-9 -6,-18 -15,-21 L 217,108 V -49 l 28,10 c 3,1 5,1 8,1 12,0 22,-9 22,-22 v -57 c 0,-9 -6,-18 -15,-21 l -43,-16 z M 97,64 V -94 l 81,30 V 94 Z"
       fill="currentColor"
       id="path130065" />
  </g>
  <a
     style="color:inherit"
     xlink:href="textedit://C:/Users/Javier/Documents/lilypond%20scores/ricci%20left%20hand%20examples.ly:878:38:39"
     id="a130073"
     transform="translate(-5.6906,-38.873455)">
    <g
       transform="translate(28.8831,43.0252)"
       id="g130071">
      <path
         transform="scale(0.002,-0.002)"
         d="M 129,129 H 259 C 259,77 291,29 340,29 350,29 354,21 354,14 354,7 350,0 340,0 291,0 243,14 194,14 145,14 98,0 49,0 39,0 34,7 34,14 c 0,7 5,15 15,15 49,0 80,48 80,100 z M 0,250 129,500 c 3,7 13,3 21,0 14,-6 28,-14 44,-14 16,0 31,8 45,14 2,1 2,1 4,1 8,0 16,-9 16,-21 V 129 H 129 v 215 c 0,15 -11,23 -20,23 -5,0 -9,-2 -11,-7 L 32,233 c -4,-7 -9,-9 -15,-9 -9,0 -19,7 -19,17 0,3 0,6 2,9 z"
         fill="currentColor"
         id="path130069" />
    </g>
  </a>
  <g
     transform="translate(26.987,8.9957453)"
     id="g130077">
    <rect
       x="-0.062799998"
       y="-3.9612999"
       width="0.12549999"
       height="2.8998001"
       ry="0.039999999"
       fill="currentColor"
       id="rect130075" />
  </g>
  <a
     style="color:inherit"
     xlink:href="textedit://C:/Users/Javier/Documents/lilypond%20scores/ricci%20left%20hand%20examples.ly:878:44:45"
     id="a130083"
     transform="translate(-5.6906,-38.873455)">
    <g
       transform="translate(31.7273,43.2419)"
       id="g130081">
      <path
         transform="scale(0.002,-0.002)"
         d="m 198,284 c 24,15 48,29 65,52 12,16 19,34 28,52 2,5 6,7 11,7 8,0 16,-6 16,-17 V 161 h 79 c 12,0 18,-9 18,-18 0,-9 -6,-18 -18,-18 h -79 c 2,-51 33,-96 80,-96 10,0 15,-8 15,-15 C 413,7 408,0 398,0 349,0 302,14 253,14 204,14 156,0 107,0 97,0 93,7 93,14 c 0,7 4,15 14,15 47,0 79,45 81,96 H 36 c -29,0 -38,17 -38,28 0,3 1,6 2,8 78,88 123,201 123,319 0,11 8,21 17,21 1,0 3,-1 4,-1 25,-7 50,-14 76,-14 26,0 52,7 77,14 2,1 4,1 6,1 10,0 17,-7 17,-14 0,-2 0,-5 -2,-7 L 36,161 h 152 v 96 c 0,10 1,21 10,27 z"
         fill="currentColor"
         id="path130079" />
    </g>
  </a>
  <a
     style="color:inherit"
     xlink:href="textedit://C:/Users/Javier/Documents/lilypond%20scores/ricci%20left%20hand%20examples.ly:878:41:42"
     id="a130089"
     transform="translate(-5.6906,-38.873455)">
    <g
       transform="translate(31.5679,46.9692)"
       id="g130087">
      <path
         transform="scale(0.0036,-0.0036)"
         d="m 215,137 c 57,0 111,-29 111,-92 0,-71 -54,-120 -101,-148 -35,-21 -74,-34 -114,-34 -57,0 -111,29 -111,92 0,71 54,120 101,148 35,21 74,34 114,34 z"
         fill="currentColor"
         id="path130085" />
    </g>
  </a>
  <g
     transform="translate(24.0745,8.9957453)"
     id="g130093">
    <rect
       x="-0.062799998"
       y="-4.178"
       width="0.12549999"
       height="2.6665001"
       ry="0.039999999"
       fill="currentColor"
       id="rect130091" />
  </g>
  <g
     transform="translate(24.5373,8.0957453)"
     id="g130097">
    <path
       transform="scale(0.0036,-0.0036)"
       d="m 217,-311 c 0,-11 -8,-19 -19,-19 -11,0 -20,8 -20,19 v 142 l -81,-30 v -156 c 0,-11 -9,-20 -20,-20 -11,0 -19,9 -19,20 v 142 l -28,-11 c -3,-1 -5,-1 -8,-1 -12,0 -22,10 -22,23 v 57 c 0,9 6,18 15,21 l 43,16 V 49 L 30,39 C 27,38 25,38 22,38 10,38 0,47 0,60 v 57 c 0,9 6,18 15,21 l 43,16 v 157 c 0,11 8,19 19,19 11,0 20,-8 20,-19 V 169 l 81,30 v 156 c 0,11 9,20 20,20 11,0 19,-9 19,-20 V 213 l 28,11 c 3,1 5,1 8,1 12,0 22,-10 22,-23 v -57 c 0,-9 -6,-18 -15,-21 L 217,108 V -49 l 28,10 c 3,1 5,1 8,1 12,0 22,-9 22,-22 v -57 c 0,-9 -6,-18 -15,-21 l -43,-16 z M 97,64 V -94 l 81,30 V 94 Z"
       fill="currentColor"
       id="path130095" />
  </g>
  <a
     style="color:inherit"
     xlink:href="textedit://C:/Users/Javier/Documents/lilypond%20scores/ricci%20left%20hand%20examples.ly:878:37:38"
     id="a130103"
     transform="translate(-5.6906,-38.873455)">
    <g
       transform="translate(28.6553,46.5192)"
       id="g130101">
      <path
         transform="scale(0.0036,-0.0036)"
         d="m 215,137 c 57,0 111,-29 111,-92 0,-71 -54,-120 -101,-148 -35,-21 -74,-34 -114,-34 -57,0 -111,29 -111,92 0,71 54,120 101,148 35,21 74,34 114,34 z"
         fill="currentColor"
         id="path130099" />
    </g>
  </a>
  <g
     transform="translate(19.9876,7.1957453)"
     id="g130107">
    <path
       transform="scale(0.0036,-0.0036)"
       d="m -8,375 c 8,5 17,7 26,7 9,0 18,-2 26,-7 l -3,-187 104,21 h 4 c 10,0 18,-8 18,-18 l 7,-566 c -8,-5 -16,-7 -25,-7 -9,0 -18,2 -26,7 l 2,187 -103,-21 h -4 c -10,0 -18,8 -18,18 z M 130,111 40,93 l -3,-204 90,18 z"
       fill="currentColor"
       id="path130105" />
  </g>
  <g
     transform="translate(22.0631,8.9957453)"
     id="g130111">
    <rect
       x="-0.062799998"
       y="-4.3276"
       width="0.12549999"
       height="2.3662"
       ry="0.039999999"
       fill="currentColor"
       id="rect130109" />
  </g>
  <a
     style="color:inherit"
     xlink:href="textedit://C:/Users/Javier/Documents/lilypond%20scores/ricci%20left%20hand%20examples.ly:878:34:35"
     id="a130117"
     transform="translate(-5.6906,-38.873455)">
    <g
       transform="translate(26.8547,42.8755)"
       id="g130115">
      <path
         transform="scale(0.002,-0.002)"
         d="m 129,149 h 7 c 36,0 74,-13 111,-40 19,-14 40,-21 59,-21 22,0 40,10 46,31 2,7 7,11 13,11 7,0 15,-5 15,-14 v -5 C 361,40 296,0 234,0 196,0 159,15 133,47 121,62 105,69 89,69 60,69 32,48 29,13 28,4 22,0 15,0 8,0 0,5 0,14 c 0,173 233,163 233,341 0,56 -14,116 -62,116 -33,0 -66,-15 -66,-44 0,-24 31,-37 31,-61 0,-34 -27,-61 -61,-61 -34,0 -61,27 -61,61 0,78 74,134 157,134 98,0 191,-55 191,-145 C 362,211 227,199 129,149 Z"
         fill="currentColor"
         id="path130113" />
    </g>
  </a>
  <a
     style="color:inherit"
     xlink:href="textedit://C:/Users/Javier/Documents/lilypond%20scores/ricci%20left%20hand%20examples.ly:878:33:34"
     id="a130123"
     transform="translate(-5.6906,-38.873455)">
    <g
       transform="translate(26.644,46.0692)"
       id="g130121">
      <path
         transform="scale(0.0036,-0.0036)"
         d="m 215,137 c 57,0 111,-29 111,-92 0,-71 -54,-120 -101,-148 -35,-21 -74,-34 -114,-34 -57,0 -111,29 -111,92 0,71 54,120 101,148 35,21 74,34 114,34 z"
         fill="currentColor"
         id="path130119" />
    </g>
  </a>
  <g
     transform="translate(34.075,8.9957453)"
     id="g130127">
    <rect
       x="-0.062799998"
       y="-3.3334999"
       width="0.12549999"
       height="2.7221"
       ry="0.039999999"
       fill="currentColor"
       id="rect130125" />
  </g>
  <a
     style="color:inherit"
     xlink:href="textedit://C:/Users/Javier/Documents/lilypond%20scores/ricci%20left%20hand%20examples.ly:878:58:59"
     id="a130133"
     transform="translate(-5.6906,-38.873455)">
    <g
       transform="translate(38.8837,42.376)"
       id="g130131">
      <path
         transform="scale(0.002,-0.002)"
         d="M 129,129 H 259 C 259,77 291,29 340,29 350,29 354,21 354,14 354,7 350,0 340,0 291,0 243,14 194,14 145,14 98,0 49,0 39,0 34,7 34,14 c 0,7 5,15 15,15 49,0 80,48 80,100 z M 0,250 129,500 c 3,7 13,3 21,0 14,-6 28,-14 44,-14 16,0 31,8 45,14 2,1 2,1 4,1 8,0 16,-9 16,-21 V 129 H 129 v 215 c 0,15 -11,23 -20,23 -5,0 -9,-2 -11,-7 L 32,233 c -4,-7 -9,-9 -15,-9 -9,0 -19,7 -19,17 0,3 0,6 2,9 z"
         fill="currentColor"
         id="path130129" />
    </g>
  </a>
  <a
     style="color:inherit"
     xlink:href="textedit://C:/Users/Javier/Documents/lilypond%20scores/ricci%20left%20hand%20examples.ly:878:57:58"
     id="a130139"
     transform="translate(-5.6906,-38.873455)">
    <g
       transform="translate(38.6559,47.4192)"
       id="g130137">
      <path
         transform="scale(0.0036,-0.0036)"
         d="m 215,137 c 57,0 111,-29 111,-92 0,-71 -54,-120 -101,-148 -35,-21 -74,-34 -114,-34 -57,0 -111,29 -111,92 0,71 54,120 101,148 35,21 74,34 114,34 z"
         fill="currentColor"
         id="path130135" />
    </g>
  </a>
  <g
     transform="translate(31.5367,8.9957453)"
     id="g130143">
    <rect
       x="-0.062799998"
       y="-3.4298999"
       width="0.12549999"
       height="2.8185"
       ry="0.039999999"
       fill="currentColor"
       id="rect130141" />
  </g>
  <a
     style="color:inherit"
     xlink:href="textedit://C:/Users/Javier/Documents/lilypond%20scores/ricci%20left%20hand%20examples.ly:878:54:55"
     id="a130149"
     transform="translate(-5.6906,-38.873455)">
    <g
       transform="translate(36.3282,43.7733)"
       id="g130147">
      <path
         transform="scale(0.002,-0.002)"
         d="m 129,149 h 7 c 36,0 74,-13 111,-40 19,-14 40,-21 59,-21 22,0 40,10 46,31 2,7 7,11 13,11 7,0 15,-5 15,-14 v -5 C 361,40 296,0 234,0 196,0 159,15 133,47 121,62 105,69 89,69 60,69 32,48 29,13 28,4 22,0 15,0 8,0 0,5 0,14 c 0,173 233,163 233,341 0,56 -14,116 -62,116 -33,0 -66,-15 -66,-44 0,-24 31,-37 31,-61 0,-34 -27,-61 -61,-61 -34,0 -61,27 -61,61 0,78 74,134 157,134 98,0 191,-55 191,-145 C 362,211 227,199 129,149 Z"
         fill="currentColor"
         id="path130145" />
    </g>
  </a>
  <a
     style="color:inherit"
     xlink:href="textedit://C:/Users/Javier/Documents/lilypond%20scores/ricci%20left%20hand%20examples.ly:878:51:52"
     id="a130155"
     transform="translate(-5.6906,-38.873455)">
    <g
       transform="translate(36.1176,47.4192)"
       id="g130153">
      <path
         transform="scale(0.0036,-0.0036)"
         d="m 215,137 c 57,0 111,-29 111,-92 0,-71 -54,-120 -101,-148 -35,-21 -74,-34 -114,-34 -57,0 -111,29 -111,92 0,71 54,120 101,148 35,21 74,34 114,34 z"
         fill="currentColor"
         id="path130151" />
    </g>
  </a>
  <g
     transform="translate(27.4498,8.0957453)"
     id="g130159">
    <path
       transform="scale(0.0036,-0.0036)"
       d="m -8,375 c 8,5 17,7 26,7 9,0 18,-2 26,-7 l -3,-187 104,21 h 4 c 10,0 18,-8 18,-18 l 7,-566 c -8,-5 -16,-7 -25,-7 -9,0 -18,2 -26,7 l 2,187 -103,-21 h -4 c -10,0 -18,8 -18,18 z M 130,111 40,93 l -3,-204 90,18 z"
       fill="currentColor"
       id="path130157" />
  </g>
  <g
     transform="translate(29.5254,8.9957453)"
     id="g130163">
    <rect
       x="-0.062799998"
       y="-3.7723999"
       width="0.12549999"
       height="2.711"
       ry="0.039999999"
       fill="currentColor"
       id="rect130161" />
  </g>
  <a
     style="color:inherit"
     xlink:href="textedit://C:/Users/Javier/Documents/lilypond%20scores/ricci%20left%20hand%20examples.ly:878:48:49"
     id="a130169"
     transform="translate(-5.6906,-38.873455)">
    <g
       transform="translate(34.351,43.4308)"
       id="g130167">
      <path
         transform="scale(0.002,-0.002)"
         d="m 155,471 c -34,0 -70,-8 -70,-38 0,-19 31,-23 31,-42 0,-28 -23,-51 -51,-51 -28,0 -51,23 -51,51 0,67 68,109 141,109 93,0 174,-31 174,-113 0,-41 -6,-77 -42,-94 -11,-5 -17,-16 -17,-27 0,-11 6,-22 17,-27 40,-19 59,-53 59,-98 C 346,47 263,0 160,0 78,0 0,45 0,119 c 0,32 26,58 58,58 32,0 58,-26 58,-58 0,-22 -36,-26 -36,-48 0,-33 42,-42 80,-42 46,0 56,58 56,112 v 38 c 0,40 -4,69 -43,69 H 99 c -12,0 -18,9 -18,18 0,9 6,18 18,18 h 74 c 40,0 43,31 43,73 v 30 c 0,50 -16,84 -61,84 z"
         fill="currentColor"
         id="path130165" />
    </g>
  </a>
  <a
     style="color:inherit"
     xlink:href="textedit://C:/Users/Javier/Documents/lilypond%20scores/ricci%20left%20hand%20examples.ly:878:47:48"
     id="a130175"
     transform="translate(-5.6906,-38.873455)">
    <g
       transform="translate(34.1062,46.9692)"
       id="g130173">
      <path
         transform="scale(0.0036,-0.0036)"
         d="m 215,137 c 57,0 111,-29 111,-92 0,-71 -54,-120 -101,-148 -35,-21 -74,-34 -114,-34 -57,0 -111,29 -111,92 0,71 54,120 101,148 35,21 74,34 114,34 z"
         fill="currentColor"
         id="path130171" />
    </g>
  </a>
  <g
     transform="translate(11.9168,8.9957453)"
     id="g130179">
    <rect
       x="-0.062799998"
       y="0.67769998"
       width="0.12549999"
       height="2.6222999"
       ry="0.039999999"
       fill="currentColor"
       id="rect130177" />
  </g>
  <g
     transform="translate(13.4979,9.4457453)"
     id="g130183">
    <path
       transform="scale(0.0036,-0.0036)"
       d="M 0,0 C 0,31 25,56 56,56 87,56 111,31 111,0 111,-31 87,-56 56,-56 25,-56 0,-31 0,0 Z"
       fill="currentColor"
       id="path130181" />
  </g>
  <g
     transform="translate(12.9637,8.9957453)"
     id="g130187">
    <rect
       x="-0.062799998"
       y="-5.3958001"
       width="0.12549999"
       height="2.5343001"
       ry="0.039999999"
       fill="currentColor"
       id="rect130185" />
  </g>
  <g
     transform="translate(8.5395,8.9957453)"
     id="g130191">
    <path
       transform="scale(0.0036,-0.0036)"
       d="m 151,475 c -29,0 -60,-8 -60,-33 0,-22 35,-25 35,-47 0,-31 -26,-57 -57,-57 -31,0 -57,26 -57,57 0,65 68,105 139,105 92,0 170,-33 170,-114 0,-42 -5,-81 -42,-98 -10,-5 -15,-14 -15,-23 0,-9 5,-18 15,-23 41,-19 57,-56 57,-102 C 336,48 256,0 156,0 77,0 0,43 0,115 c 0,36 29,65 65,65 36,0 65,-29 65,-65 0,-25 -40,-29 -40,-54 0,-28 34,-36 66,-36 48,0 61,59 61,115 v 22 c 0,50 -3,88 -49,88 H 90 c -10,0 -15,7 -15,15 0,8 5,15 15,15 h 78 c 46,0 49,40 49,92 v 14 c 0,53 -18,89 -66,89 z"
       fill="currentColor"
       id="path130189" />
  </g>
  <g
     transform="translate(8.42,10.839445)"
     id="g130195">
    <path
       transform="scale(0.0036,-0.0036)"
       d="m 194,120 h 120 c 0,-49 29,-95 75,-95 8,0 12,-7 12,-13 C 401,6 397,0 389,0 344,0 299,13 254,13 209,13 164,0 119,0 c -8,0 -12,6 -12,12 0,6 4,13 12,13 46,0 75,46 75,95 z m 9,181 c 22,15 45,30 61,51 12,15 19,34 27,51 2,4 5,6 9,6 6,0 14,-6 14,-15 V 156 h 74 c 10,0 16,-8 16,-16 0,-8 -6,-15 -16,-15 h -74 v -5 H 194 v 5 H 31 c -24,0 -33,15 -33,24 0,3 1,6 2,7 80,92 134,205 134,327 0,11 8,20 17,17 24,-7 48,-13 73,-13 25,0 48,6 72,13 2,1 4,1 6,1 9,0 14,-7 14,-13 0,-2 0,-3 -2,-5 L 31,156 h 163 v 122 c 0,9 2,18 9,23 z"
       fill="currentColor"
       id="path130193" />
  </g>
  <a
     style="color:inherit"
     xlink:href="textedit://C:/Users/Javier/Documents/lilypond%20scores/ricci%20left%20hand%20examples.ly:874:4:5"
     id="a130209"
     transform="translate(-5.6906,-38.873455)">
    <g
       transform="translate(9.9906,46.0692)"
       id="g130199">
      <path
         transform="scale(0.0036,-0.0036)"
         d="m 217,-311 c 0,-11 -8,-19 -19,-19 -11,0 -20,8 -20,19 v 142 l -81,-30 v -156 c 0,-11 -9,-20 -20,-20 -11,0 -19,9 -19,20 v 142 l -28,-11 c -3,-1 -5,-1 -8,-1 -12,0 -22,10 -22,23 v 57 c 0,9 6,18 15,21 l 43,16 V 49 L 30,39 C 27,38 25,38 22,38 10,38 0,47 0,60 v 57 c 0,9 6,18 15,21 l 43,16 v 157 c 0,11 8,19 19,19 11,0 20,-8 20,-19 V 169 l 81,30 v 156 c 0,11 9,20 20,20 11,0 19,-9 19,-20 V 213 l 28,11 c 3,1 5,1 8,1 12,0 22,-10 22,-23 v -57 c 0,-9 -6,-18 -15,-21 L 217,108 V -49 l 28,10 c 3,1 5,1 8,1 12,0 22,-9 22,-22 v -57 c 0,-9 -6,-18 -15,-21 l -43,-16 z M 97,64 V -94 l 81,30 V 94 Z"
         fill="currentColor"
         id="path130197" />
    </g>
    <g
       transform="translate(10.9806,47.4192)"
       id="g130203">
      <path
         transform="scale(0.0036,-0.0036)"
         d="m 217,-311 c 0,-11 -8,-19 -19,-19 -11,0 -20,8 -20,19 v 142 l -81,-30 v -156 c 0,-11 -9,-20 -20,-20 -11,0 -19,9 -19,20 v 142 l -28,-11 c -3,-1 -5,-1 -8,-1 -12,0 -22,10 -22,23 v 57 c 0,9 6,18 15,21 l 43,16 V 49 L 30,39 C 27,38 25,38 22,38 10,38 0,47 0,60 v 57 c 0,9 6,18 15,21 l 43,16 v 157 c 0,11 8,19 19,19 11,0 20,-8 20,-19 V 169 l 81,30 v 156 c 0,11 9,20 20,20 11,0 19,-9 19,-20 V 213 l 28,11 c 3,1 5,1 8,1 12,0 22,-10 22,-23 v -57 c 0,-9 -6,-18 -15,-21 L 217,108 V -49 l 28,10 c 3,1 5,1 8,1 12,0 22,-9 22,-22 v -57 c 0,-9 -6,-18 -15,-21 l -43,-16 z M 97,64 V -94 l 81,30 V 94 Z"
         fill="currentColor"
         id="path130201" />
    </g>
    <g
       transform="translate(11.9706,45.6192)"
       id="g130207">
      <path
         transform="scale(0.0036,-0.0036)"
         d="m 217,-311 c 0,-11 -8,-19 -19,-19 -11,0 -20,8 -20,19 v 142 l -81,-30 v -156 c 0,-11 -9,-20 -20,-20 -11,0 -19,9 -19,20 v 142 l -28,-11 c -3,-1 -5,-1 -8,-1 -12,0 -22,10 -22,23 v 57 c 0,9 6,18 15,21 l 43,16 V 49 L 30,39 C 27,38 25,38 22,38 10,38 0,47 0,60 v 57 c 0,9 6,18 15,21 l 43,16 v 157 c 0,11 8,19 19,19 11,0 20,-8 20,-19 V 169 l 81,30 v 156 c 0,11 9,20 20,20 11,0 19,-9 19,-20 V 213 l 28,11 c 3,1 5,1 8,1 12,0 22,-10 22,-23 v -57 c 0,-9 -6,-18 -15,-21 L 217,108 V -49 l 28,10 c 3,1 5,1 8,1 12,0 22,-9 22,-22 v -57 c 0,-9 -6,-18 -15,-21 l -43,-16 z M 97,64 V -94 l 81,30 V 94 Z"
         fill="currentColor"
         id="path130205" />
    </g>
  </a>
  <g
     transform="translate(0.80000003,9.8957453)"
     id="g130213">
    <path
       transform="scale(0.0036,-0.0036)"
       d="m 378,263 c 4,0 7,1 11,1 156,0 257,-129 257,-262 0,-76 -34,-154 -108,-210 -22,-17 -46,-29 -72,-37 3,-34 5,-68 5,-102 0,-20 -1,-40 -2,-60 -7,-121 -90,-228 -209,-228 -108,0 -196,87 -196,196 0,58 53,104 112,104 54,0 95,-48 95,-104 0,-52 -43,-95 -95,-95 -10,0 -20,2 -29,6 26,-38 68,-63 116,-63 h 3 c 93,2 153,92 159,190 1,19 2,37 2,56 0,30 -2,60 -4,90 -29,-5 -58,-8 -88,-8 -188,0 -333,173 -333,375 0,177 130,307 246,442 -20,62 -38,125 -46,190 -6,52 -7,104 -7,157 0,115 55,223 148,290 7,5 16,4 22,-1 71,-83 134,-244 134,-357 0,-143 -85,-255 -178,-364 21,-68 40,-137 57,-206 z m 84,-465 c 67,24 111,94 111,162 0,89 -65,178 -170,190 24,-115 46,-230 59,-352 z M 75,26 c 0,-134 129,-245 263,-245 28,0 55,2 81,6 C 405,-87 383,31 358,150 279,142 234,89 234,31 c 0,-43 25,-89 80,-121 5,-5 7,-11 7,-16 0,-12 -10,-23 -22,-23 -3,0 -6,1 -9,2 -81,43 -118,116 -118,186 0,89 58,175 161,198 -14,58 -29,116 -46,173 C 181,308 75,186 75,26 Z M 406,1042 C 307,995 244,894 244,785 c 0,-73 20,-132 38,-191 79,97 144,199 144,324 0,53 -4,76 -20,124 z"
       fill="currentColor"
       id="path130211" />
  </g>
  <a
     style="color:inherit"
     xlink:href="textedit://C:/Users/Javier/Documents/lilypond%20scores/ricci%20left%20hand%20examples.ly:885:8:9"
     id="a130219"
     transform="translate(-5.6906,-38.873455)">
    <g
       transform="translate(17.5446,48.3192)"
       id="g130217">
      <path
         transform="scale(0.0036,-0.0036)"
         d="m 312,64 c 0,24 -20,41 -41,41 -4,0 -8,-1 -12,-2 C 229,94 182,65 146,41 110,17 63,-13 43,-37 36,-45 33,-54 33,-64 c 0,-24 20,-41 41,-41 4,0 8,1 12,2 30,9 77,38 113,62 36,24 83,54 103,78 7,8 10,17 10,27 z m -53,73 c 48,0 86,-22 86,-74 0,-18 -4,-38 -10,-56 -12,-38 -30,-73 -63,-95 -53,-36 -113,-49 -186,-49 -48,0 -86,22 -86,74 0,18 4,38 10,56 12,38 31,73 64,95 53,36 112,49 185,49 z"
         fill="currentColor"
         id="path130215" />
    </g>
  </a>
  <a
     style="color:inherit"
     xlink:href="textedit://C:/Users/Javier/Documents/lilypond%20scores/ricci%20left%20hand%20examples.ly:878:14:15"
     id="a130225"
     transform="translate(-5.6906,-38.873455)">
    <g
       transform="translate(17.7041,41.8074)"
       id="g130223">
      <path
         transform="scale(0.002,-0.002)"
         d="m 198,284 c 24,15 48,29 65,52 12,16 19,34 28,52 2,5 6,7 11,7 8,0 16,-6 16,-17 V 161 h 79 c 12,0 18,-9 18,-18 0,-9 -6,-18 -18,-18 h -79 c 2,-51 33,-96 80,-96 10,0 15,-8 15,-15 C 413,7 408,0 398,0 349,0 302,14 253,14 204,14 156,0 107,0 97,0 93,7 93,14 c 0,7 4,15 14,15 47,0 79,45 81,96 H 36 c -29,0 -38,17 -38,28 0,3 1,6 2,8 78,88 123,201 123,319 0,11 8,21 17,21 1,0 3,-1 4,-1 25,-7 50,-14 76,-14 26,0 52,7 77,14 2,1 4,1 6,1 10,0 17,-7 17,-14 0,-2 0,-5 -2,-7 L 36,161 h 152 v 96 c 0,10 1,21 10,27 z"
         fill="currentColor"
         id="path130221" />
    </g>
  </a>
  <a
     style="color:inherit"
     xlink:href="textedit://C:/Users/Javier/Documents/lilypond%20scores/ricci%20left%20hand%20examples.ly:878:7:8"
     id="a130231"
     transform="translate(-5.6906,-38.873455)">
    <g
       transform="translate(17.5446,45.1692)"
       id="g130229">
      <path
         transform="scale(0.0036,-0.0036)"
         d="m 215,137 c 57,0 111,-29 111,-92 0,-71 -54,-120 -101,-148 -35,-21 -74,-34 -114,-34 -57,0 -111,29 -111,92 0,71 54,120 101,148 35,21 74,34 114,34 z"
         fill="currentColor"
         id="path130227" />
    </g>
  </a>
  <g
     transform="translate(19.5248,8.9957453)"
     id="g130235">
    <rect
       x="-0.062799998"
       y="-4.9541998"
       width="0.12549999"
       height="2.9928"
       ry="0.039999999"
       fill="currentColor"
       id="rect130233" />
  </g>
  <a
     style="color:inherit"
     xlink:href="textedit://C:/Users/Javier/Documents/lilypond%20scores/ricci%20left%20hand%20examples.ly:878:30:31"
     id="a130241"
     transform="translate(-5.6906,-38.873455)">
    <g
       transform="translate(24.3334,41.1295)"
       id="g130239">
      <path
         transform="scale(0.002,-0.002)"
         d="M 129,129 H 259 C 259,77 291,29 340,29 350,29 354,21 354,14 354,7 350,0 340,0 291,0 243,14 194,14 145,14 98,0 49,0 39,0 34,7 34,14 c 0,7 5,15 15,15 49,0 80,48 80,100 z M 0,250 129,500 c 3,7 13,3 21,0 14,-6 28,-14 44,-14 16,0 31,8 45,14 2,1 2,1 4,1 8,0 16,-9 16,-21 V 129 H 129 v 215 c 0,15 -11,23 -20,23 -5,0 -9,-2 -11,-7 L 32,233 c -4,-7 -9,-9 -15,-9 -9,0 -19,7 -19,17 0,3 0,6 2,9 z"
         fill="currentColor"
         id="path130237" />
    </g>
  </a>
  <a
     style="color:inherit"
     xlink:href="textedit://C:/Users/Javier/Documents/lilypond%20scores/ricci%20left%20hand%20examples.ly:878:27:28"
     id="a130247"
     transform="translate(-5.6906,-38.873455)">
    <g
       transform="translate(24.1056,46.0692)"
       id="g130245">
      <path
         transform="scale(0.0036,-0.0036)"
         d="m 215,137 c 57,0 111,-29 111,-92 0,-71 -54,-120 -101,-148 -35,-21 -74,-34 -114,-34 -57,0 -111,29 -111,92 0,71 54,120 101,148 35,21 74,34 114,34 z"
         fill="currentColor"
         id="path130243" />
    </g>
  </a>
  <g
     transform="translate(15.4379,6.7457453)"
     id="g130251">
    <path
       transform="scale(0.0036,-0.0036)"
       d="m -8,375 c 8,5 17,7 26,7 9,0 18,-2 26,-7 l -3,-187 104,21 h 4 c 10,0 18,-8 18,-18 l 7,-566 c -8,-5 -16,-7 -25,-7 -9,0 -18,2 -26,7 l 2,187 -103,-21 h -4 c -10,0 -18,8 -18,18 z M 130,111 40,93 l -3,-204 90,18 z"
       fill="currentColor"
       id="path130249" />
  </g>
  <g
     transform="translate(17.5134,8.9957453)"
     id="g130255">
    <rect
       x="-0.062799998"
       y="-5.0896001"
       width="0.12549999"
       height="2.6782"
       ry="0.039999999"
       fill="currentColor"
       id="rect130253" />
  </g>
  <a
     style="color:inherit"
     xlink:href="textedit://C:/Users/Javier/Documents/lilypond%20scores/ricci%20left%20hand%20examples.ly:878:24:25"
     id="a130261"
     transform="translate(-5.6906,-38.873455)">
    <g
       transform="translate(22.305,41.1236)"
       id="g130259">
      <path
         transform="scale(0.002,-0.002)"
         d="m 129,149 h 7 c 36,0 74,-13 111,-40 19,-14 40,-21 59,-21 22,0 40,10 46,31 2,7 7,11 13,11 7,0 15,-5 15,-14 v -5 C 361,40 296,0 234,0 196,0 159,15 133,47 121,62 105,69 89,69 60,69 32,48 29,13 28,4 22,0 15,0 8,0 0,5 0,14 c 0,173 233,163 233,341 0,56 -14,116 -62,116 -33,0 -66,-15 -66,-44 0,-24 31,-37 31,-61 0,-34 -27,-61 -61,-61 -34,0 -61,27 -61,61 0,78 74,134 157,134 98,0 191,-55 191,-145 C 362,211 227,199 129,149 Z"
         fill="currentColor"
         id="path130257" />
    </g>
  </a>
  <a
     style="color:inherit"
     xlink:href="textedit://C:/Users/Javier/Documents/lilypond%20scores/ricci%20left%20hand%20examples.ly:878:23:24"
     id="a130267"
     transform="translate(-5.6906,-38.873455)">
    <g
       transform="translate(22.0943,45.6192)"
       id="g130265">
      <path
         transform="scale(0.0036,-0.0036)"
         d="m 215,137 c 57,0 111,-29 111,-92 0,-71 -54,-120 -101,-148 -35,-21 -74,-34 -114,-34 -57,0 -111,29 -111,92 0,71 54,120 101,148 35,21 74,34 114,34 z"
         fill="currentColor"
         id="path130263" />
    </g>
  </a>
  <g
     transform="translate(14.9751,8.9957453)"
     id="g130271">
    <rect
       x="-0.062799998"
       y="-5.2603998"
       width="0.12549999"
       height="2.849"
       ry="0.039999999"
       fill="currentColor"
       id="rect130269" />
  </g>
  <a
     style="color:inherit"
     xlink:href="textedit://C:/Users/Javier/Documents/lilypond%20scores/ricci%20left%20hand%20examples.ly:878:20:21"
     id="a130277"
     transform="translate(-5.6906,-38.873455)">
    <g
       transform="translate(19.8008,41.2323)"
       id="g130275">
      <path
         transform="scale(0.002,-0.002)"
         d="m 155,471 c -34,0 -70,-8 -70,-38 0,-19 31,-23 31,-42 0,-28 -23,-51 -51,-51 -28,0 -51,23 -51,51 0,67 68,109 141,109 93,0 174,-31 174,-113 0,-41 -6,-77 -42,-94 -11,-5 -17,-16 -17,-27 0,-11 6,-22 17,-27 40,-19 59,-53 59,-98 C 346,47 263,0 160,0 78,0 0,45 0,119 c 0,32 26,58 58,58 32,0 58,-26 58,-58 0,-22 -36,-26 -36,-48 0,-33 42,-42 80,-42 46,0 56,58 56,112 v 38 c 0,40 -4,69 -43,69 H 99 c -12,0 -18,9 -18,18 0,9 6,18 18,18 h 74 c 40,0 43,31 43,73 v 30 c 0,50 -16,84 -61,84 z"
         fill="currentColor"
         id="path130273" />
    </g>
  </a>
  <a
     style="color:inherit"
     xlink:href="textedit://C:/Users/Javier/Documents/lilypond%20scores/ricci%20left%20hand%20examples.ly:878:17:18"
     id="a130283"
     transform="translate(-5.6906,-38.873455)">
    <g
       transform="translate(19.5559,45.6192)"
       id="g130281">
      <path
         transform="scale(0.0036,-0.0036)"
         d="m 215,137 c 57,0 111,-29 111,-92 0,-71 -54,-120 -101,-148 -35,-21 -74,-34 -114,-34 -57,0 -111,29 -111,92 0,71 54,120 101,148 35,21 74,34 114,34 z"
         fill="currentColor"
         id="path130279" />
    </g>
  </a>
  <a
     style="color:inherit"
     xlink:href="textedit://C:/Users/Javier/Documents/lilypond%20scores/ricci%20left%20hand%20examples.ly:880:22:23"
     id="a130289"
     transform="translate(-5.6906,-38.873455)">
    <g
       transform="translate(53.1525,46.0692)"
       id="g130287">
      <path
         transform="scale(0.0036,-0.0036)"
         d="m 215,137 c 57,0 111,-29 111,-92 0,-71 -54,-120 -101,-148 -35,-21 -74,-34 -114,-34 -57,0 -111,29 -111,92 0,71 54,120 101,148 35,21 74,34 114,34 z"
         fill="currentColor"
         id="path130285" />
    </g>
  </a>
  <g
     transform="translate(44.4848,6.7457453)"
     id="g130293">
    <path
       transform="scale(0.0036,-0.0036)"
       d="m -8,375 c 8,5 17,7 26,7 9,0 18,-2 26,-7 l -3,-187 104,21 h 4 c 10,0 18,-8 18,-18 l 7,-566 c -8,-5 -16,-7 -25,-7 -9,0 -18,2 -26,7 l 2,187 -103,-21 h -4 c -10,0 -18,8 -18,18 z M 130,111 40,93 l -3,-204 90,18 z"
       fill="currentColor"
       id="path130291" />
  </g>
  <g
     transform="translate(46.5603,8.9957453)"
     id="g130297">
    <rect
       x="-0.062799998"
       y="-5.0896001"
       width="0.12549999"
       height="2.6782"
       ry="0.039999999"
       fill="currentColor"
       id="rect130295" />
  </g>
  <a
     style="color:inherit"
     xlink:href="textedit://C:/Users/Javier/Documents/lilypond%20scores/ricci%20left%20hand%20examples.ly:880:19:20"
     id="a130303"
     transform="translate(-5.6906,-38.873455)">
    <g
       transform="translate(51.3689,41.1237)"
       id="g130301">
      <path
         transform="scale(0.002,-0.002)"
         d="M 129,129 H 259 C 259,77 291,29 340,29 350,29 354,21 354,14 354,7 350,0 340,0 291,0 243,14 194,14 145,14 98,0 49,0 39,0 34,7 34,14 c 0,7 5,15 15,15 49,0 80,48 80,100 z M 0,250 129,500 c 3,7 13,3 21,0 14,-6 28,-14 44,-14 16,0 31,8 45,14 2,1 2,1 4,1 8,0 16,-9 16,-21 V 129 H 129 v 215 c 0,15 -11,23 -20,23 -5,0 -9,-2 -11,-7 L 32,233 c -4,-7 -9,-9 -15,-9 -9,0 -19,7 -19,17 0,3 0,6 2,9 z"
         fill="currentColor"
         id="path130299" />
    </g>
  </a>
  <a
     style="color:inherit"
     xlink:href="textedit://C:/Users/Javier/Documents/lilypond%20scores/ricci%20left%20hand%20examples.ly:880:18:19"
     id="a130309"
     transform="translate(-5.6906,-38.873455)">
    <g
       transform="translate(51.1412,45.6192)"
       id="g130307">
      <path
         transform="scale(0.0036,-0.0036)"
         d="m 215,137 c 57,0 111,-29 111,-92 0,-71 -54,-120 -101,-148 -35,-21 -74,-34 -114,-34 -57,0 -111,29 -111,92 0,71 54,120 101,148 35,21 74,34 114,34 z"
         fill="currentColor"
         id="path130305" />
    </g>
  </a>
  <a
     style="color:inherit"
     xlink:href="textedit://C:/Users/Javier/Documents/lilypond%20scores/ricci%20left%20hand%20examples.ly:880:25:26"
     id="a130315"
     transform="translate(-5.6906,-38.873455)">
    <g
       transform="translate(53.3632,41.1293)"
       id="g130313">
      <path
         transform="scale(0.002,-0.002)"
         d="m 129,149 h 7 c 36,0 74,-13 111,-40 19,-14 40,-21 59,-21 22,0 40,10 46,31 2,7 7,11 13,11 7,0 15,-5 15,-14 v -5 C 361,40 296,0 234,0 196,0 159,15 133,47 121,62 105,69 89,69 60,69 32,48 29,13 28,4 22,0 15,0 8,0 0,5 0,14 c 0,173 233,163 233,341 0,56 -14,116 -62,116 -33,0 -66,-15 -66,-44 0,-24 31,-37 31,-61 0,-34 -27,-61 -61,-61 -34,0 -61,27 -61,61 0,78 74,134 157,134 98,0 191,-55 191,-145 C 362,211 227,199 129,149 Z"
         fill="currentColor"
         id="path130311" />
    </g>
  </a>
  <g
     transform="translate(44.022,8.9957453)"
     id="g130319">
    <rect
       x="-0.062799998"
       y="-5.2603998"
       width="0.12549999"
       height="2.849"
       ry="0.039999999"
       fill="currentColor"
       id="rect130317" />
  </g>
  <a
     style="color:inherit"
     xlink:href="textedit://C:/Users/Javier/Documents/lilypond%20scores/ricci%20left%20hand%20examples.ly:880:15:16"
     id="a130325"
     transform="translate(-5.6906,-38.873455)">
    <g
       transform="translate(48.8135,41.2292)"
       id="g130323">
      <path
         transform="scale(0.002,-0.002)"
         d="m 129,149 h 7 c 36,0 74,-13 111,-40 19,-14 40,-21 59,-21 22,0 40,10 46,31 2,7 7,11 13,11 7,0 15,-5 15,-14 v -5 C 361,40 296,0 234,0 196,0 159,15 133,47 121,62 105,69 89,69 60,69 32,48 29,13 28,4 22,0 15,0 8,0 0,5 0,14 c 0,173 233,163 233,341 0,56 -14,116 -62,116 -33,0 -66,-15 -66,-44 0,-24 31,-37 31,-61 0,-34 -27,-61 -61,-61 -34,0 -61,27 -61,61 0,78 74,134 157,134 98,0 191,-55 191,-145 C 362,211 227,199 129,149 Z"
         fill="currentColor"
         id="path130321" />
    </g>
  </a>
  <a
     style="color:inherit"
     xlink:href="textedit://C:/Users/Javier/Documents/lilypond%20scores/ricci%20left%20hand%20examples.ly:880:12:13"
     id="a130331"
     transform="translate(-5.6906,-38.873455)">
    <g
       transform="translate(48.6028,45.6192)"
       id="g130329">
      <path
         transform="scale(0.0036,-0.0036)"
         d="m 215,137 c 57,0 111,-29 111,-92 0,-71 -54,-120 -101,-148 -35,-21 -74,-34 -114,-34 -57,0 -111,29 -111,92 0,71 54,120 101,148 35,21 74,34 114,34 z"
         fill="currentColor"
         id="path130327" />
    </g>
  </a>
  <g
     transform="translate(56.0339,8.9957453)"
     id="g130335">
    <rect
       x="-0.062799998"
       y="-3.9612999"
       width="0.12549999"
       height="2.8998001"
       ry="0.039999999"
       fill="currentColor"
       id="rect130333" />
  </g>
  <a
     style="color:inherit"
     xlink:href="textedit://C:/Users/Javier/Documents/lilypond%20scores/ricci%20left%20hand%20examples.ly:880:35:36"
     id="a130341"
     transform="translate(-5.6906,-38.873455)">
    <g
       transform="translate(60.7742,43.2419)"
       id="g130339">
      <path
         transform="scale(0.002,-0.002)"
         d="m 198,284 c 24,15 48,29 65,52 12,16 19,34 28,52 2,5 6,7 11,7 8,0 16,-6 16,-17 V 161 h 79 c 12,0 18,-9 18,-18 0,-9 -6,-18 -18,-18 h -79 c 2,-51 33,-96 80,-96 10,0 15,-8 15,-15 C 413,7 408,0 398,0 349,0 302,14 253,14 204,14 156,0 107,0 97,0 93,7 93,14 c 0,7 4,15 14,15 47,0 79,45 81,96 H 36 c -29,0 -38,17 -38,28 0,3 1,6 2,8 78,88 123,201 123,319 0,11 8,21 17,21 1,0 3,-1 4,-1 25,-7 50,-14 76,-14 26,0 52,7 77,14 2,1 4,1 6,1 10,0 17,-7 17,-14 0,-2 0,-5 -2,-7 L 36,161 h 152 v 96 c 0,10 1,21 10,27 z"
         fill="currentColor"
         id="path130337" />
    </g>
  </a>
  <a
     style="color:inherit"
     xlink:href="textedit://C:/Users/Javier/Documents/lilypond%20scores/ricci%20left%20hand%20examples.ly:880:37:38"
     id="a130347"
     transform="translate(-5.6906,-38.873455)">
    <g
       transform="translate(60.8596,41.5406)"
       id="g130345">
      <path
         transform="scale(0.002,-0.002)"
         d="m 155,471 c -34,0 -70,-8 -70,-38 0,-19 31,-23 31,-42 0,-28 -23,-51 -51,-51 -28,0 -51,23 -51,51 0,67 68,109 141,109 93,0 174,-31 174,-113 0,-41 -6,-77 -42,-94 -11,-5 -17,-16 -17,-27 0,-11 6,-22 17,-27 40,-19 59,-53 59,-98 C 346,47 263,0 160,0 78,0 0,45 0,119 c 0,32 26,58 58,58 32,0 58,-26 58,-58 0,-22 -36,-26 -36,-48 0,-33 42,-42 80,-42 46,0 56,58 56,112 v 38 c 0,40 -4,69 -43,69 H 99 c -12,0 -18,9 -18,18 0,9 6,18 18,18 h 74 c 40,0 43,31 43,73 v 30 c 0,50 -16,84 -61,84 z"
         fill="currentColor"
         id="path130343" />
    </g>
  </a>
  <a
     style="color:inherit"
     xlink:href="textedit://C:/Users/Javier/Documents/lilypond%20scores/ricci%20left%20hand%20examples.ly:880:32:33"
     id="a130353"
     transform="translate(-5.6906,-38.873455)">
    <g
       transform="translate(60.6148,46.9692)"
       id="g130351">
      <path
         transform="scale(0.0036,-0.0036)"
         d="m 215,137 c 57,0 111,-29 111,-92 0,-71 -54,-120 -101,-148 -35,-21 -74,-34 -114,-34 -57,0 -111,29 -111,92 0,71 54,120 101,148 35,21 74,34 114,34 z"
         fill="currentColor"
         id="path130349" />
    </g>
  </a>
  <g
     transform="translate(53.1214,8.9957453)"
     id="g130357">
    <rect
       x="-0.062799998"
       y="-4.178"
       width="0.12549999"
       height="2.6665001"
       ry="0.039999999"
       fill="currentColor"
       id="rect130355" />
  </g>
  <a
     style="color:inherit"
     xlink:href="textedit://C:/Users/Javier/Documents/lilypond%20scores/ricci%20left%20hand%20examples.ly:880:30:31"
     id="a130363"
     transform="translate(-5.6906,-38.873455)">
    <g
       transform="translate(57.7022,46.5192)"
       id="g130361">
      <path
         transform="scale(0.0036,-0.0036)"
         d="m 215,137 c 57,0 111,-29 111,-92 0,-71 -54,-120 -101,-148 -35,-21 -74,-34 -114,-34 -57,0 -111,29 -111,92 0,71 54,120 101,148 35,21 74,34 114,34 z"
         fill="currentColor"
         id="path130359" />
    </g>
  </a>
  <g
     transform="translate(49.0345,7.1957453)"
     id="g130367">
    <path
       transform="scale(0.0036,-0.0036)"
       d="m -8,375 c 8,5 17,7 26,7 9,0 18,-2 26,-7 l -3,-187 104,21 h 4 c 10,0 18,-8 18,-18 l 7,-566 c -8,-5 -16,-7 -25,-7 -9,0 -18,2 -26,7 l 2,187 -103,-21 h -4 c -10,0 -18,8 -18,18 z M 130,111 40,93 l -3,-204 90,18 z"
       fill="currentColor"
       id="path130365" />
  </g>
  <g
     transform="translate(51.11,8.9957453)"
     id="g130371">
    <rect
       x="-0.062799998"
       y="-4.3276"
       width="0.12549999"
       height="2.3662"
       ry="0.039999999"
       fill="currentColor"
       id="rect130369" />
  </g>
  <a
     style="color:inherit"
     xlink:href="textedit://C:/Users/Javier/Documents/lilypond%20scores/ricci%20left%20hand%20examples.ly:880:28:29"
     id="a130377"
     transform="translate(-5.6906,-38.873455)">
    <g
       transform="translate(55.6909,46.0692)"
       id="g130375">
      <path
         transform="scale(0.0036,-0.0036)"
         d="m 215,137 c 57,0 111,-29 111,-92 0,-71 -54,-120 -101,-148 -35,-21 -74,-34 -114,-34 -57,0 -111,29 -111,92 0,71 54,120 101,148 35,21 74,34 114,34 z"
         fill="currentColor"
         id="path130373" />
    </g>
  </a>
  <g
     transform="translate(48.5717,8.9957453)"
     id="g130381">
    <rect
       x="-0.062799998"
       y="-4.9541998"
       width="0.12549999"
       height="2.9928"
       ry="0.039999999"
       fill="currentColor"
       id="rect130379" />
  </g>
  <g
     transform="translate(36.6659,8.9957453)"
     id="g130385">
    <path
       transform="scale(0.0036,-0.0036)"
       d="m 29,39 -2,-64 v -11 c 0,-22 2,-43 5,-65 44,38 91,80 91,138 0,33 -13,66 -42,66 C 50,103 30,72 29,39 Z m -57,415 c 9,5 18,8 28,8 10,0 19,-3 28,-8 L 21,111 c 25,23 58,36 92,36 51,0 87,-49 87,-103 0,-79 -84,-117 -144,-169 -16,-14 -25,-41 -47,-41 -14,0 -25,13 -25,27 z"
       fill="currentColor"
       id="path130383" />
  </g>
  <a
     style="color:inherit"
     xlink:href="textedit://C:/Users/Javier/Documents/lilypond%20scores/ricci%20left%20hand%20examples.ly:878:61:62"
     id="a130391"
     transform="translate(-5.6906,-38.873455)">
    <g
       transform="translate(40.6673,47.8692)"
       id="g130389">
      <path
         transform="scale(0.0036,-0.0036)"
         d="m 215,137 c 57,0 111,-29 111,-92 0,-71 -54,-120 -101,-148 -35,-21 -74,-34 -114,-34 -57,0 -111,29 -111,92 0,71 54,120 101,148 35,21 74,34 114,34 z"
         fill="currentColor"
         id="path130387" />
    </g>
  </a>
  <g
     transform="translate(42.0106,8.9957453)"
     id="g130395">
    <rect
       x="-0.062799998"
       y="-5.3958001"
       width="0.12549999"
       height="2.5343001"
       ry="0.039999999"
       fill="currentColor"
       id="rect130393" />
  </g>
  <a
     style="color:inherit"
     xlink:href="textedit://C:/Users/Javier/Documents/lilypond%20scores/ricci%20left%20hand%20examples.ly:885:14:15"
     id="a130401"
     transform="translate(-5.6906,-38.873455)">
    <g
       transform="translate(46.5915,48.3192)"
       id="g130399">
      <path
         transform="scale(0.0036,-0.0036)"
         d="m 312,64 c 0,24 -20,41 -41,41 -4,0 -8,-1 -12,-2 C 229,94 182,65 146,41 110,17 63,-13 43,-37 36,-45 33,-54 33,-64 c 0,-24 20,-41 41,-41 4,0 8,1 12,2 30,9 77,38 113,62 36,24 83,54 103,78 7,8 10,17 10,27 z m -53,73 c 48,0 86,-22 86,-74 0,-18 -4,-38 -10,-56 -12,-38 -30,-73 -63,-95 -53,-36 -113,-49 -186,-49 -48,0 -86,22 -86,74 0,18 4,38 10,56 12,38 31,73 64,95 53,36 112,49 185,49 z"
         fill="currentColor"
         id="path130397" />
    </g>
  </a>
  <a
     style="color:inherit"
     xlink:href="textedit://C:/Users/Javier/Documents/lilypond%20scores/ricci%20left%20hand%20examples.ly:880:9:10"
     id="a130407"
     transform="translate(-5.6906,-38.873455)">
    <g
       transform="translate(46.8363,41.8074)"
       id="g130405">
      <path
         transform="scale(0.002,-0.002)"
         d="m 155,471 c -34,0 -70,-8 -70,-38 0,-19 31,-23 31,-42 0,-28 -23,-51 -51,-51 -28,0 -51,23 -51,51 0,67 68,109 141,109 93,0 174,-31 174,-113 0,-41 -6,-77 -42,-94 -11,-5 -17,-16 -17,-27 0,-11 6,-22 17,-27 40,-19 59,-53 59,-98 C 346,47 263,0 160,0 78,0 0,45 0,119 c 0,32 26,58 58,58 32,0 58,-26 58,-58 0,-22 -36,-26 -36,-48 0,-33 42,-42 80,-42 46,0 56,58 56,112 v 38 c 0,40 -4,69 -43,69 H 99 c -12,0 -18,9 -18,18 0,9 6,18 18,18 h 74 c 40,0 43,31 43,73 v 30 c 0,50 -16,84 -61,84 z"
         fill="currentColor"
         id="path130403" />
    </g>
  </a>
  <g
     transform="translate(36.0864,8.9957453)"
     id="g130411">
    <rect
       x="-0.062799998"
       y="-3.2572"
       width="0.12549999"
       height="3.0957"
       ry="0.039999999"
       fill="currentColor"
       id="rect130409" />
  </g>
  <a
     style="color:inherit"
     xlink:href="textedit://C:/Users/Javier/Documents/lilypond%20scores/ricci%20left%20hand%20examples.ly:880:7:8"
     id="a130417"
     transform="translate(-5.6906,-38.873455)">
    <g
       transform="translate(46.5915,45.1692)"
       id="g130415">
      <path
         transform="scale(0.0036,-0.0036)"
         d="m 215,137 c 57,0 111,-29 111,-92 0,-71 -54,-120 -101,-148 -35,-21 -74,-34 -114,-34 -57,0 -111,29 -111,92 0,71 54,120 101,148 35,21 74,34 114,34 z"
         fill="currentColor"
         id="path130413" />
    </g>
  </a>
  <a
     style="color:inherit"
     xlink:href="textedit://C:/Users/Javier/Documents/lilypond%20scores/ricci%20left%20hand%20examples.ly:878:62:63"
     id="a130423"
     transform="translate(-5.6906,-38.873455)">
    <g
       transform="translate(40.8779,42.7216)"
       id="g130421">
      <path
         transform="scale(0.002,-0.002)"
         d="m 129,149 h 7 c 36,0 74,-13 111,-40 19,-14 40,-21 59,-21 22,0 40,10 46,31 2,7 7,11 13,11 7,0 15,-5 15,-14 v -5 C 361,40 296,0 234,0 196,0 159,15 133,47 121,62 105,69 89,69 60,69 32,48 29,13 28,4 22,0 15,0 8,0 0,5 0,14 c 0,173 233,163 233,341 0,56 -14,116 -62,116 -33,0 -66,-15 -66,-44 0,-24 31,-37 31,-61 0,-34 -27,-61 -61,-61 -34,0 -61,27 -61,61 0,78 74,134 157,134 98,0 191,-55 191,-145 C 362,211 227,199 129,149 Z"
         fill="currentColor"
         id="path130419" />
    </g>
  </a>
  <g
     transform="translate(38.8456,8.9957453)"
     id="g130427">
    <rect
       x="-0.062799998"
       y="-3.1524"
       width="0.12549999"
       height="2.9909999"
       ry="0.039999999"
       fill="currentColor"
       id="rect130425" />
  </g>
  <a
     style="color:inherit"
     xlink:href="textedit://C:/Users/Javier/Documents/lilypond%20scores/ricci%20left%20hand%20examples.ly:878:68:69"
     id="a130433"
     transform="translate(-5.6906,-38.873455)">
    <g
       transform="translate(43.6542,43.414)"
       id="g130431">
      <path
         transform="scale(0.002,-0.002)"
         d="M 129,129 H 259 C 259,77 291,29 340,29 350,29 354,21 354,14 354,7 350,0 340,0 291,0 243,14 194,14 145,14 98,0 49,0 39,0 34,7 34,14 c 0,7 5,15 15,15 49,0 80,48 80,100 z M 0,250 129,500 c 3,7 13,3 21,0 14,-6 28,-14 44,-14 16,0 31,8 45,14 2,1 2,1 4,1 8,0 16,-9 16,-21 V 129 H 129 v 215 c 0,15 -11,23 -20,23 -5,0 -9,-2 -11,-7 L 32,233 c -4,-7 -9,-9 -15,-9 -9,0 -19,7 -19,17 0,3 0,6 2,9 z"
         fill="currentColor"
         id="path130429" />
    </g>
  </a>
  <a
     style="color:inherit"
     xlink:href="textedit://C:/Users/Javier/Documents/lilypond%20scores/ricci%20left%20hand%20examples.ly:878:65:66"
     id="a130439"
     transform="translate(-5.6906,-38.873455)">
    <g
       transform="translate(43.4265,47.8692)"
       id="g130437">
      <path
         transform="scale(0.0036,-0.0036)"
         d="m 215,137 c 57,0 111,-29 111,-92 0,-71 -54,-120 -101,-148 -35,-21 -74,-34 -114,-34 -57,0 -111,29 -111,92 0,71 54,120 101,148 35,21 74,34 114,34 z"
         fill="currentColor"
         id="path130435" />
    </g>
  </a>
  <g
     transform="translate(31.9995,8.5457453)"
     id="g130443">
    <path
       transform="scale(0.0036,-0.0036)"
       d="m -8,375 c 8,5 17,7 26,7 9,0 18,-2 26,-7 l -3,-187 104,21 h 4 c 10,0 18,-8 18,-18 l 7,-566 c -8,-5 -16,-7 -25,-7 -9,0 -18,2 -26,7 l 2,187 -103,-21 h -4 c -10,0 -18,8 -18,18 z M 130,111 40,93 l -3,-204 90,18 z"
       fill="currentColor"
       id="path130441" />
  </g>
  <g
     transform="translate(42.5448,9.4457453)"
     id="g130447">
    <path
       transform="scale(0.0036,-0.0036)"
       d="M 0,0 C 0,31 25,56 56,56 87,56 111,31 111,0 111,-31 87,-56 56,-56 25,-56 0,-31 0,0 Z"
       fill="currentColor"
       id="path130445" />
  </g>
  <g
     transform="translate(40.9637,8.9957453)"
     id="g130451">
    <rect
       x="-0.062799998"
       y="0.67769998"
       width="0.12549999"
       height="2.6222999"
       ry="0.039999999"
       fill="currentColor"
       id="rect130449" />
  </g>
</svg>
