<!-- <?xml version="1.0" encoding="UTF-8" standalone="no"?> -->
<svg
   version="1.2"
   width="190mm"
   height="23.620283mm"
   viewBox="0 0 108.1205 13.441245"
   id="svg134403"
   sodipodi:docname="ricci left hand examples-6.svg"
   xmlns:inkscape="http://www.inkscape.org/namespaces/inkscape"
   xmlns:sodipodi="http://sodipodi.sourceforge.net/DTD/sodipodi-0.dtd"
   xmlns:xlink="http://www.w3.org/1999/xlink"
   xmlns="http://www.w3.org/2000/svg"
   xmlns:svg="http://www.w3.org/2000/svg">
  <defs
     id="defs134407" />
  <sodipodi:namedview
     id="namedview134405"
     pagecolor="#ffffff"
     bordercolor="#000000"
     borderopacity="0.25"
     inkscape:showpageshadow="2"
     inkscape:pageopacity="0.0"
     inkscape:pagecheckerboard="0"
     inkscape:deskcolor="#d1d1d1"
     inkscape:document-units="mm"
     showgrid="false" />
  <style
     type="text/css"
     id="style128413"><![CDATA[
tspan { white-space: pre; }
]]></style>
  <!-- Page: 6/6 -->
  <g
     transform="translate(3.1967416e-8,12.055247)"
     id="g131563">
    <line
       stroke-linejoin="round"
       stroke-linecap="round"
       stroke-width="0.0966"
       stroke="currentColor"
       x1="0.048300002"
       y1="0"
       x2="108.0722"
       y2="0"
       id="line131561" />
  </g>
  <g
     transform="translate(3.1967416e-8,11.155247)"
     id="g131567">
    <line
       stroke-linejoin="round"
       stroke-linecap="round"
       stroke-width="0.0966"
       stroke="currentColor"
       x1="0.048300002"
       y1="0"
       x2="108.0722"
       y2="0"
       id="line131565" />
  </g>
  <g
     transform="translate(3.1967416e-8,10.255247)"
     id="g131571">
    <line
       stroke-linejoin="round"
       stroke-linecap="round"
       stroke-width="0.0966"
       stroke="currentColor"
       x1="0.048300002"
       y1="0"
       x2="108.0722"
       y2="0"
       id="line131569" />
  </g>
  <g
     transform="translate(3.1967416e-8,9.3552465)"
     id="g131575">
    <line
       stroke-linejoin="round"
       stroke-linecap="round"
       stroke-width="0.0966"
       stroke="currentColor"
       x1="0.048300002"
       y1="0"
       x2="108.0722"
       y2="0"
       id="line131573" />
  </g>
  <g
     transform="translate(3.1967416e-8,8.4552465)"
     id="g131579">
    <line
       stroke-linejoin="round"
       stroke-linecap="round"
       stroke-width="0.0966"
       stroke="currentColor"
       x1="0.048300002"
       y1="0"
       x2="108.0722"
       y2="0"
       id="line131577" />
  </g>
  <g
     transform="translate(3.1967416e-8,7.5552465)"
     id="g131583">
    <rect
       x="81.869598"
       y="-0.0933"
       width="1.7588"
       height="0.1866"
       ry="0.0933"
       fill="currentColor"
       id="rect131581" />
  </g>
  <g
     transform="translate(3.1967416e-8,7.5552465)"
     id="g131587">
    <rect
       x="79.763"
       y="-0.0933"
       width="1.7588"
       height="0.1866"
       ry="0.0933"
       fill="currentColor"
       id="rect131585" />
  </g>
  <g
     transform="translate(3.1967416e-8,6.6552465)"
     id="g131591">
    <rect
       x="77.656403"
       y="-0.0933"
       width="1.7588"
       height="0.1866"
       ry="0.0933"
       fill="currentColor"
       id="rect131589" />
  </g>
  <g
     transform="translate(3.1967416e-8,7.5552465)"
     id="g131595">
    <rect
       x="77.656403"
       y="-0.0933"
       width="1.7588"
       height="0.1866"
       ry="0.0933"
       fill="currentColor"
       id="rect131593" />
  </g>
  <g
     transform="translate(3.1967416e-8,6.6552465)"
     id="g131599">
    <rect
       x="75.549797"
       y="-0.0933"
       width="1.7588"
       height="0.1866"
       ry="0.0933"
       fill="currentColor"
       id="rect131597" />
  </g>
  <g
     transform="translate(3.1967416e-8,7.5552465)"
     id="g131603">
    <rect
       x="75.549797"
       y="-0.0933"
       width="1.7588"
       height="0.1866"
       ry="0.0933"
       fill="currentColor"
       id="rect131601" />
  </g>
  <g
     transform="translate(3.1967416e-8,7.5552465)"
     id="g131607">
    <rect
       x="66.873299"
       y="-0.0933"
       width="1.7588"
       height="0.1866"
       ry="0.0933"
       fill="currentColor"
       id="rect131605" />
  </g>
  <g
     transform="translate(3.1967416e-8,7.5552465)"
     id="g131611">
    <rect
       x="64.766701"
       y="-0.0933"
       width="1.7588"
       height="0.1866"
       ry="0.0933"
       fill="currentColor"
       id="rect131609" />
  </g>
  <g
     transform="translate(3.1967416e-8,6.6552465)"
     id="g131615">
    <rect
       x="62.660099"
       y="-0.0933"
       width="1.7588"
       height="0.1866"
       ry="0.0933"
       fill="currentColor"
       id="rect131613" />
  </g>
  <g
     transform="translate(3.1967416e-8,7.5552465)"
     id="g131619">
    <rect
       x="62.660099"
       y="-0.0933"
       width="1.7588"
       height="0.1866"
       ry="0.0933"
       fill="currentColor"
       id="rect131617" />
  </g>
  <g
     transform="translate(3.1967416e-8,6.6552465)"
     id="g131623">
    <rect
       x="59.558601"
       y="-0.0933"
       width="1.7588"
       height="0.1866"
       ry="0.0933"
       fill="currentColor"
       id="rect131621" />
  </g>
  <g
     transform="translate(3.1967416e-8,7.5552465)"
     id="g131627">
    <rect
       x="59.558601"
       y="-0.0933"
       width="1.7588"
       height="0.1866"
       ry="0.0933"
       fill="currentColor"
       id="rect131625" />
  </g>
  <g
     transform="translate(3.1967416e-8,5.7552465)"
     id="g131631">
    <rect
       x="57.452"
       y="-0.0933"
       width="1.7588"
       height="0.1866"
       ry="0.0933"
       fill="currentColor"
       id="rect131629" />
  </g>
  <g
     transform="translate(3.1967416e-8,6.6552465)"
     id="g131635">
    <rect
       x="57.452"
       y="-0.0933"
       width="1.7588"
       height="0.1866"
       ry="0.0933"
       fill="currentColor"
       id="rect131633" />
  </g>
  <g
     transform="translate(3.1967416e-8,7.5552465)"
     id="g131639">
    <rect
       x="57.452"
       y="-0.0933"
       width="1.7588"
       height="0.1866"
       ry="0.0933"
       fill="currentColor"
       id="rect131637" />
  </g>
  <g
     transform="translate(3.1967416e-8,5.7552465)"
     id="g131643">
    <rect
       x="55.345402"
       y="-0.0933"
       width="1.7588"
       height="0.1866"
       ry="0.0933"
       fill="currentColor"
       id="rect131641" />
  </g>
  <g
     transform="translate(3.1967416e-8,6.6552465)"
     id="g131647">
    <rect
       x="55.345402"
       y="-0.0933"
       width="1.7588"
       height="0.1866"
       ry="0.0933"
       fill="currentColor"
       id="rect131645" />
  </g>
  <g
     transform="translate(3.1967416e-8,7.5552465)"
     id="g131651">
    <rect
       x="55.345402"
       y="-0.0933"
       width="1.7588"
       height="0.1866"
       ry="0.0933"
       fill="currentColor"
       id="rect131649" />
  </g>
  <g
     transform="translate(3.1967416e-8,5.7552465)"
     id="g131655">
    <rect
       x="53.2388"
       y="-0.0933"
       width="1.7588"
       height="0.1866"
       ry="0.0933"
       fill="currentColor"
       id="rect131653" />
  </g>
  <g
     transform="translate(3.1967416e-8,6.6552465)"
     id="g131659">
    <rect
       x="53.2388"
       y="-0.0933"
       width="1.7588"
       height="0.1866"
       ry="0.0933"
       fill="currentColor"
       id="rect131657" />
  </g>
  <g
     transform="translate(3.1967416e-8,7.5552465)"
     id="g131663">
    <rect
       x="53.2388"
       y="-0.0933"
       width="1.7588"
       height="0.1866"
       ry="0.0933"
       fill="currentColor"
       id="rect131661" />
  </g>
  <g
     transform="translate(3.1967416e-8,6.6552465)"
     id="g131667">
    <rect
       x="51.132198"
       y="-0.0933"
       width="1.7588"
       height="0.1866"
       ry="0.0933"
       fill="currentColor"
       id="rect131665" />
  </g>
  <g
     transform="translate(3.1967416e-8,7.5552465)"
     id="g131671">
    <rect
       x="51.132198"
       y="-0.0933"
       width="1.7588"
       height="0.1866"
       ry="0.0933"
       fill="currentColor"
       id="rect131669" />
  </g>
  <g
     transform="translate(3.1967416e-8,6.6552465)"
     id="g131675">
    <rect
       x="49.0256"
       y="-0.0933"
       width="1.7588"
       height="0.1866"
       ry="0.0933"
       fill="currentColor"
       id="rect131673" />
  </g>
  <g
     transform="translate(3.1967416e-8,7.5552465)"
     id="g131679">
    <rect
       x="49.0256"
       y="-0.0933"
       width="1.7588"
       height="0.1866"
       ry="0.0933"
       fill="currentColor"
       id="rect131677" />
  </g>
  <g
     transform="translate(3.1967416e-8,7.5552465)"
     id="g131683">
    <rect
       x="46.9189"
       y="-0.0933"
       width="1.7588"
       height="0.1866"
       ry="0.0933"
       fill="currentColor"
       id="rect131681" />
  </g>
  <g
     transform="translate(3.1967416e-8,7.5552465)"
     id="g131687">
    <rect
       x="44.812302"
       y="-0.0933"
       width="1.7588"
       height="0.1866"
       ry="0.0933"
       fill="currentColor"
       id="rect131685" />
  </g>
  <g
     transform="translate(3.1967416e-8,6.6552465)"
     id="g131691">
    <rect
       x="33.284401"
       y="-0.0933"
       width="1.7588"
       height="0.1866"
       ry="0.0933"
       fill="currentColor"
       id="rect131689" />
  </g>
  <g
     transform="translate(3.1967416e-8,7.5552465)"
     id="g131695">
    <rect
       x="33.284401"
       y="-0.0933"
       width="1.7588"
       height="0.1866"
       ry="0.0933"
       fill="currentColor"
       id="rect131693" />
  </g>
  <g
     transform="translate(3.1967416e-8,7.5552465)"
     id="g131699">
    <rect
       x="31.177799"
       y="-0.0933"
       width="1.7588"
       height="0.1866"
       ry="0.0933"
       fill="currentColor"
       id="rect131697" />
  </g>
  <g
     transform="translate(3.1967416e-8,7.5552465)"
     id="g131703">
    <rect
       x="29.071199"
       y="-0.0933"
       width="1.7588"
       height="0.1866"
       ry="0.0933"
       fill="currentColor"
       id="rect131701" />
  </g>
  <g
     transform="translate(106.3767,9.8052465)"
     id="g131707">
    <path
       transform="scale(0.0036,-0.0036)"
       d="M 0,0 C 0,31 25,56 56,56 87,56 111,31 111,0 111,-31 87,-56 56,-56 25,-56 0,-31 0,0 Z"
       fill="currentColor"
       id="path131705" />
  </g>
  <g
     transform="translate(106.3767,10.705247)"
     id="g131711">
    <path
       transform="scale(0.0036,-0.0036)"
       d="M 0,0 C 0,31 25,56 56,56 87,56 111,31 111,0 111,-31 87,-56 56,-56 25,-56 0,-31 0,0 Z"
       fill="currentColor"
       id="path131709" />
  </g>
  <g
     transform="translate(107.541,10.255247)"
     id="g131715">
    <rect
       x="0"
       y="-1.8"
       width="0.5794"
       height="3.5999999"
       ry="0.0000"
       fill="currentColor"
       id="rect131713" />
  </g>
  <g
     transform="translate(107.0678,10.255247)"
     id="g131719">
    <rect
       x="0"
       y="-1.8"
       width="0.18350001"
       height="3.5999999"
       ry="0.0000"
       fill="currentColor"
       id="rect131717" />
  </g>
  <g
     transform="translate(35.6841,10.255247)"
     id="g131723">
    <rect
       x="0"
       y="-1.8"
       width="0.18350001"
       height="3.5999999"
       ry="0.0000"
       fill="currentColor"
       id="rect131721" />
  </g>
  <g
     transform="translate(88.4825,10.255247)"
     id="g131727">
    <rect
       x="0"
       y="-1.8"
       width="0.18350001"
       height="3.5999999"
       ry="0.0000"
       fill="currentColor"
       id="rect131725" />
  </g>
  <g
     transform="translate(61.9583,10.255247)"
     id="g131731">
    <rect
       x="0"
       y="-1.8"
       width="0.18350001"
       height="3.5999999"
       ry="0.0000"
       fill="currentColor"
       id="rect131729" />
  </g>
  <a
     style="color:inherit"
     xlink:href="textedit://C:/Users/Javier/Documents/lilypond%20scores/ricci%20left%20hand%20examples.ly:933:42:43"
     id="a131737"
     transform="translate(-5.6906,-89.304053)">
    <g
       transform="translate(83.64,95.9593)"
       id="g131735">
      <path
         transform="scale(0.0036,-0.0036)"
         d="m 215,137 c 57,0 111,-29 111,-92 0,-71 -54,-120 -101,-148 -35,-21 -74,-34 -114,-34 -57,0 -111,29 -111,92 0,71 54,120 101,148 35,21 74,34 114,34 z"
         fill="currentColor"
         id="path131733" />
    </g>
  </a>
  <g
     transform="translate(79.0592,10.255247)"
     id="g131741">
    <rect
       x="-0.062799998"
       y="-5.8499999"
       width="0.12549999"
       height="2.0885999"
       ry="0.039999999"
       fill="currentColor"
       id="rect131739" />
  </g>
  <a
     style="color:inherit"
     xlink:href="textedit://C:/Users/Javier/Documents/lilypond%20scores/ricci%20left%20hand%20examples.ly:933:44:45"
     id="a131747"
     transform="translate(-5.6906,-89.304053)">
    <g
       transform="translate(85.7467,96.4093)"
       id="g131745">
      <path
         transform="scale(0.0036,-0.0036)"
         d="m 215,137 c 57,0 111,-29 111,-92 0,-71 -54,-120 -101,-148 -35,-21 -74,-34 -114,-34 -57,0 -111,29 -111,92 0,71 54,120 101,148 35,21 74,34 114,34 z"
         fill="currentColor"
         id="path131743" />
    </g>
  </a>
  <g
     transform="translate(81.1658,10.255247)"
     id="g131751">
    <rect
       x="-0.062799998"
       y="-5.5759001"
       width="0.12549999"
       height="2.2644999"
       ry="0.039999999"
       fill="currentColor"
       id="rect131749" />
  </g>
  <a
     style="color:inherit"
     xlink:href="textedit://C:/Users/Javier/Documents/lilypond%20scores/ricci%20left%20hand%20examples.ly:933:22:23"
     id="a131757"
     transform="translate(-5.6906,-89.304053)">
    <g
       transform="translate(79.3875,95.1174)"
       id="g131755">
      <path
         transform="scale(0.002,-0.002)"
         d="m 190,464 c -54,0 -61,-71 -61,-141 v -73 -73 c 0,-70 7,-141 61,-141 54,0 62,71 62,141 0,26 -1,51 -1,73 0,22 1,47 1,73 0,70 -8,141 -62,141 z m 0,36 C 308,500 380,378 380,250 380,122 308,0 190,0 72,0 0,122 0,250 0,378 72,500 190,500 Z"
         fill="currentColor"
         id="path131753" />
    </g>
  </a>
  <g
     transform="translate(76.9526,10.255247)"
     id="g131761">
    <rect
       x="-0.062799998"
       y="-6.1241002"
       width="0.12549999"
       height="1.9127001"
       ry="0.039999999"
       fill="currentColor"
       id="rect131759" />
  </g>
  <a
     style="color:inherit"
     xlink:href="textedit://C:/Users/Javier/Documents/lilypond%20scores/ricci%20left%20hand%20examples.ly:933:39:40"
     id="a131767"
     transform="translate(-5.6906,-89.304053)">
    <g
       transform="translate(81.6929,92.2014)"
       id="g131765">
      <path
         transform="scale(0.002,-0.002)"
         d="m 198,284 c 24,15 48,29 65,52 12,16 19,34 28,52 2,5 6,7 11,7 8,0 16,-6 16,-17 V 161 h 79 c 12,0 18,-9 18,-18 0,-9 -6,-18 -18,-18 h -79 c 2,-51 33,-96 80,-96 10,0 15,-8 15,-15 C 413,7 408,0 398,0 349,0 302,14 253,14 204,14 156,0 107,0 97,0 93,7 93,14 c 0,7 4,15 14,15 47,0 79,45 81,96 H 36 c -29,0 -38,17 -38,28 0,3 1,6 2,8 78,88 123,201 123,319 0,11 8,21 17,21 1,0 3,-1 4,-1 25,-7 50,-14 76,-14 26,0 52,7 77,14 2,1 4,1 6,1 10,0 17,-7 17,-14 0,-2 0,-5 -2,-7 L 36,161 h 152 v 96 c 0,10 1,21 10,27 z"
         fill="currentColor"
         id="path131763" />
    </g>
  </a>
  <a
     style="color:inherit"
     xlink:href="textedit://C:/Users/Javier/Documents/lilypond%20scores/ricci%20left%20hand%20examples.ly:933:38:39"
     id="a131773"
     transform="translate(-5.6906,-89.304053)">
    <g
       transform="translate(81.5334,95.5093)"
       id="g131771">
      <path
         transform="scale(0.0036,-0.0036)"
         d="m 215,137 c 57,0 111,-29 111,-92 0,-71 -54,-120 -101,-148 -35,-21 -74,-34 -114,-34 -57,0 -111,29 -111,92 0,71 54,120 101,148 35,21 74,34 114,34 z"
         fill="currentColor"
         id="path131769" />
    </g>
  </a>
  <g
     transform="translate(74.596,10.255247)"
     id="g131777">
    <rect
       x="-0.062799998"
       y="-3.7758999"
       width="0.12549999"
       height="2.2644999"
       ry="0.039999999"
       fill="currentColor"
       id="rect131775" />
  </g>
  <g
     transform="translate(90.5871,10.255247)"
     id="g131781">
    <rect
       x="-0.062799998"
       y="-3.4240999"
       width="0.12549999"
       height="1.9127001"
       ry="0.039999999"
       fill="currentColor"
       id="rect131779" />
  </g>
  <a
     style="color:inherit"
     xlink:href="textedit://C:/Users/Javier/Documents/lilypond%20scores/ricci%20left%20hand%20examples.ly:939:15:16"
     id="a131787"
     transform="translate(-5.6906,-89.304053)">
    <g
       transform="translate(95.168,100.0093)"
       id="g131785">
      <path
         transform="scale(0.0036,-0.0036)"
         d="m 211,111 c -49,0 -68,-43 -68,-88 0,-75 57,-134 132,-134 49,0 68,43 68,88 0,75 -57,134 -132,134 z M 486,0 c 0,-43 -33,-76 -71,-97 -52,-29 -112,-40 -172,-40 -60,0 -120,11 -172,40 -38,21 -71,54 -71,97 0,43 33,76 71,97 52,29 112,40 172,40 60,0 120,-11 172,-40 38,-21 71,-54 71,-97 z"
         fill="currentColor"
         id="path131783" />
    </g>
  </a>
  <a
     style="color:inherit"
     xlink:href="textedit://C:/Users/Javier/Documents/lilypond%20scores/ricci%20left%20hand%20examples.ly:934:8:9"
     id="a131793"
     transform="translate(-5.6906,-89.304053)">
    <g
       transform="translate(95.3786,95.4691)"
       id="g131791">
      <path
         transform="scale(0.002,-0.002)"
         d="m 190,464 c -54,0 -61,-71 -61,-141 v -73 -73 c 0,-70 7,-141 61,-141 54,0 62,71 62,141 0,26 -1,51 -1,73 0,22 1,47 1,73 0,70 -8,141 -62,141 z m 0,36 C 308,500 380,378 380,250 380,122 308,0 190,0 72,0 0,122 0,250 0,378 72,500 190,500 Z"
         fill="currentColor"
         id="path131789" />
    </g>
  </a>
  <a
     style="color:inherit"
     xlink:href="textedit://C:/Users/Javier/Documents/lilypond%20scores/ricci%20left%20hand%20examples.ly:934:10:11"
     id="a131799"
     transform="translate(-5.6906,-89.304053)">
    <g
       transform="translate(95.3786,93.9948)"
       id="g131797">
      <path
         transform="scale(0.002,-0.002)"
         d="m 190,464 c -54,0 -61,-71 -61,-141 v -73 -73 c 0,-70 7,-141 61,-141 54,0 62,71 62,141 0,26 -1,51 -1,73 0,22 1,47 1,73 0,70 -8,141 -62,141 z m 0,36 C 308,500 380,378 380,250 380,122 308,0 190,0 72,0 0,122 0,250 0,378 72,500 190,500 Z"
         fill="currentColor"
         id="path131795" />
    </g>
  </a>
  <a
     style="color:inherit"
     xlink:href="textedit://C:/Users/Javier/Documents/lilypond%20scores/ricci%20left%20hand%20examples.ly:934:6:7"
     id="a131805"
     transform="translate(-5.6906,-89.304053)">
    <g
       transform="translate(95.168,98.2093)"
       id="g131803">
      <path
         transform="scale(0.0036,-0.0036)"
         d="m 215,137 c 57,0 111,-29 111,-92 0,-71 -54,-120 -101,-148 -35,-21 -74,-34 -114,-34 -57,0 -111,29 -111,92 0,71 54,120 101,148 35,21 74,34 114,34 z"
         fill="currentColor"
         id="path131801" />
    </g>
  </a>
  <g
     transform="translate(87.4857,10.255247)"
     id="g131809">
    <rect
       x="-0.062799998"
       y="-4.3411999"
       width="0.12549999"
       height="2.3798001"
       ry="0.039999999"
       fill="currentColor"
       id="rect131807" />
  </g>
  <a
     style="color:inherit"
     xlink:href="textedit://C:/Users/Javier/Documents/lilypond%20scores/ricci%20left%20hand%20examples.ly:933:52:53"
     id="a131815"
     transform="translate(-5.6906,-89.304053)">
    <g
       transform="translate(92.0665,97.7593)"
       id="g131813">
      <path
         transform="scale(0.0036,-0.0036)"
         d="m 215,137 c 57,0 111,-29 111,-92 0,-71 -54,-120 -101,-148 -35,-21 -74,-34 -114,-34 -57,0 -111,29 -111,92 0,71 54,120 101,148 35,21 74,34 114,34 z"
         fill="currentColor"
         id="path131811" />
    </g>
  </a>
  <g
     transform="translate(85.379,10.255247)"
     id="g131819">
    <rect
       x="-0.062799998"
       y="-4.6410999"
       width="0.12549999"
       height="2.2297001"
       ry="0.039999999"
       fill="currentColor"
       id="rect131817" />
  </g>
  <a
     style="color:inherit"
     xlink:href="textedit://C:/Users/Javier/Documents/lilypond%20scores/ricci%20left%20hand%20examples.ly:933:50:51"
     id="a131825"
     transform="translate(-5.6906,-89.304053)">
    <g
       transform="translate(89.9599,97.3093)"
       id="g131823">
      <path
         transform="scale(0.0036,-0.0036)"
         d="m 215,137 c 57,0 111,-29 111,-92 0,-71 -54,-120 -101,-148 -35,-21 -74,-34 -114,-34 -57,0 -111,29 -111,92 0,71 54,120 101,148 35,21 74,34 114,34 z"
         fill="currentColor"
         id="path131821" />
    </g>
  </a>
  <g
     transform="translate(83.2724,10.255247)"
     id="g131829">
    <rect
       x="-0.062799998"
       y="-4.9411001"
       width="0.12549999"
       height="2.0796001"
       ry="0.039999999"
       fill="currentColor"
       id="rect131827" />
  </g>
  <a
     style="color:inherit"
     xlink:href="textedit://C:/Users/Javier/Documents/lilypond%20scores/ricci%20left%20hand%20examples.ly:933:48:49"
     id="a131835"
     transform="translate(-5.6906,-89.304053)">
    <g
       transform="translate(87.8533,96.8593)"
       id="g131833">
      <path
         transform="scale(0.0036,-0.0036)"
         d="m 215,137 c 57,0 111,-29 111,-92 0,-71 -54,-120 -101,-148 -35,-21 -74,-34 -114,-34 -57,0 -111,29 -111,92 0,71 54,120 101,148 35,21 74,34 114,34 z"
         fill="currentColor"
         id="path131831" />
    </g>
  </a>
  <g
     transform="translate(64.0629,10.255247)"
     id="g131839">
    <rect
       x="-0.062799998"
       y="-5.8411002"
       width="0.12549999"
       height="2.0796001"
       ry="0.039999999"
       fill="currentColor"
       id="rect131837" />
  </g>
  <a
     style="color:inherit"
     xlink:href="textedit://C:/Users/Javier/Documents/lilypond%20scores/ricci%20left%20hand%20examples.ly:939:13:14"
     id="a131845"
     transform="translate(-5.6906,-89.304053)">
    <g
       transform="translate(68.6438,100.0093)"
       id="g131843">
      <path
         transform="scale(0.0036,-0.0036)"
         d="m 211,111 c -49,0 -68,-43 -68,-88 0,-75 57,-134 132,-134 49,0 68,43 68,88 0,75 -57,134 -132,134 z M 486,0 c 0,-43 -33,-76 -71,-97 -52,-29 -112,-40 -172,-40 -60,0 -120,11 -172,40 -38,21 -71,54 -71,97 0,43 33,76 71,97 52,29 112,40 172,40 60,0 120,-11 172,-40 38,-21 71,-54 71,-97 z"
         fill="currentColor"
         id="path131841" />
    </g>
  </a>
  <a
     style="color:inherit"
     xlink:href="textedit://C:/Users/Javier/Documents/lilypond%20scores/ricci%20left%20hand%20examples.ly:933:6:7"
     id="a131851"
     transform="translate(-5.6906,-89.304053)">
    <g
       transform="translate(68.6438,95.9593)"
       id="g131849">
      <path
         transform="scale(0.0036,-0.0036)"
         d="m 215,137 c 57,0 111,-29 111,-92 0,-71 -54,-120 -101,-148 -35,-21 -74,-34 -114,-34 -57,0 -111,29 -111,92 0,71 54,120 101,148 35,21 74,34 114,34 z"
         fill="currentColor"
         id="path131847" />
    </g>
  </a>
  <g
     transform="translate(60.9615,10.255247)"
     id="g131855">
    <rect
       x="-0.062799998"
       y="-6.4759002"
       width="0.12549999"
       height="2.2644999"
       ry="0.039999999"
       fill="currentColor"
       id="rect131853" />
  </g>
  <a
     style="color:inherit"
     xlink:href="textedit://C:/Users/Javier/Documents/lilypond%20scores/ricci%20left%20hand%20examples.ly:932:43:44"
     id="a131861"
     transform="translate(-5.6906,-89.304053)">
    <g
       transform="translate(65.5423,95.5093)"
       id="g131859">
      <path
         transform="scale(0.0036,-0.0036)"
         d="m 215,137 c 57,0 111,-29 111,-92 0,-71 -54,-120 -101,-148 -35,-21 -74,-34 -114,-34 -57,0 -111,29 -111,92 0,71 54,120 101,148 35,21 74,34 114,34 z"
         fill="currentColor"
         id="path131857" />
    </g>
  </a>
  <a
     style="color:inherit"
     xlink:href="textedit://C:/Users/Javier/Documents/lilypond%20scores/ricci%20left%20hand%20examples.ly:930:8:9"
     id="a131867"
     transform="translate(-5.6906,-89.304053)">
    <g
       transform="translate(16.0954,99.5593)"
       id="g131865">
      <path
         stroke-width="0.0773"
         stroke-linejoin="round"
         stroke-linecap="round"
         stroke="currentColor"
         fill="currentColor"
         d="m 1.0455,-2.6419 c 2.138,-2.0164 20.496,-5.0784 23.1727,-3.8652 v 0 C 21.5605,-7.606 3.2025,-4.5439 1.0455,-2.6419 Z"
         id="path131863" />
    </g>
  </a>
  <a
     style="color:inherit"
     xlink:href="textedit://C:/Users/Javier/Documents/lilypond%20scores/ricci%20left%20hand%20examples.ly:933:21:22"
     id="a131873"
     transform="translate(-5.6906,-89.304053)">
    <g
       transform="translate(79.1768,98.2093)"
       id="g131871">
      <path
         transform="scale(0.0036,-0.0036)"
         d="m 215,137 c 57,0 111,-29 111,-92 0,-71 -54,-120 -101,-148 -35,-21 -74,-34 -114,-34 -57,0 -111,29 -111,92 0,71 54,120 101,148 35,21 74,34 114,34 z"
         fill="currentColor"
         id="path131869" />
    </g>
  </a>
  <g
     transform="translate(72.4894,10.255247)"
     id="g131877">
    <rect
       x="-0.062799998"
       y="-4.0500002"
       width="0.12549999"
       height="2.0885999"
       ry="0.039999999"
       fill="currentColor"
       id="rect131875" />
  </g>
  <a
     style="color:inherit"
     xlink:href="textedit://C:/Users/Javier/Documents/lilypond%20scores/ricci%20left%20hand%20examples.ly:933:19:20"
     id="a131883"
     transform="translate(-5.6906,-89.304053)">
    <g
       transform="translate(77.0702,97.7593)"
       id="g131881">
      <path
         transform="scale(0.0036,-0.0036)"
         d="m 215,137 c 57,0 111,-29 111,-92 0,-71 -54,-120 -101,-148 -35,-21 -74,-34 -114,-34 -57,0 -111,29 -111,92 0,71 54,120 101,148 35,21 74,34 114,34 z"
         fill="currentColor"
         id="path131879" />
    </g>
  </a>
  <g
     transform="translate(70.3828,10.255247)"
     id="g131887">
    <rect
       x="-0.062799998"
       y="-4.3241"
       width="0.12549999"
       height="1.9127001"
       ry="0.039999999"
       fill="currentColor"
       id="rect131885" />
  </g>
  <a
     style="color:inherit"
     xlink:href="textedit://C:/Users/Javier/Documents/lilypond%20scores/ricci%20left%20hand%20examples.ly:933:17:18"
     id="a131893"
     transform="translate(-5.6906,-89.304053)">
    <g
       transform="translate(74.9636,97.3093)"
       id="g131891">
      <path
         transform="scale(0.0036,-0.0036)"
         d="m 215,137 c 57,0 111,-29 111,-92 0,-71 -54,-120 -101,-148 -35,-21 -74,-34 -114,-34 -57,0 -111,29 -111,92 0,71 54,120 101,148 35,21 74,34 114,34 z"
         fill="currentColor"
         id="path131889" />
    </g>
  </a>
  <a
     style="color:inherit"
     xlink:href="textedit://C:/Users/Javier/Documents/lilypond%20scores/ricci%20left%20hand%20examples.ly:933:24:25"
     id="a131899"
     transform="translate(-5.6906,-89.304053)">
    <g
       transform="translate(79.4046,93.6431)"
       id="g131897">
      <path
         transform="scale(0.002,-0.002)"
         d="M 129,129 H 259 C 259,77 291,29 340,29 350,29 354,21 354,14 354,7 350,0 340,0 291,0 243,14 194,14 145,14 98,0 49,0 39,0 34,7 34,14 c 0,7 5,15 15,15 49,0 80,48 80,100 z M 0,250 129,500 c 3,7 13,3 21,0 14,-6 28,-14 44,-14 16,0 31,8 45,14 2,1 2,1 4,1 8,0 16,-9 16,-21 V 129 H 129 v 215 c 0,15 -11,23 -20,23 -5,0 -9,-2 -11,-7 L 32,233 c -4,-7 -9,-9 -15,-9 -9,0 -19,7 -19,17 0,3 0,6 2,9 z"
         fill="currentColor"
         id="path131895" />
    </g>
  </a>
  <g
     transform="translate(68.2761,10.255247)"
     id="g131903">
    <rect
       x="-0.062799998"
       y="-5.2412"
       width="0.12549999"
       height="2.3798001"
       ry="0.039999999"
       fill="currentColor"
       id="rect131901" />
  </g>
  <a
     style="color:inherit"
     xlink:href="textedit://C:/Users/Javier/Documents/lilypond%20scores/ricci%20left%20hand%20examples.ly:933:14:15"
     id="a131909"
     transform="translate(-5.6906,-89.304053)">
    <g
       transform="translate(73.1018,93.652)"
       id="g131907">
      <path
         transform="scale(0.002,-0.002)"
         d="m 155,471 c -34,0 -70,-8 -70,-38 0,-19 31,-23 31,-42 0,-28 -23,-51 -51,-51 -28,0 -51,23 -51,51 0,67 68,109 141,109 93,0 174,-31 174,-113 0,-41 -6,-77 -42,-94 -11,-5 -17,-16 -17,-27 0,-11 6,-22 17,-27 40,-19 59,-53 59,-98 C 346,47 263,0 160,0 78,0 0,45 0,119 c 0,32 26,58 58,58 32,0 58,-26 58,-58 0,-22 -36,-26 -36,-48 0,-33 42,-42 80,-42 46,0 56,58 56,112 v 38 c 0,40 -4,69 -43,69 H 99 c -12,0 -18,9 -18,18 0,9 6,18 18,18 h 74 c 40,0 43,31 43,73 v 30 c 0,50 -16,84 -61,84 z"
         fill="currentColor"
         id="path131905" />
    </g>
  </a>
  <a
     style="color:inherit"
     xlink:href="textedit://C:/Users/Javier/Documents/lilypond%20scores/ricci%20left%20hand%20examples.ly:933:13:14"
     id="a131915"
     transform="translate(-5.6906,-89.304053)">
    <g
       transform="translate(72.857,96.8593)"
       id="g131913">
      <path
         transform="scale(0.0036,-0.0036)"
         d="m 215,137 c 57,0 111,-29 111,-92 0,-71 -54,-120 -101,-148 -35,-21 -74,-34 -114,-34 -57,0 -111,29 -111,92 0,71 54,120 101,148 35,21 74,34 114,34 z"
         fill="currentColor"
         id="path131911" />
    </g>
  </a>
  <g
     transform="translate(66.1695,10.255247)"
     id="g131919">
    <rect
       x="-0.062799998"
       y="-5.5411"
       width="0.12549999"
       height="2.2297001"
       ry="0.039999999"
       fill="currentColor"
       id="rect131917" />
  </g>
  <a
     style="color:inherit"
     xlink:href="textedit://C:/Users/Javier/Documents/lilypond%20scores/ricci%20left%20hand%20examples.ly:933:9:10"
     id="a131925"
     transform="translate(-5.6906,-89.304053)">
    <g
       transform="translate(70.7504,96.4093)"
       id="g131923">
      <path
         transform="scale(0.0036,-0.0036)"
         d="m 215,137 c 57,0 111,-29 111,-92 0,-71 -54,-120 -101,-148 -35,-21 -74,-34 -114,-34 -57,0 -111,29 -111,92 0,71 54,120 101,148 35,21 74,34 114,34 z"
         fill="currentColor"
         id="path131921" />
    </g>
  </a>
  <g
     transform="translate(64.0001,4.4052465)"
     id="g131931">
    <polygon
       stroke-linejoin="round"
       stroke-linecap="round"
       stroke-width="0.08"
       fill="currentColor"
       stroke="currentColor"
       points="4.2988,0.4417 4.2988,0.7937 0.04,0.176 0.04,-0.176 "
       id="polygon131929" />
  </g>
  <g
     transform="translate(70.32,5.9229465)"
     id="g131937">
    <polygon
       stroke-linejoin="round"
       stroke-linecap="round"
       stroke-width="0.08"
       fill="currentColor"
       stroke="currentColor"
       points="4.2988,0.3886 4.2988,0.7406 0.04,0.176 0.04,-0.176 "
       id="polygon131935" />
  </g>
  <g
     transform="translate(76.8898,4.1229465)"
     id="g131943">
    <polygon
       stroke-linejoin="round"
       stroke-linecap="round"
       stroke-width="0.08"
       fill="currentColor"
       stroke="currentColor"
       points="4.2988,0.3886 4.2988,0.7406 0.04,0.176 0.04,-0.176 "
       id="polygon131941" />
  </g>
  <g
     transform="translate(83.2097,5.3052465)"
     id="g131947">
    <polygon
       stroke-linejoin="round"
       stroke-linecap="round"
       stroke-width="0.08"
       fill="currentColor"
       stroke="currentColor"
       points="4.2988,0.4417 4.2988,0.7937 0.04,0.176 0.04,-0.176 "
       id="polygon131945" />
  </g>
  <a
     style="color:inherit"
     xlink:href="textedit://C:/Users/Javier/Documents/lilypond%20scores/ricci%20left%20hand%20examples.ly:934:7:8"
     id="a131953"
     transform="translate(-5.6906,-89.304053)">
    <g
       transform="translate(95.168,99.5593)"
       id="g131951">
      <path
         stroke-width="0.0773"
         stroke-linejoin="round"
         stroke-linecap="round"
         stroke="currentColor"
         fill="currentColor"
         d="m 1.1645,-4.0901 c 2.1119,-1.1812 11.0109,0.0763 12.7129,1.7963 v 0 C 12.1591,-3.8991 3.2602,-5.1565 1.1645,-4.0901 Z"
         id="path131949" />
    </g>
  </a>
  <g
     transform="translate(90.5243,6.8229465)"
     id="g131961">
    <polygon
       stroke-linejoin="round"
       stroke-linecap="round"
       stroke-width="0.08"
       fill="currentColor"
       stroke="currentColor"
       points="4.2988,0.3886 4.2988,0.7406 0.04,0.176 0.04,-0.176 "
       id="polygon131959" />
  </g>
  <g
     transform="translate(96.8442,7.7229465)"
     id="g131967">
    <polygon
       stroke-linejoin="round"
       stroke-linecap="round"
       stroke-width="0.08"
       fill="currentColor"
       stroke="currentColor"
       points="4.2988,0.3886 4.2988,0.7406 0.04,0.176 0.04,-0.176 "
       id="polygon131965" />
  </g>
  <g
     transform="translate(101.1202,10.255247)"
     id="g131971">
    <rect
       x="-0.062799998"
       y="-1.9759001"
       width="0.12549999"
       height="2.7145"
       ry="0.039999999"
       fill="currentColor"
       id="rect131969" />
  </g>
  <a
     style="color:inherit"
     xlink:href="textedit://C:/Users/Javier/Documents/lilypond%20scores/ricci%20left%20hand%20examples.ly:934:31:32"
     id="a131977"
     transform="translate(-5.6906,-89.304053)">
    <g
       transform="translate(105.701,100.4593)"
       id="g131975">
      <path
         transform="scale(0.0036,-0.0036)"
         d="m 215,137 c 57,0 111,-29 111,-92 0,-71 -54,-120 -101,-148 -35,-21 -74,-34 -114,-34 -57,0 -111,29 -111,92 0,71 54,120 101,148 35,21 74,34 114,34 z"
         fill="currentColor"
         id="path131973" />
    </g>
  </a>
  <a
     style="color:inherit"
     xlink:href="textedit://C:/Users/Javier/Documents/lilypond%20scores/ricci%20left%20hand%20examples.ly:934:33:34"
     id="a131983"
     transform="translate(-5.6906,-89.304053)">
    <g
       transform="translate(107.8076,100.9093)"
       id="g131981">
      <path
         transform="scale(0.0036,-0.0036)"
         d="m 312,64 c 0,24 -20,41 -41,41 -4,0 -8,-1 -12,-2 C 229,94 182,65 146,41 110,17 63,-13 43,-37 36,-45 33,-54 33,-64 c 0,-24 20,-41 41,-41 4,0 8,1 12,2 30,9 77,38 113,62 36,24 83,54 103,78 7,8 10,17 10,27 z m -53,73 c 48,0 86,-22 86,-74 0,-18 -4,-38 -10,-56 -12,-38 -30,-73 -63,-95 -53,-36 -113,-49 -186,-49 -48,0 -86,22 -86,74 0,18 4,38 10,56 12,38 31,73 64,95 53,36 112,49 185,49 z"
         fill="currentColor"
         id="path131979" />
    </g>
  </a>
  <g
     transform="translate(11.4517,8.2875465)"
     id="g131991">
    <polygon
       stroke-linejoin="round"
       stroke-linecap="round"
       stroke-width="0.08"
       fill="currentColor"
       stroke="currentColor"
       points="4.2988,-0.7406 4.2988,-0.3886 0.04,0.176 0.04,-0.176 "
       id="polygon131989" />
  </g>
  <g
     transform="translate(17.7716,7.7229465)"
     id="g131997">
    <polygon
       stroke-linejoin="round"
       stroke-linecap="round"
       stroke-width="0.08"
       fill="currentColor"
       stroke="currentColor"
       points="4.2988,-0.7937 4.2988,-0.4417 0.04,0.176 0.04,-0.176 "
       id="polygon131995" />
  </g>
  <g
     transform="translate(24.0914,6.4875465)"
     id="g132003">
    <polygon
       stroke-linejoin="round"
       stroke-linecap="round"
       stroke-width="0.08"
       fill="currentColor"
       stroke="currentColor"
       points="4.2988,-0.7406 4.2988,-0.3886 0.04,0.176 0.04,-0.176 "
       id="polygon132001" />
  </g>
  <g
     transform="translate(30.4113,5.0229465)"
     id="g132007">
    <polygon
       stroke-linejoin="round"
       stroke-linecap="round"
       stroke-width="0.08"
       fill="currentColor"
       stroke="currentColor"
       points="4.2988,-0.7937 4.2988,-0.4417 0.04,0.176 0.04,-0.176 "
       id="polygon132005" />
  </g>
  <a
     style="color:inherit"
     xlink:href="textedit://C:/Users/Javier/Documents/lilypond%20scores/ricci%20left%20hand%20examples.ly:932:7:8"
     id="a132013"
     transform="translate(-5.6906,-89.304053)">
    <g
       transform="translate(42.3696,99.5593)"
       id="g132011">
      <path
         stroke-width="0.0773"
         stroke-linejoin="round"
         stroke-linecap="round"
         stroke="currentColor"
         fill="currentColor"
         d="m 1.0516,-4.1072 c 2.1682,-1.9811 20.5179,-4.7404 23.1728,-3.4847 v 0 C 21.5867,-8.733 3.237,-5.9737 1.0516,-4.1072 Z"
         id="path132009" />
    </g>
  </a>
  <g
     transform="translate(35.879,1.3380465)"
     id="g132021">
    <text
       font-family="serif"
       font-weight="bold"
       font-style="italic"
       font-size="1.98px"
       text-anchor="start"
       fill="currentColor"
       id="text132019"><tspan
         id="tspan132017">8</tspan></text>
  </g>
  <g
     transform="translate(37.1691,0.68934652)"
     id="g132025">
    <line
       stroke-linejoin="round"
       stroke-linecap="round"
       stroke-width="0.0966"
       stroke="currentColor"
       x1="38.0896"
       y1="0"
       x2="38.0896"
       y2="0.80000001"
       id="line132023" />
  </g>
  <g
     transform="translate(37.1691,0.68934652)"
     id="g132029">
    <line
       stroke-linejoin="round"
       stroke-linecap="round"
       stroke-width="0.0966"
       stroke="currentColor"
       x1="0"
       y1="0"
       x2="0"
       y2="0"
       id="line132027" />
  </g>
  <g
     transform="translate(37.1691,0.68934652)"
     id="g132033">
    <line
       stroke-linejoin="round"
       stroke-linecap="round"
       stroke-width="0.0966"
       stroke="currentColor"
       x1="0"
       y1="0"
       x2="38.0896"
       y2="0"
       stroke-dasharray="0.270139, 0.630325"
       id="line132031" />
  </g>
  <g
     transform="translate(37.7259,6.8229465)"
     id="g132039">
    <polygon
       stroke-linejoin="round"
       stroke-linecap="round"
       stroke-width="0.08"
       fill="currentColor"
       stroke="currentColor"
       points="4.2988,-0.7937 4.2988,-0.4417 0.04,0.176 0.04,-0.176 "
       id="polygon132037" />
  </g>
  <g
     transform="translate(44.0458,5.5875465)"
     id="g132045">
    <polygon
       stroke-linejoin="round"
       stroke-linecap="round"
       stroke-width="0.08"
       fill="currentColor"
       stroke="currentColor"
       points="4.2988,-0.7406 4.2988,-0.3886 0.04,0.176 0.04,-0.176 "
       id="polygon132043" />
  </g>
  <g
     transform="translate(50.3656,4.1229465)"
     id="g132051">
    <polygon
       stroke-linejoin="round"
       stroke-linecap="round"
       stroke-width="0.08"
       fill="currentColor"
       stroke="currentColor"
       points="4.2988,-0.7937 4.2988,-0.4417 0.04,0.176 0.04,-0.176 "
       id="polygon132049" />
  </g>
  <g
     transform="translate(56.6855,3.2229465)"
     id="g132055">
    <polygon
       stroke-linejoin="round"
       stroke-linecap="round"
       stroke-width="0.08"
       fill="currentColor"
       stroke="currentColor"
       points="4.2988,0.3886 4.2988,0.7406 0.04,0.176 0.04,-0.176 "
       id="polygon132053" />
  </g>
  <a
     style="color:inherit"
     xlink:href="textedit://C:/Users/Javier/Documents/lilypond%20scores/ricci%20left%20hand%20examples.ly:933:7:8"
     id="a132061"
     transform="translate(-5.6906,-89.304053)">
    <g
       transform="translate(68.6438,99.5593)"
       id="g132059">
      <path
         stroke-width="0.0773"
         stroke-linejoin="round"
         stroke-linecap="round"
         stroke="currentColor"
         fill="currentColor"
         d="M 1.1273,-6.5071 C 3.6371,-8.0329 22.1867,-7.2015 24.55,-5.4572 v 0 C 22.1815,-7.0857 3.632,-7.9172 1.1273,-6.5071 Z"
         id="path132057" />
    </g>
  </a>
  <g
     transform="translate(92.6937,10.255247)"
     id="g132067">
    <rect
       x="-0.062799998"
       y="-3.1500001"
       width="0.12549999"
       height="2.0885999"
       ry="0.039999999"
       fill="currentColor"
       id="rect132065" />
  </g>
  <a
     style="color:inherit"
     xlink:href="textedit://C:/Users/Javier/Documents/lilypond%20scores/ricci%20left%20hand%20examples.ly:934:14:15"
     id="a132073"
     transform="translate(-5.6906,-89.304053)">
    <g
       transform="translate(97.434,94.8655)"
       id="g132071">
      <path
         transform="scale(0.002,-0.002)"
         d="m 198,284 c 24,15 48,29 65,52 12,16 19,34 28,52 2,5 6,7 11,7 8,0 16,-6 16,-17 V 161 h 79 c 12,0 18,-9 18,-18 0,-9 -6,-18 -18,-18 h -79 c 2,-51 33,-96 80,-96 10,0 15,-8 15,-15 C 413,7 408,0 398,0 349,0 302,14 253,14 204,14 156,0 107,0 97,0 93,7 93,14 c 0,7 4,15 14,15 47,0 79,45 81,96 H 36 c -29,0 -38,17 -38,28 0,3 1,6 2,8 78,88 123,201 123,319 0,11 8,21 17,21 1,0 3,-1 4,-1 25,-7 50,-14 76,-14 26,0 52,7 77,14 2,1 4,1 6,1 10,0 17,-7 17,-14 0,-2 0,-5 -2,-7 L 36,161 h 152 v 96 c 0,10 1,21 10,27 z"
         fill="currentColor"
         id="path132069" />
    </g>
  </a>
  <a
     style="color:inherit"
     xlink:href="textedit://C:/Users/Javier/Documents/lilypond%20scores/ricci%20left%20hand%20examples.ly:934:16:17"
     id="a132079"
     transform="translate(-5.6906,-89.304053)">
    <g
       transform="translate(97.5194,93.3912)"
       id="g132077">
      <path
         transform="scale(0.002,-0.002)"
         d="m 155,471 c -34,0 -70,-8 -70,-38 0,-19 31,-23 31,-42 0,-28 -23,-51 -51,-51 -28,0 -51,23 -51,51 0,67 68,109 141,109 93,0 174,-31 174,-113 0,-41 -6,-77 -42,-94 -11,-5 -17,-16 -17,-27 0,-11 6,-22 17,-27 40,-19 59,-53 59,-98 C 346,47 263,0 160,0 78,0 0,45 0,119 c 0,32 26,58 58,58 32,0 58,-26 58,-58 0,-22 -36,-26 -36,-48 0,-33 42,-42 80,-42 46,0 56,58 56,112 v 38 c 0,40 -4,69 -43,69 H 99 c -12,0 -18,9 -18,18 0,9 6,18 18,18 h 74 c 40,0 43,31 43,73 v 30 c 0,50 -16,84 -61,84 z"
         fill="currentColor"
         id="path132075" />
    </g>
  </a>
  <a
     style="color:inherit"
     xlink:href="textedit://C:/Users/Javier/Documents/lilypond%20scores/ricci%20left%20hand%20examples.ly:934:13:14"
     id="a132085"
     transform="translate(-5.6906,-89.304053)">
    <g
       transform="translate(97.2746,98.6593)"
       id="g132083">
      <path
         transform="scale(0.0036,-0.0036)"
         d="m 215,137 c 57,0 111,-29 111,-92 0,-71 -54,-120 -101,-148 -35,-21 -74,-34 -114,-34 -57,0 -111,29 -111,92 0,71 54,120 101,148 35,21 74,34 114,34 z"
         fill="currentColor"
         id="path132081" />
    </g>
  </a>
  <g
     transform="translate(99.0136,10.255247)"
     id="g132089">
    <rect
       x="-0.062799998"
       y="-2.25"
       width="0.12549999"
       height="2.5386"
       ry="0.039999999"
       fill="currentColor"
       id="rect132087" />
  </g>
  <a
     style="color:inherit"
     xlink:href="textedit://C:/Users/Javier/Documents/lilypond%20scores/ricci%20left%20hand%20examples.ly:934:26:27"
     id="a132095"
     transform="translate(-5.6906,-89.304053)">
    <g
       transform="translate(103.7539,95.2658)"
       id="g132093">
      <path
         transform="scale(0.002,-0.002)"
         d="m 198,284 c 24,15 48,29 65,52 12,16 19,34 28,52 2,5 6,7 11,7 8,0 16,-6 16,-17 V 161 h 79 c 12,0 18,-9 18,-18 0,-9 -6,-18 -18,-18 h -79 c 2,-51 33,-96 80,-96 10,0 15,-8 15,-15 C 413,7 408,0 398,0 349,0 302,14 253,14 204,14 156,0 107,0 97,0 93,7 93,14 c 0,7 4,15 14,15 47,0 79,45 81,96 H 36 c -29,0 -38,17 -38,28 0,3 1,6 2,8 78,88 123,201 123,319 0,11 8,21 17,21 1,0 3,-1 4,-1 25,-7 50,-14 76,-14 26,0 52,7 77,14 2,1 4,1 6,1 10,0 17,-7 17,-14 0,-2 0,-5 -2,-7 L 36,161 h 152 v 96 c 0,10 1,21 10,27 z"
         fill="currentColor"
         id="path132091" />
    </g>
  </a>
  <a
     style="color:inherit"
     xlink:href="textedit://C:/Users/Javier/Documents/lilypond%20scores/ricci%20left%20hand%20examples.ly:934:28:29"
     id="a132101"
     transform="translate(-5.6906,-89.304053)">
    <g
       transform="translate(103.8051,93.7915)"
       id="g132099">
      <path
         transform="scale(0.002,-0.002)"
         d="m 190,464 c -54,0 -61,-71 -61,-141 v -73 -73 c 0,-70 7,-141 61,-141 54,0 62,71 62,141 0,26 -1,51 -1,73 0,22 1,47 1,73 0,70 -8,141 -62,141 z m 0,36 C 308,500 380,378 380,250 380,122 308,0 190,0 72,0 0,122 0,250 0,378 72,500 190,500 Z"
         fill="currentColor"
         id="path132097" />
    </g>
  </a>
  <a
     style="color:inherit"
     xlink:href="textedit://C:/Users/Javier/Documents/lilypond%20scores/ricci%20left%20hand%20examples.ly:934:25:26"
     id="a132107"
     transform="translate(-5.6906,-89.304053)">
    <g
       transform="translate(103.5944,100.0093)"
       id="g132105">
      <path
         transform="scale(0.0036,-0.0036)"
         d="m 215,137 c 57,0 111,-29 111,-92 0,-71 -54,-120 -101,-148 -35,-21 -74,-34 -114,-34 -57,0 -111,29 -111,92 0,71 54,120 101,148 35,21 74,34 114,34 z"
         fill="currentColor"
         id="path132103" />
    </g>
  </a>
  <g
     transform="translate(103.2968,10.255247)"
     id="g132111">
    <rect
       x="-0.062799998"
       y="-1.8"
       width="0.12549999"
       height="2.9223001"
       ry="0.039999999"
       fill="currentColor"
       id="rect132109" />
  </g>
  <g
     transform="translate(96.9069,10.255247)"
     id="g132115">
    <rect
       x="-0.062799998"
       y="-2.5241001"
       width="0.12549999"
       height="2.3627"
       ry="0.039999999"
       fill="currentColor"
       id="rect132113" />
  </g>
  <a
     style="color:inherit"
     xlink:href="textedit://C:/Users/Javier/Documents/lilypond%20scores/ricci%20left%20hand%20examples.ly:934:21:22"
     id="a132121"
     transform="translate(-5.6906,-89.304053)">
    <g
       transform="translate(101.4878,99.5593)"
       id="g132119">
      <path
         transform="scale(0.0036,-0.0036)"
         d="m 215,137 c 57,0 111,-29 111,-92 0,-71 -54,-120 -101,-148 -35,-21 -74,-34 -114,-34 -57,0 -111,29 -111,92 0,71 54,120 101,148 35,21 74,34 114,34 z"
         fill="currentColor"
         id="path132117" />
    </g>
  </a>
  <g
     transform="translate(94.8003,10.255247)"
     id="g132125">
    <rect
       x="-0.062799998"
       y="-2.8759"
       width="0.12549999"
       height="2.2644999"
       ry="0.039999999"
       fill="currentColor"
       id="rect132123" />
  </g>
  <a
     style="color:inherit"
     xlink:href="textedit://C:/Users/Javier/Documents/lilypond%20scores/ricci%20left%20hand%20examples.ly:934:19:20"
     id="a132131"
     transform="translate(-5.6906,-89.304053)">
    <g
       transform="translate(99.3812,99.1093)"
       id="g132129">
      <path
         transform="scale(0.0036,-0.0036)"
         d="m 215,137 c 57,0 111,-29 111,-92 0,-71 -54,-120 -101,-148 -35,-21 -74,-34 -114,-34 -57,0 -111,29 -111,92 0,71 54,120 101,148 35,21 74,34 114,34 z"
         fill="currentColor"
         id="path132127" />
    </g>
  </a>
  <g
     transform="translate(24.1542,10.255247)"
     id="g132135">
    <rect
       x="-0.062799998"
       y="-3.7758999"
       width="0.12549999"
       height="2.2644999"
       ry="0.039999999"
       fill="currentColor"
       id="rect132133" />
  </g>
  <a
     style="color:inherit"
     xlink:href="textedit://C:/Users/Javier/Documents/lilypond%20scores/ricci%20left%20hand%20examples.ly:930:31:32"
     id="a132141"
     transform="translate(-5.6906,-89.304053)">
    <g
       transform="translate(28.9457,95.1174)"
       id="g132139">
      <path
         transform="scale(0.002,-0.002)"
         d="m 190,464 c -54,0 -61,-71 -61,-141 v -73 -73 c 0,-70 7,-141 61,-141 54,0 62,71 62,141 0,26 -1,51 -1,73 0,22 1,47 1,73 0,70 -8,141 -62,141 z m 0,36 C 308,500 380,378 380,250 380,122 308,0 190,0 72,0 0,122 0,250 0,378 72,500 190,500 Z"
         fill="currentColor"
         id="path132137" />
    </g>
  </a>
  <a
     style="color:inherit"
     xlink:href="textedit://C:/Users/Javier/Documents/lilypond%20scores/ricci%20left%20hand%20examples.ly:930:33:34"
     id="a132147"
     transform="translate(-5.6906,-89.304053)">
    <g
       transform="translate(28.9457,93.429)"
       id="g132145">
      <path
         transform="scale(0.002,-0.002)"
         d="m 190,464 c -54,0 -61,-71 -61,-141 v -73 -73 c 0,-70 7,-141 61,-141 54,0 62,71 62,141 0,26 -1,51 -1,73 0,22 1,47 1,73 0,70 -8,141 -62,141 z m 0,36 C 308,500 380,378 380,250 380,122 308,0 190,0 72,0 0,122 0,250 0,378 72,500 190,500 Z"
         fill="currentColor"
         id="path132143" />
    </g>
  </a>
  <a
     style="color:inherit"
     xlink:href="textedit://C:/Users/Javier/Documents/lilypond%20scores/ricci%20left%20hand%20examples.ly:930:30:31"
     id="a132153"
     transform="translate(-5.6906,-89.304053)">
    <g
       transform="translate(28.735,98.2093)"
       id="g132151">
      <path
         transform="scale(0.0036,-0.0036)"
         d="m 215,137 c 57,0 111,-29 111,-92 0,-71 -54,-120 -101,-148 -35,-21 -74,-34 -114,-34 -57,0 -111,29 -111,92 0,71 54,120 101,148 35,21 74,34 114,34 z"
         fill="currentColor"
         id="path132149" />
    </g>
  </a>
  <g
     transform="translate(22.0476,10.255247)"
     id="g132157">
    <rect
       x="-0.062799998"
       y="-3.1410999"
       width="0.12549999"
       height="2.0796001"
       ry="0.039999999"
       fill="currentColor"
       id="rect132155" />
  </g>
  <a
     style="color:inherit"
     xlink:href="textedit://C:/Users/Javier/Documents/lilypond%20scores/ricci%20left%20hand%20examples.ly:930:28:29"
     id="a132163"
     transform="translate(-5.6906,-89.304053)">
    <g
       transform="translate(26.6284,98.6593)"
       id="g132161">
      <path
         transform="scale(0.0036,-0.0036)"
         d="m 215,137 c 57,0 111,-29 111,-92 0,-71 -54,-120 -101,-148 -35,-21 -74,-34 -114,-34 -57,0 -111,29 -111,92 0,71 54,120 101,148 35,21 74,34 114,34 z"
         fill="currentColor"
         id="path132159" />
    </g>
  </a>
  <g
     transform="translate(19.941,10.255247)"
     id="g132167">
    <rect
       x="-0.062799998"
       y="-2.8411"
       width="0.12549999"
       height="2.2297001"
       ry="0.039999999"
       fill="currentColor"
       id="rect132165" />
  </g>
  <a
     style="color:inherit"
     xlink:href="textedit://C:/Users/Javier/Documents/lilypond%20scores/ricci%20left%20hand%20examples.ly:930:26:27"
     id="a132173"
     transform="translate(-5.6906,-89.304053)">
    <g
       transform="translate(24.5218,99.1093)"
       id="g132171">
      <path
         transform="scale(0.0036,-0.0036)"
         d="m 215,137 c 57,0 111,-29 111,-92 0,-71 -54,-120 -101,-148 -35,-21 -74,-34 -114,-34 -57,0 -111,29 -111,92 0,71 54,120 101,148 35,21 74,34 114,34 z"
         fill="currentColor"
         id="path132169" />
    </g>
  </a>
  <g
     transform="translate(32.5806,10.255247)"
     id="g132177">
    <rect
       x="-0.062799998"
       y="-5.5411"
       width="0.12549999"
       height="2.2297001"
       ry="0.039999999"
       fill="currentColor"
       id="rect132175" />
  </g>
  <a
     style="color:inherit"
     xlink:href="textedit://C:/Users/Javier/Documents/lilypond%20scores/ricci%20left%20hand%20examples.ly:930:44:45"
     id="a132183"
     transform="translate(-5.6906,-89.304053)">
    <g
       transform="translate(37.1615,96.4093)"
       id="g132181">
      <path
         transform="scale(0.0036,-0.0036)"
         d="m 215,137 c 57,0 111,-29 111,-92 0,-71 -54,-120 -101,-148 -35,-21 -74,-34 -114,-34 -57,0 -111,29 -111,92 0,71 54,120 101,148 35,21 74,34 114,34 z"
         fill="currentColor"
         id="path132179" />
    </g>
  </a>
  <g
     transform="translate(30.474,10.255247)"
     id="g132187">
    <rect
       x="-0.062799998"
       y="-5.2412"
       width="0.12549999"
       height="2.3798001"
       ry="0.039999999"
       fill="currentColor"
       id="rect132185" />
  </g>
  <a
     style="color:inherit"
     xlink:href="textedit://C:/Users/Javier/Documents/lilypond%20scores/ricci%20left%20hand%20examples.ly:930:41:42"
     id="a132193"
     transform="translate(-5.6906,-89.304053)">
    <g
       transform="translate(35.2826,92.6836)"
       id="g132191">
      <path
         transform="scale(0.002,-0.002)"
         d="M 129,129 H 259 C 259,77 291,29 340,29 350,29 354,21 354,14 354,7 350,0 340,0 291,0 243,14 194,14 145,14 98,0 49,0 39,0 34,7 34,14 c 0,7 5,15 15,15 49,0 80,48 80,100 z M 0,250 129,500 c 3,7 13,3 21,0 14,-6 28,-14 44,-14 16,0 31,8 45,14 2,1 2,1 4,1 8,0 16,-9 16,-21 V 129 H 129 v 215 c 0,15 -11,23 -20,23 -5,0 -9,-2 -11,-7 L 32,233 c -4,-7 -9,-9 -15,-9 -9,0 -19,7 -19,17 0,3 0,6 2,9 z"
         fill="currentColor"
         id="path132189" />
    </g>
  </a>
  <a
     style="color:inherit"
     xlink:href="textedit://C:/Users/Javier/Documents/lilypond%20scores/ricci%20left%20hand%20examples.ly:930:40:41"
     id="a132199"
     transform="translate(-5.6906,-89.304053)">
    <g
       transform="translate(35.0549,96.8593)"
       id="g132197">
      <path
         transform="scale(0.0036,-0.0036)"
         d="m 215,137 c 57,0 111,-29 111,-92 0,-71 -54,-120 -101,-148 -35,-21 -74,-34 -114,-34 -57,0 -111,29 -111,92 0,71 54,120 101,148 35,21 74,34 114,34 z"
         fill="currentColor"
         id="path132195" />
    </g>
  </a>
  <g
     transform="translate(28.3674,10.255247)"
     id="g132203">
    <rect
       x="-0.062799998"
       y="-4.3241"
       width="0.12549999"
       height="1.9127001"
       ry="0.039999999"
       fill="currentColor"
       id="rect132201" />
  </g>
  <a
     style="color:inherit"
     xlink:href="textedit://C:/Users/Javier/Documents/lilypond%20scores/ricci%20left%20hand%20examples.ly:930:38:39"
     id="a132209"
     transform="translate(-5.6906,-89.304053)">
    <g
       transform="translate(32.9483,97.3093)"
       id="g132207">
      <path
         transform="scale(0.0036,-0.0036)"
         d="m 215,137 c 57,0 111,-29 111,-92 0,-71 -54,-120 -101,-148 -35,-21 -74,-34 -114,-34 -57,0 -111,29 -111,92 0,71 54,120 101,148 35,21 74,34 114,34 z"
         fill="currentColor"
         id="path132205" />
    </g>
  </a>
  <g
     transform="translate(26.2608,10.255247)"
     id="g132213">
    <rect
       x="-0.062799998"
       y="-4.0500002"
       width="0.12549999"
       height="2.0885999"
       ry="0.039999999"
       fill="currentColor"
       id="rect132211" />
  </g>
  <a
     style="color:inherit"
     xlink:href="textedit://C:/Users/Javier/Documents/lilypond%20scores/ricci%20left%20hand%20examples.ly:930:36:37"
     id="a132219"
     transform="translate(-5.6906,-89.304053)">
    <g
       transform="translate(30.8417,97.7593)"
       id="g132217">
      <path
         transform="scale(0.0036,-0.0036)"
         d="m 215,137 c 57,0 111,-29 111,-92 0,-71 -54,-120 -101,-148 -35,-21 -74,-34 -114,-34 -57,0 -111,29 -111,92 0,71 54,120 101,148 35,21 74,34 114,34 z"
         fill="currentColor"
         id="path132215" />
    </g>
  </a>
  <a
     style="color:inherit"
     xlink:href="textedit://C:/Users/Javier/Documents/lilypond%20scores/ricci%20left%20hand%20examples.ly:930:10:11"
     id="a132225"
     transform="translate(-5.6906,-89.304053)">
    <g
       transform="translate(18.202,100.4593)"
       id="g132223">
      <path
         transform="scale(0.0036,-0.0036)"
         d="m 215,137 c 57,0 111,-29 111,-92 0,-71 -54,-120 -101,-148 -35,-21 -74,-34 -114,-34 -57,0 -111,29 -111,92 0,71 54,120 101,148 35,21 74,34 114,34 z"
         fill="currentColor"
         id="path132221" />
    </g>
  </a>
  <g
     transform="translate(13.6211,10.255247)"
     id="g132229">
    <rect
       x="-0.062799998"
       y="-2.25"
       width="0.12549999"
       height="2.9886"
       ry="0.039999999"
       fill="currentColor"
       id="rect132227" />
  </g>
  <g
     transform="translate(11.5145,10.255247)"
     id="g132233">
    <rect
       x="-0.062799998"
       y="-1.9759001"
       width="0.12549999"
       height="3.1645"
       ry="0.039999999"
       fill="currentColor"
       id="rect132231" />
  </g>
  <g
     transform="translate(6.2866,10.255247)"
     id="g132237">
    <path
       transform="scale(0.0036,-0.0036)"
       d="m 358,29 c -49,0 -74,41 -74,73 0,38 27,76 71,76 4,0 7,0 11,-1 -27,36 -69,59 -116,59 -106,0 -113,-74 -113,-188 0,-15 1,-31 1,-48 0,-17 -1,-33 -1,-48 0,-114 7,-188 113,-188 79,0 136,70 155,150 2,7 7,10 13,10 7,0 14,-5 14,-13 0,-95 -105,-175 -182,-175 -68,0 -137,20 -184,70 C 17,-143 0,-71 0,0 c 0,71 17,143 66,194 47,50 116,70 184,70 86,0 159,-66 173,-152 1,-4 1,-9 1,-13 0,-39 -30,-70 -66,-70 z"
       fill="currentColor"
       id="path132235" />
  </g>
  <a
     style="color:inherit"
     xlink:href="textedit://C:/Users/Javier/Documents/lilypond%20scores/ricci%20left%20hand%20examples.ly:925:4:5"
     id="a132243"
     transform="translate(-5.6906,-89.304053)">
    <g
       transform="translate(10.1072,99.5593)"
       id="g132241">
      <path
         transform="scale(0.0036,-0.0036)"
         d="m 29,39 -2,-64 v -11 c 0,-22 2,-43 5,-65 44,38 91,80 91,138 0,33 -13,66 -42,66 C 50,103 30,72 29,39 Z m -57,415 c 9,5 18,8 28,8 10,0 19,-3 28,-8 L 21,111 c 25,23 58,36 92,36 51,0 87,-49 87,-103 0,-79 -84,-117 -144,-169 -16,-14 -25,-41 -47,-41 -14,0 -25,13 -25,27 z"
         fill="currentColor"
         id="path132239" />
    </g>
  </a>
  <g
     transform="translate(0.80000003,11.155247)"
     id="g132247">
    <path
       transform="scale(0.0036,-0.0036)"
       d="m 378,263 c 4,0 7,1 11,1 156,0 257,-129 257,-262 0,-76 -34,-154 -108,-210 -22,-17 -46,-29 -72,-37 3,-34 5,-68 5,-102 0,-20 -1,-40 -2,-60 -7,-121 -90,-228 -209,-228 -108,0 -196,87 -196,196 0,58 53,104 112,104 54,0 95,-48 95,-104 0,-52 -43,-95 -95,-95 -10,0 -20,2 -29,6 26,-38 68,-63 116,-63 h 3 c 93,2 153,92 159,190 1,19 2,37 2,56 0,30 -2,60 -4,90 -29,-5 -58,-8 -88,-8 -188,0 -333,173 -333,375 0,177 130,307 246,442 -20,62 -38,125 -46,190 -6,52 -7,104 -7,157 0,115 55,223 148,290 7,5 16,4 22,-1 71,-83 134,-244 134,-357 0,-143 -85,-255 -178,-364 21,-68 40,-137 57,-206 z m 84,-465 c 67,24 111,94 111,162 0,89 -65,178 -170,190 24,-115 46,-230 59,-352 z M 75,26 c 0,-134 129,-245 263,-245 28,0 55,2 81,6 C 405,-87 383,31 358,150 279,142 234,89 234,31 c 0,-43 25,-89 80,-121 5,-5 7,-11 7,-16 0,-12 -10,-23 -22,-23 -3,0 -6,1 -9,2 -81,43 -118,116 -118,186 0,89 58,175 161,198 -14,58 -29,116 -46,173 C 181,308 75,186 75,26 Z M 406,1042 C 307,995 244,894 244,785 c 0,-73 20,-132 38,-191 79,97 144,199 144,324 0,53 -4,76 -20,124 z"
       fill="currentColor"
       id="path132245" />
  </g>
  <a
     style="color:inherit"
     xlink:href="textedit://C:/Users/Javier/Documents/lilypond%20scores/ricci%20left%20hand%20examples.ly:939:7:8"
     id="a132253"
     transform="translate(-5.6906,-89.304053)">
    <g
       transform="translate(15.5,100.0093)"
       id="g132251">
      <path
         transform="scale(0.0036,-0.0036)"
         d="m 211,111 c -49,0 -68,-43 -68,-88 0,-75 57,-134 132,-134 49,0 68,43 68,88 0,75 -57,134 -132,134 z M 486,0 c 0,-43 -33,-76 -71,-97 -52,-29 -112,-40 -172,-40 -60,0 -120,11 -172,40 -38,21 -71,54 -71,97 0,43 33,76 71,97 52,29 112,40 172,40 60,0 120,-11 172,-40 38,-21 71,-54 71,-97 z"
         fill="currentColor"
         id="path132249" />
    </g>
  </a>
  <a
     style="color:inherit"
     xlink:href="textedit://C:/Users/Javier/Documents/lilypond%20scores/ricci%20left%20hand%20examples.ly:930:6:7"
     id="a132259"
     transform="translate(-5.6906,-89.304053)">
    <g
       transform="translate(16.0954,100.9093)"
       id="g132257">
      <path
         transform="scale(0.0036,-0.0036)"
         d="m 215,137 c 57,0 111,-29 111,-92 0,-71 -54,-120 -101,-148 -35,-21 -74,-34 -114,-34 -57,0 -111,29 -111,92 0,71 54,120 101,148 35,21 74,34 114,34 z"
         fill="currentColor"
         id="path132255" />
    </g>
  </a>
  <g
     transform="translate(17.8344,10.255247)"
     id="g132263">
    <rect
       x="-0.062799998"
       y="-2.5411999"
       width="0.12549999"
       height="2.3798001"
       ry="0.039999999"
       fill="currentColor"
       id="rect132261" />
  </g>
  <a
     style="color:inherit"
     xlink:href="textedit://C:/Users/Javier/Documents/lilypond%20scores/ricci%20left%20hand%20examples.ly:930:21:22"
     id="a132269"
     transform="translate(-5.6906,-89.304053)">
    <g
       transform="translate(22.5747,96.352)"
       id="g132267">
      <path
         transform="scale(0.002,-0.002)"
         d="m 198,284 c 24,15 48,29 65,52 12,16 19,34 28,52 2,5 6,7 11,7 8,0 16,-6 16,-17 V 161 h 79 c 12,0 18,-9 18,-18 0,-9 -6,-18 -18,-18 h -79 c 2,-51 33,-96 80,-96 10,0 15,-8 15,-15 C 413,7 408,0 398,0 349,0 302,14 253,14 204,14 156,0 107,0 97,0 93,7 93,14 c 0,7 4,15 14,15 47,0 79,45 81,96 H 36 c -29,0 -38,17 -38,28 0,3 1,6 2,8 78,88 123,201 123,319 0,11 8,21 17,21 1,0 3,-1 4,-1 25,-7 50,-14 76,-14 26,0 52,7 77,14 2,1 4,1 6,1 10,0 17,-7 17,-14 0,-2 0,-5 -2,-7 L 36,161 h 152 v 96 c 0,10 1,21 10,27 z"
         fill="currentColor"
         id="path132265" />
    </g>
  </a>
  <a
     style="color:inherit"
     xlink:href="textedit://C:/Users/Javier/Documents/lilypond%20scores/ricci%20left%20hand%20examples.ly:930:23:24"
     id="a132275"
     transform="translate(-5.6906,-89.304053)">
    <g
       transform="translate(22.643,94.6214)"
       id="g132273">
      <path
         transform="scale(0.002,-0.002)"
         d="M 129,129 H 259 C 259,77 291,29 340,29 350,29 354,21 354,14 354,7 350,0 340,0 291,0 243,14 194,14 145,14 98,0 49,0 39,0 34,7 34,14 c 0,7 5,15 15,15 49,0 80,48 80,100 z M 0,250 129,500 c 3,7 13,3 21,0 14,-6 28,-14 44,-14 16,0 31,8 45,14 2,1 2,1 4,1 8,0 16,-9 16,-21 V 129 H 129 v 215 c 0,15 -11,23 -20,23 -5,0 -9,-2 -11,-7 L 32,233 c -4,-7 -9,-9 -15,-9 -9,0 -19,7 -19,17 0,3 0,6 2,9 z"
         fill="currentColor"
         id="path132271" />
    </g>
  </a>
  <a
     style="color:inherit"
     xlink:href="textedit://C:/Users/Javier/Documents/lilypond%20scores/ricci%20left%20hand%20examples.ly:930:18:19"
     id="a132281"
     transform="translate(-5.6906,-89.304053)">
    <g
       transform="translate(22.4152,99.5593)"
       id="g132279">
      <path
         transform="scale(0.0036,-0.0036)"
         d="m 215,137 c 57,0 111,-29 111,-92 0,-71 -54,-120 -101,-148 -35,-21 -74,-34 -114,-34 -57,0 -111,29 -111,92 0,71 54,120 101,148 35,21 74,34 114,34 z"
         fill="currentColor"
         id="path132277" />
    </g>
  </a>
  <a
     style="color:inherit"
     xlink:href="textedit://C:/Users/Javier/Documents/lilypond%20scores/ricci%20left%20hand%20examples.ly:932:41:42"
     id="a132287"
     transform="translate(-5.6906,-89.304053)">
    <g
       transform="translate(63.4357,95.0593)"
       id="g132285">
      <path
         transform="scale(0.0036,-0.0036)"
         d="m 215,137 c 57,0 111,-29 111,-92 0,-71 -54,-120 -101,-148 -35,-21 -74,-34 -114,-34 -57,0 -111,29 -111,92 0,71 54,120 101,148 35,21 74,34 114,34 z"
         fill="currentColor"
         id="path132283" />
    </g>
  </a>
  <g
     transform="translate(15.7277,10.255247)"
     id="g132291">
    <rect
       x="-0.062799998"
       y="-2.5241001"
       width="0.12549999"
       height="2.8127"
       ry="0.039999999"
       fill="currentColor"
       id="rect132289" />
  </g>
  <a
     style="color:inherit"
     xlink:href="textedit://C:/Users/Javier/Documents/lilypond%20scores/ricci%20left%20hand%20examples.ly:930:13:14"
     id="a132297"
     transform="translate(-5.6906,-89.304053)">
    <g
       transform="translate(20.4681,95.1166)"
       id="g132295">
      <path
         transform="scale(0.002,-0.002)"
         d="m 198,284 c 24,15 48,29 65,52 12,16 19,34 28,52 2,5 6,7 11,7 8,0 16,-6 16,-17 V 161 h 79 c 12,0 18,-9 18,-18 0,-9 -6,-18 -18,-18 h -79 c 2,-51 33,-96 80,-96 10,0 15,-8 15,-15 C 413,7 408,0 398,0 349,0 302,14 253,14 204,14 156,0 107,0 97,0 93,7 93,14 c 0,7 4,15 14,15 47,0 79,45 81,96 H 36 c -29,0 -38,17 -38,28 0,3 1,6 2,8 78,88 123,201 123,319 0,11 8,21 17,21 1,0 3,-1 4,-1 25,-7 50,-14 76,-14 26,0 52,7 77,14 2,1 4,1 6,1 10,0 17,-7 17,-14 0,-2 0,-5 -2,-7 L 36,161 h 152 v 96 c 0,10 1,21 10,27 z"
         fill="currentColor"
         id="path132293" />
    </g>
  </a>
  <a
     style="color:inherit"
     xlink:href="textedit://C:/Users/Javier/Documents/lilypond%20scores/ricci%20left%20hand%20examples.ly:930:15:16"
     id="a132303"
     transform="translate(-5.6906,-89.304053)">
    <g
       transform="translate(20.5193,93.6423)"
       id="g132301">
      <path
         transform="scale(0.002,-0.002)"
         d="m 190,464 c -54,0 -61,-71 -61,-141 v -73 -73 c 0,-70 7,-141 61,-141 54,0 62,71 62,141 0,26 -1,51 -1,73 0,22 1,47 1,73 0,70 -8,141 -62,141 z m 0,36 C 308,500 380,378 380,250 380,122 308,0 190,0 72,0 0,122 0,250 0,378 72,500 190,500 Z"
         fill="currentColor"
         id="path132299" />
    </g>
  </a>
  <a
     style="color:inherit"
     xlink:href="textedit://C:/Users/Javier/Documents/lilypond%20scores/ricci%20left%20hand%20examples.ly:930:12:13"
     id="a132309"
     transform="translate(-5.6906,-89.304053)">
    <g
       transform="translate(20.3086,100.0093)"
       id="g132307">
      <path
         transform="scale(0.0036,-0.0036)"
         d="m 215,137 c 57,0 111,-29 111,-92 0,-71 -54,-120 -101,-148 -35,-21 -74,-34 -114,-34 -57,0 -111,29 -111,92 0,71 54,120 101,148 35,21 74,34 114,34 z"
         fill="currentColor"
         id="path132305" />
    </g>
  </a>
  <a
     style="color:inherit"
     xlink:href="textedit://C:/Users/Javier/Documents/lilypond%20scores/ricci%20left%20hand%20examples.ly:932:19:20"
     id="a132315"
     transform="translate(-5.6906,-89.304053)">
    <g
       transform="translate(50.796,96.8593)"
       id="g132313">
      <path
         transform="scale(0.0036,-0.0036)"
         d="m 215,137 c 57,0 111,-29 111,-92 0,-71 -54,-120 -101,-148 -35,-21 -74,-34 -114,-34 -57,0 -111,29 -111,92 0,71 54,120 101,148 35,21 74,34 114,34 z"
         fill="currentColor"
         id="path132311" />
    </g>
  </a>
  <a
     style="color:inherit"
     xlink:href="textedit://C:/Users/Javier/Documents/lilypond%20scores/ricci%20left%20hand%20examples.ly:932:27:28"
     id="a132321"
     transform="translate(-5.6906,-89.304053)">
    <g
       transform="translate(55.0092,95.9593)"
       id="g132319">
      <path
         transform="scale(0.0036,-0.0036)"
         d="m 215,137 c 57,0 111,-29 111,-92 0,-71 -54,-120 -101,-148 -35,-21 -74,-34 -114,-34 -57,0 -111,29 -111,92 0,71 54,120 101,148 35,21 74,34 114,34 z"
         fill="currentColor"
         id="path132317" />
    </g>
  </a>
  <g
     transform="translate(48.3218,10.255247)"
     id="g132325">
    <rect
       x="-0.062799998"
       y="-5.2241001"
       width="0.12549999"
       height="1.9127001"
       ry="0.039999999"
       fill="currentColor"
       id="rect132323" />
  </g>
  <a
     style="color:inherit"
     xlink:href="textedit://C:/Users/Javier/Documents/lilypond%20scores/ricci%20left%20hand%20examples.ly:932:24:25"
     id="a132331"
     transform="translate(-5.6906,-89.304053)">
    <g
       transform="translate(53.1304,92.4917)"
       id="g132329">
      <path
         transform="scale(0.002,-0.002)"
         d="M 129,129 H 259 C 259,77 291,29 340,29 350,29 354,21 354,14 354,7 350,0 340,0 291,0 243,14 194,14 145,14 98,0 49,0 39,0 34,7 34,14 c 0,7 5,15 15,15 49,0 80,48 80,100 z M 0,250 129,500 c 3,7 13,3 21,0 14,-6 28,-14 44,-14 16,0 31,8 45,14 2,1 2,1 4,1 8,0 16,-9 16,-21 V 129 H 129 v 215 c 0,15 -11,23 -20,23 -5,0 -9,-2 -11,-7 L 32,233 c -4,-7 -9,-9 -15,-9 -9,0 -19,7 -19,17 0,3 0,6 2,9 z"
         fill="currentColor"
         id="path132327" />
    </g>
  </a>
  <a
     style="color:inherit"
     xlink:href="textedit://C:/Users/Javier/Documents/lilypond%20scores/ricci%20left%20hand%20examples.ly:932:21:22"
     id="a132337"
     transform="translate(-5.6906,-89.304053)">
    <g
       transform="translate(52.9026,96.4093)"
       id="g132335">
      <path
         transform="scale(0.0036,-0.0036)"
         d="m 215,137 c 57,0 111,-29 111,-92 0,-71 -54,-120 -101,-148 -35,-21 -74,-34 -114,-34 -57,0 -111,29 -111,92 0,71 54,120 101,148 35,21 74,34 114,34 z"
         fill="currentColor"
         id="path132333" />
    </g>
  </a>
  <g
     transform="translate(46.2152,10.255247)"
     id="g132341">
    <rect
       x="-0.062799998"
       y="-4.9499998"
       width="0.12549999"
       height="2.0885999"
       ry="0.039999999"
       fill="currentColor"
       id="rect132339" />
  </g>
  <g
     transform="translate(50.4284,10.255247)"
     id="g132345">
    <rect
       x="-0.062799998"
       y="-6.1412001"
       width="0.12549999"
       height="2.3798001"
       ry="0.039999999"
       fill="currentColor"
       id="rect132343" />
  </g>
  <g
     transform="translate(44.1086,10.255247)"
     id="g132349">
    <rect
       x="-0.062799998"
       y="-4.6759"
       width="0.12549999"
       height="2.2644999"
       ry="0.039999999"
       fill="currentColor"
       id="rect132347" />
  </g>
  <a
     style="color:inherit"
     xlink:href="textedit://C:/Users/Javier/Documents/lilypond%20scores/ricci%20left%20hand%20examples.ly:930:48:49"
     id="a132355"
     transform="translate(-5.6906,-89.304053)">
    <g
       transform="translate(39.2681,95.9593)"
       id="g132353">
      <path
         transform="scale(0.0036,-0.0036)"
         d="m 215,137 c 57,0 111,-29 111,-92 0,-71 -54,-120 -101,-148 -35,-21 -74,-34 -114,-34 -57,0 -111,29 -111,92 0,71 54,120 101,148 35,21 74,34 114,34 z"
         fill="currentColor"
         id="path132351" />
    </g>
  </a>
  <a
     style="color:inherit"
     xlink:href="textedit://C:/Users/Javier/Documents/lilypond%20scores/ricci%20left%20hand%20examples.ly:932:15:16"
     id="a132361"
     transform="translate(-5.6906,-89.304053)">
    <g
       transform="translate(48.6894,97.3093)"
       id="g132359">
      <path
         transform="scale(0.0036,-0.0036)"
         d="m 215,137 c 57,0 111,-29 111,-92 0,-71 -54,-120 -101,-148 -35,-21 -74,-34 -114,-34 -57,0 -111,29 -111,92 0,71 54,120 101,148 35,21 74,34 114,34 z"
         fill="currentColor"
         id="path132357" />
    </g>
  </a>
  <g
     transform="translate(42.0019,10.255247)"
     id="g132365">
    <rect
       x="-0.062799998"
       y="-4.0411"
       width="0.12549999"
       height="2.0796001"
       ry="0.039999999"
       fill="currentColor"
       id="rect132363" />
  </g>
  <a
     style="color:inherit"
     xlink:href="textedit://C:/Users/Javier/Documents/lilypond%20scores/ricci%20left%20hand%20examples.ly:932:13:14"
     id="a132371"
     transform="translate(-5.6906,-89.304053)">
    <g
       transform="translate(46.5828,97.7593)"
       id="g132369">
      <path
         transform="scale(0.0036,-0.0036)"
         d="m 215,137 c 57,0 111,-29 111,-92 0,-71 -54,-120 -101,-148 -35,-21 -74,-34 -114,-34 -57,0 -111,29 -111,92 0,71 54,120 101,148 35,21 74,34 114,34 z"
         fill="currentColor"
         id="path132367" />
    </g>
  </a>
  <a
     style="color:inherit"
     xlink:href="textedit://C:/Users/Javier/Documents/lilypond%20scores/ricci%20left%20hand%20examples.ly:932:34:35"
     id="a132377"
     transform="translate(-5.6906,-89.304053)">
    <g
       transform="translate(59.3819,91.6791)"
       id="g132375">
      <path
         transform="scale(0.002,-0.002)"
         d="m 198,284 c 24,15 48,29 65,52 12,16 19,34 28,52 2,5 6,7 11,7 8,0 16,-6 16,-17 V 161 h 79 c 12,0 18,-9 18,-18 0,-9 -6,-18 -18,-18 h -79 c 2,-51 33,-96 80,-96 10,0 15,-8 15,-15 C 413,7 408,0 398,0 349,0 302,14 253,14 204,14 156,0 107,0 97,0 93,7 93,14 c 0,7 4,15 14,15 47,0 79,45 81,96 H 36 c -29,0 -38,17 -38,28 0,3 1,6 2,8 78,88 123,201 123,319 0,11 8,21 17,21 1,0 3,-1 4,-1 25,-7 50,-14 76,-14 26,0 52,7 77,14 2,1 4,1 6,1 10,0 17,-7 17,-14 0,-2 0,-5 -2,-7 L 36,161 h 152 v 96 c 0,10 1,21 10,27 z"
         fill="currentColor"
         id="path132373" />
    </g>
  </a>
  <g
     transform="translate(58.8548,10.255247)"
     id="g132381">
    <rect
       x="-0.062799998"
       y="-6.75"
       width="0.12549999"
       height="2.0885999"
       ry="0.039999999"
       fill="currentColor"
       id="rect132379" />
  </g>
  <g
     transform="translate(56.7482,10.255247)"
     id="g132385">
    <rect
       x="-0.062799998"
       y="-7.0240998"
       width="0.12549999"
       height="1.9127001"
       ry="0.039999999"
       fill="currentColor"
       id="rect132383" />
  </g>
  <a
     style="color:inherit"
     xlink:href="textedit://C:/Users/Javier/Documents/lilypond%20scores/ricci%20left%20hand%20examples.ly:932:38:39"
     id="a132391"
     transform="translate(-5.6906,-89.304053)">
    <g
       transform="translate(61.4885,91.526)"
       id="g132389">
      <path
         transform="scale(0.002,-0.002)"
         d="m 198,284 c 24,15 48,29 65,52 12,16 19,34 28,52 2,5 6,7 11,7 8,0 16,-6 16,-17 V 161 h 79 c 12,0 18,-9 18,-18 0,-9 -6,-18 -18,-18 h -79 c 2,-51 33,-96 80,-96 10,0 15,-8 15,-15 C 413,7 408,0 398,0 349,0 302,14 253,14 204,14 156,0 107,0 97,0 93,7 93,14 c 0,7 4,15 14,15 47,0 79,45 81,96 H 36 c -29,0 -38,17 -38,28 0,3 1,6 2,8 78,88 123,201 123,319 0,11 8,21 17,21 1,0 3,-1 4,-1 25,-7 50,-14 76,-14 26,0 52,7 77,14 2,1 4,1 6,1 10,0 17,-7 17,-14 0,-2 0,-5 -2,-7 L 36,161 h 152 v 96 c 0,10 1,21 10,27 z"
         fill="currentColor"
         id="path132387" />
    </g>
  </a>
  <a
     style="color:inherit"
     xlink:href="textedit://C:/Users/Javier/Documents/lilypond%20scores/ricci%20left%20hand%20examples.ly:932:37:38"
     id="a132397"
     transform="translate(-5.6906,-89.304053)">
    <g
       transform="translate(61.3291,94.6093)"
       id="g132395">
      <path
         transform="scale(0.0036,-0.0036)"
         d="m 215,137 c 57,0 111,-29 111,-92 0,-71 -54,-120 -101,-148 -35,-21 -74,-34 -114,-34 -57,0 -111,29 -111,92 0,71 54,120 101,148 35,21 74,34 114,34 z"
         fill="currentColor"
         id="path132393" />
    </g>
  </a>
  <g
     transform="translate(54.6416,10.255247)"
     id="g132401">
    <rect
       x="-0.062799998"
       y="-6.7410998"
       width="0.12549999"
       height="2.0796001"
       ry="0.039999999"
       fill="currentColor"
       id="rect132399" />
  </g>
  <a
     style="color:inherit"
     xlink:href="textedit://C:/Users/Javier/Documents/lilypond%20scores/ricci%20left%20hand%20examples.ly:932:16:17"
     id="a132407"
     transform="translate(-5.6906,-89.304053)">
    <g
       transform="translate(48.9172,93.2635)"
       id="g132405">
      <path
         transform="scale(0.002,-0.002)"
         d="M 129,129 H 259 C 259,77 291,29 340,29 350,29 354,21 354,14 354,7 350,0 340,0 291,0 243,14 194,14 145,14 98,0 49,0 39,0 34,7 34,14 c 0,7 5,15 15,15 49,0 80,48 80,100 z M 0,250 129,500 c 3,7 13,3 21,0 14,-6 28,-14 44,-14 16,0 31,8 45,14 2,1 2,1 4,1 8,0 16,-9 16,-21 V 129 H 129 v 215 c 0,15 -11,23 -20,23 -5,0 -9,-2 -11,-7 L 32,233 c -4,-7 -9,-9 -15,-9 -9,0 -19,7 -19,17 0,3 0,6 2,9 z"
         fill="currentColor"
         id="path132403" />
    </g>
  </a>
  <a
     style="color:inherit"
     xlink:href="textedit://C:/Users/Javier/Documents/lilypond%20scores/ricci%20left%20hand%20examples.ly:932:33:34"
     id="a132413"
     transform="translate(-5.6906,-89.304053)">
    <g
       transform="translate(59.2225,95.0593)"
       id="g132411">
      <path
         transform="scale(0.0036,-0.0036)"
         d="m 215,137 c 57,0 111,-29 111,-92 0,-71 -54,-120 -101,-148 -35,-21 -74,-34 -114,-34 -57,0 -111,29 -111,92 0,71 54,120 101,148 35,21 74,34 114,34 z"
         fill="currentColor"
         id="path132409" />
    </g>
  </a>
  <g
     transform="translate(52.535,10.255247)"
     id="g132417">
    <rect
       x="-0.062799998"
       y="-6.4411001"
       width="0.12549999"
       height="2.2297001"
       ry="0.039999999"
       fill="currentColor"
       id="rect132415" />
  </g>
  <a
     style="color:inherit"
     xlink:href="textedit://C:/Users/Javier/Documents/lilypond%20scores/ricci%20left%20hand%20examples.ly:932:30:31"
     id="a132423"
     transform="translate(-5.6906,-89.304053)">
    <g
       transform="translate(57.3607,91.9077)"
       id="g132421">
      <path
         transform="scale(0.002,-0.002)"
         d="m 155,471 c -34,0 -70,-8 -70,-38 0,-19 31,-23 31,-42 0,-28 -23,-51 -51,-51 -28,0 -51,23 -51,51 0,67 68,109 141,109 93,0 174,-31 174,-113 0,-41 -6,-77 -42,-94 -11,-5 -17,-16 -17,-27 0,-11 6,-22 17,-27 40,-19 59,-53 59,-98 C 346,47 263,0 160,0 78,0 0,45 0,119 c 0,32 26,58 58,58 32,0 58,-26 58,-58 0,-22 -36,-26 -36,-48 0,-33 42,-42 80,-42 46,0 56,58 56,112 v 38 c 0,40 -4,69 -43,69 H 99 c -12,0 -18,9 -18,18 0,9 6,18 18,18 h 74 c 40,0 43,31 43,73 v 30 c 0,50 -16,84 -61,84 z"
         fill="currentColor"
         id="path132419" />
    </g>
  </a>
  <a
     style="color:inherit"
     xlink:href="textedit://C:/Users/Javier/Documents/lilypond%20scores/ricci%20left%20hand%20examples.ly:932:29:30"
     id="a132429"
     transform="translate(-5.6906,-89.304053)">
    <g
       transform="translate(57.1159,95.5093)"
       id="g132427">
      <path
         transform="scale(0.0036,-0.0036)"
         d="m 215,137 c 57,0 111,-29 111,-92 0,-71 -54,-120 -101,-148 -35,-21 -74,-34 -114,-34 -57,0 -111,29 -111,92 0,71 54,120 101,148 35,21 74,34 114,34 z"
         fill="currentColor"
         id="path132425" />
    </g>
  </a>
  <a
     style="color:inherit"
     xlink:href="textedit://C:/Users/Javier/Documents/lilypond%20scores/ricci%20left%20hand%20examples.ly:932:6:7"
     id="a132435"
     transform="translate(-5.6906,-89.304053)">
    <g
       transform="translate(42.3696,98.6593)"
       id="g132433">
      <path
         transform="scale(0.0036,-0.0036)"
         d="m 215,137 c 57,0 111,-29 111,-92 0,-71 -54,-120 -101,-148 -35,-21 -74,-34 -114,-34 -57,0 -111,29 -111,92 0,71 54,120 101,148 35,21 74,34 114,34 z"
         fill="currentColor"
         id="path132431" />
    </g>
  </a>
  <a
     style="color:inherit"
     xlink:href="textedit://C:/Users/Javier/Documents/lilypond%20scores/ricci%20left%20hand%20examples.ly:939:10:11"
     id="a132441"
     transform="translate(-5.6906,-89.304053)">
    <g
       transform="translate(42.3696,100.0093)"
       id="g132439">
      <path
         transform="scale(0.0036,-0.0036)"
         d="m 211,111 c -49,0 -68,-43 -68,-88 0,-75 57,-134 132,-134 49,0 68,43 68,88 0,75 -57,134 -132,134 z M 486,0 c 0,-43 -33,-76 -71,-97 -52,-29 -112,-40 -172,-40 -60,0 -120,11 -172,40 -38,21 -71,54 -71,97 0,43 33,76 71,97 52,29 112,40 172,40 60,0 120,-11 172,-40 38,-21 71,-54 71,-97 z"
         fill="currentColor"
         id="path132437" />
    </g>
  </a>
  <g
     transform="translate(37.7887,10.255247)"
     id="g132445">
    <rect
       x="-0.062799998"
       y="-3.4412"
       width="0.12549999"
       height="2.3798001"
       ry="0.039999999"
       fill="currentColor"
       id="rect132443" />
  </g>
  <a
     style="color:inherit"
     xlink:href="textedit://C:/Users/Javier/Documents/lilypond%20scores/ricci%20left%20hand%20examples.ly:930:50:51"
     id="a132451"
     transform="translate(-5.6906,-89.304053)">
    <g
       transform="translate(39.4959,92.665)"
       id="g132449">
      <path
         transform="scale(0.002,-0.002)"
         d="M 129,129 H 259 C 259,77 291,29 340,29 350,29 354,21 354,14 354,7 350,0 340,0 291,0 243,14 194,14 145,14 98,0 49,0 39,0 34,7 34,14 c 0,7 5,15 15,15 49,0 80,48 80,100 z M 0,250 129,500 c 3,7 13,3 21,0 14,-6 28,-14 44,-14 16,0 31,8 45,14 2,1 2,1 4,1 8,0 16,-9 16,-21 V 129 H 129 v 215 c 0,15 -11,23 -20,23 -5,0 -9,-2 -11,-7 L 32,233 c -4,-7 -9,-9 -15,-9 -9,0 -19,7 -19,17 0,3 0,6 2,9 z"
         fill="currentColor"
         id="path132447" />
    </g>
  </a>
  <g
     transform="translate(39.8953,10.255247)"
     id="g132455">
    <rect
       x="-0.062799998"
       y="-3.7411001"
       width="0.12549999"
       height="2.2297001"
       ry="0.039999999"
       fill="currentColor"
       id="rect132453" />
  </g>
  <a
     style="color:inherit"
     xlink:href="textedit://C:/Users/Javier/Documents/lilypond%20scores/ricci%20left%20hand%20examples.ly:932:10:11"
     id="a132461"
     transform="translate(-5.6906,-89.304053)">
    <g
       transform="translate(44.7039,94.3343)"
       id="g132459">
      <path
         transform="scale(0.002,-0.002)"
         d="M 129,129 H 259 C 259,77 291,29 340,29 350,29 354,21 354,14 354,7 350,0 340,0 291,0 243,14 194,14 145,14 98,0 49,0 39,0 34,7 34,14 c 0,7 5,15 15,15 49,0 80,48 80,100 z M 0,250 129,500 c 3,7 13,3 21,0 14,-6 28,-14 44,-14 16,0 31,8 45,14 2,1 2,1 4,1 8,0 16,-9 16,-21 V 129 H 129 v 215 c 0,15 -11,23 -20,23 -5,0 -9,-2 -11,-7 L 32,233 c -4,-7 -9,-9 -15,-9 -9,0 -19,7 -19,17 0,3 0,6 2,9 z"
         fill="currentColor"
         id="path132457" />
    </g>
  </a>
  <a
     style="color:inherit"
     xlink:href="textedit://C:/Users/Javier/Documents/lilypond%20scores/ricci%20left%20hand%20examples.ly:932:9:10"
     id="a132467"
     transform="translate(-5.6906,-89.304053)">
    <g
       transform="translate(44.4762,98.2093)"
       id="g132465">
      <path
         transform="scale(0.0036,-0.0036)"
         d="m 215,137 c 57,0 111,-29 111,-92 0,-71 -54,-120 -101,-148 -35,-21 -74,-34 -114,-34 -57,0 -111,29 -111,92 0,71 54,120 101,148 35,21 74,34 114,34 z"
         fill="currentColor"
         id="path132463" />
    </g>
  </a>
  <g
     transform="translate(34.6873,10.255247)"
     id="g132471">
    <rect
       x="-0.062799998"
       y="-5.8411002"
       width="0.12549999"
       height="2.0796001"
       ry="0.039999999"
       fill="currentColor"
       id="rect132469" />
  </g>
</svg>
