<!-- <?xml version="1.0" encoding="UTF-8" standalone="no"?> -->
<svg
   version="1.2"
   width="190mm"
   height="29.241796mm"
   viewBox="0 0 108.1205 16.640197"
   id="svg6098"
   sodipodi:docname="ricci left hand examples-1.svg"
   xmlns:inkscape="http://www.inkscape.org/namespaces/inkscape"
   xmlns:sodipodi="http://sodipodi.sourceforge.net/DTD/sodipodi-0.dtd"
   xmlns:xlink="http://www.w3.org/1999/xlink"
   xmlns="http://www.w3.org/2000/svg"
   xmlns:svg="http://www.w3.org/2000/svg">
  <defs
     id="defs6102" />
  <sodipodi:namedview
     id="namedview6100"
     pagecolor="#ffffff"
     bordercolor="#000000"
     borderopacity="0.25"
     inkscape:showpageshadow="2"
     inkscape:pageopacity="0.0"
     inkscape:pagecheckerboard="0"
     inkscape:deskcolor="#d1d1d1"
     inkscape:document-units="mm"
     showgrid="false" />
  <style
     type="text/css"
     id="style2"><![CDATA[
tspan { white-space: pre; }
]]></style>
  <!-- Page: 1/6 -->
  <g
     transform="translate(3.1967416e-8,12.140197)"
     id="g1810">
    <line
       stroke-linejoin="round"
       stroke-linecap="round"
       stroke-width="0.0966"
       stroke="currentColor"
       x1="0.048300002"
       y1="0"
       x2="108.0722"
       y2="0"
       id="line1808" />
  </g>
  <g
     transform="translate(3.1967416e-8,11.240197)"
     id="g1814">
    <line
       stroke-linejoin="round"
       stroke-linecap="round"
       stroke-width="0.0966"
       stroke="currentColor"
       x1="0.048300002"
       y1="0"
       x2="108.0722"
       y2="0"
       id="line1812" />
  </g>
  <g
     transform="translate(3.1967416e-8,10.340197)"
     id="g1818">
    <line
       stroke-linejoin="round"
       stroke-linecap="round"
       stroke-width="0.0966"
       stroke="currentColor"
       x1="0.048300002"
       y1="0"
       x2="108.0722"
       y2="0"
       id="line1816" />
  </g>
  <g
     transform="translate(3.1967416e-8,9.4401973)"
     id="g1822">
    <line
       stroke-linejoin="round"
       stroke-linecap="round"
       stroke-width="0.0966"
       stroke="currentColor"
       x1="0.048300002"
       y1="0"
       x2="108.0722"
       y2="0"
       id="line1820" />
  </g>
  <g
     transform="translate(3.1967416e-8,8.5401973)"
     id="g1826">
    <line
       stroke-linejoin="round"
       stroke-linecap="round"
       stroke-width="0.0966"
       stroke="currentColor"
       x1="0.048300002"
       y1="0"
       x2="108.0722"
       y2="0"
       id="line1824" />
  </g>
  <g
     transform="translate(40.8875,10.340197)"
     id="g1830">
    <rect
       x="0"
       y="-1.8"
       width="0.18350001"
       height="3.5999999"
       ry="0.0000"
       fill="currentColor"
       id="rect1828" />
  </g>
  <g
     transform="translate(71.6893,10.340197)"
     id="g1834">
    <rect
       x="0"
       y="-1.8"
       width="0.18350001"
       height="3.5999999"
       ry="0.0000"
       fill="currentColor"
       id="rect1832" />
  </g>
  <g
     transform="translate(102.4912,10.340197)"
     id="g1838">
    <rect
       x="0"
       y="-1.8"
       width="0.18350001"
       height="3.5999999"
       ry="0.0000"
       fill="currentColor"
       id="rect1836" />
  </g>
  <g
     transform="translate(107.9369,10.340197)"
     id="g1842">
    <rect
       x="0"
       y="-1.8"
       width="0.18350001"
       height="3.5999999"
       ry="0.0000"
       fill="currentColor"
       id="rect1840" />
  </g>
  <g
     transform="translate(107.4637,10.340197)"
     id="g1846">
    <rect
       x="0"
       y="-1.8"
       width="0.18350001"
       height="3.5999999"
       ry="0.0000"
       fill="currentColor"
       id="rect1844" />
  </g>
  <g
     transform="translate(3.1967416e-8,4.9401973)"
     id="g1850">
    <rect
       x="103.4144"
       y="-0.0933"
       width="1.7588"
       height="0.1866"
       ry="0.0933"
       fill="currentColor"
       id="rect1848" />
  </g>
  <g
     transform="translate(3.1967416e-8,5.8401973)"
     id="g1854">
    <rect
       x="103.4144"
       y="-0.0933"
       width="1.7588"
       height="0.1866"
       ry="0.0933"
       fill="currentColor"
       id="rect1852" />
  </g>
  <g
     transform="translate(3.1967416e-8,6.7401973)"
     id="g1858">
    <rect
       x="103.4144"
       y="-0.0933"
       width="1.7588"
       height="0.1866"
       ry="0.0933"
       fill="currentColor"
       id="rect1856" />
  </g>
  <g
     transform="translate(3.1967416e-8,7.6401973)"
     id="g1862">
    <rect
       x="103.4144"
       y="-0.0933"
       width="1.7588"
       height="0.1866"
       ry="0.0933"
       fill="currentColor"
       id="rect1860" />
  </g>
  <g
     transform="translate(3.1967416e-8,13.040197)"
     id="g1866">
    <rect
       x="103.4144"
       y="-0.0933"
       width="1.7588"
       height="0.1866"
       ry="0.0933"
       fill="currentColor"
       id="rect1864" />
  </g>
  <g
     transform="translate(3.1967416e-8,13.940197)"
     id="g1870">
    <rect
       x="103.4144"
       y="-0.0933"
       width="1.7588"
       height="0.1866"
       ry="0.0933"
       fill="currentColor"
       id="rect1868" />
  </g>
  <g
     transform="translate(3.1967416e-8,5.8401973)"
     id="g1874">
    <rect
       x="100.1992"
       y="-0.0933"
       width="1.6407"
       height="0.1866"
       ry="0.0933"
       fill="currentColor"
       id="rect1872" />
  </g>
  <g
     transform="translate(3.1967416e-8,6.7401973)"
     id="g1878">
    <rect
       x="100.081"
       y="-0.0933"
       width="1.7588"
       height="0.1866"
       ry="0.0933"
       fill="currentColor"
       id="rect1876" />
  </g>
  <g
     transform="translate(3.1967416e-8,7.6401973)"
     id="g1882">
    <rect
       x="100.081"
       y="-0.0933"
       width="1.7588"
       height="0.1866"
       ry="0.0933"
       fill="currentColor"
       id="rect1880" />
  </g>
  <g
     transform="translate(3.1967416e-8,5.8401973)"
     id="g1886">
    <rect
       x="97.278702"
       y="-0.0933"
       width="1.6486"
       height="0.1866"
       ry="0.0933"
       fill="currentColor"
       id="rect1884" />
  </g>
  <g
     transform="translate(3.1967416e-8,6.7401973)"
     id="g1890">
    <rect
       x="97.168503"
       y="-0.0933"
       width="1.7588"
       height="0.1866"
       ry="0.0933"
       fill="currentColor"
       id="rect1888" />
  </g>
  <g
     transform="translate(3.1967416e-8,7.6401973)"
     id="g1894">
    <rect
       x="97.168503"
       y="-0.0933"
       width="1.7588"
       height="0.1866"
       ry="0.0933"
       fill="currentColor"
       id="rect1892" />
  </g>
  <g
     transform="translate(3.1967416e-8,5.8401973)"
     id="g1898">
    <rect
       x="94.630203"
       y="-0.0933"
       width="1.7588"
       height="0.1866"
       ry="0.0933"
       fill="currentColor"
       id="rect1896" />
  </g>
  <g
     transform="translate(3.1967416e-8,6.7401973)"
     id="g1902">
    <rect
       x="94.630203"
       y="-0.0933"
       width="1.7588"
       height="0.1866"
       ry="0.0933"
       fill="currentColor"
       id="rect1900" />
  </g>
  <g
     transform="translate(3.1967416e-8,7.6401973)"
     id="g1906">
    <rect
       x="94.630203"
       y="-0.0933"
       width="1.7588"
       height="0.1866"
       ry="0.0933"
       fill="currentColor"
       id="rect1904" />
  </g>
  <g
     transform="translate(3.1967416e-8,6.7401973)"
     id="g1910">
    <rect
       x="92.631203"
       y="-0.0933"
       width="1.6407"
       height="0.1866"
       ry="0.0933"
       fill="currentColor"
       id="rect1908" />
  </g>
  <g
     transform="translate(3.1967416e-8,7.6401973)"
     id="g1914">
    <rect
       x="92.5131"
       y="-0.0933"
       width="1.7588"
       height="0.1866"
       ry="0.0933"
       fill="currentColor"
       id="rect1912" />
  </g>
  <g
     transform="translate(3.1967416e-8,6.7401973)"
     id="g1918">
    <rect
       x="89.600601"
       y="-0.0933"
       width="1.7588"
       height="0.1866"
       ry="0.0933"
       fill="currentColor"
       id="rect1916" />
  </g>
  <g
     transform="translate(3.1967416e-8,7.6401973)"
     id="g1922">
    <rect
       x="89.600601"
       y="-0.0933"
       width="1.7588"
       height="0.1866"
       ry="0.0933"
       fill="currentColor"
       id="rect1920" />
  </g>
  <g
     transform="translate(3.1967416e-8,6.7401973)"
     id="g1926">
    <rect
       x="87.601601"
       y="-0.0933"
       width="1.6407"
       height="0.1866"
       ry="0.0933"
       fill="currentColor"
       id="rect1924" />
  </g>
  <g
     transform="translate(3.1967416e-8,7.6401973)"
     id="g1930">
    <rect
       x="87.483498"
       y="-0.0933"
       width="1.7588"
       height="0.1866"
       ry="0.0933"
       fill="currentColor"
       id="rect1928" />
  </g>
  <g
     transform="translate(3.1967416e-8,6.7401973)"
     id="g1934">
    <rect
       x="84.5709"
       y="-0.0933"
       width="1.7588"
       height="0.1866"
       ry="0.0933"
       fill="currentColor"
       id="rect1932" />
  </g>
  <g
     transform="translate(3.1967416e-8,7.6401973)"
     id="g1938">
    <rect
       x="84.5709"
       y="-0.0933"
       width="1.7588"
       height="0.1866"
       ry="0.0933"
       fill="currentColor"
       id="rect1936" />
  </g>
  <g
     transform="translate(3.1967416e-8,7.6401973)"
     id="g1942">
    <rect
       x="82.453796"
       y="-0.0933"
       width="1.7588"
       height="0.1866"
       ry="0.0933"
       fill="currentColor"
       id="rect1940" />
  </g>
  <g
     transform="translate(3.1967416e-8,7.6401973)"
     id="g1946">
    <rect
       x="80.454903"
       y="-0.0933"
       width="1.6407"
       height="0.1866"
       ry="0.0933"
       fill="currentColor"
       id="rect1944" />
  </g>
  <g
     transform="translate(3.1967416e-8,7.6401973)"
     id="g1950">
    <rect
       x="77.424202"
       y="-0.0933"
       width="1.7588"
       height="0.1866"
       ry="0.0933"
       fill="currentColor"
       id="rect1948" />
  </g>
  <g
     transform="translate(3.1967416e-8,13.040197)"
     id="g1954">
    <rect
       x="41.575199"
       y="-0.0933"
       width="1.8638"
       height="0.1866"
       ry="0.0933"
       fill="currentColor"
       id="rect1952" />
  </g>
  <g
     transform="translate(3.1967416e-8,13.940197)"
     id="g1958">
    <rect
       x="41.575199"
       y="-0.0933"
       width="1.8638"
       height="0.1866"
       ry="0.0933"
       fill="currentColor"
       id="rect1956" />
  </g>
  <g
     transform="translate(3.1967416e-8,13.040197)"
     id="g1962">
    <rect
       x="25.760599"
       y="-0.0933"
       width="1.6407"
       height="0.1866"
       ry="0.0933"
       fill="currentColor"
       id="rect1960" />
  </g>
  <g
     transform="translate(3.1967416e-8,13.040197)"
     id="g1966">
    <rect
       x="22.73"
       y="-0.0933"
       width="1.7588"
       height="0.1866"
       ry="0.0933"
       fill="currentColor"
       id="rect1964" />
  </g>
  <g
     transform="translate(3.1967416e-8,13.040197)"
     id="g1970">
    <rect
       x="20.6129"
       y="-0.0933"
       width="1.7588"
       height="0.1866"
       ry="0.0933"
       fill="currentColor"
       id="rect1968" />
  </g>
  <g
     transform="translate(3.1967416e-8,13.040197)"
     id="g1974">
    <rect
       x="18.4958"
       y="-0.0933"
       width="1.7588"
       height="0.1866"
       ry="0.0933"
       fill="currentColor"
       id="rect1972" />
  </g>
  <g
     transform="translate(3.1967416e-8,13.940197)"
     id="g1978">
    <rect
       x="18.613899"
       y="-0.0933"
       width="1.6407"
       height="0.1866"
       ry="0.0933"
       fill="currentColor"
       id="rect1976" />
  </g>
  <g
     transform="translate(3.1967416e-8,13.040197)"
     id="g1982">
    <rect
       x="15.5833"
       y="-0.0933"
       width="1.7588"
       height="0.1866"
       ry="0.0933"
       fill="currentColor"
       id="rect1980" />
  </g>
  <g
     transform="translate(3.1967416e-8,13.940197)"
     id="g1986">
    <rect
       x="15.5833"
       y="-0.0933"
       width="1.7588"
       height="0.1866"
       ry="0.0933"
       fill="currentColor"
       id="rect1984" />
  </g>
  <g
     transform="translate(3.1967416e-8,13.040197)"
     id="g1990">
    <rect
       x="13.4662"
       y="-0.0933"
       width="1.7588"
       height="0.1866"
       ry="0.0933"
       fill="currentColor"
       id="rect1988" />
  </g>
  <g
     transform="translate(3.1967416e-8,13.940197)"
     id="g1994">
    <rect
       x="13.5843"
       y="-0.0933"
       width="1.6407"
       height="0.1866"
       ry="0.0933"
       fill="currentColor"
       id="rect1992" />
  </g>
  <g
     transform="translate(3.1967416e-8,13.040197)"
     id="g1998">
    <rect
       x="9.8294001"
       y="-0.0933"
       width="1.7588"
       height="0.1866"
       ry="0.0933"
       fill="currentColor"
       id="rect1996" />
  </g>
  <g
     transform="translate(3.1967416e-8,13.940197)"
     id="g2002">
    <rect
       x="9.8294001"
       y="-0.0933"
       width="1.7588"
       height="0.1866"
       ry="0.0933"
       fill="currentColor"
       id="rect2000" />
  </g>
  <g
     transform="translate(72.7505,10.340197)"
     id="g2006">
    <rect
       x="-0.062799998"
       y="2.4777"
       width="0.12549999"
       height="2.0223"
       ry="0.039999999"
       fill="currentColor"
       id="rect2004" />
  </g>
  <g
     transform="translate(73.7974,10.340197)"
     id="g2010">
    <rect
       x="-0.062799998"
       y="-5.2349"
       width="0.12549999"
       height="2.8234999"
       ry="0.039999999"
       fill="currentColor"
       id="rect2008" />
  </g>
  <a
     style="color:inherit"
     xlink:href="textedit://C:/Users/Javier/Documents/lilypond%20scores/ricci%20left%20hand%20examples.ly:62:18:19"
     id="a2016"
     transform="translate(-5.6906,-62.820503)">
    <g
       transform="translate(78.3783,75.4107)"
       id="g2014">
      <path
         transform="scale(0.0036,-0.0036)"
         d="m 312,64 c 0,24 -20,41 -41,41 -4,0 -8,-1 -12,-2 C 229,94 182,65 146,41 110,17 63,-13 43,-37 36,-45 33,-54 33,-64 c 0,-24 20,-41 41,-41 4,0 8,1 12,2 30,9 77,38 113,62 36,24 83,54 103,78 7,8 10,17 10,27 z m -53,73 c 48,0 86,-22 86,-74 0,-18 -4,-38 -10,-56 -12,-38 -30,-73 -63,-95 -53,-36 -113,-49 -186,-49 -48,0 -86,22 -86,74 0,18 4,38 10,56 12,38 31,73 64,95 53,36 112,49 185,49 z"
         fill="currentColor"
         id="path2012" />
    </g>
  </a>
  <a
     style="color:inherit"
     xlink:href="textedit://C:/Users/Javier/Documents/lilypond%20scores/ricci%20left%20hand%20examples.ly:59:10:11"
     id="a2022"
     transform="translate(-5.6906,-62.820503)">
    <g
       transform="translate(78.606,67.2599)"
       id="g2020">
      <path
         transform="scale(0.002,-0.002)"
         d="M 129,129 H 259 C 259,77 291,29 340,29 350,29 354,21 354,14 354,7 350,0 340,0 291,0 243,14 194,14 145,14 98,0 49,0 39,0 34,7 34,14 c 0,7 5,15 15,15 49,0 80,48 80,100 z M 0,250 129,500 c 3,7 13,3 21,0 14,-6 28,-14 44,-14 16,0 31,8 45,14 2,1 2,1 4,1 8,0 16,-9 16,-21 V 129 H 129 v 215 c 0,15 -11,23 -20,23 -5,0 -9,-2 -11,-7 L 32,233 c -4,-7 -9,-9 -15,-9 -9,0 -19,7 -19,17 0,3 0,6 2,9 z"
         fill="currentColor"
         id="path2018" />
    </g>
  </a>
  <a
     style="color:inherit"
     xlink:href="textedit://C:/Users/Javier/Documents/lilypond%20scores/ricci%20left%20hand%20examples.ly:59:8:9"
     id="a2028"
     transform="translate(-5.6906,-62.820503)">
    <g
       transform="translate(78.3783,70.9107)"
       id="g2026">
      <path
         transform="scale(0.0036,-0.0036)"
         d="m 215,137 c 57,0 111,-29 111,-92 0,-71 -54,-120 -101,-148 -35,-21 -74,-34 -114,-34 -57,0 -111,29 -111,92 0,71 54,120 101,148 35,21 74,34 114,34 z"
         fill="currentColor"
         id="path2024" />
    </g>
  </a>
  <g
     transform="translate(68.2322,8.5401973)"
     id="g2032">
    <path
       transform="scale(0.0036,-0.0036)"
       d="m 217,-311 c 0,-11 -8,-19 -19,-19 -11,0 -20,8 -20,19 v 142 l -81,-30 v -156 c 0,-11 -9,-20 -20,-20 -11,0 -19,9 -19,20 v 142 l -28,-11 c -3,-1 -5,-1 -8,-1 -12,0 -22,10 -22,23 v 57 c 0,9 6,18 15,21 l 43,16 V 49 L 30,39 C 27,38 25,38 22,38 10,38 0,47 0,60 v 57 c 0,9 6,18 15,21 l 43,16 v 157 c 0,11 8,19 19,19 11,0 20,-8 20,-19 V 169 l 81,30 v 156 c 0,11 9,20 20,20 11,0 19,-9 19,-20 V 213 l 28,11 c 3,1 5,1 8,1 12,0 22,-10 22,-23 v -57 c 0,-9 -6,-18 -15,-21 L 217,108 V -49 l 28,10 c 3,1 5,1 8,1 12,0 22,-9 22,-22 v -57 c 0,-9 -6,-18 -15,-21 l -43,-16 z M 97,64 V -94 l 81,30 V 94 Z"
       fill="currentColor"
       id="path2030" />
  </g>
  <a
     style="color:inherit"
     xlink:href="textedit://C:/Users/Javier/Documents/lilypond%20scores/ricci%20left%20hand%20examples.ly:59:17:18"
     id="a2038"
     transform="translate(-5.6906,-62.820503)">
    <g
       transform="translate(83.4079,70.4607)"
       id="g2036">
      <path
         transform="scale(0.0036,-0.0036)"
         d="m 215,137 c 57,0 111,-29 111,-92 0,-71 -54,-120 -101,-148 -35,-21 -74,-34 -114,-34 -57,0 -111,29 -111,92 0,71 54,120 101,148 35,21 74,34 114,34 z"
         fill="currentColor"
         id="path2034" />
    </g>
  </a>
  <g
     transform="translate(81.7396,10.340197)"
     id="g2042">
    <rect
       x="-0.062799998"
       y="-5.5651002"
       width="0.12549999"
       height="2.7037001"
       ry="0.039999999"
       fill="currentColor"
       id="rect2040" />
  </g>
  <a
     style="color:inherit"
     xlink:href="textedit://C:/Users/Javier/Documents/lilypond%20scores/ricci%20left%20hand%20examples.ly:59:21:22"
     id="a2048"
     transform="translate(-5.6906,-62.820503)">
    <g
       transform="translate(86.3204,70.4607)"
       id="g2046">
      <path
         transform="scale(0.0036,-0.0036)"
         d="m 215,137 c 57,0 111,-29 111,-92 0,-71 -54,-120 -101,-148 -35,-21 -74,-34 -114,-34 -57,0 -111,29 -111,92 0,71 54,120 101,148 35,21 74,34 114,34 z"
         fill="currentColor"
         id="path2044" />
    </g>
  </a>
  <g
     transform="translate(79.2898,7.6401973)"
     id="g2052">
    <path
       transform="scale(0.0036,-0.0036)"
       d="m 217,-311 c 0,-11 -8,-19 -19,-19 -11,0 -20,8 -20,19 v 142 l -81,-30 v -156 c 0,-11 -9,-20 -20,-20 -11,0 -19,9 -19,20 v 142 l -28,-11 c -3,-1 -5,-1 -8,-1 -12,0 -22,10 -22,23 v 57 c 0,9 6,18 15,21 l 43,16 V 49 L 30,39 C 27,38 25,38 22,38 10,38 0,47 0,60 v 57 c 0,9 6,18 15,21 l 43,16 v 157 c 0,11 8,19 19,19 11,0 20,-8 20,-19 V 169 l 81,30 v 156 c 0,11 9,20 20,20 11,0 19,-9 19,-20 V 213 l 28,11 c 3,1 5,1 8,1 12,0 22,-10 22,-23 v -57 c 0,-9 -6,-18 -15,-21 L 217,108 V -49 l 28,10 c 3,1 5,1 8,1 12,0 22,-9 22,-22 v -57 c 0,-9 -6,-18 -15,-21 l -43,-16 z M 97,64 V -94 l 81,30 V 94 Z"
       fill="currentColor"
       id="path2050" />
  </g>
  <g
     transform="translate(78.8271,10.340197)"
     id="g2056">
    <rect
       x="-0.062799998"
       y="-5.4439998"
       width="0.12549999"
       height="2.5826001"
       ry="0.039999999"
       fill="currentColor"
       id="rect2054" />
  </g>
  <a
     style="color:inherit"
     xlink:href="textedit://C:/Users/Javier/Documents/lilypond%20scores/ricci%20left%20hand%20examples.ly:59:18:19"
     id="a2062"
     transform="translate(-5.6906,-62.820503)">
    <g
       transform="translate(83.6357,65.5505)"
       id="g2060">
      <path
         transform="scale(0.002,-0.002)"
         d="M 129,129 H 259 C 259,77 291,29 340,29 350,29 354,21 354,14 354,7 350,0 340,0 291,0 243,14 194,14 145,14 98,0 49,0 39,0 34,7 34,14 c 0,7 5,15 15,15 49,0 80,48 80,100 z M 0,250 129,500 c 3,7 13,3 21,0 14,-6 28,-14 44,-14 16,0 31,8 45,14 2,1 2,1 4,1 8,0 16,-9 16,-21 V 129 H 129 v 215 c 0,15 -11,23 -20,23 -5,0 -9,-2 -11,-7 L 32,233 c -4,-7 -9,-9 -15,-9 -9,0 -19,7 -19,17 0,3 0,6 2,9 z"
         fill="currentColor"
         id="path2058" />
    </g>
  </a>
  <g
     transform="translate(74.2602,8.0901973)"
     id="g2066">
    <path
       transform="scale(0.0036,-0.0036)"
       d="m 217,-311 c 0,-11 -8,-19 -19,-19 -11,0 -20,8 -20,19 v 142 l -81,-30 v -156 c 0,-11 -9,-20 -20,-20 -11,0 -19,9 -19,20 v 142 l -28,-11 c -3,-1 -5,-1 -8,-1 -12,0 -22,10 -22,23 v 57 c 0,9 6,18 15,21 l 43,16 V 49 L 30,39 C 27,38 25,38 22,38 10,38 0,47 0,60 v 57 c 0,9 6,18 15,21 l 43,16 v 157 c 0,11 8,19 19,19 11,0 20,-8 20,-19 V 169 l 81,30 v 156 c 0,11 9,20 20,20 11,0 19,-9 19,-20 V 213 l 28,11 c 3,1 5,1 8,1 12,0 22,-10 22,-23 v -57 c 0,-9 -6,-18 -15,-21 L 217,108 V -49 l 28,10 c 3,1 5,1 8,1 12,0 22,-9 22,-22 v -57 c 0,-9 -6,-18 -15,-21 l -43,-16 z M 97,64 V -94 l 81,30 V 94 Z"
       fill="currentColor"
       id="path2064" />
  </g>
  <g
     transform="translate(76.71,10.340197)"
     id="g2070">
    <rect
       x="-0.062799998"
       y="-5.3559999"
       width="0.12549999"
       height="2.9446001"
       ry="0.039999999"
       fill="currentColor"
       id="rect2068" />
  </g>
  <a
     style="color:inherit"
     xlink:href="textedit://C:/Users/Javier/Documents/lilypond%20scores/ricci%20left%20hand%20examples.ly:59:13:14"
     id="a2076"
     transform="translate(-5.6906,-62.820503)">
    <g
       transform="translate(81.2908,70.9107)"
       id="g2074">
      <path
         transform="scale(0.0036,-0.0036)"
         d="m 215,137 c 57,0 111,-29 111,-92 0,-71 -54,-120 -101,-148 -35,-21 -74,-34 -114,-34 -57,0 -111,29 -111,92 0,71 54,120 101,148 35,21 74,34 114,34 z"
         fill="currentColor"
         id="path2072" />
    </g>
  </a>
  <a
     style="color:inherit"
     xlink:href="textedit://C:/Users/Javier/Documents/lilypond%20scores/ricci%20left%20hand%20examples.ly:58:37:38"
     id="a2082"
     transform="translate(-5.6906,-62.820503)">
    <g
       transform="translate(64.7824,72.2607)"
       id="g2080">
      <path
         transform="scale(0.0036,-0.0036)"
         d="m 215,137 c 57,0 111,-29 111,-92 0,-71 -54,-120 -101,-148 -35,-21 -74,-34 -114,-34 -57,0 -111,29 -111,92 0,71 54,120 101,148 35,21 74,34 114,34 z"
         fill="currentColor"
         id="path2078" />
    </g>
  </a>
  <g
     transform="translate(63.114,10.340197)"
     id="g2086">
    <rect
       x="-0.062799998"
       y="-4.5036998"
       width="0.12549999"
       height="3.4421999"
       ry="0.039999999"
       fill="currentColor"
       id="rect2084" />
  </g>
  <a
     style="color:inherit"
     xlink:href="textedit://C:/Users/Javier/Documents/lilypond%20scores/ricci%20left%20hand%20examples.ly:58:42:43"
     id="a2092"
     transform="translate(-5.6906,-62.820503)">
    <g
       transform="translate(67.9226,66.9469)"
       id="g2090">
      <path
         transform="scale(0.002,-0.002)"
         d="M 129,129 H 259 C 259,77 291,29 340,29 350,29 354,21 354,14 354,7 350,0 340,0 291,0 243,14 194,14 145,14 98,0 49,0 39,0 34,7 34,14 c 0,7 5,15 15,15 49,0 80,48 80,100 z M 0,250 129,500 c 3,7 13,3 21,0 14,-6 28,-14 44,-14 16,0 31,8 45,14 2,1 2,1 4,1 8,0 16,-9 16,-21 V 129 H 129 v 215 c 0,15 -11,23 -20,23 -5,0 -9,-2 -11,-7 L 32,233 c -4,-7 -9,-9 -15,-9 -9,0 -19,7 -19,17 0,3 0,6 2,9 z"
         fill="currentColor"
         id="path2088" />
    </g>
  </a>
  <a
     style="color:inherit"
     xlink:href="textedit://C:/Users/Javier/Documents/lilypond%20scores/ricci%20left%20hand%20examples.ly:58:39:40"
     id="a2098"
     transform="translate(-5.6906,-62.820503)">
    <g
       transform="translate(67.6949,72.2607)"
       id="g2096">
      <path
         transform="scale(0.0036,-0.0036)"
         d="m 215,137 c 57,0 111,-29 111,-92 0,-71 -54,-120 -101,-148 -35,-21 -74,-34 -114,-34 -57,0 -111,29 -111,92 0,71 54,120 101,148 35,21 74,34 114,34 z"
         fill="currentColor"
         id="path2094" />
    </g>
  </a>
  <g
     transform="translate(60.2015,10.340197)"
     id="g2102">
    <rect
       x="-0.062799998"
       y="-3.5961001"
       width="0.12549999"
       height="2.5346999"
       ry="0.039999999"
       fill="currentColor"
       id="rect2100" />
  </g>
  <g
     transform="translate(60.6643,9.4401973)"
     id="g2106">
    <path
       transform="scale(0.0036,-0.0036)"
       d="m 217,-311 c 0,-11 -8,-19 -19,-19 -11,0 -20,8 -20,19 v 142 l -81,-30 v -156 c 0,-11 -9,-20 -20,-20 -11,0 -19,9 -19,20 v 142 l -28,-11 c -3,-1 -5,-1 -8,-1 -12,0 -22,10 -22,23 v 57 c 0,9 6,18 15,21 l 43,16 V 49 L 30,39 C 27,38 25,38 22,38 10,38 0,47 0,60 v 57 c 0,9 6,18 15,21 l 43,16 v 157 c 0,11 8,19 19,19 11,0 20,-8 20,-19 V 169 l 81,30 v 156 c 0,11 9,20 20,20 11,0 19,-9 19,-20 V 213 l 28,11 c 3,1 5,1 8,1 12,0 22,-10 22,-23 v -57 c 0,-9 -6,-18 -15,-21 L 217,108 V -49 l 28,10 c 3,1 5,1 8,1 12,0 22,-9 22,-22 v -57 c 0,-9 -6,-18 -15,-21 l -43,-16 z M 97,64 V -94 l 81,30 V 94 Z"
       fill="currentColor"
       id="path2104" />
  </g>
  <g
     transform="translate(55.6347,9.8901973)"
     id="g2110">
    <path
       transform="scale(0.0036,-0.0036)"
       d="m 217,-311 c 0,-11 -8,-19 -19,-19 -11,0 -20,8 -20,19 v 142 l -81,-30 v -156 c 0,-11 -9,-20 -20,-20 -11,0 -19,9 -19,20 v 142 l -28,-11 c -3,-1 -5,-1 -8,-1 -12,0 -22,10 -22,23 v 57 c 0,9 6,18 15,21 l 43,16 V 49 L 30,39 C 27,38 25,38 22,38 10,38 0,47 0,60 v 57 c 0,9 6,18 15,21 l 43,16 v 157 c 0,11 8,19 19,19 11,0 20,-8 20,-19 V 169 l 81,30 v 156 c 0,11 9,20 20,20 11,0 19,-9 19,-20 V 213 l 28,11 c 3,1 5,1 8,1 12,0 22,-10 22,-23 v -57 c 0,-9 -6,-18 -15,-21 L 217,108 V -49 l 28,10 c 3,1 5,1 8,1 12,0 22,-9 22,-22 v -57 c 0,-9 -6,-18 -15,-21 l -43,-16 z M 97,64 V -94 l 81,30 V 94 Z"
       fill="currentColor"
       id="path2108" />
  </g>
  <g
     transform="translate(58.0844,10.340197)"
     id="g2114">
    <rect
       x="-0.062799998"
       y="-3.4651"
       width="0.12549999"
       height="2.8536999"
       ry="0.039999999"
       fill="currentColor"
       id="rect2112" />
  </g>
  <a
     style="color:inherit"
     xlink:href="textedit://C:/Users/Javier/Documents/lilypond%20scores/ricci%20left%20hand%20examples.ly:58:34:35"
     id="a2120"
     transform="translate(-5.6906,-62.820503)">
    <g
       transform="translate(62.893,69.0296)"
       id="g2118">
      <path
         transform="scale(0.002,-0.002)"
         d="M 129,129 H 259 C 259,77 291,29 340,29 350,29 354,21 354,14 354,7 350,0 340,0 291,0 243,14 194,14 145,14 98,0 49,0 39,0 34,7 34,14 c 0,7 5,15 15,15 49,0 80,48 80,100 z M 0,250 129,500 c 3,7 13,3 21,0 14,-6 28,-14 44,-14 16,0 31,8 45,14 2,1 2,1 4,1 8,0 16,-9 16,-21 V 129 H 129 v 215 c 0,15 -11,23 -20,23 -5,0 -9,-2 -11,-7 L 32,233 c -4,-7 -9,-9 -15,-9 -9,0 -19,7 -19,17 0,3 0,6 2,9 z"
         fill="currentColor"
         id="path2116" />
    </g>
  </a>
  <a
     style="color:inherit"
     xlink:href="textedit://C:/Users/Javier/Documents/lilypond%20scores/ricci%20left%20hand%20examples.ly:58:31:32"
     id="a2126"
     transform="translate(-5.6906,-62.820503)">
    <g
       transform="translate(62.6653,72.7107)"
       id="g2124">
      <path
         transform="scale(0.0036,-0.0036)"
         d="m 215,137 c 57,0 111,-29 111,-92 0,-71 -54,-120 -101,-148 -35,-21 -74,-34 -114,-34 -57,0 -111,29 -111,92 0,71 54,120 101,148 35,21 74,34 114,34 z"
         fill="currentColor"
         id="path2122" />
    </g>
  </a>
  <a
     style="color:inherit"
     xlink:href="textedit://C:/Users/Javier/Documents/lilypond%20scores/ricci%20left%20hand%20examples.ly:57:11:12"
     id="a2132"
     transform="translate(-5.6906,-62.820503)">
    <g
       transform="translate(15.8131,73.1607)"
       id="g2130">
      <path
         stroke-width="0.0773"
         stroke-linejoin="round"
         stroke-linecap="round"
         stroke="currentColor"
         fill="currentColor"
         d="m 1.0851,-0.666 c 2.4753,-1.8349 25.724,-3.3048 28.4107,-1.7963 v 0 C 26.8164,-3.8552 3.5677,-2.3852 1.0851,-0.666 Z"
         id="path2128" />
    </g>
  </a>
  <g
     transform="translate(70.682,10.340197)"
     id="g2136">
    <rect
       x="-0.062799998"
       y="-4.9463"
       width="0.12549999"
       height="2.9849"
       ry="0.039999999"
       fill="currentColor"
       id="rect2134" />
  </g>
  <a
     style="color:inherit"
     xlink:href="textedit://C:/Users/Javier/Documents/lilypond%20scores/ricci%20left%20hand%20examples.ly:58:55:56"
     id="a2142"
     transform="translate(-5.6906,-62.820503)">
    <g
       transform="translate(75.4223,67.0937)"
       id="g2140">
      <path
         transform="scale(0.002,-0.002)"
         d="m 198,284 c 24,15 48,29 65,52 12,16 19,34 28,52 2,5 6,7 11,7 8,0 16,-6 16,-17 V 161 h 79 c 12,0 18,-9 18,-18 0,-9 -6,-18 -18,-18 h -79 c 2,-51 33,-96 80,-96 10,0 15,-8 15,-15 C 413,7 408,0 398,0 349,0 302,14 253,14 204,14 156,0 107,0 97,0 93,7 93,14 c 0,7 4,15 14,15 47,0 79,45 81,96 H 36 c -29,0 -38,17 -38,28 0,3 1,6 2,8 78,88 123,201 123,319 0,11 8,21 17,21 1,0 3,-1 4,-1 25,-7 50,-14 76,-14 26,0 52,7 77,14 2,1 4,1 6,1 10,0 17,-7 17,-14 0,-2 0,-5 -2,-7 L 36,161 h 152 v 96 c 0,10 1,21 10,27 z"
         fill="currentColor"
         id="path2138" />
    </g>
  </a>
  <a
     style="color:inherit"
     xlink:href="textedit://C:/Users/Javier/Documents/lilypond%20scores/ricci%20left%20hand%20examples.ly:58:51:52"
     id="a2148"
     transform="translate(-5.6906,-62.820503)">
    <g
       transform="translate(75.2628,71.3607)"
       id="g2146">
      <path
         transform="scale(0.0036,-0.0036)"
         d="m 215,137 c 57,0 111,-29 111,-92 0,-71 -54,-120 -101,-148 -35,-21 -74,-34 -114,-34 -57,0 -111,29 -111,92 0,71 54,120 101,148 35,21 74,34 114,34 z"
         fill="currentColor"
         id="path2144" />
    </g>
  </a>
  <g
     transform="translate(65.6939,8.5401973)"
     id="g2152">
    <path
       transform="scale(0.0036,-0.0036)"
       d="m -8,375 c 8,5 17,7 26,7 9,0 18,-2 26,-7 l -3,-187 104,21 h 4 c 10,0 18,-8 18,-18 l 7,-566 c -8,-5 -16,-7 -25,-7 -9,0 -18,2 -26,7 l 2,187 -103,-21 h -4 c -10,0 -18,8 -18,18 z M 130,111 40,93 l -3,-204 90,18 z"
       fill="currentColor"
       id="path2150" />
  </g>
  <g
     transform="translate(67.7695,10.340197)"
     id="g2156">
    <rect
       x="-0.062799998"
       y="-4.776"
       width="0.12549999"
       height="2.8145001"
       ry="0.039999999"
       fill="currentColor"
       id="rect2154" />
  </g>
  <a
     style="color:inherit"
     xlink:href="textedit://C:/Users/Javier/Documents/lilypond%20scores/ricci%20left%20hand%20examples.ly:58:48:49"
     id="a2162"
     transform="translate(-5.6906,-62.820503)">
    <g
       transform="translate(72.5952,66.8912)"
       id="g2160">
      <path
         transform="scale(0.002,-0.002)"
         d="m 155,471 c -34,0 -70,-8 -70,-38 0,-19 31,-23 31,-42 0,-28 -23,-51 -51,-51 -28,0 -51,23 -51,51 0,67 68,109 141,109 93,0 174,-31 174,-113 0,-41 -6,-77 -42,-94 -11,-5 -17,-16 -17,-27 0,-11 6,-22 17,-27 40,-19 59,-53 59,-98 C 346,47 263,0 160,0 78,0 0,45 0,119 c 0,32 26,58 58,58 32,0 58,-26 58,-58 0,-22 -36,-26 -36,-48 0,-33 42,-42 80,-42 46,0 56,58 56,112 v 38 c 0,40 -4,69 -43,69 H 99 c -12,0 -18,9 -18,18 0,9 6,18 18,18 h 74 c 40,0 43,31 43,73 v 30 c 0,50 -16,84 -61,84 z"
         fill="currentColor"
         id="path2158" />
    </g>
  </a>
  <a
     style="color:inherit"
     xlink:href="textedit://C:/Users/Javier/Documents/lilypond%20scores/ricci%20left%20hand%20examples.ly:58:47:48"
     id="a2168"
     transform="translate(-5.6906,-62.820503)">
    <g
       transform="translate(72.3503,71.3607)"
       id="g2166">
      <path
         transform="scale(0.0036,-0.0036)"
         d="m 215,137 c 57,0 111,-29 111,-92 0,-71 -54,-120 -101,-148 -35,-21 -74,-34 -114,-34 -57,0 -111,29 -111,92 0,71 54,120 101,148 35,21 74,34 114,34 z"
         fill="currentColor"
         id="path2164" />
    </g>
  </a>
  <g
     transform="translate(65.2311,10.340197)"
     id="g2172">
    <rect
       x="-0.062799998"
       y="-4.6275001"
       width="0.12549999"
       height="3.1161001"
       ry="0.039999999"
       fill="currentColor"
       id="rect2170" />
  </g>
  <a
     style="color:inherit"
     xlink:href="textedit://C:/Users/Javier/Documents/lilypond%20scores/ricci%20left%20hand%20examples.ly:58:45:46"
     id="a2178"
     transform="translate(-5.6906,-62.820503)">
    <g
       transform="translate(69.812,71.8107)"
       id="g2176">
      <path
         transform="scale(0.0036,-0.0036)"
         d="m 215,137 c 57,0 111,-29 111,-92 0,-71 -54,-120 -101,-148 -35,-21 -74,-34 -114,-34 -57,0 -111,29 -111,92 0,71 54,120 101,148 35,21 74,34 114,34 z"
         fill="currentColor"
         id="path2174" />
    </g>
  </a>
  <a
     style="color:inherit"
     xlink:href="textedit://C:/Users/Javier/Documents/lilypond%20scores/ricci%20left%20hand%20examples.ly:59:59:60"
     id="a2184"
     transform="translate(-5.6906,-62.820503)">
    <g
       transform="translate(106.0647,68.2107)"
       id="g2182">
      <path
         transform="scale(0.0036,-0.0036)"
         d="m 215,137 c 57,0 111,-29 111,-92 0,-71 -54,-120 -101,-148 -35,-21 -74,-34 -114,-34 -57,0 -111,29 -111,92 0,71 54,120 101,148 35,21 74,34 114,34 z"
         fill="currentColor"
         id="path2180" />
    </g>
  </a>
  <a
     style="color:inherit"
     xlink:href="textedit://C:/Users/Javier/Documents/lilypond%20scores/ricci%20left%20hand%20examples.ly:64:15:16"
     id="a2190"
     transform="translate(-5.6906,-62.820503)">
    <g
       transform="translate(109.3981,70.0107)"
       id="g2188">
      <path
         transform="scale(0.0036,-0.0036)"
         d="m 215,137 c 57,0 111,-29 111,-92 0,-71 -54,-120 -101,-148 -35,-21 -74,-34 -114,-34 -57,0 -111,29 -111,92 0,71 54,120 101,148 35,21 74,34 114,34 z"
         fill="currentColor"
         id="path2186" />
    </g>
  </a>
  <a
     style="color:inherit"
     xlink:href="textedit://C:/Users/Javier/Documents/lilypond%20scores/ricci%20left%20hand%20examples.ly:64:12:13"
     id="a2196"
     transform="translate(-5.6906,-62.820503)">
    <g
       transform="translate(109.3981,75.4107)"
       id="g2194">
      <path
         transform="scale(0.0036,-0.0036)"
         d="m 215,137 c 57,0 111,-29 111,-92 0,-71 -54,-120 -101,-148 -35,-21 -74,-34 -114,-34 -57,0 -111,29 -111,92 0,71 54,120 101,148 35,21 74,34 114,34 z"
         fill="currentColor"
         id="path2192" />
    </g>
  </a>
  <a
     style="color:inherit"
     xlink:href="textedit://C:/Users/Javier/Documents/lilypond%20scores/ricci%20left%20hand%20examples.ly:64:9:10"
     id="a2202"
     transform="translate(-5.6906,-62.820503)">
    <g
       transform="translate(109.3981,77.2107)"
       id="g2200">
      <path
         transform="scale(0.0036,-0.0036)"
         d="m 215,137 c 57,0 111,-29 111,-92 0,-71 -54,-120 -101,-148 -35,-21 -74,-34 -114,-34 -57,0 -111,29 -111,92 0,71 54,120 101,148 35,21 74,34 114,34 z"
         fill="currentColor"
         id="path2198" />
    </g>
  </a>
  <g
     transform="translate(99.0341,5.3901973)"
     id="g2206">
    <path
       transform="scale(0.0036,-0.0036)"
       d="m 217,-311 c 0,-11 -8,-19 -19,-19 -11,0 -20,8 -20,19 v 142 l -81,-30 v -156 c 0,-11 -9,-20 -20,-20 -11,0 -19,9 -19,20 v 142 l -28,-11 c -3,-1 -5,-1 -8,-1 -12,0 -22,10 -22,23 v 57 c 0,9 6,18 15,21 l 43,16 V 49 L 30,39 C 27,38 25,38 22,38 10,38 0,47 0,60 v 57 c 0,9 6,18 15,21 l 43,16 v 157 c 0,11 8,19 19,19 11,0 20,-8 20,-19 V 169 l 81,30 v 156 c 0,11 9,20 20,20 11,0 19,-9 19,-20 V 213 l 28,11 c 3,1 5,1 8,1 12,0 22,-10 22,-23 v -57 c 0,-9 -6,-18 -15,-21 L 217,108 V -49 l 28,10 c 3,1 5,1 8,1 12,0 22,-9 22,-22 v -57 c 0,-9 -6,-18 -15,-21 l -43,-16 z M 97,64 V -94 l 81,30 V 94 Z"
       fill="currentColor"
       id="path2204" />
  </g>
  <g
     transform="translate(101.4839,10.340197)"
     id="g2210">
    <rect
       x="-0.062799998"
       y="-7.9277"
       width="0.12549999"
       height="2.8162999"
       ry="0.039999999"
       fill="currentColor"
       id="rect2208" />
  </g>
  <a
     style="color:inherit"
     xlink:href="textedit://C:/Users/Javier/Documents/lilypond%20scores/ricci%20left%20hand%20examples.ly:59:63:64"
     id="a2216"
     transform="translate(-5.6906,-62.820503)">
    <g
       transform="translate(106.2242,64.0455)"
       id="g2214">
      <path
         transform="scale(0.002,-0.002)"
         d="m 198,284 c 24,15 48,29 65,52 12,16 19,34 28,52 2,5 6,7 11,7 8,0 16,-6 16,-17 V 161 h 79 c 12,0 18,-9 18,-18 0,-9 -6,-18 -18,-18 h -79 c 2,-51 33,-96 80,-96 10,0 15,-8 15,-15 C 413,7 408,0 398,0 349,0 302,14 253,14 204,14 156,0 107,0 97,0 93,7 93,14 c 0,7 4,15 14,15 47,0 79,45 81,96 H 36 c -29,0 -38,17 -38,28 0,3 1,6 2,8 78,88 123,201 123,319 0,11 8,21 17,21 1,0 3,-1 4,-1 25,-7 50,-14 76,-14 26,0 52,7 77,14 2,1 4,1 6,1 10,0 17,-7 17,-14 0,-2 0,-5 -2,-7 L 36,161 h 152 v 96 c 0,10 1,21 10,27 z"
         fill="currentColor"
         id="path2212" />
    </g>
  </a>
  <a
     style="color:inherit"
     xlink:href="textedit://C:/Users/Javier/Documents/lilypond%20scores/ricci%20left%20hand%20examples.ly:64:19:20"
     id="a2222"
     transform="translate(-5.6906,-62.820503)">
    <g
       transform="translate(109.3981,67.7607)"
       id="g2220">
      <path
         transform="scale(0.0036,-0.0036)"
         d="m 215,137 c 57,0 111,-29 111,-92 0,-71 -54,-120 -101,-148 -35,-21 -74,-34 -114,-34 -57,0 -111,29 -111,92 0,71 54,120 101,148 35,21 74,34 114,34 z"
         fill="currentColor"
         id="path2218" />
    </g>
  </a>
  <g
     transform="translate(96.4958,5.3901973)"
     id="g2226">
    <path
       transform="scale(0.0036,-0.0036)"
       d="m -8,375 c 8,5 17,7 26,7 9,0 18,-2 26,-7 l -3,-187 104,21 h 4 c 10,0 18,-8 18,-18 l 7,-566 c -8,-5 -16,-7 -25,-7 -9,0 -18,2 -26,7 l 2,187 -103,-21 h -4 c -10,0 -18,8 -18,18 z M 130,111 40,93 l -3,-204 90,18 z"
       fill="currentColor"
       id="path2224" />
  </g>
  <g
     transform="translate(98.5714,10.340197)"
     id="g2230">
    <rect
       x="-0.062799998"
       y="-7.7139001"
       width="0.12549999"
       height="2.6025"
       ry="0.039999999"
       fill="currentColor"
       id="rect2228" />
  </g>
  <a
     style="color:inherit"
     xlink:href="textedit://C:/Users/Javier/Documents/lilypond%20scores/ricci%20left%20hand%20examples.ly:59:56:57"
     id="a2236"
     transform="translate(-5.6906,-62.820503)">
    <g
       transform="translate(103.397,63.8205)"
       id="g2234">
      <path
         transform="scale(0.002,-0.002)"
         d="m 155,471 c -34,0 -70,-8 -70,-38 0,-19 31,-23 31,-42 0,-28 -23,-51 -51,-51 -28,0 -51,23 -51,51 0,67 68,109 141,109 93,0 174,-31 174,-113 0,-41 -6,-77 -42,-94 -11,-5 -17,-16 -17,-27 0,-11 6,-22 17,-27 40,-19 59,-53 59,-98 C 346,47 263,0 160,0 78,0 0,45 0,119 c 0,32 26,58 58,58 32,0 58,-26 58,-58 0,-22 -36,-26 -36,-48 0,-33 42,-42 80,-42 46,0 56,58 56,112 v 38 c 0,40 -4,69 -43,69 H 99 c -12,0 -18,9 -18,18 0,9 6,18 18,18 h 74 c 40,0 43,31 43,73 v 30 c 0,50 -16,84 -61,84 z"
         fill="currentColor"
         id="path2232" />
    </g>
  </a>
  <a
     style="color:inherit"
     xlink:href="textedit://C:/Users/Javier/Documents/lilypond%20scores/ricci%20left%20hand%20examples.ly:59:55:56"
     id="a2242"
     transform="translate(-5.6906,-62.820503)">
    <g
       transform="translate(103.1522,68.2107)"
       id="g2240">
      <path
         transform="scale(0.0036,-0.0036)"
         d="m 215,137 c 57,0 111,-29 111,-92 0,-71 -54,-120 -101,-148 -35,-21 -74,-34 -114,-34 -57,0 -111,29 -111,92 0,71 54,120 101,148 35,21 74,34 114,34 z"
         fill="currentColor"
         id="path2238" />
    </g>
  </a>
  <g
     transform="translate(11.1695,10.340197)"
     id="g2246">
    <polygon
       stroke-linejoin="round"
       stroke-linecap="round"
       stroke-width="0.08"
       fill="currentColor"
       stroke="currentColor"
       points="8.7519,-0.176 8.7519,0.176 0.04,0.176 0.04,-0.176 "
       id="polygon2244" />
  </g>
  <g
     transform="translate(11.1695,11.072497)"
     id="g2250">
    <polygon
       stroke-linejoin="round"
       stroke-linecap="round"
       stroke-width="0.08"
       fill="currentColor"
       stroke="currentColor"
       points="8.7519,-0.176 8.7519,0.176 0.04,0.176 0.04,-0.176 "
       id="polygon2248" />
  </g>
  <g
     transform="translate(21.953,9.6079973)"
     id="g2254">
    <polygon
       stroke-linejoin="round"
       stroke-linecap="round"
       stroke-width="0.08"
       fill="currentColor"
       stroke="currentColor"
       points="7.2323,-0.3437 7.2323,0.0083 0.04,0.176 0.04,-0.176 "
       id="polygon2252" />
  </g>
  <g
     transform="translate(21.953,10.340197)"
     id="g2258">
    <polygon
       stroke-linejoin="round"
       stroke-linecap="round"
       stroke-width="0.08"
       fill="currentColor"
       stroke="currentColor"
       points="7.2323,-0.3437 7.2323,0.0083 0.04,0.176 0.04,-0.176 "
       id="polygon2256" />
  </g>
  <g
     transform="translate(32.0122,8.9901973)"
     id="g2262">
    <polygon
       stroke-linejoin="round"
       stroke-linecap="round"
       stroke-width="0.08"
       fill="currentColor"
       stroke="currentColor"
       points="7.6535,-0.626 7.6535,-0.274 0.04,0.176 0.04,-0.176 "
       id="polygon2260" />
  </g>
  <g
     transform="translate(32.0122,9.7224973)"
     id="g2266">
    <polygon
       stroke-linejoin="round"
       stroke-linecap="round"
       stroke-width="0.08"
       fill="currentColor"
       stroke="currentColor"
       points="7.6535,-0.626 7.6535,-0.274 0.04,0.176 0.04,-0.176 "
       id="polygon2264" />
  </g>
  <a
     style="color:inherit"
     xlink:href="textedit://C:/Users/Javier/Documents/lilypond%20scores/ricci%20left%20hand%20examples.ly:58:9:10"
     id="a2272"
     transform="translate(-5.6906,-62.820503)">
    <g
       transform="translate(47.5764,73.1607)"
       id="g2270">
      <path
         stroke-width="0.0773"
         stroke-linejoin="round"
         stroke-linecap="round"
         stroke="currentColor"
         fill="currentColor"
         d="m 1.0758,-3.1996 c 2.4138,-1.8873 24.9826,-3.8541 27.6865,-2.4127 v 0 C 26.0684,-6.9382 3.4997,-4.9715 1.0758,-3.1996 Z"
         id="path2268" />
    </g>
  </a>
  <g
     transform="translate(42.9328,7.8079973)"
     id="g2276">
    <polygon
       stroke-linejoin="round"
       stroke-linecap="round"
       stroke-width="0.08"
       fill="currentColor"
       stroke="currentColor"
       points="8.0277,-0.3437 8.0277,0.0083 0.04,0.176 0.04,-0.176 "
       id="polygon2274" />
  </g>
  <g
     transform="translate(42.9328,8.5401973)"
     id="g2280">
    <polygon
       stroke-linejoin="round"
       stroke-linecap="round"
       stroke-width="0.08"
       fill="currentColor"
       stroke="currentColor"
       points="8.0277,-0.3437 8.0277,0.0083 0.04,0.176 0.04,-0.176 "
       id="polygon2278" />
  </g>
  <g
     transform="translate(52.992,7.1901973)"
     id="g2284">
    <polygon
       stroke-linejoin="round"
       stroke-linecap="round"
       stroke-width="0.08"
       fill="currentColor"
       stroke="currentColor"
       points="7.2323,-0.626 7.2323,-0.274 0.04,0.176 0.04,-0.176 "
       id="polygon2282" />
  </g>
  <g
     transform="translate(52.992,7.9224973)"
     id="g2288">
    <polygon
       stroke-linejoin="round"
       stroke-linecap="round"
       stroke-width="0.08"
       fill="currentColor"
       stroke="currentColor"
       points="7.2323,-0.626 7.2323,-0.274 0.04,0.176 0.04,-0.176 "
       id="polygon2286" />
  </g>
  <g
     transform="translate(63.0513,5.8401973)"
     id="g2292">
    <polygon
       stroke-linejoin="round"
       stroke-linecap="round"
       stroke-width="0.08"
       fill="currentColor"
       stroke="currentColor"
       points="7.6535,-0.626 7.6535,-0.274 0.04,0.176 0.04,-0.176 "
       id="polygon2290" />
  </g>
  <g
     transform="translate(63.0513,6.5724973)"
     id="g2296">
    <polygon
       stroke-linejoin="round"
       stroke-linecap="round"
       stroke-width="0.08"
       fill="currentColor"
       stroke="currentColor"
       points="7.6535,-0.626 7.6535,-0.274 0.04,0.176 0.04,-0.176 "
       id="polygon2294" />
  </g>
  <a
     style="color:inherit"
     xlink:href="textedit://C:/Users/Javier/Documents/lilypond%20scores/ricci%20left%20hand%20examples.ly:59:9:10"
     id="a2302"
     transform="translate(-5.6906,-62.820503)">
    <g
       transform="translate(78.3783,73.1607)"
       id="g2300">
      <path
         stroke-width="0.0773"
         stroke-linejoin="round"
         stroke-linecap="round"
         stroke="currentColor"
         fill="currentColor"
         d="m 1.0714,-5.9009 c 1.7317,-1.6249 10.1608,-2.4556 12.1764,-1.2 v 0 c -2.0043,-1.1402 -10.4333,-0.3095 -12.1764,1.2 z"
         id="path2298" />
    </g>
  </a>
  <g
     transform="translate(73.7347,5.1079973)"
     id="g2306">
    <polygon
       stroke-linejoin="round"
       stroke-linecap="round"
       stroke-width="0.08"
       fill="currentColor"
       stroke="currentColor"
       points="8.0277,-0.5114 8.0277,-0.1594 0.04,0.176 0.04,-0.176 "
       id="polygon2304" />
  </g>
  <g
     transform="translate(73.7347,5.8401973)"
     id="g2310">
    <polygon
       stroke-linejoin="round"
       stroke-linecap="round"
       stroke-width="0.08"
       fill="currentColor"
       stroke="currentColor"
       points="8.0277,-0.5114 8.0277,-0.1594 0.04,0.176 0.04,-0.176 "
       id="polygon2308" />
  </g>
  <a
     style="color:inherit"
     xlink:href="textedit://C:/Users/Javier/Documents/lilypond%20scores/ricci%20left%20hand%20examples.ly:59:37:38"
     id="a2316"
     transform="translate(-5.6906,-62.820503)">
    <g
       transform="translate(93.4672,73.1607)"
       id="g2314">
      <path
         stroke-width="0.0773"
         stroke-linejoin="round"
         stroke-linecap="round"
         stroke="currentColor"
         fill="currentColor"
         d="m 1.0693,-7.2811 c 1.7521,-1.6505 10.5428,-2.5664 12.5975,-1.3126 v 0 C 11.6241,-9.7323 2.8334,-8.8164 1.0693,-7.2811 Z"
         id="path2312" />
    </g>
  </a>
  <g
     transform="translate(83.7939,4.0401973)"
     id="g2320">
    <polygon
       stroke-linejoin="round"
       stroke-linecap="round"
       stroke-width="0.08"
       fill="currentColor"
       stroke="currentColor"
       points="7.2323,-0.626 7.2323,-0.274 0.04,0.176 0.04,-0.176 "
       id="polygon2318" />
  </g>
  <g
     transform="translate(83.7939,4.7724973)"
     id="g2324">
    <polygon
       stroke-linejoin="round"
       stroke-linecap="round"
       stroke-width="0.08"
       fill="currentColor"
       stroke="currentColor"
       points="7.2323,-0.626 7.2323,-0.274 0.04,0.176 0.04,-0.176 "
       id="polygon2322" />
  </g>
  <g
     transform="translate(93.8532,2.9724973)"
     id="g2328">
    <polygon
       stroke-linejoin="round"
       stroke-linecap="round"
       stroke-width="0.08"
       fill="currentColor"
       stroke="currentColor"
       points="7.6535,-0.7406 7.6535,-0.3886 0.04,0.176 0.04,-0.176 "
       id="polygon2326" />
  </g>
  <g
     transform="translate(93.8532,3.7047973)"
     id="g2332">
    <polygon
       stroke-linejoin="round"
       stroke-linecap="round"
       stroke-width="0.08"
       fill="currentColor"
       stroke="currentColor"
       points="7.6535,-0.7406 7.6535,-0.3886 0.04,0.176 0.04,-0.176 "
       id="polygon2330" />
  </g>
  <g
     transform="translate(103.7703,10.340197)"
     id="g2336">
    <rect
       x="-0.062799998"
       y="-5.2385998"
       width="0.12549999"
       height="11.5386"
       ry="0.039999999"
       fill="currentColor"
       id="rect2334" />
  </g>
  <a
     style="color:inherit"
     xlink:href="textedit://C:/Users/Javier/Documents/lilypond%20scores/ricci%20left%20hand%20examples.ly:59:42:43"
     id="a2342"
     transform="translate(-5.6906,-62.820503)">
    <g
       transform="translate(95.7437,64.7343)"
       id="g2340">
      <path
         transform="scale(0.002,-0.002)"
         d="m 198,284 c 24,15 48,29 65,52 12,16 19,34 28,52 2,5 6,7 11,7 8,0 16,-6 16,-17 V 161 h 79 c 12,0 18,-9 18,-18 0,-9 -6,-18 -18,-18 h -79 c 2,-51 33,-96 80,-96 10,0 15,-8 15,-15 C 413,7 408,0 398,0 349,0 302,14 253,14 204,14 156,0 107,0 97,0 93,7 93,14 c 0,7 4,15 14,15 47,0 79,45 81,96 H 36 c -29,0 -38,17 -38,28 0,3 1,6 2,8 78,88 123,201 123,319 0,11 8,21 17,21 1,0 3,-1 4,-1 25,-7 50,-14 76,-14 26,0 52,7 77,14 2,1 4,1 6,1 10,0 17,-7 17,-14 0,-2 0,-5 -2,-7 L 36,161 h 152 v 96 c 0,10 1,21 10,27 z"
         fill="currentColor"
         id="path2338" />
    </g>
  </a>
  <a
     style="color:inherit"
     xlink:href="textedit://C:/Users/Javier/Documents/lilypond%20scores/ricci%20left%20hand%20examples.ly:59:41:42"
     id="a2348"
     transform="translate(-5.6906,-62.820503)">
    <g
       transform="translate(95.5842,69.1107)"
       id="g2346">
      <path
         transform="scale(0.0036,-0.0036)"
         d="m 215,137 c 57,0 111,-29 111,-92 0,-71 -54,-120 -101,-148 -35,-21 -74,-34 -114,-34 -57,0 -111,29 -111,92 0,71 54,120 101,148 35,21 74,34 114,34 z"
         fill="currentColor"
         id="path2344" />
    </g>
  </a>
  <g
     transform="translate(86.4366,6.7401973)"
     id="g2352">
    <path
       transform="scale(0.0036,-0.0036)"
       d="m 217,-311 c 0,-11 -8,-19 -19,-19 -11,0 -20,8 -20,19 v 142 l -81,-30 v -156 c 0,-11 -9,-20 -20,-20 -11,0 -19,9 -19,20 v 142 l -28,-11 c -3,-1 -5,-1 -8,-1 -12,0 -22,10 -22,23 v 57 c 0,9 6,18 15,21 l 43,16 V 49 L 30,39 C 27,38 25,38 22,38 10,38 0,47 0,60 v 57 c 0,9 6,18 15,21 l 43,16 v 157 c 0,11 8,19 19,19 11,0 20,-8 20,-19 V 169 l 81,30 v 156 c 0,11 9,20 20,20 11,0 19,-9 19,-20 V 213 l 28,11 c 3,1 5,1 8,1 12,0 22,-10 22,-23 v -57 c 0,-9 -6,-18 -15,-21 L 217,108 V -49 l 28,10 c 3,1 5,1 8,1 12,0 22,-9 22,-22 v -57 c 0,-9 -6,-18 -15,-21 l -43,-16 z M 97,64 V -94 l 81,30 V 94 Z"
       fill="currentColor"
       id="path2350" />
  </g>
  <g
     transform="translate(88.8863,10.340197)"
     id="g2356">
    <rect
       x="-0.062799998"
       y="-6.6150999"
       width="0.12549999"
       height="2.8536999"
       ry="0.039999999"
       fill="currentColor"
       id="rect2354" />
  </g>
  <a
     style="color:inherit"
     xlink:href="textedit://C:/Users/Javier/Documents/lilypond%20scores/ricci%20left%20hand%20examples.ly:59:38:39"
     id="a2362"
     transform="translate(-5.6906,-62.820503)">
    <g
       transform="translate(93.712,65.8796)"
       id="g2360">
      <path
         transform="scale(0.002,-0.002)"
         d="m 155,471 c -34,0 -70,-8 -70,-38 0,-19 31,-23 31,-42 0,-28 -23,-51 -51,-51 -28,0 -51,23 -51,51 0,67 68,109 141,109 93,0 174,-31 174,-113 0,-41 -6,-77 -42,-94 -11,-5 -17,-16 -17,-27 0,-11 6,-22 17,-27 40,-19 59,-53 59,-98 C 346,47 263,0 160,0 78,0 0,45 0,119 c 0,32 26,58 58,58 32,0 58,-26 58,-58 0,-22 -36,-26 -36,-48 0,-33 42,-42 80,-42 46,0 56,58 56,112 v 38 c 0,40 -4,69 -43,69 H 99 c -12,0 -18,9 -18,18 0,9 6,18 18,18 h 74 c 40,0 43,31 43,73 v 30 c 0,50 -16,84 -61,84 z"
         fill="currentColor"
         id="path2358" />
    </g>
  </a>
  <a
     style="color:inherit"
     xlink:href="textedit://C:/Users/Javier/Documents/lilypond%20scores/ricci%20left%20hand%20examples.ly:59:34:35"
     id="a2368"
     transform="translate(-5.6906,-62.820503)">
    <g
       transform="translate(93.4672,69.5607)"
       id="g2366">
      <path
         transform="scale(0.0036,-0.0036)"
         d="m 215,137 c 57,0 111,-29 111,-92 0,-71 -54,-120 -101,-148 -35,-21 -74,-34 -114,-34 -57,0 -111,29 -111,92 0,71 54,120 101,148 35,21 74,34 114,34 z"
         fill="currentColor"
         id="path2364" />
    </g>
  </a>
  <g
     transform="translate(91.0034,10.340197)"
     id="g2372">
    <rect
       x="-0.062799998"
       y="-6.7460999"
       width="0.12549999"
       height="2.5346999"
       ry="0.039999999"
       fill="currentColor"
       id="rect2370" />
  </g>
  <g
     transform="translate(85.9738,10.340197)"
     id="g2376">
    <rect
       x="-0.062799998"
       y="-6.4348998"
       width="0.12549999"
       height="2.6735001"
       ry="0.039999999"
       fill="currentColor"
       id="rect2374" />
  </g>
  <a
     style="color:inherit"
     xlink:href="textedit://C:/Users/Javier/Documents/lilypond%20scores/ricci%20left%20hand%20examples.ly:59:31:32"
     id="a2382"
     transform="translate(-5.6906,-62.820503)">
    <g
       transform="translate(90.7653,65.5408)"
       id="g2380">
      <path
         transform="scale(0.002,-0.002)"
         d="m 129,149 h 7 c 36,0 74,-13 111,-40 19,-14 40,-21 59,-21 22,0 40,10 46,31 2,7 7,11 13,11 7,0 15,-5 15,-14 v -5 C 361,40 296,0 234,0 196,0 159,15 133,47 121,62 105,69 89,69 60,69 32,48 29,13 28,4 22,0 15,0 8,0 0,5 0,14 c 0,173 233,163 233,341 0,56 -14,116 -62,116 -33,0 -66,-15 -66,-44 0,-24 31,-37 31,-61 0,-34 -27,-61 -61,-61 -34,0 -61,27 -61,61 0,78 74,134 157,134 98,0 191,-55 191,-145 C 362,211 227,199 129,149 Z"
         fill="currentColor"
         id="path2378" />
    </g>
  </a>
  <a
     style="color:inherit"
     xlink:href="textedit://C:/Users/Javier/Documents/lilypond%20scores/ricci%20left%20hand%20examples.ly:59:29:30"
     id="a2388"
     transform="translate(-5.6906,-62.820503)">
    <g
       transform="translate(90.5546,69.5607)"
       id="g2386">
      <path
         transform="scale(0.0036,-0.0036)"
         d="m 215,137 c 57,0 111,-29 111,-92 0,-71 -54,-120 -101,-148 -35,-21 -74,-34 -114,-34 -57,0 -111,29 -111,92 0,71 54,120 101,148 35,21 74,34 114,34 z"
         fill="currentColor"
         id="path2384" />
    </g>
  </a>
  <g
     transform="translate(83.8567,10.340197)"
     id="g2392">
    <rect
       x="-0.062799998"
       y="-6.3038998"
       width="0.12549999"
       height="2.9925001"
       ry="0.039999999"
       fill="currentColor"
       id="rect2390" />
  </g>
  <a
     style="color:inherit"
     xlink:href="textedit://C:/Users/Javier/Documents/lilypond%20scores/ricci%20left%20hand%20examples.ly:59:26:27"
     id="a2398"
     transform="translate(-5.6906,-62.820503)">
    <g
       transform="translate(88.6653,65.3007)"
       id="g2396">
      <path
         transform="scale(0.002,-0.002)"
         d="M 129,129 H 259 C 259,77 291,29 340,29 350,29 354,21 354,14 354,7 350,0 340,0 291,0 243,14 194,14 145,14 98,0 49,0 39,0 34,7 34,14 c 0,7 5,15 15,15 49,0 80,48 80,100 z M 0,250 129,500 c 3,7 13,3 21,0 14,-6 28,-14 44,-14 16,0 31,8 45,14 2,1 2,1 4,1 8,0 16,-9 16,-21 V 129 H 129 v 215 c 0,15 -11,23 -20,23 -5,0 -9,-2 -11,-7 L 32,233 c -4,-7 -9,-9 -15,-9 -9,0 -19,7 -19,17 0,3 0,6 2,9 z"
         fill="currentColor"
         id="path2394" />
    </g>
  </a>
  <g
     transform="translate(96.033,10.340197)"
     id="g2402">
    <rect
       x="-0.062799998"
       y="-7.5276999"
       width="0.12549999"
       height="2.8663001"
       ry="0.039999999"
       fill="currentColor"
       id="rect2400" />
  </g>
  <a
     style="color:inherit"
     xlink:href="textedit://C:/Users/Javier/Documents/lilypond%20scores/ricci%20left%20hand%20examples.ly:59:52:53"
     id="a2408"
     transform="translate(-5.6906,-62.820503)">
    <g
       transform="translate(100.8246,63.9008)"
       id="g2406">
      <path
         transform="scale(0.002,-0.002)"
         d="m 129,149 h 7 c 36,0 74,-13 111,-40 19,-14 40,-21 59,-21 22,0 40,10 46,31 2,7 7,11 13,11 7,0 15,-5 15,-14 v -5 C 361,40 296,0 234,0 196,0 159,15 133,47 121,62 105,69 89,69 60,69 32,48 29,13 28,4 22,0 15,0 8,0 0,5 0,14 c 0,173 233,163 233,341 0,56 -14,116 -62,116 -33,0 -66,-15 -66,-44 0,-24 31,-37 31,-61 0,-34 -27,-61 -61,-61 -34,0 -61,27 -61,61 0,78 74,134 157,134 98,0 191,-55 191,-145 C 362,211 227,199 129,149 Z"
         fill="currentColor"
         id="path2404" />
    </g>
  </a>
  <a
     style="color:inherit"
     xlink:href="textedit://C:/Users/Javier/Documents/lilypond%20scores/ricci%20left%20hand%20examples.ly:59:51:52"
     id="a2414"
     transform="translate(-5.6906,-62.820503)">
    <g
       transform="translate(100.6139,68.6607)"
       id="g2412">
      <path
         transform="scale(0.0036,-0.0036)"
         d="m 215,137 c 57,0 111,-29 111,-92 0,-71 -54,-120 -101,-148 -35,-21 -74,-34 -114,-34 -57,0 -111,29 -111,92 0,71 54,120 101,148 35,21 74,34 114,34 z"
         fill="currentColor"
         id="path2410" />
    </g>
  </a>
  <g
     transform="translate(91.4662,6.2901973)"
     id="g2418">
    <path
       transform="scale(0.0036,-0.0036)"
       d="m 217,-311 c 0,-11 -8,-19 -19,-19 -11,0 -20,8 -20,19 v 142 l -81,-30 v -156 c 0,-11 -9,-20 -20,-20 -11,0 -19,9 -19,20 v 142 l -28,-11 c -3,-1 -5,-1 -8,-1 -12,0 -22,10 -22,23 v 57 c 0,9 6,18 15,21 l 43,16 V 49 L 30,39 C 27,38 25,38 22,38 10,38 0,47 0,60 v 57 c 0,9 6,18 15,21 l 43,16 v 157 c 0,11 8,19 19,19 11,0 20,-8 20,-19 V 169 l 81,30 v 156 c 0,11 9,20 20,20 11,0 19,-9 19,-20 V 213 l 28,11 c 3,1 5,1 8,1 12,0 22,-10 22,-23 v -57 c 0,-9 -6,-18 -15,-21 L 217,108 V -49 l 28,10 c 3,1 5,1 8,1 12,0 22,-9 22,-22 v -57 c 0,-9 -6,-18 -15,-21 l -43,-16 z M 97,64 V -94 l 81,30 V 94 Z"
       fill="currentColor"
       id="path2416" />
  </g>
  <g
     transform="translate(92.8689,10.340197)"
     id="g2422">
    <rect
       x="-0.062799998"
       y="0.61140001"
       width="0.12549999"
       height="2.6886001"
       ry="0.039999999"
       fill="currentColor"
       id="rect2420" />
  </g>
  <a
     style="color:inherit"
     xlink:href="textedit://C:/Users/Javier/Documents/lilypond%20scores/ricci%20left%20hand%20examples.ly:59:25:26"
     id="a2428"
     transform="translate(-5.6906,-62.820503)">
    <g
       transform="translate(88.4375,70.0107)"
       id="g2426">
      <path
         transform="scale(0.0036,-0.0036)"
         d="m 215,137 c 57,0 111,-29 111,-92 0,-71 -54,-120 -101,-148 -35,-21 -74,-34 -114,-34 -57,0 -111,29 -111,92 0,71 54,120 101,148 35,21 74,34 114,34 z"
         fill="currentColor"
         id="path2424" />
    </g>
  </a>
  <g
     transform="translate(93.9159,10.340197)"
     id="g2432">
    <rect
       x="-0.062799998"
       y="-7.3723001"
       width="0.12549999"
       height="3.1609001"
       ry="0.039999999"
       fill="currentColor"
       id="rect2430" />
  </g>
  <a
     style="color:inherit"
     xlink:href="textedit://C:/Users/Javier/Documents/lilypond%20scores/ricci%20left%20hand%20examples.ly:62:22:23"
     id="a2438"
     transform="translate(-5.6906,-62.820503)">
    <g
       transform="translate(98.4968,73.6107)"
       id="g2436">
      <path
         transform="scale(0.0036,-0.0036)"
         d="m 215,137 c 57,0 111,-29 111,-92 0,-71 -54,-120 -101,-148 -35,-21 -74,-34 -114,-34 -57,0 -111,29 -111,92 0,71 54,120 101,148 35,21 74,34 114,34 z"
         fill="currentColor"
         id="path2434" />
    </g>
  </a>
  <a
     style="color:inherit"
     xlink:href="textedit://C:/Users/Javier/Documents/lilypond%20scores/ricci%20left%20hand%20examples.ly:59:48:49"
     id="a2444"
     transform="translate(-5.6906,-62.820503)">
    <g
       transform="translate(98.7245,64.1388)"
       id="g2442">
      <path
         transform="scale(0.002,-0.002)"
         d="M 129,129 H 259 C 259,77 291,29 340,29 350,29 354,21 354,14 354,7 350,0 340,0 291,0 243,14 194,14 145,14 98,0 49,0 39,0 34,7 34,14 c 0,7 5,15 15,15 49,0 80,48 80,100 z M 0,250 129,500 c 3,7 13,3 21,0 14,-6 28,-14 44,-14 16,0 31,8 45,14 2,1 2,1 4,1 8,0 16,-9 16,-21 V 129 H 129 v 215 c 0,15 -11,23 -20,23 -5,0 -9,-2 -11,-7 L 32,233 c -4,-7 -9,-9 -15,-9 -9,0 -19,7 -19,17 0,3 0,6 2,9 z"
         fill="currentColor"
         id="path2440" />
    </g>
  </a>
  <a
     style="color:inherit"
     xlink:href="textedit://C:/Users/Javier/Documents/lilypond%20scores/ricci%20left%20hand%20examples.ly:59:45:46"
     id="a2450"
     transform="translate(-5.6906,-62.820503)">
    <g
       transform="translate(98.4968,69.1107)"
       id="g2448">
      <path
         transform="scale(0.0036,-0.0036)"
         d="m 215,137 c 57,0 111,-29 111,-92 0,-71 -54,-120 -101,-148 -35,-21 -74,-34 -114,-34 -57,0 -111,29 -111,92 0,71 54,120 101,148 35,21 74,34 114,34 z"
         fill="currentColor"
         id="path2446" />
    </g>
  </a>
  <a
     style="color:inherit"
     xlink:href="textedit://C:/Users/Javier/Documents/lilypond%20scores/ricci%20left%20hand%20examples.ly:57:29:30"
     id="a2456"
     transform="translate(-5.6906,-62.820503)">
    <g
       transform="translate(28.7137,75.8607)"
       id="g2454">
      <path
         transform="scale(0.0036,-0.0036)"
         d="m 215,137 c 57,0 111,-29 111,-92 0,-71 -54,-120 -101,-148 -35,-21 -74,-34 -114,-34 -57,0 -111,29 -111,92 0,71 54,120 101,148 35,21 74,34 114,34 z"
         fill="currentColor"
         id="path2452" />
    </g>
  </a>
  <g
     transform="translate(27.0453,10.340197)"
     id="g2460">
    <rect
       x="-0.062799998"
       y="-0.84969997"
       width="0.12549999"
       height="3.3882999"
       ry="0.039999999"
       fill="currentColor"
       id="rect2458" />
  </g>
  <a
     style="color:inherit"
     xlink:href="textedit://C:/Users/Javier/Documents/lilypond%20scores/ricci%20left%20hand%20examples.ly:57:34:35"
     id="a2466"
     transform="translate(-5.6906,-62.820503)">
    <g
       transform="translate(31.854,70.0963)"
       id="g2464">
      <path
         transform="scale(0.002,-0.002)"
         d="M 129,129 H 259 C 259,77 291,29 340,29 350,29 354,21 354,14 354,7 350,0 340,0 291,0 243,14 194,14 145,14 98,0 49,0 39,0 34,7 34,14 c 0,7 5,15 15,15 49,0 80,48 80,100 z M 0,250 129,500 c 3,7 13,3 21,0 14,-6 28,-14 44,-14 16,0 31,8 45,14 2,1 2,1 4,1 8,0 16,-9 16,-21 V 129 H 129 v 215 c 0,15 -11,23 -20,23 -5,0 -9,-2 -11,-7 L 32,233 c -4,-7 -9,-9 -15,-9 -9,0 -19,7 -19,17 0,3 0,6 2,9 z"
         fill="currentColor"
         id="path2462" />
    </g>
  </a>
  <a
     style="color:inherit"
     xlink:href="textedit://C:/Users/Javier/Documents/lilypond%20scores/ricci%20left%20hand%20examples.ly:57:31:32"
     id="a2472"
     transform="translate(-5.6906,-62.820503)">
    <g
       transform="translate(31.6262,75.8607)"
       id="g2470">
      <path
         transform="scale(0.0036,-0.0036)"
         d="m 215,137 c 57,0 111,-29 111,-92 0,-71 -54,-120 -101,-148 -35,-21 -74,-34 -114,-34 -57,0 -111,29 -111,92 0,71 54,120 101,148 35,21 74,34 114,34 z"
         fill="currentColor"
         id="path2468" />
    </g>
  </a>
  <g
     transform="translate(24.1328,10.340197)"
     id="g2476">
    <rect
       x="-0.062799998"
       y="-0.78259999"
       width="0.12549999"
       height="3.3211"
       ry="0.039999999"
       fill="currentColor"
       id="rect2474" />
  </g>
  <g
     transform="translate(22.0157,10.340197)"
     id="g2480">
    <rect
       x="-0.062799998"
       y="-0.73369998"
       width="0.12549999"
       height="3.7223001"
       ry="0.039999999"
       fill="currentColor"
       id="rect2478" />
  </g>
  <a
     style="color:inherit"
     xlink:href="textedit://C:/Users/Javier/Documents/lilypond%20scores/ricci%20left%20hand%20examples.ly:57:26:27"
     id="a2486"
     transform="translate(-5.6906,-62.820503)">
    <g
       transform="translate(26.8243,70.4467)"
       id="g2484">
      <path
         transform="scale(0.002,-0.002)"
         d="M 129,129 H 259 C 259,77 291,29 340,29 350,29 354,21 354,14 354,7 350,0 340,0 291,0 243,14 194,14 145,14 98,0 49,0 39,0 34,7 34,14 c 0,7 5,15 15,15 49,0 80,48 80,100 z M 0,250 129,500 c 3,7 13,3 21,0 14,-6 28,-14 44,-14 16,0 31,8 45,14 2,1 2,1 4,1 8,0 16,-9 16,-21 V 129 H 129 v 215 c 0,15 -11,23 -20,23 -5,0 -9,-2 -11,-7 L 32,233 c -4,-7 -9,-9 -15,-9 -9,0 -19,7 -19,17 0,3 0,6 2,9 z"
         fill="currentColor"
         id="path2482" />
    </g>
  </a>
  <a
     style="color:inherit"
     xlink:href="textedit://C:/Users/Javier/Documents/lilypond%20scores/ricci%20left%20hand%20examples.ly:57:25:26"
     id="a2492"
     transform="translate(-5.6906,-62.820503)">
    <g
       transform="translate(26.5966,76.3107)"
       id="g2490">
      <path
         transform="scale(0.0036,-0.0036)"
         d="m 215,137 c 57,0 111,-29 111,-92 0,-71 -54,-120 -101,-148 -35,-21 -74,-34 -114,-34 -57,0 -111,29 -111,92 0,71 54,120 101,148 35,21 74,34 114,34 z"
         fill="currentColor"
         id="path2488" />
    </g>
  </a>
  <g
     transform="translate(17.4489,13.940197)"
     id="g2496">
    <path
       transform="scale(0.0036,-0.0036)"
       d="m 217,-311 c 0,-11 -8,-19 -19,-19 -11,0 -20,8 -20,19 v 142 l -81,-30 v -156 c 0,-11 -9,-20 -20,-20 -11,0 -19,9 -19,20 v 142 l -28,-11 c -3,-1 -5,-1 -8,-1 -12,0 -22,10 -22,23 v 57 c 0,9 6,18 15,21 l 43,16 V 49 L 30,39 C 27,38 25,38 22,38 10,38 0,47 0,60 v 57 c 0,9 6,18 15,21 l 43,16 v 157 c 0,11 8,19 19,19 11,0 20,-8 20,-19 V 169 l 81,30 v 156 c 0,11 9,20 20,20 11,0 19,-9 19,-20 V 213 l 28,11 c 3,1 5,1 8,1 12,0 22,-10 22,-23 v -57 c 0,-9 -6,-18 -15,-21 L 217,108 V -49 l 28,10 c 3,1 5,1 8,1 12,0 22,-9 22,-22 v -57 c 0,-9 -6,-18 -15,-21 l -43,-16 z M 97,64 V -94 l 81,30 V 94 Z"
       fill="currentColor"
       id="path2494" />
  </g>
  <a
     style="color:inherit"
     xlink:href="textedit://C:/Users/Javier/Documents/lilypond%20scores/ricci%20left%20hand%20examples.ly:57:42:43"
     id="a2502"
     transform="translate(-5.6906,-62.820503)">
    <g
       transform="translate(36.8836,69.9197)"
       id="g2500">
      <path
         transform="scale(0.002,-0.002)"
         d="M 129,129 H 259 C 259,77 291,29 340,29 350,29 354,21 354,14 354,7 350,0 340,0 291,0 243,14 194,14 145,14 98,0 49,0 39,0 34,7 34,14 c 0,7 5,15 15,15 49,0 80,48 80,100 z M 0,250 129,500 c 3,7 13,3 21,0 14,-6 28,-14 44,-14 16,0 31,8 45,14 2,1 2,1 4,1 8,0 16,-9 16,-21 V 129 H 129 v 215 c 0,15 -11,23 -20,23 -5,0 -9,-2 -11,-7 L 32,233 c -4,-7 -9,-9 -15,-9 -9,0 -19,7 -19,17 0,3 0,6 2,9 z"
         fill="currentColor"
         id="path2498" />
    </g>
  </a>
  <g
     transform="translate(34.1921,10.340197)"
     id="g2506">
    <rect
       x="-0.062799998"
       y="-1.4775"
       width="0.12549999"
       height="3.1161001"
       ry="0.039999999"
       fill="currentColor"
       id="rect2504" />
  </g>
  <a
     style="color:inherit"
     xlink:href="textedit://C:/Users/Javier/Documents/lilypond%20scores/ricci%20left%20hand%20examples.ly:57:46:47"
     id="a2512"
     transform="translate(-5.6906,-62.820503)">
    <g
       transform="translate(38.9836,69.9093)"
       id="g2510">
      <path
         transform="scale(0.002,-0.002)"
         d="m 129,149 h 7 c 36,0 74,-13 111,-40 19,-14 40,-21 59,-21 22,0 40,10 46,31 2,7 7,11 13,11 7,0 15,-5 15,-14 v -5 C 361,40 296,0 234,0 196,0 159,15 133,47 121,62 105,69 89,69 60,69 32,48 29,13 28,4 22,0 15,0 8,0 0,5 0,14 c 0,173 233,163 233,341 0,56 -14,116 -62,116 -33,0 -66,-15 -66,-44 0,-24 31,-37 31,-61 0,-34 -27,-61 -61,-61 -34,0 -61,27 -61,61 0,78 74,134 157,134 98,0 191,-55 191,-145 C 362,211 227,199 129,149 Z"
         fill="currentColor"
         id="path2508" />
    </g>
  </a>
  <a
     style="color:inherit"
     xlink:href="textedit://C:/Users/Javier/Documents/lilypond%20scores/ricci%20left%20hand%20examples.ly:57:45:46"
     id="a2518"
     transform="translate(-5.6906,-62.820503)">
    <g
       transform="translate(38.7729,74.9607)"
       id="g2516">
      <path
         transform="scale(0.0036,-0.0036)"
         d="m 215,137 c 57,0 111,-29 111,-92 0,-71 -54,-120 -101,-148 -35,-21 -74,-34 -114,-34 -57,0 -111,29 -111,92 0,71 54,120 101,148 35,21 74,34 114,34 z"
         fill="currentColor"
         id="path2514" />
    </g>
  </a>
  <g
     transform="translate(29.6252,12.590197)"
     id="g2522">
    <path
       transform="scale(0.0036,-0.0036)"
       d="m 217,-311 c 0,-11 -8,-19 -19,-19 -11,0 -20,8 -20,19 v 142 l -81,-30 v -156 c 0,-11 -9,-20 -20,-20 -11,0 -19,9 -19,20 v 142 l -28,-11 c -3,-1 -5,-1 -8,-1 -12,0 -22,10 -22,23 v 57 c 0,9 6,18 15,21 l 43,16 V 49 L 30,39 C 27,38 25,38 22,38 10,38 0,47 0,60 v 57 c 0,9 6,18 15,21 l 43,16 v 157 c 0,11 8,19 19,19 11,0 20,-8 20,-19 V 169 l 81,30 v 156 c 0,11 9,20 20,20 11,0 19,-9 19,-20 V 213 l 28,11 c 3,1 5,1 8,1 12,0 22,-10 22,-23 v -57 c 0,-9 -6,-18 -15,-21 L 217,108 V -49 l 28,10 c 3,1 5,1 8,1 12,0 22,-9 22,-22 v -57 c 0,-9 -6,-18 -15,-21 l -43,-16 z M 97,64 V -94 l 81,30 V 94 Z"
       fill="currentColor"
       id="path2520" />
  </g>
  <g
     transform="translate(32.075,10.340197)"
     id="g2526">
    <rect
       x="-0.062799998"
       y="-1.3537"
       width="0.12549999"
       height="3.4421999"
       ry="0.039999999"
       fill="currentColor"
       id="rect2524" />
  </g>
  <a
     style="color:inherit"
     xlink:href="textedit://C:/Users/Javier/Documents/lilypond%20scores/ricci%20left%20hand%20examples.ly:57:39:40"
     id="a2532"
     transform="translate(-5.6906,-62.820503)">
    <g
       transform="translate(36.6558,75.4107)"
       id="g2530">
      <path
         transform="scale(0.0036,-0.0036)"
         d="m 215,137 c 57,0 111,-29 111,-92 0,-71 -54,-120 -101,-148 -35,-21 -74,-34 -114,-34 -57,0 -111,29 -111,92 0,71 54,120 101,148 35,21 74,34 114,34 z"
         fill="currentColor"
         id="path2528" />
    </g>
  </a>
  <g
     transform="translate(29.1624,10.340197)"
     id="g2536">
    <rect
       x="-0.062799998"
       y="-0.89859998"
       width="0.12549999"
       height="2.9870999"
       ry="0.039999999"
       fill="currentColor"
       id="rect2534" />
  </g>
  <a
     style="color:inherit"
     xlink:href="textedit://C:/Users/Javier/Documents/lilypond%20scores/ricci%20left%20hand%20examples.ly:57:37:38"
     id="a2542"
     transform="translate(-5.6906,-62.820503)">
    <g
       transform="translate(33.7433,75.4107)"
       id="g2540">
      <path
         transform="scale(0.0036,-0.0036)"
         d="m 215,137 c 57,0 111,-29 111,-92 0,-71 -54,-120 -101,-148 -35,-21 -74,-34 -114,-34 -57,0 -111,29 -111,92 0,71 54,120 101,148 35,21 74,34 114,34 z"
         fill="currentColor"
         id="path2538" />
    </g>
  </a>
  <g
     transform="translate(24.5956,13.040197)"
     id="g2546">
    <path
       transform="scale(0.0036,-0.0036)"
       d="m 217,-311 c 0,-11 -8,-19 -19,-19 -11,0 -20,8 -20,19 v 142 l -81,-30 v -156 c 0,-11 -9,-20 -20,-20 -11,0 -19,9 -19,20 v 142 l -28,-11 c -3,-1 -5,-1 -8,-1 -12,0 -22,10 -22,23 v 57 c 0,9 6,18 15,21 l 43,16 V 49 L 30,39 C 27,38 25,38 22,38 10,38 0,47 0,60 v 57 c 0,9 6,18 15,21 l 43,16 v 157 c 0,11 8,19 19,19 11,0 20,-8 20,-19 V 169 l 81,30 v 156 c 0,11 9,20 20,20 11,0 19,-9 19,-20 V 213 l 28,11 c 3,1 5,1 8,1 12,0 22,-10 22,-23 v -57 c 0,-9 -6,-18 -15,-21 L 217,108 V -49 l 28,10 c 3,1 5,1 8,1 12,0 22,-9 22,-22 v -57 c 0,-9 -6,-18 -15,-21 l -43,-16 z M 97,64 V -94 l 81,30 V 94 Z"
       fill="currentColor"
       id="path2544" />
  </g>
  <g
     transform="translate(9.9367,10.340197)"
     id="g2550">
    <rect
       x="-0.062799998"
       y="2.4777"
       width="0.12549999"
       height="2.0223"
       ry="0.039999999"
       fill="currentColor"
       id="rect2548" />
  </g>
  <g
     transform="translate(11.5179,12.590197)"
     id="g2554">
    <path
       transform="scale(0.0036,-0.0036)"
       d="M 0,0 C 0,31 25,56 56,56 87,56 111,31 111,0 111,-31 87,-56 56,-56 25,-56 0,-31 0,0 Z"
       fill="currentColor"
       id="path2552" />
  </g>
  <g
     transform="translate(11.2322,10.340197)"
     id="g2558">
    <rect
       x="-0.062799998"
       y="0"
       width="0.12549999"
       height="3.8886001"
       ry="0.039999999"
       fill="currentColor"
       id="rect2556" />
  </g>
  <g
     transform="translate(6.5595,10.340197)"
     id="g2562">
    <path
       transform="scale(0.0036,-0.0036)"
       d="m 151,475 c -29,0 -60,-8 -60,-33 0,-22 35,-25 35,-47 0,-31 -26,-57 -57,-57 -31,0 -57,26 -57,57 0,65 68,105 139,105 92,0 170,-33 170,-114 0,-42 -5,-81 -42,-98 -10,-5 -15,-14 -15,-23 0,-9 5,-18 15,-23 41,-19 57,-56 57,-102 C 336,48 256,0 156,0 77,0 0,43 0,115 c 0,36 29,65 65,65 36,0 65,-29 65,-65 0,-25 -40,-29 -40,-54 0,-28 34,-36 66,-36 48,0 61,59 61,115 v 22 c 0,50 -3,88 -49,88 H 90 c -10,0 -15,7 -15,15 0,8 5,15 15,15 h 78 c 46,0 49,40 49,92 v 14 c 0,53 -18,89 -66,89 z"
       fill="currentColor"
       id="path2560" />
  </g>
  <g
     transform="translate(6.44,12.183997)"
     id="g2566">
    <path
       transform="scale(0.0036,-0.0036)"
       d="m 194,120 h 120 c 0,-49 29,-95 75,-95 8,0 12,-7 12,-13 C 401,6 397,0 389,0 344,0 299,13 254,13 209,13 164,0 119,0 c -8,0 -12,6 -12,12 0,6 4,13 12,13 46,0 75,46 75,95 z m 9,181 c 22,15 45,30 61,51 12,15 19,34 27,51 2,4 5,6 9,6 6,0 14,-6 14,-15 V 156 h 74 c 10,0 16,-8 16,-16 0,-8 -6,-15 -16,-15 h -74 v -5 H 194 v 5 H 31 c -24,0 -33,15 -33,24 0,3 1,6 2,7 80,92 134,205 134,327 0,11 8,20 17,17 24,-7 48,-13 73,-13 25,0 48,6 72,13 2,1 4,1 6,1 9,0 14,-7 14,-13 0,-2 0,-3 -2,-5 L 31,156 h 163 v 122 c 0,9 2,18 9,23 z"
       fill="currentColor"
       id="path2564" />
  </g>
  <a
     style="color:inherit"
     xlink:href="textedit://C:/Users/Javier/Documents/lilypond%20scores/ricci%20left%20hand%20examples.ly:54:8:9"
     id="a2572"
     transform="translate(-5.6906,-62.820503)">
    <g
       transform="translate(9.9906,71.3607)"
       id="g2570">
      <path
         transform="scale(0.0036,-0.0036)"
         d="m 217,-311 c 0,-11 -8,-19 -19,-19 -11,0 -20,8 -20,19 v 142 l -81,-30 v -156 c 0,-11 -9,-20 -20,-20 -11,0 -19,9 -19,20 v 142 l -28,-11 c -3,-1 -5,-1 -8,-1 -12,0 -22,10 -22,23 v 57 c 0,9 6,18 15,21 l 43,16 V 49 L 30,39 C 27,38 25,38 22,38 10,38 0,47 0,60 v 57 c 0,9 6,18 15,21 l 43,16 v 157 c 0,11 8,19 19,19 11,0 20,-8 20,-19 V 169 l 81,30 v 156 c 0,11 9,20 20,20 11,0 19,-9 19,-20 V 213 l 28,11 c 3,1 5,1 8,1 12,0 22,-10 22,-23 v -57 c 0,-9 -6,-18 -15,-21 L 217,108 V -49 l 28,10 c 3,1 5,1 8,1 12,0 22,-9 22,-22 v -57 c 0,-9 -6,-18 -15,-21 l -43,-16 z M 97,64 V -94 l 81,30 V 94 Z"
         fill="currentColor"
         id="path2568" />
    </g>
  </a>
  <g
     transform="translate(0.80000003,11.240197)"
     id="g2576">
    <path
       transform="scale(0.0036,-0.0036)"
       d="m 378,263 c 4,0 7,1 11,1 156,0 257,-129 257,-262 0,-76 -34,-154 -108,-210 -22,-17 -46,-29 -72,-37 3,-34 5,-68 5,-102 0,-20 -1,-40 -2,-60 -7,-121 -90,-228 -209,-228 -108,0 -196,87 -196,196 0,58 53,104 112,104 54,0 95,-48 95,-104 0,-52 -43,-95 -95,-95 -10,0 -20,2 -29,6 26,-38 68,-63 116,-63 h 3 c 93,2 153,92 159,190 1,19 2,37 2,56 0,30 -2,60 -4,90 -29,-5 -58,-8 -88,-8 -188,0 -333,173 -333,375 0,177 130,307 246,442 -20,62 -38,125 -46,190 -6,52 -7,104 -7,157 0,115 55,223 148,290 7,5 16,4 22,-1 71,-83 134,-244 134,-357 0,-143 -85,-255 -178,-364 21,-68 40,-137 57,-206 z m 84,-465 c 67,24 111,94 111,162 0,89 -65,178 -170,190 24,-115 46,-230 59,-352 z M 75,26 c 0,-134 129,-245 263,-245 28,0 55,2 81,6 C 405,-87 383,31 358,150 279,142 234,89 234,31 c 0,-43 25,-89 80,-121 5,-5 7,-11 7,-16 0,-12 -10,-23 -22,-23 -3,0 -6,1 -9,2 -81,43 -118,116 -118,186 0,89 58,175 161,198 -14,58 -29,116 -46,173 C 181,308 75,186 75,26 Z M 406,1042 C 307,995 244,894 244,785 c 0,-73 20,-132 38,-191 79,97 144,199 144,324 0,53 -4,76 -20,124 z"
       fill="currentColor"
       id="path2574" />
  </g>
  <a
     style="color:inherit"
     xlink:href="textedit://C:/Users/Javier/Documents/lilypond%20scores/ricci%20left%20hand%20examples.ly:62:9:10"
     id="a2582"
     transform="translate(-5.6906,-62.820503)">
    <g
       transform="translate(15.5646,75.4107)"
       id="g2580">
      <path
         transform="scale(0.0036,-0.0036)"
         d="m 312,64 c 0,24 -20,41 -41,41 -4,0 -8,-1 -12,-2 C 229,94 182,65 146,41 110,17 63,-13 43,-37 36,-45 33,-54 33,-64 c 0,-24 20,-41 41,-41 4,0 8,1 12,2 30,9 77,38 113,62 36,24 83,54 103,78 7,8 10,17 10,27 z m -53,73 c 48,0 86,-22 86,-74 0,-18 -4,-38 -10,-56 -12,-38 -30,-73 -63,-95 -53,-36 -113,-49 -186,-49 -48,0 -86,22 -86,74 0,18 4,38 10,56 12,38 31,73 64,95 53,36 112,49 185,49 z"
         fill="currentColor"
         id="path2578" />
    </g>
  </a>
  <a
     style="color:inherit"
     xlink:href="textedit://C:/Users/Javier/Documents/lilypond%20scores/ricci%20left%20hand%20examples.ly:57:8:9"
     id="a2588"
     transform="translate(-5.6906,-62.820503)">
    <g
       transform="translate(15.8131,77.2107)"
       id="g2586">
      <path
         transform="scale(0.0036,-0.0036)"
         d="m 215,137 c 57,0 111,-29 111,-92 0,-71 -54,-120 -101,-148 -35,-21 -74,-34 -114,-34 -57,0 -111,29 -111,92 0,71 54,120 101,148 35,21 74,34 114,34 z"
         fill="currentColor"
         id="path2584" />
    </g>
  </a>
  <g
     transform="translate(19.8986,10.340197)"
     id="g2592">
    <rect
       x="-0.062799998"
       y="0"
       width="0.12549999"
       height="3.4386001"
       ry="0.039999999"
       fill="currentColor"
       id="rect2590" />
  </g>
  <a
     style="color:inherit"
     xlink:href="textedit://C:/Users/Javier/Documents/lilypond%20scores/ricci%20left%20hand%20examples.ly:57:21:22"
     id="a2598"
     transform="translate(-5.6906,-62.820503)">
    <g
       transform="translate(24.4795,76.7607)"
       id="g2596">
      <path
         transform="scale(0.0036,-0.0036)"
         d="m 215,137 c 57,0 111,-29 111,-92 0,-71 -54,-120 -101,-148 -35,-21 -74,-34 -114,-34 -57,0 -111,29 -111,92 0,71 54,120 101,148 35,21 74,34 114,34 z"
         fill="currentColor"
         id="path2594" />
    </g>
  </a>
  <g
     transform="translate(16.9861,10.340197)"
     id="g2602">
    <rect
       x="-0.062799998"
       y="0"
       width="0.12549999"
       height="3.4386001"
       ry="0.039999999"
       fill="currentColor"
       id="rect2600" />
  </g>
  <a
     style="color:inherit"
     xlink:href="textedit://C:/Users/Javier/Documents/lilypond%20scores/ricci%20left%20hand%20examples.ly:57:18:19"
     id="a2608"
     transform="translate(-5.6906,-62.820503)">
    <g
       transform="translate(21.7947,70.8625)"
       id="g2606">
      <path
         transform="scale(0.002,-0.002)"
         d="M 129,129 H 259 C 259,77 291,29 340,29 350,29 354,21 354,14 354,7 350,0 340,0 291,0 243,14 194,14 145,14 98,0 49,0 39,0 34,7 34,14 c 0,7 5,15 15,15 49,0 80,48 80,100 z M 0,250 129,500 c 3,7 13,3 21,0 14,-6 28,-14 44,-14 16,0 31,8 45,14 2,1 2,1 4,1 8,0 16,-9 16,-21 V 129 H 129 v 215 c 0,15 -11,23 -20,23 -5,0 -9,-2 -11,-7 L 32,233 c -4,-7 -9,-9 -15,-9 -9,0 -19,7 -19,17 0,3 0,6 2,9 z"
         fill="currentColor"
         id="path2604" />
    </g>
  </a>
  <a
     style="color:inherit"
     xlink:href="textedit://C:/Users/Javier/Documents/lilypond%20scores/ricci%20left%20hand%20examples.ly:57:17:18"
     id="a2614"
     transform="translate(-5.6906,-62.820503)">
    <g
       transform="translate(21.567,76.7607)"
       id="g2612">
      <path
         transform="scale(0.0036,-0.0036)"
         d="m 215,137 c 57,0 111,-29 111,-92 0,-71 -54,-120 -101,-148 -35,-21 -74,-34 -114,-34 -57,0 -111,29 -111,92 0,71 54,120 101,148 35,21 74,34 114,34 z"
         fill="currentColor"
         id="path2610" />
    </g>
  </a>
  <g
     transform="translate(12.4193,14.390197)"
     id="g2618">
    <path
       transform="scale(0.0036,-0.0036)"
       d="m 217,-311 c 0,-11 -8,-19 -19,-19 -11,0 -20,8 -20,19 v 142 l -81,-30 v -156 c 0,-11 -9,-20 -20,-20 -11,0 -19,9 -19,20 v 142 l -28,-11 c -3,-1 -5,-1 -8,-1 -12,0 -22,10 -22,23 v 57 c 0,9 6,18 15,21 l 43,16 V 49 L 30,39 C 27,38 25,38 22,38 10,38 0,47 0,60 v 57 c 0,9 6,18 15,21 l 43,16 v 157 c 0,11 8,19 19,19 11,0 20,-8 20,-19 V 169 l 81,30 v 156 c 0,11 9,20 20,20 11,0 19,-9 19,-20 V 213 l 28,11 c 3,1 5,1 8,1 12,0 22,-10 22,-23 v -57 c 0,-9 -6,-18 -15,-21 L 217,108 V -49 l 28,10 c 3,1 5,1 8,1 12,0 22,-9 22,-22 v -57 c 0,-9 -6,-18 -15,-21 l -43,-16 z M 97,64 V -94 l 81,30 V 94 Z"
       fill="currentColor"
       id="path2616" />
  </g>
  <g
     transform="translate(14.869,10.340197)"
     id="g2622">
    <rect
       x="-0.062799998"
       y="0"
       width="0.12549999"
       height="3.8886001"
       ry="0.039999999"
       fill="currentColor"
       id="rect2620" />
  </g>
  <a
     style="color:inherit"
     xlink:href="textedit://C:/Users/Javier/Documents/lilypond%20scores/ricci%20left%20hand%20examples.ly:57:13:14"
     id="a2628"
     transform="translate(-5.6906,-62.820503)">
    <g
       transform="translate(19.4499,77.2107)"
       id="g2626">
      <path
         transform="scale(0.0036,-0.0036)"
         d="m 215,137 c 57,0 111,-29 111,-92 0,-71 -54,-120 -101,-148 -35,-21 -74,-34 -114,-34 -57,0 -111,29 -111,92 0,71 54,120 101,148 35,21 74,34 114,34 z"
         fill="currentColor"
         id="path2624" />
    </g>
  </a>
  <a
     style="color:inherit"
     xlink:href="textedit://C:/Users/Javier/Documents/lilypond%20scores/ricci%20left%20hand%20examples.ly:58:17:18"
     id="a2634"
     transform="translate(-5.6906,-62.820503)">
    <g
       transform="translate(52.606,73.6107)"
       id="g2632">
      <path
         transform="scale(0.0036,-0.0036)"
         d="m 215,137 c 57,0 111,-29 111,-92 0,-71 -54,-120 -101,-148 -35,-21 -74,-34 -114,-34 -57,0 -111,29 -111,92 0,71 54,120 101,148 35,21 74,34 114,34 z"
         fill="currentColor"
         id="path2630" />
    </g>
  </a>
  <g
     transform="translate(43.4583,11.240197)"
     id="g2638">
    <path
       transform="scale(0.0036,-0.0036)"
       d="m 217,-311 c 0,-11 -8,-19 -19,-19 -11,0 -20,8 -20,19 v 142 l -81,-30 v -156 c 0,-11 -9,-20 -20,-20 -11,0 -19,9 -19,20 v 142 l -28,-11 c -3,-1 -5,-1 -8,-1 -12,0 -22,10 -22,23 v 57 c 0,9 6,18 15,21 l 43,16 V 49 L 30,39 C 27,38 25,38 22,38 10,38 0,47 0,60 v 57 c 0,9 6,18 15,21 l 43,16 v 157 c 0,11 8,19 19,19 11,0 20,-8 20,-19 V 169 l 81,30 v 156 c 0,11 9,20 20,20 11,0 19,-9 19,-20 V 213 l 28,11 c 3,1 5,1 8,1 12,0 22,-10 22,-23 v -57 c 0,-9 -6,-18 -15,-21 L 217,108 V -49 l 28,10 c 3,1 5,1 8,1 12,0 22,-9 22,-22 v -57 c 0,-9 -6,-18 -15,-21 l -43,-16 z M 97,64 V -94 l 81,30 V 94 Z"
       fill="currentColor"
       id="path2636" />
  </g>
  <g
     transform="translate(45.9081,10.340197)"
     id="g2642">
    <rect
       x="-0.062799998"
       y="-2.5941"
       width="0.12549999"
       height="3.3327"
       ry="0.039999999"
       fill="currentColor"
       id="rect2640" />
  </g>
  <a
     style="color:inherit"
     xlink:href="textedit://C:/Users/Javier/Documents/lilypond%20scores/ricci%20left%20hand%20examples.ly:58:13:14"
     id="a2648"
     transform="translate(-5.6906,-62.820503)">
    <g
       transform="translate(50.4889,74.0607)"
       id="g2646">
      <path
         transform="scale(0.0036,-0.0036)"
         d="m 215,137 c 57,0 111,-29 111,-92 0,-71 -54,-120 -101,-148 -35,-21 -74,-34 -114,-34 -57,0 -111,29 -111,92 0,71 54,120 101,148 35,21 74,34 114,34 z"
         fill="currentColor"
         id="path2644" />
    </g>
  </a>
  <a
     style="color:inherit"
     xlink:href="textedit://C:/Users/Javier/Documents/lilypond%20scores/ricci%20left%20hand%20examples.ly:58:18:19"
     id="a2654"
     transform="translate(-5.6906,-62.820503)">
    <g
       transform="translate(52.8338,68.4293)"
       id="g2652">
      <path
         transform="scale(0.002,-0.002)"
         d="M 129,129 H 259 C 259,77 291,29 340,29 350,29 354,21 354,14 354,7 350,0 340,0 291,0 243,14 194,14 145,14 98,0 49,0 39,0 34,7 34,14 c 0,7 5,15 15,15 49,0 80,48 80,100 z M 0,250 129,500 c 3,7 13,3 21,0 14,-6 28,-14 44,-14 16,0 31,8 45,14 2,1 2,1 4,1 8,0 16,-9 16,-21 V 129 H 129 v 215 c 0,15 -11,23 -20,23 -5,0 -9,-2 -11,-7 L 32,233 c -4,-7 -9,-9 -15,-9 -9,0 -19,7 -19,17 0,3 0,6 2,9 z"
         fill="currentColor"
         id="path2650" />
    </g>
  </a>
  <g
     transform="translate(41.9486,10.340197)"
     id="g2658">
    <rect
       x="-0.062799998"
       y="4.2776999"
       width="0.12549999"
       height="2.0223"
       ry="0.039999999"
       fill="currentColor"
       id="rect2656" />
  </g>
  <g
     transform="translate(43.5297,14.390197)"
     id="g2662">
    <path
       transform="scale(0.0036,-0.0036)"
       d="M 0,0 C 0,31 25,56 56,56 87,56 111,31 111,0 111,-31 87,-56 56,-56 25,-56 0,-31 0,0 Z"
       fill="currentColor"
       id="path2660" />
  </g>
  <g
     transform="translate(48.4879,10.790197)"
     id="g2666">
    <path
       transform="scale(0.0036,-0.0036)"
       d="m 217,-311 c 0,-11 -8,-19 -19,-19 -11,0 -20,8 -20,19 v 142 l -81,-30 v -156 c 0,-11 -9,-20 -20,-20 -11,0 -19,9 -19,20 v 142 l -28,-11 c -3,-1 -5,-1 -8,-1 -12,0 -22,10 -22,23 v 57 c 0,9 6,18 15,21 l 43,16 V 49 L 30,39 C 27,38 25,38 22,38 10,38 0,47 0,60 v 57 c 0,9 6,18 15,21 l 43,16 v 157 c 0,11 8,19 19,19 11,0 20,-8 20,-19 V 169 l 81,30 v 156 c 0,11 9,20 20,20 11,0 19,-9 19,-20 V 213 l 28,11 c 3,1 5,1 8,1 12,0 22,-10 22,-23 v -57 c 0,-9 -6,-18 -15,-21 L 217,108 V -49 l 28,10 c 3,1 5,1 8,1 12,0 22,-9 22,-22 v -57 c 0,-9 -6,-18 -15,-21 l -43,-16 z M 97,64 V -94 l 81,30 V 94 Z"
       fill="currentColor"
       id="path2664" />
  </g>
  <g
     transform="translate(55.1719,10.340197)"
     id="g2670">
    <rect
       x="-0.062799998"
       y="-3.2849"
       width="0.12549999"
       height="2.6735001"
       ry="0.039999999"
       fill="currentColor"
       id="rect2668" />
  </g>
  <a
     style="color:inherit"
     xlink:href="textedit://C:/Users/Javier/Documents/lilypond%20scores/ricci%20left%20hand%20examples.ly:58:29:30"
     id="a2676"
     transform="translate(-5.6906,-62.820503)">
    <g
       transform="translate(59.7527,72.7107)"
       id="g2674">
      <path
         transform="scale(0.0036,-0.0036)"
         d="m 215,137 c 57,0 111,-29 111,-92 0,-71 -54,-120 -101,-148 -35,-21 -74,-34 -114,-34 -57,0 -111,29 -111,92 0,71 54,120 101,148 35,21 74,34 114,34 z"
         fill="currentColor"
         id="path2672" />
    </g>
  </a>
  <g
     transform="translate(53.0548,10.340197)"
     id="g2680">
    <rect
       x="-0.062799998"
       y="-3.1538999"
       width="0.12549999"
       height="2.9925001"
       ry="0.039999999"
       fill="currentColor"
       id="rect2678" />
  </g>
  <a
     style="color:inherit"
     xlink:href="textedit://C:/Users/Javier/Documents/lilypond%20scores/ricci%20left%20hand%20examples.ly:58:26:27"
     id="a2686"
     transform="translate(-5.6906,-62.820503)">
    <g
       transform="translate(57.8634,69.3409)"
       id="g2684">
      <path
         transform="scale(0.002,-0.002)"
         d="M 129,129 H 259 C 259,77 291,29 340,29 350,29 354,21 354,14 354,7 350,0 340,0 291,0 243,14 194,14 145,14 98,0 49,0 39,0 34,7 34,14 c 0,7 5,15 15,15 49,0 80,48 80,100 z M 0,250 129,500 c 3,7 13,3 21,0 14,-6 28,-14 44,-14 16,0 31,8 45,14 2,1 2,1 4,1 8,0 16,-9 16,-21 V 129 H 129 v 215 c 0,15 -11,23 -20,23 -5,0 -9,-2 -11,-7 L 32,233 c -4,-7 -9,-9 -15,-9 -9,0 -19,7 -19,17 0,3 0,6 2,9 z"
         fill="currentColor"
         id="path2682" />
    </g>
  </a>
  <a
     style="color:inherit"
     xlink:href="textedit://C:/Users/Javier/Documents/lilypond%20scores/ricci%20left%20hand%20examples.ly:58:25:26"
     id="a2692"
     transform="translate(-5.6906,-62.820503)">
    <g
       transform="translate(57.6356,73.1607)"
       id="g2690">
      <path
         transform="scale(0.0036,-0.0036)"
         d="m 215,137 c 57,0 111,-29 111,-92 0,-71 -54,-120 -101,-148 -35,-21 -74,-34 -114,-34 -57,0 -111,29 -111,92 0,71 54,120 101,148 35,21 74,34 114,34 z"
         fill="currentColor"
         id="path2688" />
    </g>
  </a>
  <g
     transform="translate(50.9377,10.340197)"
     id="g2696">
    <rect
       x="-0.062799998"
       y="-2.6987"
       width="0.12549999"
       height="2.9872999"
       ry="0.039999999"
       fill="currentColor"
       id="rect2694" />
  </g>
  <a
     style="color:inherit"
     xlink:href="textedit://C:/Users/Javier/Documents/lilypond%20scores/ricci%20left%20hand%20examples.ly:58:21:22"
     id="a2702"
     transform="translate(-5.6906,-62.820503)">
    <g
       transform="translate(55.5185,73.6107)"
       id="g2700">
      <path
         transform="scale(0.0036,-0.0036)"
         d="m 215,137 c 57,0 111,-29 111,-92 0,-71 -54,-120 -101,-148 -35,-21 -74,-34 -114,-34 -57,0 -111,29 -111,92 0,71 54,120 101,148 35,21 74,34 114,34 z"
         fill="currentColor"
         id="path2698" />
    </g>
  </a>
  <g
     transform="translate(48.0252,10.340197)"
     id="g2706">
    <rect
       x="-0.062799998"
       y="-2.6380999"
       width="0.12549999"
       height="2.9267001"
       ry="0.039999999"
       fill="currentColor"
       id="rect2704" />
  </g>
  <g
     transform="translate(37.1932,11.690197)"
     id="g2710">
    <path
       transform="scale(0.0036,-0.0036)"
       d="m 217,-311 c 0,-11 -8,-19 -19,-19 -11,0 -20,8 -20,19 v 142 l -81,-30 v -156 c 0,-11 -9,-20 -20,-20 -11,0 -19,9 -19,20 v 142 l -28,-11 c -3,-1 -5,-1 -8,-1 -12,0 -22,10 -22,23 v 57 c 0,9 6,18 15,21 l 43,16 V 49 L 30,39 C 27,38 25,38 22,38 10,38 0,47 0,60 v 57 c 0,9 6,18 15,21 l 43,16 v 157 c 0,11 8,19 19,19 11,0 20,-8 20,-19 V 169 l 81,30 v 156 c 0,11 9,20 20,20 11,0 19,-9 19,-20 V 213 l 28,11 c 3,1 5,1 8,1 12,0 22,-10 22,-23 v -57 c 0,-9 -6,-18 -15,-21 L 217,108 V -49 l 28,10 c 3,1 5,1 8,1 12,0 22,-9 22,-22 v -57 c 0,-9 -6,-18 -15,-21 l -43,-16 z M 97,64 V -94 l 81,30 V 94 Z"
       fill="currentColor"
       id="path2708" />
  </g>
  <g
     transform="translate(39.6429,10.340197)"
     id="g2714">
    <rect
       x="-0.062799998"
       y="-1.7963001"
       width="0.12549999"
       height="2.9849"
       ry="0.039999999"
       fill="currentColor"
       id="rect2712" />
  </g>
  <a
     style="color:inherit"
     xlink:href="textedit://C:/Users/Javier/Documents/lilypond%20scores/ricci%20left%20hand%20examples.ly:57:56:57"
     id="a2720"
     transform="translate(-5.6906,-62.820503)">
    <g
       transform="translate(44.3832,70.2216)"
       id="g2718">
      <path
         transform="scale(0.002,-0.002)"
         d="m 198,284 c 24,15 48,29 65,52 12,16 19,34 28,52 2,5 6,7 11,7 8,0 16,-6 16,-17 V 161 h 79 c 12,0 18,-9 18,-18 0,-9 -6,-18 -18,-18 h -79 c 2,-51 33,-96 80,-96 10,0 15,-8 15,-15 C 413,7 408,0 398,0 349,0 302,14 253,14 204,14 156,0 107,0 97,0 93,7 93,14 c 0,7 4,15 14,15 47,0 79,45 81,96 H 36 c -29,0 -38,17 -38,28 0,3 1,6 2,8 78,88 123,201 123,319 0,11 8,21 17,21 1,0 3,-1 4,-1 25,-7 50,-14 76,-14 26,0 52,7 77,14 2,1 4,1 6,1 10,0 17,-7 17,-14 0,-2 0,-5 -2,-7 L 36,161 h 152 v 96 c 0,10 1,21 10,27 z"
         fill="currentColor"
         id="path2716" />
    </g>
  </a>
  <g
     transform="translate(34.6548,11.690197)"
     id="g2724">
    <path
       transform="scale(0.0036,-0.0036)"
       d="m -8,375 c 8,5 17,7 26,7 9,0 18,-2 26,-7 l -3,-187 104,21 h 4 c 10,0 18,-8 18,-18 l 7,-566 c -8,-5 -16,-7 -25,-7 -9,0 -18,2 -26,7 l 2,187 -103,-21 h -4 c -10,0 -18,8 -18,18 z M 130,111 40,93 l -3,-204 90,18 z"
       fill="currentColor"
       id="path2722" />
  </g>
  <a
     style="color:inherit"
     xlink:href="textedit://C:/Users/Javier/Documents/lilypond%20scores/ricci%20left%20hand%20examples.ly:57:53:54"
     id="a2730"
     transform="translate(-5.6906,-62.820503)">
    <g
       transform="translate(44.2238,74.5107)"
       id="g2728">
      <path
         transform="scale(0.0036,-0.0036)"
         d="m 215,137 c 57,0 111,-29 111,-92 0,-71 -54,-120 -101,-148 -35,-21 -74,-34 -114,-34 -57,0 -111,29 -111,92 0,71 54,120 101,148 35,21 74,34 114,34 z"
         fill="currentColor"
         id="path2726" />
    </g>
  </a>
  <g
     transform="translate(36.7304,10.340197)"
     id="g2734">
    <rect
       x="-0.062799998"
       y="-1.626"
       width="0.12549999"
       height="2.8145001"
       ry="0.039999999"
       fill="currentColor"
       id="rect2732" />
  </g>
  <a
     style="color:inherit"
     xlink:href="textedit://C:/Users/Javier/Documents/lilypond%20scores/ricci%20left%20hand%20examples.ly:57:50:51"
     id="a2740"
     transform="translate(-5.6906,-62.820503)">
    <g
       transform="translate(41.5561,69.9574)"
       id="g2738">
      <path
         transform="scale(0.002,-0.002)"
         d="m 155,471 c -34,0 -70,-8 -70,-38 0,-19 31,-23 31,-42 0,-28 -23,-51 -51,-51 -28,0 -51,23 -51,51 0,67 68,109 141,109 93,0 174,-31 174,-113 0,-41 -6,-77 -42,-94 -11,-5 -17,-16 -17,-27 0,-11 6,-22 17,-27 40,-19 59,-53 59,-98 C 346,47 263,0 160,0 78,0 0,45 0,119 c 0,32 26,58 58,58 32,0 58,-26 58,-58 0,-22 -36,-26 -36,-48 0,-33 42,-42 80,-42 46,0 56,58 56,112 v 38 c 0,40 -4,69 -43,69 H 99 c -12,0 -18,9 -18,18 0,9 6,18 18,18 h 74 c 40,0 43,31 43,73 v 30 c 0,50 -16,84 -61,84 z"
         fill="currentColor"
         id="path2736" />
    </g>
  </a>
  <a
     style="color:inherit"
     xlink:href="textedit://C:/Users/Javier/Documents/lilypond%20scores/ricci%20left%20hand%20examples.ly:57:49:50"
     id="a2746"
     transform="translate(-5.6906,-62.820503)">
    <g
       transform="translate(41.3112,74.5107)"
       id="g2744">
      <path
         transform="scale(0.0036,-0.0036)"
         d="m 215,137 c 57,0 111,-29 111,-92 0,-71 -54,-120 -101,-148 -35,-21 -74,-34 -114,-34 -57,0 -111,29 -111,92 0,71 54,120 101,148 35,21 74,34 114,34 z"
         fill="currentColor"
         id="path2742" />
    </g>
  </a>
  <a
     style="color:inherit"
     xlink:href="textedit://C:/Users/Javier/Documents/lilypond%20scores/ricci%20left%20hand%20examples.ly:58:10:11"
     id="a2752"
     transform="translate(-5.6906,-62.820503)">
    <g
       transform="translate(47.8042,69.9612)"
       id="g2750">
      <path
         transform="scale(0.002,-0.002)"
         d="M 129,129 H 259 C 259,77 291,29 340,29 350,29 354,21 354,14 354,7 350,0 340,0 291,0 243,14 194,14 145,14 98,0 49,0 39,0 34,7 34,14 c 0,7 5,15 15,15 49,0 80,48 80,100 z M 0,250 129,500 c 3,7 13,3 21,0 14,-6 28,-14 44,-14 16,0 31,8 45,14 2,1 2,1 4,1 8,0 16,-9 16,-21 V 129 H 129 v 215 c 0,15 -11,23 -20,23 -5,0 -9,-2 -11,-7 L 32,233 c -4,-7 -9,-9 -15,-9 -9,0 -19,7 -19,17 0,3 0,6 2,9 z"
         fill="currentColor"
         id="path2748" />
    </g>
  </a>
  <a
     style="color:inherit"
     xlink:href="textedit://C:/Users/Javier/Documents/lilypond%20scores/ricci%20left%20hand%20examples.ly:58:8:9"
     id="a2758"
     transform="translate(-5.6906,-62.820503)">
    <g
       transform="translate(47.5764,74.0607)"
       id="g2756">
      <path
         transform="scale(0.0036,-0.0036)"
         d="m 215,137 c 57,0 111,-29 111,-92 0,-71 -54,-120 -101,-148 -35,-21 -74,-34 -114,-34 -57,0 -111,29 -111,92 0,71 54,120 101,148 35,21 74,34 114,34 z"
         fill="currentColor"
         id="path2754" />
    </g>
  </a>
  <a
     style="color:inherit"
     xlink:href="textedit://C:/Users/Javier/Documents/lilypond%20scores/ricci%20left%20hand%20examples.ly:62:15:16"
     id="a2764"
     transform="translate(-5.6906,-62.820503)">
    <g
       transform="translate(47.5764,77.2107)"
       id="g2762">
      <path
         transform="scale(0.0036,-0.0036)"
         d="m 312,64 c 0,24 -20,41 -41,41 -4,0 -8,-1 -12,-2 C 229,94 182,65 146,41 110,17 63,-13 43,-37 36,-45 33,-54 33,-64 c 0,-24 20,-41 41,-41 4,0 8,1 12,2 30,9 77,38 113,62 36,24 83,54 103,78 7,8 10,17 10,27 z m -53,73 c 48,0 86,-22 86,-74 0,-18 -4,-38 -10,-56 -12,-38 -30,-73 -63,-95 -53,-36 -113,-49 -186,-49 -48,0 -86,22 -86,74 0,18 4,38 10,56 12,38 31,73 64,95 53,36 112,49 185,49 z"
         fill="currentColor"
         id="path2760" />
    </g>
  </a>
  <g
     transform="translate(42.9956,10.340197)"
     id="g2768">
    <rect
       x="-0.062799998"
       y="-2.5336001"
       width="0.12549999"
       height="3.2722001"
       ry="0.039999999"
       fill="currentColor"
       id="rect2766" />
  </g>
</svg>
