<!-- <?xml version="1.0" encoding="UTF-8" standalone="no"?> -->
<svg
   version="1.2"
   width="112.66744mm"
   height="25.490618mm"
   viewBox="0 0 64.113998 14.505569"
   id="svg134403"
   sodipodi:docname="ricci left hand examples-6.svg"
   xmlns:inkscape="http://www.inkscape.org/namespaces/inkscape"
   xmlns:sodipodi="http://sodipodi.sourceforge.net/DTD/sodipodi-0.dtd"
   xmlns:xlink="http://www.w3.org/1999/xlink"
   xmlns="http://www.w3.org/2000/svg"
   xmlns:svg="http://www.w3.org/2000/svg">
  <defs
     id="defs134407" />
  <sodipodi:namedview
     id="namedview134405"
     pagecolor="#ffffff"
     bordercolor="#000000"
     borderopacity="0.25"
     inkscape:showpageshadow="2"
     inkscape:pageopacity="0.0"
     inkscape:pagecheckerboard="0"
     inkscape:deskcolor="#d1d1d1"
     inkscape:document-units="mm"
     showgrid="false" />
  <style
     type="text/css"
     id="style128413"><![CDATA[
tspan { white-space: pre; }
]]></style>
  <!-- Page: 6/6 -->
  <g
     transform="translate(3.1967416e-8,11.296945)"
     id="g133891">
    <line
       stroke-linejoin="round"
       stroke-linecap="round"
       stroke-width="0.0966"
       stroke="currentColor"
       x1="0.048300002"
       y1="0"
       x2="64.065697"
       y2="0"
       id="line133889" />
  </g>
  <g
     transform="translate(3.1967416e-8,10.396945)"
     id="g133895">
    <line
       stroke-linejoin="round"
       stroke-linecap="round"
       stroke-width="0.0966"
       stroke="currentColor"
       x1="0.048300002"
       y1="0"
       x2="64.065697"
       y2="0"
       id="line133893" />
  </g>
  <g
     transform="translate(3.1967416e-8,9.4969446)"
     id="g133899">
    <line
       stroke-linejoin="round"
       stroke-linecap="round"
       stroke-width="0.0966"
       stroke="currentColor"
       x1="0.048300002"
       y1="0"
       x2="64.065697"
       y2="0"
       id="line133897" />
  </g>
  <g
     transform="translate(3.1967416e-8,8.5969446)"
     id="g133903">
    <line
       stroke-linejoin="round"
       stroke-linecap="round"
       stroke-width="0.0966"
       stroke="currentColor"
       x1="0.048300002"
       y1="0"
       x2="64.065697"
       y2="0"
       id="line133901" />
  </g>
  <g
     transform="translate(3.1967416e-8,7.6969446)"
     id="g133907">
    <line
       stroke-linejoin="round"
       stroke-linecap="round"
       stroke-width="0.0966"
       stroke="currentColor"
       x1="0.048300002"
       y1="0"
       x2="64.065697"
       y2="0"
       id="line133905" />
  </g>
  <g
     transform="translate(53.3352,9.0469446)"
     id="g133911">
    <path
       transform="scale(0.0036,-0.0036)"
       d="M 0,0 C 0,31 25,56 56,56 87,56 111,31 111,0 111,-31 87,-56 56,-56 25,-56 0,-31 0,0 Z"
       fill="currentColor"
       id="path133909" />
  </g>
  <g
     transform="translate(53.3352,9.9469446)"
     id="g133915">
    <path
       transform="scale(0.0036,-0.0036)"
       d="M 0,0 C 0,31 25,56 56,56 87,56 111,31 111,0 111,-31 87,-56 56,-56 25,-56 0,-31 0,0 Z"
       fill="currentColor"
       id="path133913" />
  </g>
  <g
     transform="translate(54.4995,9.4969446)"
     id="g133919">
    <rect
       x="0"
       y="-1.8"
       width="0.5794"
       height="3.5999999"
       ry="0.0000"
       fill="currentColor"
       id="rect133917" />
  </g>
  <g
     transform="translate(54.0263,9.4969446)"
     id="g133923">
    <rect
       x="0"
       y="-1.8"
       width="0.18350001"
       height="3.5999999"
       ry="0.0000"
       fill="currentColor"
       id="rect133921" />
  </g>
  <g
     transform="translate(63.9304,9.4969446)"
     id="g133927">
    <rect
       x="0"
       y="-1.8"
       width="0.18350001"
       height="3.5999999"
       ry="0.0000"
       fill="currentColor"
       id="rect133925" />
  </g>
  <g
     transform="translate(63.4572,9.4969446)"
     id="g133931">
    <rect
       x="0"
       y="-1.8"
       width="0.18350001"
       height="3.5999999"
       ry="0.0000"
       fill="currentColor"
       id="rect133929" />
  </g>
  <g
     transform="translate(32.3234,9.4969446)"
     id="g133935">
    <rect
       x="0"
       y="-1.8"
       width="0.18350001"
       height="3.5999999"
       ry="0.0000"
       fill="currentColor"
       id="rect133933" />
  </g>
  <g
     transform="translate(3.1967416e-8,6.7969446)"
     id="g133939">
    <rect
       x="44.301998"
       y="-0.0933"
       width="1.7588"
       height="0.1866"
       ry="0.0933"
       fill="currentColor"
       id="rect133937" />
  </g>
  <g
     transform="translate(3.1967416e-8,5.8969446)"
     id="g133943">
    <rect
       x="42.179501"
       y="-0.0933"
       width="1.7588"
       height="0.1866"
       ry="0.0933"
       fill="currentColor"
       id="rect133941" />
  </g>
  <g
     transform="translate(3.1967416e-8,6.7969446)"
     id="g133947">
    <rect
       x="42.179501"
       y="-0.0933"
       width="1.7588"
       height="0.1866"
       ry="0.0933"
       fill="currentColor"
       id="rect133945" />
  </g>
  <g
     transform="translate(3.1967416e-8,6.7969446)"
     id="g133951">
    <rect
       x="37.434399"
       y="-0.0933"
       width="1.7588"
       height="0.1866"
       ry="0.0933"
       fill="currentColor"
       id="rect133949" />
  </g>
  <g
     transform="translate(3.1967416e-8,5.8969446)"
     id="g133955">
    <rect
       x="35.311901"
       y="-0.0933"
       width="1.7588"
       height="0.1866"
       ry="0.0933"
       fill="currentColor"
       id="rect133953" />
  </g>
  <g
     transform="translate(3.1967416e-8,6.7969446)"
     id="g133959">
    <rect
       x="35.311901"
       y="-0.0933"
       width="1.7588"
       height="0.1866"
       ry="0.0933"
       fill="currentColor"
       id="rect133957" />
  </g>
  <g
     transform="translate(3.1967416e-8,4.9969446)"
     id="g133963">
    <rect
       x="33.1894"
       y="-0.0933"
       width="1.7588"
       height="0.1866"
       ry="0.0933"
       fill="currentColor"
       id="rect133961" />
  </g>
  <g
     transform="translate(3.1967416e-8,5.8969446)"
     id="g133967">
    <rect
       x="33.1894"
       y="-0.0933"
       width="1.7588"
       height="0.1866"
       ry="0.0933"
       fill="currentColor"
       id="rect133965" />
  </g>
  <g
     transform="translate(3.1967416e-8,6.7969446)"
     id="g133971">
    <rect
       x="33.1894"
       y="-0.0933"
       width="1.7588"
       height="0.1866"
       ry="0.0933"
       fill="currentColor"
       id="rect133969" />
  </g>
  <g
     transform="translate(3.1967416e-8,5.8969446)"
     id="g133975">
    <rect
       x="29.907801"
       y="-0.0933"
       width="1.7588"
       height="0.1866"
       ry="0.0933"
       fill="currentColor"
       id="rect133973" />
  </g>
  <g
     transform="translate(3.1967416e-8,6.7969446)"
     id="g133979">
    <rect
       x="29.907801"
       y="-0.0933"
       width="1.7588"
       height="0.1866"
       ry="0.0933"
       fill="currentColor"
       id="rect133977" />
  </g>
  <g
     transform="translate(3.1967416e-8,6.7969446)"
     id="g133983">
    <rect
       x="27.285299"
       y="-0.0933"
       width="1.7588"
       height="0.1866"
       ry="0.0933"
       fill="currentColor"
       id="rect133981" />
  </g>
  <g
     transform="translate(3.1967416e-8,5.8969446)"
     id="g133987">
    <rect
       x="22.540199"
       y="-0.0933"
       width="1.7588"
       height="0.1866"
       ry="0.0933"
       fill="currentColor"
       id="rect133985" />
  </g>
  <g
     transform="translate(3.1967416e-8,6.7969446)"
     id="g133991">
    <rect
       x="22.540199"
       y="-0.0933"
       width="1.7588"
       height="0.1866"
       ry="0.0933"
       fill="currentColor"
       id="rect133989" />
  </g>
  <g
     transform="translate(3.1967416e-8,6.7969446)"
     id="g133995">
    <rect
       x="19.9177"
       y="-0.0933"
       width="1.7588"
       height="0.1866"
       ry="0.0933"
       fill="currentColor"
       id="rect133993" />
  </g>
  <g
     transform="translate(45.7048,9.4969446)"
     id="g133999">
    <rect
       x="-0.062799998"
       y="-5.8499999"
       width="0.12549999"
       height="2.9886"
       ry="0.039999999"
       fill="currentColor"
       id="rect133997" />
  </g>
  <g
     transform="translate(40.9598,9.4969446)"
     id="g134003">
    <rect
       x="-0.062799998"
       y="-5.8499999"
       width="0.12549999"
       height="3.8886001"
       ry="0.039999999"
       fill="currentColor"
       id="rect134001" />
  </g>
  <a
     style="color:inherit"
     xlink:href="textedit://C:/Users/Javier/Documents/lilypond%20scores/ricci%20left%20hand%20examples.ly:981:26:27"
     id="a134009"
     transform="translate(-5.6906,-141.75246)">
    <g
       transform="translate(48.1631,147.6494)"
       id="g134007">
      <path
         transform="scale(0.0036,-0.0036)"
         d="m 215,137 c 57,0 111,-29 111,-92 0,-71 -54,-120 -101,-148 -35,-21 -74,-34 -114,-34 -57,0 -111,29 -111,92 0,71 54,120 101,148 35,21 74,34 114,34 z"
         fill="currentColor"
         id="path134005" />
    </g>
  </a>
  <g
     transform="translate(43.5823,9.4969446)"
     id="g134013">
    <rect
       x="-0.062799998"
       y="-5.8499999"
       width="0.12549999"
       height="2.0885999"
       ry="0.039999999"
       fill="currentColor"
       id="rect134011" />
  </g>
  <a
     style="color:inherit"
     xlink:href="textedit://C:/Users/Javier/Documents/lilypond%20scores/ricci%20left%20hand%20examples.ly:981:28:29"
     id="a134019"
     transform="translate(-5.6906,-141.75246)">
    <g
       transform="translate(50.2857,148.5494)"
       id="g134017">
      <path
         transform="scale(0.0036,-0.0036)"
         d="m 215,137 c 57,0 111,-29 111,-92 0,-71 -54,-120 -101,-148 -35,-21 -74,-34 -114,-34 -57,0 -111,29 -111,92 0,71 54,120 101,148 35,21 74,34 114,34 z"
         fill="currentColor"
         id="path134015" />
    </g>
  </a>
  <a
     style="color:inherit"
     xlink:href="textedit://C:/Users/Javier/Documents/lilypond%20scores/ricci%20left%20hand%20examples.ly:981:29:30"
     id="a134025"
     transform="translate(-5.6906,-141.75246)">
    <g
       transform="translate(50.4451,144.0924)"
       id="g134023">
      <path
         transform="scale(0.002,-0.002)"
         d="m 198,284 c 24,15 48,29 65,52 12,16 19,34 28,52 2,5 6,7 11,7 8,0 16,-6 16,-17 V 161 h 79 c 12,0 18,-9 18,-18 0,-9 -6,-18 -18,-18 h -79 c 2,-51 33,-96 80,-96 10,0 15,-8 15,-15 C 413,7 408,0 398,0 349,0 302,14 253,14 204,14 156,0 107,0 97,0 93,7 93,14 c 0,7 4,15 14,15 47,0 79,45 81,96 H 36 c -29,0 -38,17 -38,28 0,3 1,6 2,8 78,88 123,201 123,319 0,11 8,21 17,21 1,0 3,-1 4,-1 25,-7 50,-14 76,-14 26,0 52,7 77,14 2,1 4,1 6,1 10,0 17,-7 17,-14 0,-2 0,-5 -2,-7 L 36,161 h 152 v 96 c 0,10 1,21 10,27 z"
         fill="currentColor"
         id="path134021" />
    </g>
  </a>
  <a
     style="color:inherit"
     xlink:href="textedit://C:/Users/Javier/Documents/lilypond%20scores/ricci%20left%20hand%20examples.ly:981:13:14"
     id="a134031"
     transform="translate(-5.6906,-141.75246)">
    <g
       transform="translate(45.5406,149.4494)"
       id="g134029">
      <path
         transform="scale(0.0036,-0.0036)"
         d="m 215,137 c 57,0 111,-29 111,-92 0,-71 -54,-120 -101,-148 -35,-21 -74,-34 -114,-34 -57,0 -111,29 -111,92 0,71 54,120 101,148 35,21 74,34 114,34 z"
         fill="currentColor"
         id="path134027" />
    </g>
  </a>
  <a
     style="color:inherit"
     xlink:href="textedit://C:/Users/Javier/Documents/lilypond%20scores/ricci%20left%20hand%20examples.ly:981:32:33"
     id="a134037"
     transform="translate(-5.6906,-141.75246)">
    <g
       transform="translate(52.4082,149.4494)"
       id="g134035">
      <path
         transform="scale(0.0036,-0.0036)"
         d="m 215,137 c 57,0 111,-29 111,-92 0,-71 -54,-120 -101,-148 -35,-21 -74,-34 -114,-34 -57,0 -111,29 -111,92 0,71 54,120 101,148 35,21 74,34 114,34 z"
         fill="currentColor"
         id="path134033" />
    </g>
  </a>
  <a
     style="color:inherit"
     xlink:href="textedit://C:/Users/Javier/Documents/lilypond%20scores/ricci%20left%20hand%20examples.ly:981:35:36"
     id="a134043"
     transform="translate(-5.6906,-141.75246)">
    <g
       transform="translate(52.6359,144.5884)"
       id="g134041">
      <path
         transform="scale(0.002,-0.002)"
         d="M 129,129 H 259 C 259,77 291,29 340,29 350,29 354,21 354,14 354,7 350,0 340,0 291,0 243,14 194,14 145,14 98,0 49,0 39,0 34,7 34,14 c 0,7 5,15 15,15 49,0 80,48 80,100 z M 0,250 129,500 c 3,7 13,3 21,0 14,-6 28,-14 44,-14 16,0 31,8 45,14 2,1 2,1 4,1 8,0 16,-9 16,-21 V 129 H 129 v 215 c 0,15 -11,23 -20,23 -5,0 -9,-2 -11,-7 L 32,233 c -4,-7 -9,-9 -15,-9 -9,0 -19,7 -19,17 0,3 0,6 2,9 z"
         fill="currentColor"
         id="path134039" />
    </g>
  </a>
  <a
     style="color:inherit"
     xlink:href="textedit://C:/Users/Javier/Documents/lilypond%20scores/ricci%20left%20hand%20examples.ly:981:33:34"
     id="a134049"
     transform="translate(-5.6906,-141.75246)">
    <g
       transform="translate(52.6189,146.5504)"
       id="g134047">
      <path
         transform="scale(0.002,-0.002)"
         d="m 190,464 c -54,0 -61,-71 -61,-141 v -73 -73 c 0,-70 7,-141 61,-141 54,0 62,71 62,141 0,26 -1,51 -1,73 0,22 1,47 1,73 0,70 -8,141 -62,141 z m 0,36 C 308,500 380,378 380,250 380,122 308,0 190,0 72,0 0,122 0,250 0,378 72,500 190,500 Z"
         fill="currentColor"
         id="path134045" />
    </g>
  </a>
  <g
     transform="translate(47.8273,9.4969446)"
     id="g134053">
    <rect
       x="-0.062799998"
       y="-4.033"
       width="0.12549999"
       height="2.0716"
       ry="0.039999999"
       fill="currentColor"
       id="rect134051" />
  </g>
  <a
     style="color:inherit"
     xlink:href="textedit://C:/Users/Javier/Documents/lilypond%20scores/ricci%20left%20hand%20examples.ly:981:9:10"
     id="a134059"
     transform="translate(-5.6906,-141.75246)">
    <g
       transform="translate(41.2956,147.6494)"
       id="g134057">
      <path
         transform="scale(0.0036,-0.0036)"
         d="m 215,137 c 57,0 111,-29 111,-92 0,-71 -54,-120 -101,-148 -35,-21 -74,-34 -114,-34 -57,0 -111,29 -111,92 0,71 54,120 101,148 35,21 74,34 114,34 z"
         fill="currentColor"
         id="path134055" />
    </g>
  </a>
  <g
     transform="translate(36.7147,9.4969446)"
     id="g134063">
    <rect
       x="-0.062799998"
       y="-6.4411001"
       width="0.12549999"
       height="2.6796999"
       ry="0.039999999"
       fill="currentColor"
       id="rect134061" />
  </g>
  <a
     style="color:inherit"
     xlink:href="textedit://C:/Users/Javier/Documents/lilypond%20scores/ricci%20left%20hand%20examples.ly:981:11:12"
     id="a134069"
     transform="translate(-5.6906,-141.75246)">
    <g
       transform="translate(43.4181,148.5494)"
       id="g134067">
      <path
         transform="scale(0.0036,-0.0036)"
         d="m 215,137 c 57,0 111,-29 111,-92 0,-71 -54,-120 -101,-148 -35,-21 -74,-34 -114,-34 -57,0 -111,29 -111,92 0,71 54,120 101,148 35,21 74,34 114,34 z"
         fill="currentColor"
         id="path134065" />
    </g>
  </a>
  <g
     transform="translate(38.8372,9.4969446)"
     id="g134073">
    <rect
       x="-0.062799998"
       y="-5.8670001"
       width="0.12549999"
       height="3.0056"
       ry="0.039999999"
       fill="currentColor"
       id="rect134071" />
  </g>
  <g
     transform="translate(47.7646,5.4469446)"
     id="g134079">
    <polygon
       stroke-linejoin="round"
       stroke-linecap="round"
       stroke-width="0.08"
       fill="currentColor"
       stroke="currentColor"
       points="4.3306,1.0063 4.3306,1.3583 0.04,0.176 0.04,-0.176 "
       id="polygon134077" />
  </g>
  <g
     transform="translate(40.897,3.6469446)"
     id="g134083">
    <polygon
       stroke-linejoin="round"
       stroke-linecap="round"
       stroke-width="0.08"
       fill="currentColor"
       stroke="currentColor"
       points="4.8306,-0.176 4.8306,0.176 0.04,0.176 0.04,-0.176 "
       id="polygon134081" />
  </g>
  <g
     transform="translate(34.5294,2.4646446)"
     id="g134089">
    <polygon
       stroke-linejoin="round"
       stroke-linecap="round"
       stroke-width="0.08"
       fill="currentColor"
       stroke="currentColor"
       points="4.3306,1.0063 4.3306,1.3583 0.04,0.176 0.04,-0.176 "
       id="polygon134087" />
  </g>
  <a
     style="color:inherit"
     xlink:href="textedit://C:/Users/Javier/Documents/lilypond%20scores/ricci%20left%20hand%20examples.ly:981:7:8"
     id="a134097"
     transform="translate(-5.6906,-141.75246)">
    <g
       transform="translate(39.173,151.2494)"
       id="g134095">
      <path
         stroke-width="0.0773"
         stroke-linejoin="round"
         stroke-linecap="round"
         stroke="currentColor"
         fill="currentColor"
         d="m 1.1808,-7.6813 c 2.4598,-1.1407 15.5906,1.286 17.4802,3.2306 v 0 C 16.7503,-6.2813 3.6196,-8.7081 1.1808,-7.6813 Z"
         id="path134093" />
    </g>
  </a>
  <g
     transform="translate(24.9558,10.229245)"
     id="g134101">
    <polygon
       stroke-linejoin="round"
       stroke-linecap="round"
       stroke-width="0.08"
       fill="currentColor"
       stroke="currentColor"
       points="5.3306,-0.7406 5.3306,-0.3886 0.04,0.176 0.04,-0.176 "
       id="polygon134099" />
  </g>
  <g
     transform="translate(17.5882,10.229245)"
     id="g134105">
    <polygon
       stroke-linejoin="round"
       stroke-linecap="round"
       stroke-width="0.08"
       fill="currentColor"
       stroke="currentColor"
       points="5.3306,-0.7406 5.3306,-0.3886 0.04,0.176 0.04,-0.176 "
       id="polygon134103" />
  </g>
  <g
     transform="translate(24.1558,1.3380446)"
     id="g134111">
    <text
       font-family="serif"
       font-weight="bold"
       font-style="italic"
       font-size="1.98px"
       text-anchor="start"
       fill="currentColor"
       id="text134109"><tspan
         id="tspan134107">8</tspan></text>
  </g>
  <g
     transform="translate(25.446,0.68924457)"
     id="g134115">
    <line
       stroke-linejoin="round"
       stroke-linecap="round"
       stroke-width="0.0966"
       stroke="currentColor"
       x1="16.1766"
       y1="0"
       x2="16.1766"
       y2="0.80000001"
       id="line134113" />
  </g>
  <g
     transform="translate(25.446,0.68924457)"
     id="g134119">
    <line
       stroke-linejoin="round"
       stroke-linecap="round"
       stroke-width="0.0966"
       stroke="currentColor"
       x1="0"
       y1="0"
       x2="0"
       y2="0"
       id="line134117" />
  </g>
  <g
     transform="translate(25.446,0.68924457)"
     id="g134123">
    <line
       stroke-linejoin="round"
       stroke-linecap="round"
       stroke-width="0.0966"
       stroke="currentColor"
       x1="0"
       y1="0"
       x2="16.1766"
       y2="0"
       stroke-dasharray="0.26519, 0.618776"
       id="line134121" />
  </g>
  <g
     transform="translate(9.7207,13.546945)"
     id="g134129">
    <polygon
       stroke-linejoin="round"
       stroke-linecap="round"
       stroke-width="0.08"
       fill="currentColor"
       stroke="currentColor"
       points="5.3306,-1.3583 5.3306,-1.0063 0.04,0.176 0.04,-0.176 "
       id="polygon134127" />
  </g>
  <a
     style="color:inherit"
     xlink:href="textedit://C:/Users/Javier/Documents/lilypond%20scores/ricci%20left%20hand%20examples.ly:979:8:9"
     id="a134139"
     transform="translate(-5.6906,-141.75246)">
    <g
       transform="translate(15.4113,151.2494)"
       id="g134137">
      <path
         stroke-width="0.0773"
         stroke-linejoin="round"
         stroke-linecap="round"
         stroke="currentColor"
         fill="currentColor"
         d="M 0.1327,4.7022 C 2.7266,5.8662 18.5954,2.9785 20.6129,0.9753 v 0 C 18.5747,2.8645 2.7059,5.7522 0.1327,4.7022 Z"
         id="path134135" />
    </g>
  </a>
  <g
     transform="translate(52.0724,9.4969446)"
     id="g134143">
    <rect
       x="-0.062799998"
       y="-2.8847001"
       width="0.12549999"
       height="3.1733"
       ry="0.039999999"
       fill="currentColor"
       id="rect134141" />
  </g>
  <a
     style="color:inherit"
     xlink:href="textedit://C:/Users/Javier/Documents/lilypond%20scores/ricci%20left%20hand%20examples.ly:981:38:39"
     id="a134149"
     transform="translate(-5.6906,-141.75246)">
    <g
       transform="translate(54.5307,150.7994)"
       id="g134147">
      <path
         transform="scale(0.0036,-0.0036)"
         d="m 215,137 c 57,0 111,-29 111,-92 0,-71 -54,-120 -101,-148 -35,-21 -74,-34 -114,-34 -57,0 -111,29 -111,92 0,71 54,120 101,148 35,21 74,34 114,34 z"
         fill="currentColor"
         id="path134145" />
    </g>
  </a>
  <a
     style="color:inherit"
     xlink:href="textedit://C:/Users/Javier/Documents/lilypond%20scores/ricci%20left%20hand%20examples.ly:981:41:42"
     id="a134155"
     transform="translate(-5.6906,-141.75246)">
    <g
       transform="translate(54.7414,145.1751)"
       id="g134153">
      <path
         transform="scale(0.002,-0.002)"
         d="m 129,149 h 7 c 36,0 74,-13 111,-40 19,-14 40,-21 59,-21 22,0 40,10 46,31 2,7 7,11 13,11 7,0 15,-5 15,-14 v -5 C 361,40 296,0 234,0 196,0 159,15 133,47 121,62 105,69 89,69 60,69 32,48 29,13 28,4 22,0 15,0 8,0 0,5 0,14 c 0,173 233,163 233,341 0,56 -14,116 -62,116 -33,0 -66,-15 -66,-44 0,-24 31,-37 31,-61 0,-34 -27,-61 -61,-61 -34,0 -61,27 -61,61 0,78 74,134 157,134 98,0 191,-55 191,-145 C 362,211 227,199 129,149 Z"
         fill="currentColor"
         id="path134151" />
    </g>
  </a>
  <a
     style="color:inherit"
     xlink:href="textedit://C:/Users/Javier/Documents/lilypond%20scores/ricci%20left%20hand%20examples.ly:981:39:40"
     id="a134161"
     transform="translate(-5.6906,-141.75246)">
    <g
       transform="translate(54.6902,147.1245)"
       id="g134159">
      <path
         transform="scale(0.002,-0.002)"
         d="m 198,284 c 24,15 48,29 65,52 12,16 19,34 28,52 2,5 6,7 11,7 8,0 16,-6 16,-17 V 161 h 79 c 12,0 18,-9 18,-18 0,-9 -6,-18 -18,-18 h -79 c 2,-51 33,-96 80,-96 10,0 15,-8 15,-15 C 413,7 408,0 398,0 349,0 302,14 253,14 204,14 156,0 107,0 97,0 93,7 93,14 c 0,7 4,15 14,15 47,0 79,45 81,96 H 36 c -29,0 -38,17 -38,28 0,3 1,6 2,8 78,88 123,201 123,319 0,11 8,21 17,21 1,0 3,-1 4,-1 25,-7 50,-14 76,-14 26,0 52,7 77,14 2,1 4,1 6,1 10,0 17,-7 17,-14 0,-2 0,-5 -2,-7 L 36,161 h 152 v 96 c 0,10 1,21 10,27 z"
         fill="currentColor"
         id="path134157" />
    </g>
  </a>
  <g
     transform="translate(49.9499,9.4969446)"
     id="g134165">
    <rect
       x="-0.062799998"
       y="-3.4589"
       width="0.12549999"
       height="2.8474"
       ry="0.039999999"
       fill="currentColor"
       id="rect134163" />
  </g>
  <a
     style="color:inherit"
     xlink:href="textedit://C:/Users/Javier/Documents/lilypond%20scores/ricci%20left%20hand%20examples.ly:981:44:45"
     id="a134171"
     transform="translate(-5.6906,-141.75246)">
    <g
       transform="translate(56.6532,151.6994)"
       id="g134169">
      <path
         transform="scale(0.0036,-0.0036)"
         d="m 215,137 c 57,0 111,-29 111,-92 0,-71 -54,-120 -101,-148 -35,-21 -74,-34 -114,-34 -57,0 -111,29 -111,92 0,71 54,120 101,148 35,21 74,34 114,34 z"
         fill="currentColor"
         id="path134167" />
    </g>
  </a>
  <a
     style="color:inherit"
     xlink:href="textedit://C:/Users/Javier/Documents/lilypond%20scores/ricci%20left%20hand%20examples.ly:990:5:6"
     id="a134177"
     transform="translate(-5.6906,-141.75246)">
    <g
       transform="translate(62.6695,151.6994)"
       id="g134175">
      <path
         transform="scale(0.0036,-0.0036)"
         d="m 312,64 c 0,24 -20,41 -41,41 -4,0 -8,-1 -12,-2 C 229,94 182,65 146,41 110,17 63,-13 43,-37 36,-45 33,-54 33,-64 c 0,-24 20,-41 41,-41 4,0 8,1 12,2 30,9 77,38 113,62 36,24 83,54 103,78 7,8 10,17 10,27 z m -53,73 c 48,0 86,-22 86,-74 0,-18 -4,-38 -10,-56 -12,-38 -30,-73 -63,-95 -53,-36 -113,-49 -186,-49 -48,0 -86,22 -86,74 0,18 4,38 10,56 12,38 31,73 64,95 53,36 112,49 185,49 z"
         fill="currentColor"
         id="path134173" />
    </g>
  </a>
  <a
     style="color:inherit"
     xlink:href="textedit://C:/Users/Javier/Documents/lilypond%20scores/ricci%20left%20hand%20examples.ly:990:8:9"
     id="a134183"
     transform="translate(-5.6906,-141.75246)">
    <g
       transform="translate(62.6695,152.5994)"
       id="g134181">
      <path
         transform="scale(0.0036,-0.0036)"
         d="m 312,64 c 0,24 -20,41 -41,41 -4,0 -8,-1 -12,-2 C 229,94 182,65 146,41 110,17 63,-13 43,-37 36,-45 33,-54 33,-64 c 0,-24 20,-41 41,-41 4,0 8,1 12,2 30,9 77,38 113,62 36,24 83,54 103,78 7,8 10,17 10,27 z m -53,73 c 48,0 86,-22 86,-74 0,-18 -4,-38 -10,-56 -12,-38 -30,-73 -63,-95 -53,-36 -113,-49 -186,-49 -48,0 -86,22 -86,74 0,18 4,38 10,56 12,38 31,73 64,95 53,36 112,49 185,49 z"
         fill="currentColor"
         id="path134179" />
    </g>
  </a>
  <g
     transform="translate(58.6228,9.9469446)"
     id="g134187">
    <path
       transform="scale(0.0036,-0.0036)"
       d="M 0,0 C 0,31 25,56 56,56 87,56 111,31 111,0 111,-31 87,-56 56,-56 25,-56 0,-31 0,0 Z"
       fill="currentColor"
       id="path134185" />
  </g>
  <g
     transform="translate(58.1586,9.4969446)"
     id="g134191">
    <rect
       x="-0.062799998"
       y="-2.7"
       width="0.12549999"
       height="3.8223"
       ry="0.039999999"
       fill="currentColor"
       id="rect134189" />
  </g>
  <g
     transform="translate(58.6228,10.846945)"
     id="g134195">
    <path
       transform="scale(0.0036,-0.0036)"
       d="M 0,0 C 0,31 25,56 56,56 87,56 111,31 111,0 111,-31 87,-56 56,-56 25,-56 0,-31 0,0 Z"
       fill="currentColor"
       id="path134193" />
  </g>
  <a
     style="color:inherit"
     xlink:href="textedit://C:/Users/Javier/Documents/lilypond%20scores/ricci%20left%20hand%20examples.ly:979:12:13"
     id="a134201"
     transform="translate(-5.6906,-141.75246)">
    <g
       transform="translate(20.6563,150.7994)"
       id="g134199">
      <path
         transform="scale(0.0036,-0.0036)"
         d="m 215,137 c 57,0 111,-29 111,-92 0,-71 -54,-120 -101,-148 -35,-21 -74,-34 -114,-34 -57,0 -111,29 -111,92 0,71 54,120 101,148 35,21 74,34 114,34 z"
         fill="currentColor"
         id="path134197" />
    </g>
  </a>
  <a
     style="color:inherit"
     xlink:href="textedit://C:/Users/Javier/Documents/lilypond%20scores/ricci%20left%20hand%20examples.ly:979:15:16"
     id="a134207"
     transform="translate(-5.6906,-141.75246)">
    <g
       transform="translate(20.867,147.4768)"
       id="g134205">
      <path
         transform="scale(0.002,-0.002)"
         d="m 129,149 h 7 c 36,0 74,-13 111,-40 19,-14 40,-21 59,-21 22,0 40,10 46,31 2,7 7,11 13,11 7,0 15,-5 15,-14 v -5 C 361,40 296,0 234,0 196,0 159,15 133,47 121,62 105,69 89,69 60,69 32,48 29,13 28,4 22,0 15,0 8,0 0,5 0,14 c 0,173 233,163 233,341 0,56 -14,116 -62,116 -33,0 -66,-15 -66,-44 0,-24 31,-37 31,-61 0,-34 -27,-61 -61,-61 -34,0 -61,27 -61,61 0,78 74,134 157,134 98,0 191,-55 191,-145 C 362,211 227,199 129,149 Z"
         fill="currentColor"
         id="path134203" />
    </g>
  </a>
  <a
     style="color:inherit"
     xlink:href="textedit://C:/Users/Javier/Documents/lilypond%20scores/ricci%20left%20hand%20examples.ly:979:13:14"
     id="a134213"
     transform="translate(-5.6906,-141.75246)">
    <g
       transform="translate(20.8158,148.9511)"
       id="g134211">
      <path
         transform="scale(0.002,-0.002)"
         d="m 198,284 c 24,15 48,29 65,52 12,16 19,34 28,52 2,5 6,7 11,7 8,0 16,-6 16,-17 V 161 h 79 c 12,0 18,-9 18,-18 0,-9 -6,-18 -18,-18 h -79 c 2,-51 33,-96 80,-96 10,0 15,-8 15,-15 C 413,7 408,0 398,0 349,0 302,14 253,14 204,14 156,0 107,0 97,0 93,7 93,14 c 0,7 4,15 14,15 47,0 79,45 81,96 H 36 c -29,0 -38,17 -38,28 0,3 1,6 2,8 78,88 123,201 123,319 0,11 8,21 17,21 1,0 3,-1 4,-1 25,-7 50,-14 76,-14 26,0 52,7 77,14 2,1 4,1 6,1 10,0 17,-7 17,-14 0,-2 0,-5 -2,-7 L 36,161 h 152 v 96 c 0,10 1,21 10,27 z"
         fill="currentColor"
         id="path134209" />
    </g>
  </a>
  <g
     transform="translate(15.0285,9.4969446)"
     id="g134217">
    <rect
       x="-0.062799998"
       y="-0.2886"
       width="0.12549999"
       height="3.1701"
       ry="0.039999999"
       fill="currentColor"
       id="rect134215" />
  </g>
  <a
     style="color:inherit"
     xlink:href="textedit://C:/Users/Javier/Documents/lilypond%20scores/ricci%20left%20hand%20examples.ly:979:18:19"
     id="a134223"
     transform="translate(-5.6906,-141.75246)">
    <g
       transform="translate(23.2788,149.4494)"
       id="g134221">
      <path
         transform="scale(0.0036,-0.0036)"
         d="m 215,137 c 57,0 111,-29 111,-92 0,-71 -54,-120 -101,-148 -35,-21 -74,-34 -114,-34 -57,0 -111,29 -111,92 0,71 54,120 101,148 35,21 74,34 114,34 z"
         fill="currentColor"
         id="path134219" />
    </g>
  </a>
  <a
     style="color:inherit"
     xlink:href="textedit://C:/Users/Javier/Documents/lilypond%20scores/ricci%20left%20hand%20examples.ly:979:21:22"
     id="a134229"
     transform="translate(-5.6906,-141.75246)">
    <g
       transform="translate(23.5066,147.0313)"
       id="g134227">
      <path
         transform="scale(0.002,-0.002)"
         d="M 129,129 H 259 C 259,77 291,29 340,29 350,29 354,21 354,14 354,7 350,0 340,0 291,0 243,14 194,14 145,14 98,0 49,0 39,0 34,7 34,14 c 0,7 5,15 15,15 49,0 80,48 80,100 z M 0,250 129,500 c 3,7 13,3 21,0 14,-6 28,-14 44,-14 16,0 31,8 45,14 2,1 2,1 4,1 8,0 16,-9 16,-21 V 129 H 129 v 215 c 0,15 -11,23 -20,23 -5,0 -9,-2 -11,-7 L 32,233 c -4,-7 -9,-9 -15,-9 -9,0 -19,7 -19,17 0,3 0,6 2,9 z"
         fill="currentColor"
         id="path134225" />
    </g>
  </a>
  <a
     style="color:inherit"
     xlink:href="textedit://C:/Users/Javier/Documents/lilypond%20scores/ricci%20left%20hand%20examples.ly:979:19:20"
     id="a134235"
     transform="translate(-5.6906,-141.75246)">
    <g
       transform="translate(23.4895,148.5056)"
       id="g134233">
      <path
         transform="scale(0.002,-0.002)"
         d="m 190,464 c -54,0 -61,-71 -61,-141 v -73 -73 c 0,-70 7,-141 61,-141 54,0 62,71 62,141 0,26 -1,51 -1,73 0,22 1,47 1,73 0,70 -8,141 -62,141 z m 0,36 C 308,500 380,378 380,250 380,122 308,0 190,0 72,0 0,122 0,250 0,378 72,500 190,500 Z"
         fill="currentColor"
         id="path134231" />
    </g>
  </a>
  <g
     transform="translate(17.651,9.4969446)"
     id="g134239">
    <rect
       x="-0.062799998"
       y="-1.6386"
       width="0.12549999"
       height="2.3643"
       ry="0.039999999"
       fill="currentColor"
       id="rect134237" />
  </g>
  <g
     transform="translate(33.5452,9.4969446)"
     id="g134243">
    <rect
       x="-0.062799998"
       y="0.67769998"
       width="0.12549999"
       height="2.6222999"
       ry="0.039999999"
       fill="currentColor"
       id="rect134241" />
  </g>
  <a
     style="color:inherit"
     xlink:href="textedit://C:/Users/Javier/Documents/lilypond%20scores/ricci%20left%20hand%20examples.ly:979:6:7"
     id="a134249"
     transform="translate(-5.6906,-141.75246)">
    <g
       transform="translate(15.4113,152.5994)"
       id="g134247">
      <path
         transform="scale(0.0036,-0.0036)"
         d="m 215,137 c 57,0 111,-29 111,-92 0,-71 -54,-120 -101,-148 -35,-21 -74,-34 -114,-34 -57,0 -111,29 -111,92 0,71 54,120 101,148 35,21 74,34 114,34 z"
         fill="currentColor"
         id="path134245" />
    </g>
  </a>
  <a
     style="color:inherit"
     xlink:href="textedit://C:/Users/Javier/Documents/lilypond%20scores/ricci%20left%20hand%20examples.ly:986:7:8"
     id="a134255"
     transform="translate(-5.6906,-141.75246)">
    <g
       transform="translate(15.4113,151.6994)"
       id="g134253">
      <path
         transform="scale(0.0036,-0.0036)"
         d="m 312,64 c 0,24 -20,41 -41,41 -4,0 -8,-1 -12,-2 C 229,94 182,65 146,41 110,17 63,-13 43,-37 36,-45 33,-54 33,-64 c 0,-24 20,-41 41,-41 4,0 8,1 12,2 30,9 77,38 113,62 36,24 83,54 103,78 7,8 10,17 10,27 z m -53,73 c 48,0 86,-22 86,-74 0,-18 -4,-38 -10,-56 -12,-38 -30,-73 -63,-95 -53,-36 -113,-49 -186,-49 -48,0 -86,22 -86,74 0,18 4,38 10,56 12,38 31,73 64,95 53,36 112,49 185,49 z"
         fill="currentColor"
         id="path134251" />
    </g>
  </a>
  <g
     transform="translate(0.80000003,10.396945)"
     id="g134259">
    <path
       transform="scale(0.0036,-0.0036)"
       d="m 378,263 c 4,0 7,1 11,1 156,0 257,-129 257,-262 0,-76 -34,-154 -108,-210 -22,-17 -46,-29 -72,-37 3,-34 5,-68 5,-102 0,-20 -1,-40 -2,-60 -7,-121 -90,-228 -209,-228 -108,0 -196,87 -196,196 0,58 53,104 112,104 54,0 95,-48 95,-104 0,-52 -43,-95 -95,-95 -10,0 -20,2 -29,6 26,-38 68,-63 116,-63 h 3 c 93,2 153,92 159,190 1,19 2,37 2,56 0,30 -2,60 -4,90 -29,-5 -58,-8 -88,-8 -188,0 -333,173 -333,375 0,177 130,307 246,442 -20,62 -38,125 -46,190 -6,52 -7,104 -7,157 0,115 55,223 148,290 7,5 16,4 22,-1 71,-83 134,-244 134,-357 0,-143 -85,-255 -178,-364 21,-68 40,-137 57,-206 z m 84,-465 c 67,24 111,94 111,162 0,89 -65,178 -170,190 24,-115 46,-230 59,-352 z M 75,26 c 0,-134 129,-245 263,-245 28,0 55,2 81,6 C 405,-87 383,31 358,150 279,142 234,89 234,31 c 0,-43 25,-89 80,-121 5,-5 7,-11 7,-16 0,-12 -10,-23 -22,-23 -3,0 -6,1 -9,2 -81,43 -118,116 -118,186 0,89 58,175 161,198 -14,58 -29,116 -46,173 C 181,308 75,186 75,26 Z M 406,1042 C 307,995 244,894 244,785 c 0,-73 20,-132 38,-191 79,97 144,199 144,324 0,53 -4,76 -20,124 z"
       fill="currentColor"
       id="path134257" />
  </g>
  <a
     style="color:inherit"
     xlink:href="textedit://C:/Users/Javier/Documents/lilypond%20scores/ricci%20left%20hand%20examples.ly:973:4:5"
     id="a134265"
     transform="translate(-5.6906,-141.75246)">
    <g
       transform="translate(10.1072,151.2494)"
       id="g134263">
      <path
         transform="scale(0.0036,-0.0036)"
         d="m 29,39 -2,-64 v -11 c 0,-22 2,-43 5,-65 44,38 91,80 91,138 0,33 -13,66 -42,66 C 50,103 30,72 29,39 Z m -57,415 c 9,5 18,8 28,8 10,0 19,-3 28,-8 L 21,111 c 25,23 58,36 92,36 51,0 87,-49 87,-103 0,-79 -84,-117 -144,-169 -16,-14 -25,-41 -47,-41 -14,0 -25,13 -25,27 z"
         fill="currentColor"
         id="path134261" />
    </g>
  </a>
  <g
     transform="translate(6.4061,9.4969446)"
     id="g134269">
    <path
       transform="scale(0.0036,-0.0036)"
       d="m 151,475 c -29,0 -60,-8 -60,-33 0,-22 35,-25 35,-47 0,-31 -26,-57 -57,-57 -31,0 -57,26 -57,57 0,65 68,105 139,105 92,0 170,-33 170,-114 0,-42 -5,-81 -42,-98 -10,-5 -15,-14 -15,-23 0,-9 5,-18 15,-23 41,-19 57,-56 57,-102 C 336,48 256,0 156,0 77,0 0,43 0,115 c 0,36 29,65 65,65 36,0 65,-29 65,-65 0,-25 -40,-29 -40,-54 0,-28 34,-36 66,-36 48,0 61,59 61,115 v 22 c 0,50 -3,88 -49,88 H 90 c -10,0 -15,7 -15,15 0,8 5,15 15,15 h 78 c 46,0 49,40 49,92 v 14 c 0,53 -18,89 -66,89 z"
       fill="currentColor"
       id="path134267" />
  </g>
  <g
     transform="translate(6.2866,11.340645)"
     id="g134273">
    <path
       transform="scale(0.0036,-0.0036)"
       d="m 194,120 h 120 c 0,-49 29,-95 75,-95 8,0 12,-7 12,-13 C 401,6 397,0 389,0 344,0 299,13 254,13 209,13 164,0 119,0 c -8,0 -12,6 -12,12 0,6 4,13 12,13 46,0 75,46 75,95 z m 9,181 c 22,15 45,30 61,51 12,15 19,34 27,51 2,4 5,6 9,6 6,0 14,-6 14,-15 V 156 h 74 c 10,0 16,-8 16,-16 0,-8 -6,-15 -16,-15 h -74 v -5 H 194 v 5 H 31 c -24,0 -33,15 -33,24 0,3 1,6 2,7 80,92 134,205 134,327 0,11 8,20 17,17 24,-7 48,-13 73,-13 25,0 48,6 72,13 2,1 4,1 6,1 9,0 14,-7 14,-13 0,-2 0,-3 -2,-5 L 31,156 h 163 v 122 c 0,9 2,18 9,23 z"
       fill="currentColor"
       id="path134271" />
  </g>
  <g
     transform="translate(9.7834,9.4969446)"
     id="g134277">
    <rect
       x="-0.062799998"
       y="1.5114"
       width="0.12549999"
       height="2.5248001"
       ry="0.039999999"
       fill="currentColor"
       id="rect134275" />
  </g>
  <g
     transform="translate(11.3646,9.9469446)"
     id="g134281">
    <path
       transform="scale(0.0036,-0.0036)"
       d="M 0,0 C 0,31 25,56 56,56 87,56 111,31 111,0 111,-31 87,-56 56,-56 25,-56 0,-31 0,0 Z"
       fill="currentColor"
       id="path134279" />
  </g>
  <g
     transform="translate(9.7834,9.4969446)"
     id="g134285">
    <rect
       x="-0.062799998"
       y="0.67769998"
       width="0.12549999"
       height="2.6222999"
       ry="0.039999999"
       fill="currentColor"
       id="rect134283" />
  </g>
  <a
     style="color:inherit"
     xlink:href="textedit://C:/Users/Javier/Documents/lilypond%20scores/ricci%20left%20hand%20examples.ly:979:10:11"
     id="a134291"
     transform="translate(-5.6906,-141.75246)">
    <g
       transform="translate(18.0338,151.6994)"
       id="g134289">
      <path
         transform="scale(0.0036,-0.0036)"
         d="m 215,137 c 57,0 111,-29 111,-92 0,-71 -54,-120 -101,-148 -35,-21 -74,-34 -114,-34 -57,0 -111,29 -111,92 0,71 54,120 101,148 35,21 74,34 114,34 z"
         fill="currentColor"
         id="path134287" />
    </g>
  </a>
  <g
     transform="translate(12.406,9.4969446)"
     id="g134295">
    <rect
       x="-0.062799998"
       y="0.61140001"
       width="0.12549999"
       height="2.8474"
       ry="0.039999999"
       fill="currentColor"
       id="rect134293" />
  </g>
  <a
     style="color:inherit"
     xlink:href="textedit://C:/Users/Javier/Documents/lilypond%20scores/ricci%20left%20hand%20examples.ly:979:50:51"
     id="a134301"
     transform="translate(-5.6906,-141.75246)">
    <g
       transform="translate(36.1363,146.7056)"
       id="g134299">
      <path
         transform="scale(0.002,-0.002)"
         d="m 155,471 c -34,0 -70,-8 -70,-38 0,-19 31,-23 31,-42 0,-28 -23,-51 -51,-51 -28,0 -51,23 -51,51 0,67 68,109 141,109 93,0 174,-31 174,-113 0,-41 -6,-77 -42,-94 -11,-5 -17,-16 -17,-27 0,-11 6,-22 17,-27 40,-19 59,-53 59,-98 C 346,47 263,0 160,0 78,0 0,45 0,119 c 0,32 26,58 58,58 32,0 58,-26 58,-58 0,-22 -36,-26 -36,-48 0,-33 42,-42 80,-42 46,0 56,58 56,112 v 38 c 0,40 -4,69 -43,69 H 99 c -12,0 -18,9 -18,18 0,9 6,18 18,18 h 74 c 40,0 43,31 43,73 v 30 c 0,50 -16,84 -61,84 z"
         fill="currentColor"
         id="path134297" />
    </g>
  </a>
  <a
     style="color:inherit"
     xlink:href="textedit://C:/Users/Javier/Documents/lilypond%20scores/ricci%20left%20hand%20examples.ly:979:45:46"
     id="a134307"
     transform="translate(-5.6906,-141.75246)">
    <g
       transform="translate(33.2689,148.5494)"
       id="g134305">
      <path
         transform="scale(0.0036,-0.0036)"
         d="m 215,137 c 57,0 111,-29 111,-92 0,-71 -54,-120 -101,-148 -35,-21 -74,-34 -114,-34 -57,0 -111,29 -111,92 0,71 54,120 101,148 35,21 74,34 114,34 z"
         fill="currentColor"
         id="path134303" />
    </g>
  </a>
  <a
     style="color:inherit"
     xlink:href="textedit://C:/Users/Javier/Documents/lilypond%20scores/ricci%20left%20hand%20examples.ly:979:46:47"
     id="a134313"
     transform="translate(-5.6906,-141.75246)">
    <g
       transform="translate(33.4796,147.6056)"
       id="g134311">
      <path
         transform="scale(0.002,-0.002)"
         d="m 129,149 h 7 c 36,0 74,-13 111,-40 19,-14 40,-21 59,-21 22,0 40,10 46,31 2,7 7,11 13,11 7,0 15,-5 15,-14 v -5 C 361,40 296,0 234,0 196,0 159,15 133,47 121,62 105,69 89,69 60,69 32,48 29,13 28,4 22,0 15,0 8,0 0,5 0,14 c 0,173 233,163 233,341 0,56 -14,116 -62,116 -33,0 -66,-15 -66,-44 0,-24 31,-37 31,-61 0,-34 -27,-61 -61,-61 -34,0 -61,27 -61,61 0,78 74,134 157,134 98,0 191,-55 191,-145 C 362,211 227,199 129,149 Z"
         fill="currentColor"
         id="path134309" />
    </g>
  </a>
  <g
     transform="translate(27.6411,9.4969446)"
     id="g134317">
    <rect
       x="-0.062799998"
       y="-2.5386"
       width="0.12549999"
       height="2.9886"
       ry="0.039999999"
       fill="currentColor"
       id="rect134315" />
  </g>
  <a
     style="color:inherit"
     xlink:href="textedit://C:/Users/Javier/Documents/lilypond%20scores/ricci%20left%20hand%20examples.ly:979:49:50"
     id="a134323"
     transform="translate(-5.6906,-141.75246)">
    <g
       transform="translate(35.8915,147.6494)"
       id="g134321">
      <path
         transform="scale(0.0036,-0.0036)"
         d="m 215,137 c 57,0 111,-29 111,-92 0,-71 -54,-120 -101,-148 -35,-21 -74,-34 -114,-34 -57,0 -111,29 -111,92 0,71 54,120 101,148 35,21 74,34 114,34 z"
         fill="currentColor"
         id="path134319" />
    </g>
  </a>
  <a
     style="color:inherit"
     xlink:href="textedit://C:/Users/Javier/Documents/lilypond%20scores/ricci%20left%20hand%20examples.ly:979:24:25"
     id="a134329"
     transform="translate(-5.6906,-141.75246)">
    <g
       transform="translate(25.9014,148.5494)"
       id="g134327">
      <path
         transform="scale(0.0036,-0.0036)"
         d="m 215,137 c 57,0 111,-29 111,-92 0,-71 -54,-120 -101,-148 -35,-21 -74,-34 -114,-34 -57,0 -111,29 -111,92 0,71 54,120 101,148 35,21 74,34 114,34 z"
         fill="currentColor"
         id="path134325" />
    </g>
  </a>
  <g
     transform="translate(30.2636,9.4969446)"
     id="g134333">
    <rect
       x="-0.062799998"
       y="-3.4386001"
       width="0.12549999"
       height="3.6129"
       ry="0.039999999"
       fill="currentColor"
       id="rect134331" />
  </g>
  <a
     style="color:inherit"
     xlink:href="textedit://C:/Users/Javier/Documents/lilypond%20scores/ricci%20left%20hand%20examples.ly:981:6:7"
     id="a134339"
     transform="translate(-5.6906,-141.75246)">
    <g
       transform="translate(39.173,146.2994)"
       id="g134337">
      <path
         transform="scale(0.0036,-0.0036)"
         d="m 215,137 c 57,0 111,-29 111,-92 0,-71 -54,-120 -101,-148 -35,-21 -74,-34 -114,-34 -57,0 -111,29 -111,92 0,71 54,120 101,148 35,21 74,34 114,34 z"
         fill="currentColor"
         id="path134335" />
    </g>
  </a>
  <a
     style="color:inherit"
     xlink:href="textedit://C:/Users/Javier/Documents/lilypond%20scores/ricci%20left%20hand%20examples.ly:986:11:12"
     id="a134345"
     transform="translate(-5.6906,-141.75246)">
    <g
       transform="translate(39.173,151.6994)"
       id="g134343">
      <path
         transform="scale(0.0036,-0.0036)"
         d="m 312,64 c 0,24 -20,41 -41,41 -4,0 -8,-1 -12,-2 C 229,94 182,65 146,41 110,17 63,-13 43,-37 36,-45 33,-54 33,-64 c 0,-24 20,-41 41,-41 4,0 8,1 12,2 30,9 77,38 113,62 36,24 83,54 103,78 7,8 10,17 10,27 z m -53,73 c 48,0 86,-22 86,-74 0,-18 -4,-38 -10,-56 -12,-38 -30,-73 -63,-95 -53,-36 -113,-49 -186,-49 -48,0 -86,22 -86,74 0,18 4,38 10,56 12,38 31,73 64,95 53,36 112,49 185,49 z"
         fill="currentColor"
         id="path134341" />
    </g>
  </a>
  <g
     transform="translate(34.5922,9.4969446)"
     id="g134349">
    <rect
       x="-0.062799998"
       y="-7.0152998"
       width="0.12549999"
       height="1.9039"
       ry="0.039999999"
       fill="currentColor"
       id="rect134347" />
  </g>
  <g
     transform="translate(35.1263,9.9469446)"
     id="g134353">
    <path
       transform="scale(0.0036,-0.0036)"
       d="M 0,0 C 0,31 25,56 56,56 87,56 111,31 111,0 111,-31 87,-56 56,-56 25,-56 0,-31 0,0 Z"
       fill="currentColor"
       id="path134351" />
  </g>
  <a
     style="color:inherit"
     xlink:href="textedit://C:/Users/Javier/Documents/lilypond%20scores/ricci%20left%20hand%20examples.ly:979:28:29"
     id="a134359"
     transform="translate(-5.6906,-141.75246)">
    <g
       transform="translate(28.5239,147.6494)"
       id="g134357">
      <path
         transform="scale(0.0036,-0.0036)"
         d="m 215,137 c 57,0 111,-29 111,-92 0,-71 -54,-120 -101,-148 -35,-21 -74,-34 -114,-34 -57,0 -111,29 -111,92 0,71 54,120 101,148 35,21 74,34 114,34 z"
         fill="currentColor"
         id="path134355" />
    </g>
  </a>
  <g
     transform="translate(22.8961,9.4969446)"
     id="g134363">
    <rect
       x="-0.062799998"
       y="-3.4386001"
       width="0.12549999"
       height="3.6129"
       ry="0.039999999"
       fill="currentColor"
       id="rect134361" />
  </g>
  <a
     style="color:inherit"
     xlink:href="textedit://C:/Users/Javier/Documents/lilypond%20scores/ricci%20left%20hand%20examples.ly:979:41:42"
     id="a134369"
     transform="translate(-5.6906,-141.75246)">
    <g
       transform="translate(30.6464,149.4494)"
       id="g134367">
      <path
         transform="scale(0.0036,-0.0036)"
         d="m 215,137 c 57,0 111,-29 111,-92 0,-71 -54,-120 -101,-148 -35,-21 -74,-34 -114,-34 -57,0 -111,29 -111,92 0,71 54,120 101,148 35,21 74,34 114,34 z"
         fill="currentColor"
         id="path134365" />
    </g>
  </a>
  <g
     transform="translate(20.2735,9.4969446)"
     id="g134373">
    <rect
       x="-0.062799998"
       y="-2.5386"
       width="0.12549999"
       height="2.9886"
       ry="0.039999999"
       fill="currentColor"
       id="rect134371" />
  </g>
  <a
     style="color:inherit"
     xlink:href="textedit://C:/Users/Javier/Documents/lilypond%20scores/ricci%20left%20hand%20examples.ly:979:25:26"
     id="a134379"
     transform="translate(-5.6906,-141.75246)">
    <g
       transform="translate(26.1291,147.6056)"
       id="g134377">
      <path
         transform="scale(0.002,-0.002)"
         d="M 129,129 H 259 C 259,77 291,29 340,29 350,29 354,21 354,14 354,7 350,0 340,0 291,0 243,14 194,14 145,14 98,0 49,0 39,0 34,7 34,14 c 0,7 5,15 15,15 49,0 80,48 80,100 z M 0,250 129,500 c 3,7 13,3 21,0 14,-6 28,-14 44,-14 16,0 31,8 45,14 2,1 2,1 4,1 8,0 16,-9 16,-21 V 129 H 129 v 215 c 0,15 -11,23 -20,23 -5,0 -9,-2 -11,-7 L 32,233 c -4,-7 -9,-9 -15,-9 -9,0 -19,7 -19,17 0,3 0,6 2,9 z"
         fill="currentColor"
         id="path134375" />
    </g>
  </a>
  <a
     style="color:inherit"
     xlink:href="textedit://C:/Users/Javier/Documents/lilypond%20scores/ricci%20left%20hand%20examples.ly:979:42:43"
     id="a134385"
     transform="translate(-5.6906,-141.75246)">
    <g
       transform="translate(30.8742,148.5056)"
       id="g134383">
      <path
         transform="scale(0.002,-0.002)"
         d="M 129,129 H 259 C 259,77 291,29 340,29 350,29 354,21 354,14 354,7 350,0 340,0 291,0 243,14 194,14 145,14 98,0 49,0 39,0 34,7 34,14 c 0,7 5,15 15,15 49,0 80,48 80,100 z M 0,250 129,500 c 3,7 13,3 21,0 14,-6 28,-14 44,-14 16,0 31,8 45,14 2,1 2,1 4,1 8,0 16,-9 16,-21 V 129 H 129 v 215 c 0,15 -11,23 -20,23 -5,0 -9,-2 -11,-7 L 32,233 c -4,-7 -9,-9 -15,-9 -9,0 -19,7 -19,17 0,3 0,6 2,9 z"
         fill="currentColor"
         id="path134381" />
    </g>
  </a>
  <g
     transform="translate(25.0186,9.4969446)"
     id="g134389">
    <rect
       x="-0.062799998"
       y="-1.6386"
       width="0.12549999"
       height="2.3643"
       ry="0.039999999"
       fill="currentColor"
       id="rect134387" />
  </g>
</svg>
