<!-- <?xml version="1.0" encoding="UTF-8" standalone="no"?> -->
<svg
   version="1.2"
   width="190mm"
   height="19.547075mm"
   viewBox="0 0 108.1205 11.123365"
   id="svg178242"
   sodipodi:docname="ricci-pp16-18-1.svg"
   xmlns:inkscape="http://www.inkscape.org/namespaces/inkscape"
   xmlns:sodipodi="http://sodipodi.sourceforge.net/DTD/sodipodi-0.dtd"
   xmlns:xlink="http://www.w3.org/1999/xlink"
   xmlns="http://www.w3.org/2000/svg"
   xmlns:svg="http://www.w3.org/2000/svg">
  <defs
     id="defs178246" />
  <sodipodi:namedview
     id="namedview178244"
     pagecolor="#ffffff"
     bordercolor="#000000"
     borderopacity="0.25"
     inkscape:showpageshadow="2"
     inkscape:pageopacity="0.0"
     inkscape:pagecheckerboard="0"
     inkscape:deskcolor="#d1d1d1"
     inkscape:document-units="mm"
     showgrid="false" />
  <style
     type="text/css"
     id="style176332"><![CDATA[
tspan { white-space: pre; }
]]></style>
  <!-- Page: 1/2 -->
  <g
     transform="translate(3.1967416e-8,7.7184807)"
     id="g176336">
    <line
       stroke-linejoin="round"
       stroke-linecap="round"
       stroke-width="0.1034"
       stroke="currentColor"
       x1="0.0517"
       y1="0"
       x2="108.0688"
       y2="0"
       id="line176334" />
  </g>
  <g
     transform="translate(3.1967416e-8,6.6184807)"
     id="g176340">
    <line
       stroke-linejoin="round"
       stroke-linecap="round"
       stroke-width="0.1034"
       stroke="currentColor"
       x1="0.0517"
       y1="0"
       x2="108.0688"
       y2="0"
       id="line176338" />
  </g>
  <g
     transform="translate(3.1967416e-8,5.5184807)"
     id="g176344">
    <line
       stroke-linejoin="round"
       stroke-linecap="round"
       stroke-width="0.1034"
       stroke="currentColor"
       x1="0.0517"
       y1="0"
       x2="108.0688"
       y2="0"
       id="line176342" />
  </g>
  <g
     transform="translate(3.1967416e-8,4.4184807)"
     id="g176348">
    <line
       stroke-linejoin="round"
       stroke-linecap="round"
       stroke-width="0.1034"
       stroke="currentColor"
       x1="0.0517"
       y1="0"
       x2="108.0688"
       y2="0"
       id="line176346" />
  </g>
  <g
     transform="translate(3.1967416e-8,3.3184807)"
     id="g176352">
    <line
       stroke-linejoin="round"
       stroke-linecap="round"
       stroke-width="0.1034"
       stroke="currentColor"
       x1="0.0517"
       y1="0"
       x2="108.0688"
       y2="0"
       id="line176350" />
  </g>
  <g
     transform="translate(107.9239,5.5184807)"
     id="g176356">
    <rect
       x="0"
       y="-2.2"
       width="0.1965"
       height="4.4000001"
       ry="0.0000"
       fill="currentColor"
       id="rect176354" />
  </g>
  <g
     transform="translate(56.8946,5.5184807)"
     id="g176360">
    <rect
       x="0"
       y="-2.2"
       width="0.1965"
       height="4.4000001"
       ry="0.0000"
       fill="currentColor"
       id="rect176358" />
  </g>
  <g
     transform="translate(3.1967416e-8,8.8184807)"
     id="g176364">
    <rect
       x="99.332603"
       y="-0.1067"
       width="2.1536"
       height="0.21340001"
       ry="0.1067"
       fill="currentColor"
       id="rect176362" />
  </g>
  <g
     transform="translate(3.1967416e-8,2.2184807)"
     id="g176368">
    <rect
       x="59.865799"
       y="-0.1067"
       width="2.1536"
       height="0.21340001"
       ry="0.1067"
       fill="currentColor"
       id="rect176366" />
  </g>
  <g
     transform="translate(3.1967416e-8,2.2184807)"
     id="g176372">
    <rect
       x="48.803299"
       y="-0.1067"
       width="2.1536"
       height="0.21340001"
       ry="0.1067"
       fill="currentColor"
       id="rect176370" />
  </g>
  <g
     transform="translate(3.1967416e-8,8.8184807)"
     id="g176376">
    <rect
       x="8.4462004"
       y="-0.1067"
       width="2.1536"
       height="0.21340001"
       ry="0.1067"
       fill="currentColor"
       id="rect176374" />
  </g>
  <a
     style="color:inherit"
     xlink:href="textedit://C:/Users/Javier/Documents/lilypond%20scores/ricci-pp16-18.ly:19:24:25"
     id="a176382"
     transform="translate(-5.6906,-3.7609193)">
    <g
       transform="translate(81.4349,10.9294)"
       id="g176380">
      <path
         transform="scale(0.0044,-0.0044)"
         d="m 220,135 c 54,0 106,-27 106,-87 0,-71 -56,-120 -103,-148 -36,-21 -76,-35 -117,-35 -54,0 -106,27 -106,87 0,71 56,120 103,148 36,21 76,35 117,35 z"
         fill="currentColor"
         id="path176378" />
    </g>
  </a>
  <a
     style="color:inherit"
     xlink:href="textedit://C:/Users/Javier/Documents/lilypond%20scores/ricci-pp16-18.ly:19:27:28"
     id="a176388"
     transform="translate(-5.6906,-3.7609193)">
    <g
       transform="translate(81.4349,8.1794)"
       id="g176386">
      <path
         transform="scale(0.0044,-0.0044)"
         d="m 220,135 c 54,0 106,-27 106,-87 0,-71 -56,-120 -103,-148 -36,-21 -76,-35 -117,-35 -54,0 -106,27 -106,87 0,71 56,120 103,148 36,21 76,35 117,35 z"
         fill="currentColor"
         id="path176384" />
    </g>
  </a>
  <g
     transform="translate(77.1128,5.5184807)"
     id="g176392">
    <rect
       x="-0.067199998"
       y="-4.1820998"
       width="0.1345"
       height="5.6210999"
       ry="0.039999999"
       fill="currentColor"
       id="rect176390" />
  </g>
  <a
     style="color:inherit"
     xlink:href="textedit://C:/Users/Javier/Documents/lilypond%20scores/ricci-pp16-18.ly:19:34:35"
     id="a176398"
     transform="translate(-5.6906,-3.7609193)">
    <g
       transform="translate(89.4173,10.9294)"
       id="g176396">
      <path
         transform="scale(0.0044,-0.0044)"
         d="m 220,135 c 54,0 106,-27 106,-87 0,-71 -56,-120 -103,-148 -36,-21 -76,-35 -117,-35 -54,0 -106,27 -106,87 0,71 56,120 103,148 36,21 76,35 117,35 z"
         fill="currentColor"
         id="path176394" />
    </g>
  </a>
  <a
     style="color:inherit"
     xlink:href="textedit://C:/Users/Javier/Documents/lilypond%20scores/ricci-pp16-18.ly:19:36:37"
     id="a176404"
     transform="translate(-5.6906,-3.7609193)">
    <g
       transform="translate(89.4173,9.2794)"
       id="g176402">
      <path
         transform="scale(0.0044,-0.0044)"
         d="m 220,135 c 54,0 106,-27 106,-87 0,-71 -56,-120 -103,-148 -36,-21 -76,-35 -117,-35 -54,0 -106,27 -106,87 0,71 56,120 103,148 36,21 76,35 117,35 z"
         fill="currentColor"
         id="path176400" />
    </g>
  </a>
  <g
     transform="translate(85.0952,5.5184807)"
     id="g176408">
    <rect
       x="-0.067199998"
       y="-3.5179"
       width="0.1345"
       height="4.9568"
       ry="0.039999999"
       fill="currentColor"
       id="rect176406" />
  </g>
  <a
     style="color:inherit"
     xlink:href="textedit://C:/Users/Javier/Documents/lilypond%20scores/ricci-pp16-18.ly:18:14:15"
     id="a176414"
     transform="translate(-5.6906,-3.7609193)">
    <g
       transform="translate(15.7969,7.2917)"
       id="g176412">
      <polygon
         stroke-linejoin="round"
         stroke-linecap="round"
         stroke-width="0.08"
         fill="currentColor"
         stroke="currentColor"
         points="8.0769,-0.224 8.0769,0.224 0.04,0.224 0.04,-0.224 "
         id="polygon176410" />
    </g>
  </a>
  <a
     style="color:inherit"
     xlink:href="textedit://C:/Users/Javier/Documents/lilypond%20scores/ricci-pp16-18.ly:19:17:18"
     id="a176420"
     transform="translate(-5.6906,-3.7609193)">
    <g
       transform="translate(73.8977,8.1794)"
       id="g176418">
      <path
         transform="scale(0.0044,-0.0044)"
         d="m 220,135 c 54,0 106,-27 106,-87 0,-71 -56,-120 -103,-148 -36,-21 -76,-35 -117,-35 -54,0 -106,27 -106,87 0,71 56,120 103,148 36,21 76,35 117,35 z"
         fill="currentColor"
         id="path176416" />
    </g>
  </a>
  <a
     style="color:inherit"
     xlink:href="textedit://C:/Users/Javier/Documents/lilypond%20scores/ricci-pp16-18.ly:19:19:20"
     id="a176426"
     transform="translate(-5.6906,-3.7609193)">
    <g
       transform="translate(73.8977,7.0794)"
       id="g176424">
      <path
         transform="scale(0.0044,-0.0044)"
         d="m 220,135 c 54,0 106,-27 106,-87 0,-71 -56,-120 -103,-148 -36,-21 -76,-35 -117,-35 -54,0 -106,27 -106,87 0,71 56,120 103,148 36,21 76,35 117,35 z"
         fill="currentColor"
         id="path176422" />
    </g>
  </a>
  <g
     transform="translate(68.2743,5.5184807)"
     id="g176430">
    <rect
       x="-0.067199998"
       y="-1.989"
       width="0.1345"
       height="4.1890001"
       ry="0.039999999"
       fill="currentColor"
       id="rect176428" />
  </g>
  <a
     style="color:inherit"
     xlink:href="textedit://C:/Users/Javier/Documents/lilypond%20scores/ricci-pp16-18.ly:19:41:42"
     id="a176436"
     transform="translate(-5.6906,-3.7609193)">
    <g
       transform="translate(89.4173,9.2794)"
       id="g176434">
      <path
         stroke-width="0.0827"
         stroke-linejoin="round"
         stroke-linecap="round"
         stroke="currentColor"
         fill="currentColor"
         d="m 0.6525,2.796 c 2.1159,2.102 13.3592,3.6513 15.9648,2.2 v 0 C 14.0287,6.3244 2.7854,4.775 0.6525,2.796 Z"
         id="path176432" />
    </g>
  </a>
  <a
     style="color:inherit"
     xlink:href="textedit://C:/Users/Javier/Documents/lilypond%20scores/ricci-pp16-18.ly:19:48:49"
     id="a176442"
     transform="translate(-5.6906,-3.7609193)">
    <g
       transform="translate(98.701,7.2917)"
       id="g176440">
      <polygon
         stroke-linejoin="round"
         stroke-linecap="round"
         stroke-width="0.08"
         fill="currentColor"
         stroke="currentColor"
         points="8.0769,-0.224 8.0769,0.224 0.04,0.224 0.04,-0.224 "
         id="polygon176438" />
    </g>
  </a>
  <a
     style="color:inherit"
     xlink:href="textedit://C:/Users/Javier/Documents/lilypond%20scores/ricci-pp16-18.ly:19:30:31"
     id="a176448"
     transform="translate(-5.6906,-3.7609193)">
    <g
       transform="translate(82.7362,5.0917)"
       id="g176446">
      <polygon
         stroke-linejoin="round"
         stroke-linecap="round"
         stroke-width="0.08"
         fill="currentColor"
         stroke="currentColor"
         points="8.0769,0.4514 8.0769,0.8994 0.04,0.224 0.04,-0.224 "
         id="polygon176444" />
    </g>
  </a>
  <a
     style="color:inherit"
     xlink:href="textedit://C:/Users/Javier/Documents/lilypond%20scores/ricci-pp16-18.ly:19:14:15"
     id="a176454"
     transform="translate(-5.6906,-3.7609193)">
    <g
       transform="translate(65.9153,9.2794)"
       id="g176452">
      <path
         stroke-width="0.0827"
         stroke-linejoin="round"
         stroke-linecap="round"
         stroke="currentColor"
         fill="currentColor"
         d="m 0.7951,-4.996 c 2.6296,-1.3803 13.6764,0.4356 15.7258,2.585 v 0 C 14.4514,-4.438 3.4045,-6.2539 0.7951,-4.996 Z"
         id="path176450" />
    </g>
  </a>
  <a
     style="color:inherit"
     xlink:href="textedit://C:/Users/Javier/Documents/lilypond%20scores/ricci-pp16-18.ly:19:13:14"
     id="a176460"
     transform="translate(-5.6906,-3.7609193)">
    <g
       transform="translate(65.9153,11.4794)"
       id="g176458">
      <polygon
         stroke-linejoin="round"
         stroke-linecap="round"
         stroke-width="0.08"
         fill="currentColor"
         stroke="currentColor"
         points="8.0769,-0.224 8.0769,0.224 0.04,0.224 0.04,-0.224 "
         id="polygon176456" />
    </g>
  </a>
  <a
     style="color:inherit"
     xlink:href="textedit://C:/Users/Javier/Documents/lilypond%20scores/ricci-pp16-18.ly:18:49:50"
     id="a176466"
     transform="translate(-5.6906,-3.7609193)">
    <g
       transform="translate(46.8704,11.4794)"
       id="g176464">
      <polygon
         stroke-linejoin="round"
         stroke-linecap="round"
         stroke-width="0.08"
         fill="currentColor"
         stroke="currentColor"
         points="8.0769,-0.224 8.0769,0.224 0.04,0.224 0.04,-0.224 "
         id="polygon176462" />
    </g>
  </a>
  <a
     style="color:inherit"
     xlink:href="textedit://C:/Users/Javier/Documents/lilypond%20scores/ricci-pp16-18.ly:18:41:42"
     id="a176472"
     transform="translate(-5.6906,-3.7609193)">
    <g
       transform="translate(38.4428,9.2794)"
       id="g176470">
      <path
         stroke-width="0.0827"
         stroke-linejoin="round"
         stroke-linecap="round"
         stroke="currentColor"
         fill="currentColor"
         d="m 1.7357,-2.411 c 2.014,-2.1422 12.7072,-3.9474 15.3129,-2.585 v 0 c -2.585,-1.24 -13.2782,0.5651 -15.3129,2.585 z"
         id="path176468" />
    </g>
  </a>
  <a
     style="color:inherit"
     xlink:href="textedit://C:/Users/Javier/Documents/lilypond%20scores/ricci-pp16-18.ly:18:31:32"
     id="a176478"
     transform="translate(-5.6906,-3.7609193)">
    <g
       transform="translate(31.7617,5.7671)"
       id="g176476">
      <polygon
         stroke-linejoin="round"
         stroke-linecap="round"
         stroke-width="0.08"
         fill="currentColor"
         stroke="currentColor"
         points="8.0769,-0.8994 8.0769,-0.4514 0.04,0.224 0.04,-0.224 "
         id="polygon176474" />
    </g>
  </a>
  <a
     style="color:inherit"
     xlink:href="textedit://C:/Users/Javier/Documents/lilypond%20scores/ricci-pp16-18.ly:18:15:16"
     id="a176484"
     transform="translate(-5.6906,-3.7609193)">
    <g
       transform="translate(14.4957,9.2794)"
       id="g176482">
      <path
         stroke-width="0.0827"
         stroke-linejoin="round"
         stroke-linecap="round"
         stroke="currentColor"
         fill="currentColor"
         d="M 0.7832,4.996 C 3.3887,6.4473 14.6321,4.898 16.748,2.796 v 0 C 14.6151,4.775 3.3718,6.3244 0.7832,4.996 Z"
         id="path176480" />
    </g>
  </a>
  <g
     transform="translate(101.06,5.5184807)"
     id="g176488">
    <rect
       x="-0.067199998"
       y="-1.9877"
       width="0.1345"
       height="5.6266999"
       ry="0.039999999"
       fill="currentColor"
       id="rect176486" />
  </g>
  <a
     style="color:inherit"
     xlink:href="textedit://C:/Users/Javier/Documents/lilypond%20scores/ricci-pp16-18.ly:19:55:56"
     id="a176494"
     transform="translate(-5.6906,-3.7609193)">
    <g
       transform="translate(105.3821,10.9294)"
       id="g176492">
      <path
         transform="scale(0.0044,-0.0044)"
         d="m 220,135 c 54,0 106,-27 106,-87 0,-71 -56,-120 -103,-148 -36,-21 -76,-35 -117,-35 -54,0 -106,27 -106,87 0,71 56,120 103,148 36,21 76,35 117,35 z"
         fill="currentColor"
         id="path176490" />
    </g>
  </a>
  <a
     style="color:inherit"
     xlink:href="textedit://C:/Users/Javier/Documents/lilypond%20scores/ricci-pp16-18.ly:19:51:52"
     id="a176500"
     transform="translate(-5.6906,-3.7609193)">
    <g
       transform="translate(105.3821,13.1294)"
       id="g176498">
      <path
         transform="scale(0.0044,-0.0044)"
         d="m 220,135 c 54,0 106,-27 106,-87 0,-71 -56,-120 -103,-148 -36,-21 -76,-35 -117,-35 -54,0 -106,27 -106,87 0,71 56,120 103,148 36,21 76,35 117,35 z"
         fill="currentColor"
         id="path176496" />
    </g>
  </a>
  <g
     transform="translate(93.0776,5.5184807)"
     id="g176504">
    <rect
       x="-0.067199998"
       y="-1.9877"
       width="0.1345"
       height="4.5267"
       ry="0.039999999"
       fill="currentColor"
       id="rect176502" />
  </g>
  <a
     style="color:inherit"
     xlink:href="textedit://C:/Users/Javier/Documents/lilypond%20scores/ricci-pp16-18.ly:19:46:47"
     id="a176510"
     transform="translate(-5.6906,-3.7609193)">
    <g
       transform="translate(97.3997,10.9294)"
       id="g176508">
      <path
         transform="scale(0.0044,-0.0044)"
         d="m 220,135 c 54,0 106,-27 106,-87 0,-71 -56,-120 -103,-148 -36,-21 -76,-35 -117,-35 -54,0 -106,27 -106,87 0,71 56,120 103,148 36,21 76,35 117,35 z"
         fill="currentColor"
         id="path176506" />
    </g>
  </a>
  <a
     style="color:inherit"
     xlink:href="textedit://C:/Users/Javier/Documents/lilypond%20scores/ricci-pp16-18.ly:19:44:45"
     id="a176516"
     transform="translate(-5.6906,-3.7609193)">
    <g
       transform="translate(97.3997,12.0294)"
       id="g176514">
      <path
         transform="scale(0.0044,-0.0044)"
         d="m 220,135 c 54,0 106,-27 106,-87 0,-71 -56,-120 -103,-148 -36,-21 -76,-35 -117,-35 -54,0 -106,27 -106,87 0,71 56,120 103,148 36,21 76,35 117,35 z"
         fill="currentColor"
         id="path176512" />
    </g>
  </a>
  <a
     style="color:inherit"
     xlink:href="textedit://C:/Users/Javier/Documents/lilypond%20scores/ricci-pp16-18.ly:18:18:19"
     id="a176522"
     transform="translate(-5.6906,-3.7609193)">
    <g
       transform="translate(22.4781,12.0294)"
       id="g176520">
      <path
         transform="scale(0.0044,-0.0044)"
         d="m 220,135 c 54,0 106,-27 106,-87 0,-71 -56,-120 -103,-148 -36,-21 -76,-35 -117,-35 -54,0 -106,27 -106,87 0,71 56,120 103,148 36,21 76,35 117,35 z"
         fill="currentColor"
         id="path176518" />
    </g>
  </a>
  <a
     style="color:inherit"
     xlink:href="textedit://C:/Users/Javier/Documents/lilypond%20scores/ricci-pp16-18.ly:18:20:21"
     id="a176528"
     transform="translate(-5.6906,-3.7609193)">
    <g
       transform="translate(22.4781,10.9294)"
       id="g176526">
      <path
         transform="scale(0.0044,-0.0044)"
         d="m 220,135 c 54,0 106,-27 106,-87 0,-71 -56,-120 -103,-148 -36,-21 -76,-35 -117,-35 -54,0 -106,27 -106,87 0,71 56,120 103,148 36,21 76,35 117,35 z"
         fill="currentColor"
         id="path176524" />
    </g>
  </a>
  <g
     transform="translate(18.1559,5.5184807)"
     id="g176532">
    <rect
       x="-0.067199998"
       y="-1.9877"
       width="0.1345"
       height="4.5267"
       ry="0.039999999"
       fill="currentColor"
       id="rect176530" />
  </g>
  <a
     style="color:inherit"
     xlink:href="textedit://C:/Users/Javier/Documents/lilypond%20scores/ricci-pp16-18.ly:18:25:26"
     id="a176538"
     transform="translate(-5.6906,-3.7609193)">
    <g
       transform="translate(30.4605,10.9294)"
       id="g176536">
      <path
         transform="scale(0.0044,-0.0044)"
         d="m 220,135 c 54,0 106,-27 106,-87 0,-71 -56,-120 -103,-148 -36,-21 -76,-35 -117,-35 -54,0 -106,27 -106,87 0,71 56,120 103,148 36,21 76,35 117,35 z"
         fill="currentColor"
         id="path176534" />
    </g>
  </a>
  <a
     style="color:inherit"
     xlink:href="textedit://C:/Users/Javier/Documents/lilypond%20scores/ricci-pp16-18.ly:18:27:28"
     id="a176544"
     transform="translate(-5.6906,-3.7609193)">
    <g
       transform="translate(30.4605,9.2794)"
       id="g176542">
      <path
         transform="scale(0.0044,-0.0044)"
         d="m 220,135 c 54,0 106,-27 106,-87 0,-71 -56,-120 -103,-148 -36,-21 -76,-35 -117,-35 -54,0 -106,27 -106,87 0,71 56,120 103,148 36,21 76,35 117,35 z"
         fill="currentColor"
         id="path176540" />
    </g>
  </a>
  <a
     style="color:inherit"
     xlink:href="textedit://C:/Users/Javier/Documents/lilypond%20scores/ricci-pp16-18.ly:18:6:7"
     id="a176550"
     transform="translate(-5.6906,-3.7609193)">
    <g
       transform="translate(14.4957,13.1294)"
       id="g176548">
      <path
         transform="scale(0.0044,-0.0044)"
         d="m 220,135 c 54,0 106,-27 106,-87 0,-71 -56,-120 -103,-148 -36,-21 -76,-35 -117,-35 -54,0 -106,27 -106,87 0,71 56,120 103,148 36,21 76,35 117,35 z"
         fill="currentColor"
         id="path176546" />
    </g>
  </a>
  <a
     style="color:inherit"
     xlink:href="textedit://C:/Users/Javier/Documents/lilypond%20scores/ricci-pp16-18.ly:18:10:11"
     id="a176556"
     transform="translate(-5.6906,-3.7609193)">
    <g
       transform="translate(14.4957,10.9294)"
       id="g176554">
      <path
         transform="scale(0.0044,-0.0044)"
         d="m 220,135 c 54,0 106,-27 106,-87 0,-71 -56,-120 -103,-148 -36,-21 -76,-35 -117,-35 -54,0 -106,27 -106,87 0,71 56,120 103,148 36,21 76,35 117,35 z"
         fill="currentColor"
         id="path176552" />
    </g>
  </a>
  <g
     transform="translate(0.80000003,6.6184807)"
     id="g176560">
    <path
       transform="scale(0.0044,-0.0044)"
       d="m 267,-593 -1,-41 h -5 c -108,0 -196,88 -196,196 0,58 54,104 113,104 54,0 95,-48 95,-104 0,-52 -43,-95 -95,-95 -11,0 -23,3 -34,8 26,-40 69,-68 119,-68 z m 108,854 c 5,0 9,1 14,1 155,0 255,-128 255,-260 0,-76 -33,-154 -107,-209 -22,-17 -47,-28 -73,-36 3,-35 5,-71 5,-107 0,-19 -1,-38 -2,-57 -7,-119 -87,-224 -201,-227 l 1,41 c 93,2 154,93 160,192 1,18 1,36 1,54 0,31 -1,63 -4,94 -29,-5 -58,-8 -89,-8 -188,0 -333,172 -333,373 0,177 132,307 249,441 -19,63 -35,125 -43,190 -6,51 -7,103 -7,155 0,116 56,226 150,294 5,4 13,3 18,-1 70,-84 132,-245 132,-358 0,-143 -86,-255 -181,-364 20,-69 38,-138 55,-208 z m 85,-465 c 69,24 115,96 115,165 0,91 -68,182 -176,192 25,-117 47,-233 61,-357 z M 73,30 c 0,-136 130,-250 265,-250 28,0 55,2 82,6 C 406,-87 382,32 356,152 277,143 232,90 232,32 c 0,-44 26,-91 82,-123 5,-4 6,-10 6,-15 0,-11 -9,-21 -21,-21 -3,0 -5,1 -8,2 -80,43 -117,114 -117,184 0,88 58,173 159,196 -14,59 -30,119 -46,177 C 180,311 73,190 73,30 Z m 358,885 c 0,57 -4,80 -21,132 -99,-49 -162,-150 -162,-260 0,-75 17,-135 35,-197 81,97 148,199 148,325 z"
       fill="currentColor"
       id="path176558" />
  </g>
  <a
     style="color:inherit"
     xlink:href="textedit://C:/Users/Javier/Documents/lilypond%20scores/ricci-pp16-18.ly:17:5:6"
     id="a176570"
     transform="translate(-5.6906,-3.7609193)">
    <g
       transform="translate(10.1131,9.2794)"
       id="g176564">
      <path
         transform="scale(0.0044,-0.0044)"
         d="m 26,43 -1,-68 v -11 c 0,-22 0,-44 3,-66 46,38 95,80 95,139 0,34 -14,68 -44,68 C 48,105 27,76 26,43 Z m -40,-180 -12,598 c 8,5 17,6 26,6 9,0 18,-1 26,-6 L 19,113 c 25,20 57,32 90,32 52,0 91,-47 91,-101 0,-81 -88,-118 -150,-169 -15,-12 -22,-35 -42,-35 -12,0 -22,10 -22,23 z"
         fill="currentColor"
         id="path176562" />
    </g>
    <g
       transform="translate(11.1157,7.6294)"
       id="g176568">
      <path
         transform="scale(0.0044,-0.0044)"
         d="m 26,43 -1,-68 v -11 c 0,-22 0,-44 3,-66 46,38 95,80 95,139 0,34 -14,68 -44,68 C 48,105 27,76 26,43 Z m -40,-180 -12,598 c 8,5 17,6 26,6 9,0 18,-1 26,-6 L 19,113 c 25,20 57,32 90,32 52,0 91,-47 91,-101 0,-81 -88,-118 -150,-169 -15,-12 -22,-35 -42,-35 -12,0 -22,10 -22,23 z"
         fill="currentColor"
         id="path176566" />
    </g>
  </a>
  <g
     transform="translate(26.1383,5.5184807)"
     id="g176574">
    <rect
       x="-0.067199998"
       y="-3.5179"
       width="0.1345"
       height="4.9568"
       ry="0.039999999"
       fill="currentColor"
       id="rect176572" />
  </g>
  <g
     transform="translate(10.1735,5.5184807)"
     id="g176578">
    <rect
       x="-0.067199998"
       y="-1.9877"
       width="0.1345"
       height="5.6266999"
       ry="0.039999999"
       fill="currentColor"
       id="rect176576" />
  </g>
  <g
     transform="translate(49.2295,5.5184807)"
     id="g176582">
    <rect
       x="-0.067199998"
       y="-3.6389999"
       width="0.1345"
       height="5.8390002"
       ry="0.039999999"
       fill="currentColor"
       id="rect176580" />
  </g>
  <a
     style="color:inherit"
     xlink:href="textedit://C:/Users/Javier/Documents/lilypond%20scores/ricci-pp16-18.ly:18:47:48"
     id="a176588"
     transform="translate(-5.6906,-3.7609193)">
    <g
       transform="translate(46.8704,7.0794)"
       id="g176586">
      <path
         transform="scale(0.0044,-0.0044)"
         d="m 220,135 c 54,0 106,-27 106,-87 0,-71 -56,-120 -103,-148 -36,-21 -76,-35 -117,-35 -54,0 -106,27 -106,87 0,71 56,120 103,148 36,21 76,35 117,35 z"
         fill="currentColor"
         id="path176584" />
    </g>
  </a>
  <g
     transform="translate(41.2471,5.5184807)"
     id="g176592">
    <rect
       x="-0.067199998"
       y="-1.989"
       width="0.1345"
       height="4.1890001"
       ry="0.039999999"
       fill="currentColor"
       id="rect176590" />
  </g>
  <a
     style="color:inherit"
     xlink:href="textedit://C:/Users/Javier/Documents/lilypond%20scores/ricci-pp16-18.ly:18:52:53"
     id="a176598"
     transform="translate(-5.6906,-3.7609193)">
    <g
       transform="translate(54.8528,8.1794)"
       id="g176596">
      <path
         transform="scale(0.0044,-0.0044)"
         d="m 220,135 c 54,0 106,-27 106,-87 0,-71 -56,-120 -103,-148 -36,-21 -76,-35 -117,-35 -54,0 -106,27 -106,87 0,71 56,120 103,148 36,21 76,35 117,35 z"
         fill="currentColor"
         id="path176594" />
    </g>
  </a>
  <a
     style="color:inherit"
     xlink:href="textedit://C:/Users/Javier/Documents/lilypond%20scores/ricci-pp16-18.ly:18:54:55"
     id="a176604"
     transform="translate(-5.6906,-3.7609193)">
    <g
       transform="translate(54.8528,5.4294)"
       id="g176602">
      <path
         transform="scale(0.0044,-0.0044)"
         d="m 220,135 c 54,0 106,-27 106,-87 0,-71 -56,-120 -103,-148 -36,-21 -76,-35 -117,-35 -54,0 -106,27 -106,87 0,71 56,120 103,148 36,21 76,35 117,35 z"
         fill="currentColor"
         id="path176600" />
    </g>
  </a>
  <a
     style="color:inherit"
     xlink:href="textedit://C:/Users/Javier/Documents/lilypond%20scores/ricci-pp16-18.ly:19:6:7"
     id="a176610"
     transform="translate(-5.6906,-3.7609193)">
    <g
       transform="translate(65.9153,8.1794)"
       id="g176608">
      <path
         transform="scale(0.0044,-0.0044)"
         d="m 220,135 c 54,0 106,-27 106,-87 0,-71 -56,-120 -103,-148 -36,-21 -76,-35 -117,-35 -54,0 -106,27 -106,87 0,71 56,120 103,148 36,21 76,35 117,35 z"
         fill="currentColor"
         id="path176606" />
    </g>
  </a>
  <a
     style="color:inherit"
     xlink:href="textedit://C:/Users/Javier/Documents/lilypond%20scores/ricci-pp16-18.ly:19:8:9"
     id="a176616"
     transform="translate(-5.6906,-3.7609193)">
    <g
       transform="translate(65.9153,5.4294)"
       id="g176614">
      <path
         transform="scale(0.0044,-0.0044)"
         d="m 220,135 c 54,0 106,-27 106,-87 0,-71 -56,-120 -103,-148 -36,-21 -76,-35 -117,-35 -54,0 -106,27 -106,87 0,71 56,120 103,148 36,21 76,35 117,35 z"
         fill="currentColor"
         id="path176612" />
    </g>
  </a>
  <g
     transform="translate(60.2919,5.5184807)"
     id="g176620">
    <rect
       x="-0.067199998"
       y="-3.6389999"
       width="0.1345"
       height="5.8390002"
       ry="0.039999999"
       fill="currentColor"
       id="rect176618" />
  </g>
  <g
     transform="translate(34.1207,5.5184807)"
     id="g176624">
    <rect
       x="-0.067199998"
       y="-4.1820998"
       width="0.1345"
       height="5.6210999"
       ry="0.039999999"
       fill="currentColor"
       id="rect176622" />
  </g>
  <a
     style="color:inherit"
     xlink:href="textedit://C:/Users/Javier/Documents/lilypond%20scores/ricci-pp16-18.ly:18:35:36"
     id="a176630"
     transform="translate(-5.6906,-3.7609193)">
    <g
       transform="translate(38.4428,10.9294)"
       id="g176628">
      <path
         transform="scale(0.0044,-0.0044)"
         d="m 220,135 c 54,0 106,-27 106,-87 0,-71 -56,-120 -103,-148 -36,-21 -76,-35 -117,-35 -54,0 -106,27 -106,87 0,71 56,120 103,148 36,21 76,35 117,35 z"
         fill="currentColor"
         id="path176626" />
    </g>
  </a>
  <a
     style="color:inherit"
     xlink:href="textedit://C:/Users/Javier/Documents/lilypond%20scores/ricci-pp16-18.ly:18:37:38"
     id="a176636"
     transform="translate(-5.6906,-3.7609193)">
    <g
       transform="translate(38.4428,8.1794)"
       id="g176634">
      <path
         transform="scale(0.0044,-0.0044)"
         d="m 220,135 c 54,0 106,-27 106,-87 0,-71 -56,-120 -103,-148 -36,-21 -76,-35 -117,-35 -54,0 -106,27 -106,87 0,71 56,120 103,148 36,21 76,35 117,35 z"
         fill="currentColor"
         id="path176632" />
    </g>
  </a>
  <a
     style="color:inherit"
     xlink:href="textedit://C:/Users/Javier/Documents/lilypond%20scores/ricci-pp16-18.ly:18:44:45"
     id="a176642"
     transform="translate(-5.6906,-3.7609193)">
    <g
       transform="translate(46.8704,8.1794)"
       id="g176640">
      <path
         transform="scale(0.0044,-0.0044)"
         d="m 220,135 c 54,0 106,-27 106,-87 0,-71 -56,-120 -103,-148 -36,-21 -76,-35 -117,-35 -54,0 -106,27 -106,87 0,71 56,120 103,148 36,21 76,35 117,35 z"
         fill="currentColor"
         id="path176638" />
    </g>
  </a>
</svg>
