<!-- <?xml version="1.0" encoding="UTF-8" standalone="no"?> -->
<svg
   version="1.2"
   width="190mm"
   height="19.420715mm"
   viewBox="0 0 108.1205 11.051459"
   id="svg178242"
   sodipodi:docname="ricci-pp16-18-1.svg"
   xmlns:inkscape="http://www.inkscape.org/namespaces/inkscape"
   xmlns:sodipodi="http://sodipodi.sourceforge.net/DTD/sodipodi-0.dtd"
   xmlns:xlink="http://www.w3.org/1999/xlink"
   xmlns="http://www.w3.org/2000/svg"
   xmlns:svg="http://www.w3.org/2000/svg">
  <defs
     id="defs178246" />
  <sodipodi:namedview
     id="namedview178244"
     pagecolor="#ffffff"
     bordercolor="#000000"
     borderopacity="0.25"
     inkscape:showpageshadow="2"
     inkscape:pageopacity="0.0"
     inkscape:pagecheckerboard="0"
     inkscape:deskcolor="#d1d1d1"
     inkscape:document-units="mm"
     showgrid="false" />
  <style
     type="text/css"
     id="style176332"><![CDATA[
tspan { white-space: pre; }
]]></style>
  <!-- Page: 1/2 -->
  <g
     transform="translate(3.1967416e-8,7.4874566)"
     id="g176646">
    <line
       stroke-linejoin="round"
       stroke-linecap="round"
       stroke-width="0.1034"
       stroke="currentColor"
       x1="0.0517"
       y1="0"
       x2="108.0688"
       y2="0"
       id="line176644" />
  </g>
  <g
     transform="translate(3.1967416e-8,6.3874566)"
     id="g176650">
    <line
       stroke-linejoin="round"
       stroke-linecap="round"
       stroke-width="0.1034"
       stroke="currentColor"
       x1="0.0517"
       y1="0"
       x2="108.0688"
       y2="0"
       id="line176648" />
  </g>
  <g
     transform="translate(3.1967416e-8,5.2874566)"
     id="g176654">
    <line
       stroke-linejoin="round"
       stroke-linecap="round"
       stroke-width="0.1034"
       stroke="currentColor"
       x1="0.0517"
       y1="0"
       x2="108.0688"
       y2="0"
       id="line176652" />
  </g>
  <g
     transform="translate(3.1967416e-8,4.1874566)"
     id="g176658">
    <line
       stroke-linejoin="round"
       stroke-linecap="round"
       stroke-width="0.1034"
       stroke="currentColor"
       x1="0.0517"
       y1="0"
       x2="108.0688"
       y2="0"
       id="line176656" />
  </g>
  <g
     transform="translate(3.1967416e-8,3.0874566)"
     id="g176662">
    <line
       stroke-linejoin="round"
       stroke-linecap="round"
       stroke-width="0.1034"
       stroke="currentColor"
       x1="0.0517"
       y1="0"
       x2="108.0688"
       y2="0"
       id="line176660" />
  </g>
  <g
     transform="translate(3.1967416e-8,1.9874566)"
     id="g176666">
    <rect
       x="60.9207"
       y="-0.1067"
       width="2.1536"
       height="0.21340001"
       ry="0.1067"
       fill="currentColor"
       id="rect176664" />
  </g>
  <g
     transform="translate(3.1967416e-8,8.5874566)"
     id="g176670">
    <rect
       x="8.4462004"
       y="-0.1067"
       width="2.1536"
       height="0.21340001"
       ry="0.1067"
       fill="currentColor"
       id="rect176668" />
  </g>
  <g
     transform="translate(57.9494,5.2874566)"
     id="g176674">
    <rect
       x="0"
       y="-2.2"
       width="0.1965"
       height="4.4000001"
       ry="0.0000"
       fill="currentColor"
       id="rect176672" />
  </g>
  <g
     transform="translate(107.9239,5.2874566)"
     id="g176678">
    <rect
       x="0"
       y="-2.2"
       width="0.1965"
       height="4.4000001"
       ry="0.0000"
       fill="currentColor"
       id="rect176676" />
  </g>
  <a
     style="color:inherit"
     xlink:href="textedit://C:/Users/Javier/Documents/lilypond%20scores/ricci-pp16-18.ly:22:14:15"
     id="a176684"
     transform="translate(-5.6906,-30.348243)">
    <g
       transform="translate(90.1673,35.6357)"
       id="g176682">
      <path
         transform="scale(0.0044,-0.0044)"
         d="m 220,135 c 54,0 106,-27 106,-87 0,-71 -56,-120 -103,-148 -36,-21 -76,-35 -117,-35 -54,0 -106,27 -106,87 0,71 56,120 103,148 36,21 76,35 117,35 z"
         fill="currentColor"
         id="path176680" />
    </g>
  </a>
  <g
     transform="translate(84.5439,5.2874566)"
     id="g176688">
    <rect
       x="-0.067199998"
       y="0.211"
       width="0.1345"
       height="3.8828001"
       ry="0.039999999"
       fill="currentColor"
       id="rect176686" />
  </g>
  <a
     style="color:inherit"
     xlink:href="textedit://C:/Users/Javier/Documents/lilypond%20scores/ricci-pp16-18.ly:22:18:19"
     id="a176694"
     transform="translate(-5.6906,-30.348243)">
    <g
       transform="translate(97.8997,37.2857)"
       id="g176692">
      <path
         transform="scale(0.0044,-0.0044)"
         d="m 220,135 c 54,0 106,-27 106,-87 0,-71 -56,-120 -103,-148 -36,-21 -76,-35 -117,-35 -54,0 -106,27 -106,87 0,71 56,120 103,148 36,21 76,35 117,35 z"
         fill="currentColor"
         id="path176690" />
    </g>
  </a>
  <g
     transform="translate(92.2763,5.2874566)"
     id="g176698">
    <rect
       x="-0.067199998"
       y="1.8609999"
       width="0.1345"
       height="2.9328001"
       ry="0.039999999"
       fill="currentColor"
       id="rect176696" />
  </g>
  <g
     transform="translate(76.8116,5.2874566)"
     id="g176702">
    <rect
       x="-0.067199998"
       y="-0.889"
       width="0.1345"
       height="4.2828002"
       ry="0.039999999"
       fill="currentColor"
       id="rect176700" />
  </g>
  <a
     style="color:inherit"
     xlink:href="textedit://C:/Users/Javier/Documents/lilypond%20scores/ricci-pp16-18.ly:22:12:13"
     id="a176708"
     transform="translate(-5.6906,-30.348243)">
    <g
       transform="translate(82.4349,34.5357)"
       id="g176706">
      <path
         transform="scale(0.0044,-0.0044)"
         d="m 220,135 c 54,0 106,-27 106,-87 0,-71 -56,-120 -103,-148 -36,-21 -76,-35 -117,-35 -54,0 -106,27 -106,87 0,71 56,120 103,148 36,21 76,35 117,35 z"
         fill="currentColor"
         id="path176704" />
    </g>
  </a>
  <g
     transform="translate(69.0792,5.2874566)"
     id="g176712">
    <rect
       x="-0.067199998"
       y="-1.989"
       width="0.1345"
       height="4.6827998"
       ry="0.039999999"
       fill="currentColor"
       id="rect176710" />
  </g>
  <a
     style="color:inherit"
     xlink:href="textedit://C:/Users/Javier/Documents/lilypond%20scores/ricci-pp16-18.ly:22:10:11"
     id="a176718"
     transform="translate(-5.6906,-30.348243)">
    <g
       transform="translate(74.7025,33.4357)"
       id="g176716">
      <path
         transform="scale(0.0044,-0.0044)"
         d="m 220,135 c 54,0 106,-27 106,-87 0,-71 -56,-120 -103,-148 -36,-21 -76,-35 -117,-35 -54,0 -106,27 -106,87 0,71 56,120 103,148 36,21 76,35 117,35 z"
         fill="currentColor"
         id="path176714" />
    </g>
  </a>
  <a
     style="color:inherit"
     xlink:href="textedit://C:/Users/Javier/Documents/lilypond%20scores/ricci-pp16-18.ly:21:8:9"
     id="a176724"
     transform="translate(-5.6906,-30.348243)">
    <g
       transform="translate(14.4957,35.6357)"
       id="g176722">
      <path
         stroke-width="0.0827"
         stroke-linejoin="round"
         stroke-linecap="round"
         stroke="currentColor"
         fill="currentColor"
         d="M 0.7856,4.996 C 4.359,6.5806 38.9614,1.6335 41.9476,-0.889 v 0 C 38.9438,1.5106 4.3414,6.4578 0.7856,4.996 Z"
         id="path176720" />
    </g>
  </a>
  <g
     transform="translate(10.1063,3.9751566)"
     id="g176728">
    <polygon
       stroke-linejoin="round"
       stroke-linecap="round"
       stroke-width="0.08"
       fill="currentColor"
       stroke="currentColor"
       points="41.2564,-3.8617 41.2564,-3.4137 0.04,0.224 0.04,-0.224 "
       id="polygon176726" />
  </g>
  <a
     style="color:inherit"
     xlink:href="textedit://C:/Users/Javier/Documents/lilypond%20scores/ricci-pp16-18.ly:22:8:9"
     id="a176734"
     transform="translate(-5.6906,-30.348243)">
    <g
       transform="translate(66.9701,35.6357)"
       id="g176732">
      <path
         stroke-width="0.0827"
         stroke-linejoin="round"
         stroke-linecap="round"
         stroke="currentColor"
         fill="currentColor"
         d="m 0.7984,-4.996 c 3.5653,-1.4845 35.7911,4.0168 38.662,6.6 v 0 C 36.5686,-0.8569 4.3428,-6.3582 0.7984,-4.996 Z"
         id="path176730" />
    </g>
  </a>
  <g
     transform="translate(61.2795,7.2751566)"
     id="g176738">
    <polygon
       stroke-linejoin="round"
       stroke-linecap="round"
       stroke-width="0.08"
       fill="currentColor"
       stroke="currentColor"
       points="38.7564,3.2883 38.7564,3.7363 0.04,0.224 0.04,-0.224 "
       id="polygon176736" />
  </g>
  <a
     style="color:inherit"
     xlink:href="textedit://C:/Users/Javier/Documents/lilypond%20scores/ricci-pp16-18.ly:21:5:6"
     id="a176744"
     transform="translate(-5.6906,-30.348243)">
    <g
       transform="translate(14.4957,39.4857)"
       id="g176742">
      <path
         transform="scale(0.0044,-0.0044)"
         d="m 220,135 c 54,0 106,-27 106,-87 0,-71 -56,-120 -103,-148 -36,-21 -76,-35 -117,-35 -54,0 -106,27 -106,87 0,71 56,120 103,148 36,21 76,35 117,35 z"
         fill="currentColor"
         id="path176740" />
    </g>
  </a>
  <g
     transform="translate(10.1735,5.2874566)"
     id="g176748">
    <rect
       x="-0.067199998"
       y="-1.3182"
       width="0.1345"
       height="4.9572001"
       ry="0.039999999"
       fill="currentColor"
       id="rect176746" />
  </g>
  <a
     style="color:inherit"
     xlink:href="textedit://C:/Users/Javier/Documents/lilypond%20scores/ricci-pp16-18.ly:21:10:11"
     id="a176754"
     transform="translate(-5.6906,-30.348243)">
    <g
       transform="translate(22.7281,38.3857)"
       id="g176752">
      <path
         transform="scale(0.0044,-0.0044)"
         d="m 220,135 c 54,0 106,-27 106,-87 0,-71 -56,-120 -103,-148 -36,-21 -76,-35 -117,-35 -54,0 -106,27 -106,87 0,71 56,120 103,148 36,21 76,35 117,35 z"
         fill="currentColor"
         id="path176750" />
    </g>
  </a>
  <g
     transform="translate(18.4059,5.2874566)"
     id="g176758">
    <rect
       x="-0.067199998"
       y="-2.0434"
       width="0.1345"
       height="4.5823002"
       ry="0.039999999"
       fill="currentColor"
       id="rect176756" />
  </g>
  <a
     style="color:inherit"
     xlink:href="textedit://C:/Users/Javier/Documents/lilypond%20scores/ricci-pp16-18.ly:22:20:21"
     id="a176764"
     transform="translate(-5.6906,-30.348243)">
    <g
       transform="translate(105.6321,38.3857)"
       id="g176762">
      <path
         transform="scale(0.0044,-0.0044)"
         d="m 220,135 c 54,0 106,-27 106,-87 0,-71 -56,-120 -103,-148 -36,-21 -76,-35 -117,-35 -54,0 -106,27 -106,87 0,71 56,120 103,148 36,21 76,35 117,35 z"
         fill="currentColor"
         id="path176760" />
    </g>
  </a>
  <g
     transform="translate(100.0087,5.2874566)"
     id="g176768">
    <rect
       x="-0.067199998"
       y="2.961"
       width="0.1345"
       height="2.5329001"
       ry="0.039999999"
       fill="currentColor"
       id="rect176766" />
  </g>
  <g
     transform="translate(34.8707,5.2874566)"
     id="g176772">
    <rect
       x="-0.067199998"
       y="-3.4937"
       width="0.1345"
       height="3.2827001"
       ry="0.039999999"
       fill="currentColor"
       id="rect176770" />
  </g>
  <a
     style="color:inherit"
     xlink:href="textedit://C:/Users/Javier/Documents/lilypond%20scores/ricci-pp16-18.ly:21:14:15"
     id="a176778"
     transform="translate(-5.6906,-30.348243)">
    <g
       transform="translate(39.1928,35.6357)"
       id="g176776">
      <path
         transform="scale(0.0044,-0.0044)"
         d="m 220,135 c 54,0 106,-27 106,-87 0,-71 -56,-120 -103,-148 -36,-21 -76,-35 -117,-35 -54,0 -106,27 -106,87 0,71 56,120 103,148 36,21 76,35 117,35 z"
         fill="currentColor"
         id="path176774" />
    </g>
  </a>
  <g
     transform="translate(26.6383,5.2874566)"
     id="g176782">
    <rect
       x="-0.067199998"
       y="-2.7686"
       width="0.1345"
       height="4.2075"
       ry="0.039999999"
       fill="currentColor"
       id="rect176780" />
  </g>
  <a
     style="color:inherit"
     xlink:href="textedit://C:/Users/Javier/Documents/lilypond%20scores/ricci-pp16-18.ly:21:12:13"
     id="a176788"
     transform="translate(-5.6906,-30.348243)">
    <g
       transform="translate(30.9605,37.2857)"
       id="g176786">
      <path
         transform="scale(0.0044,-0.0044)"
         d="m 220,135 c 54,0 106,-27 106,-87 0,-71 -56,-120 -103,-148 -36,-21 -76,-35 -117,-35 -54,0 -106,27 -106,87 0,71 56,120 103,148 36,21 76,35 117,35 z"
         fill="currentColor"
         id="path176784" />
    </g>
  </a>
  <g
     transform="translate(4.4225,5.2874566)"
     id="g176792">
    <path
       transform="scale(0.0044,-0.0044)"
       d="m 26,43 -1,-68 v -11 c 0,-22 0,-44 3,-66 46,38 95,80 95,139 0,34 -14,68 -44,68 C 48,105 27,76 26,43 Z m -40,-180 -12,598 c 8,5 17,6 26,6 9,0 18,-1 26,-6 L 19,113 c 25,20 57,32 90,32 52,0 91,-47 91,-101 0,-81 -88,-118 -150,-169 -15,-12 -22,-35 -42,-35 -12,0 -22,10 -22,23 z"
       fill="currentColor"
       id="path176790" />
  </g>
  <g
     transform="translate(5.4251,3.6374566)"
     id="g176796">
    <path
       transform="scale(0.0044,-0.0044)"
       d="m 26,43 -1,-68 v -11 c 0,-22 0,-44 3,-66 46,38 95,80 95,139 0,34 -14,68 -44,68 C 48,105 27,76 26,43 Z m -40,-180 -12,598 c 8,5 17,6 26,6 9,0 18,-1 26,-6 L 19,113 c 25,20 57,32 90,32 52,0 91,-47 91,-101 0,-81 -88,-118 -150,-169 -15,-12 -22,-35 -42,-35 -12,0 -22,10 -22,23 z"
       fill="currentColor"
       id="path176794" />
  </g>
  <g
     transform="translate(0.80000003,6.3874566)"
     id="g176800">
    <path
       transform="scale(0.0044,-0.0044)"
       d="m 267,-593 -1,-41 h -5 c -108,0 -196,88 -196,196 0,58 54,104 113,104 54,0 95,-48 95,-104 0,-52 -43,-95 -95,-95 -11,0 -23,3 -34,8 26,-40 69,-68 119,-68 z m 108,854 c 5,0 9,1 14,1 155,0 255,-128 255,-260 0,-76 -33,-154 -107,-209 -22,-17 -47,-28 -73,-36 3,-35 5,-71 5,-107 0,-19 -1,-38 -2,-57 -7,-119 -87,-224 -201,-227 l 1,41 c 93,2 154,93 160,192 1,18 1,36 1,54 0,31 -1,63 -4,94 -29,-5 -58,-8 -89,-8 -188,0 -333,172 -333,373 0,177 132,307 249,441 -19,63 -35,125 -43,190 -6,51 -7,103 -7,155 0,116 56,226 150,294 5,4 13,3 18,-1 70,-84 132,-245 132,-358 0,-143 -86,-255 -181,-364 20,-69 38,-138 55,-208 z m 85,-465 c 69,24 115,96 115,165 0,91 -68,182 -176,192 25,-117 47,-233 61,-357 z M 73,30 c 0,-136 130,-250 265,-250 28,0 55,2 82,6 C 406,-87 382,32 356,152 277,143 232,90 232,32 c 0,-44 26,-91 82,-123 5,-4 6,-10 6,-15 0,-11 -9,-21 -21,-21 -3,0 -5,1 -8,2 -80,43 -117,114 -117,184 0,88 58,173 159,196 -14,59 -30,119 -46,177 C 180,311 73,190 73,30 Z m 358,885 c 0,57 -4,80 -21,132 -99,-49 -162,-150 -162,-260 0,-75 17,-135 35,-197 81,97 148,199 148,325 z"
       fill="currentColor"
       id="path176798" />
  </g>
  <g
     transform="translate(61.3468,5.2874566)"
     id="g176804">
    <rect
       x="-0.067199998"
       y="-3.6389999"
       width="0.1345"
       height="5.6328001"
       ry="0.039999999"
       fill="currentColor"
       id="rect176802" />
  </g>
  <a
     style="color:inherit"
     xlink:href="textedit://C:/Users/Javier/Documents/lilypond%20scores/ricci-pp16-18.ly:22:5:6"
     id="a176810"
     transform="translate(-5.6906,-30.348243)">
    <g
       transform="translate(66.9701,31.7857)"
       id="g176808">
      <path
         transform="scale(0.0044,-0.0044)"
         d="m 220,135 c 54,0 106,-27 106,-87 0,-71 -56,-120 -103,-148 -36,-21 -76,-35 -117,-35 -54,0 -106,27 -106,87 0,71 56,120 103,148 36,21 76,35 117,35 z"
         fill="currentColor"
         id="path176806" />
    </g>
  </a>
  <a
     style="color:inherit"
     xlink:href="textedit://C:/Users/Javier/Documents/lilypond%20scores/ricci-pp16-18.ly:21:18:19"
     id="a176816"
     transform="translate(-5.6906,-30.348243)">
    <g
       transform="translate(47.4252,34.5357)"
       id="g176814">
      <path
         transform="scale(0.0044,-0.0044)"
         d="m 220,135 c 54,0 106,-27 106,-87 0,-71 -56,-120 -103,-148 -36,-21 -76,-35 -117,-35 -54,0 -106,27 -106,87 0,71 56,120 103,148 36,21 76,35 117,35 z"
         fill="currentColor"
         id="path176812" />
    </g>
  </a>
  <a
     style="color:inherit"
     xlink:href="textedit://C:/Users/Javier/Documents/lilypond%20scores/ricci-pp16-18.ly:21:20:21"
     id="a176822"
     transform="translate(-5.6906,-30.348243)">
    <g
       transform="translate(55.6576,33.4357)"
       id="g176820">
      <path
         transform="scale(0.0044,-0.0044)"
         d="m 220,135 c 54,0 106,-27 106,-87 0,-71 -56,-120 -103,-148 -36,-21 -76,-35 -117,-35 -54,0 -106,27 -106,87 0,71 56,120 103,148 36,21 76,35 117,35 z"
         fill="currentColor"
         id="path176818" />
    </g>
  </a>
  <g
     transform="translate(43.1031,5.2874566)"
     id="g176826">
    <rect
       x="-0.067199998"
       y="-4.2189002"
       width="0.1345"
       height="2.9079001"
       ry="0.039999999"
       fill="currentColor"
       id="rect176824" />
  </g>
  <g
     transform="translate(51.3355,5.2874566)"
     id="g176830">
    <rect
       x="-0.067199998"
       y="-4.9440999"
       width="0.1345"
       height="2.533"
       ry="0.039999999"
       fill="currentColor"
       id="rect176828" />
  </g>
</svg>
