<!-- <?xml version="1.0" encoding="UTF-8" standalone="no"?> -->
<svg
   version="1.2"
   width="72.735466mm"
   height="32.923515mm"
   viewBox="0 0 41.390498 18.735298"
   id="svg189712"
   sodipodi:docname="ricci-pp16-18-2.svg"
   xmlns:inkscape="http://www.inkscape.org/namespaces/inkscape"
   xmlns:sodipodi="http://sodipodi.sourceforge.net/DTD/sodipodi-0.dtd"
   xmlns:xlink="http://www.w3.org/1999/xlink"
   xmlns="http://www.w3.org/2000/svg"
   xmlns:svg="http://www.w3.org/2000/svg">
  <defs
     id="defs189716" />
  <sodipodi:namedview
     id="namedview189714"
     pagecolor="#ffffff"
     bordercolor="#000000"
     borderopacity="0.25"
     inkscape:showpageshadow="2"
     inkscape:pageopacity="0.0"
     inkscape:pagecheckerboard="0"
     inkscape:deskcolor="#d1d1d1"
     inkscape:document-units="mm"
     showgrid="false" />
  <style
     type="text/css"
     id="style189292"><![CDATA[
tspan { white-space: pre; }
]]></style>
  <!-- Page: 2/2 -->
  <g
     transform="translate(3.1967416e-8,14.2836)"
     id="g189302">
    <line
       stroke-linejoin="round"
       stroke-linecap="round"
       stroke-width="0.1034"
       stroke="currentColor"
       x1="0.0517"
       y1="0"
       x2="41.338799"
       y2="0"
       id="line189300" />
  </g>
  <g
     transform="translate(3.1967416e-8,13.1836)"
     id="g189306">
    <line
       stroke-linejoin="round"
       stroke-linecap="round"
       stroke-width="0.1034"
       stroke="currentColor"
       x1="0.0517"
       y1="0"
       x2="41.338799"
       y2="0"
       id="line189304" />
  </g>
  <g
     transform="translate(3.1967416e-8,12.0836)"
     id="g189310">
    <line
       stroke-linejoin="round"
       stroke-linecap="round"
       stroke-width="0.1034"
       stroke="currentColor"
       x1="0.0517"
       y1="0"
       x2="41.338799"
       y2="0"
       id="line189308" />
  </g>
  <g
     transform="translate(3.1967416e-8,10.9836)"
     id="g189314">
    <line
       stroke-linejoin="round"
       stroke-linecap="round"
       stroke-width="0.1034"
       stroke="currentColor"
       x1="0.0517"
       y1="0"
       x2="41.338799"
       y2="0"
       id="line189312" />
  </g>
  <g
     transform="translate(3.1967416e-8,9.8836002)"
     id="g189318">
    <line
       stroke-linejoin="round"
       stroke-linecap="round"
       stroke-width="0.1034"
       stroke="currentColor"
       x1="0.0517"
       y1="0"
       x2="41.338799"
       y2="0"
       id="line189316" />
  </g>
  <g
     transform="translate(3.1967416e-8,15.3836)"
     id="g189322">
    <rect
       x="36.749401"
       y="-0.1067"
       width="2.1536"
       height="0.21340001"
       ry="0.1067"
       fill="currentColor"
       id="rect189320" />
  </g>
  <g
     transform="translate(3.1967416e-8,8.7836002)"
     id="g189326">
    <rect
       x="29.287399"
       y="-0.1067"
       width="2.1536"
       height="0.21340001"
       ry="0.1067"
       fill="currentColor"
       id="rect189324" />
  </g>
  <g
     transform="translate(3.1967416e-8,6.5836002)"
     id="g189330">
    <rect
       x="26.651699"
       y="-0.1067"
       width="2.1536"
       height="0.21340001"
       ry="0.1067"
       fill="currentColor"
       id="rect189328" />
  </g>
  <g
     transform="translate(3.1967416e-8,7.6836002)"
     id="g189334">
    <rect
       x="26.651699"
       y="-0.1067"
       width="2.1536"
       height="0.21340001"
       ry="0.1067"
       fill="currentColor"
       id="rect189332" />
  </g>
  <g
     transform="translate(3.1967416e-8,8.7836002)"
     id="g189338">
    <rect
       x="26.651699"
       y="-0.1067"
       width="2.1536"
       height="0.21340001"
       ry="0.1067"
       fill="currentColor"
       id="rect189336" />
  </g>
  <g
     transform="translate(3.1967416e-8,4.3836002)"
     id="g189342">
    <rect
       x="24.016001"
       y="-0.1067"
       width="2.1536"
       height="0.21340001"
       ry="0.1067"
       fill="currentColor"
       id="rect189340" />
  </g>
  <g
     transform="translate(3.1967416e-8,5.4836002)"
     id="g189346">
    <rect
       x="24.016001"
       y="-0.1067"
       width="2.1536"
       height="0.21340001"
       ry="0.1067"
       fill="currentColor"
       id="rect189344" />
  </g>
  <g
     transform="translate(3.1967416e-8,6.5836002)"
     id="g189350">
    <rect
       x="24.016001"
       y="-0.1067"
       width="2.1536"
       height="0.21340001"
       ry="0.1067"
       fill="currentColor"
       id="rect189348" />
  </g>
  <g
     transform="translate(3.1967416e-8,7.6836002)"
     id="g189354">
    <rect
       x="24.016001"
       y="-0.1067"
       width="2.1536"
       height="0.21340001"
       ry="0.1067"
       fill="currentColor"
       id="rect189352" />
  </g>
  <g
     transform="translate(3.1967416e-8,8.7836002)"
     id="g189358">
    <rect
       x="24.016001"
       y="-0.1067"
       width="2.1536"
       height="0.21340001"
       ry="0.1067"
       fill="currentColor"
       id="rect189356" />
  </g>
  <g
     transform="translate(3.1967416e-8,6.5836002)"
     id="g189362">
    <rect
       x="21.380301"
       y="-0.1067"
       width="2.1536"
       height="0.21340001"
       ry="0.1067"
       fill="currentColor"
       id="rect189360" />
  </g>
  <g
     transform="translate(3.1967416e-8,7.6836002)"
     id="g189366">
    <rect
       x="21.380301"
       y="-0.1067"
       width="2.1536"
       height="0.21340001"
       ry="0.1067"
       fill="currentColor"
       id="rect189364" />
  </g>
  <g
     transform="translate(3.1967416e-8,8.7836002)"
     id="g189370">
    <rect
       x="21.380301"
       y="-0.1067"
       width="2.1536"
       height="0.21340001"
       ry="0.1067"
       fill="currentColor"
       id="rect189368" />
  </g>
  <g
     transform="translate(3.1967416e-8,8.7836002)"
     id="g189374">
    <rect
       x="18.7446"
       y="-0.1067"
       width="2.1536"
       height="0.21340001"
       ry="0.1067"
       fill="currentColor"
       id="rect189372" />
  </g>
  <g
     transform="translate(3.1967416e-8,15.3836)"
     id="g189378">
    <rect
       x="10.8375"
       y="-0.1067"
       width="2.1536"
       height="0.21340001"
       ry="0.1067"
       fill="currentColor"
       id="rect189376" />
  </g>
  <g
     transform="translate(41.1939,12.0836)"
     id="g189382">
    <rect
       x="0"
       y="-2.2"
       width="0.1965"
       height="4.4000001"
       ry="0.0000"
       fill="currentColor"
       id="rect189380" />
  </g>
  <a
     style="color:inherit"
     xlink:href="textedit://C:/Users/Javier/Documents/lilypond%20scores/ricci-pp16-18.ly:58:14:15"
     id="a189388"
     transform="translate(-5.6906,-5.3583998)">
    <g
       transform="translate(32.9581,10.04)"
       id="g189386">
      <path
         transform="scale(0.0025,-0.0025)"
         d="m 125,147 h 10 c 35,0 73,-12 110,-39 19,-14 41,-22 60,-22 22,0 40,10 46,31 2,7 7,11 13,11 7,0 14,-6 14,-14 0,-1 -1,-3 -1,-4 C 358,40 295,0 233,0 195,0 159,15 133,47 121,62 104,69 88,69 59,69 31,48 28,13 27,4 21,0 14,0 7,0 0,5 0,14 c 0,174 233,163 233,341 0,57 -14,117 -63,117 -31,0 -61,-14 -61,-41 0,-25 32,-39 32,-64 0,-35 -28,-64 -63,-64 -35,0 -64,29 -64,64 0,78 74,133 156,133 98,0 191,-55 191,-145 C 361,210 223,198 125,147 Z"
         fill="currentColor"
         id="path189384" />
    </g>
  </a>
  <g
     transform="translate(27.0778,12.0836)"
     id="g189392">
    <rect
       x="-0.067199998"
       y="-5.8390002"
       width="0.1345"
       height="7.1753001"
       ry="0.039999999"
       fill="currentColor"
       id="rect189390" />
  </g>
  <a
     style="color:inherit"
     xlink:href="textedit://C:/Users/Javier/Documents/lilypond%20scores/ricci-pp16-18.ly:58:18:19"
     id="a189398"
     transform="translate(-5.6906,-5.3583998)">
    <g
       transform="translate(35.3369,15.242)"
       id="g189396">
      <path
         transform="scale(0.0044,-0.0044)"
         d="m 220,135 c 54,0 106,-27 106,-87 0,-71 -56,-120 -103,-148 -36,-21 -76,-35 -117,-35 -54,0 -106,27 -106,87 0,71 56,120 103,148 36,21 76,35 117,35 z"
         fill="currentColor"
         id="path189394" />
    </g>
  </a>
  <a
     style="color:inherit"
     xlink:href="textedit://C:/Users/Javier/Documents/lilypond%20scores/ricci-pp16-18.ly:58:20:21"
     id="a189404"
     transform="translate(-5.6906,-5.3583998)">
    <g
       transform="translate(35.3369,13.592)"
       id="g189402">
      <path
         transform="scale(0.0044,-0.0044)"
         d="m 220,135 c 54,0 106,-27 106,-87 0,-71 -56,-120 -103,-148 -36,-21 -76,-35 -117,-35 -54,0 -106,27 -106,87 0,71 56,120 103,148 36,21 76,35 117,35 z"
         fill="currentColor"
         id="path189400" />
    </g>
  </a>
  <a
     style="color:inherit"
     xlink:href="textedit://C:/Users/Javier/Documents/lilypond%20scores/ricci-pp16-18.ly:58:26:27"
     id="a189410"
     transform="translate(-5.6906,-5.3583998)">
    <g
       transform="translate(35.628,8.7034)"
       id="g189408">
      <path
         transform="scale(0.0025,-0.0025)"
         d="m 0,250 127,250 c 3,6 12,3 20,0 14,-6 28,-13 44,-13 16,0 30,7 44,13 1,1 4,1 5,1 8,0 15,-10 15,-21 V 127 c 0,-52 32,-99 80,-99 9,0 13,-7 13,-14 C 348,7 344,0 335,0 287,0 239,13 191,13 143,13 96,0 48,0 39,0 34,7 34,14 c 0,7 5,14 14,14 48,0 79,47 79,99 v 220 c 0,15 -10,22 -19,22 -5,0 -10,-1 -12,-6 L 31,234 c -3,-7 -9,-9 -15,-9 -9,0 -18,7 -18,17 0,3 1,5 2,8 z"
         fill="currentColor"
         id="path189406" />
    </g>
  </a>
  <a
     style="color:inherit"
     xlink:href="textedit://C:/Users/Javier/Documents/lilypond%20scores/ricci-pp16-18.ly:58:24:25"
     id="a189416"
     transform="translate(-5.6906,-5.3583998)">
    <g
       transform="translate(35.5938,10.4826)"
       id="g189414">
      <path
         transform="scale(0.0025,-0.0025)"
         d="m 125,147 h 10 c 35,0 73,-12 110,-39 19,-14 41,-22 60,-22 22,0 40,10 46,31 2,7 7,11 13,11 7,0 14,-6 14,-14 0,-1 -1,-3 -1,-4 C 358,40 295,0 233,0 195,0 159,15 133,47 121,62 104,69 88,69 59,69 31,48 28,13 27,4 21,0 14,0 7,0 0,5 0,14 c 0,174 233,163 233,341 0,57 -14,117 -63,117 -31,0 -61,-14 -61,-41 0,-25 32,-39 32,-64 0,-35 -28,-64 -63,-64 -35,0 -64,29 -64,64 0,78 74,133 156,133 98,0 191,-55 191,-145 C 361,210 223,198 125,147 Z"
         fill="currentColor"
         id="path189412" />
    </g>
  </a>
  <g
     transform="translate(29.7135,12.0836)"
     id="g189420">
    <rect
       x="-0.067199998"
       y="-3.6389999"
       width="0.1345"
       height="5.9176998"
       ry="0.039999999"
       fill="currentColor"
       id="rect189418" />
  </g>
  <a
     style="color:inherit"
     xlink:href="textedit://C:/Users/Javier/Documents/lilypond%20scores/ricci-pp16-18.ly:57:14:15"
     id="a189426"
     transform="translate(-5.6906,-5.3583998)">
    <g
       transform="translate(16.887,17.442)"
       id="g189424">
      <path
         stroke-width="0.0827"
         stroke-linejoin="round"
         stroke-linecap="round"
         stroke="currentColor"
         fill="currentColor"
         d="m 0.4356,0.504 c 0.4018,-1.8645 3.3731,-4.0345 5.2714,-3.85 v 0 C 3.8819,-3.4303 0.9106,-1.2602 0.4356,0.504 Z"
         id="path189422" />
    </g>
  </a>
  <a
     style="color:inherit"
     xlink:href="textedit://C:/Users/Javier/Documents/lilypond%20scores/ricci-pp16-18.ly:57:68:69"
     id="a189432"
     transform="translate(-5.6906,-5.3583998)">
    <g
       transform="translate(30.0655,13.592)"
       id="g189430">
      <path
         transform="scale(0.0044,-0.0044)"
         d="m 220,135 c 54,0 106,-27 106,-87 0,-71 -56,-120 -103,-148 -36,-21 -76,-35 -117,-35 -54,0 -106,27 -106,87 0,71 56,120 103,148 36,21 76,35 117,35 z"
         fill="currentColor"
         id="path189428" />
    </g>
  </a>
  <a
     style="color:inherit"
     xlink:href="textedit://C:/Users/Javier/Documents/lilypond%20scores/ricci-pp16-18.ly:57:72:73"
     id="a189438"
     transform="translate(-5.6906,-5.3583998)">
    <g
       transform="translate(30.0655,9.742)"
       id="g189436">
      <path
         transform="scale(0.0044,-0.0044)"
         d="m 220,135 c 54,0 106,-27 106,-87 0,-71 -56,-120 -103,-148 -36,-21 -76,-35 -117,-35 -54,0 -106,27 -106,87 0,71 56,120 103,148 36,21 76,35 117,35 z"
         fill="currentColor"
         id="path189434" />
    </g>
  </a>
  <a
     style="color:inherit"
     xlink:href="textedit://C:/Users/Javier/Documents/lilypond%20scores/ricci-pp16-18.ly:57:80:81"
     id="a189444"
     transform="translate(-5.6906,-5.3583998)">
    <g
       transform="translate(30.2712,6.6109)"
       id="g189442">
      <path
         transform="scale(0.0025,-0.0025)"
         d="m 199,287 c 23,15 47,31 64,53 12,16 19,33 28,51 2,4 7,7 11,7 7,0 15,-6 15,-17 V 160 h 78 c 12,0 17,-9 17,-18 0,-9 -5,-17 -17,-17 h -78 c 1,-51 32,-97 79,-97 9,0 14,-7 14,-14 C 410,7 405,0 396,0 348,0 301,13 253,13 205,13 158,0 110,0 101,0 96,7 96,14 c 0,7 5,14 14,14 47,0 78,46 79,97 H 35 c -28,0 -37,16 -37,27 0,3 1,6 2,8 78,89 126,201 126,320 0,11 7,20 16,20 h 3 c 25,-7 50,-13 76,-13 26,0 51,6 76,13 2,1 4,1 6,1 10,0 16,-7 16,-14 0,-2 0,-5 -2,-7 L 35,160 h 154 v 101 c 0,10 2,21 10,26 z"
         fill="currentColor"
         id="path189440" />
    </g>
  </a>
  <a
     style="color:inherit"
     xlink:href="textedit://C:/Users/Javier/Documents/lilypond%20scores/ricci-pp16-18.ly:57:78:79"
     id="a189450"
     transform="translate(-5.6906,-5.3583998)">
    <g
       transform="translate(30.3224,8.39)"
       id="g189448">
      <path
         transform="scale(0.0025,-0.0025)"
         d="m 125,147 h 10 c 35,0 73,-12 110,-39 19,-14 41,-22 60,-22 22,0 40,10 46,31 2,7 7,11 13,11 7,0 14,-6 14,-14 0,-1 -1,-3 -1,-4 C 358,40 295,0 233,0 195,0 159,15 133,47 121,62 104,69 88,69 59,69 31,48 28,13 27,4 21,0 14,0 7,0 0,5 0,14 c 0,174 233,163 233,341 0,57 -14,117 -63,117 -31,0 -61,-14 -61,-41 0,-25 32,-39 32,-64 0,-35 -28,-64 -63,-64 -35,0 -64,29 -64,64 0,78 74,133 156,133 98,0 191,-55 191,-145 C 361,210 223,198 125,147 Z"
         fill="currentColor"
         id="path189446" />
    </g>
  </a>
  <g
     transform="translate(24.4421,12.0836)"
     id="g189454">
    <rect
       x="-0.067199998"
       y="-7.4889998"
       width="0.1345"
       height="9.7101002"
       ry="0.039999999"
       fill="currentColor"
       id="rect189452" />
  </g>
  <a
     style="color:inherit"
     xlink:href="textedit://C:/Users/Javier/Documents/lilypond%20scores/ricci-pp16-18.ly:58:10:11"
     id="a189460"
     transform="translate(-5.6906,-5.3583998)">
    <g
       transform="translate(32.7012,11.392)"
       id="g189458">
      <path
         transform="scale(0.0044,-0.0044)"
         d="m 220,135 c 54,0 106,-27 106,-87 0,-71 -56,-120 -103,-148 -36,-21 -76,-35 -117,-35 -54,0 -106,27 -106,87 0,71 56,120 103,148 36,21 76,35 117,35 z"
         fill="currentColor"
         id="path189456" />
    </g>
  </a>
  <a
     style="color:inherit"
     xlink:href="textedit://C:/Users/Javier/Documents/lilypond%20scores/ricci-pp16-18.ly:58:6:7"
     id="a189466"
     transform="translate(-5.6906,-5.3583998)">
    <g
       transform="translate(32.7012,13.592)"
       id="g189464">
      <path
         transform="scale(0.0044,-0.0044)"
         d="m 220,135 c 54,0 106,-27 106,-87 0,-71 -56,-120 -103,-148 -36,-21 -76,-35 -117,-35 -54,0 -106,27 -106,87 0,71 56,120 103,148 36,21 76,35 117,35 z"
         fill="currentColor"
         id="path189462" />
    </g>
  </a>
  <g
     transform="translate(38.4767,12.0836)"
     id="g189470">
    <rect
       x="-0.067199998"
       y="-2.2"
       width="0.1345"
       height="5.8390002"
       ry="0.039999999"
       fill="currentColor"
       id="rect189468" />
  </g>
  <a
     style="color:inherit"
     xlink:href="textedit://C:/Users/Javier/Documents/lilypond%20scores/ricci-pp16-18.ly:58:56:57"
     id="a189476"
     transform="translate(-5.6906,-5.3583998)">
    <g
       transform="translate(42.7988,21.292)"
       id="g189474">
      <path
         transform="scale(0.0044,-0.0044)"
         d="m 220,135 c 54,0 106,-27 106,-87 0,-71 -56,-120 -103,-148 -36,-21 -76,-35 -117,-35 -54,0 -106,27 -106,87 0,71 56,120 103,148 36,21 76,35 117,35 z"
         fill="currentColor"
         id="path189472" />
    </g>
  </a>
  <a
     style="color:inherit"
     xlink:href="textedit://C:/Users/Javier/Documents/lilypond%20scores/ricci-pp16-18.ly:58:61:62"
     id="a189482"
     transform="translate(-5.6906,-5.3583998)">
    <g
       transform="translate(42.7988,19.092)"
       id="g189480">
      <path
         transform="scale(0.0044,-0.0044)"
         d="m 220,135 c 54,0 106,-27 106,-87 0,-71 -56,-120 -103,-148 -36,-21 -76,-35 -117,-35 -54,0 -106,27 -106,87 0,71 56,120 103,148 36,21 76,35 117,35 z"
         fill="currentColor"
         id="path189478" />
    </g>
  </a>
  <g
     transform="translate(27.0106,13.3958)"
     id="g189486">
    <polygon
       stroke-linejoin="round"
       stroke-linecap="round"
       stroke-width="0.08"
       fill="currentColor"
       stroke="currentColor"
       points="8.0016,2.6514 8.0016,3.0994 0.04,0.224 0.04,-0.224 "
       id="polygon189484" />
  </g>
  <a
     style="color:inherit"
     xlink:href="textedit://C:/Users/Javier/Documents/lilypond%20scores/ricci-pp16-18.ly:58:49:50"
     id="a189492"
     transform="translate(-5.6906,-5.3583998)">
    <g
       transform="translate(40.6083,17.442)"
       id="g189490">
      <path
         stroke-width="0.0827"
         stroke-linejoin="round"
         stroke-linecap="round"
         stroke="currentColor"
         fill="currentColor"
         d="m 1.0009,-1.4018 c 1.0442,-0.1645 2.0656,0.6816 2.1909,1.815 v 0 C 2.9873,-0.6246 1.966,-1.4707 1.0009,-1.4018 Z"
         id="path189488" />
    </g>
  </a>
  <g
     transform="translate(11.1964,18.4713)"
     id="g189496">
    <polygon
       stroke-linejoin="round"
       stroke-linecap="round"
       stroke-width="0.08"
       fill="currentColor"
       stroke="currentColor"
       points="13.273,-4.4117 13.273,-3.9637 0.04,0.224 0.04,-0.224 "
       id="polygon189494" />
  </g>
  <a
     style="color:inherit"
     xlink:href="textedit://C:/Users/Javier/Documents/lilypond%20scores/ricci-pp16-18.ly:58:13:14"
     id="a189502"
     transform="translate(-5.6906,-5.3583998)">
    <g
       transform="translate(32.7012,17.442)"
       id="g189500">
      <path
         stroke-width="0.0827"
         stroke-linejoin="round"
         stroke-linecap="round"
         stroke="currentColor"
         fill="currentColor"
         d="m 1.0001,-7.196 c 1.8984,-0.1845 4.8696,1.9855 5.2714,3.85 v 0 C 5.7965,-5.1102 2.8253,-7.2803 1.0001,-7.196 Z"
         id="path189498" />
    </g>
  </a>
  <a
     style="color:inherit"
     xlink:href="textedit://C:/Users/Javier/Documents/lilypond%20scores/ricci-pp16-18.ly:57:48:49"
     id="a189508"
     transform="translate(-5.6906,-5.3583998)">
    <g
       transform="translate(24.7941,17.442)"
       id="g189506">
      <path
         stroke-width="0.0827"
         stroke-linejoin="round"
         stroke-linecap="round"
         stroke="currentColor"
         fill="currentColor"
         d="m 0.4356,-4.996 c 0.4018,-1.8645 3.3731,-4.0345 5.2714,-3.85 v 0 c -1.8251,-0.0843 -4.7964,2.0858 -5.2714,3.85 z"
         id="path189504" />
    </g>
  </a>
  <a
     style="color:inherit"
     xlink:href="textedit://C:/Users/Javier/Documents/lilypond%20scores/ricci-pp16-18.ly:58:30:31"
     id="a189514"
     transform="translate(-5.6906,-5.3583998)">
    <g
       transform="translate(37.9726,17.442)"
       id="g189512">
      <path
         transform="scale(0.0044,-0.0044)"
         d="m 220,135 c 54,0 106,-27 106,-87 0,-71 -56,-120 -103,-148 -36,-21 -76,-35 -117,-35 -54,0 -106,27 -106,87 0,71 56,120 103,148 36,21 76,35 117,35 z"
         fill="currentColor"
         id="path189510" />
    </g>
  </a>
  <a
     style="color:inherit"
     xlink:href="textedit://C:/Users/Javier/Documents/lilypond%20scores/ricci-pp16-18.ly:58:35:36"
     id="a189520"
     transform="translate(-5.6906,-5.3583998)">
    <g
       transform="translate(37.9726,15.242)"
       id="g189518">
      <path
         transform="scale(0.0044,-0.0044)"
         d="m 220,135 c 54,0 106,-27 106,-87 0,-71 -56,-120 -103,-148 -36,-21 -76,-35 -117,-35 -54,0 -106,27 -106,87 0,71 56,120 103,148 36,21 76,35 117,35 z"
         fill="currentColor"
         id="path189516" />
    </g>
  </a>
  <a
     style="color:inherit"
     xlink:href="textedit://C:/Users/Javier/Documents/lilypond%20scores/ricci-pp16-18.ly:58:39:40"
     id="a189526"
     transform="translate(-5.6906,-5.3583998)">
    <g
       transform="translate(38.2295,12.5145)"
       id="g189524">
      <path
         transform="scale(0.0025,-0.0025)"
         d="m 125,147 h 10 c 35,0 73,-12 110,-39 19,-14 41,-22 60,-22 22,0 40,10 46,31 2,7 7,11 13,11 7,0 14,-6 14,-14 0,-1 -1,-3 -1,-4 C 358,40 295,0 233,0 195,0 159,15 133,47 121,62 104,69 88,69 59,69 31,48 28,13 27,4 21,0 14,0 7,0 0,5 0,14 c 0,174 233,163 233,341 0,57 -14,117 -63,117 -31,0 -61,-14 -61,-41 0,-25 32,-39 32,-64 0,-35 -28,-64 -63,-64 -35,0 -64,29 -64,64 0,78 74,133 156,133 98,0 191,-55 191,-145 C 361,210 223,198 125,147 Z"
         fill="currentColor"
         id="path189522" />
    </g>
  </a>
  <g
     transform="translate(32.3492,12.0836)"
     id="g189530">
    <rect
       x="-0.067199998"
       y="-1.989"
       width="0.1345"
       height="5.2101998"
       ry="0.039999999"
       fill="currentColor"
       id="rect189528" />
  </g>
  <a
     style="color:inherit"
     xlink:href="textedit://C:/Users/Javier/Documents/lilypond%20scores/ricci-pp16-18.ly:58:43:44"
     id="a189536"
     transform="translate(-5.6906,-5.3583998)">
    <g
       transform="translate(40.6083,19.092)"
       id="g189534">
      <path
         transform="scale(0.0044,-0.0044)"
         d="m 220,135 c 54,0 106,-27 106,-87 0,-71 -56,-120 -103,-148 -36,-21 -76,-35 -117,-35 -54,0 -106,27 -106,87 0,71 56,120 103,148 36,21 76,35 117,35 z"
         fill="currentColor"
         id="path189532" />
    </g>
  </a>
  <a
     style="color:inherit"
     xlink:href="textedit://C:/Users/Javier/Documents/lilypond%20scores/ricci-pp16-18.ly:58:45:46"
     id="a189542"
     transform="translate(-5.6906,-5.3583998)">
    <g
       transform="translate(40.6083,17.442)"
       id="g189540">
      <path
         transform="scale(0.0044,-0.0044)"
         d="m 220,135 c 54,0 106,-27 106,-87 0,-71 -56,-120 -103,-148 -36,-21 -76,-35 -117,-35 -54,0 -106,27 -106,87 0,71 56,120 103,148 36,21 76,35 117,35 z"
         fill="currentColor"
         id="path189538" />
    </g>
  </a>
  <a
     style="color:inherit"
     xlink:href="textedit://C:/Users/Javier/Documents/lilypond%20scores/ricci-pp16-18.ly:58:52:53"
     id="a189548"
     transform="translate(-5.6906,-5.3583998)">
    <g
       transform="translate(40.8652,12.8269)"
       id="g189546">
      <path
         transform="scale(0.0025,-0.0025)"
         d="m 125,147 h 10 c 35,0 73,-12 110,-39 19,-14 41,-22 60,-22 22,0 40,10 46,31 2,7 7,11 13,11 7,0 14,-6 14,-14 0,-1 -1,-3 -1,-4 C 358,40 295,0 233,0 195,0 159,15 133,47 121,62 104,69 88,69 59,69 31,48 28,13 27,4 21,0 14,0 7,0 0,5 0,14 c 0,174 233,163 233,341 0,57 -14,117 -63,117 -31,0 -61,-14 -61,-41 0,-25 32,-39 32,-64 0,-35 -28,-64 -63,-64 -35,0 -64,29 -64,64 0,78 74,133 156,133 98,0 191,-55 191,-145 C 361,210 223,198 125,147 Z"
         fill="currentColor"
         id="path189544" />
    </g>
  </a>
  <a
     style="color:inherit"
     xlink:href="textedit://C:/Users/Javier/Documents/lilypond%20scores/ricci-pp16-18.ly:58:50:51"
     id="a189554"
     transform="translate(-5.6906,-5.3583998)">
    <g
       transform="translate(40.8994,14.6402)"
       id="g189552">
      <path
         transform="scale(0.0025,-0.0025)"
         d="m 0,250 127,250 c 3,6 12,3 20,0 14,-6 28,-13 44,-13 16,0 30,7 44,13 1,1 4,1 5,1 8,0 15,-10 15,-21 V 127 c 0,-52 32,-99 80,-99 9,0 13,-7 13,-14 C 348,7 344,0 335,0 287,0 239,13 191,13 143,13 96,0 48,0 39,0 34,7 34,14 c 0,7 5,14 14,14 48,0 79,47 79,99 v 220 c 0,15 -10,22 -19,22 -5,0 -10,-1 -12,-6 L 31,234 c -3,-7 -9,-9 -15,-9 -9,0 -18,7 -18,17 0,3 1,5 2,8 z"
         fill="currentColor"
         id="path189550" />
    </g>
  </a>
  <g
     transform="translate(34.9849,12.0836)"
     id="g189558">
    <rect
       x="-0.067199998"
       y="0.211"
       width="0.1345"
       height="3.9526"
       ry="0.039999999"
       fill="currentColor"
       id="rect189556" />
  </g>
  <a
     style="color:inherit"
     xlink:href="textedit://C:/Users/Javier/Documents/lilypond%20scores/ricci-pp16-18.ly:57:17:18"
     id="a189564"
     transform="translate(-5.6906,-5.3583998)">
    <g
       transform="translate(19.5227,19.092)"
       id="g189562">
      <path
         transform="scale(0.0044,-0.0044)"
         d="m 220,135 c 54,0 106,-27 106,-87 0,-71 -56,-120 -103,-148 -36,-21 -76,-35 -117,-35 -54,0 -106,27 -106,87 0,71 56,120 103,148 36,21 76,35 117,35 z"
         fill="currentColor"
         id="path189560" />
    </g>
  </a>
  <a
     style="color:inherit"
     xlink:href="textedit://C:/Users/Javier/Documents/lilypond%20scores/ricci-pp16-18.ly:57:20:21"
     id="a189570"
     transform="translate(-5.6906,-5.3583998)">
    <g
       transform="translate(19.5227,17.442)"
       id="g189568">
      <path
         transform="scale(0.0044,-0.0044)"
         d="m 220,135 c 54,0 106,-27 106,-87 0,-71 -56,-120 -103,-148 -36,-21 -76,-35 -117,-35 -54,0 -106,27 -106,87 0,71 56,120 103,148 36,21 76,35 117,35 z"
         fill="currentColor"
         id="path189566" />
    </g>
  </a>
  <g
     transform="translate(13.8993,12.0836)"
     id="g189574">
    <rect
       x="-0.067199998"
       y="0.211"
       width="0.1345"
       height="5.3263998"
       ry="0.039999999"
       fill="currentColor"
       id="rect189572" />
  </g>
  <a
     style="color:inherit"
     xlink:href="textedit://C:/Users/Javier/Documents/lilypond%20scores/ricci-pp16-18.ly:57:26:27"
     id="a189580"
     transform="translate(-5.6906,-5.3583998)">
    <g
       transform="translate(22.1584,17.442)"
       id="g189578">
      <path
         transform="scale(0.0044,-0.0044)"
         d="m 220,135 c 54,0 106,-27 106,-87 0,-71 -56,-120 -103,-148 -36,-21 -76,-35 -117,-35 -54,0 -106,27 -106,87 0,71 56,120 103,148 36,21 76,35 117,35 z"
         fill="currentColor"
         id="path189576" />
    </g>
  </a>
  <a
     style="color:inherit"
     xlink:href="textedit://C:/Users/Javier/Documents/lilypond%20scores/ricci-pp16-18.ly:57:30:31"
     id="a189586"
     transform="translate(-5.6906,-5.3583998)">
    <g
       transform="translate(22.1584,15.242)"
       id="g189584">
      <path
         transform="scale(0.0044,-0.0044)"
         d="m 220,135 c 54,0 106,-27 106,-87 0,-71 -56,-120 -103,-148 -36,-21 -76,-35 -117,-35 -54,0 -106,27 -106,87 0,71 56,120 103,148 36,21 76,35 117,35 z"
         fill="currentColor"
         id="path189582" />
    </g>
  </a>
  <a
     style="color:inherit"
     xlink:href="textedit://C:/Users/Javier/Documents/lilypond%20scores/ricci-pp16-18.ly:57:34:35"
     id="a189592"
     transform="translate(-5.6906,-5.3583998)">
    <g
       transform="translate(22.4153,13.89)"
       id="g189590">
      <path
         transform="scale(0.0025,-0.0025)"
         d="m 125,147 h 10 c 35,0 73,-12 110,-39 19,-14 41,-22 60,-22 22,0 40,10 46,31 2,7 7,11 13,11 7,0 14,-6 14,-14 0,-1 -1,-3 -1,-4 C 358,40 295,0 233,0 195,0 159,15 133,47 121,62 104,69 88,69 59,69 31,48 28,13 27,4 21,0 14,0 7,0 0,5 0,14 c 0,174 233,163 233,341 0,57 -14,117 -63,117 -31,0 -61,-14 -61,-41 0,-25 32,-39 32,-64 0,-35 -28,-64 -63,-64 -35,0 -64,29 -64,64 0,78 74,133 156,133 98,0 191,-55 191,-145 C 361,210 223,198 125,147 Z"
         fill="currentColor"
         id="path189588" />
    </g>
  </a>
  <g
     transform="translate(16.535,12.0836)"
     id="g189596">
    <rect
       x="-0.067199998"
       y="-1.989"
       width="0.1345"
       height="6.6974001"
       ry="0.039999999"
       fill="currentColor"
       id="rect189594" />
  </g>
  <g
     transform="translate(7.5916,12.0836)"
     id="g189600">
    <path
       transform="scale(0.0044,-0.0044)"
       d="m 168,256 c -54,0 -55,-49 -55,-112 v -5 -5 c 0,-63 1,-112 55,-112 57,0 63,51 63,117 0,66 -6,117 -63,117 z m -55,8 c 18,7 36,14 55,14 100,0 169,-45 169,-139 C 337,45 268,0 168,0 56,0 0,125 0,250 c 0,128 71,250 188,250 70,0 137,-38 137,-102 0,-36 -29,-66 -65,-66 -36,0 -66,30 -66,66 0,24 39,25 39,49 0,20 -22,31 -45,31 -68,0 -76,-68 -76,-145 0,-23 1,-46 1,-69 z"
       fill="currentColor"
       id="path189598" />
  </g>
  <g
     transform="translate(7.4551,14.3029)"
     id="g189604">
    <path
       transform="scale(0.0044,-0.0044)"
       d="m 198,113 h 113 c 0,-47 28,-91 71,-91 7,0 11,-5 11,-11 C 393,5 389,0 382,0 339,0 298,13 255,13 212,13 170,0 127,0 c -7,0 -11,5 -11,11 0,6 4,11 11,11 43,0 71,44 71,91 z m 8,199 c 22,14 44,28 59,49 11,15 17,33 25,50 4,10 21,6 21,-8 V 153 h 71 c 9,0 14,-7 14,-14 0,-7 -5,-14 -14,-14 H 311 V 113 H 198 v 12 H 28 c -22,0 -30,13 -30,22 0,2 1,5 2,6 81,94 141,207 141,331 0,10 8,19 16,16 22,-7 45,-13 69,-13 24,0 47,6 69,13 13,4 22,-9 16,-16 L 28,153 h 170 v 138 c 0,8 1,17 8,21 z"
       fill="currentColor"
       id="path189602" />
  </g>
  <a
     style="color:inherit"
     xlink:href="textedit://C:/Users/Javier/Documents/lilypond%20scores/ricci-pp16-18.ly:57:6:7"
     id="a189610"
     transform="translate(-5.6906,-5.3583998)">
    <g
       transform="translate(16.887,21.292)"
       id="g189608">
      <path
         transform="scale(0.0044,-0.0044)"
         d="m 220,135 c 54,0 106,-27 106,-87 0,-71 -56,-120 -103,-148 -36,-21 -76,-35 -117,-35 -54,0 -106,27 -106,87 0,71 56,120 103,148 36,21 76,35 117,35 z"
         fill="currentColor"
         id="path189606" />
    </g>
  </a>
  <a
     style="color:inherit"
     xlink:href="textedit://C:/Users/Javier/Documents/lilypond%20scores/ricci-pp16-18.ly:57:10:11"
     id="a189616"
     transform="translate(-5.6906,-5.3583998)">
    <g
       transform="translate(16.887,19.092)"
       id="g189614">
      <path
         transform="scale(0.0044,-0.0044)"
         d="m 220,135 c 54,0 106,-27 106,-87 0,-71 -56,-120 -103,-148 -36,-21 -76,-35 -117,-35 -54,0 -106,27 -106,87 0,71 56,120 103,148 36,21 76,35 117,35 z"
         fill="currentColor"
         id="path189612" />
    </g>
  </a>
  <g
     transform="translate(0.80000003,13.1836)"
     id="g189620">
    <path
       transform="scale(0.0044,-0.0044)"
       d="m 267,-593 -1,-41 h -5 c -108,0 -196,88 -196,196 0,58 54,104 113,104 54,0 95,-48 95,-104 0,-52 -43,-95 -95,-95 -11,0 -23,3 -34,8 26,-40 69,-68 119,-68 z m 108,854 c 5,0 9,1 14,1 155,0 255,-128 255,-260 0,-76 -33,-154 -107,-209 -22,-17 -47,-28 -73,-36 3,-35 5,-71 5,-107 0,-19 -1,-38 -2,-57 -7,-119 -87,-224 -201,-227 l 1,41 c 93,2 154,93 160,192 1,18 1,36 1,54 0,31 -1,63 -4,94 -29,-5 -58,-8 -89,-8 -188,0 -333,172 -333,373 0,177 132,307 249,441 -19,63 -35,125 -43,190 -6,51 -7,103 -7,155 0,116 56,226 150,294 5,4 13,3 18,-1 70,-84 132,-245 132,-358 0,-143 -86,-255 -181,-364 20,-69 38,-138 55,-208 z m 85,-465 c 69,24 115,96 115,165 0,91 -68,182 -176,192 25,-117 47,-233 61,-357 z M 73,30 c 0,-136 130,-250 265,-250 28,0 55,2 82,6 C 406,-87 382,32 356,152 277,143 232,90 232,32 c 0,-44 26,-91 82,-123 5,-4 6,-10 6,-15 0,-11 -9,-21 -21,-21 -3,0 -5,1 -8,2 -80,43 -117,114 -117,184 0,88 58,173 159,196 -14,59 -30,119 -46,177 C 180,311 73,190 73,30 Z m 358,885 c 0,57 -4,80 -21,132 -99,-49 -162,-150 -162,-260 0,-75 17,-135 35,-197 81,97 148,199 148,325 z"
       fill="currentColor"
       id="path189618" />
  </g>
  <a
     style="color:inherit"
     xlink:href="textedit://C:/Users/Javier/Documents/lilypond%20scores/ricci-pp16-18.ly:56:5:6"
     id="a189630"
     transform="translate(-5.6906,-5.3583998)">
    <g
       transform="translate(10.1131,17.442)"
       id="g189624">
      <path
         transform="scale(0.0044,-0.0044)"
         d="m 26,43 -1,-68 v -11 c 0,-22 0,-44 3,-66 46,38 95,80 95,139 0,34 -14,68 -44,68 C 48,105 27,76 26,43 Z m -40,-180 -12,598 c 8,5 17,6 26,6 9,0 18,-1 26,-6 L 19,113 c 25,20 57,32 90,32 52,0 91,-47 91,-101 0,-81 -88,-118 -150,-169 -15,-12 -22,-35 -42,-35 -12,0 -22,10 -22,23 z"
         fill="currentColor"
         id="path189622" />
    </g>
    <g
       transform="translate(11.1157,15.792)"
       id="g189628">
      <path
         transform="scale(0.0044,-0.0044)"
         d="m 26,43 -1,-68 v -11 c 0,-22 0,-44 3,-66 46,38 95,80 95,139 0,34 -14,68 -44,68 C 48,105 27,76 26,43 Z m -40,-180 -12,598 c 8,5 17,6 26,6 9,0 18,-1 26,-6 L 19,113 c 25,20 57,32 90,32 52,0 91,-47 91,-101 0,-81 -88,-118 -150,-169 -15,-12 -22,-35 -42,-35 -12,0 -22,10 -22,23 z"
         fill="currentColor"
         id="path189626" />
    </g>
  </a>
  <a
     style="color:inherit"
     xlink:href="textedit://C:/Users/Javier/Documents/lilypond%20scores/ricci-pp16-18.ly:57:36:37"
     id="a189638"
     transform="translate(-5.6906,-5.3583998)">
    <g
       transform="translate(22.1584,12.1667)"
       id="g189636">
      <text
         font-family="serif"
         font-size="2.4202px"
         text-anchor="start"
         fill="currentColor"
         id="text189634"><tspan
           id="tspan189632">II</tspan></text>
    </g>
  </a>
  <g
     transform="translate(11.2636,12.0836)"
     id="g189642">
    <rect
       x="-0.067199998"
       y="1.8609999"
       width="0.1345"
       height="4.5054998"
       ry="0.039999999"
       fill="currentColor"
       id="rect189640" />
  </g>
  <a
     style="color:inherit"
     xlink:href="textedit://C:/Users/Javier/Documents/lilypond%20scores/ricci-pp16-18.ly:57:64:65"
     id="a189648"
     transform="translate(-5.6906,-5.3583998)">
    <g
       transform="translate(27.6867,7.0534)"
       id="g189646">
      <path
         transform="scale(0.0025,-0.0025)"
         d="m 125,147 h 10 c 35,0 73,-12 110,-39 19,-14 41,-22 60,-22 22,0 40,10 46,31 2,7 7,11 13,11 7,0 14,-6 14,-14 0,-1 -1,-3 -1,-4 C 358,40 295,0 233,0 195,0 159,15 133,47 121,62 104,69 88,69 59,69 31,48 28,13 27,4 21,0 14,0 7,0 0,5 0,14 c 0,174 233,163 233,341 0,57 -14,117 -63,117 -31,0 -61,-14 -61,-41 0,-25 32,-39 32,-64 0,-35 -28,-64 -63,-64 -35,0 -64,29 -64,64 0,78 74,133 156,133 98,0 191,-55 191,-145 C 361,210 223,198 125,147 Z"
         fill="currentColor"
         id="path189644" />
    </g>
  </a>
  <a
     style="color:inherit"
     xlink:href="textedit://C:/Users/Javier/Documents/lilypond%20scores/ricci-pp16-18.ly:57:55:56"
     id="a189654"
     transform="translate(-5.6906,-5.3583998)">
    <g
       transform="translate(27.4298,13.592)"
       id="g189652">
      <path
         transform="scale(0.0044,-0.0044)"
         d="m 220,135 c 54,0 106,-27 106,-87 0,-71 -56,-120 -103,-148 -36,-21 -76,-35 -117,-35 -54,0 -106,27 -106,87 0,71 56,120 103,148 36,21 76,35 117,35 z"
         fill="currentColor"
         id="path189650" />
    </g>
  </a>
  <a
     style="color:inherit"
     xlink:href="textedit://C:/Users/Javier/Documents/lilypond%20scores/ricci-pp16-18.ly:57:59:60"
     id="a189660"
     transform="translate(-5.6906,-5.3583998)">
    <g
       transform="translate(27.4298,11.392)"
       id="g189658">
      <path
         transform="scale(0.0044,-0.0044)"
         d="m 220,135 c 54,0 106,-27 106,-87 0,-71 -56,-120 -103,-148 -36,-21 -76,-35 -117,-35 -54,0 -106,27 -106,87 0,71 56,120 103,148 36,21 76,35 117,35 z"
         fill="currentColor"
         id="path189656" />
    </g>
  </a>
  <a
     style="color:inherit"
     xlink:href="textedit://C:/Users/Javier/Documents/lilypond%20scores/ricci-pp16-18.ly:57:62:63"
     id="a189666"
     transform="translate(-5.6906,-5.3583998)">
    <g
       transform="translate(27.6867,8.8326)"
       id="g189664">
      <path
         transform="scale(0.0025,-0.0025)"
         d="m 125,147 h 10 c 35,0 73,-12 110,-39 19,-14 41,-22 60,-22 22,0 40,10 46,31 2,7 7,11 13,11 7,0 14,-6 14,-14 0,-1 -1,-3 -1,-4 C 358,40 295,0 233,0 195,0 159,15 133,47 121,62 104,69 88,69 59,69 31,48 28,13 27,4 21,0 14,0 7,0 0,5 0,14 c 0,174 233,163 233,341 0,57 -14,117 -63,117 -31,0 -61,-14 -61,-41 0,-25 32,-39 32,-64 0,-35 -28,-64 -63,-64 -35,0 -64,29 -64,64 0,78 74,133 156,133 98,0 191,-55 191,-145 C 361,210 223,198 125,147 Z"
         fill="currentColor"
         id="path189662" />
    </g>
  </a>
  <g
     transform="translate(21.8064,12.0836)"
     id="g189670">
    <rect
       x="-0.067199998"
       y="-5.8390002"
       width="0.1345"
       height="8.8892002"
       ry="0.039999999"
       fill="currentColor"
       id="rect189668" />
  </g>
  <a
     style="color:inherit"
     xlink:href="textedit://C:/Users/Javier/Documents/lilypond%20scores/ricci-pp16-18.ly:57:41:42"
     id="a189676"
     transform="translate(-5.6906,-5.3583998)">
    <g
       transform="translate(24.7941,15.242)"
       id="g189674">
      <path
         transform="scale(0.0044,-0.0044)"
         d="m 220,135 c 54,0 106,-27 106,-87 0,-71 -56,-120 -103,-148 -36,-21 -76,-35 -117,-35 -54,0 -106,27 -106,87 0,71 56,120 103,148 36,21 76,35 117,35 z"
         fill="currentColor"
         id="path189672" />
    </g>
  </a>
  <a
     style="color:inherit"
     xlink:href="textedit://C:/Users/Javier/Documents/lilypond%20scores/ricci-pp16-18.ly:57:44:45"
     id="a189682"
     transform="translate(-5.6906,-5.3583998)">
    <g
       transform="translate(24.7941,13.592)"
       id="g189680">
      <path
         transform="scale(0.0044,-0.0044)"
         d="m 220,135 c 54,0 106,-27 106,-87 0,-71 -56,-120 -103,-148 -36,-21 -76,-35 -117,-35 -54,0 -106,27 -106,87 0,71 56,120 103,148 36,21 76,35 117,35 z"
         fill="currentColor"
         id="path189678" />
    </g>
  </a>
  <a
     style="color:inherit"
     xlink:href="textedit://C:/Users/Javier/Documents/lilypond%20scores/ricci-pp16-18.ly:57:51:52"
     id="a189688"
     transform="translate(-5.6906,-5.3583998)">
    <g
       transform="translate(25.0851,9.0854)"
       id="g189686">
      <path
         transform="scale(0.0025,-0.0025)"
         d="m 0,250 127,250 c 3,6 12,3 20,0 14,-6 28,-13 44,-13 16,0 30,7 44,13 1,1 4,1 5,1 8,0 15,-10 15,-21 V 127 c 0,-52 32,-99 80,-99 9,0 13,-7 13,-14 C 348,7 344,0 335,0 287,0 239,13 191,13 143,13 96,0 48,0 39,0 34,7 34,14 c 0,7 5,14 14,14 48,0 79,47 79,99 v 220 c 0,15 -10,22 -19,22 -5,0 -10,-1 -12,-6 L 31,234 c -3,-7 -9,-9 -15,-9 -9,0 -18,7 -18,17 0,3 1,5 2,8 z"
         fill="currentColor"
         id="path189684" />
    </g>
  </a>
  <a
     style="color:inherit"
     xlink:href="textedit://C:/Users/Javier/Documents/lilypond%20scores/ricci-pp16-18.ly:57:49:50"
     id="a189694"
     transform="translate(-5.6906,-5.3583998)">
    <g
       transform="translate(25.051,10.8645)"
       id="g189692">
      <path
         transform="scale(0.0025,-0.0025)"
         d="m 125,147 h 10 c 35,0 73,-12 110,-39 19,-14 41,-22 60,-22 22,0 40,10 46,31 2,7 7,11 13,11 7,0 14,-6 14,-14 0,-1 -1,-3 -1,-4 C 358,40 295,0 233,0 195,0 159,15 133,47 121,62 104,69 88,69 59,69 31,48 28,13 27,4 21,0 14,0 7,0 0,5 0,14 c 0,174 233,163 233,341 0,57 -14,117 -63,117 -31,0 -61,-14 -61,-41 0,-25 32,-39 32,-64 0,-35 -28,-64 -63,-64 -35,0 -64,29 -64,64 0,78 74,133 156,133 98,0 191,-55 191,-145 C 361,210 223,198 125,147 Z"
         fill="currentColor"
         id="path189690" />
    </g>
  </a>
  <g
     transform="translate(19.1707,12.0836)"
     id="g189698">
    <rect
       x="-0.067199998"
       y="-3.6389999"
       width="0.1345"
       height="7.5183001"
       ry="0.039999999"
       fill="currentColor"
       id="rect189696" />
  </g>
</svg>
