<!-- <?xml version="1.0" encoding="UTF-8" standalone="no"?> -->
<svg
   version="1.2"
   width="190mm"
   height="20.910933mm"
   viewBox="0 0 108.1205 11.899475"
   id="svg6098"
   sodipodi:docname="ricci left hand examples-1.svg"
   xmlns:inkscape="http://www.inkscape.org/namespaces/inkscape"
   xmlns:sodipodi="http://sodipodi.sourceforge.net/DTD/sodipodi-0.dtd"
   xmlns:xlink="http://www.w3.org/1999/xlink"
   xmlns="http://www.w3.org/2000/svg"
   xmlns:svg="http://www.w3.org/2000/svg">
  <defs
     id="defs6102" />
  <sodipodi:namedview
     id="namedview6100"
     pagecolor="#ffffff"
     bordercolor="#000000"
     borderopacity="0.25"
     inkscape:showpageshadow="2"
     inkscape:pageopacity="0.0"
     inkscape:pagecheckerboard="0"
     inkscape:deskcolor="#d1d1d1"
     inkscape:document-units="mm"
     showgrid="false" />
  <style
     type="text/css"
     id="style2"><![CDATA[
tspan { white-space: pre; }
]]></style>
  <!-- Page: 1/6 -->
  <g
     transform="translate(3.1967416e-8,9.1562837)"
     id="g3670">
    <line
       stroke-linejoin="round"
       stroke-linecap="round"
       stroke-width="0.0966"
       stroke="currentColor"
       x1="0.048300002"
       y1="0"
       x2="108.0722"
       y2="0"
       id="line3668" />
  </g>
  <g
     transform="translate(3.1967416e-8,8.2562837)"
     id="g3674">
    <line
       stroke-linejoin="round"
       stroke-linecap="round"
       stroke-width="0.0966"
       stroke="currentColor"
       x1="0.048300002"
       y1="0"
       x2="108.0722"
       y2="0"
       id="line3672" />
  </g>
  <g
     transform="translate(3.1967416e-8,7.3562837)"
     id="g3678">
    <line
       stroke-linejoin="round"
       stroke-linecap="round"
       stroke-width="0.0966"
       stroke="currentColor"
       x1="0.048300002"
       y1="0"
       x2="108.0722"
       y2="0"
       id="line3676" />
  </g>
  <g
     transform="translate(3.1967416e-8,6.4562837)"
     id="g3682">
    <line
       stroke-linejoin="round"
       stroke-linecap="round"
       stroke-width="0.0966"
       stroke="currentColor"
       x1="0.048300002"
       y1="0"
       x2="108.0722"
       y2="0"
       id="line3680" />
  </g>
  <g
     transform="translate(3.1967416e-8,5.5562837)"
     id="g3686">
    <line
       stroke-linejoin="round"
       stroke-linecap="round"
       stroke-width="0.0966"
       stroke="currentColor"
       x1="0.048300002"
       y1="0"
       x2="108.0722"
       y2="0"
       id="line3684" />
  </g>
  <g
     transform="translate(71.2928,7.3562837)"
     id="g3690">
    <rect
       x="0"
       y="-1.8"
       width="0.18350001"
       height="3.5999999"
       ry="0.0000"
       fill="currentColor"
       id="rect3688" />
  </g>
  <g
     transform="translate(84.7942,7.3562837)"
     id="g3694">
    <rect
       x="0"
       y="-1.8"
       width="0.18350001"
       height="3.5999999"
       ry="0.0000"
       fill="currentColor"
       id="rect3692" />
  </g>
  <g
     transform="translate(98.6172,6.9062837)"
     id="g3698">
    <path
       transform="scale(0.0036,-0.0036)"
       d="M 0,0 C 0,31 25,56 56,56 87,56 111,31 111,0 111,-31 87,-56 56,-56 25,-56 0,-31 0,0 Z"
       fill="currentColor"
       id="path3696" />
  </g>
  <g
     transform="translate(98.6172,7.8062837)"
     id="g3702">
    <path
       transform="scale(0.0036,-0.0036)"
       d="M 0,0 C 0,31 25,56 56,56 87,56 111,31 111,0 111,-31 87,-56 56,-56 25,-56 0,-31 0,0 Z"
       fill="currentColor"
       id="path3700" />
  </g>
  <g
     transform="translate(99.7815,7.3562837)"
     id="g3706">
    <rect
       x="0"
       y="-1.8"
       width="0.5794"
       height="3.5999999"
       ry="0.0000"
       fill="currentColor"
       id="rect3704" />
  </g>
  <g
     transform="translate(99.3083,7.3562837)"
     id="g3710">
    <rect
       x="0"
       y="-1.8"
       width="0.18350001"
       height="3.5999999"
       ry="0.0000"
       fill="currentColor"
       id="rect3708" />
  </g>
  <g
     transform="translate(55.2387,7.3562837)"
     id="g3714">
    <rect
       x="0"
       y="-1.8"
       width="0.18350001"
       height="3.5999999"
       ry="0.0000"
       fill="currentColor"
       id="rect3712" />
  </g>
  <g
     transform="translate(24.4643,7.3562837)"
     id="g3718">
    <rect
       x="0"
       y="-1.8"
       width="0.18350001"
       height="3.5999999"
       ry="0.0000"
       fill="currentColor"
       id="rect3716" />
  </g>
  <g
     transform="translate(107.541,7.3562837)"
     id="g3722">
    <rect
       x="0"
       y="-1.8"
       width="0.5794"
       height="3.5999999"
       ry="0.0000"
       fill="currentColor"
       id="rect3720" />
  </g>
  <g
     transform="translate(107.0678,7.3562837)"
     id="g3726">
    <rect
       x="0"
       y="-1.8"
       width="0.18350001"
       height="3.5999999"
       ry="0.0000"
       fill="currentColor"
       id="rect3724" />
  </g>
  <g
     transform="translate(37.2642,6.9062837)"
     id="g3730">
    <path
       transform="scale(0.0036,-0.0036)"
       d="M 0,0 C 0,31 25,56 56,56 87,56 111,31 111,0 111,-31 87,-56 56,-56 25,-56 0,-31 0,0 Z"
       fill="currentColor"
       id="path3728" />
  </g>
  <g
     transform="translate(37.2642,7.8062837)"
     id="g3734">
    <path
       transform="scale(0.0036,-0.0036)"
       d="M 0,0 C 0,31 25,56 56,56 87,56 111,31 111,0 111,-31 87,-56 56,-56 25,-56 0,-31 0,0 Z"
       fill="currentColor"
       id="path3732" />
  </g>
  <g
     transform="translate(39.7709,6.9062837)"
     id="g3738">
    <path
       transform="scale(0.0036,-0.0036)"
       d="M 0,0 C 0,31 25,56 56,56 87,56 111,31 111,0 111,-31 87,-56 56,-56 25,-56 0,-31 0,0 Z"
       fill="currentColor"
       id="path3736" />
  </g>
  <g
     transform="translate(39.7709,7.8062837)"
     id="g3742">
    <path
       transform="scale(0.0036,-0.0036)"
       d="M 0,0 C 0,31 25,56 56,56 87,56 111,31 111,0 111,-31 87,-56 56,-56 25,-56 0,-31 0,0 Z"
       fill="currentColor"
       id="path3740" />
  </g>
  <g
     transform="translate(39.2977,7.3562837)"
     id="g3746">
    <rect
       x="0"
       y="-1.8"
       width="0.18350001"
       height="3.5999999"
       ry="0.0000"
       fill="currentColor"
       id="rect3744" />
  </g>
  <g
     transform="translate(38.4285,7.3562837)"
     id="g3750">
    <rect
       x="0"
       y="-1.8"
       width="0.5794"
       height="3.5999999"
       ry="0.0000"
       fill="currentColor"
       id="rect3748" />
  </g>
  <g
     transform="translate(37.9553,7.3562837)"
     id="g3754">
    <rect
       x="0"
       y="-1.8"
       width="0.18350001"
       height="3.5999999"
       ry="0.0000"
       fill="currentColor"
       id="rect3752" />
  </g>
  <g
     transform="translate(3.1967416e-8,10.056284)"
     id="g3758">
    <rect
       x="101.7166"
       y="-0.0933"
       width="1.8638"
       height="0.1866"
       ry="0.0933"
       fill="currentColor"
       id="rect3756" />
  </g>
  <g
     transform="translate(3.1967416e-8,10.956284)"
     id="g3762">
    <rect
       x="101.7166"
       y="-0.0933"
       width="1.8638"
       height="0.1866"
       ry="0.0933"
       fill="currentColor"
       id="rect3760" />
  </g>
  <g
     transform="translate(3.1967416e-8,10.056284)"
     id="g3766">
    <rect
       x="96.151901"
       y="-0.0933"
       width="1.7588"
       height="0.1866"
       ry="0.0933"
       fill="currentColor"
       id="rect3764" />
  </g>
  <g
     transform="translate(3.1967416e-8,10.056284)"
     id="g3770">
    <rect
       x="47.727501"
       y="-0.0933"
       width="1.7588"
       height="0.1866"
       ry="0.0933"
       fill="currentColor"
       id="rect3768" />
  </g>
  <g
     transform="translate(3.1967416e-8,10.056284)"
     id="g3774">
    <rect
       x="43.383099"
       y="-0.0933"
       width="1.7588"
       height="0.1866"
       ry="0.0933"
       fill="currentColor"
       id="rect3772" />
  </g>
  <g
     transform="translate(3.1967416e-8,10.056284)"
     id="g3778">
    <rect
       x="40.960899"
       y="-0.0933"
       width="1.7588"
       height="0.1866"
       ry="0.0933"
       fill="currentColor"
       id="rect3776" />
  </g>
  <g
     transform="translate(3.1967416e-8,10.956284)"
     id="g3782">
    <rect
       x="40.960899"
       y="-0.0933"
       width="1.7588"
       height="0.1866"
       ry="0.0933"
       fill="currentColor"
       id="rect3780" />
  </g>
  <g
     transform="translate(3.1967416e-8,10.056284)"
     id="g3786">
    <rect
       x="34.798901"
       y="-0.0933"
       width="1.7588"
       height="0.1866"
       ry="0.0933"
       fill="currentColor"
       id="rect3784" />
  </g>
  <g
     transform="translate(3.1967416e-8,10.056284)"
     id="g3790">
    <rect
       x="12.2516"
       y="-0.0933"
       width="1.7588"
       height="0.1866"
       ry="0.0933"
       fill="currentColor"
       id="rect3788" />
  </g>
  <g
     transform="translate(3.1967416e-8,10.056284)"
     id="g3794">
    <rect
       x="9.8294001"
       y="-0.0933"
       width="1.7588"
       height="0.1866"
       ry="0.0933"
       fill="currentColor"
       id="rect3792" />
  </g>
  <g
     transform="translate(3.1967416e-8,10.956284)"
     id="g3798">
    <rect
       x="9.8294001"
       y="-0.0933"
       width="1.7588"
       height="0.1866"
       ry="0.0933"
       fill="currentColor"
       id="rect3796" />
  </g>
  <g
     transform="translate(73.4193,7.3562837)"
     id="g3802">
    <rect
       x="-0.062799998"
       y="-4.4917002"
       width="0.12549999"
       height="2.0803001"
       ry="0.039999999"
       fill="currentColor"
       id="rect3800" />
  </g>
  <g
     transform="translate(72.3723,7.3562837)"
     id="g3806">
    <rect
       x="-0.062799998"
       y="2.4777"
       width="0.12549999"
       height="2.0223"
       ry="0.039999999"
       fill="currentColor"
       id="rect3804" />
  </g>
  <g
     transform="translate(73.9534,9.6062837)"
     id="g3810">
    <path
       transform="scale(0.0036,-0.0036)"
       d="M 0,0 C 0,31 25,56 56,56 87,56 111,31 111,0 111,-31 87,-56 56,-56 25,-56 0,-31 0,0 Z"
       fill="currentColor"
       id="path3808" />
  </g>
  <g
     transform="translate(70.1717,7.3562837)"
     id="g3814">
    <rect
       x="-0.062799998"
       y="-3.4252"
       width="0.12549999"
       height="2.3638"
       ry="0.039999999"
       fill="currentColor"
       id="rect3812" />
  </g>
  <a
     style="color:inherit"
     xlink:href="textedit://C:/Users/Javier/Documents/lilypond%20scores/ricci%20left%20hand%20examples.ly:120:13:14"
     id="a3820"
     transform="translate(-5.6906,-111.79082)">
    <g
       transform="translate(78.0001,121.3971)"
       id="g3818">
      <path
         transform="scale(0.0036,-0.0036)"
         d="m 312,64 c 0,24 -20,41 -41,41 -4,0 -8,-1 -12,-2 C 229,94 182,65 146,41 110,17 63,-13 43,-37 36,-45 33,-54 33,-64 c 0,-24 20,-41 41,-41 4,0 8,1 12,2 30,9 77,38 113,62 36,24 83,54 103,78 7,8 10,17 10,27 z m -53,73 c 48,0 86,-22 86,-74 0,-18 -4,-38 -10,-56 -12,-38 -30,-73 -63,-95 -53,-36 -113,-49 -186,-49 -48,0 -86,22 -86,74 0,18 4,38 10,56 12,38 31,73 64,95 53,36 112,49 185,49 z"
         fill="currentColor"
         id="path3816" />
    </g>
  </a>
  <a
     style="color:inherit"
     xlink:href="textedit://C:/Users/Javier/Documents/lilypond%20scores/ricci%20left%20hand%20examples.ly:117:10:11"
     id="a3826"
     transform="translate(-5.6906,-111.79082)">
    <g
       transform="translate(78.1596,113.9894)"
       id="g3824">
      <path
         transform="scale(0.002,-0.002)"
         d="m 198,284 c 24,15 48,29 65,52 12,16 19,34 28,52 2,5 6,7 11,7 8,0 16,-6 16,-17 V 161 h 79 c 12,0 18,-9 18,-18 0,-9 -6,-18 -18,-18 h -79 c 2,-51 33,-96 80,-96 10,0 15,-8 15,-15 C 413,7 408,0 398,0 349,0 302,14 253,14 204,14 156,0 107,0 97,0 93,7 93,14 c 0,7 4,15 14,15 47,0 79,45 81,96 H 36 c -29,0 -38,17 -38,28 0,3 1,6 2,8 78,88 123,201 123,319 0,11 8,21 17,21 1,0 3,-1 4,-1 25,-7 50,-14 76,-14 26,0 52,7 77,14 2,1 4,1 6,1 10,0 17,-7 17,-14 0,-2 0,-5 -2,-7 L 36,161 h 152 v 96 c 0,10 1,21 10,27 z"
         fill="currentColor"
         id="path3822" />
    </g>
  </a>
  <a
     style="color:inherit"
     xlink:href="textedit://C:/Users/Javier/Documents/lilypond%20scores/ricci%20left%20hand%20examples.ly:117:8:9"
     id="a3832"
     transform="translate(-5.6906,-111.79082)">
    <g
       transform="translate(78.0001,116.8971)"
       id="g3830">
      <path
         transform="scale(0.0036,-0.0036)"
         d="m 215,137 c 57,0 111,-29 111,-92 0,-71 -54,-120 -101,-148 -35,-21 -74,-34 -114,-34 -57,0 -111,29 -111,92 0,71 54,120 101,148 35,21 74,34 114,34 z"
         fill="currentColor"
         id="path3828" />
    </g>
  </a>
  <a
     style="color:inherit"
     xlink:href="textedit://C:/Users/Javier/Documents/lilypond%20scores/ricci%20left%20hand%20examples.ly:116:23:24"
     id="a3838"
     transform="translate(-5.6906,-111.79082)">
    <g
       transform="translate(74.7526,118.2471)"
       id="g3836">
      <path
         transform="scale(0.0036,-0.0036)"
         d="m 215,137 c 57,0 111,-29 111,-92 0,-71 -54,-120 -101,-148 -35,-21 -74,-34 -114,-34 -57,0 -111,29 -111,92 0,71 54,120 101,148 35,21 74,34 114,34 z"
         fill="currentColor"
         id="path3834" />
    </g>
  </a>
  <a
     style="color:inherit"
     xlink:href="textedit://C:/Users/Javier/Documents/lilypond%20scores/ricci%20left%20hand%20examples.ly:115:23:24"
     id="a3844"
     transform="translate(-5.6906,-111.79082)">
    <g
       transform="translate(58.5556,120.0471)"
       id="g3842">
      <path
         transform="scale(0.0036,-0.0036)"
         d="m 215,137 c 57,0 111,-29 111,-92 0,-71 -54,-120 -101,-148 -35,-21 -74,-34 -114,-34 -57,0 -111,29 -111,92 0,71 54,120 101,148 35,21 74,34 114,34 z"
         fill="currentColor"
         id="path3840" />
    </g>
  </a>
  <g
     transform="translate(77.2637,7.3562837)"
     id="g3848">
    <rect
       x="-0.062799998"
       y="-3.9847"
       width="0.12549999"
       height="3.8232999"
       ry="0.039999999"
       fill="currentColor"
       id="rect3846" />
  </g>
  <a
     style="color:inherit"
     xlink:href="textedit://C:/Users/Javier/Documents/lilypond%20scores/ricci%20left%20hand%20examples.ly:117:15:16"
     id="a3854"
     transform="translate(-5.6906,-111.79082)">
    <g
       transform="translate(81.8445,119.1471)"
       id="g3852">
      <path
         transform="scale(0.0036,-0.0036)"
         d="m 215,137 c 57,0 111,-29 111,-92 0,-71 -54,-120 -101,-148 -35,-21 -74,-34 -114,-34 -57,0 -111,29 -111,92 0,71 54,120 101,148 35,21 74,34 114,34 z"
         fill="currentColor"
         id="path3850" />
    </g>
  </a>
  <g
     transform="translate(75.3415,7.3562837)"
     id="g3858">
    <rect
       x="-0.062799998"
       y="-4.2382002"
       width="0.12549999"
       height="3.1768"
       ry="0.039999999"
       fill="currentColor"
       id="rect3856" />
  </g>
  <a
     style="color:inherit"
     xlink:href="textedit://C:/Users/Javier/Documents/lilypond%20scores/ricci%20left%20hand%20examples.ly:117:13:14"
     id="a3864"
     transform="translate(-5.6906,-111.79082)">
    <g
       transform="translate(79.9223,118.2471)"
       id="g3862">
      <path
         transform="scale(0.0036,-0.0036)"
         d="m 215,137 c 57,0 111,-29 111,-92 0,-71 -54,-120 -101,-148 -35,-21 -74,-34 -114,-34 -57,0 -111,29 -111,92 0,71 54,120 101,148 35,21 74,34 114,34 z"
         fill="currentColor"
         id="path3860" />
    </g>
  </a>
  <g
     transform="translate(57.4907,7.3562837)"
     id="g3868">
    <rect
       x="-0.062799998"
       y="2.4777"
       width="0.12549999"
       height="2.0223"
       ry="0.039999999"
       fill="currentColor"
       id="rect3866" />
  </g>
  <g
     transform="translate(59.0718,9.6062837)"
     id="g3872">
    <path
       transform="scale(0.0036,-0.0036)"
       d="M 0,0 C 0,31 25,56 56,56 87,56 111,31 111,0 111,-31 87,-56 56,-56 25,-56 0,-31 0,0 Z"
       fill="currentColor"
       id="path3870" />
  </g>
  <g
     transform="translate(57.3651,7.3562837)"
     id="g3876">
    <rect
       x="-0.062799998"
       y="-1.9748"
       width="0.12549999"
       height="4.0633998"
       ry="0.039999999"
       fill="currentColor"
       id="rect3874" />
  </g>
  <a
     style="color:inherit"
     xlink:href="textedit://C:/Users/Javier/Documents/lilypond%20scores/ricci%20left%20hand%20examples.ly:120:11:12"
     id="a3882"
     transform="translate(-5.6906,-111.79082)">
    <g
       transform="translate(63.1185,121.3971)"
       id="g3880">
      <path
         transform="scale(0.0036,-0.0036)"
         d="m 312,64 c 0,24 -20,41 -41,41 -4,0 -8,-1 -12,-2 C 229,94 182,65 146,41 110,17 63,-13 43,-37 36,-45 33,-54 33,-64 c 0,-24 20,-41 41,-41 4,0 8,1 12,2 30,9 77,38 113,62 36,24 83,54 103,78 7,8 10,17 10,27 z m -53,73 c 48,0 86,-22 86,-74 0,-18 -4,-38 -10,-56 -12,-38 -30,-73 -63,-95 -53,-36 -113,-49 -186,-49 -48,0 -86,22 -86,74 0,18 4,38 10,56 12,38 31,73 64,95 53,36 112,49 185,49 z"
         fill="currentColor"
         id="path3878" />
    </g>
  </a>
  <a
     style="color:inherit"
     xlink:href="textedit://C:/Users/Javier/Documents/lilypond%20scores/ricci%20left%20hand%20examples.ly:116:8:9"
     id="a3888"
     transform="translate(-5.6906,-111.79082)">
    <g
       transform="translate(61.946,121.3971)"
       id="g3886">
      <path
         transform="scale(0.0036,-0.0036)"
         d="m 215,137 c 57,0 111,-29 111,-92 0,-71 -54,-120 -101,-148 -35,-21 -74,-34 -114,-34 -57,0 -111,29 -111,92 0,71 54,120 101,148 35,21 74,34 114,34 z"
         fill="currentColor"
         id="path3884" />
    </g>
  </a>
  <g
     transform="translate(53.9747,7.3562837)"
     id="g3892">
    <rect
       x="-0.062799998"
       y="-1.6275001"
       width="0.12549999"
       height="2.3659999"
       ry="0.039999999"
       fill="currentColor"
       id="rect3890" />
  </g>
  <a
     style="color:inherit"
     xlink:href="textedit://C:/Users/Javier/Documents/lilypond%20scores/ricci%20left%20hand%20examples.ly:108:10:11"
     id="a3898"
     transform="translate(-5.6906,-111.79082)">
    <g
       transform="translate(15.8131,119.1471)"
       id="g3896">
      <path
         stroke-width="0.0773"
         stroke-linejoin="round"
         stroke-linecap="round"
         stroke="currentColor"
         fill="currentColor"
         d="m 1.0391,-1.5775 c 1.5952,-1.7673 9.9915,-3.3111 12.111,-2.227 v 0 c -2.0986,-0.9702 -10.4949,0.5737 -12.111,2.227 z"
         id="path3894" />
    </g>
  </a>
  <g
     transform="translate(63.4051,7.3562837)"
     id="g3902">
    <rect
       x="-0.062799998"
       y="-2.6589"
       width="0.12549999"
       height="2.4974"
       ry="0.039999999"
       fill="currentColor"
       id="rect3900" />
  </g>
  <a
     style="color:inherit"
     xlink:href="textedit://C:/Users/Javier/Documents/lilypond%20scores/ricci%20left%20hand%20examples.ly:116:20:21"
     id="a3908"
     transform="translate(-5.6906,-111.79082)">
    <g
       transform="translate(72.5581,114.3425)"
       id="g3906">
      <path
         transform="scale(0.002,-0.002)"
         d="M 129,129 H 259 C 259,77 291,29 340,29 350,29 354,21 354,14 354,7 350,0 340,0 291,0 243,14 194,14 145,14 98,0 49,0 39,0 34,7 34,14 c 0,7 5,15 15,15 49,0 80,48 80,100 z M 0,250 129,500 c 3,7 13,3 21,0 14,-6 28,-14 44,-14 16,0 31,8 45,14 2,1 2,1 4,1 8,0 16,-9 16,-21 V 129 H 129 v 215 c 0,15 -11,23 -20,23 -5,0 -9,-2 -11,-7 L 32,233 c -4,-7 -9,-9 -15,-9 -9,0 -19,7 -19,17 0,3 0,6 2,9 z"
         fill="currentColor"
         id="path3904" />
    </g>
  </a>
  <a
     style="color:inherit"
     xlink:href="textedit://C:/Users/Javier/Documents/lilypond%20scores/ricci%20left%20hand%20examples.ly:116:19:20"
     id="a3914"
     transform="translate(-5.6906,-111.79082)">
    <g
       transform="translate(72.3304,119.1471)"
       id="g3912">
      <path
         transform="scale(0.0036,-0.0036)"
         d="m 215,137 c 57,0 111,-29 111,-92 0,-71 -54,-120 -101,-148 -35,-21 -74,-34 -114,-34 -57,0 -111,29 -111,92 0,71 54,120 101,148 35,21 74,34 114,34 z"
         fill="currentColor"
         id="path3910" />
    </g>
  </a>
  <g
     transform="translate(65.3273,7.3562837)"
     id="g3918">
    <rect
       x="-0.062799998"
       y="-2.8764999"
       width="0.12549999"
       height="3.6150999"
       ry="0.039999999"
       fill="currentColor"
       id="rect3916" />
  </g>
  <a
     style="color:inherit"
     xlink:href="textedit://C:/Users/Javier/Documents/lilypond%20scores/ricci%20left%20hand%20examples.ly:116:17:18"
     id="a3924"
     transform="translate(-5.6906,-111.79082)">
    <g
       transform="translate(69.9082,120.0471)"
       id="g3922">
      <path
         transform="scale(0.0036,-0.0036)"
         d="m 215,137 c 57,0 111,-29 111,-92 0,-71 -54,-120 -101,-148 -35,-21 -74,-34 -114,-34 -57,0 -111,29 -111,92 0,71 54,120 101,148 35,21 74,34 114,34 z"
         fill="currentColor"
         id="path3920" />
    </g>
  </a>
  <g
     transform="translate(67.7495,7.3562837)"
     id="g3928">
    <rect
       x="-0.062799998"
       y="-3.1508999"
       width="0.12549999"
       height="2.9893999"
       ry="0.039999999"
       fill="currentColor"
       id="rect3926" />
  </g>
  <a
     style="color:inherit"
     xlink:href="textedit://C:/Users/Javier/Documents/lilypond%20scores/ricci%20left%20hand%20examples.ly:116:15:16"
     id="a3934"
     transform="translate(-5.6906,-111.79082)">
    <g
       transform="translate(67.986,119.1471)"
       id="g3932">
      <path
         transform="scale(0.0036,-0.0036)"
         d="m 215,137 c 57,0 111,-29 111,-92 0,-71 -54,-120 -101,-148 -35,-21 -74,-34 -114,-34 -57,0 -111,29 -111,92 0,71 54,120 101,148 35,21 74,34 114,34 z"
         fill="currentColor"
         id="path3930" />
    </g>
  </a>
  <g
     transform="translate(60.9829,7.3562837)"
     id="g3938">
    <rect
       x="-0.062799998"
       y="-2.3845"
       width="0.12549999"
       height="3.1231"
       ry="0.039999999"
       fill="currentColor"
       id="rect3936" />
  </g>
  <a
     style="color:inherit"
     xlink:href="textedit://C:/Users/Javier/Documents/lilypond%20scores/ricci%20left%20hand%20examples.ly:116:12:13"
     id="a3944"
     transform="translate(-5.6906,-111.79082)">
    <g
       transform="translate(65.7915,114.9793)"
       id="g3942">
      <path
         transform="scale(0.002,-0.002)"
         d="M 129,129 H 259 C 259,77 291,29 340,29 350,29 354,21 354,14 354,7 350,0 340,0 291,0 243,14 194,14 145,14 98,0 49,0 39,0 34,7 34,14 c 0,7 5,15 15,15 49,0 80,48 80,100 z M 0,250 129,500 c 3,7 13,3 21,0 14,-6 28,-14 44,-14 16,0 31,8 45,14 2,1 2,1 4,1 8,0 16,-9 16,-21 V 129 H 129 v 215 c 0,15 -11,23 -20,23 -5,0 -9,-2 -11,-7 L 32,233 c -4,-7 -9,-9 -15,-9 -9,0 -19,7 -19,17 0,3 0,6 2,9 z"
         fill="currentColor"
         id="path3940" />
    </g>
  </a>
  <a
     style="color:inherit"
     xlink:href="textedit://C:/Users/Javier/Documents/lilypond%20scores/ricci%20left%20hand%20examples.ly:116:11:12"
     id="a3950"
     transform="translate(-5.6906,-111.79082)">
    <g
       transform="translate(65.5638,120.0471)"
       id="g3948">
      <path
         transform="scale(0.0036,-0.0036)"
         d="m 215,137 c 57,0 111,-29 111,-92 0,-71 -54,-120 -101,-148 -35,-21 -74,-34 -114,-34 -57,0 -111,29 -111,92 0,71 54,120 101,148 35,21 74,34 114,34 z"
         fill="currentColor"
         id="path3946" />
    </g>
  </a>
  <g
     transform="translate(103.2069,7.3562837)"
     id="g3954">
    <rect
       x="-0.062799998"
       y="-0.89999998"
       width="0.12549999"
       height="4.7223001"
       ry="0.039999999"
       fill="currentColor"
       id="rect3952" />
  </g>
  <g
     transform="translate(103.6711,9.6062837)"
     id="g3958">
    <path
       transform="scale(0.0036,-0.0036)"
       d="M 0,0 C 0,31 25,56 56,56 87,56 111,31 111,0 111,-31 87,-56 56,-56 25,-56 0,-31 0,0 Z"
       fill="currentColor"
       id="path3956" />
  </g>
  <a
     style="color:inherit"
     xlink:href="textedit://C:/Users/Javier/Documents/lilypond%20scores/ricci%20left%20hand%20examples.ly:123:7:8"
     id="a3964"
     transform="translate(-5.6906,-111.79082)">
    <g
       transform="translate(107.7178,123.1971)"
       id="g3962">
      <path
         transform="scale(0.0036,-0.0036)"
         d="m 312,64 c 0,24 -20,41 -41,41 -4,0 -8,-1 -12,-2 C 229,94 182,65 146,41 110,17 63,-13 43,-37 36,-45 33,-54 33,-64 c 0,-24 20,-41 41,-41 4,0 8,1 12,2 30,9 77,38 113,62 36,24 83,54 103,78 7,8 10,17 10,27 z m -53,73 c 48,0 86,-22 86,-74 0,-18 -4,-38 -10,-56 -12,-38 -30,-73 -63,-95 -53,-36 -113,-49 -186,-49 -48,0 -86,22 -86,74 0,18 4,38 10,56 12,38 31,73 64,95 53,36 112,49 185,49 z"
         fill="currentColor"
         id="path3960" />
    </g>
  </a>
  <a
     style="color:inherit"
     xlink:href="textedit://C:/Users/Javier/Documents/lilypond%20scores/ricci%20left%20hand%20examples.ly:123:5:6"
     id="a3970"
     transform="translate(-5.6906,-111.79082)">
    <g
       transform="translate(107.7178,121.3971)"
       id="g3968">
      <path
         transform="scale(0.0036,-0.0036)"
         d="m 312,64 c 0,24 -20,41 -41,41 -4,0 -8,-1 -12,-2 C 229,94 182,65 146,41 110,17 63,-13 43,-37 36,-45 33,-54 33,-64 c 0,-24 20,-41 41,-41 4,0 8,1 12,2 30,9 77,38 113,62 36,24 83,54 103,78 7,8 10,17 10,27 z m -53,73 c 48,0 86,-22 86,-74 0,-18 -4,-38 -10,-56 -12,-38 -30,-73 -63,-95 -53,-36 -113,-49 -186,-49 -48,0 -86,22 -86,74 0,18 4,38 10,56 12,38 31,73 64,95 53,36 112,49 185,49 z"
         fill="currentColor"
         id="path3966" />
    </g>
  </a>
  <g
     transform="translate(97.5547,7.3562837)"
     id="g3974">
    <rect
       x="-0.062799998"
       y="-1.6395"
       width="0.12549999"
       height="4.6280999"
       ry="0.039999999"
       fill="currentColor"
       id="rect3972" />
  </g>
  <a
     style="color:inherit"
     xlink:href="textedit://C:/Users/Javier/Documents/lilypond%20scores/ricci%20left%20hand%20examples.ly:118:21:22"
     id="a3980"
     transform="translate(-5.6906,-111.79082)">
    <g
       transform="translate(102.1356,122.2971)"
       id="g3978">
      <path
         transform="scale(0.0036,-0.0036)"
         d="m 215,137 c 57,0 111,-29 111,-92 0,-71 -54,-120 -101,-148 -35,-21 -74,-34 -114,-34 -57,0 -111,29 -111,92 0,71 54,120 101,148 35,21 74,34 114,34 z"
         fill="currentColor"
         id="path3976" />
    </g>
  </a>
  <g
     transform="translate(95.6325,7.3562837)"
     id="g3984">
    <rect
       x="-0.062799998"
       y="-1.8602"
       width="0.12549999"
       height="3.9488001"
       ry="0.039999999"
       fill="currentColor"
       id="rect3982" />
  </g>
  <a
     style="color:inherit"
     xlink:href="textedit://C:/Users/Javier/Documents/lilypond%20scores/ricci%20left%20hand%20examples.ly:118:19:20"
     id="a3990"
     transform="translate(-5.6906,-111.79082)">
    <g
       transform="translate(100.2134,121.3971)"
       id="g3988">
      <path
         transform="scale(0.0036,-0.0036)"
         d="m 215,137 c 57,0 111,-29 111,-92 0,-71 -54,-120 -101,-148 -35,-21 -74,-34 -114,-34 -57,0 -111,29 -111,92 0,71 54,120 101,148 35,21 74,34 114,34 z"
         fill="currentColor"
         id="path3986" />
    </g>
  </a>
  <g
     transform="translate(93.7103,7.3562837)"
     id="g3994">
    <rect
       x="-0.062799998"
       y="-2.0809"
       width="0.12549999"
       height="2.8195"
       ry="0.039999999"
       fill="currentColor"
       id="rect3992" />
  </g>
  <a
     style="color:inherit"
     xlink:href="textedit://C:/Users/Javier/Documents/lilypond%20scores/ricci%20left%20hand%20examples.ly:118:17:18"
     id="a4000"
     transform="translate(-5.6906,-111.79082)">
    <g
       transform="translate(98.2912,120.0471)"
       id="g3998">
      <path
         transform="scale(0.0036,-0.0036)"
         d="m 215,137 c 57,0 111,-29 111,-92 0,-71 -54,-120 -101,-148 -35,-21 -74,-34 -114,-34 -57,0 -111,29 -111,92 0,71 54,120 101,148 35,21 74,34 114,34 z"
         fill="currentColor"
         id="path3996" />
    </g>
  </a>
  <g
     transform="translate(11.1695,6.4562837)"
     id="g4004">
    <polygon
       stroke-linejoin="round"
       stroke-linecap="round"
       stroke-width="0.08"
       fill="currentColor"
       stroke="currentColor"
       points="12.1965,-2.426 12.1965,-2.074 0.04,0.176 0.04,-0.176 "
       id="polygon4002" />
  </g>
  <a
     style="color:inherit"
     xlink:href="textedit://C:/Users/Javier/Documents/lilypond%20scores/ricci%20left%20hand%20examples.ly:108:32:33"
     id="a4010"
     transform="translate(-5.6906,-111.79082)">
    <g
       transform="translate(31.1716,119.1471)"
       id="g4008">
      <path
         stroke-width="0.0773"
         stroke-linejoin="round"
         stroke-linecap="round"
         stroke="currentColor"
         fill="currentColor"
         d="m 1.2142,-4.9809 c 2.0017,-0.8607 8.3384,0.8965 9.611,2.6652 v 0 C 9.5216,-3.9727 3.185,-5.7299 1.2142,-4.9809 Z"
         id="path4006" />
    </g>
  </a>
  <g
     transform="translate(26.528,3.0239837)"
     id="g4014">
    <polygon
       stroke-linejoin="round"
       stroke-linecap="round"
       stroke-width="0.08"
       fill="currentColor"
       stroke="currentColor"
       points="9.6965,2.524 9.6965,2.876 0.04,0.176 0.04,-0.176 "
       id="polygon4012" />
  </g>
  <a
     style="color:inherit"
     xlink:href="textedit://C:/Users/Javier/Documents/lilypond%20scores/ricci%20left%20hand%20examples.ly:115:11:12"
     id="a4020"
     transform="translate(-5.6906,-111.79082)">
    <g
       transform="translate(46.9446,119.1471)"
       id="g4018">
      <path
         stroke-width="0.0773"
         stroke-linejoin="round"
         stroke-linecap="round"
         stroke="currentColor"
         fill="currentColor"
         d="m 1.0799,-1.4031 c 1.7237,-1.5646 9.6689,-2.1739 11.611,-0.8904 v 0 C 10.7576,-3.4614 2.8124,-2.8522 1.0799,-1.4031 Z"
         id="path4016" />
    </g>
  </a>
  <g
     transform="translate(42.301,6.6239837)"
     id="g4024">
    <polygon
       stroke-linejoin="round"
       stroke-linecap="round"
       stroke-width="0.08"
       fill="currentColor"
       stroke="currentColor"
       points="11.6965,-1.076 11.6965,-0.724 0.04,0.176 0.04,-0.176 "
       id="polygon4022" />
  </g>
  <a
     style="color:inherit"
     xlink:href="textedit://C:/Users/Javier/Documents/lilypond%20scores/ricci%20left%20hand%20examples.ly:116:9:10"
     id="a4030"
     transform="translate(-5.6906,-111.79082)">
    <g
       transform="translate(61.946,119.1471)"
       id="g4028">
      <path
         stroke-width="0.0773"
         stroke-linejoin="round"
         stroke-linecap="round"
         stroke="currentColor"
         fill="currentColor"
         d="M 1.0658,-2.6408 C 2.8179,-4.315 11.7902,-5.3311 13.8724,-4.0912 v 0 C 11.8033,-5.216 2.8309,-4.1999 1.0658,-2.6408 Z"
         id="path4026" />
    </g>
  </a>
  <g
     transform="translate(57.3023,5.3885837)"
     id="g4034">
    <polygon
       stroke-linejoin="round"
       stroke-linecap="round"
       stroke-width="0.08"
       fill="currentColor"
       stroke="currentColor"
       points="12.8922,-1.6406 12.8922,-1.2886 0.04,0.176 0.04,-0.176 "
       id="polygon4032" />
  </g>
  <a
     style="color:inherit"
     xlink:href="textedit://C:/Users/Javier/Documents/lilypond%20scores/ricci%20left%20hand%20examples.ly:117:9:10"
     id="a4040"
     transform="translate(-5.6906,-111.79082)">
    <g
       transform="translate(78.0001,119.1471)"
       id="g4038">
      <path
         stroke-width="0.0773"
         stroke-linejoin="round"
         stroke-linecap="round"
         stroke="currentColor"
         fill="currentColor"
         d="m 1.1609,-5.1577 c 1.8838,-1.1374 8.5864,-0.2535 10.111,1.3334 v 0 C 9.7321,-5.2963 3.0296,-6.1802 1.1609,-5.1577 Z"
         id="path4036" />
    </g>
  </a>
  <g
     transform="translate(73.3565,2.8562837)"
     id="g4044">
    <polygon
       stroke-linejoin="round"
       stroke-linecap="round"
       stroke-width="0.08"
       fill="currentColor"
       stroke="currentColor"
       points="10.1965,1.174 10.1965,1.526 0.04,0.176 0.04,-0.176 "
       id="polygon4042" />
  </g>
  <a
     style="color:inherit"
     xlink:href="textedit://C:/Users/Javier/Documents/lilypond%20scores/ricci%20left%20hand%20examples.ly:118:9:10"
     id="a4050"
     transform="translate(-5.6906,-111.79082)">
    <g
       transform="translate(91.5015,119.1471)"
       id="g4048">
      <path
         stroke-width="0.0773"
         stroke-linejoin="round"
         stroke-linecap="round"
         stroke="currentColor"
         fill="currentColor"
         d="m 1.1543,-3.5265 c 1.91,-1.1842 9.0422,-0.3652 10.6341,1.221 v 0 c -1.6051,-1.4711 -8.7373,-2.29 -10.6341,-1.221 z"
         id="path4046" />
    </g>
  </a>
  <g
     transform="translate(86.8579,4.4885837)"
     id="g4054">
    <polygon
       stroke-linejoin="round"
       stroke-linecap="round"
       stroke-width="0.08"
       fill="currentColor"
       stroke="currentColor"
       points="10.7196,1.0594 10.7196,1.4114 0.04,0.176 0.04,-0.176 "
       id="polygon4052" />
  </g>
  <g
     transform="translate(103.6711,11.406284)"
     id="g4058">
    <path
       transform="scale(0.0036,-0.0036)"
       d="M 0,0 C 0,31 25,56 56,56 87,56 111,31 111,0 111,-31 87,-56 56,-56 25,-56 0,-31 0,0 Z"
       fill="currentColor"
       id="path4056" />
  </g>
  <a
     style="color:inherit"
     xlink:href="textedit://C:/Users/Javier/Documents/lilypond%20scores/ricci%20left%20hand%20examples.ly:117:23:24"
     id="a4064"
     transform="translate(-5.6906,-111.79082)">
    <g
       transform="translate(88.3389,114.5158)"
       id="g4062">
      <path
         transform="scale(0.002,-0.002)"
         d="M 129,129 H 259 C 259,77 291,29 340,29 350,29 354,21 354,14 354,7 350,0 340,0 291,0 243,14 194,14 145,14 98,0 49,0 39,0 34,7 34,14 c 0,7 5,15 15,15 49,0 80,48 80,100 z M 0,250 129,500 c 3,7 13,3 21,0 14,-6 28,-14 44,-14 16,0 31,8 45,14 2,1 2,1 4,1 8,0 16,-9 16,-21 V 129 H 129 v 215 c 0,15 -11,23 -20,23 -5,0 -9,-2 -11,-7 L 32,233 c -4,-7 -9,-9 -15,-9 -9,0 -19,7 -19,17 0,3 0,6 2,9 z"
         fill="currentColor"
         id="path4060" />
    </g>
  </a>
  <g
     transform="translate(86.9206,7.3562837)"
     id="g4068">
    <rect
       x="-0.062799998"
       y="-2.8605001"
       width="0.12549999"
       height="2.6991"
       ry="0.039999999"
       fill="currentColor"
       id="rect4066" />
  </g>
  <a
     style="color:inherit"
     xlink:href="textedit://C:/Users/Javier/Documents/lilypond%20scores/ricci%20left%20hand%20examples.ly:120:15:16"
     id="a4074"
     transform="translate(-5.6906,-111.79082)">
    <g
       transform="translate(91.5015,121.3971)"
       id="g4072">
      <path
         transform="scale(0.0036,-0.0036)"
         d="m 312,64 c 0,24 -20,41 -41,41 -4,0 -8,-1 -12,-2 C 229,94 182,65 146,41 110,17 63,-13 43,-37 36,-45 33,-54 33,-64 c 0,-24 20,-41 41,-41 4,0 8,1 12,2 30,9 77,38 113,62 36,24 83,54 103,78 7,8 10,17 10,27 z m -53,73 c 48,0 86,-22 86,-74 0,-18 -4,-38 -10,-56 -12,-38 -30,-73 -63,-95 -53,-36 -113,-49 -186,-49 -48,0 -86,22 -86,74 0,18 4,38 10,56 12,38 31,73 64,95 53,36 112,49 185,49 z"
         fill="currentColor"
         id="path4070" />
    </g>
  </a>
  <a
     style="color:inherit"
     xlink:href="textedit://C:/Users/Javier/Documents/lilypond%20scores/ricci%20left%20hand%20examples.ly:118:8:9"
     id="a4080"
     transform="translate(-5.6906,-111.79082)">
    <g
       transform="translate(91.5015,119.1471)"
       id="g4078">
      <path
         transform="scale(0.0036,-0.0036)"
         d="m 215,137 c 57,0 111,-29 111,-92 0,-71 -54,-120 -101,-148 -35,-21 -74,-34 -114,-34 -57,0 -111,29 -111,92 0,71 54,120 101,148 35,21 74,34 114,34 z"
         fill="currentColor"
         id="path4076" />
    </g>
  </a>
  <g
     transform="translate(83.5303,7.3562837)"
     id="g4084">
    <rect
       x="-0.062799998"
       y="-3.1582999"
       width="0.12549999"
       height="3.8968999"
       ry="0.039999999"
       fill="currentColor"
       id="rect4082" />
  </g>
  <g
     transform="translate(87.4548,9.6062837)"
     id="g4088">
    <path
       transform="scale(0.0036,-0.0036)"
       d="M 0,0 C 0,31 25,56 56,56 87,56 111,31 111,0 111,-31 87,-56 56,-56 25,-56 0,-31 0,0 Z"
       fill="currentColor"
       id="path4086" />
  </g>
  <a
     style="color:inherit"
     xlink:href="textedit://C:/Users/Javier/Documents/lilypond%20scores/ricci%20left%20hand%20examples.ly:117:21:22"
     id="a4094"
     transform="translate(-5.6906,-111.79082)">
    <g
       transform="translate(88.1111,120.0471)"
       id="g4092">
      <path
         transform="scale(0.0036,-0.0036)"
         d="m 215,137 c 57,0 111,-29 111,-92 0,-71 -54,-120 -101,-148 -35,-21 -74,-34 -114,-34 -57,0 -111,29 -111,92 0,71 54,120 101,148 35,21 74,34 114,34 z"
         fill="currentColor"
         id="path4090" />
    </g>
  </a>
  <g
     transform="translate(81.6081,7.3562837)"
     id="g4098">
    <rect
       x="-0.062799998"
       y="-3.4117999"
       width="0.12549999"
       height="3.2504001"
       ry="0.039999999"
       fill="currentColor"
       id="rect4096" />
  </g>
  <a
     style="color:inherit"
     xlink:href="textedit://C:/Users/Javier/Documents/lilypond%20scores/ricci%20left%20hand%20examples.ly:117:19:20"
     id="a4104"
     transform="translate(-5.6906,-111.79082)">
    <g
       transform="translate(86.1889,119.1471)"
       id="g4102">
      <path
         transform="scale(0.0036,-0.0036)"
         d="m 215,137 c 57,0 111,-29 111,-92 0,-71 -54,-120 -101,-148 -35,-21 -74,-34 -114,-34 -57,0 -111,29 -111,92 0,71 54,120 101,148 35,21 74,34 114,34 z"
         fill="currentColor"
         id="path4100" />
    </g>
  </a>
  <g
     transform="translate(79.6859,7.3562837)"
     id="g4108">
    <rect
       x="-0.062799998"
       y="-3.6652999"
       width="0.12549999"
       height="2.6039"
       ry="0.039999999"
       fill="currentColor"
       id="rect4106" />
  </g>
  <g
     transform="translate(91.2881,7.3562837)"
     id="g4112">
    <rect
       x="-0.062799998"
       y="-2.359"
       width="0.12549999"
       height="4.4475999"
       ry="0.039999999"
       fill="currentColor"
       id="rect4110" />
  </g>
  <a
     style="color:inherit"
     xlink:href="textedit://C:/Users/Javier/Documents/lilypond%20scores/ricci%20left%20hand%20examples.ly:118:14:15"
     id="a4118"
     transform="translate(-5.6906,-111.79082)">
    <g
       transform="translate(96.0967,114.8993)"
       id="g4116">
      <path
         transform="scale(0.002,-0.002)"
         d="M 129,129 H 259 C 259,77 291,29 340,29 350,29 354,21 354,14 354,7 350,0 340,0 291,0 243,14 194,14 145,14 98,0 49,0 39,0 34,7 34,14 c 0,7 5,15 15,15 49,0 80,48 80,100 z M 0,250 129,500 c 3,7 13,3 21,0 14,-6 28,-14 44,-14 16,0 31,8 45,14 2,1 2,1 4,1 8,0 16,-9 16,-21 V 129 H 129 v 215 c 0,15 -11,23 -20,23 -5,0 -9,-2 -11,-7 L 32,233 c -4,-7 -9,-9 -15,-9 -9,0 -19,7 -19,17 0,3 0,6 2,9 z"
         fill="currentColor"
         id="path4114" />
    </g>
  </a>
  <a
     style="color:inherit"
     xlink:href="textedit://C:/Users/Javier/Documents/lilypond%20scores/ricci%20left%20hand%20examples.ly:118:13:14"
     id="a4124"
     transform="translate(-5.6906,-111.79082)">
    <g
       transform="translate(95.869,121.3971)"
       id="g4122">
      <path
         transform="scale(0.0036,-0.0036)"
         d="m 215,137 c 57,0 111,-29 111,-92 0,-71 -54,-120 -101,-148 -35,-21 -74,-34 -114,-34 -57,0 -111,29 -111,92 0,71 54,120 101,148 35,21 74,34 114,34 z"
         fill="currentColor"
         id="path4120" />
    </g>
  </a>
  <g
     transform="translate(89.3659,7.3562837)"
     id="g4128">
    <rect
       x="-0.062799998"
       y="-2.5797"
       width="0.12549999"
       height="3.3183"
       ry="0.039999999"
       fill="currentColor"
       id="rect4126" />
  </g>
  <a
     style="color:inherit"
     xlink:href="textedit://C:/Users/Javier/Documents/lilypond%20scores/ricci%20left%20hand%20examples.ly:118:11:12"
     id="a4134"
     transform="translate(-5.6906,-111.79082)">
    <g
       transform="translate(93.9468,120.0471)"
       id="g4132">
      <path
         transform="scale(0.0036,-0.0036)"
         d="m 215,137 c 57,0 111,-29 111,-92 0,-71 -54,-120 -101,-148 -35,-21 -74,-34 -114,-34 -57,0 -111,29 -111,92 0,71 54,120 101,148 35,21 74,34 114,34 z"
         fill="currentColor"
         id="path4130" />
    </g>
  </a>
  <a
     style="color:inherit"
     xlink:href="textedit://C:/Users/Javier/Documents/lilypond%20scores/ricci%20left%20hand%20examples.ly:117:17:18"
     id="a4140"
     transform="translate(-5.6906,-111.79082)">
    <g
       transform="translate(84.2667,118.2471)"
       id="g4138">
      <path
         transform="scale(0.0036,-0.0036)"
         d="m 215,137 c 57,0 111,-29 111,-92 0,-71 -54,-120 -101,-148 -35,-21 -74,-34 -114,-34 -57,0 -111,29 -111,92 0,71 54,120 101,148 35,21 74,34 114,34 z"
         fill="currentColor"
         id="path4136" />
    </g>
  </a>
  <g
     transform="translate(85.8737,7.3562837)"
     id="g4144">
    <rect
       x="-0.062799998"
       y="2.4777"
       width="0.12549999"
       height="2.0223"
       ry="0.039999999"
       fill="currentColor"
       id="rect4142" />
  </g>
  <g
     transform="translate(27.1249,9.6062837)"
     id="g4148">
    <path
       transform="scale(0.0036,-0.0036)"
       d="M 0,0 C 0,31 25,56 56,56 87,56 111,31 111,0 111,-31 87,-56 56,-56 25,-56 0,-31 0,0 Z"
       fill="currentColor"
       id="path4146" />
  </g>
  <g
     transform="translate(26.5908,7.3562837)"
     id="g4152">
    <rect
       x="-0.062799998"
       y="-4.3148999"
       width="0.12549999"
       height="1.9035"
       ry="0.039999999"
       fill="currentColor"
       id="rect4150" />
  </g>
  <a
     style="color:inherit"
     xlink:href="textedit://C:/Users/Javier/Documents/lilypond%20scores/ricci%20left%20hand%20examples.ly:110:11:12"
     id="a4158"
     transform="translate(-5.6906,-111.79082)">
    <g
       transform="translate(31.1716,121.3971)"
       id="g4156">
      <path
         transform="scale(0.0036,-0.0036)"
         d="m 312,64 c 0,24 -20,41 -41,41 -4,0 -8,-1 -12,-2 C 229,94 182,65 146,41 110,17 63,-13 43,-37 36,-45 33,-54 33,-64 c 0,-24 20,-41 41,-41 4,0 8,1 12,2 30,9 77,38 113,62 36,24 83,54 103,78 7,8 10,17 10,27 z m -53,73 c 48,0 86,-22 86,-74 0,-18 -4,-38 -10,-56 -12,-38 -30,-73 -63,-95 -53,-36 -113,-49 -186,-49 -48,0 -86,22 -86,74 0,18 4,38 10,56 12,38 31,73 64,95 53,36 112,49 185,49 z"
         fill="currentColor"
         id="path4154" />
    </g>
  </a>
  <a
     style="color:inherit"
     xlink:href="textedit://C:/Users/Javier/Documents/lilypond%20scores/ricci%20left%20hand%20examples.ly:108:33:34"
     id="a4164"
     transform="translate(-5.6906,-111.79082)">
    <g
       transform="translate(31.3311,114.1662)"
       id="g4162">
      <path
         transform="scale(0.002,-0.002)"
         d="m 198,284 c 24,15 48,29 65,52 12,16 19,34 28,52 2,5 6,7 11,7 8,0 16,-6 16,-17 V 161 h 79 c 12,0 18,-9 18,-18 0,-9 -6,-18 -18,-18 h -79 c 2,-51 33,-96 80,-96 10,0 15,-8 15,-15 C 413,7 408,0 398,0 349,0 302,14 253,14 204,14 156,0 107,0 97,0 93,7 93,14 c 0,7 4,15 14,15 47,0 79,45 81,96 H 36 c -29,0 -38,17 -38,28 0,3 1,6 2,8 78,88 123,201 123,319 0,11 8,21 17,21 1,0 3,-1 4,-1 25,-7 50,-14 76,-14 26,0 52,7 77,14 2,1 4,1 6,1 10,0 17,-7 17,-14 0,-2 0,-5 -2,-7 L 36,161 h 152 v 96 c 0,10 1,21 10,27 z"
         fill="currentColor"
         id="path4160" />
    </g>
  </a>
  <a
     style="color:inherit"
     xlink:href="textedit://C:/Users/Javier/Documents/lilypond%20scores/ricci%20left%20hand%20examples.ly:108:31:32"
     id="a4170"
     transform="translate(-5.6906,-111.79082)">
    <g
       transform="translate(31.1716,116.8971)"
       id="g4168">
      <path
         transform="scale(0.0036,-0.0036)"
         d="m 215,137 c 57,0 111,-29 111,-92 0,-71 -54,-120 -101,-148 -35,-21 -74,-34 -114,-34 -57,0 -111,29 -111,92 0,71 54,120 101,148 35,21 74,34 114,34 z"
         fill="currentColor"
         id="path4166" />
    </g>
  </a>
  <g
     transform="translate(25.5438,7.3562837)"
     id="g4174">
    <rect
       x="-0.062799998"
       y="2.4777"
       width="0.12549999"
       height="2.0223"
       ry="0.039999999"
       fill="currentColor"
       id="rect4172" />
  </g>
  <g
     transform="translate(23.3432,7.3562837)"
     id="g4178">
    <rect
       x="-0.062799998"
       y="-3.1385"
       width="0.12549999"
       height="2.0769999"
       ry="0.039999999"
       fill="currentColor"
       id="rect4176" />
  </g>
  <a
     style="color:inherit"
     xlink:href="textedit://C:/Users/Javier/Documents/lilypond%20scores/ricci%20left%20hand%20examples.ly:108:28:29"
     id="a4184"
     transform="translate(-5.6906,-111.79082)">
    <g
       transform="translate(28.1689,114.9115)"
       id="g4182">
      <path
         transform="scale(0.002,-0.002)"
         d="m 155,471 c -34,0 -70,-8 -70,-38 0,-19 31,-23 31,-42 0,-28 -23,-51 -51,-51 -28,0 -51,23 -51,51 0,67 68,109 141,109 93,0 174,-31 174,-113 0,-41 -6,-77 -42,-94 -11,-5 -17,-16 -17,-27 0,-11 6,-22 17,-27 40,-19 59,-53 59,-98 C 346,47 263,0 160,0 78,0 0,45 0,119 c 0,32 26,58 58,58 32,0 58,-26 58,-58 0,-22 -36,-26 -36,-48 0,-33 42,-42 80,-42 46,0 56,58 56,112 v 38 c 0,40 -4,69 -43,69 H 99 c -12,0 -18,9 -18,18 0,9 6,18 18,18 h 74 c 40,0 43,31 43,73 v 30 c 0,50 -16,84 -61,84 z"
         fill="currentColor"
         id="path4180" />
    </g>
  </a>
  <a
     style="color:inherit"
     xlink:href="textedit://C:/Users/Javier/Documents/lilypond%20scores/ricci%20left%20hand%20examples.ly:108:26:27"
     id="a4190"
     transform="translate(-5.6906,-111.79082)">
    <g
       transform="translate(27.9241,118.2471)"
       id="g4188">
      <path
         transform="scale(0.0036,-0.0036)"
         d="m 215,137 c 57,0 111,-29 111,-92 0,-71 -54,-120 -101,-148 -35,-21 -74,-34 -114,-34 -57,0 -111,29 -111,92 0,71 54,120 101,148 35,21 74,34 114,34 z"
         fill="currentColor"
         id="path4186" />
    </g>
  </a>
  <g
     transform="translate(20.921,7.3562837)"
     id="g4194">
    <rect
       x="-0.062799998"
       y="-2.6931"
       width="0.12549999"
       height="2.5316"
       ry="0.039999999"
       fill="currentColor"
       id="rect4192" />
  </g>
  <a
     style="color:inherit"
     xlink:href="textedit://C:/Users/Javier/Documents/lilypond%20scores/ricci%20left%20hand%20examples.ly:108:23:24"
     id="a4200"
     transform="translate(-5.6906,-111.79082)">
    <g
       transform="translate(25.7126,114.8154)"
       id="g4198">
      <path
         transform="scale(0.002,-0.002)"
         d="m 129,149 h 7 c 36,0 74,-13 111,-40 19,-14 40,-21 59,-21 22,0 40,10 46,31 2,7 7,11 13,11 7,0 15,-5 15,-14 v -5 C 361,40 296,0 234,0 196,0 159,15 133,47 121,62 105,69 89,69 60,69 32,48 29,13 28,4 22,0 15,0 8,0 0,5 0,14 c 0,173 233,163 233,341 0,56 -14,116 -62,116 -33,0 -66,-15 -66,-44 0,-24 31,-37 31,-61 0,-34 -27,-61 -61,-61 -34,0 -61,27 -61,61 0,78 74,134 157,134 98,0 191,-55 191,-145 C 362,211 227,199 129,149 Z"
         fill="currentColor"
         id="path4196" />
    </g>
  </a>
  <a
     style="color:inherit"
     xlink:href="textedit://C:/Users/Javier/Documents/lilypond%20scores/ricci%20left%20hand%20examples.ly:108:22:23"
     id="a4206"
     transform="translate(-5.6906,-111.79082)">
    <g
       transform="translate(25.5019,119.1471)"
       id="g4204">
      <path
         transform="scale(0.0036,-0.0036)"
         d="m 215,137 c 57,0 111,-29 111,-92 0,-71 -54,-120 -101,-148 -35,-21 -74,-34 -114,-34 -57,0 -111,29 -111,92 0,71 54,120 101,148 35,21 74,34 114,34 z"
         fill="currentColor"
         id="path4202" />
    </g>
  </a>
  <a
     style="color:inherit"
     xlink:href="textedit://C:/Users/Javier/Documents/lilypond%20scores/ricci%20left%20hand%20examples.ly:108:41:42"
     id="a4212"
     transform="translate(-5.6906,-111.79082)">
    <g
       transform="translate(35.2267,113.8814)"
       id="g4210">
      <path
         transform="scale(0.002,-0.002)"
         d="m 129,149 h 7 c 36,0 74,-13 111,-40 19,-14 40,-21 59,-21 22,0 40,10 46,31 2,7 7,11 13,11 7,0 15,-5 15,-14 v -5 C 361,40 296,0 234,0 196,0 159,15 133,47 121,62 105,69 89,69 60,69 32,48 29,13 28,4 22,0 15,0 8,0 0,5 0,14 c 0,173 233,163 233,341 0,56 -14,116 -62,116 -33,0 -66,-15 -66,-44 0,-24 31,-37 31,-61 0,-34 -27,-61 -61,-61 -34,0 -61,27 -61,61 0,78 74,134 157,134 98,0 191,-55 191,-145 C 362,211 227,199 129,149 Z"
         fill="currentColor"
         id="path4208" />
    </g>
  </a>
  <a
     style="color:inherit"
     xlink:href="textedit://C:/Users/Javier/Documents/lilypond%20scores/ricci%20left%20hand%20examples.ly:108:40:41"
     id="a4218"
     transform="translate(-5.6906,-111.79082)">
    <g
       transform="translate(35.016,119.1471)"
       id="g4216">
      <path
         transform="scale(0.0036,-0.0036)"
         d="m 215,137 c 57,0 111,-29 111,-92 0,-71 -54,-120 -101,-148 -35,-21 -74,-34 -114,-34 -57,0 -111,29 -111,92 0,71 54,120 101,148 35,21 74,34 114,34 z"
         fill="currentColor"
         id="path4214" />
    </g>
  </a>
  <g
     transform="translate(28.513,7.3562837)"
     id="g4222">
    <rect
       x="-0.062799998"
       y="-3.7818"
       width="0.12549999"
       height="2.7204001"
       ry="0.039999999"
       fill="currentColor"
       id="rect4220" />
  </g>
  <a
     style="color:inherit"
     xlink:href="textedit://C:/Users/Javier/Documents/lilypond%20scores/ricci%20left%20hand%20examples.ly:108:37:38"
     id="a4228"
     transform="translate(-5.6906,-111.79082)">
    <g
       transform="translate(33.3386,113.765)"
       id="g4226">
      <path
         transform="scale(0.002,-0.002)"
         d="m 155,471 c -34,0 -70,-8 -70,-38 0,-19 31,-23 31,-42 0,-28 -23,-51 -51,-51 -28,0 -51,23 -51,51 0,67 68,109 141,109 93,0 174,-31 174,-113 0,-41 -6,-77 -42,-94 -11,-5 -17,-16 -17,-27 0,-11 6,-22 17,-27 40,-19 59,-53 59,-98 C 346,47 263,0 160,0 78,0 0,45 0,119 c 0,32 26,58 58,58 32,0 58,-26 58,-58 0,-22 -36,-26 -36,-48 0,-33 42,-42 80,-42 46,0 56,58 56,112 v 38 c 0,40 -4,69 -43,69 H 99 c -12,0 -18,9 -18,18 0,9 6,18 18,18 h 74 c 40,0 43,31 43,73 v 30 c 0,50 -16,84 -61,84 z"
         fill="currentColor"
         id="path4224" />
    </g>
  </a>
  <g
     transform="translate(9.9367,7.3562837)"
     id="g4232">
    <rect
       x="-0.062799998"
       y="2.4777"
       width="0.12549999"
       height="2.0223"
       ry="0.039999999"
       fill="currentColor"
       id="rect4230" />
  </g>
  <g
     transform="translate(11.5179,9.6062837)"
     id="g4236">
    <path
       transform="scale(0.0036,-0.0036)"
       d="M 0,0 C 0,31 25,56 56,56 87,56 111,31 111,0 111,-31 87,-56 56,-56 25,-56 0,-31 0,0 Z"
       fill="currentColor"
       id="path4234" />
  </g>
  <g
     transform="translate(11.2322,7.3562837)"
     id="g4240">
    <rect
       x="-0.062799998"
       y="-0.91149998"
       width="0.12549999"
       height="4.8000998"
       ry="0.039999999"
       fill="currentColor"
       id="rect4238" />
  </g>
  <g
     transform="translate(6.5595,7.3562837)"
     id="g4244">
    <path
       transform="scale(0.0036,-0.0036)"
       d="m 151,475 c -29,0 -60,-8 -60,-33 0,-22 35,-25 35,-47 0,-31 -26,-57 -57,-57 -31,0 -57,26 -57,57 0,65 68,105 139,105 92,0 170,-33 170,-114 0,-42 -5,-81 -42,-98 -10,-5 -15,-14 -15,-23 0,-9 5,-18 15,-23 41,-19 57,-56 57,-102 C 336,48 256,0 156,0 77,0 0,43 0,115 c 0,36 29,65 65,65 36,0 65,-29 65,-65 0,-25 -40,-29 -40,-54 0,-28 34,-36 66,-36 48,0 61,59 61,115 v 22 c 0,50 -3,88 -49,88 H 90 c -10,0 -15,7 -15,15 0,8 5,15 15,15 h 78 c 46,0 49,40 49,92 v 14 c 0,53 -18,89 -66,89 z"
       fill="currentColor"
       id="path4242" />
  </g>
  <g
     transform="translate(6.44,9.1999837)"
     id="g4248">
    <path
       transform="scale(0.0036,-0.0036)"
       d="m 194,120 h 120 c 0,-49 29,-95 75,-95 8,0 12,-7 12,-13 C 401,6 397,0 389,0 344,0 299,13 254,13 209,13 164,0 119,0 c -8,0 -12,6 -12,12 0,6 4,13 12,13 46,0 75,46 75,95 z m 9,181 c 22,15 45,30 61,51 12,15 19,34 27,51 2,4 5,6 9,6 6,0 14,-6 14,-15 V 156 h 74 c 10,0 16,-8 16,-16 0,-8 -6,-15 -16,-15 h -74 v -5 H 194 v 5 H 31 c -24,0 -33,15 -33,24 0,3 1,6 2,7 80,92 134,205 134,327 0,11 8,20 17,17 24,-7 48,-13 73,-13 25,0 48,6 72,13 2,1 4,1 6,1 9,0 14,-7 14,-13 0,-2 0,-3 -2,-5 L 31,156 h 163 v 122 c 0,9 2,18 9,23 z"
       fill="currentColor"
       id="path4246" />
  </g>
  <a
     style="color:inherit"
     xlink:href="textedit://C:/Users/Javier/Documents/lilypond%20scores/ricci%20left%20hand%20examples.ly:105:4:5"
     id="a4254"
     transform="translate(-5.6906,-111.79082)">
    <g
       transform="translate(9.9906,117.3471)"
       id="g4252">
      <path
         transform="scale(0.0036,-0.0036)"
         d="m 217,-311 c 0,-11 -8,-19 -19,-19 -11,0 -20,8 -20,19 v 142 l -81,-30 v -156 c 0,-11 -9,-20 -20,-20 -11,0 -19,9 -19,20 v 142 l -28,-11 c -3,-1 -5,-1 -8,-1 -12,0 -22,10 -22,23 v 57 c 0,9 6,18 15,21 l 43,16 V 49 L 30,39 C 27,38 25,38 22,38 10,38 0,47 0,60 v 57 c 0,9 6,18 15,21 l 43,16 v 157 c 0,11 8,19 19,19 11,0 20,-8 20,-19 V 169 l 81,30 v 156 c 0,11 9,20 20,20 11,0 19,-9 19,-20 V 213 l 28,11 c 3,1 5,1 8,1 12,0 22,-10 22,-23 v -57 c 0,-9 -6,-18 -15,-21 L 217,108 V -49 l 28,10 c 3,1 5,1 8,1 12,0 22,-9 22,-22 v -57 c 0,-9 -6,-18 -15,-21 l -43,-16 z M 97,64 V -94 l 81,30 V 94 Z"
         fill="currentColor"
         id="path4250" />
    </g>
  </a>
  <g
     transform="translate(0.80000003,8.2562837)"
     id="g4258">
    <path
       transform="scale(0.0036,-0.0036)"
       d="m 378,263 c 4,0 7,1 11,1 156,0 257,-129 257,-262 0,-76 -34,-154 -108,-210 -22,-17 -46,-29 -72,-37 3,-34 5,-68 5,-102 0,-20 -1,-40 -2,-60 -7,-121 -90,-228 -209,-228 -108,0 -196,87 -196,196 0,58 53,104 112,104 54,0 95,-48 95,-104 0,-52 -43,-95 -95,-95 -10,0 -20,2 -29,6 26,-38 68,-63 116,-63 h 3 c 93,2 153,92 159,190 1,19 2,37 2,56 0,30 -2,60 -4,90 -29,-5 -58,-8 -88,-8 -188,0 -333,173 -333,375 0,177 130,307 246,442 -20,62 -38,125 -46,190 -6,52 -7,104 -7,157 0,115 55,223 148,290 7,5 16,4 22,-1 71,-83 134,-244 134,-357 0,-143 -85,-255 -178,-364 21,-68 40,-137 57,-206 z m 84,-465 c 67,24 111,94 111,162 0,89 -65,178 -170,190 24,-115 46,-230 59,-352 z M 75,26 c 0,-134 129,-245 263,-245 28,0 55,2 81,6 C 405,-87 383,31 358,150 279,142 234,89 234,31 c 0,-43 25,-89 80,-121 5,-5 7,-11 7,-16 0,-12 -10,-23 -22,-23 -3,0 -6,1 -9,2 -81,43 -118,116 -118,186 0,89 58,175 161,198 -14,58 -29,116 -46,173 C 181,308 75,186 75,26 Z M 406,1042 C 307,995 244,894 244,785 c 0,-73 20,-132 38,-191 79,97 144,199 144,324 0,53 -4,76 -20,124 z"
       fill="currentColor"
       id="path4256" />
  </g>
  <a
     style="color:inherit"
     xlink:href="textedit://C:/Users/Javier/Documents/lilypond%20scores/ricci%20left%20hand%20examples.ly:110:7:8"
     id="a4264"
     transform="translate(-5.6906,-111.79082)">
    <g
       transform="translate(15.5646,121.3971)"
       id="g4262">
      <path
         transform="scale(0.0036,-0.0036)"
         d="m 312,64 c 0,24 -20,41 -41,41 -4,0 -8,-1 -12,-2 C 229,94 182,65 146,41 110,17 63,-13 43,-37 36,-45 33,-54 33,-64 c 0,-24 20,-41 41,-41 4,0 8,1 12,2 30,9 77,38 113,62 36,24 83,54 103,78 7,8 10,17 10,27 z m -53,73 c 48,0 86,-22 86,-74 0,-18 -4,-38 -10,-56 -12,-38 -30,-73 -63,-95 -53,-36 -113,-49 -186,-49 -48,0 -86,22 -86,74 0,18 4,38 10,56 12,38 31,73 64,95 53,36 112,49 185,49 z"
         fill="currentColor"
         id="path4260" />
    </g>
  </a>
  <a
     style="color:inherit"
     xlink:href="textedit://C:/Users/Javier/Documents/lilypond%20scores/ricci%20left%20hand%20examples.ly:108:8:9"
     id="a4270"
     transform="translate(-5.6906,-111.79082)">
    <g
       transform="translate(15.8131,123.1971)"
       id="g4268">
      <path
         transform="scale(0.0036,-0.0036)"
         d="m 215,137 c 57,0 111,-29 111,-92 0,-71 -54,-120 -101,-148 -35,-21 -74,-34 -114,-34 -57,0 -111,29 -111,92 0,71 54,120 101,148 35,21 74,34 114,34 z"
         fill="currentColor"
         id="path4266" />
    </g>
  </a>
  <a
     style="color:inherit"
     xlink:href="textedit://C:/Users/Javier/Documents/lilypond%20scores/ricci%20left%20hand%20examples.ly:108:16:17"
     id="a4276"
     transform="translate(-5.6906,-111.79082)">
    <g
       transform="translate(20.6575,121.3971)"
       id="g4274">
      <path
         transform="scale(0.0036,-0.0036)"
         d="m 215,137 c 57,0 111,-29 111,-92 0,-71 -54,-120 -101,-148 -35,-21 -74,-34 -114,-34 -57,0 -111,29 -111,92 0,71 54,120 101,148 35,21 74,34 114,34 z"
         fill="currentColor"
         id="path4272" />
    </g>
  </a>
  <g
     transform="translate(18.4988,7.3562837)"
     id="g4280">
    <rect
       x="-0.062799998"
       y="-2.2477"
       width="0.12549999"
       height="2.9863"
       ry="0.039999999"
       fill="currentColor"
       id="rect4278" />
  </g>
  <a
     style="color:inherit"
     xlink:href="textedit://C:/Users/Javier/Documents/lilypond%20scores/ricci%20left%20hand%20examples.ly:108:19:20"
     id="a4286"
     transform="translate(-5.6906,-111.79082)">
    <g
       transform="translate(23.3074,115.0202)"
       id="g4284">
      <path
         transform="scale(0.002,-0.002)"
         d="M 129,129 H 259 C 259,77 291,29 340,29 350,29 354,21 354,14 354,7 350,0 340,0 291,0 243,14 194,14 145,14 98,0 49,0 39,0 34,7 34,14 c 0,7 5,15 15,15 49,0 80,48 80,100 z M 0,250 129,500 c 3,7 13,3 21,0 14,-6 28,-14 44,-14 16,0 31,8 45,14 2,1 2,1 4,1 8,0 16,-9 16,-21 V 129 H 129 v 215 c 0,15 -11,23 -20,23 -5,0 -9,-2 -11,-7 L 32,233 c -4,-7 -9,-9 -15,-9 -9,0 -19,7 -19,17 0,3 0,6 2,9 z"
         fill="currentColor"
         id="path4282" />
    </g>
  </a>
  <a
     style="color:inherit"
     xlink:href="textedit://C:/Users/Javier/Documents/lilypond%20scores/ricci%20left%20hand%20examples.ly:108:18:19"
     id="a4292"
     transform="translate(-5.6906,-111.79082)">
    <g
       transform="translate(23.0797,120.0471)"
       id="g4290">
      <path
         transform="scale(0.0036,-0.0036)"
         d="m 215,137 c 57,0 111,-29 111,-92 0,-71 -54,-120 -101,-148 -35,-21 -74,-34 -114,-34 -57,0 -111,29 -111,92 0,71 54,120 101,148 35,21 74,34 114,34 z"
         fill="currentColor"
         id="path4288" />
    </g>
  </a>
  <g
     transform="translate(16.0766,7.3562837)"
     id="g4296">
    <rect
       x="-0.062799998"
       y="-1.8023"
       width="0.12549999"
       height="3.8908999"
       ry="0.039999999"
       fill="currentColor"
       id="rect4294" />
  </g>
  <a
     style="color:inherit"
     xlink:href="textedit://C:/Users/Javier/Documents/lilypond%20scores/ricci%20left%20hand%20examples.ly:108:36:37"
     id="a4302"
     transform="translate(-5.6906,-111.79082)">
    <g
       transform="translate(33.0938,118.2471)"
       id="g4300">
      <path
         transform="scale(0.0036,-0.0036)"
         d="m 215,137 c 57,0 111,-29 111,-92 0,-71 -54,-120 -101,-148 -35,-21 -74,-34 -114,-34 -57,0 -111,29 -111,92 0,71 54,120 101,148 35,21 74,34 114,34 z"
         fill="currentColor"
         id="path4298" />
    </g>
  </a>
  <g
     transform="translate(13.6544,7.3562837)"
     id="g4306">
    <rect
       x="-0.062799998"
       y="-1.3569"
       width="0.12549999"
       height="4.3455"
       ry="0.039999999"
       fill="currentColor"
       id="rect4304" />
  </g>
  <a
     style="color:inherit"
     xlink:href="textedit://C:/Users/Javier/Documents/lilypond%20scores/ricci%20left%20hand%20examples.ly:108:13:14"
     id="a4312"
     transform="translate(-5.6906,-111.79082)">
    <g
       transform="translate(18.463,116.1364)"
       id="g4310">
      <path
         transform="scale(0.002,-0.002)"
         d="M 129,129 H 259 C 259,77 291,29 340,29 350,29 354,21 354,14 354,7 350,0 340,0 291,0 243,14 194,14 145,14 98,0 49,0 39,0 34,7 34,14 c 0,7 5,15 15,15 49,0 80,48 80,100 z M 0,250 129,500 c 3,7 13,3 21,0 14,-6 28,-14 44,-14 16,0 31,8 45,14 2,1 2,1 4,1 8,0 16,-9 16,-21 V 129 H 129 v 215 c 0,15 -11,23 -20,23 -5,0 -9,-2 -11,-7 L 32,233 c -4,-7 -9,-9 -15,-9 -9,0 -19,7 -19,17 0,3 0,6 2,9 z"
         fill="currentColor"
         id="path4308" />
    </g>
  </a>
  <a
     style="color:inherit"
     xlink:href="textedit://C:/Users/Javier/Documents/lilypond%20scores/ricci%20left%20hand%20examples.ly:108:12:13"
     id="a4318"
     transform="translate(-5.6906,-111.79082)">
    <g
       transform="translate(18.2353,122.2971)"
       id="g4316">
      <path
         transform="scale(0.0036,-0.0036)"
         d="m 215,137 c 57,0 111,-29 111,-92 0,-71 -54,-120 -101,-148 -35,-21 -74,-34 -114,-34 -57,0 -111,29 -111,92 0,71 54,120 101,148 35,21 74,34 114,34 z"
         fill="currentColor"
         id="path4314" />
    </g>
  </a>
  <a
     style="color:inherit"
     xlink:href="textedit://C:/Users/Javier/Documents/lilypond%20scores/ricci%20left%20hand%20examples.ly:115:13:14"
     id="a4324"
     transform="translate(-5.6906,-111.79082)">
    <g
       transform="translate(49.3668,122.2971)"
       id="g4322">
      <path
         transform="scale(0.0036,-0.0036)"
         d="m 215,137 c 57,0 111,-29 111,-92 0,-71 -54,-120 -101,-148 -35,-21 -74,-34 -114,-34 -57,0 -111,29 -111,92 0,71 54,120 101,148 35,21 74,34 114,34 z"
         fill="currentColor"
         id="path4320" />
    </g>
  </a>
  <g
     transform="translate(41.0682,7.3562837)"
     id="g4328">
    <rect
       x="-0.062799998"
       y="2.4777"
       width="0.12549999"
       height="2.0223"
       ry="0.039999999"
       fill="currentColor"
       id="rect4326" />
  </g>
  <g
     transform="translate(42.6494,9.6062837)"
     id="g4332">
    <path
       transform="scale(0.0036,-0.0036)"
       d="M 0,0 C 0,31 25,56 56,56 87,56 111,31 111,0 111,-31 87,-56 56,-56 25,-56 0,-31 0,0 Z"
       fill="currentColor"
       id="path4330" />
  </g>
  <g
     transform="translate(30.4352,7.3562837)"
     id="g4336">
    <rect
       x="-0.062799998"
       y="-3.2488"
       width="0.12549999"
       height="3.0874"
       ry="0.039999999"
       fill="currentColor"
       id="rect4334" />
  </g>
  <g
     transform="translate(42.3637,7.3562837)"
     id="g4340">
    <rect
       x="-0.062799998"
       y="-0.73710001"
       width="0.12549999"
       height="4.6257"
       ry="0.039999999"
       fill="currentColor"
       id="rect4338" />
  </g>
  <a
     style="color:inherit"
     xlink:href="textedit://C:/Users/Javier/Documents/lilypond%20scores/ricci%20left%20hand%20examples.ly:120:7:8"
     id="a4346"
     transform="translate(-5.6906,-111.79082)">
    <g
       transform="translate(46.6961,121.3971)"
       id="g4344">
      <path
         transform="scale(0.0036,-0.0036)"
         d="m 312,64 c 0,24 -20,41 -41,41 -4,0 -8,-1 -12,-2 C 229,94 182,65 146,41 110,17 63,-13 43,-37 36,-45 33,-54 33,-64 c 0,-24 20,-41 41,-41 4,0 8,1 12,2 30,9 77,38 113,62 36,24 83,54 103,78 7,8 10,17 10,27 z m -53,73 c 48,0 86,-22 86,-74 0,-18 -4,-38 -10,-56 -12,-38 -30,-73 -63,-95 -53,-36 -113,-49 -186,-49 -48,0 -86,22 -86,74 0,18 4,38 10,56 12,38 31,73 64,95 53,36 112,49 185,49 z"
         fill="currentColor"
         id="path4342" />
    </g>
  </a>
  <a
     style="color:inherit"
     xlink:href="textedit://C:/Users/Javier/Documents/lilypond%20scores/ricci%20left%20hand%20examples.ly:115:8:9"
     id="a4352"
     transform="translate(-5.6906,-111.79082)">
    <g
       transform="translate(46.9446,123.1971)"
       id="g4350">
      <path
         transform="scale(0.0036,-0.0036)"
         d="m 215,137 c 57,0 111,-29 111,-92 0,-71 -54,-120 -101,-148 -35,-21 -74,-34 -114,-34 -57,0 -111,29 -111,92 0,71 54,120 101,148 35,21 74,34 114,34 z"
         fill="currentColor"
         id="path4348" />
    </g>
  </a>
  <a
     style="color:inherit"
     xlink:href="textedit://C:/Users/Javier/Documents/lilypond%20scores/ricci%20left%20hand%20examples.ly:115:17:18"
     id="a4358"
     transform="translate(-5.6906,-111.79082)">
    <g
       transform="translate(53.7112,122.2971)"
       id="g4356">
      <path
         transform="scale(0.0036,-0.0036)"
         d="m 215,137 c 57,0 111,-29 111,-92 0,-71 -54,-120 -101,-148 -35,-21 -74,-34 -114,-34 -57,0 -111,29 -111,92 0,71 54,120 101,148 35,21 74,34 114,34 z"
         fill="currentColor"
         id="path4354" />
    </g>
  </a>
  <g
     transform="translate(51.5525,7.3562837)"
     id="g4362">
    <rect
       x="-0.062799998"
       y="-1.4417"
       width="0.12549999"
       height="3.5302999"
       ry="0.039999999"
       fill="currentColor"
       id="rect4360" />
  </g>
  <a
     style="color:inherit"
     xlink:href="textedit://C:/Users/Javier/Documents/lilypond%20scores/ricci%20left%20hand%20examples.ly:115:20:21"
     id="a4368"
     transform="translate(-5.6906,-111.79082)">
    <g
       transform="translate(56.3611,116.0109)"
       id="g4366">
      <path
         transform="scale(0.002,-0.002)"
         d="M 129,129 H 259 C 259,77 291,29 340,29 350,29 354,21 354,14 354,7 350,0 340,0 291,0 243,14 194,14 145,14 98,0 49,0 39,0 34,7 34,14 c 0,7 5,15 15,15 49,0 80,48 80,100 z M 0,250 129,500 c 3,7 13,3 21,0 14,-6 28,-14 44,-14 16,0 31,8 45,14 2,1 2,1 4,1 8,0 16,-9 16,-21 V 129 H 129 v 215 c 0,15 -11,23 -20,23 -5,0 -9,-2 -11,-7 L 32,233 c -4,-7 -9,-9 -15,-9 -9,0 -19,7 -19,17 0,3 0,6 2,9 z"
         fill="currentColor"
         id="path4364" />
    </g>
  </a>
  <a
     style="color:inherit"
     xlink:href="textedit://C:/Users/Javier/Documents/lilypond%20scores/ricci%20left%20hand%20examples.ly:115:19:20"
     id="a4374"
     transform="translate(-5.6906,-111.79082)">
    <g
       transform="translate(56.1334,121.3971)"
       id="g4372">
      <path
         transform="scale(0.0036,-0.0036)"
         d="m 215,137 c 57,0 111,-29 111,-92 0,-71 -54,-120 -101,-148 -35,-21 -74,-34 -114,-34 -57,0 -111,29 -111,92 0,71 54,120 101,148 35,21 74,34 114,34 z"
         fill="currentColor"
         id="path4370" />
    </g>
  </a>
  <g
     transform="translate(49.1303,7.3562837)"
     id="g4378">
    <rect
       x="-0.062799998"
       y="-1.256"
       width="0.12549999"
       height="4.2445998"
       ry="0.039999999"
       fill="currentColor"
       id="rect4376" />
  </g>
  <g
     transform="translate(47.2081,7.3562837)"
     id="g4382">
    <rect
       x="-0.062799998"
       y="-1.1086"
       width="0.12549999"
       height="3.1972001"
       ry="0.039999999"
       fill="currentColor"
       id="rect4380" />
  </g>
  <a
     style="color:inherit"
     xlink:href="textedit://C:/Users/Javier/Documents/lilypond%20scores/ricci%20left%20hand%20examples.ly:115:15:16"
     id="a4388"
     transform="translate(-5.6906,-111.79082)">
    <g
       transform="translate(51.789,121.3971)"
       id="g4386">
      <path
         transform="scale(0.0036,-0.0036)"
         d="m 215,137 c 57,0 111,-29 111,-92 0,-71 -54,-120 -101,-148 -35,-21 -74,-34 -114,-34 -57,0 -111,29 -111,92 0,71 54,120 101,148 35,21 74,34 114,34 z"
         fill="currentColor"
         id="path4384" />
    </g>
  </a>
  <g
     transform="translate(44.7859,7.3562837)"
     id="g4392">
    <rect
       x="-0.062799998"
       y="-0.9228"
       width="0.12549999"
       height="3.9114001"
       ry="0.039999999"
       fill="currentColor"
       id="rect4390" />
  </g>
  <g
     transform="translate(34.2796,7.3562837)"
     id="g4396">
    <rect
       x="-0.062799998"
       y="-2.1826999"
       width="0.12549999"
       height="4.2712998"
       ry="0.039999999"
       fill="currentColor"
       id="rect4394" />
  </g>
  <a
     style="color:inherit"
     xlink:href="textedit://C:/Users/Javier/Documents/lilypond%20scores/ricci%20left%20hand%20examples.ly:108:44:45"
     id="a4402"
     transform="translate(-5.6906,-111.79082)">
    <g
       transform="translate(36.9382,120.0471)"
       id="g4400">
      <path
         transform="scale(0.0036,-0.0036)"
         d="m 215,137 c 57,0 111,-29 111,-92 0,-71 -54,-120 -101,-148 -35,-21 -74,-34 -114,-34 -57,0 -111,29 -111,92 0,71 54,120 101,148 35,21 74,34 114,34 z"
         fill="currentColor"
         id="path4398" />
    </g>
  </a>
  <a
     style="color:inherit"
     xlink:href="textedit://C:/Users/Javier/Documents/lilypond%20scores/ricci%20left%20hand%20examples.ly:108:51:52"
     id="a4408"
     transform="translate(-5.6906,-111.79082)">
    <g
       transform="translate(39.1053,114.895)"
       id="g4406">
      <path
         transform="scale(0.002,-0.002)"
         d="m 155,471 c -34,0 -70,-8 -70,-38 0,-19 31,-23 31,-42 0,-28 -23,-51 -51,-51 -28,0 -51,23 -51,51 0,67 68,109 141,109 93,0 174,-31 174,-113 0,-41 -6,-77 -42,-94 -11,-5 -17,-16 -17,-27 0,-11 6,-22 17,-27 40,-19 59,-53 59,-98 C 346,47 263,0 160,0 78,0 0,45 0,119 c 0,32 26,58 58,58 32,0 58,-26 58,-58 0,-22 -36,-26 -36,-48 0,-33 42,-42 80,-42 46,0 56,58 56,112 v 38 c 0,40 -4,69 -43,69 H 99 c -12,0 -18,9 -18,18 0,9 6,18 18,18 h 74 c 40,0 43,31 43,73 v 30 c 0,50 -16,84 -61,84 z"
         fill="currentColor"
         id="path4404" />
    </g>
  </a>
  <a
     style="color:inherit"
     xlink:href="textedit://C:/Users/Javier/Documents/lilypond%20scores/ricci%20left%20hand%20examples.ly:108:47:48"
     id="a4414"
     transform="translate(-5.6906,-111.79082)">
    <g
       transform="translate(37.166,112.7986)"
       id="g4412">
      <path
         transform="scale(0.002,-0.002)"
         d="M 129,129 H 259 C 259,77 291,29 340,29 350,29 354,21 354,14 354,7 350,0 340,0 291,0 243,14 194,14 145,14 98,0 49,0 39,0 34,7 34,14 c 0,7 5,15 15,15 49,0 80,48 80,100 z M 0,250 129,500 c 3,7 13,3 21,0 14,-6 28,-14 44,-14 16,0 31,8 45,14 2,1 2,1 4,1 8,0 16,-9 16,-21 V 129 H 129 v 215 c 0,15 -11,23 -20,23 -5,0 -9,-2 -11,-7 L 32,233 c -4,-7 -9,-9 -15,-9 -9,0 -19,7 -19,17 0,3 0,6 2,9 z"
         fill="currentColor"
         id="path4410" />
    </g>
  </a>
  <a
     style="color:inherit"
     xlink:href="textedit://C:/Users/Javier/Documents/lilypond%20scores/ricci%20left%20hand%20examples.ly:108:50:51"
     id="a4420"
     transform="translate(-5.6906,-111.79082)">
    <g
       transform="translate(38.8604,121.3971)"
       id="g4418">
      <path
         transform="scale(0.0036,-0.0036)"
         d="m 215,137 c 57,0 111,-29 111,-92 0,-71 -54,-120 -101,-148 -35,-21 -74,-34 -114,-34 -57,0 -111,29 -111,92 0,71 54,120 101,148 35,21 74,34 114,34 z"
         fill="currentColor"
         id="path4416" />
    </g>
  </a>
  <a
     style="color:inherit"
     xlink:href="textedit://C:/Users/Javier/Documents/lilypond%20scores/ricci%20left%20hand%20examples.ly:108:45:46"
     id="a4426"
     transform="translate(-5.6906,-111.79082)">
    <g
       transform="translate(37.1489,114.2729)"
       id="g4424">
      <path
         transform="scale(0.002,-0.002)"
         d="m 190,464 c -54,0 -61,-71 -61,-141 v -73 -73 c 0,-70 7,-141 61,-141 54,0 62,71 62,141 0,26 -1,51 -1,73 0,22 1,47 1,73 0,70 -8,141 -62,141 z m 0,36 C 308,500 380,378 380,250 380,122 308,0 190,0 72,0 0,122 0,250 0,378 72,500 190,500 Z"
         fill="currentColor"
         id="path4422" />
    </g>
  </a>
  <g
     transform="translate(32.3574,7.3562837)"
     id="g4430">
    <rect
       x="-0.062799998"
       y="-2.7158"
       width="0.12549999"
       height="3.4542999"
       ry="0.039999999"
       fill="currentColor"
       id="rect4428" />
  </g>
  <a
     style="color:inherit"
     xlink:href="textedit://C:/Users/Javier/Documents/lilypond%20scores/ricci%20left%20hand%20examples.ly:108:54:55"
     id="a4436"
     transform="translate(-5.6906,-111.79082)">
    <g
       transform="translate(40.7826,122.2971)"
       id="g4434">
      <path
         transform="scale(0.0036,-0.0036)"
         d="m 215,137 c 57,0 111,-29 111,-92 0,-71 -54,-120 -101,-148 -35,-21 -74,-34 -114,-34 -57,0 -111,29 -111,92 0,71 54,120 101,148 35,21 74,34 114,34 z"
         fill="currentColor"
         id="path4432" />
    </g>
  </a>
  <a
     style="color:inherit"
     xlink:href="textedit://C:/Users/Javier/Documents/lilypond%20scores/ricci%20left%20hand%20examples.ly:108:56:57"
     id="a4442"
     transform="translate(-5.6906,-111.79082)">
    <g
       transform="translate(41.0104,115.8047)"
       id="g4440">
      <path
         transform="scale(0.002,-0.002)"
         d="M 129,129 H 259 C 259,77 291,29 340,29 350,29 354,21 354,14 354,7 350,0 340,0 291,0 243,14 194,14 145,14 98,0 49,0 39,0 34,7 34,14 c 0,7 5,15 15,15 49,0 80,48 80,100 z M 0,250 129,500 c 3,7 13,3 21,0 14,-6 28,-14 44,-14 16,0 31,8 45,14 2,1 2,1 4,1 8,0 16,-9 16,-21 V 129 H 129 v 215 c 0,15 -11,23 -20,23 -5,0 -9,-2 -11,-7 L 32,233 c -4,-7 -9,-9 -15,-9 -9,0 -19,7 -19,17 0,3 0,6 2,9 z"
         fill="currentColor"
         id="path4438" />
    </g>
  </a>
  <g
     transform="translate(36.2018,7.3562837)"
     id="g4446">
    <rect
       x="-0.062799998"
       y="-1.6497"
       width="0.12549999"
       height="4.6382999"
       ry="0.039999999"
       fill="currentColor"
       id="rect4444" />
  </g>
</svg>
