<svg
   version="1.2"
   width="51.706055mm"
   height="14.625994mm"
   viewBox="0 0 29.423601 8.3229981"
   id="svg124197"
   sodipodi:docname="loose examples-2.svg"
   xmlns:inkscape="http://www.inkscape.org/namespaces/inkscape"
   xmlns:sodipodi="http://sodipodi.sourceforge.net/DTD/sodipodi-0.dtd"
   xmlns:xlink="http://www.w3.org/1999/xlink"
   xmlns="http://www.w3.org/2000/svg"
   xmlns:svg="http://www.w3.org/2000/svg">
  <defs
     id="defs124201" />
  <sodipodi:namedview
     id="namedview124199"
     pagecolor="#ffffff"
     bordercolor="#000000"
     borderopacity="0.25"
     inkscape:showpageshadow="2"
     inkscape:pageopacity="0.0"
     inkscape:pagecheckerboard="0"
     inkscape:deskcolor="#d1d1d1"
     inkscape:document-units="mm"
     showgrid="false" />
  <style
     type="text/css"
     id="style121801"><![CDATA[
tspan { white-space: pre; }
]]></style>
  <!-- Page: 2/3 -->
  <g
     transform="translate(3.1967416e-8,5.7790017)"
     id="g123395">
    <line
       stroke-linejoin="round"
       stroke-linecap="round"
       stroke-width="0.1"
       stroke="currentColor"
       x1="0.050000001"
       y1="0"
       x2="29.3736"
       y2="0"
       id="line123393" />
  </g>
  <g
     transform="translate(3.1967416e-8,4.7790017)"
     id="g123399">
    <line
       stroke-linejoin="round"
       stroke-linecap="round"
       stroke-width="0.1"
       stroke="currentColor"
       x1="0.050000001"
       y1="0"
       x2="29.3736"
       y2="0"
       id="line123397" />
  </g>
  <g
     transform="translate(3.1967416e-8,3.7790017)"
     id="g123403">
    <line
       stroke-linejoin="round"
       stroke-linecap="round"
       stroke-width="0.1"
       stroke="currentColor"
       x1="0.050000001"
       y1="0"
       x2="29.3736"
       y2="0"
       id="line123401" />
  </g>
  <g
     transform="translate(3.1967416e-8,2.7790017)"
     id="g123407">
    <line
       stroke-linejoin="round"
       stroke-linecap="round"
       stroke-width="0.1"
       stroke="currentColor"
       x1="0.050000001"
       y1="0"
       x2="29.3736"
       y2="0"
       id="line123405" />
  </g>
  <g
     transform="translate(3.1967416e-8,1.7790017)"
     id="g123411">
    <line
       stroke-linejoin="round"
       stroke-linecap="round"
       stroke-width="0.1"
       stroke="currentColor"
       x1="0.050000001"
       y1="0"
       x2="29.3736"
       y2="0"
       id="line123409" />
  </g>
  <g
     transform="translate(3.1967416e-8,6.7790017)"
     id="g123415">
    <rect
       x="25.1653"
       y="-0.1"
       width="1.9563"
       height="0.2"
       ry="0.1"
       fill="currentColor"
       id="rect123413" />
  </g>
  <g
     transform="translate(3.1967416e-8,7.7790017)"
     id="g123419">
    <rect
       x="25.1653"
       y="-0.1"
       width="1.9563"
       height="0.2"
       ry="0.1"
       fill="currentColor"
       id="rect123417" />
  </g>
  <g
     transform="translate(3.1967416e-8,6.7790017)"
     id="g123423">
    <rect
       x="22.163"
       y="-0.1"
       width="1.9563"
       height="0.2"
       ry="0.1"
       fill="currentColor"
       id="rect123421" />
  </g>
  <g
     transform="translate(3.1967416e-8,7.7790017)"
     id="g123427">
    <rect
       x="22.163"
       y="-0.1"
       width="1.9563"
       height="0.2"
       ry="0.1"
       fill="currentColor"
       id="rect123425" />
  </g>
  <g
     transform="translate(3.1967416e-8,6.7790017)"
     id="g123431">
    <rect
       x="19.160801"
       y="-0.1"
       width="1.9563"
       height="0.2"
       ry="0.1"
       fill="currentColor"
       id="rect123429" />
  </g>
  <g
     transform="translate(3.1967416e-8,7.7790017)"
     id="g123435">
    <rect
       x="19.160801"
       y="-0.1"
       width="1.9563"
       height="0.2"
       ry="0.1"
       fill="currentColor"
       id="rect123433" />
  </g>
  <g
     transform="translate(3.1967416e-8,6.7790017)"
     id="g123439">
    <rect
       x="16.158501"
       y="-0.1"
       width="1.9563"
       height="0.2"
       ry="0.1"
       fill="currentColor"
       id="rect123437" />
  </g>
  <g
     transform="translate(3.1967416e-8,7.7790017)"
     id="g123443">
    <rect
       x="16.158501"
       y="-0.1"
       width="1.9563"
       height="0.2"
       ry="0.1"
       fill="currentColor"
       id="rect123441" />
  </g>
  <g
     transform="translate(3.1967416e-8,6.7790017)"
     id="g123447">
    <rect
       x="13.1563"
       y="-0.1"
       width="1.9563"
       height="0.2"
       ry="0.1"
       fill="currentColor"
       id="rect123445" />
  </g>
  <g
     transform="translate(3.1967416e-8,7.7790017)"
     id="g123451">
    <rect
       x="13.1563"
       y="-0.1"
       width="1.9563"
       height="0.2"
       ry="0.1"
       fill="currentColor"
       id="rect123449" />
  </g>
  <g
     transform="translate(3.1967416e-8,6.7790017)"
     id="g123455">
    <rect
       x="10.154"
       y="-0.1"
       width="1.9563"
       height="0.2"
       ry="0.1"
       fill="currentColor"
       id="rect123453" />
  </g>
  <g
     transform="translate(3.1967416e-8,7.7790017)"
     id="g123459">
    <rect
       x="10.154"
       y="-0.1"
       width="1.9563"
       height="0.2"
       ry="0.1"
       fill="currentColor"
       id="rect123457" />
  </g>
  <g
     transform="translate(29.2335,3.7790017)"
     id="g123463">
    <rect
       x="0"
       y="-2"
       width="0.19"
       height="4"
       ry="0.0000"
       fill="currentColor"
       id="rect123461" />
  </g>
  <g
     transform="translate(28.7435,3.7790017)"
     id="g123467">
    <rect
       x="0"
       y="-2"
       width="0.19"
       height="4"
       ry="0.0000"
       fill="currentColor"
       id="rect123465" />
  </g>
  <a
     style="color:inherit"
     xlink:href="textedit://C:/Users/Javier/AppData/Local/Temp/frescobaldi-qinprpfp/tmptsnuz2do/loose%20examples.ly:349:22:23"
     id="a123473"
     transform="translate(-5.6906,-109.3555)">
    <g
       transform="translate(28.1796,113.1345)"
       id="g123471">
      <path
         transform="scale(0.004,-0.004)"
         d="m 218,136 c 55,0 108,-28 108,-89 0,-71 -55,-121 -102,-149 -35,-21 -75,-34 -116,-34 -55,0 -108,28 -108,89 0,71 55,121 102,149 35,21 75,34 116,34 z"
         fill="currentColor"
         id="path123469" />
    </g>
  </a>
  <g
     transform="translate(17.7237,3.7790017)"
     id="g123477">
    <rect
       x="-0.064999998"
       y="-2.5"
       width="0.13"
       height="6.3139"
       ry="0.039999999"
       fill="currentColor"
       id="rect123475" />
  </g>
  <a
     style="color:inherit"
     xlink:href="textedit://C:/Users/Javier/AppData/Local/Temp/frescobaldi-qinprpfp/tmptsnuz2do/loose%20examples.ly:349:18:19"
     id="a123483"
     transform="translate(-5.6906,-109.3555)">
    <g
       transform="translate(28.1796,117.1345)"
       id="g123481">
      <path
         transform="scale(0.004,-0.004)"
         d="m 218,136 c 55,0 108,-28 108,-89 0,-71 -55,-121 -102,-149 -35,-21 -75,-34 -116,-34 -55,0 -108,28 -108,89 0,71 55,121 102,149 35,21 75,34 116,34 z"
         fill="currentColor"
         id="path123479" />
    </g>
  </a>
  <g
     transform="translate(20.726,3.7790017)"
     id="g123487">
    <rect
       x="-0.064999998"
       y="-3"
       width="0.13"
       height="6.8139"
       ry="0.039999999"
       fill="currentColor"
       id="rect123485" />
  </g>
  <a
     style="color:inherit"
     xlink:href="textedit://C:/Users/Javier/AppData/Local/Temp/frescobaldi-qinprpfp/tmptsnuz2do/loose%20examples.ly:349:14:15"
     id="a123493"
     transform="translate(-5.6906,-109.3555)">
    <g
       transform="translate(25.4368,110.5845)"
       id="g123491">
      <path
         transform="scale(0.0022,-0.0022)"
         d="m 155,471 c -34,0 -70,-8 -70,-38 0,-19 31,-23 31,-42 0,-28 -23,-51 -51,-51 -28,0 -51,23 -51,51 0,67 68,109 141,109 93,0 174,-31 174,-113 0,-41 -6,-77 -42,-94 -11,-5 -17,-16 -17,-27 0,-11 6,-22 17,-27 40,-19 59,-53 59,-98 C 346,47 263,0 160,0 78,0 0,45 0,119 c 0,32 26,58 58,58 32,0 58,-26 58,-58 0,-22 -36,-26 -36,-48 0,-33 42,-42 80,-42 46,0 56,58 56,112 v 38 c 0,40 -4,69 -43,69 H 99 c -12,0 -18,9 -18,18 0,9 6,18 18,18 h 74 c 40,0 43,31 43,73 v 30 c 0,50 -16,84 -61,84 z"
         fill="currentColor"
         id="path123489" />
    </g>
  </a>
  <a
     style="color:inherit"
     xlink:href="textedit://C:/Users/Javier/AppData/Local/Temp/frescobaldi-qinprpfp/tmptsnuz2do/loose%20examples.ly:349:9:10"
     id="a123499"
     transform="translate(-5.6906,-109.3555)">
    <g
       transform="translate(25.1774,113.6345)"
       id="g123497">
      <path
         transform="scale(0.004,-0.004)"
         d="m 218,136 c 55,0 108,-28 108,-89 0,-71 -55,-121 -102,-149 -35,-21 -75,-34 -116,-34 -55,0 -108,28 -108,89 0,71 55,121 102,149 35,21 75,34 116,34 z"
         fill="currentColor"
         id="path123495" />
    </g>
  </a>
  <a
     style="color:inherit"
     xlink:href="textedit://C:/Users/Javier/AppData/Local/Temp/frescobaldi-qinprpfp/tmptsnuz2do/loose%20examples.ly:349:5:6"
     id="a123505"
     transform="translate(-5.6906,-109.3555)">
    <g
       transform="translate(25.1774,117.1345)"
       id="g123503">
      <path
         transform="scale(0.004,-0.004)"
         d="m 218,136 c 55,0 108,-28 108,-89 0,-71 -55,-121 -102,-149 -35,-21 -75,-34 -116,-34 -55,0 -108,28 -108,89 0,71 55,121 102,149 35,21 75,34 116,34 z"
         fill="currentColor"
         id="path123501" />
    </g>
  </a>
  <a
     style="color:inherit"
     xlink:href="textedit://C:/Users/Javier/AppData/Local/Temp/frescobaldi-qinprpfp/tmptsnuz2do/loose%20examples.ly:349:27:28"
     id="a123511"
     transform="translate(-5.6906,-109.3555)">
    <g
       transform="translate(28.3708,110.5845)"
       id="g123509">
      <path
         transform="scale(0.0022,-0.0022)"
         d="m 198,284 c 24,15 48,29 65,52 12,16 19,34 28,52 2,5 6,7 11,7 8,0 16,-6 16,-17 V 161 h 79 c 12,0 18,-9 18,-18 0,-9 -6,-18 -18,-18 h -79 c 2,-51 33,-96 80,-96 10,0 15,-8 15,-15 C 413,7 408,0 398,0 349,0 302,14 253,14 204,14 156,0 107,0 97,0 93,7 93,14 c 0,7 4,15 14,15 47,0 79,45 81,96 H 36 c -29,0 -38,17 -38,28 0,3 1,6 2,8 78,88 123,201 123,319 0,11 8,21 17,21 1,0 3,-1 4,-1 25,-7 50,-14 76,-14 26,0 52,7 77,14 2,1 4,1 6,1 10,0 17,-7 17,-14 0,-2 0,-5 -2,-7 L 36,161 h 152 v 96 c 0,10 1,21 10,27 z"
         fill="currentColor"
         id="path123507" />
    </g>
  </a>
  <g
     transform="translate(23.7282,3.7790017)"
     id="g123515">
    <rect
       x="-0.064999998"
       y="-3.3333001"
       width="0.13"
       height="7.1472001"
       ry="0.039999999"
       fill="currentColor"
       id="rect123513" />
  </g>
  <a
     style="color:inherit"
     xlink:href="textedit://C:/Users/Javier/AppData/Local/Temp/frescobaldi-qinprpfp/tmptsnuz2do/loose%20examples.ly:349:31:32"
     id="a123521"
     transform="translate(-5.6906,-109.3555)">
    <g
       transform="translate(31.1819,117.1345)"
       id="g123519">
      <path
         transform="scale(0.004,-0.004)"
         d="m 218,136 c 55,0 108,-28 108,-89 0,-71 -55,-121 -102,-149 -35,-21 -75,-34 -116,-34 -55,0 -108,28 -108,89 0,71 55,121 102,149 35,21 75,34 116,34 z"
         fill="currentColor"
         id="path123517" />
    </g>
  </a>
  <a
     style="color:inherit"
     xlink:href="textedit://C:/Users/Javier/AppData/Local/Temp/frescobaldi-qinprpfp/tmptsnuz2do/loose%20examples.ly:349:35:36"
     id="a123527"
     transform="translate(-5.6906,-109.3555)">
    <g
       transform="translate(31.1819,112.6345)"
       id="g123525">
      <path
         transform="scale(0.004,-0.004)"
         d="m 218,136 c 55,0 108,-28 108,-89 0,-71 -55,-121 -102,-149 -35,-21 -75,-34 -116,-34 -55,0 -108,28 -108,89 0,71 55,121 102,149 35,21 75,34 116,34 z"
         fill="currentColor"
         id="path123523" />
    </g>
  </a>
  <a
     style="color:inherit"
     xlink:href="textedit://C:/Users/Javier/AppData/Local/Temp/frescobaldi-qinprpfp/tmptsnuz2do/loose%20examples.ly:349:38:39"
     id="a123533"
     transform="translate(-5.6906,-109.3555)">
    <g
       transform="translate(31.3731,110.5845)"
       id="g123531">
      <path
         transform="scale(0.0022,-0.0022)"
         d="m 198,284 c 24,15 48,29 65,52 12,16 19,34 28,52 2,5 6,7 11,7 8,0 16,-6 16,-17 V 161 h 79 c 12,0 18,-9 18,-18 0,-9 -6,-18 -18,-18 h -79 c 2,-51 33,-96 80,-96 10,0 15,-8 15,-15 C 413,7 408,0 398,0 349,0 302,14 253,14 204,14 156,0 107,0 97,0 93,7 93,14 c 0,7 4,15 14,15 47,0 79,45 81,96 H 36 c -29,0 -38,17 -38,28 0,3 1,6 2,8 78,88 123,201 123,319 0,11 8,21 17,21 1,0 3,-1 4,-1 25,-7 50,-14 76,-14 26,0 52,7 77,14 2,1 4,1 6,1 10,0 17,-7 17,-14 0,-2 0,-5 -2,-7 L 36,161 h 152 v 96 c 0,10 1,21 10,27 z"
         fill="currentColor"
         id="path123529" />
    </g>
  </a>
  <g
     transform="translate(26.7305,3.7790017)"
     id="g123537">
    <rect
       x="-0.064999998"
       y="-3.6666999"
       width="0.13"
       height="7.4805999"
       ry="0.039999999"
       fill="currentColor"
       id="rect123535" />
  </g>
  <a
     style="color:inherit"
     xlink:href="textedit://C:/Users/Javier/AppData/Local/Temp/frescobaldi-qinprpfp/tmptsnuz2do/loose%20examples.ly:344:4:5"
     id="a123555"
     transform="translate(-5.6906,-109.3555)">
    <g
       transform="translate(10.1106,113.1345)"
       id="g123541">
      <path
         transform="scale(0.004,-0.004)"
         d="m 27,41 -1,-66 v -11 c 0,-22 1,-44 4,-66 45,38 93,80 93,139 0,33 -14,67 -43,67 C 49,104 28,74 27,41 Z m -42,-179 -12,595 c 8,5 18,8 27,8 9,0 19,-3 27,-8 L 20,112 c 25,21 58,34 91,34 52,0 89,-48 89,-102 0,-80 -86,-117 -147,-169 -15,-13 -24,-38 -45,-38 -13,0 -23,11 -23,25 z"
         fill="currentColor"
         id="path123539" />
    </g>
    <g
       transform="translate(11.0306,111.6345)"
       id="g123545">
      <path
         transform="scale(0.004,-0.004)"
         d="m 27,41 -1,-66 v -11 c 0,-22 1,-44 4,-66 45,38 93,80 93,139 0,33 -14,67 -43,67 C 49,104 28,74 27,41 Z m -42,-179 -12,595 c 8,5 18,8 27,8 9,0 19,-3 27,-8 L 20,112 c 25,21 58,34 91,34 52,0 89,-48 89,-102 0,-80 -86,-117 -147,-169 -15,-13 -24,-38 -45,-38 -13,0 -23,11 -23,25 z"
         fill="currentColor"
         id="path123543" />
    </g>
    <g
       transform="translate(11.9506,113.6345)"
       id="g123549">
      <path
         transform="scale(0.004,-0.004)"
         d="m 27,41 -1,-66 v -11 c 0,-22 1,-44 4,-66 45,38 93,80 93,139 0,33 -14,67 -43,67 C 49,104 28,74 27,41 Z m -42,-179 -12,595 c 8,5 18,8 27,8 9,0 19,-3 27,-8 L 20,112 c 25,21 58,34 91,34 52,0 89,-48 89,-102 0,-80 -86,-117 -147,-169 -15,-13 -24,-38 -45,-38 -13,0 -23,11 -23,25 z"
         fill="currentColor"
         id="path123547" />
    </g>
    <g
       transform="translate(12.8706,112.1345)"
       id="g123553">
      <path
         transform="scale(0.004,-0.004)"
         d="m 27,41 -1,-66 v -11 c 0,-22 1,-44 4,-66 45,38 93,80 93,139 0,33 -14,67 -43,67 C 49,104 28,74 27,41 Z m -42,-179 -12,595 c 8,5 18,8 27,8 9,0 19,-3 27,-8 L 20,112 c 25,21 58,34 91,34 52,0 89,-48 89,-102 0,-80 -86,-117 -147,-169 -15,-13 -24,-38 -45,-38 -13,0 -23,11 -23,25 z"
         fill="currentColor"
         id="path123551" />
    </g>
  </a>
  <a
     style="color:inherit"
     xlink:href="textedit://C:/Users/Javier/AppData/Local/Temp/frescobaldi-qinprpfp/tmptsnuz2do/loose%20examples.ly:348:29:30"
     id="a123561"
     transform="translate(-5.6906,-109.3555)">
    <g
       transform="translate(22.1751,114.1345)"
       id="g123559">
      <path
         transform="scale(0.004,-0.004)"
         d="m 218,136 c 55,0 108,-28 108,-89 0,-71 -55,-121 -102,-149 -35,-21 -75,-34 -116,-34 -55,0 -108,28 -108,89 0,71 55,121 102,149 35,21 75,34 116,34 z"
         fill="currentColor"
         id="path123557" />
    </g>
  </a>
  <g
     transform="translate(11.7192,3.7790017)"
     id="g123565">
    <rect
       x="-0.064999998"
       y="-1.5"
       width="0.13"
       height="5.3139"
       ry="0.039999999"
       fill="currentColor"
       id="rect123563" />
  </g>
  <g
     transform="translate(0.80000003,4.7790017)"
     id="g123569">
    <path
       transform="scale(0.004,-0.004)"
       d="m 266,-635 h -6 c -108,0 -195,88 -195,197 0,58 53,103 112,103 54,0 95,-47 95,-103 0,-52 -43,-95 -95,-95 -11,0 -21,2 -31,6 26,-39 68,-65 117,-65 h 4 z m 195,432 c 68,24 113,95 113,164 0,90 -66,179 -173,190 24,-116 46,-231 60,-354 z M 74,28 c 0,-135 129,-247 264,-247 28,0 55,2 82,6 C 406,-86 383,32 357,151 278,143 233,90 233,32 c 0,-44 25,-91 81,-123 5,-5 7,-10 7,-15 0,-11 -10,-22 -22,-22 -3,0 -6,1 -9,2 -80,43 -117,115 -117,185 0,88 58,174 160,197 -14,58 -29,117 -46,175 C 180,310 74,188 74,28 Z M 335,-262 C 147,-262 2,-90 2,112 c 0,177 131,306 248,441 -19,62 -37,125 -45,190 -6,52 -7,104 -7,156 0,115 55,224 149,292 6,5 14,5 20,0 71,-84 133,-245 133,-358 0,-143 -86,-255 -180,-364 21,-68 39,-138 56,-207 4,0 9,1 13,1 155,0 256,-128 256,-261 0,-76 -33,-154 -107,-210 -22,-17 -47,-28 -73,-36 3,-35 5,-70 5,-105 0,-19 -1,-39 -2,-58 -7,-119 -88,-225 -202,-228 l 1,43 c 93,2 153,92 159,191 1,18 2,37 2,55 0,31 -1,61 -4,92 -29,-5 -58,-8 -89,-8 z m 93,1178 c 0,55 -4,79 -20,129 -99,-48 -162,-149 -162,-259 0,-74 18,-133 36,-194 80,97 146,198 146,324 z"
       fill="currentColor"
       id="path123567" />
  </g>
  <a
     style="color:inherit"
     xlink:href="textedit://C:/Users/Javier/AppData/Local/Temp/frescobaldi-qinprpfp/tmptsnuz2do/loose%20examples.ly:348:9:10"
     id="a123575"
     transform="translate(-5.6906,-109.3555)">
    <g
       transform="translate(16.1706,115.1345)"
       id="g123573">
      <path
         transform="scale(0.004,-0.004)"
         d="m 218,136 c 55,0 108,-28 108,-89 0,-71 -55,-121 -102,-149 -35,-21 -75,-34 -116,-34 -55,0 -108,28 -108,89 0,71 55,121 102,149 35,21 75,34 116,34 z"
         fill="currentColor"
         id="path123571" />
    </g>
  </a>
  <a
     style="color:inherit"
     xlink:href="textedit://C:/Users/Javier/AppData/Local/Temp/frescobaldi-qinprpfp/tmptsnuz2do/loose%20examples.ly:348:5:6"
     id="a123581"
     transform="translate(-5.6906,-109.3555)">
    <g
       transform="translate(16.1706,117.1345)"
       id="g123579">
      <path
         transform="scale(0.004,-0.004)"
         d="m 218,136 c 55,0 108,-28 108,-89 0,-71 -55,-121 -102,-149 -35,-21 -75,-34 -116,-34 -55,0 -108,28 -108,89 0,71 55,121 102,149 35,21 75,34 116,34 z"
         fill="currentColor"
         id="path123577" />
    </g>
  </a>
  <g
     transform="translate(14.7215,3.7790017)"
     id="g123585">
    <rect
       x="-0.064999998"
       y="-2"
       width="0.13"
       height="5.8139"
       ry="0.039999999"
       fill="currentColor"
       id="rect123583" />
  </g>
  <a
     style="color:inherit"
     xlink:href="textedit://C:/Users/Javier/AppData/Local/Temp/frescobaldi-qinprpfp/tmptsnuz2do/loose%20examples.ly:348:25:26"
     id="a123591"
     transform="translate(-5.6906,-109.3555)">
    <g
       transform="translate(22.1751,117.1345)"
       id="g123589">
      <path
         transform="scale(0.004,-0.004)"
         d="m 218,136 c 55,0 108,-28 108,-89 0,-71 -55,-121 -102,-149 -35,-21 -75,-34 -116,-34 -55,0 -108,28 -108,89 0,71 55,121 102,149 35,21 75,34 116,34 z"
         fill="currentColor"
         id="path123587" />
    </g>
  </a>
  <a
     style="color:inherit"
     xlink:href="textedit://C:/Users/Javier/AppData/Local/Temp/frescobaldi-qinprpfp/tmptsnuz2do/loose%20examples.ly:348:20:21"
     id="a123597"
     transform="translate(-5.6906,-109.3555)">
    <g
       transform="translate(19.1729,114.6345)"
       id="g123595">
      <path
         transform="scale(0.004,-0.004)"
         d="m 218,136 c 55,0 108,-28 108,-89 0,-71 -55,-121 -102,-149 -35,-21 -75,-34 -116,-34 -55,0 -108,28 -108,89 0,71 55,121 102,149 35,21 75,34 116,34 z"
         fill="currentColor"
         id="path123593" />
    </g>
  </a>
  <a
     style="color:inherit"
     xlink:href="textedit://C:/Users/Javier/AppData/Local/Temp/frescobaldi-qinprpfp/tmptsnuz2do/loose%20examples.ly:348:16:17"
     id="a123603"
     transform="translate(-5.6906,-109.3555)">
    <g
       transform="translate(19.1729,117.1345)"
       id="g123601">
      <path
         transform="scale(0.004,-0.004)"
         d="m 218,136 c 55,0 108,-28 108,-89 0,-71 -55,-121 -102,-149 -35,-21 -75,-34 -116,-34 -55,0 -108,28 -108,89 0,71 55,121 102,149 35,21 75,34 116,34 z"
         fill="currentColor"
         id="path123599" />
    </g>
  </a>
</svg>
