<svg
   version="1.2"
   width="90.082123mm"
   height="18.388878mm"
   viewBox="0 0 51.261704 10.464287"
   id="svg124197"
   sodipodi:docname="loose examples-2.svg"
   xmlns:inkscape="http://www.inkscape.org/namespaces/inkscape"
   xmlns:sodipodi="http://sodipodi.sourceforge.net/DTD/sodipodi-0.dtd"
   xmlns:xlink="http://www.w3.org/1999/xlink"
   xmlns="http://www.w3.org/2000/svg"
   xmlns:svg="http://www.w3.org/2000/svg">
  <defs
     id="defs124201" />
  <sodipodi:namedview
     id="namedview124199"
     pagecolor="#ffffff"
     bordercolor="#000000"
     borderopacity="0.25"
     inkscape:showpageshadow="2"
     inkscape:pageopacity="0.0"
     inkscape:pagecheckerboard="0"
     inkscape:deskcolor="#d1d1d1"
     inkscape:document-units="mm"
     showgrid="false" />
  <style
     type="text/css"
     id="style121801"><![CDATA[
tspan { white-space: pre; }
]]></style>
  <!-- Page: 2/3 -->
  <g
     transform="translate(3.1967416e-8,6.2400034)"
     id="g123607">
    <line
       stroke-linejoin="round"
       stroke-linecap="round"
       stroke-width="0.1"
       stroke="currentColor"
       x1="0.050000001"
       y1="0"
       x2="51.2117"
       y2="0"
       id="line123605" />
  </g>
  <g
     transform="translate(3.1967416e-8,5.2400034)"
     id="g123611">
    <line
       stroke-linejoin="round"
       stroke-linecap="round"
       stroke-width="0.1"
       stroke="currentColor"
       x1="0.050000001"
       y1="0"
       x2="51.2117"
       y2="0"
       id="line123609" />
  </g>
  <g
     transform="translate(3.1967416e-8,4.2400034)"
     id="g123615">
    <line
       stroke-linejoin="round"
       stroke-linecap="round"
       stroke-width="0.1"
       stroke="currentColor"
       x1="0.050000001"
       y1="0"
       x2="51.2117"
       y2="0"
       id="line123613" />
  </g>
  <g
     transform="translate(3.1967416e-8,3.2400034)"
     id="g123619">
    <line
       stroke-linejoin="round"
       stroke-linecap="round"
       stroke-width="0.1"
       stroke="currentColor"
       x1="0.050000001"
       y1="0"
       x2="51.2117"
       y2="0"
       id="line123617" />
  </g>
  <g
     transform="translate(3.1967416e-8,2.2400034)"
     id="g123623">
    <line
       stroke-linejoin="round"
       stroke-linecap="round"
       stroke-width="0.1"
       stroke="currentColor"
       x1="0.050000001"
       y1="0"
       x2="51.2117"
       y2="0"
       id="line123621" />
  </g>
  <g
     transform="translate(3.1967416e-8,7.2400034)"
     id="g123627">
    <rect
       x="47.501499"
       y="-0.1"
       width="1.9563"
       height="0.2"
       ry="0.1"
       fill="currentColor"
       id="rect123625" />
  </g>
  <g
     transform="translate(3.1967416e-8,8.2400034)"
     id="g123631">
    <rect
       x="47.501499"
       y="-0.1"
       width="1.9563"
       height="0.2"
       ry="0.1"
       fill="currentColor"
       id="rect123629" />
  </g>
  <g
     transform="translate(3.1967416e-8,7.2400034)"
     id="g123635">
    <rect
       x="42.493"
       y="-0.1"
       width="1.9563"
       height="0.2"
       ry="0.1"
       fill="currentColor"
       id="rect123633" />
  </g>
  <g
     transform="translate(3.1967416e-8,8.2400034)"
     id="g123639">
    <rect
       x="42.493"
       y="-0.1"
       width="1.9563"
       height="0.2"
       ry="0.1"
       fill="currentColor"
       id="rect123637" />
  </g>
  <g
     transform="translate(3.1967416e-8,7.2400034)"
     id="g123643">
    <rect
       x="37.4846"
       y="-0.1"
       width="1.9563"
       height="0.2"
       ry="0.1"
       fill="currentColor"
       id="rect123641" />
  </g>
  <g
     transform="translate(3.1967416e-8,8.2400034)"
     id="g123647">
    <rect
       x="37.4846"
       y="-0.1"
       width="1.9563"
       height="0.2"
       ry="0.1"
       fill="currentColor"
       id="rect123645" />
  </g>
  <g
     transform="translate(3.1967416e-8,7.2400034)"
     id="g123651">
    <rect
       x="32.4762"
       y="-0.1"
       width="1.9563"
       height="0.2"
       ry="0.1"
       fill="currentColor"
       id="rect123649" />
  </g>
  <g
     transform="translate(3.1967416e-8,8.2400034)"
     id="g123655">
    <rect
       x="32.4762"
       y="-0.1"
       width="1.9563"
       height="0.2"
       ry="0.1"
       fill="currentColor"
       id="rect123653" />
  </g>
  <g
     transform="translate(3.1967416e-8,7.2400034)"
     id="g123659">
    <rect
       x="27.4678"
       y="-0.1"
       width="1.9563"
       height="0.2"
       ry="0.1"
       fill="currentColor"
       id="rect123657" />
  </g>
  <g
     transform="translate(3.1967416e-8,8.2400034)"
     id="g123663">
    <rect
       x="27.4678"
       y="-0.1"
       width="1.9563"
       height="0.2"
       ry="0.1"
       fill="currentColor"
       id="rect123661" />
  </g>
  <g
     transform="translate(3.1967416e-8,7.2400034)"
     id="g123667">
    <rect
       x="22.459299"
       y="-0.1"
       width="1.9563"
       height="0.2"
       ry="0.1"
       fill="currentColor"
       id="rect123665" />
  </g>
  <g
     transform="translate(3.1967416e-8,8.2400034)"
     id="g123671">
    <rect
       x="22.459299"
       y="-0.1"
       width="1.9563"
       height="0.2"
       ry="0.1"
       fill="currentColor"
       id="rect123669" />
  </g>
  <g
     transform="translate(3.1967416e-8,7.2400034)"
     id="g123675">
    <rect
       x="17.450899"
       y="-0.1"
       width="1.9563"
       height="0.2"
       ry="0.1"
       fill="currentColor"
       id="rect123673" />
  </g>
  <g
     transform="translate(3.1967416e-8,8.2400034)"
     id="g123679">
    <rect
       x="17.450899"
       y="-0.1"
       width="1.9563"
       height="0.2"
       ry="0.1"
       fill="currentColor"
       id="rect123677" />
  </g>
  <g
     transform="translate(3.1967416e-8,7.2400034)"
     id="g123683">
    <rect
       x="12.4425"
       y="-0.1"
       width="1.9563"
       height="0.2"
       ry="0.1"
       fill="currentColor"
       id="rect123681" />
  </g>
  <g
     transform="translate(3.1967416e-8,8.2400034)"
     id="g123687">
    <rect
       x="12.4425"
       y="-0.1"
       width="1.9563"
       height="0.2"
       ry="0.1"
       fill="currentColor"
       id="rect123685" />
  </g>
  <g
     transform="translate(51.0717,4.2400034)"
     id="g123691">
    <rect
       x="0"
       y="-2"
       width="0.19"
       height="4"
       ry="0.0000"
       fill="currentColor"
       id="rect123689" />
  </g>
  <g
     transform="translate(50.5817,4.2400034)"
     id="g123695">
    <rect
       x="0"
       y="-2"
       width="0.19"
       height="4"
       ry="0.0000"
       fill="currentColor"
       id="rect123693" />
  </g>
  <a
     style="color:inherit"
     xlink:href="textedit://C:/Users/Javier/AppData/Local/Temp/frescobaldi-qinprpfp/tmptsnuz2do/loose%20examples.ly:363:36:37"
     id="a123701"
     transform="translate(-5.6906,-125.5348)">
    <g
       transform="translate(43.5012,133.7748)"
       id="g123699">
      <path
         transform="scale(0.004,-0.004)"
         d="m 218,136 c 55,0 108,-28 108,-89 0,-71 -55,-121 -102,-149 -35,-21 -75,-34 -116,-34 -55,0 -108,28 -108,89 0,71 55,121 102,149 35,21 75,34 116,34 z"
         fill="currentColor"
         id="path123697" />
    </g>
  </a>
  <a
     style="color:inherit"
     xlink:href="textedit://C:/Users/Javier/AppData/Local/Temp/frescobaldi-qinprpfp/tmptsnuz2do/loose%20examples.ly:363:28:29"
     id="a123707"
     transform="translate(-5.6906,-125.5348)">
    <g
       transform="translate(38.4928,133.7748)"
       id="g123705">
      <path
         transform="scale(0.004,-0.004)"
         d="m 218,136 c 55,0 108,-28 108,-89 0,-71 -55,-121 -102,-149 -35,-21 -75,-34 -116,-34 -55,0 -108,28 -108,89 0,71 55,121 102,149 35,21 75,34 116,34 z"
         fill="currentColor"
         id="path123703" />
    </g>
  </a>
  <g
     transform="translate(34.0414,4.2400034)"
     id="g123711">
    <rect
       x="-0.064999998"
       y="-2.5559001"
       width="0.13"
       height="6.3698001"
       ry="0.039999999"
       fill="currentColor"
       id="rect123709" />
  </g>
  <a
     style="color:inherit"
     xlink:href="textedit://C:/Users/Javier/AppData/Local/Temp/frescobaldi-qinprpfp/tmptsnuz2do/loose%20examples.ly:363:33:34"
     id="a123717"
     transform="translate(-5.6906,-125.5348)">
    <g
       transform="translate(41.247,130.7748)"
       id="g123715">
      <path
         transform="scale(0.004,-0.004)"
         d="m 218,136 c 55,0 108,-28 108,-89 0,-71 -55,-121 -102,-149 -35,-21 -75,-34 -116,-34 -55,0 -108,28 -108,89 0,71 55,121 102,149 35,21 75,34 116,34 z"
         fill="currentColor"
         id="path123713" />
    </g>
  </a>
  <g
     transform="translate(36.7956,4.2400034)"
     id="g123721">
    <rect
       x="-0.064999998"
       y="-2.2541001"
       width="0.13"
       height="3.0680001"
       ry="0.039999999"
       fill="currentColor"
       id="rect123719" />
  </g>
  <a
     style="color:inherit"
     xlink:href="textedit://C:/Users/Javier/AppData/Local/Temp/frescobaldi-qinprpfp/tmptsnuz2do/loose%20examples.ly:362:7:8"
     id="a123727"
     transform="translate(-5.6906,-125.5348)">
    <g
       transform="translate(16.2049,129.7748)"
       id="g123725">
      <path
         stroke-width="0.08"
         stroke-linejoin="round"
         stroke-linecap="round"
         stroke="currentColor"
         fill="currentColor"
         d="m 0.5928,4.045 c 1.2968,1.4776 5.6148,2.0722 7.2626,1 v 0 c -1.6315,0.9533 -5.9495,0.3588 -7.2626,-1 z"
         id="path123723" />
    </g>
  </a>
  <a
     style="color:inherit"
     xlink:href="textedit://C:/Users/Javier/AppData/Local/Temp/frescobaldi-qinprpfp/tmptsnuz2do/loose%20examples.ly:363:18:19"
     id="a123733"
     transform="translate(-5.6906,-125.5348)">
    <g
       transform="translate(33.4844,133.7748)"
       id="g123731">
      <path
         transform="scale(0.004,-0.004)"
         d="m 218,136 c 55,0 108,-28 108,-89 0,-71 -55,-121 -102,-149 -35,-21 -75,-34 -116,-34 -55,0 -108,28 -108,89 0,71 55,121 102,149 35,21 75,34 116,34 z"
         fill="currentColor"
         id="path123729" />
    </g>
  </a>
  <g
     transform="translate(29.033,4.2400034)"
     id="g123737">
    <rect
       x="-0.064999998"
       y="-2.8204999"
       width="0.13"
       height="6.6343999"
       ry="0.039999999"
       fill="currentColor"
       id="rect123735" />
  </g>
  <a
     style="color:inherit"
     xlink:href="textedit://C:/Users/Javier/AppData/Local/Temp/frescobaldi-qinprpfp/tmptsnuz2do/loose%20examples.ly:363:23:24"
     id="a123743"
     transform="translate(-5.6906,-125.5348)">
    <g
       transform="translate(36.2386,130.2748)"
       id="g123741">
      <path
         transform="scale(0.004,-0.004)"
         d="m 218,136 c 55,0 108,-28 108,-89 0,-71 -55,-121 -102,-149 -35,-21 -75,-34 -116,-34 -55,0 -108,28 -108,89 0,71 55,121 102,149 35,21 75,34 116,34 z"
         fill="currentColor"
         id="path123739" />
    </g>
  </a>
  <g
     transform="translate(31.7872,4.2400034)"
     id="g123747">
    <rect
       x="-0.064999998"
       y="-2.8029001"
       width="0.13"
       height="3.1168001"
       ry="0.039999999"
       fill="currentColor"
       id="rect123745" />
  </g>
  <g
     transform="translate(46.8125,4.2400034)"
     id="g123751">
    <rect
       x="-0.064999998"
       y="-1.2541"
       width="0.13"
       height="3.0680001"
       ry="0.039999999"
       fill="currentColor"
       id="rect123749" />
  </g>
  <a
     style="color:inherit"
     xlink:href="textedit://C:/Users/Javier/AppData/Local/Temp/frescobaldi-qinprpfp/tmptsnuz2do/loose%20examples.ly:363:53:54"
     id="a123757"
     transform="translate(-5.6906,-125.5348)">
    <g
       transform="translate(53.5181,133.7748)"
       id="g123755">
      <path
         transform="scale(0.004,-0.004)"
         d="m 218,136 c 55,0 108,-28 108,-89 0,-71 -55,-121 -102,-149 -35,-21 -75,-34 -116,-34 -55,0 -108,28 -108,89 0,71 55,121 102,149 35,21 75,34 116,34 z"
         fill="currentColor"
         id="path123753" />
    </g>
  </a>
  <g
     transform="translate(49.0667,4.2400034)"
     id="g123761">
    <rect
       x="-0.064999998"
       y="-1.0071"
       width="0.13"
       height="4.8210001"
       ry="0.039999999"
       fill="currentColor"
       id="rect123759" />
  </g>
  <a
     style="color:inherit"
     xlink:href="textedit://C:/Users/Javier/AppData/Local/Temp/frescobaldi-qinprpfp/tmptsnuz2do/loose%20examples.ly:363:49:50"
     id="a123767"
     transform="translate(-5.6906,-125.5348)">
    <g
       transform="translate(51.2638,131.7748)"
       id="g123765">
      <path
         transform="scale(0.004,-0.004)"
         d="m 218,136 c 55,0 108,-28 108,-89 0,-71 -55,-121 -102,-149 -35,-21 -75,-34 -116,-34 -55,0 -108,28 -108,89 0,71 55,121 102,149 35,21 75,34 116,34 z"
         fill="currentColor"
         id="path123763" />
    </g>
  </a>
  <g
     transform="translate(41.739,2.4300034)"
     id="g123771">
    <polygon
       stroke-linejoin="round"
       stroke-linecap="round"
       stroke-width="0.08"
       fill="currentColor"
       stroke="currentColor"
       points="7.3526,0.61 7.3526,1.01 0.04,0.2 0.04,-0.2 "
       id="polygon123769" />
  </g>
  <g
     transform="translate(41.739,3.2400034)"
     id="g123775">
    <polygon
       stroke-linejoin="round"
       stroke-linecap="round"
       stroke-width="0.08"
       fill="currentColor"
       stroke="currentColor"
       points="7.3526,0.61 7.3526,1.01 0.04,0.2 0.04,-0.2 "
       id="polygon123773" />
  </g>
  <g
     transform="translate(31.7222,1.4300034)"
     id="g123779">
    <polygon
       stroke-linejoin="round"
       stroke-linecap="round"
       stroke-width="0.08"
       fill="currentColor"
       stroke="currentColor"
       points="7.3526,0.61 7.3526,1.01 0.04,0.2 0.04,-0.2 "
       id="polygon123777" />
  </g>
  <g
     transform="translate(31.7222,2.2400034)"
     id="g123783">
    <polygon
       stroke-linejoin="round"
       stroke-linecap="round"
       stroke-width="0.08"
       fill="currentColor"
       stroke="currentColor"
       points="7.3526,0.61 7.3526,1.01 0.04,0.2 0.04,-0.2 "
       id="polygon123781" />
  </g>
  <g
     transform="translate(21.7053,0.24000343)"
     id="g123787">
    <polygon
       stroke-linejoin="round"
       stroke-linecap="round"
       stroke-width="0.08"
       fill="currentColor"
       stroke="currentColor"
       points="7.3526,0.99 7.3526,1.39 0.04,0.2 0.04,-0.2 "
       id="polygon123785" />
  </g>
  <g
     transform="translate(21.7053,1.0500034)"
     id="g123791">
    <polygon
       stroke-linejoin="round"
       stroke-linecap="round"
       stroke-width="0.08"
       fill="currentColor"
       stroke="currentColor"
       points="7.3526,0.99 7.3526,1.39 0.04,0.2 0.04,-0.2 "
       id="polygon123789" />
  </g>
  <g
     transform="translate(11.6885,3.4300034)"
     id="g123795">
    <polygon
       stroke-linejoin="round"
       stroke-linecap="round"
       stroke-width="0.08"
       fill="currentColor"
       stroke="currentColor"
       points="7.3526,-0.2 7.3526,0.2 0.04,0.2 0.04,-0.2 "
       id="polygon123793" />
  </g>
  <g
     transform="translate(11.6885,4.2400034)"
     id="g123799">
    <polygon
       stroke-linejoin="round"
       stroke-linecap="round"
       stroke-width="0.08"
       fill="currentColor"
       stroke="currentColor"
       points="7.3526,-0.2 7.3526,0.2 0.04,0.2 0.04,-0.2 "
       id="polygon123797" />
  </g>
  <a
     style="color:inherit"
     xlink:href="textedit://C:/Users/Javier/AppData/Local/Temp/frescobaldi-qinprpfp/tmptsnuz2do/loose%20examples.ly:363:6:7"
     id="a123805"
     transform="translate(-5.6906,-125.5348)">
    <g
       transform="translate(26.2217,129.7748)"
       id="g123803">
      <path
         stroke-width="0.08"
         stroke-linejoin="round"
         stroke-linecap="round"
         stroke="currentColor"
         fill="currentColor"
         d="m 0.6441,4.545 c 2.7168,1.8753 24.5128,2.2745 27.2964,0.5 v 0 C 25.159,6.6995 3.3631,6.3003 0.6441,4.545 Z"
         id="path123801" />
    </g>
  </a>
  <a
     style="color:inherit"
     xlink:href="textedit://C:/Users/Javier/AppData/Local/Temp/frescobaldi-qinprpfp/tmptsnuz2do/loose%20examples.ly:363:41:42"
     id="a123811"
     transform="translate(-5.6906,-125.5348)">
    <g
       transform="translate(46.2554,131.2748)"
       id="g123809">
      <path
         transform="scale(0.004,-0.004)"
         d="m 218,136 c 55,0 108,-28 108,-89 0,-71 -55,-121 -102,-149 -35,-21 -75,-34 -116,-34 -55,0 -108,28 -108,89 0,71 55,121 102,149 35,21 75,34 116,34 z"
         fill="currentColor"
         id="path123807" />
    </g>
  </a>
  <g
     transform="translate(41.804,4.2400034)"
     id="g123815">
    <rect
       x="-0.064999998"
       y="-1.8029"
       width="0.13"
       height="3.1168001"
       ry="0.039999999"
       fill="currentColor"
       id="rect123813" />
  </g>
  <g
     transform="translate(39.0498,4.2400034)"
     id="g123819">
    <rect
       x="-0.064999998"
       y="-2.0071001"
       width="0.13"
       height="5.8210001"
       ry="0.039999999"
       fill="currentColor"
       id="rect123817" />
  </g>
  <a
     style="color:inherit"
     xlink:href="textedit://C:/Users/Javier/AppData/Local/Temp/frescobaldi-qinprpfp/tmptsnuz2do/loose%20examples.ly:363:44:45"
     id="a123825"
     transform="translate(-5.6906,-125.5348)">
    <g
       transform="translate(48.5096,133.7748)"
       id="g123823">
      <path
         transform="scale(0.004,-0.004)"
         d="m 218,136 c 55,0 108,-28 108,-89 0,-71 -55,-121 -102,-149 -35,-21 -75,-34 -116,-34 -55,0 -108,28 -108,89 0,71 55,121 102,149 35,21 75,34 116,34 z"
         fill="currentColor"
         id="path123821" />
    </g>
  </a>
  <g
     transform="translate(44.0582,4.2400034)"
     id="g123829">
    <rect
       x="-0.064999998"
       y="-1.5559"
       width="0.13"
       height="5.3698001"
       ry="0.039999999"
       fill="currentColor"
       id="rect123827" />
  </g>
  <a
     style="color:inherit"
     xlink:href="textedit://C:/Users/Javier/AppData/Local/Temp/frescobaldi-qinprpfp/tmptsnuz2do/loose%20examples.ly:362:9:10"
     id="a123835"
     transform="translate(-5.6906,-125.5348)">
    <g
       transform="translate(18.4591,133.7748)"
       id="g123833">
      <path
         transform="scale(0.004,-0.004)"
         d="m 218,136 c 55,0 108,-28 108,-89 0,-71 -55,-121 -102,-149 -35,-21 -75,-34 -116,-34 -55,0 -108,28 -108,89 0,71 55,121 102,149 35,21 75,34 116,34 z"
         fill="currentColor"
         id="path123831" />
    </g>
  </a>
  <g
     transform="translate(14.0077,4.2400034)"
     id="g123839">
    <rect
       x="-0.064999998"
       y="-0.81"
       width="0.13"
       height="4.6238999"
       ry="0.039999999"
       fill="currentColor"
       id="rect123837" />
  </g>
  <g
     transform="translate(26.7788,4.2400034)"
     id="g123843">
    <rect
       x="-0.064999998"
       y="-3.1833"
       width="0.13"
       height="2.9972"
       ry="0.039999999"
       fill="currentColor"
       id="rect123841" />
  </g>
  <g
     transform="translate(16.7619,4.2400034)"
     id="g123847">
    <rect
       x="-0.064999998"
       y="-0.81"
       width="0.13"
       height="2.6238999"
       ry="0.039999999"
       fill="currentColor"
       id="rect123845" />
  </g>
  <g
     transform="translate(11.7535,4.2400034)"
     id="g123851">
    <rect
       x="-0.064999998"
       y="-0.81"
       width="0.13"
       height="3.1238999"
       ry="0.039999999"
       fill="currentColor"
       id="rect123849" />
  </g>
  <a
     style="color:inherit"
     xlink:href="textedit://C:/Users/Javier/AppData/Local/Temp/frescobaldi-qinprpfp/tmptsnuz2do/loose%20examples.ly:362:4:5"
     id="a123857"
     transform="translate(-5.6906,-125.5348)">
    <g
       transform="translate(16.2049,132.2748)"
       id="g123855">
      <path
         transform="scale(0.004,-0.004)"
         d="m 218,136 c 55,0 108,-28 108,-89 0,-71 -55,-121 -102,-149 -35,-21 -75,-34 -116,-34 -55,0 -108,28 -108,89 0,71 55,121 102,149 35,21 75,34 116,34 z"
         fill="currentColor"
         id="path123853" />
    </g>
  </a>
  <g
     transform="translate(0.80000003,5.2400034)"
     id="g123861">
    <path
       transform="scale(0.004,-0.004)"
       d="m 266,-635 h -6 c -108,0 -195,88 -195,197 0,58 53,103 112,103 54,0 95,-47 95,-103 0,-52 -43,-95 -95,-95 -11,0 -21,2 -31,6 26,-39 68,-65 117,-65 h 4 z m 195,432 c 68,24 113,95 113,164 0,90 -66,179 -173,190 24,-116 46,-231 60,-354 z M 74,28 c 0,-135 129,-247 264,-247 28,0 55,2 82,6 C 406,-86 383,32 357,151 278,143 233,90 233,32 c 0,-44 25,-91 81,-123 5,-5 7,-10 7,-15 0,-11 -10,-22 -22,-22 -3,0 -6,1 -9,2 -80,43 -117,115 -117,185 0,88 58,174 160,197 -14,58 -29,117 -46,175 C 180,310 74,188 74,28 Z M 335,-262 C 147,-262 2,-90 2,112 c 0,177 131,306 248,441 -19,62 -37,125 -45,190 -6,52 -7,104 -7,156 0,115 55,224 149,292 6,5 14,5 20,0 71,-84 133,-245 133,-358 0,-143 -86,-255 -180,-364 21,-68 39,-138 56,-207 4,0 9,1 13,1 155,0 256,-128 256,-261 0,-76 -33,-154 -107,-210 -22,-17 -47,-28 -73,-36 3,-35 5,-70 5,-105 0,-19 -1,-39 -2,-58 -7,-119 -88,-225 -202,-228 l 1,43 c 93,2 153,92 159,191 1,18 2,37 2,55 0,31 -1,61 -4,92 -29,-5 -58,-8 -89,-8 z m 93,1178 c 0,55 -4,79 -20,129 -99,-48 -162,-149 -162,-259 0,-74 18,-133 36,-194 80,97 146,198 146,324 z"
       fill="currentColor"
       id="path123859" />
  </g>
  <a
     style="color:inherit"
     xlink:href="textedit://C:/Users/Javier/AppData/Local/Temp/frescobaldi-qinprpfp/tmptsnuz2do/loose%20examples.ly:358:4:5"
     id="a123879"
     transform="translate(-5.6906,-125.5348)">
    <g
       transform="translate(10.1106,129.7748)"
       id="g123865">
      <path
         transform="scale(0.004,-0.004)"
         d="m 27,41 -1,-66 v -11 c 0,-22 1,-44 4,-66 45,38 93,80 93,139 0,33 -14,67 -43,67 C 49,104 28,74 27,41 Z m -42,-179 -12,595 c 8,5 18,8 27,8 9,0 19,-3 27,-8 L 20,112 c 25,21 58,34 91,34 52,0 89,-48 89,-102 0,-80 -86,-117 -147,-169 -15,-13 -24,-38 -45,-38 -13,0 -23,11 -23,25 z"
         fill="currentColor"
         id="path123863" />
    </g>
    <g
       transform="translate(11.0306,128.2748)"
       id="g123869">
      <path
         transform="scale(0.004,-0.004)"
         d="m 27,41 -1,-66 v -11 c 0,-22 1,-44 4,-66 45,38 93,80 93,139 0,33 -14,67 -43,67 C 49,104 28,74 27,41 Z m -42,-179 -12,595 c 8,5 18,8 27,8 9,0 19,-3 27,-8 L 20,112 c 25,21 58,34 91,34 52,0 89,-48 89,-102 0,-80 -86,-117 -147,-169 -15,-13 -24,-38 -45,-38 -13,0 -23,11 -23,25 z"
         fill="currentColor"
         id="path123867" />
    </g>
    <g
       transform="translate(11.9506,130.2748)"
       id="g123873">
      <path
         transform="scale(0.004,-0.004)"
         d="m 27,41 -1,-66 v -11 c 0,-22 1,-44 4,-66 45,38 93,80 93,139 0,33 -14,67 -43,67 C 49,104 28,74 27,41 Z m -42,-179 -12,595 c 8,5 18,8 27,8 9,0 19,-3 27,-8 L 20,112 c 25,21 58,34 91,34 52,0 89,-48 89,-102 0,-80 -86,-117 -147,-169 -15,-13 -24,-38 -45,-38 -13,0 -23,11 -23,25 z"
         fill="currentColor"
         id="path123871" />
    </g>
    <g
       transform="translate(12.8706,128.7748)"
       id="g123877">
      <path
         transform="scale(0.004,-0.004)"
         d="m 27,41 -1,-66 v -11 c 0,-22 1,-44 4,-66 45,38 93,80 93,139 0,33 -14,67 -43,67 C 49,104 28,74 27,41 Z m -42,-179 -12,595 c 8,5 18,8 27,8 9,0 19,-3 27,-8 L 20,112 c 25,21 58,34 91,34 52,0 89,-48 89,-102 0,-80 -86,-117 -147,-169 -15,-13 -24,-38 -45,-38 -13,0 -23,11 -23,25 z"
         fill="currentColor"
         id="path123875" />
    </g>
  </a>
  <a
     style="color:inherit"
     xlink:href="textedit://C:/Users/Javier/AppData/Local/Temp/frescobaldi-qinprpfp/tmptsnuz2do/loose%20examples.ly:362:13:14"
     id="a123885"
     transform="translate(-5.6906,-125.5348)">
    <g
       transform="translate(21.2133,131.7748)"
       id="g123883">
      <path
         transform="scale(0.004,-0.004)"
         d="m 218,136 c 55,0 108,-28 108,-89 0,-71 -55,-121 -102,-149 -35,-21 -75,-34 -116,-34 -55,0 -108,28 -108,89 0,71 55,121 102,149 35,21 75,34 116,34 z"
         fill="currentColor"
         id="path123881" />
    </g>
  </a>
  <g
     transform="translate(9.48,6.7400034)"
     id="g123889">
    <path
       transform="scale(0.004,-0.004)"
       d="m -8,375 c 8,4 17,7 26,7 9,0 16,-3 24,-7 l -2,-183 106,20 h 3 c 10,0 18,-7 18,-17 l 7,-570 c -8,-4 -16,-7 -25,-7 -9,0 -17,3 -25,7 l 3,183 -106,-20 h -3 c -10,0 -18,7 -18,17 z M 131,112 39,95 l -3,-207 92,17 z"
       fill="currentColor"
       id="path123887" />
  </g>
  <a
     style="color:inherit"
     xlink:href="textedit://C:/Users/Javier/AppData/Local/Temp/frescobaldi-qinprpfp/tmptsnuz2do/loose%20examples.ly:363:8:9"
     id="a123895"
     transform="translate(-5.6906,-125.5348)">
    <g
       transform="translate(28.4759,133.7748)"
       id="g123893">
      <path
         transform="scale(0.004,-0.004)"
         d="m 218,136 c 55,0 108,-28 108,-89 0,-71 -55,-121 -102,-149 -35,-21 -75,-34 -116,-34 -55,0 -108,28 -108,89 0,71 55,121 102,149 35,21 75,34 116,34 z"
         fill="currentColor"
         id="path123891" />
    </g>
  </a>
  <a
     style="color:inherit"
     xlink:href="textedit://C:/Users/Javier/AppData/Local/Temp/frescobaldi-qinprpfp/tmptsnuz2do/loose%20examples.ly:363:4:5"
     id="a123901"
     transform="translate(-5.6906,-125.5348)">
    <g
       transform="translate(26.2217,129.2748)"
       id="g123899">
      <path
         transform="scale(0.004,-0.004)"
         d="m 218,136 c 55,0 108,-28 108,-89 0,-71 -55,-121 -102,-149 -35,-21 -75,-34 -116,-34 -55,0 -108,28 -108,89 0,71 55,121 102,149 35,21 75,34 116,34 z"
         fill="currentColor"
         id="path123897" />
    </g>
  </a>
  <g
     transform="translate(21.7703,4.2400034)"
     id="g123905">
    <rect
       x="-0.064999998"
       y="-3.9895"
       width="0.13"
       height="3.3034"
       ry="0.039999999"
       fill="currentColor"
       id="rect123903" />
  </g>
  <g
     transform="translate(24.0246,4.2400034)"
     id="g123909">
    <rect
       x="-0.064999998"
       y="-3.6266999"
       width="0.13"
       height="7.4405999"
       ry="0.039999999"
       fill="currentColor"
       id="rect123907" />
  </g>
  <a
     style="color:inherit"
     xlink:href="textedit://C:/Users/Javier/AppData/Local/Temp/frescobaldi-qinprpfp/tmptsnuz2do/loose%20examples.ly:363:13:14"
     id="a123915"
     transform="translate(-5.6906,-125.5348)">
    <g
       transform="translate(31.2302,129.7748)"
       id="g123913">
      <path
         transform="scale(0.004,-0.004)"
         d="m 218,136 c 55,0 108,-28 108,-89 0,-71 -55,-121 -102,-149 -35,-21 -75,-34 -116,-34 -55,0 -108,28 -108,89 0,71 55,121 102,149 35,21 75,34 116,34 z"
         fill="currentColor"
         id="path123911" />
    </g>
  </a>
  <a
     style="color:inherit"
     xlink:href="textedit://C:/Users/Javier/AppData/Local/Temp/frescobaldi-qinprpfp/tmptsnuz2do/loose%20examples.ly:362:17:18"
     id="a123921"
     transform="translate(-5.6906,-125.5348)">
    <g
       transform="translate(23.4675,133.7748)"
       id="g123919">
      <path
         transform="scale(0.004,-0.004)"
         d="m 218,136 c 55,0 108,-28 108,-89 0,-71 -55,-121 -102,-149 -35,-21 -75,-34 -116,-34 -55,0 -108,28 -108,89 0,71 55,121 102,149 35,21 75,34 116,34 z"
         fill="currentColor"
         id="path123917" />
    </g>
  </a>
  <g
     transform="translate(19.0161,4.2400034)"
     id="g123925">
    <rect
       x="-0.064999998"
       y="-0.81"
       width="0.13"
       height="4.6238999"
       ry="0.039999999"
       fill="currentColor"
       id="rect123923" />
  </g>
</svg>
