<svg
   version="1.2"
   width="46.45472mm"
   height="20.278008mm"
   viewBox="0 0 26.435301 11.539306"
   id="svg124197"
   sodipodi:docname="loose examples-2.svg"
   xmlns:inkscape="http://www.inkscape.org/namespaces/inkscape"
   xmlns:sodipodi="http://sodipodi.sourceforge.net/DTD/sodipodi-0.dtd"
   xmlns:xlink="http://www.w3.org/1999/xlink"
   xmlns="http://www.w3.org/2000/svg"
   xmlns:svg="http://www.w3.org/2000/svg">
  <defs
     id="defs124201" />
  <sodipodi:namedview
     id="namedview124199"
     pagecolor="#ffffff"
     bordercolor="#000000"
     borderopacity="0.25"
     inkscape:showpageshadow="2"
     inkscape:pageopacity="0.0"
     inkscape:pagecheckerboard="0"
     inkscape:deskcolor="#d1d1d1"
     inkscape:document-units="mm"
     showgrid="false" />
  <style
     type="text/css"
     id="style121801"><![CDATA[
tspan { white-space: pre; }
]]></style>
  <!-- Page: 2/3 -->
  <g
     transform="translate(3.1967416e-8,8.9952944)"
     id="g123929">
    <line
       stroke-linejoin="round"
       stroke-linecap="round"
       stroke-width="0.1"
       stroke="currentColor"
       x1="0.050000001"
       y1="0"
       x2="26.3853"
       y2="0"
       id="line123927" />
  </g>
  <g
     transform="translate(3.1967416e-8,7.9952944)"
     id="g123933">
    <line
       stroke-linejoin="round"
       stroke-linecap="round"
       stroke-width="0.1"
       stroke="currentColor"
       x1="0.050000001"
       y1="0"
       x2="26.3853"
       y2="0"
       id="line123931" />
  </g>
  <g
     transform="translate(3.1967416e-8,6.9952944)"
     id="g123937">
    <line
       stroke-linejoin="round"
       stroke-linecap="round"
       stroke-width="0.1"
       stroke="currentColor"
       x1="0.050000001"
       y1="0"
       x2="26.3853"
       y2="0"
       id="line123935" />
  </g>
  <g
     transform="translate(3.1967416e-8,5.9952944)"
     id="g123941">
    <line
       stroke-linejoin="round"
       stroke-linecap="round"
       stroke-width="0.1"
       stroke="currentColor"
       x1="0.050000001"
       y1="0"
       x2="26.3853"
       y2="0"
       id="line123939" />
  </g>
  <g
     transform="translate(3.1967416e-8,4.9952944)"
     id="g123945">
    <line
       stroke-linejoin="round"
       stroke-linecap="round"
       stroke-width="0.1"
       stroke="currentColor"
       x1="0.050000001"
       y1="0"
       x2="26.3853"
       y2="0"
       id="line123943" />
  </g>
  <g
     transform="translate(3.1967416e-8,9.9952944)"
     id="g123949">
    <rect
       x="22.6751"
       y="-0.1"
       width="1.9563"
       height="0.2"
       ry="0.1"
       fill="currentColor"
       id="rect123947" />
  </g>
  <g
     transform="translate(3.1967416e-8,10.995294)"
     id="g123953">
    <rect
       x="22.6751"
       y="-0.1"
       width="1.9563"
       height="0.2"
       ry="0.1"
       fill="currentColor"
       id="rect123951" />
  </g>
  <g
     transform="translate(3.1967416e-8,9.9952944)"
     id="g123957">
    <rect
       x="20.1709"
       y="-0.1"
       width="1.9563"
       height="0.2"
       ry="0.1"
       fill="currentColor"
       id="rect123955" />
  </g>
  <g
     transform="translate(3.1967416e-8,10.995294)"
     id="g123961">
    <rect
       x="20.1709"
       y="-0.1"
       width="1.9563"
       height="0.2"
       ry="0.1"
       fill="currentColor"
       id="rect123959" />
  </g>
  <g
     transform="translate(3.1967416e-8,9.9952944)"
     id="g123965">
    <rect
       x="17.666599"
       y="-0.1"
       width="1.9563"
       height="0.2"
       ry="0.1"
       fill="currentColor"
       id="rect123963" />
  </g>
  <g
     transform="translate(3.1967416e-8,10.995294)"
     id="g123969">
    <rect
       x="17.666599"
       y="-0.1"
       width="1.9563"
       height="0.2"
       ry="0.1"
       fill="currentColor"
       id="rect123967" />
  </g>
  <g
     transform="translate(3.1967416e-8,9.9952944)"
     id="g123973">
    <rect
       x="15.1624"
       y="-0.1"
       width="1.9563"
       height="0.2"
       ry="0.1"
       fill="currentColor"
       id="rect123971" />
  </g>
  <g
     transform="translate(3.1967416e-8,10.995294)"
     id="g123977">
    <rect
       x="15.1624"
       y="-0.1"
       width="1.9563"
       height="0.2"
       ry="0.1"
       fill="currentColor"
       id="rect123975" />
  </g>
  <g
     transform="translate(3.1967416e-8,9.9952944)"
     id="g123981">
    <rect
       x="12.6582"
       y="-0.1"
       width="1.9563"
       height="0.2"
       ry="0.1"
       fill="currentColor"
       id="rect123979" />
  </g>
  <g
     transform="translate(3.1967416e-8,10.995294)"
     id="g123985">
    <rect
       x="12.6582"
       y="-0.1"
       width="1.9563"
       height="0.2"
       ry="0.1"
       fill="currentColor"
       id="rect123983" />
  </g>
  <g
     transform="translate(3.1967416e-8,9.9952944)"
     id="g123989">
    <rect
       x="10.154"
       y="-0.1"
       width="1.9563"
       height="0.2"
       ry="0.1"
       fill="currentColor"
       id="rect123987" />
  </g>
  <g
     transform="translate(3.1967416e-8,10.995294)"
     id="g123993">
    <rect
       x="10.154"
       y="-0.1"
       width="1.9563"
       height="0.2"
       ry="0.1"
       fill="currentColor"
       id="rect123991" />
  </g>
  <g
     transform="translate(26.2453,6.9952944)"
     id="g123997">
    <rect
       x="0"
       y="-2"
       width="0.19"
       height="4"
       ry="0.0000"
       fill="currentColor"
       id="rect123995" />
  </g>
  <g
     transform="translate(25.7553,6.9952944)"
     id="g124001">
    <rect
       x="0"
       y="-2"
       width="0.19"
       height="4"
       ry="0.0000"
       fill="currentColor"
       id="rect123999" />
  </g>
  <g
     transform="translate(21.7361,6.9952944)"
     id="g124005">
    <rect
       x="-0.064999998"
       y="-2.3046"
       width="0.13"
       height="6.1185002"
       ry="0.039999999"
       fill="currentColor"
       id="rect124003" />
  </g>
  <a
     style="color:inherit"
     xlink:href="textedit://C:/Users/Javier/AppData/Local/Temp/frescobaldi-qinprpfp/tmptsnuz2do/loose%20examples.ly:379:69:70"
     id="a124011"
     transform="translate(-5.6906,-143.61951)">
    <g
       transform="translate(26.4469,147.5702)"
       id="g124009">
      <path
         transform="scale(0.0022,-0.0022)"
         d="M 129,129 H 259 C 259,77 291,29 340,29 350,29 354,21 354,14 354,7 350,0 340,0 291,0 243,14 194,14 145,14 98,0 49,0 39,0 34,7 34,14 c 0,7 5,15 15,15 49,0 80,48 80,100 z M 0,250 129,500 c 3,7 13,3 21,0 14,-6 28,-14 44,-14 16,0 31,8 45,14 2,1 2,1 4,1 8,0 16,-9 16,-21 V 129 H 129 v 215 c 0,15 -11,23 -20,23 -5,0 -9,-2 -11,-7 L 32,233 c -4,-7 -9,-9 -15,-9 -9,0 -19,7 -19,17 0,3 0,6 2,9 z"
         fill="currentColor"
         id="path124007" />
    </g>
  </a>
  <a
     style="color:inherit"
     xlink:href="textedit://C:/Users/Javier/AppData/Local/Temp/frescobaldi-qinprpfp/tmptsnuz2do/loose%20examples.ly:379:71:72"
     id="a124017"
     transform="translate(-5.6906,-143.61951)">
    <g
       transform="translate(26.4128,145.9093)"
       id="g124015">
      <path
         transform="scale(0.0022,-0.0022)"
         d="m 129,149 h 7 c 36,0 74,-13 111,-40 19,-14 40,-21 59,-21 22,0 40,10 46,31 2,7 7,11 13,11 7,0 15,-5 15,-14 v -5 C 361,40 296,0 234,0 196,0 159,15 133,47 121,62 105,69 89,69 60,69 32,48 29,13 28,4 22,0 15,0 8,0 0,5 0,14 c 0,173 233,163 233,341 0,56 -14,116 -62,116 -33,0 -66,-15 -66,-44 0,-24 31,-37 31,-61 0,-34 -27,-61 -61,-61 -34,0 -61,27 -61,61 0,78 74,134 157,134 98,0 191,-55 191,-145 C 362,211 227,199 129,149 Z"
         fill="currentColor"
         id="path124013" />
    </g>
  </a>
  <a
     style="color:inherit"
     xlink:href="textedit://C:/Users/Javier/AppData/Local/Temp/frescobaldi-qinprpfp/tmptsnuz2do/loose%20examples.ly:379:66:67"
     id="a124023"
     transform="translate(-5.6906,-143.61951)">
    <g
       transform="translate(26.1875,152.1148)"
       id="g124021">
      <path
         transform="scale(0.004,-0.004)"
         d="m 218,136 c 55,0 108,-28 108,-89 0,-71 -55,-121 -102,-149 -35,-21 -75,-34 -116,-34 -55,0 -108,28 -108,89 0,71 55,121 102,149 35,21 75,34 116,34 z"
         fill="currentColor"
         id="path124019" />
    </g>
  </a>
  <a
     style="color:inherit"
     xlink:href="textedit://C:/Users/Javier/AppData/Local/Temp/frescobaldi-qinprpfp/tmptsnuz2do/loose%20examples.ly:379:62:63"
     id="a124029"
     transform="translate(-5.6906,-143.61951)">
    <g
       transform="translate(26.1875,154.6148)"
       id="g124027">
      <path
         transform="scale(0.004,-0.004)"
         d="m 218,136 c 55,0 108,-28 108,-89 0,-71 -55,-121 -102,-149 -35,-21 -75,-34 -116,-34 -55,0 -108,28 -108,89 0,71 55,121 102,149 35,21 75,34 116,34 z"
         fill="currentColor"
         id="path124025" />
    </g>
  </a>
  <g
     transform="translate(19.2319,6.9952944)"
     id="g124033">
    <rect
       x="-0.064999998"
       y="-2.6015"
       width="0.13"
       height="6.4154"
       ry="0.039999999"
       fill="currentColor"
       id="rect124031" />
  </g>
  <a
     style="color:inherit"
     xlink:href="textedit://C:/Users/Javier/AppData/Local/Temp/frescobaldi-qinprpfp/tmptsnuz2do/loose%20examples.ly:379:56:57"
     id="a124039"
     transform="translate(-5.6906,-143.61951)">
    <g
       transform="translate(23.9427,147.2733)"
       id="g124037">
      <path
         transform="scale(0.0022,-0.0022)"
         d="M 129,129 H 259 C 259,77 291,29 340,29 350,29 354,21 354,14 354,7 350,0 340,0 291,0 243,14 194,14 145,14 98,0 49,0 39,0 34,7 34,14 c 0,7 5,15 15,15 49,0 80,48 80,100 z M 0,250 129,500 c 3,7 13,3 21,0 14,-6 28,-14 44,-14 16,0 31,8 45,14 2,1 2,1 4,1 8,0 16,-9 16,-21 V 129 H 129 v 215 c 0,15 -11,23 -20,23 -5,0 -9,-2 -11,-7 L 32,233 c -4,-7 -9,-9 -15,-9 -9,0 -19,7 -19,17 0,3 0,6 2,9 z"
         fill="currentColor"
         id="path124035" />
    </g>
  </a>
  <a
     style="color:inherit"
     xlink:href="textedit://C:/Users/Javier/AppData/Local/Temp/frescobaldi-qinprpfp/tmptsnuz2do/loose%20examples.ly:379:58:59"
     id="a124045"
     transform="translate(-5.6906,-143.61951)">
    <g
       transform="translate(23.9427,145.6124)"
       id="g124043">
      <path
         transform="scale(0.0022,-0.0022)"
         d="m 155,471 c -34,0 -70,-8 -70,-38 0,-19 31,-23 31,-42 0,-28 -23,-51 -51,-51 -28,0 -51,23 -51,51 0,67 68,109 141,109 93,0 174,-31 174,-113 0,-41 -6,-77 -42,-94 -11,-5 -17,-16 -17,-27 0,-11 6,-22 17,-27 40,-19 59,-53 59,-98 C 346,47 263,0 160,0 78,0 0,45 0,119 c 0,32 26,58 58,58 32,0 58,-26 58,-58 0,-22 -36,-26 -36,-48 0,-33 42,-42 80,-42 46,0 56,58 56,112 v 38 c 0,40 -4,69 -43,69 H 99 c -12,0 -18,9 -18,18 0,9 6,18 18,18 h 74 c 40,0 43,31 43,73 v 30 c 0,50 -16,84 -61,84 z"
         fill="currentColor"
         id="path124041" />
    </g>
  </a>
  <a
     style="color:inherit"
     xlink:href="textedit://C:/Users/Javier/AppData/Local/Temp/frescobaldi-qinprpfp/tmptsnuz2do/loose%20examples.ly:379:53:54"
     id="a124051"
     transform="translate(-5.6906,-143.61951)">
    <g
       transform="translate(23.6832,151.6148)"
       id="g124049">
      <path
         transform="scale(0.004,-0.004)"
         d="m 218,136 c 55,0 108,-28 108,-89 0,-71 -55,-121 -102,-149 -35,-21 -75,-34 -116,-34 -55,0 -108,28 -108,89 0,71 55,121 102,149 35,21 75,34 116,34 z"
         fill="currentColor"
         id="path124047" />
    </g>
  </a>
  <a
     style="color:inherit"
     xlink:href="textedit://C:/Users/Javier/AppData/Local/Temp/frescobaldi-qinprpfp/tmptsnuz2do/loose%20examples.ly:379:49:50"
     id="a124057"
     transform="translate(-5.6906,-143.61951)">
    <g
       transform="translate(23.6832,154.6148)"
       id="g124055">
      <path
         transform="scale(0.004,-0.004)"
         d="m 218,136 c 55,0 108,-28 108,-89 0,-71 -55,-121 -102,-149 -35,-21 -75,-34 -116,-34 -55,0 -108,28 -108,89 0,71 55,121 102,149 35,21 75,34 116,34 z"
         fill="currentColor"
         id="path124053" />
    </g>
  </a>
  <g
     transform="translate(11.6542,3.4952944)"
     id="g124061">
    <polygon
       stroke-linejoin="round"
       stroke-linecap="round"
       stroke-width="0.08"
       fill="currentColor"
       stroke="currentColor"
       points="12.6111,1.3 12.6111,1.7 0.04,0.2 0.04,-0.2 "
       id="polygon124059" />
  </g>
  <g
     transform="translate(24.2403,6.9952944)"
     id="g124065">
    <rect
       x="-0.064999998"
       y="-2.0077"
       width="0.13"
       height="5.8216"
       ry="0.039999999"
       fill="currentColor"
       id="rect124063" />
  </g>
  <a
     style="color:inherit"
     xlink:href="textedit://C:/Users/Javier/AppData/Local/Temp/frescobaldi-qinprpfp/tmptsnuz2do/loose%20examples.ly:379:83:84"
     id="a124071"
     transform="translate(-5.6906,-143.61951)">
    <g
       transform="translate(28.9511,147.8671)"
       id="g124069">
      <path
         transform="scale(0.0022,-0.0022)"
         d="M 129,129 H 259 C 259,77 291,29 340,29 350,29 354,21 354,14 354,7 350,0 340,0 291,0 243,14 194,14 145,14 98,0 49,0 39,0 34,7 34,14 c 0,7 5,15 15,15 49,0 80,48 80,100 z M 0,250 129,500 c 3,7 13,3 21,0 14,-6 28,-14 44,-14 16,0 31,8 45,14 2,1 2,1 4,1 8,0 16,-9 16,-21 V 129 H 129 v 215 c 0,15 -11,23 -20,23 -5,0 -9,-2 -11,-7 L 32,233 c -4,-7 -9,-9 -15,-9 -9,0 -19,7 -19,17 0,3 0,6 2,9 z"
         fill="currentColor"
         id="path124067" />
    </g>
  </a>
  <a
     style="color:inherit"
     xlink:href="textedit://C:/Users/Javier/AppData/Local/Temp/frescobaldi-qinprpfp/tmptsnuz2do/loose%20examples.ly:379:85:86"
     id="a124077"
     transform="translate(-5.6906,-143.61951)">
    <g
       transform="translate(28.9511,146.2062)"
       id="g124075">
      <path
         transform="scale(0.0022,-0.0022)"
         d="M 129,129 H 259 C 259,77 291,29 340,29 350,29 354,21 354,14 354,7 350,0 340,0 291,0 243,14 194,14 145,14 98,0 49,0 39,0 34,7 34,14 c 0,7 5,15 15,15 49,0 80,48 80,100 z M 0,250 129,500 c 3,7 13,3 21,0 14,-6 28,-14 44,-14 16,0 31,8 45,14 2,1 2,1 4,1 8,0 16,-9 16,-21 V 129 H 129 v 215 c 0,15 -11,23 -20,23 -5,0 -9,-2 -11,-7 L 32,233 c -4,-7 -9,-9 -15,-9 -9,0 -19,7 -19,17 0,3 0,6 2,9 z"
         fill="currentColor"
         id="path124073" />
    </g>
  </a>
  <a
     style="color:inherit"
     xlink:href="textedit://C:/Users/Javier/AppData/Local/Temp/frescobaldi-qinprpfp/tmptsnuz2do/loose%20examples.ly:379:79:80"
     id="a124083"
     transform="translate(-5.6906,-143.61951)">
    <g
       transform="translate(28.6917,152.6148)"
       id="g124081">
      <path
         transform="scale(0.004,-0.004)"
         d="m 218,136 c 55,0 108,-28 108,-89 0,-71 -55,-121 -102,-149 -35,-21 -75,-34 -116,-34 -55,0 -108,28 -108,89 0,71 55,121 102,149 35,21 75,34 116,34 z"
         fill="currentColor"
         id="path124079" />
    </g>
  </a>
  <a
     style="color:inherit"
     xlink:href="textedit://C:/Users/Javier/AppData/Local/Temp/frescobaldi-qinprpfp/tmptsnuz2do/loose%20examples.ly:379:75:76"
     id="a124089"
     transform="translate(-5.6906,-143.61951)">
    <g
       transform="translate(28.6917,154.6148)"
       id="g124087">
      <path
         transform="scale(0.004,-0.004)"
         d="m 218,136 c 55,0 108,-28 108,-89 0,-71 -55,-121 -102,-149 -35,-21 -75,-34 -116,-34 -55,0 -108,28 -108,89 0,71 55,121 102,149 35,21 75,34 116,34 z"
         fill="currentColor"
         id="path124085" />
    </g>
  </a>
  <g
     transform="translate(11.7192,6.9952944)"
     id="g124093">
    <rect
       x="-0.064999998"
       y="-3.4923"
       width="0.13"
       height="7.3062"
       ry="0.039999999"
       fill="currentColor"
       id="rect124091" />
  </g>
  <a
     style="color:inherit"
     xlink:href="textedit://C:/Users/Javier/AppData/Local/Temp/frescobaldi-qinprpfp/tmptsnuz2do/loose%20examples.ly:376:4:5"
     id="a124111"
     transform="translate(-5.6906,-143.61951)">
    <g
       transform="translate(10.1106,150.6148)"
       id="g124097">
      <path
         transform="scale(0.004,-0.004)"
         d="m 27,41 -1,-66 v -11 c 0,-22 1,-44 4,-66 45,38 93,80 93,139 0,33 -14,67 -43,67 C 49,104 28,74 27,41 Z m -42,-179 -12,595 c 8,5 18,8 27,8 9,0 19,-3 27,-8 L 20,112 c 25,21 58,34 91,34 52,0 89,-48 89,-102 0,-80 -86,-117 -147,-169 -15,-13 -24,-38 -45,-38 -13,0 -23,11 -23,25 z"
         fill="currentColor"
         id="path124095" />
    </g>
    <g
       transform="translate(11.0306,149.1148)"
       id="g124101">
      <path
         transform="scale(0.004,-0.004)"
         d="m 27,41 -1,-66 v -11 c 0,-22 1,-44 4,-66 45,38 93,80 93,139 0,33 -14,67 -43,67 C 49,104 28,74 27,41 Z m -42,-179 -12,595 c 8,5 18,8 27,8 9,0 19,-3 27,-8 L 20,112 c 25,21 58,34 91,34 52,0 89,-48 89,-102 0,-80 -86,-117 -147,-169 -15,-13 -24,-38 -45,-38 -13,0 -23,11 -23,25 z"
         fill="currentColor"
         id="path124099" />
    </g>
    <g
       transform="translate(11.9506,151.1148)"
       id="g124105">
      <path
         transform="scale(0.004,-0.004)"
         d="m 27,41 -1,-66 v -11 c 0,-22 1,-44 4,-66 45,38 93,80 93,139 0,33 -14,67 -43,67 C 49,104 28,74 27,41 Z m -42,-179 -12,595 c 8,5 18,8 27,8 9,0 19,-3 27,-8 L 20,112 c 25,21 58,34 91,34 52,0 89,-48 89,-102 0,-80 -86,-117 -147,-169 -15,-13 -24,-38 -45,-38 -13,0 -23,11 -23,25 z"
         fill="currentColor"
         id="path124103" />
    </g>
    <g
       transform="translate(12.8706,149.6148)"
       id="g124109">
      <path
         transform="scale(0.004,-0.004)"
         d="m 27,41 -1,-66 v -11 c 0,-22 1,-44 4,-66 45,38 93,80 93,139 0,33 -14,67 -43,67 C 49,104 28,74 27,41 Z m -42,-179 -12,595 c 8,5 18,8 27,8 9,0 19,-3 27,-8 L 20,112 c 25,21 58,34 91,34 52,0 89,-48 89,-102 0,-80 -86,-117 -147,-169 -15,-13 -24,-38 -45,-38 -13,0 -23,11 -23,25 z"
         fill="currentColor"
         id="path124107" />
    </g>
  </a>
  <g
     transform="translate(0.80000003,7.9952944)"
     id="g124115">
    <path
       transform="scale(0.004,-0.004)"
       d="m 266,-635 h -6 c -108,0 -195,88 -195,197 0,58 53,103 112,103 54,0 95,-47 95,-103 0,-52 -43,-95 -95,-95 -11,0 -21,2 -31,6 26,-39 68,-65 117,-65 h 4 z m 195,432 c 68,24 113,95 113,164 0,90 -66,179 -173,190 24,-116 46,-231 60,-354 z M 74,28 c 0,-135 129,-247 264,-247 28,0 55,2 82,6 C 406,-86 383,32 357,151 278,143 233,90 233,32 c 0,-44 25,-91 81,-123 5,-5 7,-10 7,-15 0,-11 -10,-22 -22,-22 -3,0 -6,1 -9,2 -80,43 -117,115 -117,185 0,88 58,174 160,197 -14,58 -29,117 -46,175 C 180,310 74,188 74,28 Z M 335,-262 C 147,-262 2,-90 2,112 c 0,177 131,306 248,441 -19,62 -37,125 -45,190 -6,52 -7,104 -7,156 0,115 55,224 149,292 6,5 14,5 20,0 71,-84 133,-245 133,-358 0,-143 -86,-255 -180,-364 21,-68 39,-138 56,-207 4,0 9,1 13,1 155,0 256,-128 256,-261 0,-76 -33,-154 -107,-210 -22,-17 -47,-28 -73,-36 3,-35 5,-70 5,-105 0,-19 -1,-39 -2,-58 -7,-119 -88,-225 -202,-228 l 1,43 c 93,2 153,92 159,191 1,18 2,37 2,55 0,31 -1,61 -4,92 -29,-5 -58,-8 -89,-8 z m 93,1178 c 0,55 -4,79 -20,129 -99,-48 -162,-149 -162,-259 0,-74 18,-133 36,-194 80,97 146,198 146,324 z"
       fill="currentColor"
       id="path124113" />
  </g>
  <a
     style="color:inherit"
     xlink:href="textedit://C:/Users/Javier/AppData/Local/Temp/frescobaldi-qinprpfp/tmptsnuz2do/loose%20examples.ly:379:13:14"
     id="a124121"
     transform="translate(-5.6906,-143.61951)">
    <g
       transform="translate(16.4301,146.3825)"
       id="g124119">
      <path
         transform="scale(0.0022,-0.0022)"
         d="M 129,129 H 259 C 259,77 291,29 340,29 350,29 354,21 354,14 354,7 350,0 340,0 291,0 243,14 194,14 145,14 98,0 49,0 39,0 34,7 34,14 c 0,7 5,15 15,15 49,0 80,48 80,100 z M 0,250 129,500 c 3,7 13,3 21,0 14,-6 28,-14 44,-14 16,0 31,8 45,14 2,1 2,1 4,1 8,0 16,-9 16,-21 V 129 H 129 v 215 c 0,15 -11,23 -20,23 -5,0 -9,-2 -11,-7 L 32,233 c -4,-7 -9,-9 -15,-9 -9,0 -19,7 -19,17 0,3 0,6 2,9 z"
         fill="currentColor"
         id="path124117" />
    </g>
  </a>
  <a
     style="color:inherit"
     xlink:href="textedit://C:/Users/Javier/AppData/Local/Temp/frescobaldi-qinprpfp/tmptsnuz2do/loose%20examples.ly:379:15:16"
     id="a124127"
     transform="translate(-5.6906,-143.61951)">
    <g
       transform="translate(16.3618,144.7217)"
       id="g124125">
      <path
         transform="scale(0.0022,-0.0022)"
         d="m 198,284 c 24,15 48,29 65,52 12,16 19,34 28,52 2,5 6,7 11,7 8,0 16,-6 16,-17 V 161 h 79 c 12,0 18,-9 18,-18 0,-9 -6,-18 -18,-18 h -79 c 2,-51 33,-96 80,-96 10,0 15,-8 15,-15 C 413,7 408,0 398,0 349,0 302,14 253,14 204,14 156,0 107,0 97,0 93,7 93,14 c 0,7 4,15 14,15 47,0 79,45 81,96 H 36 c -29,0 -38,17 -38,28 0,3 1,6 2,8 78,88 123,201 123,319 0,11 8,21 17,21 1,0 3,-1 4,-1 25,-7 50,-14 76,-14 26,0 52,7 77,14 2,1 4,1 6,1 10,0 17,-7 17,-14 0,-2 0,-5 -2,-7 L 36,161 h 152 v 96 c 0,10 1,21 10,27 z"
         fill="currentColor"
         id="path124123" />
    </g>
  </a>
  <a
     style="color:inherit"
     xlink:href="textedit://C:/Users/Javier/AppData/Local/Temp/frescobaldi-qinprpfp/tmptsnuz2do/loose%20examples.ly:379:9:10"
     id="a124133"
     transform="translate(-5.6906,-143.61951)">
    <g
       transform="translate(16.1706,150.1148)"
       id="g124131">
      <path
         transform="scale(0.004,-0.004)"
         d="m 218,136 c 55,0 108,-28 108,-89 0,-71 -55,-121 -102,-149 -35,-21 -75,-34 -116,-34 -55,0 -108,28 -108,89 0,71 55,121 102,149 35,21 75,34 116,34 z"
         fill="currentColor"
         id="path124129" />
    </g>
  </a>
  <a
     style="color:inherit"
     xlink:href="textedit://C:/Users/Javier/AppData/Local/Temp/frescobaldi-qinprpfp/tmptsnuz2do/loose%20examples.ly:379:5:6"
     id="a124139"
     transform="translate(-5.6906,-143.61951)">
    <g
       transform="translate(16.1706,154.6148)"
       id="g124137">
      <path
         transform="scale(0.004,-0.004)"
         d="m 218,136 c 55,0 108,-28 108,-89 0,-71 -55,-121 -102,-149 -35,-21 -75,-34 -116,-34 -55,0 -108,28 -108,89 0,71 55,121 102,149 35,21 75,34 116,34 z"
         fill="currentColor"
         id="path124135" />
    </g>
  </a>
  <g
     transform="translate(16.7276,6.9952944)"
     id="g124143">
    <rect
       x="-0.064999998"
       y="-2.8985"
       width="0.13"
       height="6.7124"
       ry="0.039999999"
       fill="currentColor"
       id="rect124141" />
  </g>
  <a
     style="color:inherit"
     xlink:href="textedit://C:/Users/Javier/AppData/Local/Temp/frescobaldi-qinprpfp/tmptsnuz2do/loose%20examples.ly:379:43:44"
     id="a124149"
     transform="translate(-5.6906,-143.61951)">
    <g
       transform="translate(21.4385,146.9764)"
       id="g124147">
      <path
         transform="scale(0.0022,-0.0022)"
         d="M 129,129 H 259 C 259,77 291,29 340,29 350,29 354,21 354,14 354,7 350,0 340,0 291,0 243,14 194,14 145,14 98,0 49,0 39,0 34,7 34,14 c 0,7 5,15 15,15 49,0 80,48 80,100 z M 0,250 129,500 c 3,7 13,3 21,0 14,-6 28,-14 44,-14 16,0 31,8 45,14 2,1 2,1 4,1 8,0 16,-9 16,-21 V 129 H 129 v 215 c 0,15 -11,23 -20,23 -5,0 -9,-2 -11,-7 L 32,233 c -4,-7 -9,-9 -15,-9 -9,0 -19,7 -19,17 0,3 0,6 2,9 z"
         fill="currentColor"
         id="path124145" />
    </g>
  </a>
  <a
     style="color:inherit"
     xlink:href="textedit://C:/Users/Javier/AppData/Local/Temp/frescobaldi-qinprpfp/tmptsnuz2do/loose%20examples.ly:379:45:46"
     id="a124155"
     transform="translate(-5.6906,-143.61951)">
    <g
       transform="translate(21.4385,145.3155)"
       id="g124153">
      <path
         transform="scale(0.0022,-0.0022)"
         d="m 155,471 c -34,0 -70,-8 -70,-38 0,-19 31,-23 31,-42 0,-28 -23,-51 -51,-51 -28,0 -51,23 -51,51 0,67 68,109 141,109 93,0 174,-31 174,-113 0,-41 -6,-77 -42,-94 -11,-5 -17,-16 -17,-27 0,-11 6,-22 17,-27 40,-19 59,-53 59,-98 C 346,47 263,0 160,0 78,0 0,45 0,119 c 0,32 26,58 58,58 32,0 58,-26 58,-58 0,-22 -36,-26 -36,-48 0,-33 42,-42 80,-42 46,0 56,58 56,112 v 38 c 0,40 -4,69 -43,69 H 99 c -12,0 -18,9 -18,18 0,9 6,18 18,18 h 74 c 40,0 43,31 43,73 v 30 c 0,50 -16,84 -61,84 z"
         fill="currentColor"
         id="path124151" />
    </g>
  </a>
  <a
     style="color:inherit"
     xlink:href="textedit://C:/Users/Javier/AppData/Local/Temp/frescobaldi-qinprpfp/tmptsnuz2do/loose%20examples.ly:379:38:39"
     id="a124161"
     transform="translate(-5.6906,-143.61951)">
    <g
       transform="translate(21.179,151.1148)"
       id="g124159">
      <path
         transform="scale(0.004,-0.004)"
         d="m 218,136 c 55,0 108,-28 108,-89 0,-71 -55,-121 -102,-149 -35,-21 -75,-34 -116,-34 -55,0 -108,28 -108,89 0,71 55,121 102,149 35,21 75,34 116,34 z"
         fill="currentColor"
         id="path124157" />
    </g>
  </a>
  <a
     style="color:inherit"
     xlink:href="textedit://C:/Users/Javier/AppData/Local/Temp/frescobaldi-qinprpfp/tmptsnuz2do/loose%20examples.ly:379:34:35"
     id="a124167"
     transform="translate(-5.6906,-143.61951)">
    <g
       transform="translate(21.179,154.6148)"
       id="g124165">
      <path
         transform="scale(0.004,-0.004)"
         d="m 218,136 c 55,0 108,-28 108,-89 0,-71 -55,-121 -102,-149 -35,-21 -75,-34 -116,-34 -55,0 -108,28 -108,89 0,71 55,121 102,149 35,21 75,34 116,34 z"
         fill="currentColor"
         id="path124163" />
    </g>
  </a>
  <a
     style="color:inherit"
     xlink:href="textedit://C:/Users/Javier/AppData/Local/Temp/frescobaldi-qinprpfp/tmptsnuz2do/loose%20examples.ly:379:30:31"
     id="a124173"
     transform="translate(-5.6906,-143.61951)">
    <g
       transform="translate(18.866,145.0186)"
       id="g124171">
      <path
         transform="scale(0.0022,-0.0022)"
         d="m 198,284 c 24,15 48,29 65,52 12,16 19,34 28,52 2,5 6,7 11,7 8,0 16,-6 16,-17 V 161 h 79 c 12,0 18,-9 18,-18 0,-9 -6,-18 -18,-18 h -79 c 2,-51 33,-96 80,-96 10,0 15,-8 15,-15 C 413,7 408,0 398,0 349,0 302,14 253,14 204,14 156,0 107,0 97,0 93,7 93,14 c 0,7 4,15 14,15 47,0 79,45 81,96 H 36 c -29,0 -38,17 -38,28 0,3 1,6 2,8 78,88 123,201 123,319 0,11 8,21 17,21 1,0 3,-1 4,-1 25,-7 50,-14 76,-14 26,0 52,7 77,14 2,1 4,1 6,1 10,0 17,-7 17,-14 0,-2 0,-5 -2,-7 L 36,161 h 152 v 96 c 0,10 1,21 10,27 z"
         fill="currentColor"
         id="path124169" />
    </g>
  </a>
  <a
     style="color:inherit"
     xlink:href="textedit://C:/Users/Javier/AppData/Local/Temp/frescobaldi-qinprpfp/tmptsnuz2do/loose%20examples.ly:379:19:20"
     id="a124179"
     transform="translate(-5.6906,-143.61951)">
    <g
       transform="translate(18.6748,154.6148)"
       id="g124177">
      <path
         transform="scale(0.004,-0.004)"
         d="m 218,136 c 55,0 108,-28 108,-89 0,-71 -55,-121 -102,-149 -35,-21 -75,-34 -116,-34 -55,0 -108,28 -108,89 0,71 55,121 102,149 35,21 75,34 116,34 z"
         fill="currentColor"
         id="path124175" />
    </g>
  </a>
  <a
     style="color:inherit"
     xlink:href="textedit://C:/Users/Javier/AppData/Local/Temp/frescobaldi-qinprpfp/tmptsnuz2do/loose%20examples.ly:379:23:24"
     id="a124185"
     transform="translate(-5.6906,-143.61951)">
    <g
       transform="translate(18.6748,150.6148)"
       id="g124183">
      <path
         transform="scale(0.004,-0.004)"
         d="m 218,136 c 55,0 108,-28 108,-89 0,-71 -55,-121 -102,-149 -35,-21 -75,-34 -116,-34 -55,0 -108,28 -108,89 0,71 55,121 102,149 35,21 75,34 116,34 z"
         fill="currentColor"
         id="path124181" />
    </g>
  </a>
  <a
     style="color:inherit"
     xlink:href="textedit://C:/Users/Javier/AppData/Local/Temp/frescobaldi-qinprpfp/tmptsnuz2do/loose%20examples.ly:379:28:29"
     id="a124191"
     transform="translate(-5.6906,-143.61951)">
    <g
       transform="translate(18.9343,146.6794)"
       id="g124189">
      <path
         transform="scale(0.0022,-0.0022)"
         d="M 129,129 H 259 C 259,77 291,29 340,29 350,29 354,21 354,14 354,7 350,0 340,0 291,0 243,14 194,14 145,14 98,0 49,0 39,0 34,7 34,14 c 0,7 5,15 15,15 49,0 80,48 80,100 z M 0,250 129,500 c 3,7 13,3 21,0 14,-6 28,-14 44,-14 16,0 31,8 45,14 2,1 2,1 4,1 8,0 16,-9 16,-21 V 129 H 129 v 215 c 0,15 -11,23 -20,23 -5,0 -9,-2 -11,-7 L 32,233 c -4,-7 -9,-9 -15,-9 -9,0 -19,7 -19,17 0,3 0,6 2,9 z"
         fill="currentColor"
         id="path124187" />
    </g>
  </a>
  <g
     transform="translate(14.2234,6.9952944)"
     id="g124195">
    <rect
       x="-0.064999998"
       y="-3.1954"
       width="0.13"
       height="7.0093002"
       ry="0.039999999"
       fill="currentColor"
       id="rect124193" />
  </g>
</svg>
