<svg
   version="1.2"
   width="69.818527mm"
   height="20.551609mm"
   viewBox="0 0 39.730599 11.695"
   id="svg145841"
   sodipodi:docname="loose examples-3.svg"
   xmlns:inkscape="http://www.inkscape.org/namespaces/inkscape"
   xmlns:sodipodi="http://sodipodi.sourceforge.net/DTD/sodipodi-0.dtd"
   xmlns:xlink="http://www.w3.org/1999/xlink"
   xmlns="http://www.w3.org/2000/svg"
   xmlns:svg="http://www.w3.org/2000/svg">
  <defs
     id="defs145845" />
  <sodipodi:namedview
     id="namedview145843"
     pagecolor="#ffffff"
     bordercolor="#000000"
     borderopacity="0.25"
     inkscape:showpageshadow="2"
     inkscape:pageopacity="0.0"
     inkscape:pagecheckerboard="0"
     inkscape:deskcolor="#d1d1d1"
     inkscape:document-units="mm"
     showgrid="false" />
  <style
     type="text/css"
     id="style145137"><![CDATA[
tspan { white-space: pre; }
]]></style>
  <!-- Page: 3/3 -->
  <g
     transform="translate(3.1967416e-8,7.6450003)"
     id="g145147">
    <line
       stroke-linejoin="round"
       stroke-linecap="round"
       stroke-width="0.1"
       stroke="currentColor"
       x1="0.050000001"
       y1="0"
       x2="39.680599"
       y2="0"
       id="line145145" />
  </g>
  <g
     transform="translate(3.1967416e-8,6.6450003)"
     id="g145151">
    <line
       stroke-linejoin="round"
       stroke-linecap="round"
       stroke-width="0.1"
       stroke="currentColor"
       x1="0.050000001"
       y1="0"
       x2="39.680599"
       y2="0"
       id="line145149" />
  </g>
  <g
     transform="translate(3.1967416e-8,5.6450003)"
     id="g145155">
    <line
       stroke-linejoin="round"
       stroke-linecap="round"
       stroke-width="0.1"
       stroke="currentColor"
       x1="0.050000001"
       y1="0"
       x2="39.680599"
       y2="0"
       id="line145153" />
  </g>
  <g
     transform="translate(3.1967416e-8,4.6450003)"
     id="g145159">
    <line
       stroke-linejoin="round"
       stroke-linecap="round"
       stroke-width="0.1"
       stroke="currentColor"
       x1="0.050000001"
       y1="0"
       x2="39.680599"
       y2="0"
       id="line145157" />
  </g>
  <g
     transform="translate(3.1967416e-8,3.6450003)"
     id="g145163">
    <line
       stroke-linejoin="round"
       stroke-linecap="round"
       stroke-width="0.1"
       stroke="currentColor"
       x1="0.050000001"
       y1="0"
       x2="39.680599"
       y2="0"
       id="line145161" />
  </g>
  <g
     transform="translate(3.1967416e-8,2.6450003)"
     id="g145167">
    <rect
       x="36.470299"
       y="-0.1"
       width="1.9563"
       height="0.2"
       ry="0.1"
       fill="currentColor"
       id="rect145165" />
  </g>
  <g
     transform="translate(3.1967416e-8,8.6450003)"
     id="g145171">
    <rect
       x="33.716099"
       y="-0.1"
       width="1.9563"
       height="0.2"
       ry="0.1"
       fill="currentColor"
       id="rect145169" />
  </g>
  <g
     transform="translate(3.1967416e-8,2.6450003)"
     id="g145175">
    <rect
       x="31.461901"
       y="-0.1"
       width="1.9563"
       height="0.2"
       ry="0.1"
       fill="currentColor"
       id="rect145173" />
  </g>
  <g
     transform="translate(3.1967416e-8,8.6450003)"
     id="g145179">
    <rect
       x="28.707701"
       y="-0.1"
       width="1.9563"
       height="0.2"
       ry="0.1"
       fill="currentColor"
       id="rect145177" />
  </g>
  <g
     transform="translate(3.1967416e-8,2.6450003)"
     id="g145183">
    <rect
       x="26.4534"
       y="-0.1"
       width="1.9563"
       height="0.2"
       ry="0.1"
       fill="currentColor"
       id="rect145181" />
  </g>
  <g
     transform="translate(3.1967416e-8,2.6450003)"
     id="g145187">
    <rect
       x="21.445"
       y="-0.1"
       width="1.9563"
       height="0.2"
       ry="0.1"
       fill="currentColor"
       id="rect145185" />
  </g>
  <g
     transform="translate(3.1967416e-8,2.6450003)"
     id="g145191">
    <rect
       x="16.4366"
       y="-0.1"
       width="1.9563"
       height="0.2"
       ry="0.1"
       fill="currentColor"
       id="rect145189" />
  </g>
  <g
     transform="translate(3.1967416e-8,2.6450003)"
     id="g145195">
    <rect
       x="11.4282"
       y="-0.1"
       width="1.9563"
       height="0.2"
       ry="0.1"
       fill="currentColor"
       id="rect145193" />
  </g>
  <g
     transform="translate(39.5405,5.6450003)"
     id="g145199">
    <rect
       x="0"
       y="-2"
       width="0.19"
       height="4"
       ry="0.0000"
       fill="currentColor"
       id="rect145197" />
  </g>
  <g
     transform="translate(39.0505,5.6450003)"
     id="g145203">
    <rect
       x="0"
       y="-2"
       width="0.19"
       height="4"
       ry="0.0000"
       fill="currentColor"
       id="rect145201" />
  </g>
  <a
     style="color:inherit"
     xlink:href="textedit://C:/Users/Javier/Documents/lilypond%20scores/loose%20examples.ly:409:38:39"
     id="a145209"
     transform="translate(-5.6906,-5.4084997)">
    <g
       transform="translate(34.7243,14.0535)"
       id="g145207">
      <path
         transform="scale(0.004,-0.004)"
         d="m 218,136 c 55,0 108,-28 108,-89 0,-71 -55,-121 -102,-149 -35,-21 -75,-34 -116,-34 -55,0 -108,28 -108,89 0,71 55,121 102,149 35,21 75,34 116,34 z"
         fill="currentColor"
         id="path145205" />
    </g>
  </a>
  <g
     transform="translate(26.8444,5.6450003)"
     id="g145213">
    <rect
       x="-0.064999998"
       y="-3.3139"
       width="0.13"
       height="9.1239004"
       ry="0.039999999"
       fill="currentColor"
       id="rect145211" />
  </g>
  <a
     style="color:inherit"
     xlink:href="textedit://C:/Users/Javier/Documents/lilypond%20scores/loose%20examples.ly:409:34:35"
     id="a145219"
     transform="translate(-5.6906,-5.4084997)">
    <g
       transform="translate(32.47,7.5535)"
       id="g145217">
      <path
         transform="scale(0.004,-0.004)"
         d="m 218,136 c 55,0 108,-28 108,-89 0,-71 -55,-121 -102,-149 -35,-21 -75,-34 -116,-34 -55,0 -108,28 -108,89 0,71 55,121 102,149 35,21 75,34 116,34 z"
         fill="currentColor"
         id="path145215" />
    </g>
  </a>
  <g
     transform="translate(24.0902,5.6450003)"
     id="g145223">
    <rect
       x="-0.064999998"
       y="2.6861"
       width="0.13"
       height="3.1238999"
       ry="0.039999999"
       fill="currentColor"
       id="rect145221" />
  </g>
  <a
     style="color:inherit"
     xlink:href="textedit://C:/Users/Javier/Documents/lilypond%20scores/loose%20examples.ly:409:30:31"
     id="a145229"
     transform="translate(-5.6906,-5.4084997)">
    <g
       transform="translate(29.7158,13.5535)"
       id="g145227">
      <path
         transform="scale(0.004,-0.004)"
         d="m 218,136 c 55,0 108,-28 108,-89 0,-71 -55,-121 -102,-149 -35,-21 -75,-34 -116,-34 -55,0 -108,28 -108,89 0,71 55,121 102,149 35,21 75,34 116,34 z"
         fill="currentColor"
         id="path145225" />
    </g>
  </a>
  <g
     transform="translate(21.836,5.6450003)"
     id="g145233">
    <rect
       x="-0.064999998"
       y="-3.3139"
       width="0.13"
       height="7.8139"
       ry="0.039999999"
       fill="currentColor"
       id="rect145231" />
  </g>
  <a
     style="color:inherit"
     xlink:href="textedit://C:/Users/Javier/Documents/lilypond%20scores/loose%20examples.ly:409:26:27"
     id="a145239"
     transform="translate(-5.6906,-5.4084997)">
    <g
       transform="translate(27.4616,7.5535)"
       id="g145237">
      <path
         transform="scale(0.004,-0.004)"
         d="m 218,136 c 55,0 108,-28 108,-89 0,-71 -55,-121 -102,-149 -35,-21 -75,-34 -116,-34 -55,0 -108,28 -108,89 0,71 55,121 102,149 35,21 75,34 116,34 z"
         fill="currentColor"
         id="path145235" />
    </g>
  </a>
  <g
     transform="translate(9,9.3350003)"
     id="g145243">
    <polygon
       stroke-linejoin="round"
       stroke-linecap="round"
       stroke-width="0.08"
       fill="currentColor"
       stroke="currentColor"
       points="12.8611,-0.2 12.8611,0.2 0.04,0.2 0.04,-0.2 "
       id="polygon145241" />
  </g>
  <g
     transform="translate(9,10.145)"
     id="g145247">
    <polygon
       stroke-linejoin="round"
       stroke-linecap="round"
       stroke-width="0.08"
       fill="currentColor"
       stroke="currentColor"
       points="12.8611,-0.2 12.8611,0.2 0.04,0.2 0.04,-0.2 "
       id="polygon145245" />
  </g>
  <a
     style="color:inherit"
     xlink:href="textedit://C:/Users/Javier/Documents/lilypond%20scores/loose%20examples.ly:409:48:49"
     id="a145253"
     transform="translate(-5.6906,-5.4084997)">
    <g
       transform="translate(39.7327,14.5535)"
       id="g145251">
      <path
         transform="scale(0.004,-0.004)"
         d="m 218,136 c 55,0 108,-28 108,-89 0,-71 -55,-121 -102,-149 -35,-21 -75,-34 -116,-34 -55,0 -108,28 -108,89 0,71 55,121 102,149 35,21 75,34 116,34 z"
         fill="currentColor"
         id="path145249" />
    </g>
  </a>
  <g
     transform="translate(24.0252,10.645)"
     id="g145257">
    <polygon
       stroke-linejoin="round"
       stroke-linecap="round"
       stroke-width="0.08"
       fill="currentColor"
       stroke="currentColor"
       points="12.8611,-0.2 12.8611,0.2 0.04,0.2 0.04,-0.2 "
       id="polygon145255" />
  </g>
  <g
     transform="translate(24.0252,11.455)"
     id="g145261">
    <polygon
       stroke-linejoin="round"
       stroke-linecap="round"
       stroke-width="0.08"
       fill="currentColor"
       stroke="currentColor"
       points="12.8611,-0.2 12.8611,0.2 0.04,0.2 0.04,-0.2 "
       id="polygon145259" />
  </g>
  <g
     transform="translate(36.8613,5.6450003)"
     id="g145265">
    <rect
       x="-0.064999998"
       y="-3.3139"
       width="0.13"
       height="9.1239004"
       ry="0.039999999"
       fill="currentColor"
       id="rect145263" />
  </g>
  <a
     style="color:inherit"
     xlink:href="textedit://C:/Users/Javier/Documents/lilypond%20scores/loose%20examples.ly:409:52:53"
     id="a145271"
     transform="translate(-5.6906,-5.4084997)">
    <g
       transform="translate(42.4869,7.5535)"
       id="g145269">
      <path
         transform="scale(0.004,-0.004)"
         d="m 218,136 c 55,0 108,-28 108,-89 0,-71 -55,-121 -102,-149 -35,-21 -75,-34 -116,-34 -55,0 -108,28 -108,89 0,71 55,121 102,149 35,21 75,34 116,34 z"
         fill="currentColor"
         id="path145267" />
    </g>
  </a>
  <g
     transform="translate(34.1071,5.6450003)"
     id="g145275">
    <rect
       x="-0.064999998"
       y="3.6861"
       width="0.13"
       height="2.1238999"
       ry="0.039999999"
       fill="currentColor"
       id="rect145273" />
  </g>
  <g
     transform="translate(29.0987,5.6450003)"
     id="g145279">
    <rect
       x="-0.064999998"
       y="3.1861"
       width="0.13"
       height="2.6238999"
       ry="0.039999999"
       fill="currentColor"
       id="rect145277" />
  </g>
  <g
     transform="translate(31.8529,5.6450003)"
     id="g145283">
    <rect
       x="-0.064999998"
       y="-3.3139"
       width="0.13"
       height="9.1239004"
       ry="0.039999999"
       fill="currentColor"
       id="rect145281" />
  </g>
  <a
     style="color:inherit"
     xlink:href="textedit://C:/Users/Javier/Documents/lilypond%20scores/loose%20examples.ly:409:44:45"
     id="a145289"
     transform="translate(-5.6906,-5.4084997)">
    <g
       transform="translate(37.4785,7.5535)"
       id="g145287">
      <path
         transform="scale(0.004,-0.004)"
         d="m 218,136 c 55,0 108,-28 108,-89 0,-71 -55,-121 -102,-149 -35,-21 -75,-34 -116,-34 -55,0 -108,28 -108,89 0,71 55,121 102,149 35,21 75,34 116,34 z"
         fill="currentColor"
         id="path145285" />
    </g>
  </a>
  <a
     style="color:inherit"
     xlink:href="textedit://C:/Users/Javier/Documents/lilypond%20scores/loose%20examples.ly:409:11:12"
     id="a145295"
     transform="translate(-5.6906,-5.4084997)">
    <g
       transform="translate(17.7042,6.5085)"
       id="g145293">
      <path
         transform="scale(0.0022,-0.0022)"
         d="m 155,471 c -34,0 -70,-8 -70,-38 0,-19 31,-23 31,-42 0,-28 -23,-51 -51,-51 -28,0 -51,23 -51,51 0,67 68,109 141,109 93,0 174,-31 174,-113 0,-41 -6,-77 -42,-94 -11,-5 -17,-16 -17,-27 0,-11 6,-22 17,-27 40,-19 59,-53 59,-98 C 346,47 263,0 160,0 78,0 0,45 0,119 c 0,32 26,58 58,58 32,0 58,-26 58,-58 0,-22 -36,-26 -36,-48 0,-33 42,-42 80,-42 46,0 56,58 56,112 v 38 c 0,40 -4,69 -43,69 H 99 c -12,0 -18,9 -18,18 0,9 6,18 18,18 h 74 c 40,0 43,31 43,73 v 30 c 0,50 -16,84 -61,84 z"
         fill="currentColor"
         id="path145291" />
    </g>
  </a>
  <a
     style="color:inherit"
     xlink:href="textedit://C:/Users/Javier/Documents/lilypond%20scores/loose%20examples.ly:409:9:10"
     id="a145301"
     transform="translate(-5.6906,-5.4084997)">
    <g
       transform="translate(17.4448,7.5535)"
       id="g145299">
      <path
         transform="scale(0.004,-0.004)"
         d="m 218,136 c 55,0 108,-28 108,-89 0,-71 -55,-121 -102,-149 -35,-21 -75,-34 -116,-34 -55,0 -108,28 -108,89 0,71 55,121 102,149 35,21 75,34 116,34 z"
         fill="currentColor"
         id="path145297" />
    </g>
  </a>
  <g
     transform="translate(11.8192,5.6450003)"
     id="g145305">
    <rect
       x="-0.064999998"
       y="-3.3139"
       width="0.13"
       height="7.8139"
       ry="0.039999999"
       fill="currentColor"
       id="rect145303" />
  </g>
  <g
     transform="translate(9.065,5.6450003)"
     id="g145309">
    <rect
       x="-0.064999998"
       y="-0.81389999"
       width="0.13"
       height="5.3139"
       ry="0.039999999"
       fill="currentColor"
       id="rect145307" />
  </g>
  <a
     style="color:inherit"
     xlink:href="textedit://C:/Users/Javier/Documents/lilypond%20scores/loose%20examples.ly:405:4:5"
     id="a145319"
     transform="translate(-5.6906,-5.4084997)">
    <g
       transform="translate(9.9906,9.0535)"
       id="g145313">
      <path
         transform="scale(0.004,-0.004)"
         d="m 216,-312 c 0,-10 -8,-19 -18,-19 -10,0 -19,9 -19,19 v 145 l -83,-31 v -158 c 0,-10 -9,-19 -19,-19 -10,0 -18,9 -18,19 v 145 l -32,-12 c -2,-1 -5,-1 -7,-1 -11,0 -20,9 -20,20 v 60 c 0,8 5,16 13,19 l 46,16 V 51 L 27,40 C 25,39 22,39 20,39 9,39 0,48 0,59 v 60 c 0,8 5,15 13,18 l 46,17 v 158 c 0,10 8,19 18,19 10,0 19,-9 19,-19 V 167 l 83,31 v 158 c 0,10 9,19 19,19 10,0 18,-9 18,-19 V 211 l 32,12 c 2,1 5,1 7,1 11,0 20,-9 20,-20 v -60 c 0,-8 -5,-16 -13,-19 L 216,109 V -51 l 32,11 c 2,1 5,1 7,1 11,0 20,-9 20,-20 v -60 c 0,-8 -5,-15 -13,-18 l -46,-17 z M 96,65 V -95 l 83,30 V 95 Z"
         fill="currentColor"
         id="path145311" />
    </g>
    <g
       transform="translate(11.0906,10.5535)"
       id="g145317">
      <path
         transform="scale(0.004,-0.004)"
         d="m 216,-312 c 0,-10 -8,-19 -18,-19 -10,0 -19,9 -19,19 v 145 l -83,-31 v -158 c 0,-10 -9,-19 -19,-19 -10,0 -18,9 -18,19 v 145 l -32,-12 c -2,-1 -5,-1 -7,-1 -11,0 -20,9 -20,20 v 60 c 0,8 5,16 13,19 l 46,16 V 51 L 27,40 C 25,39 22,39 20,39 9,39 0,48 0,59 v 60 c 0,8 5,15 13,18 l 46,17 v 158 c 0,10 8,19 18,19 10,0 19,-9 19,-19 V 167 l 83,31 v 158 c 0,10 9,19 19,19 10,0 18,-9 18,-19 V 211 l 32,12 c 2,1 5,1 7,1 11,0 20,-9 20,-20 v -60 c 0,-8 -5,-16 -13,-19 L 216,109 V -51 l 32,11 c 2,1 5,1 7,1 11,0 20,-9 20,-20 v -60 c 0,-8 -5,-15 -13,-18 l -46,-17 z M 96,65 V -95 l 83,30 V 95 Z"
         fill="currentColor"
         id="path145315" />
    </g>
  </a>
  <g
     transform="translate(0.80000003,6.6450003)"
     id="g145323">
    <path
       transform="scale(0.004,-0.004)"
       d="m 266,-635 h -6 c -108,0 -195,88 -195,197 0,58 53,103 112,103 54,0 95,-47 95,-103 0,-52 -43,-95 -95,-95 -11,0 -21,2 -31,6 26,-39 68,-65 117,-65 h 4 z m 195,432 c 68,24 113,95 113,164 0,90 -66,179 -173,190 24,-116 46,-231 60,-354 z M 74,28 c 0,-135 129,-247 264,-247 28,0 55,2 82,6 C 406,-86 383,32 357,151 278,143 233,90 233,32 c 0,-44 25,-91 81,-123 5,-5 7,-10 7,-15 0,-11 -10,-22 -22,-22 -3,0 -6,1 -9,2 -80,43 -117,115 -117,185 0,88 58,174 160,197 -14,58 -29,117 -46,175 C 180,310 74,188 74,28 Z M 335,-262 C 147,-262 2,-90 2,112 c 0,177 131,306 248,441 -19,62 -37,125 -45,190 -6,52 -7,104 -7,156 0,115 55,224 149,292 6,5 14,5 20,0 71,-84 133,-245 133,-358 0,-143 -86,-255 -180,-364 21,-68 39,-138 56,-207 4,0 9,1 13,1 155,0 256,-128 256,-261 0,-76 -33,-154 -107,-210 -22,-17 -47,-28 -73,-36 3,-35 5,-70 5,-105 0,-19 -1,-39 -2,-58 -7,-119 -88,-225 -202,-228 l 1,43 c 93,2 153,92 159,191 1,18 2,37 2,55 0,31 -1,61 -4,92 -29,-5 -58,-8 -89,-8 z m 93,1178 c 0,55 -4,79 -20,129 -99,-48 -162,-149 -162,-259 0,-74 18,-133 36,-194 80,97 146,198 146,324 z"
       fill="currentColor"
       id="path145321" />
  </g>
  <a
     style="color:inherit"
     xlink:href="textedit://C:/Users/Javier/Documents/lilypond%20scores/loose%20examples.ly:409:4:5"
     id="a145329"
     transform="translate(-5.6906,-5.4084997)">
    <g
       transform="translate(14.6906,10.0535)"
       id="g145327">
      <path
         transform="scale(0.004,-0.004)"
         d="m 218,136 c 55,0 108,-28 108,-89 0,-71 -55,-121 -102,-149 -35,-21 -75,-34 -116,-34 -55,0 -108,28 -108,89 0,71 55,121 102,149 35,21 75,34 116,34 z"
         fill="currentColor"
         id="path145325" />
    </g>
  </a>
  <g
     transform="translate(16.8276,5.6450003)"
     id="g145333">
    <rect
       x="-0.064999998"
       y="-3.3139"
       width="0.13"
       height="7.8139"
       ry="0.039999999"
       fill="currentColor"
       id="rect145331" />
  </g>
  <a
     style="color:inherit"
     xlink:href="textedit://C:/Users/Javier/Documents/lilypond%20scores/loose%20examples.ly:409:19:20"
     id="a145339"
     transform="translate(-5.6906,-5.4084997)">
    <g
       transform="translate(22.4532,7.5535)"
       id="g145337">
      <path
         transform="scale(0.004,-0.004)"
         d="m 218,136 c 55,0 108,-28 108,-89 0,-71 -55,-121 -102,-149 -35,-21 -75,-34 -116,-34 -55,0 -108,28 -108,89 0,71 55,121 102,149 35,21 75,34 116,34 z"
         fill="currentColor"
         id="path145335" />
    </g>
  </a>
  <g
     transform="translate(14.0734,5.6450003)"
     id="g145343">
    <rect
       x="-0.064999998"
       y="1.6861"
       width="0.13"
       height="2.8139"
       ry="0.039999999"
       fill="currentColor"
       id="rect145341" />
  </g>
  <a
     style="color:inherit"
     xlink:href="textedit://C:/Users/Javier/Documents/lilypond%20scores/loose%20examples.ly:409:22:23"
     id="a145349"
     transform="translate(-5.6906,-5.4084997)">
    <g
       transform="translate(24.7074,13.0535)"
       id="g145347">
      <path
         transform="scale(0.004,-0.004)"
         d="m 218,136 c 55,0 108,-28 108,-89 0,-71 -55,-121 -102,-149 -35,-21 -75,-34 -116,-34 -55,0 -108,28 -108,89 0,71 55,121 102,149 35,21 75,34 116,34 z"
         fill="currentColor"
         id="path145345" />
    </g>
  </a>
  <a
     style="color:inherit"
     xlink:href="textedit://C:/Users/Javier/Documents/lilypond%20scores/loose%20examples.ly:409:14:15"
     id="a145355"
     transform="translate(-5.6906,-5.4084997)">
    <g
       transform="translate(19.699,12.5535)"
       id="g145353">
      <path
         transform="scale(0.004,-0.004)"
         d="m 218,136 c 55,0 108,-28 108,-89 0,-71 -55,-121 -102,-149 -35,-21 -75,-34 -116,-34 -55,0 -108,28 -108,89 0,71 55,121 102,149 35,21 75,34 116,34 z"
         fill="currentColor"
         id="path145351" />
    </g>
  </a>
  <g
     transform="translate(19.0818,5.6450003)"
     id="g145359">
    <rect
       x="-0.064999998"
       y="2.1861"
       width="0.13"
       height="2.3139"
       ry="0.039999999"
       fill="currentColor"
       id="rect145357" />
  </g>
  <path
     style="fill:#000000;stroke:#000000;stroke-width:0.0938941"
     d="m 13.088223,0.54027123 25.145615,0.032156"
     id="path145847" />
</svg>
