<svg
   version="1.2"
   width="69.818527mm"
   height="19.132061mm"
   viewBox="0 0 39.730599 10.887199"
   id="svg145841"
   sodipodi:docname="loose examples-3.svg"
   xmlns:inkscape="http://www.inkscape.org/namespaces/inkscape"
   xmlns:sodipodi="http://sodipodi.sourceforge.net/DTD/sodipodi-0.dtd"
   xmlns:xlink="http://www.w3.org/1999/xlink"
   xmlns="http://www.w3.org/2000/svg"
   xmlns:svg="http://www.w3.org/2000/svg">
  <defs
     id="defs145845" />
  <sodipodi:namedview
     id="namedview145843"
     pagecolor="#ffffff"
     bordercolor="#000000"
     borderopacity="0.25"
     inkscape:showpageshadow="2"
     inkscape:pageopacity="0.0"
     inkscape:pagecheckerboard="0"
     inkscape:deskcolor="#d1d1d1"
     inkscape:document-units="mm"
     showgrid="false" />
  <style
     type="text/css"
     id="style145137"><![CDATA[
tspan { white-space: pre; }
]]></style>
  <!-- Page: 3/3 -->
  <g
     transform="translate(3.1967416e-8,8.647199)"
     id="g145363">
    <line
       stroke-linejoin="round"
       stroke-linecap="round"
       stroke-width="0.1"
       stroke="currentColor"
       x1="0.050000001"
       y1="0"
       x2="39.680599"
       y2="0"
       id="line145361" />
  </g>
  <g
     transform="translate(3.1967416e-8,7.647199)"
     id="g145367">
    <line
       stroke-linejoin="round"
       stroke-linecap="round"
       stroke-width="0.1"
       stroke="currentColor"
       x1="0.050000001"
       y1="0"
       x2="39.680599"
       y2="0"
       id="line145365" />
  </g>
  <g
     transform="translate(3.1967416e-8,6.647199)"
     id="g145371">
    <line
       stroke-linejoin="round"
       stroke-linecap="round"
       stroke-width="0.1"
       stroke="currentColor"
       x1="0.050000001"
       y1="0"
       x2="39.680599"
       y2="0"
       id="line145369" />
  </g>
  <g
     transform="translate(3.1967416e-8,5.647199)"
     id="g145375">
    <line
       stroke-linejoin="round"
       stroke-linecap="round"
       stroke-width="0.1"
       stroke="currentColor"
       x1="0.050000001"
       y1="0"
       x2="39.680599"
       y2="0"
       id="line145373" />
  </g>
  <g
     transform="translate(3.1967416e-8,4.647199)"
     id="g145379">
    <line
       stroke-linejoin="round"
       stroke-linecap="round"
       stroke-width="0.1"
       stroke="currentColor"
       x1="0.050000001"
       y1="0"
       x2="39.680599"
       y2="0"
       id="line145377" />
  </g>
  <g
     transform="translate(3.1967416e-8,2.647199)"
     id="g145383">
    <rect
       x="36.470299"
       y="-0.1"
       width="1.9563"
       height="0.2"
       ry="0.1"
       fill="currentColor"
       id="rect145381" />
  </g>
  <g
     transform="translate(3.1967416e-8,3.647199)"
     id="g145387">
    <rect
       x="36.470299"
       y="-0.1"
       width="1.9563"
       height="0.2"
       ry="0.1"
       fill="currentColor"
       id="rect145385" />
  </g>
  <g
     transform="translate(3.1967416e-8,2.647199)"
     id="g145391">
    <rect
       x="31.461901"
       y="-0.1"
       width="1.9563"
       height="0.2"
       ry="0.1"
       fill="currentColor"
       id="rect145389" />
  </g>
  <g
     transform="translate(3.1967416e-8,3.647199)"
     id="g145395">
    <rect
       x="31.461901"
       y="-0.1"
       width="1.9563"
       height="0.2"
       ry="0.1"
       fill="currentColor"
       id="rect145393" />
  </g>
  <g
     transform="translate(3.1967416e-8,2.647199)"
     id="g145399">
    <rect
       x="26.4534"
       y="-0.1"
       width="1.9563"
       height="0.2"
       ry="0.1"
       fill="currentColor"
       id="rect145397" />
  </g>
  <g
     transform="translate(3.1967416e-8,3.647199)"
     id="g145403">
    <rect
       x="26.4534"
       y="-0.1"
       width="1.9563"
       height="0.2"
       ry="0.1"
       fill="currentColor"
       id="rect145401" />
  </g>
  <g
     transform="translate(3.1967416e-8,2.647199)"
     id="g145407">
    <rect
       x="21.445"
       y="-0.1"
       width="1.9563"
       height="0.2"
       ry="0.1"
       fill="currentColor"
       id="rect145405" />
  </g>
  <g
     transform="translate(3.1967416e-8,3.647199)"
     id="g145411">
    <rect
       x="21.445"
       y="-0.1"
       width="1.9563"
       height="0.2"
       ry="0.1"
       fill="currentColor"
       id="rect145409" />
  </g>
  <g
     transform="translate(3.1967416e-8,2.647199)"
     id="g145415">
    <rect
       x="16.4366"
       y="-0.1"
       width="1.9563"
       height="0.2"
       ry="0.1"
       fill="currentColor"
       id="rect145413" />
  </g>
  <g
     transform="translate(3.1967416e-8,3.647199)"
     id="g145419">
    <rect
       x="16.4366"
       y="-0.1"
       width="1.9563"
       height="0.2"
       ry="0.1"
       fill="currentColor"
       id="rect145417" />
  </g>
  <g
     transform="translate(3.1967416e-8,2.647199)"
     id="g145423">
    <rect
       x="11.4282"
       y="-0.1"
       width="1.9563"
       height="0.2"
       ry="0.1"
       fill="currentColor"
       id="rect145421" />
  </g>
  <g
     transform="translate(3.1967416e-8,3.647199)"
     id="g145427">
    <rect
       x="11.4282"
       y="-0.1"
       width="1.9563"
       height="0.2"
       ry="0.1"
       fill="currentColor"
       id="rect145425" />
  </g>
  <g
     transform="translate(39.5405,6.647199)"
     id="g145431">
    <rect
       x="0"
       y="-2"
       width="0.19"
       height="4"
       ry="0.0000"
       fill="currentColor"
       id="rect145429" />
  </g>
  <g
     transform="translate(39.0505,6.647199)"
     id="g145435">
    <rect
       x="0"
       y="-2"
       width="0.19"
       height="4"
       ry="0.0000"
       fill="currentColor"
       id="rect145433" />
  </g>
  <a
     style="color:inherit"
     xlink:href="textedit://C:/Users/Javier/Documents/lilypond%20scores/loose%20examples.ly:422:35:36"
     id="a145441"
     transform="translate(-5.6906,-21.046501)">
    <g
       transform="translate(34.7243,29.1937)"
       id="g145439">
      <path
         transform="scale(0.004,-0.004)"
         d="m 218,136 c 55,0 108,-28 108,-89 0,-71 -55,-121 -102,-149 -35,-21 -75,-34 -116,-34 -55,0 -108,28 -108,89 0,71 55,121 102,149 35,21 75,34 116,34 z"
         fill="currentColor"
         id="path145437" />
    </g>
  </a>
  <g
     transform="translate(26.8444,6.647199)"
     id="g145445">
    <rect
       x="-0.064999998"
       y="-4.3139"
       width="0.13"
       height="8.3139"
       ry="0.039999999"
       fill="currentColor"
       id="rect145443" />
  </g>
  <a
     style="color:inherit"
     xlink:href="textedit://C:/Users/Javier/Documents/lilypond%20scores/loose%20examples.ly:422:31:32"
     id="a145451"
     transform="translate(-5.6906,-21.046501)">
    <g
       transform="translate(32.47,23.1937)"
       id="g145449">
      <path
         transform="scale(0.004,-0.004)"
         d="m 218,136 c 55,0 108,-28 108,-89 0,-71 -55,-121 -102,-149 -35,-21 -75,-34 -116,-34 -55,0 -108,28 -108,89 0,71 55,121 102,149 35,21 75,34 116,34 z"
         fill="currentColor"
         id="path145447" />
    </g>
  </a>
  <g
     transform="translate(24.0902,6.647199)"
     id="g145455">
    <rect
       x="-0.064999998"
       y="1.1861"
       width="0.13"
       height="2.8139"
       ry="0.039999999"
       fill="currentColor"
       id="rect145453" />
  </g>
  <a
     style="color:inherit"
     xlink:href="textedit://C:/Users/Javier/Documents/lilypond%20scores/loose%20examples.ly:422:27:28"
     id="a145461"
     transform="translate(-5.6906,-21.046501)">
    <g
       transform="translate(29.7158,28.6937)"
       id="g145459">
      <path
         transform="scale(0.004,-0.004)"
         d="m 218,136 c 55,0 108,-28 108,-89 0,-71 -55,-121 -102,-149 -35,-21 -75,-34 -116,-34 -55,0 -108,28 -108,89 0,71 55,121 102,149 35,21 75,34 116,34 z"
         fill="currentColor"
         id="path145457" />
    </g>
  </a>
  <g
     transform="translate(21.836,6.647199)"
     id="g145465">
    <rect
       x="-0.064999998"
       y="-4.3139"
       width="0.13"
       height="7.1289001"
       ry="0.039999999"
       fill="currentColor"
       id="rect145463" />
  </g>
  <a
     style="color:inherit"
     xlink:href="textedit://C:/Users/Javier/Documents/lilypond%20scores/loose%20examples.ly:422:24:25"
     id="a145471"
     transform="translate(-5.6906,-21.046501)">
    <g
       transform="translate(27.4616,23.1937)"
       id="g145469">
      <path
         transform="scale(0.004,-0.004)"
         d="m 218,136 c 55,0 108,-28 108,-89 0,-71 -55,-121 -102,-149 -35,-21 -75,-34 -116,-34 -55,0 -108,28 -108,89 0,71 55,121 102,149 35,21 75,34 116,34 z"
         fill="currentColor"
         id="path145467" />
    </g>
  </a>
  <g
     transform="translate(9,9.647199)"
     id="g145475">
    <polygon
       stroke-linejoin="round"
       stroke-linecap="round"
       stroke-width="0.08"
       fill="currentColor"
       stroke="currentColor"
       points="12.8611,-1.2 12.8611,-0.8 0.04,0.2 0.04,-0.2 "
       id="polygon145473" />
  </g>
  <g
     transform="translate(9,10.457199)"
     id="g145479">
    <polygon
       stroke-linejoin="round"
       stroke-linecap="round"
       stroke-width="0.08"
       fill="currentColor"
       stroke="currentColor"
       points="12.8611,-1.2 12.8611,-0.8 0.04,0.2 0.04,-0.2 "
       id="polygon145477" />
  </g>
  <a
     style="color:inherit"
     xlink:href="textedit://C:/Users/Javier/Documents/lilypond%20scores/loose%20examples.ly:422:45:46"
     id="a145485"
     transform="translate(-5.6906,-21.046501)">
    <g
       transform="translate(39.7327,28.6937)"
       id="g145483">
      <path
         transform="scale(0.004,-0.004)"
         d="m 218,136 c 55,0 108,-28 108,-89 0,-71 -55,-121 -102,-149 -35,-21 -75,-34 -116,-34 -55,0 -108,28 -108,89 0,71 55,121 102,149 35,21 75,34 116,34 z"
         fill="currentColor"
         id="path145481" />
    </g>
  </a>
  <g
     transform="translate(24.0252,9.837199)"
     id="g145489">
    <polygon
       stroke-linejoin="round"
       stroke-linecap="round"
       stroke-width="0.08"
       fill="currentColor"
       stroke="currentColor"
       points="12.8611,-0.2 12.8611,0.2 0.04,0.2 0.04,-0.2 "
       id="polygon145487" />
  </g>
  <g
     transform="translate(24.0252,10.647199)"
     id="g145493">
    <polygon
       stroke-linejoin="round"
       stroke-linecap="round"
       stroke-width="0.08"
       fill="currentColor"
       stroke="currentColor"
       points="12.8611,-0.2 12.8611,0.2 0.04,0.2 0.04,-0.2 "
       id="polygon145491" />
  </g>
  <g
     transform="translate(36.8613,6.647199)"
     id="g145497">
    <rect
       x="-0.064999998"
       y="-4.3139"
       width="0.13"
       height="8.3139"
       ry="0.039999999"
       fill="currentColor"
       id="rect145495" />
  </g>
  <a
     style="color:inherit"
     xlink:href="textedit://C:/Users/Javier/Documents/lilypond%20scores/loose%20examples.ly:422:49:50"
     id="a145503"
     transform="translate(-5.6906,-21.046501)">
    <g
       transform="translate(42.4869,23.1937)"
       id="g145501">
      <path
         transform="scale(0.004,-0.004)"
         d="m 218,136 c 55,0 108,-28 108,-89 0,-71 -55,-121 -102,-149 -35,-21 -75,-34 -116,-34 -55,0 -108,28 -108,89 0,71 55,121 102,149 35,21 75,34 116,34 z"
         fill="currentColor"
         id="path145499" />
    </g>
  </a>
  <g
     transform="translate(34.1071,6.647199)"
     id="g145507">
    <rect
       x="-0.064999998"
       y="1.1861"
       width="0.13"
       height="2.8139"
       ry="0.039999999"
       fill="currentColor"
       id="rect145505" />
  </g>
  <g
     transform="translate(29.0987,6.647199)"
     id="g145511">
    <rect
       x="-0.064999998"
       y="1.6861"
       width="0.13"
       height="2.3139"
       ry="0.039999999"
       fill="currentColor"
       id="rect145509" />
  </g>
  <g
     transform="translate(31.8529,6.647199)"
     id="g145515">
    <rect
       x="-0.064999998"
       y="-4.3139"
       width="0.13"
       height="8.3139"
       ry="0.039999999"
       fill="currentColor"
       id="rect145513" />
  </g>
  <a
     style="color:inherit"
     xlink:href="textedit://C:/Users/Javier/Documents/lilypond%20scores/loose%20examples.ly:422:41:42"
     id="a145521"
     transform="translate(-5.6906,-21.046501)">
    <g
       transform="translate(37.4785,23.1937)"
       id="g145519">
      <path
         transform="scale(0.004,-0.004)"
         d="m 218,136 c 55,0 108,-28 108,-89 0,-71 -55,-121 -102,-149 -35,-21 -75,-34 -116,-34 -55,0 -108,28 -108,89 0,71 55,121 102,149 35,21 75,34 116,34 z"
         fill="currentColor"
         id="path145517" />
    </g>
  </a>
  <a
     style="color:inherit"
     xlink:href="textedit://C:/Users/Javier/Documents/lilypond%20scores/loose%20examples.ly:422:12:13"
     id="a145527"
     transform="translate(-5.6906,-21.046501)">
    <g
       transform="translate(17.6359,22.1487)"
       id="g145525">
      <path
         transform="scale(0.0022,-0.0022)"
         d="m 198,284 c 24,15 48,29 65,52 12,16 19,34 28,52 2,5 6,7 11,7 8,0 16,-6 16,-17 V 161 h 79 c 12,0 18,-9 18,-18 0,-9 -6,-18 -18,-18 h -79 c 2,-51 33,-96 80,-96 10,0 15,-8 15,-15 C 413,7 408,0 398,0 349,0 302,14 253,14 204,14 156,0 107,0 97,0 93,7 93,14 c 0,7 4,15 14,15 47,0 79,45 81,96 H 36 c -29,0 -38,17 -38,28 0,3 1,6 2,8 78,88 123,201 123,319 0,11 8,21 17,21 1,0 3,-1 4,-1 25,-7 50,-14 76,-14 26,0 52,7 77,14 2,1 4,1 6,1 10,0 17,-7 17,-14 0,-2 0,-5 -2,-7 L 36,161 h 152 v 96 c 0,10 1,21 10,27 z"
         fill="currentColor"
         id="path145523" />
    </g>
  </a>
  <a
     style="color:inherit"
     xlink:href="textedit://C:/Users/Javier/Documents/lilypond%20scores/loose%20examples.ly:422:9:10"
     id="a145533"
     transform="translate(-5.6906,-21.046501)">
    <g
       transform="translate(17.4448,23.1937)"
       id="g145531">
      <path
         transform="scale(0.004,-0.004)"
         d="m 218,136 c 55,0 108,-28 108,-89 0,-71 -55,-121 -102,-149 -35,-21 -75,-34 -116,-34 -55,0 -108,28 -108,89 0,71 55,121 102,149 35,21 75,34 116,34 z"
         fill="currentColor"
         id="path145529" />
    </g>
  </a>
  <g
     transform="translate(11.8192,6.647199)"
     id="g145537">
    <rect
       x="-0.064999998"
       y="-4.3139"
       width="0.13"
       height="7.9053998"
       ry="0.039999999"
       fill="currentColor"
       id="rect145535" />
  </g>
  <g
     transform="translate(9.065,6.647199)"
     id="g145541">
    <rect
       x="-0.064999998"
       y="1.1861"
       width="0.13"
       height="2.6189001"
       ry="0.039999999"
       fill="currentColor"
       id="rect145539" />
  </g>
  <a
     style="color:inherit"
     xlink:href="textedit://C:/Users/Javier/Documents/lilypond%20scores/loose%20examples.ly:418:4:5"
     id="a145551"
     transform="translate(-5.6906,-21.046501)">
    <g
       transform="translate(9.9906,25.6937)"
       id="g145545">
      <path
         transform="scale(0.004,-0.004)"
         d="m 216,-312 c 0,-10 -8,-19 -18,-19 -10,0 -19,9 -19,19 v 145 l -83,-31 v -158 c 0,-10 -9,-19 -19,-19 -10,0 -18,9 -18,19 v 145 l -32,-12 c -2,-1 -5,-1 -7,-1 -11,0 -20,9 -20,20 v 60 c 0,8 5,16 13,19 l 46,16 V 51 L 27,40 C 25,39 22,39 20,39 9,39 0,48 0,59 v 60 c 0,8 5,15 13,18 l 46,17 v 158 c 0,10 8,19 18,19 10,0 19,-9 19,-19 V 167 l 83,31 v 158 c 0,10 9,19 19,19 10,0 18,-9 18,-19 V 211 l 32,12 c 2,1 5,1 7,1 11,0 20,-9 20,-20 v -60 c 0,-8 -5,-16 -13,-19 L 216,109 V -51 l 32,11 c 2,1 5,1 7,1 11,0 20,-9 20,-20 v -60 c 0,-8 -5,-15 -13,-18 l -46,-17 z M 96,65 V -95 l 83,30 V 95 Z"
         fill="currentColor"
         id="path145543" />
    </g>
    <g
       transform="translate(11.0906,27.1937)"
       id="g145549">
      <path
         transform="scale(0.004,-0.004)"
         d="m 216,-312 c 0,-10 -8,-19 -18,-19 -10,0 -19,9 -19,19 v 145 l -83,-31 v -158 c 0,-10 -9,-19 -19,-19 -10,0 -18,9 -18,19 v 145 l -32,-12 c -2,-1 -5,-1 -7,-1 -11,0 -20,9 -20,20 v 60 c 0,8 5,16 13,19 l 46,16 V 51 L 27,40 C 25,39 22,39 20,39 9,39 0,48 0,59 v 60 c 0,8 5,15 13,18 l 46,17 v 158 c 0,10 8,19 18,19 10,0 19,-9 19,-19 V 167 l 83,31 v 158 c 0,10 9,19 19,19 10,0 18,-9 18,-19 V 211 l 32,12 c 2,1 5,1 7,1 11,0 20,-9 20,-20 v -60 c 0,-8 -5,-16 -13,-19 L 216,109 V -51 l 32,11 c 2,1 5,1 7,1 11,0 20,-9 20,-20 v -60 c 0,-8 -5,-15 -13,-18 l -46,-17 z M 96,65 V -95 l 83,30 V 95 Z"
         fill="currentColor"
         id="path145547" />
    </g>
  </a>
  <g
     transform="translate(0.80000003,7.647199)"
     id="g145555">
    <path
       transform="scale(0.004,-0.004)"
       d="m 266,-635 h -6 c -108,0 -195,88 -195,197 0,58 53,103 112,103 54,0 95,-47 95,-103 0,-52 -43,-95 -95,-95 -11,0 -21,2 -31,6 26,-39 68,-65 117,-65 h 4 z m 195,432 c 68,24 113,95 113,164 0,90 -66,179 -173,190 24,-116 46,-231 60,-354 z M 74,28 c 0,-135 129,-247 264,-247 28,0 55,2 82,6 C 406,-86 383,32 357,151 278,143 233,90 233,32 c 0,-44 25,-91 81,-123 5,-5 7,-10 7,-15 0,-11 -10,-22 -22,-22 -3,0 -6,1 -9,2 -80,43 -117,115 -117,185 0,88 58,174 160,197 -14,58 -29,117 -46,175 C 180,310 74,188 74,28 Z M 335,-262 C 147,-262 2,-90 2,112 c 0,177 131,306 248,441 -19,62 -37,125 -45,190 -6,52 -7,104 -7,156 0,115 55,224 149,292 6,5 14,5 20,0 71,-84 133,-245 133,-358 0,-143 -86,-255 -180,-364 21,-68 39,-138 56,-207 4,0 9,1 13,1 155,0 256,-128 256,-261 0,-76 -33,-154 -107,-210 -22,-17 -47,-28 -73,-36 3,-35 5,-70 5,-105 0,-19 -1,-39 -2,-58 -7,-119 -88,-225 -202,-228 l 1,43 c 93,2 153,92 159,191 1,18 2,37 2,55 0,31 -1,61 -4,92 -29,-5 -58,-8 -89,-8 z m 93,1178 c 0,55 -4,79 -20,129 -99,-48 -162,-149 -162,-259 0,-74 18,-133 36,-194 80,97 146,198 146,324 z"
       fill="currentColor"
       id="path145553" />
  </g>
  <a
     style="color:inherit"
     xlink:href="textedit://C:/Users/Javier/Documents/lilypond%20scores/loose%20examples.ly:422:4:5"
     id="a145561"
     transform="translate(-5.6906,-21.046501)">
    <g
       transform="translate(14.6906,28.6937)"
       id="g145559">
      <path
         transform="scale(0.004,-0.004)"
         d="m 218,136 c 55,0 108,-28 108,-89 0,-71 -55,-121 -102,-149 -35,-21 -75,-34 -116,-34 -55,0 -108,28 -108,89 0,71 55,121 102,149 35,21 75,34 116,34 z"
         fill="currentColor"
         id="path145557" />
    </g>
  </a>
  <g
     transform="translate(16.8276,6.647199)"
     id="g145565">
    <rect
       x="-0.064999998"
       y="-4.3139"
       width="0.13"
       height="7.5172"
       ry="0.039999999"
       fill="currentColor"
       id="rect145563" />
  </g>
  <a
     style="color:inherit"
     xlink:href="textedit://C:/Users/Javier/Documents/lilypond%20scores/loose%20examples.ly:422:18:19"
     id="a145571"
     transform="translate(-5.6906,-21.046501)">
    <g
       transform="translate(22.4532,23.1937)"
       id="g145569">
      <path
         transform="scale(0.004,-0.004)"
         d="m 218,136 c 55,0 108,-28 108,-89 0,-71 -55,-121 -102,-149 -35,-21 -75,-34 -116,-34 -55,0 -108,28 -108,89 0,71 55,121 102,149 35,21 75,34 116,34 z"
         fill="currentColor"
         id="path145567" />
    </g>
  </a>
  <g
     transform="translate(14.0734,6.647199)"
     id="g145575">
    <rect
       x="-0.064999998"
       y="0.18610001"
       width="0.13"
       height="3.2306001"
       ry="0.039999999"
       fill="currentColor"
       id="rect145573" />
  </g>
  <a
     style="color:inherit"
     xlink:href="textedit://C:/Users/Javier/Documents/lilypond%20scores/loose%20examples.ly:422:21:22"
     id="a145581"
     transform="translate(-5.6906,-21.046501)">
    <g
       transform="translate(24.7074,28.1937)"
       id="g145579">
      <path
         transform="scale(0.004,-0.004)"
         d="m 218,136 c 55,0 108,-28 108,-89 0,-71 -55,-121 -102,-149 -35,-21 -75,-34 -116,-34 -55,0 -108,28 -108,89 0,71 55,121 102,149 35,21 75,34 116,34 z"
         fill="currentColor"
         id="path145577" />
    </g>
  </a>
  <a
     style="color:inherit"
     xlink:href="textedit://C:/Users/Javier/Documents/lilypond%20scores/loose%20examples.ly:422:15:16"
     id="a145587"
     transform="translate(-5.6906,-21.046501)">
    <g
       transform="translate(19.699,27.6937)"
       id="g145585">
      <path
         transform="scale(0.004,-0.004)"
         d="m 218,136 c 55,0 108,-28 108,-89 0,-71 -55,-121 -102,-149 -35,-21 -75,-34 -116,-34 -55,0 -108,28 -108,89 0,71 55,121 102,149 35,21 75,34 116,34 z"
         fill="currentColor"
         id="path145583" />
    </g>
  </a>
  <g
     transform="translate(19.0818,6.647199)"
     id="g145591">
    <rect
       x="-0.064999998"
       y="0.68610001"
       width="0.13"
       height="2.3424001"
       ry="0.039999999"
       fill="currentColor"
       id="rect145589" />
  </g>
  <path
     style="fill:#000000;stroke:#000000;stroke-width:0.0938941"
     d="m 13.120378,0.46554102 25.209927,-0.03216"
     id="path145849" />
</svg>
