<svg
   version="1.2"
   width="70.257858mm"
   height="20.88936mm"
   viewBox="0 0 39.980602 11.8872"
   id="svg145841"
   sodipodi:docname="loose examples-3.svg"
   xmlns:inkscape="http://www.inkscape.org/namespaces/inkscape"
   xmlns:sodipodi="http://sodipodi.sourceforge.net/DTD/sodipodi-0.dtd"
   xmlns:xlink="http://www.w3.org/1999/xlink"
   xmlns="http://www.w3.org/2000/svg"
   xmlns:svg="http://www.w3.org/2000/svg">
  <defs
     id="defs145845" />
  <sodipodi:namedview
     id="namedview145843"
     pagecolor="#ffffff"
     bordercolor="#000000"
     borderopacity="0.25"
     inkscape:showpageshadow="2"
     inkscape:pageopacity="0.0"
     inkscape:pagecheckerboard="0"
     inkscape:deskcolor="#d1d1d1"
     inkscape:document-units="mm"
     showgrid="false" />
  <style
     type="text/css"
     id="style145137"><![CDATA[
tspan { white-space: pre; }
]]></style>
  <!-- Page: 3/3 -->
  <g
     transform="translate(3.1967416e-8,8.6471984)"
     id="g145595">
    <line
       stroke-linejoin="round"
       stroke-linecap="round"
       stroke-width="0.1"
       stroke="currentColor"
       x1="0.050000001"
       y1="0"
       x2="39.930599"
       y2="0"
       id="line145593" />
  </g>
  <g
     transform="translate(3.1967416e-8,7.6471984)"
     id="g145599">
    <line
       stroke-linejoin="round"
       stroke-linecap="round"
       stroke-width="0.1"
       stroke="currentColor"
       x1="0.050000001"
       y1="0"
       x2="39.930599"
       y2="0"
       id="line145597" />
  </g>
  <g
     transform="translate(3.1967416e-8,6.6471984)"
     id="g145603">
    <line
       stroke-linejoin="round"
       stroke-linecap="round"
       stroke-width="0.1"
       stroke="currentColor"
       x1="0.050000001"
       y1="0"
       x2="39.930599"
       y2="0"
       id="line145601" />
  </g>
  <g
     transform="translate(3.1967416e-8,5.6471984)"
     id="g145607">
    <line
       stroke-linejoin="round"
       stroke-linecap="round"
       stroke-width="0.1"
       stroke="currentColor"
       x1="0.050000001"
       y1="0"
       x2="39.930599"
       y2="0"
       id="line145605" />
  </g>
  <g
     transform="translate(3.1967416e-8,4.6471984)"
     id="g145611">
    <line
       stroke-linejoin="round"
       stroke-linecap="round"
       stroke-width="0.1"
       stroke="currentColor"
       x1="0.050000001"
       y1="0"
       x2="39.930599"
       y2="0"
       id="line145609" />
  </g>
  <g
     transform="translate(3.1967416e-8,2.6471984)"
     id="g145615">
    <rect
       x="36.720299"
       y="-0.1"
       width="1.9563"
       height="0.2"
       ry="0.1"
       fill="currentColor"
       id="rect145613" />
  </g>
  <g
     transform="translate(3.1967416e-8,3.6471984)"
     id="g145619">
    <rect
       x="36.720299"
       y="-0.1"
       width="1.9563"
       height="0.2"
       ry="0.1"
       fill="currentColor"
       id="rect145617" />
  </g>
  <g
     transform="translate(3.1967416e-8,2.6471984)"
     id="g145623">
    <rect
       x="31.711901"
       y="-0.1"
       width="1.9563"
       height="0.2"
       ry="0.1"
       fill="currentColor"
       id="rect145621" />
  </g>
  <g
     transform="translate(3.1967416e-8,3.6471984)"
     id="g145627">
    <rect
       x="31.711901"
       y="-0.1"
       width="1.9563"
       height="0.2"
       ry="0.1"
       fill="currentColor"
       id="rect145625" />
  </g>
  <g
     transform="translate(3.1967416e-8,2.6471984)"
     id="g145631">
    <rect
       x="26.4534"
       y="-0.1"
       width="1.9563"
       height="0.2"
       ry="0.1"
       fill="currentColor"
       id="rect145629" />
  </g>
  <g
     transform="translate(3.1967416e-8,3.6471984)"
     id="g145635">
    <rect
       x="26.4534"
       y="-0.1"
       width="1.9563"
       height="0.2"
       ry="0.1"
       fill="currentColor"
       id="rect145633" />
  </g>
  <g
     transform="translate(3.1967416e-8,2.6471984)"
     id="g145639">
    <rect
       x="21.445"
       y="-0.1"
       width="1.9563"
       height="0.2"
       ry="0.1"
       fill="currentColor"
       id="rect145637" />
  </g>
  <g
     transform="translate(3.1967416e-8,3.6471984)"
     id="g145643">
    <rect
       x="21.445"
       y="-0.1"
       width="1.9563"
       height="0.2"
       ry="0.1"
       fill="currentColor"
       id="rect145641" />
  </g>
  <g
     transform="translate(3.1967416e-8,2.6471984)"
     id="g145647">
    <rect
       x="16.4366"
       y="-0.1"
       width="1.9563"
       height="0.2"
       ry="0.1"
       fill="currentColor"
       id="rect145645" />
  </g>
  <g
     transform="translate(3.1967416e-8,3.6471984)"
     id="g145651">
    <rect
       x="16.4366"
       y="-0.1"
       width="1.9563"
       height="0.2"
       ry="0.1"
       fill="currentColor"
       id="rect145649" />
  </g>
  <g
     transform="translate(3.1967416e-8,2.6471984)"
     id="g145655">
    <rect
       x="11.4282"
       y="-0.1"
       width="1.9563"
       height="0.2"
       ry="0.1"
       fill="currentColor"
       id="rect145653" />
  </g>
  <g
     transform="translate(3.1967416e-8,3.6471984)"
     id="g145659">
    <rect
       x="11.4282"
       y="-0.1"
       width="1.9563"
       height="0.2"
       ry="0.1"
       fill="currentColor"
       id="rect145657" />
  </g>
  <g
     transform="translate(39.7905,6.6471984)"
     id="g145663">
    <rect
       x="0"
       y="-2"
       width="0.19"
       height="4"
       ry="0.0000"
       fill="currentColor"
       id="rect145661" />
  </g>
  <g
     transform="translate(39.3005,6.6471984)"
     id="g145667">
    <rect
       x="0"
       y="-2"
       width="0.19"
       height="4"
       ry="0.0000"
       fill="currentColor"
       id="rect145665" />
  </g>
  <g
     transform="translate(29.3487,6.6471984)"
     id="g145671">
    <rect
       x="-0.064999998"
       y="2.1861"
       width="0.13"
       height="2.8139"
       ry="0.039999999"
       fill="currentColor"
       id="rect145669" />
  </g>
  <a
     style="color:inherit"
     xlink:href="textedit://C:/Users/Javier/Documents/lilypond%20scores/loose%20examples.ly:434:40:41"
     id="a145677"
     transform="translate(-5.6906,-37.686802)">
    <g
       transform="translate(34.9743,46.334)"
       id="g145675">
      <path
         transform="scale(0.004,-0.004)"
         d="m 218,136 c 55,0 108,-28 108,-89 0,-71 -55,-121 -102,-149 -35,-21 -75,-34 -116,-34 -55,0 -108,28 -108,89 0,71 55,121 102,149 35,21 75,34 116,34 z"
         fill="currentColor"
         id="path145673" />
    </g>
  </a>
  <g
     transform="translate(26.8444,6.6471984)"
     id="g145681">
    <rect
       x="-0.064999998"
       y="-4.3139"
       width="0.13"
       height="9.3139"
       ry="0.039999999"
       fill="currentColor"
       id="rect145679" />
  </g>
  <a
     style="color:inherit"
     xlink:href="textedit://C:/Users/Javier/Documents/lilypond%20scores/loose%20examples.ly:434:36:37"
     id="a145687"
     transform="translate(-5.6906,-37.686802)">
    <g
       transform="translate(32.47,39.834)"
       id="g145685">
      <path
         transform="scale(0.004,-0.004)"
         d="m 218,136 c 55,0 108,-28 108,-89 0,-71 -55,-121 -102,-149 -35,-21 -75,-34 -116,-34 -55,0 -108,28 -108,89 0,71 55,121 102,149 35,21 75,34 116,34 z"
         fill="currentColor"
         id="path145683" />
    </g>
  </a>
  <g
     transform="translate(24.0902,6.6471984)"
     id="g145691">
    <rect
       x="-0.064999998"
       y="1.6861"
       width="0.13"
       height="3.3139"
       ry="0.039999999"
       fill="currentColor"
       id="rect145689" />
  </g>
  <a
     style="color:inherit"
     xlink:href="textedit://C:/Users/Javier/Documents/lilypond%20scores/loose%20examples.ly:434:30:31"
     id="a145697"
     transform="translate(-5.6906,-37.686802)">
    <g
       transform="translate(29.7158,45.834)"
       id="g145695">
      <path
         transform="scale(0.004,-0.004)"
         d="m 218,136 c 55,0 108,-28 108,-89 0,-71 -55,-121 -102,-149 -35,-21 -75,-34 -116,-34 -55,0 -108,28 -108,89 0,71 55,121 102,149 35,21 75,34 116,34 z"
         fill="currentColor"
         id="path145693" />
    </g>
  </a>
  <g
     transform="translate(21.836,6.6471984)"
     id="g145701">
    <rect
       x="-0.064999998"
       y="-4.3139"
       width="0.13"
       height="8.1299"
       ry="0.039999999"
       fill="currentColor"
       id="rect145699" />
  </g>
  <a
     style="color:inherit"
     xlink:href="textedit://C:/Users/Javier/Documents/lilypond%20scores/loose%20examples.ly:434:26:27"
     id="a145707"
     transform="translate(-5.6906,-37.686802)">
    <g
       transform="translate(27.4616,39.834)"
       id="g145705">
      <path
         transform="scale(0.004,-0.004)"
         d="m 218,136 c 55,0 108,-28 108,-89 0,-71 -55,-121 -102,-149 -35,-21 -75,-34 -116,-34 -55,0 -108,28 -108,89 0,71 55,121 102,149 35,21 75,34 116,34 z"
         fill="currentColor"
         id="path145703" />
    </g>
  </a>
  <g
     transform="translate(9,10.837198)"
     id="g145711">
    <polygon
       stroke-linejoin="round"
       stroke-linecap="round"
       stroke-width="0.08"
       fill="currentColor"
       stroke="currentColor"
       points="12.8611,-1.39 12.8611,-0.99 0.04,0.2 0.04,-0.2 "
       id="polygon145709" />
  </g>
  <g
     transform="translate(9,11.647198)"
     id="g145715">
    <polygon
       stroke-linejoin="round"
       stroke-linecap="round"
       stroke-width="0.08"
       fill="currentColor"
       stroke="currentColor"
       points="12.8611,-1.39 12.8611,-0.99 0.04,0.2 0.04,-0.2 "
       id="polygon145713" />
  </g>
  <a
     style="color:inherit"
     xlink:href="textedit://C:/Users/Javier/Documents/lilypond%20scores/loose%20examples.ly:434:50:51"
     id="a145721"
     transform="translate(-5.6906,-37.686802)">
    <g
       transform="translate(39.9827,45.834)"
       id="g145719">
      <path
         transform="scale(0.004,-0.004)"
         d="m 218,136 c 55,0 108,-28 108,-89 0,-71 -55,-121 -102,-149 -35,-21 -75,-34 -116,-34 -55,0 -108,28 -108,89 0,71 55,121 102,149 35,21 75,34 116,34 z"
         fill="currentColor"
         id="path145717" />
    </g>
  </a>
  <g
     transform="translate(24.0252,10.837198)"
     id="g145725">
    <polygon
       stroke-linejoin="round"
       stroke-linecap="round"
       stroke-width="0.08"
       fill="currentColor"
       stroke="currentColor"
       points="13.1111,-0.2 13.1111,0.2 0.04,0.2 0.04,-0.2 "
       id="polygon145723" />
  </g>
  <g
     transform="translate(24.0252,11.647198)"
     id="g145729">
    <polygon
       stroke-linejoin="round"
       stroke-linecap="round"
       stroke-width="0.08"
       fill="currentColor"
       stroke="currentColor"
       points="13.1111,-0.2 13.1111,0.2 0.04,0.2 0.04,-0.2 "
       id="polygon145727" />
  </g>
  <g
     transform="translate(37.1113,6.6471984)"
     id="g145733">
    <rect
       x="-0.064999998"
       y="-4.3139"
       width="0.13"
       height="9.3139"
       ry="0.039999999"
       fill="currentColor"
       id="rect145731" />
  </g>
  <a
     style="color:inherit"
     xlink:href="textedit://C:/Users/Javier/Documents/lilypond%20scores/loose%20examples.ly:434:56:57"
     id="a145739"
     transform="translate(-5.6906,-37.686802)">
    <g
       transform="translate(42.7369,39.834)"
       id="g145737">
      <path
         transform="scale(0.004,-0.004)"
         d="m 218,136 c 55,0 108,-28 108,-89 0,-71 -55,-121 -102,-149 -35,-21 -75,-34 -116,-34 -55,0 -108,28 -108,89 0,71 55,121 102,149 35,21 75,34 116,34 z"
         fill="currentColor"
         id="path145735" />
    </g>
  </a>
  <g
     transform="translate(34.3571,6.6471984)"
     id="g145743">
    <rect
       x="-0.064999998"
       y="1.6861"
       width="0.13"
       height="3.3139"
       ry="0.039999999"
       fill="currentColor"
       id="rect145741" />
  </g>
  <g
     transform="translate(32.1029,6.6471984)"
     id="g145747">
    <rect
       x="-0.064999998"
       y="-4.3139"
       width="0.13"
       height="9.3139"
       ry="0.039999999"
       fill="currentColor"
       id="rect145745" />
  </g>
  <a
     style="color:inherit"
     xlink:href="textedit://C:/Users/Javier/Documents/lilypond%20scores/loose%20examples.ly:434:46:47"
     id="a145753"
     transform="translate(-5.6906,-37.686802)">
    <g
       transform="translate(37.7285,39.834)"
       id="g145751">
      <path
         transform="scale(0.004,-0.004)"
         d="m 218,136 c 55,0 108,-28 108,-89 0,-71 -55,-121 -102,-149 -35,-21 -75,-34 -116,-34 -55,0 -108,28 -108,89 0,71 55,121 102,149 35,21 75,34 116,34 z"
         fill="currentColor"
         id="path145749" />
    </g>
  </a>
  <g
     transform="translate(27.8337,8.6471984)"
     id="g145757">
    <path
       transform="scale(0.004,-0.004)"
       d="m 216,-312 c 0,-10 -8,-19 -18,-19 -10,0 -19,9 -19,19 v 145 l -83,-31 v -158 c 0,-10 -9,-19 -19,-19 -10,0 -18,9 -18,19 v 145 l -32,-12 c -2,-1 -5,-1 -7,-1 -11,0 -20,9 -20,20 v 60 c 0,8 5,16 13,19 l 46,16 V 51 L 27,40 C 25,39 22,39 20,39 9,39 0,48 0,59 v 60 c 0,8 5,15 13,18 l 46,17 v 158 c 0,10 8,19 18,19 10,0 19,-9 19,-19 V 167 l 83,31 v 158 c 0,10 9,19 19,19 10,0 18,-9 18,-19 V 211 l 32,12 c 2,1 5,1 7,1 11,0 20,-9 20,-20 v -60 c 0,-8 -5,-16 -13,-19 L 216,109 V -51 l 32,11 c 2,1 5,1 7,1 11,0 20,-9 20,-20 v -60 c 0,-8 -5,-15 -13,-18 l -46,-17 z M 96,65 V -95 l 83,30 V 95 Z"
       fill="currentColor"
       id="path145755" />
  </g>
  <a
     style="color:inherit"
     xlink:href="textedit://C:/Users/Javier/Documents/lilypond%20scores/loose%20examples.ly:434:13:14"
     id="a145763"
     transform="translate(-5.6906,-37.686802)">
    <g
       transform="translate(17.6359,38.789)"
       id="g145761">
      <path
         transform="scale(0.0022,-0.0022)"
         d="m 198,284 c 24,15 48,29 65,52 12,16 19,34 28,52 2,5 6,7 11,7 8,0 16,-6 16,-17 V 161 h 79 c 12,0 18,-9 18,-18 0,-9 -6,-18 -18,-18 h -79 c 2,-51 33,-96 80,-96 10,0 15,-8 15,-15 C 413,7 408,0 398,0 349,0 302,14 253,14 204,14 156,0 107,0 97,0 93,7 93,14 c 0,7 4,15 14,15 47,0 79,45 81,96 H 36 c -29,0 -38,17 -38,28 0,3 1,6 2,8 78,88 123,201 123,319 0,11 8,21 17,21 1,0 3,-1 4,-1 25,-7 50,-14 76,-14 26,0 52,7 77,14 2,1 4,1 6,1 10,0 17,-7 17,-14 0,-2 0,-5 -2,-7 L 36,161 h 152 v 96 c 0,10 1,21 10,27 z"
         fill="currentColor"
         id="path145759" />
    </g>
  </a>
  <a
     style="color:inherit"
     xlink:href="textedit://C:/Users/Javier/Documents/lilypond%20scores/loose%20examples.ly:434:10:11"
     id="a145769"
     transform="translate(-5.6906,-37.686802)">
    <g
       transform="translate(17.4448,39.834)"
       id="g145767">
      <path
         transform="scale(0.004,-0.004)"
         d="m 218,136 c 55,0 108,-28 108,-89 0,-71 -55,-121 -102,-149 -35,-21 -75,-34 -116,-34 -55,0 -108,28 -108,89 0,71 55,121 102,149 35,21 75,34 116,34 z"
         fill="currentColor"
         id="path145765" />
    </g>
  </a>
  <g
     transform="translate(11.8192,6.6471984)"
     id="g145773">
    <rect
       x="-0.064999998"
       y="-4.3139"
       width="0.13"
       height="9.0537996"
       ry="0.039999999"
       fill="currentColor"
       id="rect145771" />
  </g>
  <g
     transform="translate(9.065,6.6471984)"
     id="g145777">
    <rect
       x="-0.064999998"
       y="1.6861"
       width="0.13"
       height="3.3079"
       ry="0.039999999"
       fill="currentColor"
       id="rect145775" />
  </g>
  <a
     style="color:inherit"
     xlink:href="textedit://C:/Users/Javier/Documents/lilypond%20scores/loose%20examples.ly:430:4:5"
     id="a145787"
     transform="translate(-5.6906,-37.686802)">
    <g
       transform="translate(9.9906,42.334)"
       id="g145781">
      <path
         transform="scale(0.004,-0.004)"
         d="m 216,-312 c 0,-10 -8,-19 -18,-19 -10,0 -19,9 -19,19 v 145 l -83,-31 v -158 c 0,-10 -9,-19 -19,-19 -10,0 -18,9 -18,19 v 145 l -32,-12 c -2,-1 -5,-1 -7,-1 -11,0 -20,9 -20,20 v 60 c 0,8 5,16 13,19 l 46,16 V 51 L 27,40 C 25,39 22,39 20,39 9,39 0,48 0,59 v 60 c 0,8 5,15 13,18 l 46,17 v 158 c 0,10 8,19 18,19 10,0 19,-9 19,-19 V 167 l 83,31 v 158 c 0,10 9,19 19,19 10,0 18,-9 18,-19 V 211 l 32,12 c 2,1 5,1 7,1 11,0 20,-9 20,-20 v -60 c 0,-8 -5,-16 -13,-19 L 216,109 V -51 l 32,11 c 2,1 5,1 7,1 11,0 20,-9 20,-20 v -60 c 0,-8 -5,-15 -13,-18 l -46,-17 z M 96,65 V -95 l 83,30 V 95 Z"
         fill="currentColor"
         id="path145779" />
    </g>
    <g
       transform="translate(11.0906,43.834)"
       id="g145785">
      <path
         transform="scale(0.004,-0.004)"
         d="m 216,-312 c 0,-10 -8,-19 -18,-19 -10,0 -19,9 -19,19 v 145 l -83,-31 v -158 c 0,-10 -9,-19 -19,-19 -10,0 -18,9 -18,19 v 145 l -32,-12 c -2,-1 -5,-1 -7,-1 -11,0 -20,9 -20,20 v 60 c 0,8 5,16 13,19 l 46,16 V 51 L 27,40 C 25,39 22,39 20,39 9,39 0,48 0,59 v 60 c 0,8 5,15 13,18 l 46,17 v 158 c 0,10 8,19 18,19 10,0 19,-9 19,-19 V 167 l 83,31 v 158 c 0,10 9,19 19,19 10,0 18,-9 18,-19 V 211 l 32,12 c 2,1 5,1 7,1 11,0 20,-9 20,-20 v -60 c 0,-8 -5,-16 -13,-19 L 216,109 V -51 l 32,11 c 2,1 5,1 7,1 11,0 20,-9 20,-20 v -60 c 0,-8 -5,-15 -13,-18 l -46,-17 z M 96,65 V -95 l 83,30 V 95 Z"
         fill="currentColor"
         id="path145783" />
    </g>
  </a>
  <g
     transform="translate(0.80000003,7.6471984)"
     id="g145791">
    <path
       transform="scale(0.004,-0.004)"
       d="m 266,-635 h -6 c -108,0 -195,88 -195,197 0,58 53,103 112,103 54,0 95,-47 95,-103 0,-52 -43,-95 -95,-95 -11,0 -21,2 -31,6 26,-39 68,-65 117,-65 h 4 z m 195,432 c 68,24 113,95 113,164 0,90 -66,179 -173,190 24,-116 46,-231 60,-354 z M 74,28 c 0,-135 129,-247 264,-247 28,0 55,2 82,6 C 406,-86 383,32 357,151 278,143 233,90 233,32 c 0,-44 25,-91 81,-123 5,-5 7,-10 7,-15 0,-11 -10,-22 -22,-22 -3,0 -6,1 -9,2 -80,43 -117,115 -117,185 0,88 58,174 160,197 -14,58 -29,117 -46,175 C 180,310 74,188 74,28 Z M 335,-262 C 147,-262 2,-90 2,112 c 0,177 131,306 248,441 -19,62 -37,125 -45,190 -6,52 -7,104 -7,156 0,115 55,224 149,292 6,5 14,5 20,0 71,-84 133,-245 133,-358 0,-143 -86,-255 -180,-364 21,-68 39,-138 56,-207 4,0 9,1 13,1 155,0 256,-128 256,-261 0,-76 -33,-154 -107,-210 -22,-17 -47,-28 -73,-36 3,-35 5,-70 5,-105 0,-19 -1,-39 -2,-58 -7,-119 -88,-225 -202,-228 l 1,43 c 93,2 153,92 159,191 1,18 2,37 2,55 0,31 -1,61 -4,92 -29,-5 -58,-8 -89,-8 z m 93,1178 c 0,55 -4,79 -20,129 -99,-48 -162,-149 -162,-259 0,-74 18,-133 36,-194 80,97 146,198 146,324 z"
       fill="currentColor"
       id="path145789" />
  </g>
  <a
     style="color:inherit"
     xlink:href="textedit://C:/Users/Javier/Documents/lilypond%20scores/loose%20examples.ly:434:4:5"
     id="a145797"
     transform="translate(-5.6906,-37.686802)">
    <g
       transform="translate(14.6906,45.834)"
       id="g145795">
      <path
         transform="scale(0.004,-0.004)"
         d="m 218,136 c 55,0 108,-28 108,-89 0,-71 -55,-121 -102,-149 -35,-21 -75,-34 -116,-34 -55,0 -108,28 -108,89 0,71 55,121 102,149 35,21 75,34 116,34 z"
         fill="currentColor"
         id="path145793" />
    </g>
  </a>
  <g
     transform="translate(19.0818,6.6471984)"
     id="g145801">
    <rect
       x="-0.064999998"
       y="1.1861"
       width="0.13"
       height="2.8838999"
       ry="0.039999999"
       fill="currentColor"
       id="rect145799" />
  </g>
  <a
     style="color:inherit"
     xlink:href="textedit://C:/Users/Javier/Documents/lilypond%20scores/loose%20examples.ly:434:22:23"
     id="a145807"
     transform="translate(-5.6906,-37.686802)">
    <g
       transform="translate(24.7074,45.334)"
       id="g145805">
      <path
         transform="scale(0.004,-0.004)"
         d="m 218,136 c 55,0 108,-28 108,-89 0,-71 -55,-121 -102,-149 -35,-21 -75,-34 -116,-34 -55,0 -108,28 -108,89 0,71 55,121 102,149 35,21 75,34 116,34 z"
         fill="currentColor"
         id="path145803" />
    </g>
  </a>
  <g
     transform="translate(16.8276,6.6471984)"
     id="g145811">
    <rect
       x="-0.064999998"
       y="-4.3139"
       width="0.13"
       height="8.5918999"
       ry="0.039999999"
       fill="currentColor"
       id="rect145809" />
  </g>
  <a
     style="color:inherit"
     xlink:href="textedit://C:/Users/Javier/Documents/lilypond%20scores/loose%20examples.ly:434:19:20"
     id="a145817"
     transform="translate(-5.6906,-37.686802)">
    <g
       transform="translate(22.4532,39.834)"
       id="g145815">
      <path
         transform="scale(0.004,-0.004)"
         d="m 218,136 c 55,0 108,-28 108,-89 0,-71 -55,-121 -102,-149 -35,-21 -75,-34 -116,-34 -55,0 -108,28 -108,89 0,71 55,121 102,149 35,21 75,34 116,34 z"
         fill="currentColor"
         id="path145813" />
    </g>
  </a>
  <g
     transform="translate(14.0734,6.6471984)"
     id="g145821">
    <rect
       x="-0.064999998"
       y="0.18610001"
       width="0.13"
       height="4.3459001"
       ry="0.039999999"
       fill="currentColor"
       id="rect145819" />
  </g>
  <a
     style="color:inherit"
     xlink:href="textedit://C:/Users/Javier/Documents/lilypond%20scores/loose%20examples.ly:434:16:17"
     id="a145827"
     transform="translate(-5.6906,-37.686802)">
    <g
       transform="translate(19.699,44.334)"
       id="g145825">
      <path
         transform="scale(0.004,-0.004)"
         d="m 218,136 c 55,0 108,-28 108,-89 0,-71 -55,-121 -102,-149 -35,-21 -75,-34 -116,-34 -55,0 -108,28 -108,89 0,71 55,121 102,149 35,21 75,34 116,34 z"
         fill="currentColor"
         id="path145823" />
    </g>
  </a>
  <path
     style="fill:#000000;stroke:#000000;stroke-width:0.0938941"
     d="m 13.152534,0.51395342 25.145615,0.09647"
     id="path145851" />
</svg>
