
<svg
   version="1.2"
   width="190mm"
   height="45.000732mm"
   viewBox="0 0 108.1205 25.607902"
   id="svg3600"
   sodipodi:docname="ricci-expansion.svg"
   xmlns:inkscape="http://www.inkscape.org/namespaces/inkscape"
   xmlns:sodipodi="http://sodipodi.sourceforge.net/DTD/sodipodi-0.dtd"
   xmlns="http://www.w3.org/2000/svg"
   xmlns:svg="http://www.w3.org/2000/svg">
  <defs
     id="defs3604" />
  <sodipodi:namedview
     id="namedview3602"
     pagecolor="#ffffff"
     bordercolor="#000000"
     borderopacity="0.25"
     inkscape:showpageshadow="2"
     inkscape:pageopacity="0.0"
     inkscape:pagecheckerboard="0"
     inkscape:deskcolor="#d1d1d1"
     inkscape:document-units="mm"
     showgrid="false" />
  <style
     type="text/css"
     id="style2"><![CDATA[
tspan { white-space: pre; }
]]></style>
  <!-- Page: 1/1 -->
  <g
     transform="translate(3.1967416e-8,5.7790001)"
     id="g6"
     inkscape:export-filename="..\..\..\..\..\Documents\lilypond scores\ex 57-60\ex57.svg"
     inkscape:export-xdpi="96"
     inkscape:export-ydpi="96">
    <line
       stroke-linejoin="round"
       stroke-linecap="round"
       stroke-width="0.1"
       stroke="currentColor"
       x1="0.050000001"
       y1="0"
       x2="108.0705"
       y2="0"
       id="line4" />
  </g>
  <g
     transform="translate(3.1967416e-8,4.7790001)"
     id="g10">
    <line
       stroke-linejoin="round"
       stroke-linecap="round"
       stroke-width="0.1"
       stroke="currentColor"
       x1="0.050000001"
       y1="0"
       x2="108.0705"
       y2="0"
       id="line8" />
  </g>
  <g
     transform="translate(3.1967416e-8,3.7790001)"
     id="g14">
    <line
       stroke-linejoin="round"
       stroke-linecap="round"
       stroke-width="0.1"
       stroke="currentColor"
       x1="0.050000001"
       y1="0"
       x2="108.0705"
       y2="0"
       id="line12" />
  </g>
  <g
     transform="translate(3.1967416e-8,2.7790001)"
     id="g18">
    <line
       stroke-linejoin="round"
       stroke-linecap="round"
       stroke-width="0.1"
       stroke="currentColor"
       x1="0.050000001"
       y1="0"
       x2="108.0705"
       y2="0"
       id="line16" />
  </g>
  <g
     transform="translate(3.1967416e-8,1.7790001)"
     id="g22">
    <line
       stroke-linejoin="round"
       stroke-linecap="round"
       stroke-width="0.1"
       stroke="currentColor"
       x1="0.050000001"
       y1="0"
       x2="108.0705"
       y2="0"
       id="line20" />
  </g>
  <g
     transform="translate(3.1967416e-8,6.7790001)"
     id="g26">
    <rect
       x="101.6057"
       y="-0.1"
       width="1.9563"
       height="0.2"
       ry="0.1"
       fill="currentColor"
       id="rect24" />
  </g>
  <g
     transform="translate(3.1967416e-8,6.7790001)"
     id="g30">
    <rect
       x="95.606903"
       y="-0.1"
       width="1.9563"
       height="0.2"
       ry="0.1"
       fill="currentColor"
       id="rect28" />
  </g>
  <g
     transform="translate(3.1967416e-8,6.7790001)"
     id="g34">
    <rect
       x="71.6119"
       y="-0.1"
       width="1.9563"
       height="0.2"
       ry="0.1"
       fill="currentColor"
       id="rect32" />
  </g>
  <g
     transform="translate(3.1967416e-8,6.7790001)"
     id="g38">
    <rect
       x="65.613197"
       y="-0.1"
       width="1.9563"
       height="0.2"
       ry="0.1"
       fill="currentColor"
       id="rect36" />
  </g>
  <g
     transform="translate(3.1967416e-8,6.7790001)"
     id="g42">
    <rect
       x="59.614399"
       y="-0.1"
       width="1.9563"
       height="0.2"
       ry="0.1"
       fill="currentColor"
       id="rect40" />
  </g>
  <g
     transform="translate(3.1967416e-8,7.7790001)"
     id="g46">
    <rect
       x="59.614399"
       y="-0.1"
       width="1.9563"
       height="0.2"
       ry="0.1"
       fill="currentColor"
       id="rect44" />
  </g>
  <g
     transform="translate(3.1967416e-8,6.7790001)"
     id="g50">
    <rect
       x="51.215199"
       y="-0.1"
       width="1.9563"
       height="0.2"
       ry="0.1"
       fill="currentColor"
       id="rect48" />
  </g>
  <g
     transform="translate(3.1967416e-8,6.7790001)"
     id="g54">
    <rect
       x="45.216499"
       y="-0.1"
       width="1.9563"
       height="0.2"
       ry="0.1"
       fill="currentColor"
       id="rect52" />
  </g>
  <g
     transform="translate(3.1967416e-8,6.7790001)"
     id="g58">
    <rect
       x="21.372499"
       y="-0.1"
       width="1.8053"
       height="0.2"
       ry="0.1"
       fill="currentColor"
       id="rect56" />
  </g>
  <g
     transform="translate(3.1967416e-8,6.7790001)"
     id="g62">
    <rect
       x="14.3727"
       y="-0.1"
       width="1.9563"
       height="0.2"
       ry="0.1"
       fill="currentColor"
       id="rect60" />
  </g>
  <g
     transform="translate(3.1967416e-8,6.7790001)"
     id="g66">
    <rect
       x="8.3739004"
       y="-0.1"
       width="1.9563"
       height="0.2"
       ry="0.1"
       fill="currentColor"
       id="rect64" />
  </g>
  <g
     transform="translate(3.1967416e-8,7.7790001)"
     id="g70">
    <rect
       x="8.3739004"
       y="-0.1"
       width="1.9563"
       height="0.2"
       ry="0.1"
       fill="currentColor"
       id="rect68" />
  </g>
  <g
     transform="translate(57.54,3.7790001)"
     id="g74">
    <rect
       x="0"
       y="-2"
       width="0.19"
       height="4"
       ry="0.0000"
       fill="currentColor"
       id="rect72" />
  </g>
  <g
     transform="translate(107.9304,3.7790001)"
     id="g78">
    <rect
       x="0"
       y="-2"
       width="0.19"
       height="4"
       ry="0.0000"
       fill="currentColor"
       id="rect76" />
  </g>
  <g
     transform="translate(65.9392,7.2790001)"
     id="g82">
    <path
       transform="scale(0.004,-0.004)"
       d="m 218,136 c 55,0 108,-28 108,-89 0,-71 -55,-121 -102,-149 -35,-21 -75,-34 -116,-34 -55,0 -108,28 -108,89 0,71 55,121 102,149 35,21 75,34 116,34 z"
       fill="currentColor"
       id="path80" />
  </g>
  <g
     transform="translate(66.1645,13.163)"
     id="g86">
    <path
       transform="scale(0.0022,-0.0022)"
       d="m 129,149 h 7 c 36,0 74,-13 111,-40 19,-14 40,-21 59,-21 22,0 40,10 46,31 2,7 7,11 13,11 7,0 15,-5 15,-14 v -5 C 361,40 296,0 234,0 196,0 159,15 133,47 121,62 105,69 89,69 60,69 32,48 29,13 28,4 22,0 15,0 8,0 0,5 0,14 c 0,173 233,163 233,341 0,56 -14,116 -62,116 -33,0 -66,-15 -66,-44 0,-24 31,-37 31,-61 0,-34 -27,-61 -61,-61 -34,0 -61,27 -61,61 0,78 74,134 157,134 98,0 191,-55 191,-145 C 362,211 227,199 129,149 Z"
       fill="currentColor"
       id="path84" />
  </g>
  <g
     transform="translate(66.0042,3.7790001)"
     id="g90">
    <rect
       x="-0.064999998"
       y="3.6861"
       width="0.13"
       height="2.4793999"
       ry="0.039999999"
       fill="currentColor"
       id="rect88" />
  </g>
  <g
     transform="translate(71.9379,6.7790001)"
     id="g94">
    <path
       transform="scale(0.004,-0.004)"
       d="m 218,136 c 55,0 108,-28 108,-89 0,-71 -55,-121 -102,-149 -35,-21 -75,-34 -116,-34 -55,0 -108,28 -108,89 0,71 55,121 102,149 35,21 75,34 116,34 z"
       fill="currentColor"
       id="path92" />
  </g>
  <g
     transform="translate(72.1632,12.8236)"
     id="g98">
    <path
       transform="scale(0.0022,-0.0022)"
       d="m 129,149 h 7 c 36,0 74,-13 111,-40 19,-14 40,-21 59,-21 22,0 40,10 46,31 2,7 7,11 13,11 7,0 15,-5 15,-14 v -5 C 361,40 296,0 234,0 196,0 159,15 133,47 121,62 105,69 89,69 60,69 32,48 29,13 28,4 22,0 15,0 8,0 0,5 0,14 c 0,173 233,163 233,341 0,56 -14,116 -62,116 -33,0 -66,-15 -66,-44 0,-24 31,-37 31,-61 0,-34 -27,-61 -61,-61 -34,0 -61,27 -61,61 0,78 74,134 157,134 98,0 191,-55 191,-145 C 362,211 227,199 129,149 Z"
       fill="currentColor"
       id="path96" />
  </g>
  <g
     transform="translate(72.0029,3.7790001)"
     id="g102">
    <rect
       x="-0.064999998"
       y="3.1861"
       width="0.13"
       height="2.6484001"
       ry="0.039999999"
       fill="currentColor"
       id="rect100" />
  </g>
  <g
     transform="translate(51.6062,3.7790001)"
     id="g106">
    <rect
       x="-0.064999998"
       y="3.6861"
       width="0.13"
       height="2.1210001"
       ry="0.039999999"
       fill="currentColor"
       id="rect104" />
  </g>
  <g
     transform="translate(8.6999,3.7790001)"
     id="g110">
    <path
       stroke-width="0.08"
       stroke-linejoin="round"
       stroke-linecap="round"
       stroke="currentColor"
       fill="currentColor"
       d="M 0.0879,7.2366 C 2.5892,8.8315 16.6143,8.0925 18.9341,6.2434 v 0 C 16.608,7.9726 2.5829,8.7117 0.0879,7.2366 Z"
       id="path108" />
  </g>
  <g
     transform="translate(59.9404,7.7790001)"
     id="g114">
    <path
       transform="scale(0.004,-0.004)"
       d="m 218,136 c 55,0 108,-28 108,-89 0,-71 -55,-121 -102,-149 -35,-21 -75,-34 -116,-34 -55,0 -108,28 -108,89 0,71 55,121 102,149 35,21 75,34 116,34 z"
       fill="currentColor"
       id="path112" />
  </g>
  <g
     transform="translate(59.9404,5.7790001)"
     id="g118">
    <path
       transform="scale(0.004,-0.004)"
       d="m 213,112 c -50,0 -69,-43 -69,-88 0,-77 57,-136 134,-136 50,0 69,43 69,88 0,77 -57,136 -134,136 z M 491,0 c 0,-43 -34,-75 -72,-96 -53,-29 -114,-40 -174,-40 -60,0 -120,11 -173,40 -38,21 -72,53 -72,96 0,43 34,75 72,96 53,29 113,40 173,40 60,0 121,-11 174,-40 38,-21 72,-53 72,-96 z"
       fill="currentColor"
       id="path116" />
  </g>
  <g
     transform="translate(60.0054,3.7790001)"
     id="g122">
    <rect
       x="-0.064999998"
       y="4.1861"
       width="0.13"
       height="2.3103001"
       ry="0.039999999"
       fill="currentColor"
       id="rect120" />
  </g>
  <g
     transform="translate(95.9979,3.7790001)"
     id="g126">
    <rect
       x="-0.064999998"
       y="3.1861"
       width="0.13"
       height="2.3529"
       ry="0.039999999"
       fill="currentColor"
       id="rect124" />
  </g>
  <g
     transform="translate(101.9317,7.2790001)"
     id="g130">
    <path
       transform="scale(0.004,-0.004)"
       d="m 218,136 c 55,0 108,-28 108,-89 0,-71 -55,-121 -102,-149 -35,-21 -75,-34 -116,-34 -55,0 -108,28 -108,89 0,71 55,121 102,149 35,21 75,34 116,34 z"
       fill="currentColor"
       id="path128" />
  </g>
  <g
     transform="translate(102.157,11.4528)"
     id="g134">
    <path
       transform="scale(0.0022,-0.0022)"
       d="m 129,149 h 7 c 36,0 74,-13 111,-40 19,-14 40,-21 59,-21 22,0 40,10 46,31 2,7 7,11 13,11 7,0 15,-5 15,-14 v -5 C 361,40 296,0 234,0 196,0 159,15 133,47 121,62 105,69 89,69 60,69 32,48 29,13 28,4 22,0 15,0 8,0 0,5 0,14 c 0,173 233,163 233,341 0,56 -14,116 -62,116 -33,0 -66,-15 -66,-44 0,-24 31,-37 31,-61 0,-34 -27,-61 -61,-61 -34,0 -61,27 -61,61 0,78 74,134 157,134 98,0 191,-55 191,-145 C 362,211 227,199 129,149 Z"
       fill="currentColor"
       id="path132" />
  </g>
  <g
     transform="translate(101.9967,3.7790001)"
     id="g138">
    <rect
       x="-0.064999998"
       y="3.6861"
       width="0.13"
       height="2.1210001"
       ry="0.039999999"
       fill="currentColor"
       id="rect136" />
  </g>
  <g
     transform="translate(96.1582,12.5333)"
     id="g142">
    <path
       transform="scale(0.0022,-0.0022)"
       d="m 129,149 h 7 c 36,0 74,-13 111,-40 19,-14 40,-21 59,-21 22,0 40,10 46,31 2,7 7,11 13,11 7,0 15,-5 15,-14 v -5 C 361,40 296,0 234,0 196,0 159,15 133,47 121,62 105,69 89,69 60,69 32,48 29,13 28,4 22,0 15,0 8,0 0,5 0,14 c 0,173 233,163 233,341 0,56 -14,116 -62,116 -33,0 -66,-15 -66,-44 0,-24 31,-37 31,-61 0,-34 -27,-61 -61,-61 -34,0 -61,27 -61,61 0,78 74,134 157,134 98,0 191,-55 191,-145 C 362,211 227,199 129,149 Z"
       fill="currentColor"
       id="path140" />
  </g>
  <g
     transform="translate(83.9354,8.7790001)"
     id="g146">
    <polygon
       stroke-linejoin="round"
       stroke-linecap="round"
       stroke-width="0.08"
       fill="currentColor"
       stroke="currentColor"
       points="18.0863,0.61 18.0863,1.01 0.04,0.2 0.04,-0.2 "
       id="polygon144" />
  </g>
  <g
     transform="translate(59.9404,10.279)"
     id="g150">
    <polygon
       stroke-linejoin="round"
       stroke-linecap="round"
       stroke-width="0.08"
       fill="currentColor"
       stroke="currentColor"
       points="18.0863,-1.2 18.0863,-0.8 0.04,0.2 0.04,-0.2 "
       id="polygon148" />
  </g>
  <g
     transform="translate(83.9354,3.7790001)"
     id="g154">
    <path
       stroke-width="0.08"
       stroke-linejoin="round"
       stroke-linecap="round"
       stroke="currentColor"
       fill="currentColor"
       d="m 0.0456,5.7429 c 2.2905,1.8133 15.5531,2.4059 17.9962,0.8042 v 0 C 15.6041,8.0289 2.3415,7.4363 0.0456,5.7429 Z"
       id="path152" />
  </g>
  <g
     transform="translate(59.9404,3.7790001)"
     id="g158">
    <path
       stroke-width="0.08"
       stroke-linejoin="round"
       stroke-linecap="round"
       stroke="currentColor"
       fill="currentColor"
       d="M 0.0889,7.2364 C 2.5492,8.8126 15.8133,8.0809 18.0852,6.2436 v 0 C 15.8067,7.9611 2.5426,8.6928 0.0889,7.2364 Z"
       id="path156" />
  </g>
  <g
     transform="translate(33.545,8.7790001)"
     id="g162">
    <polygon
       stroke-linejoin="round"
       stroke-linecap="round"
       stroke-width="0.08"
       fill="currentColor"
       stroke="currentColor"
       points="18.0863,0.61 18.0863,1.01 0.04,0.2 0.04,-0.2 "
       id="polygon160" />
  </g>
  <g
     transform="translate(8.6999,10.279)"
     id="g166">
    <polygon
       stroke-linejoin="round"
       stroke-linecap="round"
       stroke-width="0.08"
       fill="currentColor"
       stroke="currentColor"
       points="18.9363,-1.2 18.9363,-0.8 0.04,0.2 0.04,-0.2 "
       id="polygon164" />
  </g>
  <g
     transform="translate(33.545,3.7790001)"
     id="g170">
    <path
       stroke-width="0.08"
       stroke-linejoin="round"
       stroke-linecap="round"
       stroke="currentColor"
       fill="currentColor"
       d="m 0.0456,5.7429 c 2.2905,1.8133 15.5531,2.4059 17.9962,0.8042 v 0 C 15.6041,8.0289 2.3415,7.4363 0.0456,5.7429 Z"
       id="path168" />
  </g>
  <g
     transform="translate(77.9367,6.2790001)"
     id="g174">
    <path
       transform="scale(0.004,-0.004)"
       d="m 218,136 c 55,0 108,-28 108,-89 0,-71 -55,-121 -102,-149 -35,-21 -75,-34 -116,-34 -55,0 -108,28 -108,89 0,71 55,121 102,149 35,21 75,34 116,34 z"
       fill="currentColor"
       id="path172" />
  </g>
  <g
     transform="translate(78.0017,3.7790001)"
     id="g178">
    <rect
       x="-0.064999998"
       y="2.6861"
       width="0.13"
       height="2.8175001"
       ry="0.039999999"
       fill="currentColor"
       id="rect176" />
  </g>
  <g
     transform="translate(83.9354,5.7790001)"
     id="g182">
    <path
       transform="scale(0.004,-0.004)"
       d="m 218,136 c 55,0 108,-28 108,-89 0,-71 -55,-121 -102,-149 -35,-21 -75,-34 -116,-34 -55,0 -108,28 -108,89 0,71 55,121 102,149 35,21 75,34 116,34 z"
       fill="currentColor"
       id="path180" />
  </g>
  <g
     transform="translate(84.0004,3.7790001)"
     id="g186">
    <rect
       x="-0.064999998"
       y="2.1861"
       width="0.13"
       height="2.8168001"
       ry="0.039999999"
       fill="currentColor"
       id="rect184" />
  </g>
  <g
     transform="translate(89.9342,6.2790001)"
     id="g190">
    <path
       transform="scale(0.004,-0.004)"
       d="m 218,136 c 55,0 108,-28 108,-89 0,-71 -55,-121 -102,-149 -35,-21 -75,-34 -116,-34 -55,0 -108,28 -108,89 0,71 55,121 102,149 35,21 75,34 116,34 z"
       fill="currentColor"
       id="path188" />
  </g>
  <g
     transform="translate(89.9992,3.7790001)"
     id="g194">
    <rect
       x="-0.064999998"
       y="2.6861"
       width="0.13"
       height="2.5848999"
       ry="0.039999999"
       fill="currentColor"
       id="rect192" />
  </g>
  <g
     transform="translate(95.9329,6.7790001)"
     id="g198">
    <path
       transform="scale(0.004,-0.004)"
       d="m 218,136 c 55,0 108,-28 108,-89 0,-71 -55,-121 -102,-149 -35,-21 -75,-34 -116,-34 -55,0 -108,28 -108,89 0,71 55,121 102,149 35,21 75,34 116,34 z"
       fill="currentColor"
       id="path196" />
  </g>
  <g
     transform="translate(8.7649,3.7790001)"
     id="g202">
    <rect
       x="-0.064999998"
       y="4.1861"
       width="0.13"
       height="2.3104999"
       ry="0.039999999"
       fill="currentColor"
       id="rect200" />
  </g>
  <g
     transform="translate(21.5474,6.7790001)"
     id="g206">
    <path
       transform="scale(0.004,-0.004)"
       d="m 218,136 c 55,0 108,-28 108,-89 0,-71 -55,-121 -102,-149 -35,-21 -75,-34 -116,-34 -55,0 -108,28 -108,89 0,71 55,121 102,149 35,21 75,34 116,34 z"
       fill="currentColor"
       id="path204" />
  </g>
  <g
     transform="translate(21.8069,12.7991)"
     id="g210">
    <path
       transform="scale(0.0022,-0.0022)"
       d="m 155,471 c -34,0 -70,-8 -70,-38 0,-19 31,-23 31,-42 0,-28 -23,-51 -51,-51 -28,0 -51,23 -51,51 0,67 68,109 141,109 93,0 174,-31 174,-113 0,-41 -6,-77 -42,-94 -11,-5 -17,-16 -17,-27 0,-11 6,-22 17,-27 40,-19 59,-53 59,-98 C 346,47 263,0 160,0 78,0 0,45 0,119 c 0,32 26,58 58,58 32,0 58,-26 58,-58 0,-22 -36,-26 -36,-48 0,-33 42,-42 80,-42 46,0 56,58 56,112 v 38 c 0,40 -4,69 -43,69 H 99 c -12,0 -18,9 -18,18 0,9 6,18 18,18 h 74 c 40,0 43,31 43,73 v 30 c 0,50 -16,84 -61,84 z"
       fill="currentColor"
       id="path208" />
  </g>
  <g
     transform="translate(21.6124,3.7790001)"
     id="g214">
    <rect
       x="-0.064999998"
       y="3.1861"
       width="0.13"
       height="2.6334"
       ry="0.039999999"
       fill="currentColor"
       id="rect212" />
  </g>
  <g
     transform="translate(5,3.7790001)"
     id="g218">
    <path
       transform="scale(0.004,-0.004)"
       d="m 359,27 c -49,0 -75,42 -75,75 0,38 27,77 72,77 4,0 9,0 14,-1 -28,37 -72,59 -120,59 C 144,237 137,164 137,51 V 0 -51 c 0,-113 7,-187 113,-187 80,0 139,70 158,151 2,7 7,10 12,10 6,0 13,-4 13,-12 0,-94 -105,-174 -183,-174 -68,0 -137,21 -184,70 C 17,-142 0,-71 0,0 c 0,71 17,142 66,193 47,49 116,69 184,69 87,0 160,-63 175,-149 1,-5 1,-10 1,-14 0,-40 -30,-72 -67,-72 z"
       fill="currentColor"
       id="path216" />
  </g>
  <g
     transform="translate(51.5412,7.2790001)"
     id="g222">
    <path
       transform="scale(0.004,-0.004)"
       d="m 218,136 c 55,0 108,-28 108,-89 0,-71 -55,-121 -102,-149 -35,-21 -75,-34 -116,-34 -55,0 -108,28 -108,89 0,71 55,121 102,149 35,21 75,34 116,34 z"
       fill="currentColor"
       id="path220" />
  </g>
  <g
     transform="translate(20.0974,6.7790001)"
     id="g226">
    <path
       transform="scale(0.004,-0.004)"
       d="m 216,-312 c 0,-10 -8,-19 -18,-19 -10,0 -19,9 -19,19 v 145 l -83,-31 v -158 c 0,-10 -9,-19 -19,-19 -10,0 -18,9 -18,19 v 145 l -32,-12 c -2,-1 -5,-1 -7,-1 -11,0 -20,9 -20,20 v 60 c 0,8 5,16 13,19 l 46,16 V 51 L 27,40 C 25,39 22,39 20,39 9,39 0,48 0,59 v 60 c 0,8 5,15 13,18 l 46,17 v 158 c 0,10 8,19 18,19 10,0 19,-9 19,-19 V 167 l 83,31 v 158 c 0,10 9,19 19,19 10,0 18,-9 18,-19 V 211 l 32,12 c 2,1 5,1 7,1 11,0 20,-9 20,-20 v -60 c 0,-8 -5,-16 -13,-19 L 216,109 V -51 l 32,11 c 2,1 5,1 7,1 11,0 20,-9 20,-20 v -60 c 0,-8 -5,-15 -13,-18 l -46,-17 z M 96,65 V -95 l 83,30 V 95 Z"
       fill="currentColor"
       id="path224" />
  </g>
  <g
     transform="translate(0.80000003,4.7790001)"
     id="g230">
    <path
       transform="scale(0.004,-0.004)"
       d="m 266,-635 h -6 c -108,0 -195,88 -195,197 0,58 53,103 112,103 54,0 95,-47 95,-103 0,-52 -43,-95 -95,-95 -11,0 -21,2 -31,6 26,-39 68,-65 117,-65 h 4 z m 195,432 c 68,24 113,95 113,164 0,90 -66,179 -173,190 24,-116 46,-231 60,-354 z M 74,28 c 0,-135 129,-247 264,-247 28,0 55,2 82,6 C 406,-86 383,32 357,151 278,143 233,90 233,32 c 0,-44 25,-91 81,-123 5,-5 7,-10 7,-15 0,-11 -10,-22 -22,-22 -3,0 -6,1 -9,2 -80,43 -117,115 -117,185 0,88 58,174 160,197 -14,58 -29,117 -46,175 C 180,310 74,188 74,28 Z M 335,-262 C 147,-262 2,-90 2,112 c 0,177 131,306 248,441 -19,62 -37,125 -45,190 -6,52 -7,104 -7,156 0,115 55,224 149,292 6,5 14,5 20,0 71,-84 133,-245 133,-358 0,-143 -86,-255 -180,-364 21,-68 39,-138 56,-207 4,0 9,1 13,1 155,0 256,-128 256,-261 0,-76 -33,-154 -107,-210 -22,-17 -47,-28 -73,-36 3,-35 5,-70 5,-105 0,-19 -1,-39 -2,-58 -7,-119 -88,-225 -202,-228 l 1,43 c 93,2 153,92 159,191 1,18 2,37 2,55 0,31 -1,61 -4,92 -29,-5 -58,-8 -89,-8 z m 93,1178 c 0,55 -4,79 -20,129 -99,-48 -162,-149 -162,-259 0,-74 18,-133 36,-194 80,97 146,198 146,324 z"
       fill="currentColor"
       id="path228" />
  </g>
  <g
     transform="translate(8.6999,5.7790001)"
     id="g234">
    <path
       transform="scale(0.004,-0.004)"
       d="m 213,112 c -50,0 -69,-43 -69,-88 0,-77 57,-136 134,-136 50,0 69,43 69,88 0,77 -57,136 -134,136 z M 491,0 c 0,-43 -34,-75 -72,-96 -53,-29 -114,-40 -174,-40 -60,0 -120,11 -173,40 -38,21 -72,53 -72,96 0,43 34,75 72,96 53,29 113,40 173,40 60,0 121,-11 174,-40 38,-21 72,-53 72,-96 z"
       fill="currentColor"
       id="path232" />
  </g>
  <g
     transform="translate(14.6987,7.2790001)"
     id="g238">
    <path
       transform="scale(0.004,-0.004)"
       d="m 218,136 c 55,0 108,-28 108,-89 0,-71 -55,-121 -102,-149 -35,-21 -75,-34 -116,-34 -55,0 -108,28 -108,89 0,71 55,121 102,149 35,21 75,34 116,34 z"
       fill="currentColor"
       id="path236" />
  </g>
  <g
     transform="translate(14.7637,3.7790001)"
     id="g242">
    <rect
       x="-0.064999998"
       y="3.6861"
       width="0.13"
       height="2.4942999"
       ry="0.039999999"
       fill="currentColor"
       id="rect240" />
  </g>
  <g
     transform="translate(45.8019,12.5327)"
     id="g246">
    <path
       transform="scale(0.0022,-0.0022)"
       d="m 155,471 c -34,0 -70,-8 -70,-38 0,-19 31,-23 31,-42 0,-28 -23,-51 -51,-51 -28,0 -51,23 -51,51 0,67 68,109 141,109 93,0 174,-31 174,-113 0,-41 -6,-77 -42,-94 -11,-5 -17,-16 -17,-27 0,-11 6,-22 17,-27 40,-19 59,-53 59,-98 C 346,47 263,0 160,0 78,0 0,45 0,119 c 0,32 26,58 58,58 32,0 58,-26 58,-58 0,-22 -36,-26 -36,-48 0,-33 42,-42 80,-42 46,0 56,58 56,112 v 38 c 0,40 -4,69 -43,69 H 99 c -12,0 -18,9 -18,18 0,9 6,18 18,18 h 74 c 40,0 43,31 43,73 v 30 c 0,50 -16,84 -61,84 z"
       fill="currentColor"
       id="path244" />
  </g>
  <g
     transform="translate(39.8032,12.3649)"
     id="g250">
    <path
       transform="scale(0.0022,-0.0022)"
       d="m 155,471 c -34,0 -70,-8 -70,-38 0,-19 31,-23 31,-42 0,-28 -23,-51 -51,-51 -28,0 -51,23 -51,51 0,67 68,109 141,109 93,0 174,-31 174,-113 0,-41 -6,-77 -42,-94 -11,-5 -17,-16 -17,-27 0,-11 6,-22 17,-27 40,-19 59,-53 59,-98 C 346,47 263,0 160,0 78,0 0,45 0,119 c 0,32 26,58 58,58 32,0 58,-26 58,-58 0,-22 -36,-26 -36,-48 0,-33 42,-42 80,-42 46,0 56,58 56,112 v 38 c 0,40 -4,69 -43,69 H 99 c -12,0 -18,9 -18,18 0,9 6,18 18,18 h 74 c 40,0 43,31 43,73 v 30 c 0,50 -16,84 -61,84 z"
       fill="currentColor"
       id="path248" />
  </g>
  <g
     transform="translate(39.6087,3.7790001)"
     id="g254">
    <rect
       x="-0.064999998"
       y="2.6861"
       width="0.13"
       height="2.5848999"
       ry="0.039999999"
       fill="currentColor"
       id="rect252" />
  </g>
  <g
     transform="translate(45.5425,6.7790001)"
     id="g258">
    <path
       transform="scale(0.004,-0.004)"
       d="m 218,136 c 55,0 108,-28 108,-89 0,-71 -55,-121 -102,-149 -35,-21 -75,-34 -116,-34 -55,0 -108,28 -108,89 0,71 55,121 102,149 35,21 75,34 116,34 z"
       fill="currentColor"
       id="path256" />
  </g>
  <g
     transform="translate(39.5437,6.2790001)"
     id="g262">
    <path
       transform="scale(0.004,-0.004)"
       d="m 218,136 c 55,0 108,-28 108,-89 0,-71 -55,-121 -102,-149 -35,-21 -75,-34 -116,-34 -55,0 -108,28 -108,89 0,71 55,121 102,149 35,21 75,34 116,34 z"
       fill="currentColor"
       id="path260" />
  </g>
  <g
     transform="translate(45.6075,3.7790001)"
     id="g266">
    <rect
       x="-0.064999998"
       y="3.1861"
       width="0.13"
       height="2.3529"
       ry="0.039999999"
       fill="currentColor"
       id="rect264" />
  </g>
  <g
     transform="translate(33.545,5.7790001)"
     id="g270">
    <path
       transform="scale(0.004,-0.004)"
       d="m 218,136 c 55,0 108,-28 108,-89 0,-71 -55,-121 -102,-149 -35,-21 -75,-34 -116,-34 -55,0 -108,28 -108,89 0,71 55,121 102,149 35,21 75,34 116,34 z"
       fill="currentColor"
       id="path268" />
  </g>
  <g
     transform="translate(27.6112,3.7790001)"
     id="g274">
    <rect
       x="-0.064999998"
       y="2.6861"
       width="0.13"
       height="2.8173001"
       ry="0.039999999"
       fill="currentColor"
       id="rect272" />
  </g>
  <g
     transform="translate(8.6999,7.7790001)"
     id="g278">
    <path
       transform="scale(0.004,-0.004)"
       d="m 218,136 c 55,0 108,-28 108,-89 0,-71 -55,-121 -102,-149 -35,-21 -75,-34 -116,-34 -55,0 -108,28 -108,89 0,71 55,121 102,149 35,21 75,34 116,34 z"
       fill="currentColor"
       id="path276" />
  </g>
  <g
     transform="translate(27.8057,11.1491)"
     id="g282">
    <path
       transform="scale(0.0022,-0.0022)"
       d="m 155,471 c -34,0 -70,-8 -70,-38 0,-19 31,-23 31,-42 0,-28 -23,-51 -51,-51 -28,0 -51,23 -51,51 0,67 68,109 141,109 93,0 174,-31 174,-113 0,-41 -6,-77 -42,-94 -11,-5 -17,-16 -17,-27 0,-11 6,-22 17,-27 40,-19 59,-53 59,-98 C 346,47 263,0 160,0 78,0 0,45 0,119 c 0,32 26,58 58,58 32,0 58,-26 58,-58 0,-22 -36,-26 -36,-48 0,-33 42,-42 80,-42 46,0 56,58 56,112 v 38 c 0,40 -4,69 -43,69 H 99 c -12,0 -18,9 -18,18 0,9 6,18 18,18 h 74 c 40,0 43,31 43,73 v 30 c 0,50 -16,84 -61,84 z"
       fill="currentColor"
       id="path280" />
  </g>
  <g
     transform="translate(33.61,3.7790001)"
     id="g286">
    <rect
       x="-0.064999998"
       y="2.1861"
       width="0.13"
       height="2.8168001"
       ry="0.039999999"
       fill="currentColor"
       id="rect284" />
  </g>
  <g
     transform="translate(27.5462,6.2790001)"
     id="g290">
    <path
       transform="scale(0.004,-0.004)"
       d="m 218,136 c 55,0 108,-28 108,-89 0,-71 -55,-121 -102,-149 -35,-21 -75,-34 -116,-34 -55,0 -108,28 -108,89 0,71 55,121 102,149 35,21 75,34 116,34 z"
       fill="currentColor"
       id="path288" />
  </g>
  <g
     transform="translate(3.1967416e-8,18.213)"
     id="g294">
    <line
       stroke-linejoin="round"
       stroke-linecap="round"
       stroke-width="0.1"
       stroke="currentColor"
       x1="0.050000001"
       y1="0"
       x2="108.0705"
       y2="0"
       id="line292" />
  </g>
  <g
     transform="translate(3.1967416e-8,17.213)"
     id="g298">
    <line
       stroke-linejoin="round"
       stroke-linecap="round"
       stroke-width="0.1"
       stroke="currentColor"
       x1="0.050000001"
       y1="0"
       x2="108.0705"
       y2="0"
       id="line296" />
  </g>
  <g
     transform="translate(3.1967416e-8,16.213)"
     id="g302">
    <line
       stroke-linejoin="round"
       stroke-linecap="round"
       stroke-width="0.1"
       stroke="currentColor"
       x1="0.050000001"
       y1="0"
       x2="108.0705"
       y2="0"
       id="line300" />
  </g>
  <g
     transform="translate(3.1967416e-8,15.213)"
     id="g306">
    <line
       stroke-linejoin="round"
       stroke-linecap="round"
       stroke-width="0.1"
       stroke="currentColor"
       x1="0.050000001"
       y1="0"
       x2="108.0705"
       y2="0"
       id="line304" />
  </g>
  <g
     transform="translate(3.1967416e-8,14.213)"
     id="g310">
    <line
       stroke-linejoin="round"
       stroke-linecap="round"
       stroke-width="0.1"
       stroke="currentColor"
       x1="0.050000001"
       y1="0"
       x2="108.0705"
       y2="0"
       id="line308" />
  </g>
  <g
     transform="translate(107.9304,16.213)"
     id="g314">
    <rect
       x="0"
       y="-2"
       width="0.19"
       height="4"
       ry="0.0000"
       fill="currentColor"
       id="rect312" />
  </g>
  <g
     transform="translate(55.1635,16.213)"
     id="g318">
    <rect
       x="0"
       y="-2"
       width="0.19"
       height="4"
       ry="0.0000"
       fill="currentColor"
       id="rect316" />
  </g>
  <g
     transform="translate(3.1967416e-8,19.213)"
     id="g322">
    <rect
       x="101.5177"
       y="-0.1"
       width="1.9563"
       height="0.2"
       ry="0.1"
       fill="currentColor"
       id="rect320" />
  </g>
  <g
     transform="translate(3.1967416e-8,19.213)"
     id="g326">
    <rect
       x="64.327599"
       y="-0.1"
       width="1.9563"
       height="0.2"
       ry="0.1"
       fill="currentColor"
       id="rect324" />
  </g>
  <g
     transform="translate(3.1967416e-8,19.213)"
     id="g330">
    <rect
       x="58.391998"
       y="-0.1"
       width="1.8053"
       height="0.2"
       ry="0.1"
       fill="currentColor"
       id="rect328" />
  </g>
  <g
     transform="translate(3.1967416e-8,19.213)"
     id="g334">
    <rect
       x="48.750801"
       y="-0.1"
       width="1.9563"
       height="0.2"
       ry="0.1"
       fill="currentColor"
       id="rect332" />
  </g>
  <g
     transform="translate(3.1967416e-8,19.213)"
     id="g338">
    <rect
       x="42.664101"
       y="-0.1"
       width="1.9563"
       height="0.2"
       ry="0.1"
       fill="currentColor"
       id="rect336" />
  </g>
  <g
     transform="translate(3.1967416e-8,19.213)"
     id="g342">
    <rect
       x="18.317301"
       y="-0.1"
       width="1.9563"
       height="0.2"
       ry="0.1"
       fill="currentColor"
       id="rect340" />
  </g>
  <g
     transform="translate(3.1967416e-8,19.213)"
     id="g346">
    <rect
       x="12.3817"
       y="-0.1"
       width="1.8053"
       height="0.2"
       ry="0.1"
       fill="currentColor"
       id="rect344" />
  </g>
  <g
     transform="translate(3.1967416e-8,19.213)"
     id="g350">
    <rect
       x="5.4738998"
       y="-0.1"
       width="1.9563"
       height="0.2"
       ry="0.1"
       fill="currentColor"
       id="rect348" />
  </g>
  <g
     transform="translate(3.1967416e-8,20.213)"
     id="g354">
    <rect
       x="5.4738998"
       y="-0.1"
       width="1.9563"
       height="0.2"
       ry="0.1"
       fill="currentColor"
       id="rect352" />
  </g>
  <g
     transform="translate(83.6487,16.213)"
     id="g358">
    <rect
       x="-0.064999998"
       y="1.6861"
       width="0.13"
       height="2.8174"
       ry="0.039999999"
       fill="currentColor"
       id="rect356" />
  </g>
  <g
     transform="translate(70.7403,18.713)"
     id="g362">
    <path
       transform="scale(0.004,-0.004)"
       d="m 218,136 c 55,0 108,-28 108,-89 0,-71 -55,-121 -102,-149 -35,-21 -75,-34 -116,-34 -55,0 -108,28 -108,89 0,71 55,121 102,149 35,21 75,34 116,34 z"
       fill="currentColor"
       id="path360" />
  </g>
  <g
     transform="translate(70.8053,16.213)"
     id="g366">
    <rect
       x="-0.064999998"
       y="2.6861"
       width="0.13"
       height="2.4818001"
       ry="0.039999999"
       fill="currentColor"
       id="rect364" />
  </g>
  <g
     transform="translate(77.497,18.213)"
     id="g370">
    <path
       transform="scale(0.004,-0.004)"
       d="m 218,136 c 55,0 108,-28 108,-89 0,-71 -55,-121 -102,-149 -35,-21 -75,-34 -116,-34 -55,0 -108,28 -108,89 0,71 55,121 102,149 35,21 75,34 116,34 z"
       fill="currentColor"
       id="path368" />
  </g>
  <g
     transform="translate(77.562,16.213)"
     id="g374">
    <rect
       x="-0.064999998"
       y="2.1861"
       width="0.13"
       height="2.6273"
       ry="0.039999999"
       fill="currentColor"
       id="rect372" />
  </g>
  <g
     transform="translate(76.347,18.213)"
     id="g378">
    <path
       transform="scale(0.004,-0.004)"
       d="m 27,41 -1,-66 v -11 c 0,-22 1,-44 4,-66 45,38 93,80 93,139 0,33 -14,67 -43,67 C 49,104 28,74 27,41 Z m -42,-179 -12,595 c 8,5 18,8 27,8 9,0 19,-3 27,-8 L 20,112 c 25,21 58,34 91,34 52,0 89,-48 89,-102 0,-80 -86,-117 -147,-169 -15,-13 -24,-38 -45,-38 -13,0 -23,11 -23,25 z"
       fill="currentColor"
       id="path376" />
  </g>
  <g
     transform="translate(83.5837,17.713)"
     id="g382">
    <path
       transform="scale(0.004,-0.004)"
       d="m 218,136 c 55,0 108,-28 108,-89 0,-71 -55,-121 -102,-149 -35,-21 -75,-34 -116,-34 -55,0 -108,28 -108,89 0,71 55,121 102,149 35,21 75,34 116,34 z"
       fill="currentColor"
       id="path380" />
  </g>
  <g
     transform="translate(5.8,16.213)"
     id="g386">
    <path
       stroke-width="0.08"
       stroke-linejoin="round"
       stroke-linecap="round"
       stroke="currentColor"
       fill="currentColor"
       d="M 0.0878,7.2366 C 2.593,8.8333 16.6934,8.0935 19.0179,6.2434 v 0 C 16.6871,7.9737 2.5868,8.7135 0.0878,7.2366 Z"
       id="path384" />
  </g>
  <g
     transform="translate(64.7186,16.213)"
     id="g390">
    <rect
       x="-0.064999998"
       y="3.1861"
       width="0.13"
       height="2.3011"
       ry="0.039999999"
       fill="currentColor"
       id="rect388" />
  </g>
  <g
     transform="translate(57.4169,19.713)"
     id="g394">
    <path
       transform="scale(0.004,-0.004)"
       d="m 27,41 -1,-66 v -11 c 0,-22 1,-44 4,-66 45,38 93,80 93,139 0,33 -14,67 -43,67 C 49,104 28,74 27,41 Z m -42,-179 -12,595 c 8,5 18,8 27,8 9,0 19,-3 27,-8 L 20,112 c 25,21 58,34 91,34 52,0 89,-48 89,-102 0,-80 -86,-117 -147,-169 -15,-13 -24,-38 -45,-38 -13,0 -23,11 -23,25 z"
       fill="currentColor"
       id="path392" />
  </g>
  <g
     transform="translate(64.6536,19.213)"
     id="g398">
    <path
       transform="scale(0.004,-0.004)"
       d="m 218,136 c 55,0 108,-28 108,-89 0,-71 -55,-121 -102,-149 -35,-21 -75,-34 -116,-34 -55,0 -108,28 -108,89 0,71 55,121 102,149 35,21 75,34 116,34 z"
       fill="currentColor"
       id="path396" />
  </g>
  <g
     transform="translate(5.8,18.213)"
     id="g402">
    <path
       transform="scale(0.004,-0.004)"
       d="m 213,112 c -50,0 -69,-43 -69,-88 0,-77 57,-136 134,-136 50,0 69,43 69,88 0,77 -57,136 -134,136 z M 491,0 c 0,-43 -34,-75 -72,-96 -53,-29 -114,-40 -174,-40 -60,0 -120,11 -173,40 -38,21 -72,53 -72,96 0,43 34,75 72,96 53,29 113,40 173,40 60,0 121,-11 174,-40 38,-21 72,-53 72,-96 z"
       fill="currentColor"
       id="path400" />
  </g>
  <g
     transform="translate(5.865,16.213)"
     id="g406">
    <rect
       x="-0.064999998"
       y="4.1861"
       width="0.13"
       height="2.3104999"
       ry="0.039999999"
       fill="currentColor"
       id="rect404" />
  </g>
  <g
     transform="translate(6.0253,25.1497)"
     id="g410">
    <path
       transform="scale(0.0022,-0.0022)"
       d="m 129,149 h 7 c 36,0 74,-13 111,-40 19,-14 40,-21 59,-21 22,0 40,10 46,31 2,7 7,11 13,11 7,0 15,-5 15,-14 v -5 C 361,40 296,0 234,0 196,0 159,15 133,47 121,62 105,69 89,69 60,69 32,48 29,13 28,4 22,0 15,0 8,0 0,5 0,14 c 0,173 233,163 233,341 0,56 -14,116 -62,116 -33,0 -66,-15 -66,-44 0,-24 31,-37 31,-61 0,-34 -27,-61 -61,-61 -34,0 -61,27 -61,61 0,78 74,134 157,134 98,0 191,-55 191,-145 C 362,211 227,199 129,149 Z"
       fill="currentColor"
       id="path408" />
  </g>
  <g
     transform="translate(5.8,20.213)"
     id="g414">
    <path
       transform="scale(0.004,-0.004)"
       d="m 218,136 c 55,0 108,-28 108,-89 0,-71 -55,-121 -102,-149 -35,-21 -75,-34 -116,-34 -55,0 -108,28 -108,89 0,71 55,121 102,149 35,21 75,34 116,34 z"
       fill="currentColor"
       id="path412" />
  </g>
  <g
     transform="translate(83.5837,20.713)"
     id="g418">
    <polygon
       stroke-linejoin="round"
       stroke-linecap="round"
       stroke-width="0.08"
       fill="currentColor"
       stroke="currentColor"
       points="18.3501,0.8 18.3501,1.2 0.04,0.2 0.04,-0.2 "
       id="polygon416" />
  </g>
  <g
     transform="translate(58.5669,22.023)"
     id="g422">
    <polygon
       stroke-linejoin="round"
       stroke-linecap="round"
       stroke-width="0.08"
       fill="currentColor"
       stroke="currentColor"
       points="19.0201,-1.2 19.0201,-0.8 0.04,0.2 0.04,-0.2 "
       id="polygon420" />
  </g>
  <g
     transform="translate(83.5837,16.213)"
     id="g426">
    <path
       stroke-width="0.08"
       stroke-linejoin="round"
       stroke-linecap="round"
       stroke="currentColor"
       fill="currentColor"
       d="m 0.0414,5.2435 c 2.2871,1.8411 15.7868,2.5752 18.2601,0.993 v 0 C 15.8347,7.6989 2.335,6.9648 0.0414,5.2435 Z"
       id="path424" />
  </g>
  <g
     transform="translate(58.5669,16.213)"
     id="g430">
    <path
       stroke-width="0.08"
       stroke-linejoin="round"
       stroke-linecap="round"
       stroke="currentColor"
       fill="currentColor"
       d="M 0.0878,6.5466 C 2.593,8.1433 16.6934,7.4035 19.0179,5.5534 v 0 C 16.6871,7.2837 2.5868,8.0235 0.0878,6.5466 Z"
       id="path428" />
  </g>
  <g
     transform="translate(30.8167,21.213)"
     id="g434">
    <polygon
       stroke-linejoin="round"
       stroke-linecap="round"
       stroke-width="0.08"
       fill="currentColor"
       stroke="currentColor"
       points="18.3501,0.61 18.3501,1.01 0.04,0.2 0.04,-0.2 "
       id="polygon432" />
  </g>
  <g
     transform="translate(5.8,22.713)"
     id="g438">
    <polygon
       stroke-linejoin="round"
       stroke-linecap="round"
       stroke-width="0.08"
       fill="currentColor"
       stroke="currentColor"
       points="19.0201,-1.2 19.0201,-0.8 0.04,0.2 0.04,-0.2 "
       id="polygon436" />
  </g>
  <g
     transform="translate(30.8167,16.213)"
     id="g442">
    <path
       stroke-width="0.08"
       stroke-linejoin="round"
       stroke-linecap="round"
       stroke="currentColor"
       fill="currentColor"
       d="m 0.0459,5.7429 c 2.3054,1.8172 15.8037,2.4117 18.26,0.8042 v 0 C 15.8549,8.0347 2.3566,7.4402 0.0459,5.7429 Z"
       id="path440" />
  </g>
  <g
     transform="translate(95.822,16.213)"
     id="g446">
    <rect
       x="-0.064999998"
       y="2.6861"
       width="0.13"
       height="2.4793999"
       ry="0.039999999"
       fill="currentColor"
       id="rect444" />
  </g>
  <g
     transform="translate(89.6704,18.213)"
     id="g450">
    <path
       transform="scale(0.004,-0.004)"
       d="m 218,136 c 55,0 108,-28 108,-89 0,-71 -55,-121 -102,-149 -35,-21 -75,-34 -116,-34 -55,0 -108,28 -108,89 0,71 55,121 102,149 35,21 75,34 116,34 z"
       fill="currentColor"
       id="path448" />
  </g>
  <g
     transform="translate(89.7354,16.213)"
     id="g454">
    <rect
       x="-0.064999998"
       y="2.1861"
       width="0.13"
       height="2.6484001"
       ry="0.039999999"
       fill="currentColor"
       id="rect452" />
  </g>
  <g
     transform="translate(95.757,18.713)"
     id="g458">
    <path
       transform="scale(0.004,-0.004)"
       d="m 218,136 c 55,0 108,-28 108,-89 0,-71 -55,-121 -102,-149 -35,-21 -75,-34 -116,-34 -55,0 -108,28 -108,89 0,71 55,121 102,149 35,21 75,34 116,34 z"
       fill="currentColor"
       id="path456" />
  </g>
  <g
     transform="translate(101.8437,19.213)"
     id="g462">
    <path
       transform="scale(0.004,-0.004)"
       d="m 218,136 c 55,0 108,-28 108,-89 0,-71 -55,-121 -102,-149 -35,-21 -75,-34 -116,-34 -55,0 -108,28 -108,89 0,71 55,121 102,149 35,21 75,34 116,34 z"
       fill="currentColor"
       id="path460" />
  </g>
  <g
     transform="translate(101.9087,16.213)"
     id="g466">
    <rect
       x="-0.064999998"
       y="3.1861"
       width="0.13"
       height="2.3104"
       ry="0.039999999"
       fill="currentColor"
       id="rect464" />
  </g>
  <g
     transform="translate(11.4066,19.713)"
     id="g470">
    <path
       transform="scale(0.004,-0.004)"
       d="m 27,41 -1,-66 v -11 c 0,-22 1,-44 4,-66 45,38 93,80 93,139 0,33 -14,67 -43,67 C 49,104 28,74 27,41 Z m -42,-179 -12,595 c 8,5 18,8 27,8 9,0 19,-3 27,-8 L 20,112 c 25,21 58,34 91,34 52,0 89,-48 89,-102 0,-80 -86,-117 -147,-169 -15,-13 -24,-38 -45,-38 -13,0 -23,11 -23,25 z"
       fill="currentColor"
       id="path468" />
  </g>
  <g
     transform="translate(12.5566,19.713)"
     id="g474">
    <path
       transform="scale(0.004,-0.004)"
       d="m 218,136 c 55,0 108,-28 108,-89 0,-71 -55,-121 -102,-149 -35,-21 -75,-34 -116,-34 -55,0 -108,28 -108,89 0,71 55,121 102,149 35,21 75,34 116,34 z"
       fill="currentColor"
       id="path472" />
  </g>
  <g
     transform="translate(12.782,25.6079)"
     id="g478">
    <path
       transform="scale(0.0022,-0.0022)"
       d="m 129,149 h 7 c 36,0 74,-13 111,-40 19,-14 40,-21 59,-21 22,0 40,10 46,31 2,7 7,11 13,11 7,0 15,-5 15,-14 v -5 C 361,40 296,0 234,0 196,0 159,15 133,47 121,62 105,69 89,69 60,69 32,48 29,13 28,4 22,0 15,0 8,0 0,5 0,14 c 0,173 233,163 233,341 0,56 -14,116 -62,116 -33,0 -66,-15 -66,-44 0,-24 31,-37 31,-61 0,-34 -27,-61 -61,-61 -34,0 -61,27 -61,61 0,78 74,134 157,134 98,0 191,-55 191,-145 C 362,211 227,199 129,149 Z"
       fill="currentColor"
       id="path476" />
  </g>
  <g
     transform="translate(12.6216,16.213)"
     id="g482">
    <rect
       x="-0.064999998"
       y="3.6861"
       width="0.13"
       height="2.4560001"
       ry="0.039999999"
       fill="currentColor"
       id="rect480" />
  </g>
  <g
     transform="translate(18.6433,19.213)"
     id="g486">
    <path
       transform="scale(0.004,-0.004)"
       d="m 218,136 c 55,0 108,-28 108,-89 0,-71 -55,-121 -102,-149 -35,-21 -75,-34 -116,-34 -55,0 -108,28 -108,89 0,71 55,121 102,149 35,21 75,34 116,34 z"
       fill="currentColor"
       id="path484" />
  </g>
  <g
     transform="translate(18.7083,16.213)"
     id="g490">
    <rect
       x="-0.064999998"
       y="3.1861"
       width="0.13"
       height="2.6366"
       ry="0.039999999"
       fill="currentColor"
       id="rect488" />
  </g>
  <g
     transform="translate(24.73,18.713)"
     id="g494">
    <path
       transform="scale(0.004,-0.004)"
       d="m 218,136 c 55,0 108,-28 108,-89 0,-71 -55,-121 -102,-149 -35,-21 -75,-34 -116,-34 -55,0 -108,28 -108,89 0,71 55,121 102,149 35,21 75,34 116,34 z"
       fill="currentColor"
       id="path492" />
  </g>
  <g
     transform="translate(24.795,16.213)"
     id="g498">
    <rect
       x="-0.064999998"
       y="2.6861"
       width="0.13"
       height="2.8173001"
       ry="0.039999999"
       fill="currentColor"
       id="rect496" />
  </g>
  <g
     transform="translate(0.80000003,17.213)"
     id="g502">
    <path
       transform="scale(0.004,-0.004)"
       d="m 266,-635 h -6 c -108,0 -195,88 -195,197 0,58 53,103 112,103 54,0 95,-47 95,-103 0,-52 -43,-95 -95,-95 -11,0 -21,2 -31,6 26,-39 68,-65 117,-65 h 4 z m 195,432 c 68,24 113,95 113,164 0,90 -66,179 -173,190 24,-116 46,-231 60,-354 z M 74,28 c 0,-135 129,-247 264,-247 28,0 55,2 82,6 C 406,-86 383,32 357,151 278,143 233,90 233,32 c 0,-44 25,-91 81,-123 5,-5 7,-10 7,-15 0,-11 -10,-22 -22,-22 -3,0 -6,1 -9,2 -80,43 -117,115 -117,185 0,88 58,174 160,197 -14,58 -29,117 -46,175 C 180,310 74,188 74,28 Z M 335,-262 C 147,-262 2,-90 2,112 c 0,177 131,306 248,441 -19,62 -37,125 -45,190 -6,52 -7,104 -7,156 0,115 55,224 149,292 6,5 14,5 20,0 71,-84 133,-245 133,-358 0,-143 -86,-255 -180,-364 21,-68 39,-138 56,-207 4,0 9,1 13,1 155,0 256,-128 256,-261 0,-76 -33,-154 -107,-210 -22,-17 -47,-28 -73,-36 3,-35 5,-70 5,-105 0,-19 -1,-39 -2,-58 -7,-119 -88,-225 -202,-228 l 1,43 c 93,2 153,92 159,191 1,18 2,37 2,55 0,31 -1,61 -4,92 -29,-5 -58,-8 -89,-8 z m 93,1178 c 0,55 -4,79 -20,129 -99,-48 -162,-149 -162,-259 0,-74 18,-133 36,-194 80,97 146,198 146,324 z"
       fill="currentColor"
       id="path500" />
  </g>
  <g
     transform="translate(4.65,18.213)"
     id="g506">
    <path
       transform="scale(0.004,-0.004)"
       d="m 27,41 -1,-66 v -11 c 0,-22 1,-44 4,-66 45,38 93,80 93,139 0,33 -14,67 -43,67 C 49,104 28,74 27,41 Z m -42,-179 -12,595 c 8,5 18,8 27,8 9,0 19,-3 27,-8 L 20,112 c 25,21 58,34 91,34 52,0 89,-48 89,-102 0,-80 -86,-117 -147,-169 -15,-13 -24,-38 -45,-38 -13,0 -23,11 -23,25 z"
       fill="currentColor"
       id="path504" />
  </g>
  <g
     transform="translate(37.0946,24.8066)"
     id="g510">
    <path
       transform="scale(0.0022,-0.0022)"
       d="m 198,284 c 24,15 48,29 65,52 12,16 19,34 28,52 2,5 6,7 11,7 8,0 16,-6 16,-17 V 161 h 79 c 12,0 18,-9 18,-18 0,-9 -6,-18 -18,-18 h -79 c 2,-51 33,-96 80,-96 10,0 15,-8 15,-15 C 413,7 408,0 398,0 349,0 302,14 253,14 204,14 156,0 107,0 97,0 93,7 93,14 c 0,7 4,15 14,15 47,0 79,45 81,96 H 36 c -29,0 -38,17 -38,28 0,3 1,6 2,8 78,88 123,201 123,319 0,11 8,21 17,21 1,0 3,-1 4,-1 25,-7 50,-14 76,-14 26,0 52,7 77,14 2,1 4,1 6,1 10,0 17,-7 17,-14 0,-2 0,-5 -2,-7 L 36,161 h 152 v 96 c 0,10 1,21 10,27 z"
       fill="currentColor"
       id="path508" />
  </g>
  <g
     transform="translate(36.9684,16.213)"
     id="g514">
    <rect
       x="-0.064999998"
       y="2.6861"
       width="0.13"
       height="2.5848"
       ry="0.039999999"
       fill="currentColor"
       id="rect512" />
  </g>
  <g
     transform="translate(42.9901,19.213)"
     id="g518">
    <path
       transform="scale(0.004,-0.004)"
       d="m 218,136 c 55,0 108,-28 108,-89 0,-71 -55,-121 -102,-149 -35,-21 -75,-34 -116,-34 -55,0 -108,28 -108,89 0,71 55,121 102,149 35,21 75,34 116,34 z"
       fill="currentColor"
       id="path516" />
  </g>
  <g
     transform="translate(43.0551,16.213)"
     id="g522">
    <rect
       x="-0.064999998"
       y="3.1861"
       width="0.13"
       height="2.3529"
       ry="0.039999999"
       fill="currentColor"
       id="rect520" />
  </g>
  <g
     transform="translate(49.0768,19.713)"
     id="g526">
    <path
       transform="scale(0.004,-0.004)"
       d="m 218,136 c 55,0 108,-28 108,-89 0,-71 -55,-121 -102,-149 -35,-21 -75,-34 -116,-34 -55,0 -108,28 -108,89 0,71 55,121 102,149 35,21 75,34 116,34 z"
       fill="currentColor"
       id="path524" />
  </g>
  <g
     transform="translate(49.1418,16.213)"
     id="g530">
    <rect
       x="-0.064999998"
       y="3.6861"
       width="0.13"
       height="2.1210001"
       ry="0.039999999"
       fill="currentColor"
       id="rect528" />
  </g>
  <g
     transform="translate(58.5669,19.713)"
     id="g534">
    <path
       transform="scale(0.004,-0.004)"
       d="m 218,136 c 55,0 108,-28 108,-89 0,-71 -55,-121 -102,-149 -35,-21 -75,-34 -116,-34 -55,0 -108,28 -108,89 0,71 55,121 102,149 35,21 75,34 116,34 z"
       fill="currentColor"
       id="path532" />
  </g>
  <g
     transform="translate(58.5669,17.713)"
     id="g538">
    <path
       transform="scale(0.004,-0.004)"
       d="m 213,112 c -50,0 -69,-43 -69,-88 0,-77 57,-136 134,-136 50,0 69,43 69,88 0,77 -57,136 -134,136 z M 491,0 c 0,-43 -34,-75 -72,-96 -53,-29 -114,-40 -174,-40 -60,0 -120,11 -173,40 -38,21 -72,53 -72,96 0,43 34,75 72,96 53,29 113,40 173,40 60,0 121,-11 174,-40 38,-21 72,-53 72,-96 z"
       fill="currentColor"
       id="path536" />
  </g>
  <g
     transform="translate(58.6319,16.213)"
     id="g542">
    <rect
       x="-0.064999998"
       y="3.6861"
       width="0.13"
       height="2.1205001"
       ry="0.039999999"
       fill="currentColor"
       id="rect540" />
  </g>
  <g
     transform="translate(30.8817,16.213)"
     id="g546">
    <rect
       x="-0.064999998"
       y="2.1861"
       width="0.13"
       height="2.8168001"
       ry="0.039999999"
       fill="currentColor"
       id="rect544" />
  </g>
  <g
     transform="translate(30.8167,18.213)"
     id="g550">
    <path
       transform="scale(0.004,-0.004)"
       d="m 218,136 c 55,0 108,-28 108,-89 0,-71 -55,-121 -102,-149 -35,-21 -75,-34 -116,-34 -55,0 -108,28 -108,89 0,71 55,121 102,149 35,21 75,34 116,34 z"
       fill="currentColor"
       id="path548" />
  </g>
  <g
     transform="translate(31.0079,23.7951)"
     id="g554">
    <path
       transform="scale(0.0022,-0.0022)"
       d="m 198,284 c 24,15 48,29 65,52 12,16 19,34 28,52 2,5 6,7 11,7 8,0 16,-6 16,-17 V 161 h 79 c 12,0 18,-9 18,-18 0,-9 -6,-18 -18,-18 h -79 c 2,-51 33,-96 80,-96 10,0 15,-8 15,-15 C 413,7 408,0 398,0 349,0 302,14 253,14 204,14 156,0 107,0 97,0 93,7 93,14 c 0,7 4,15 14,15 47,0 79,45 81,96 H 36 c -29,0 -38,17 -38,28 0,3 1,6 2,8 78,88 123,201 123,319 0,11 8,21 17,21 1,0 3,-1 4,-1 25,-7 50,-14 76,-14 26,0 52,7 77,14 2,1 4,1 6,1 10,0 17,-7 17,-14 0,-2 0,-5 -2,-7 L 36,161 h 152 v 96 c 0,10 1,21 10,27 z"
       fill="currentColor"
       id="path552" />
  </g>
  <g
     transform="translate(36.9034,18.713)"
     id="g558">
    <path
       transform="scale(0.004,-0.004)"
       d="m 218,136 c 55,0 108,-28 108,-89 0,-71 -55,-121 -102,-149 -35,-21 -75,-34 -116,-34 -55,0 -108,28 -108,89 0,71 55,121 102,149 35,21 75,34 116,34 z"
       fill="currentColor"
       id="path556" />
  </g>
</svg>
