<svg
   version="1.2"
   width="190mm"
   height="44.561581mm"
   viewBox="0 0 108.1205 25.358"
   id="svg3600"
   sodipodi:docname="ricci-expansion.svg"
   xmlns:inkscape="http://www.inkscape.org/namespaces/inkscape"
   xmlns:sodipodi="http://sodipodi.sourceforge.net/DTD/sodipodi-0.dtd"
   xmlns="http://www.w3.org/2000/svg"
   xmlns:svg="http://www.w3.org/2000/svg">
  <defs
     id="defs3604" />
  <sodipodi:namedview
     id="namedview3602"
     pagecolor="#ffffff"
     bordercolor="#000000"
     borderopacity="0.25"
     inkscape:showpageshadow="2"
     inkscape:pageopacity="0.0"
     inkscape:pagecheckerboard="0"
     inkscape:deskcolor="#d1d1d1"
     inkscape:document-units="mm"
     showgrid="false" />
  <style
     type="text/css"
     id="style2"><![CDATA[
tspan { white-space: pre; }
]]></style>
  <!-- Page: 1/1 -->
  <g
     transform="translate(3.1967416e-8,5.7790054)"
     id="g2714">
    <line
       stroke-linejoin="round"
       stroke-linecap="round"
       stroke-width="0.1"
       stroke="currentColor"
       x1="0.050000001"
       y1="0"
       x2="108.0705"
       y2="0"
       id="line2712" />
  </g>
  <g
     transform="translate(3.1967416e-8,4.7790054)"
     id="g2718">
    <line
       stroke-linejoin="round"
       stroke-linecap="round"
       stroke-width="0.1"
       stroke="currentColor"
       x1="0.050000001"
       y1="0"
       x2="108.0705"
       y2="0"
       id="line2716" />
  </g>
  <g
     transform="translate(3.1967416e-8,3.7790054)"
     id="g2722">
    <line
       stroke-linejoin="round"
       stroke-linecap="round"
       stroke-width="0.1"
       stroke="currentColor"
       x1="0.050000001"
       y1="0"
       x2="108.0705"
       y2="0"
       id="line2720" />
  </g>
  <g
     transform="translate(3.1967416e-8,2.7790054)"
     id="g2726">
    <line
       stroke-linejoin="round"
       stroke-linecap="round"
       stroke-width="0.1"
       stroke="currentColor"
       x1="0.050000001"
       y1="0"
       x2="108.0705"
       y2="0"
       id="line2724" />
  </g>
  <g
     transform="translate(3.1967416e-8,1.7790054)"
     id="g2730">
    <line
       stroke-linejoin="round"
       stroke-linecap="round"
       stroke-width="0.1"
       stroke="currentColor"
       x1="0.050000001"
       y1="0"
       x2="108.0705"
       y2="0"
       id="line2728" />
  </g>
  <g
     transform="translate(3.1967416e-8,6.7790054)"
     id="g2734">
    <rect
       x="103.6055"
       y="-0.1"
       width="1.9563"
       height="0.2"
       ry="0.1"
       fill="currentColor"
       id="rect2732" />
  </g>
  <g
     transform="translate(3.1967416e-8,7.7790054)"
     id="g2738">
    <rect
       x="103.6055"
       y="-0.1"
       width="1.9563"
       height="0.2"
       ry="0.1"
       fill="currentColor"
       id="rect2736" />
  </g>
  <g
     transform="translate(3.1967416e-8,6.7790054)"
     id="g2742">
    <rect
       x="99.606499"
       y="-0.1"
       width="1.9563"
       height="0.2"
       ry="0.1"
       fill="currentColor"
       id="rect2740" />
  </g>
  <g
     transform="translate(3.1967416e-8,6.7790054)"
     id="g2746">
    <rect
       x="95.607498"
       y="-0.1"
       width="1.9563"
       height="0.2"
       ry="0.1"
       fill="currentColor"
       id="rect2744" />
  </g>
  <g
     transform="translate(3.1967416e-8,6.7790054)"
     id="g2750">
    <rect
       x="67.614799"
       y="-0.1"
       width="1.9563"
       height="0.2"
       ry="0.1"
       fill="currentColor"
       id="rect2748" />
  </g>
  <g
     transform="translate(3.1967416e-8,6.7790054)"
     id="g2754">
    <rect
       x="63.615799"
       y="-0.1"
       width="1.9563"
       height="0.2"
       ry="0.1"
       fill="currentColor"
       id="rect2752" />
  </g>
  <g
     transform="translate(3.1967416e-8,6.7790054)"
     id="g2758">
    <rect
       x="59.616798"
       y="-0.1"
       width="1.9563"
       height="0.2"
       ry="0.1"
       fill="currentColor"
       id="rect2756" />
  </g>
  <g
     transform="translate(3.1967416e-8,7.7790054)"
     id="g2762">
    <rect
       x="59.616798"
       y="-0.1"
       width="1.9563"
       height="0.2"
       ry="0.1"
       fill="currentColor"
       id="rect2760" />
  </g>
  <g
     transform="translate(3.1967416e-8,6.7790054)"
     id="g2766">
    <rect
       x="53.9673"
       y="-0.1"
       width="1.9563"
       height="0.2"
       ry="0.1"
       fill="currentColor"
       id="rect2764" />
  </g>
  <g
     transform="translate(3.1967416e-8,7.7790054)"
     id="g2770">
    <rect
       x="53.9673"
       y="-0.1"
       width="1.9563"
       height="0.2"
       ry="0.1"
       fill="currentColor"
       id="rect2768" />
  </g>
  <g
     transform="translate(3.1967416e-8,6.7790054)"
     id="g2774">
    <rect
       x="49.968399"
       y="-0.1"
       width="1.9563"
       height="0.2"
       ry="0.1"
       fill="currentColor"
       id="rect2772" />
  </g>
  <g
     transform="translate(3.1967416e-8,6.7790054)"
     id="g2778">
    <rect
       x="45.969398"
       y="-0.1"
       width="1.9563"
       height="0.2"
       ry="0.1"
       fill="currentColor"
       id="rect2776" />
  </g>
  <g
     transform="translate(3.1967416e-8,6.7790054)"
     id="g2782">
    <rect
       x="17.2777"
       y="-0.1"
       width="1.8053"
       height="0.2"
       ry="0.1"
       fill="currentColor"
       id="rect2780" />
  </g>
  <g
     transform="translate(3.1967416e-8,6.7790054)"
     id="g2786">
    <rect
       x="12.2776"
       y="-0.1"
       width="1.9563"
       height="0.2"
       ry="0.1"
       fill="currentColor"
       id="rect2784" />
  </g>
  <g
     transform="translate(3.1967416e-8,6.7790054)"
     id="g2790">
    <rect
       x="8.2786999"
       y="-0.1"
       width="1.9563"
       height="0.2"
       ry="0.1"
       fill="currentColor"
       id="rect2788" />
  </g>
  <g
     transform="translate(3.1967416e-8,7.7790054)"
     id="g2794">
    <rect
       x="8.2786999"
       y="-0.1"
       width="1.9563"
       height="0.2"
       ry="0.1"
       fill="currentColor"
       id="rect2792" />
  </g>
  <g
     transform="translate(58.2923,3.7790054)"
     id="g2798">
    <rect
       x="0"
       y="-2"
       width="0.19"
       height="4"
       ry="0.0000"
       fill="currentColor"
       id="rect2796" />
  </g>
  <g
     transform="translate(107.9304,3.7790054)"
     id="g2802">
    <rect
       x="0"
       y="-2"
       width="0.19"
       height="4"
       ry="0.0000"
       fill="currentColor"
       id="rect2800" />
  </g>
  <g
     transform="translate(67.9408,6.7790054)"
     id="g2806">
    <path
       transform="scale(0.004,-0.004)"
       d="m 218,136 c 55,0 108,-28 108,-89 0,-71 -55,-121 -102,-149 -35,-21 -75,-34 -116,-34 -55,0 -108,28 -108,89 0,71 55,121 102,149 35,21 75,34 116,34 z"
       fill="currentColor"
       id="path2804" />
  </g>
  <g
     transform="translate(64.0068,3.7790054)"
     id="g2810">
    <rect
       x="-0.064999998"
       y="3.6861"
       width="0.13"
       height="2.5109999"
       ry="0.039999999"
       fill="currentColor"
       id="rect2808" />
  </g>
  <g
     transform="translate(63.9418,7.2790054)"
     id="g2814">
    <path
       transform="scale(0.004,-0.004)"
       d="m 218,136 c 55,0 108,-28 108,-89 0,-71 -55,-121 -102,-149 -35,-21 -75,-34 -116,-34 -55,0 -108,28 -108,89 0,71 55,121 102,149 35,21 75,34 116,34 z"
       fill="currentColor"
       id="path2812" />
  </g>
  <g
     transform="translate(68.1661,12.972605)"
     id="g2818">
    <path
       transform="scale(0.0022,-0.0022)"
       d="m 129,149 h 7 c 36,0 74,-13 111,-40 19,-14 40,-21 59,-21 22,0 40,10 46,31 2,7 7,11 13,11 7,0 15,-5 15,-14 v -5 C 361,40 296,0 234,0 196,0 159,15 133,47 121,62 105,69 89,69 60,69 32,48 29,13 28,4 22,0 15,0 8,0 0,5 0,14 c 0,173 233,163 233,341 0,56 -14,116 -62,116 -33,0 -66,-15 -66,-44 0,-24 31,-37 31,-61 0,-34 -27,-61 -61,-61 -34,0 -61,27 -61,61 0,78 74,134 157,134 98,0 191,-55 191,-145 C 362,211 227,199 129,149 Z"
       fill="currentColor"
       id="path2816" />
  </g>
  <g
     transform="translate(68.0058,3.7790054)"
     id="g2822">
    <rect
       x="-0.064999998"
       y="3.1861"
       width="0.13"
       height="2.7128999"
       ry="0.039999999"
       fill="currentColor"
       id="rect2820" />
  </g>
  <g
     transform="translate(71.9397,6.2790054)"
     id="g2826">
    <path
       transform="scale(0.004,-0.004)"
       d="m 218,136 c 55,0 108,-28 108,-89 0,-71 -55,-121 -102,-149 -35,-21 -75,-34 -116,-34 -55,0 -108,28 -108,89 0,71 55,121 102,149 35,21 75,34 116,34 z"
       fill="currentColor"
       id="path2824" />
  </g>
  <g
     transform="translate(72.0047,3.7790054)"
     id="g2830">
    <rect
       x="-0.064999998"
       y="2.6861"
       width="0.13"
       height="2.9149001"
       ry="0.039999999"
       fill="currentColor"
       id="rect2828" />
  </g>
  <g
     transform="translate(75.9387,5.7790054)"
     id="g2834">
    <path
       transform="scale(0.004,-0.004)"
       d="m 218,136 c 55,0 108,-28 108,-89 0,-71 -55,-121 -102,-149 -35,-21 -75,-34 -116,-34 -55,0 -108,28 -108,89 0,71 55,121 102,149 35,21 75,34 116,34 z"
       fill="currentColor"
       id="path2832" />
  </g>
  <g
     transform="translate(76.1299,12.109405)"
     id="g2838">
    <path
       transform="scale(0.0022,-0.0022)"
       d="m 198,284 c 24,15 48,29 65,52 12,16 19,34 28,52 2,5 6,7 11,7 8,0 16,-6 16,-17 V 161 h 79 c 12,0 18,-9 18,-18 0,-9 -6,-18 -18,-18 h -79 c 2,-51 33,-96 80,-96 10,0 15,-8 15,-15 C 413,7 408,0 398,0 349,0 302,14 253,14 204,14 156,0 107,0 97,0 93,7 93,14 c 0,7 4,15 14,15 47,0 79,45 81,96 H 36 c -29,0 -38,17 -38,28 0,3 1,6 2,8 78,88 123,201 123,319 0,11 8,21 17,21 1,0 3,-1 4,-1 25,-7 50,-14 76,-14 26,0 52,7 77,14 2,1 4,1 6,1 10,0 17,-7 17,-14 0,-2 0,-5 -2,-7 L 36,161 h 152 v 96 c 0,10 1,21 10,27 z"
       fill="currentColor"
       id="path2836" />
  </g>
  <g
     transform="translate(76.0037,3.7790054)"
     id="g2842">
    <rect
       x="-0.064999998"
       y="2.1861"
       width="0.13"
       height="3.1168001"
       ry="0.039999999"
       fill="currentColor"
       id="rect2840" />
  </g>
  <g
     transform="translate(50.2944,7.2790054)"
     id="g2846">
    <path
       transform="scale(0.004,-0.004)"
       d="m 218,136 c 55,0 108,-28 108,-89 0,-71 -55,-121 -102,-149 -35,-21 -75,-34 -116,-34 -55,0 -108,28 -108,89 0,71 55,121 102,149 35,21 75,34 116,34 z"
       fill="currentColor"
       id="path2844" />
  </g>
  <g
     transform="translate(59.9428,5.7790054)"
     id="g2850">
    <path
       transform="scale(0.004,-0.004)"
       d="m 314,65 c 0,24 -21,41 -42,41 -4,0 -8,0 -12,-1 C 229,96 182,65 145,41 108,17 61,-12 41,-37 34,-45 31,-55 31,-65 c 0,-24 21,-41 42,-41 4,0 8,0 12,1 31,9 77,40 114,64 37,24 84,53 104,78 7,8 11,18 11,28 z m -52,71 c 46,0 82,-21 82,-71 0,-19 -4,-39 -10,-57 -12,-37 -32,-72 -64,-94 -53,-36 -113,-50 -187,-50 -46,0 -83,21 -83,71 0,19 5,39 11,57 12,37 31,72 63,94 53,36 114,50 188,50 z"
       fill="currentColor"
       id="path2848" />
  </g>
  <g
     transform="translate(8.6047,3.7790054)"
     id="g2854">
    <path
       stroke-width="0.08"
       stroke-linejoin="round"
       stroke-linecap="round"
       stroke="currentColor"
       fill="currentColor"
       d="m 0.0948,7.2355 c 2.6626,1.5883 19.2746,0.4466 21.6948,-1.491 v 0 C 19.3612,7.5623 2.7492,8.7041 0.0948,7.2355 Z"
       id="path2852" />
  </g>
  <g
     transform="translate(50.5197,12.997105)"
     id="g2858">
    <path
       transform="scale(0.0022,-0.0022)"
       d="m 129,149 h 7 c 36,0 74,-13 111,-40 19,-14 40,-21 59,-21 22,0 40,10 46,31 2,7 7,11 13,11 7,0 15,-5 15,-14 v -5 C 361,40 296,0 234,0 196,0 159,15 133,47 121,62 105,69 89,69 60,69 32,48 29,13 28,4 22,0 15,0 8,0 0,5 0,14 c 0,173 233,163 233,341 0,56 -14,116 -62,116 -33,0 -66,-15 -66,-44 0,-24 31,-37 31,-61 0,-34 -27,-61 -61,-61 -34,0 -61,27 -61,61 0,78 74,134 157,134 98,0 191,-55 191,-145 C 362,211 227,199 129,149 Z"
       fill="currentColor"
       id="path2856" />
  </g>
  <g
     transform="translate(50.3594,3.7790054)"
     id="g2862">
    <rect
       x="-0.064999998"
       y="3.6861"
       width="0.13"
       height="2.5109999"
       ry="0.039999999"
       fill="currentColor"
       id="rect2860" />
  </g>
  <g
     transform="translate(54.2933,7.7790054)"
     id="g2866">
    <path
       transform="scale(0.004,-0.004)"
       d="m 218,136 c 55,0 108,-28 108,-89 0,-71 -55,-121 -102,-149 -35,-21 -75,-34 -116,-34 -55,0 -108,28 -108,89 0,71 55,121 102,149 35,21 75,34 116,34 z"
       fill="currentColor"
       id="path2864" />
  </g>
  <g
     transform="translate(54.5528,12.175005)"
     id="g2870">
    <path
       transform="scale(0.0022,-0.0022)"
       d="M 129,129 H 259 C 259,77 291,29 340,29 350,29 354,21 354,14 354,7 350,0 340,0 291,0 243,14 194,14 145,14 98,0 49,0 39,0 34,7 34,14 c 0,7 5,15 15,15 49,0 80,48 80,100 z M 0,250 129,500 c 3,7 13,3 21,0 14,-6 28,-14 44,-14 16,0 31,8 45,14 2,1 2,1 4,1 8,0 16,-9 16,-21 V 129 H 129 v 215 c 0,15 -11,23 -20,23 -5,0 -9,-2 -11,-7 L 32,233 c -4,-7 -9,-9 -15,-9 -9,0 -19,7 -19,17 0,3 0,6 2,9 z"
       fill="currentColor"
       id="path2868" />
  </g>
  <g
     transform="translate(54.3583,3.7790054)"
     id="g2874">
    <rect
       x="-0.064999998"
       y="4.1861"
       width="0.13"
       height="2.309"
       ry="0.039999999"
       fill="currentColor"
       id="rect2872" />
  </g>
  <g
     transform="translate(59.9428,7.7790054)"
     id="g2878">
    <path
       transform="scale(0.004,-0.004)"
       d="m 218,136 c 55,0 108,-28 108,-89 0,-71 -55,-121 -102,-149 -35,-21 -75,-34 -116,-34 -55,0 -108,28 -108,89 0,71 55,121 102,149 35,21 75,34 116,34 z"
       fill="currentColor"
       id="path2876" />
  </g>
  <g
     transform="translate(61.7702,5.2790054)"
     id="g2882">
    <path
       transform="scale(0.004,-0.004)"
       d="M 0,0 C 0,31 25,56 56,56 87,56 112,31 112,0 112,-31 87,-56 56,-56 25,-56 0,-31 0,0 Z"
       fill="currentColor"
       id="path2880" />
  </g>
  <g
     transform="translate(61.2552,3.7790054)"
     id="g2886">
    <rect
       x="-0.064999998"
       y="-1.5"
       width="0.13"
       height="3.2409999"
       ry="0.039999999"
       fill="currentColor"
       id="rect2884" />
  </g>
  <g
     transform="translate(60.0078,3.7790054)"
     id="g2890">
    <rect
       x="-0.064999998"
       y="4.1861"
       width="0.13"
       height="2.309"
       ry="0.039999999"
       fill="currentColor"
       id="rect2888" />
  </g>
  <g
     transform="translate(95.9335,6.7790054)"
     id="g2894">
    <path
       transform="scale(0.004,-0.004)"
       d="m 218,136 c 55,0 108,-28 108,-89 0,-71 -55,-121 -102,-149 -35,-21 -75,-34 -116,-34 -55,0 -108,28 -108,89 0,71 55,121 102,149 35,21 75,34 116,34 z"
       fill="currentColor"
       id="path2892" />
  </g>
  <g
     transform="translate(95.9985,3.7790054)"
     id="g2898">
    <rect
       x="-0.064999998"
       y="3.1861"
       width="0.13"
       height="2.7128999"
       ry="0.039999999"
       fill="currentColor"
       id="rect2896" />
  </g>
  <g
     transform="translate(99.9325,7.2790054)"
     id="g2902">
    <path
       transform="scale(0.004,-0.004)"
       d="m 218,136 c 55,0 108,-28 108,-89 0,-71 -55,-121 -102,-149 -35,-21 -75,-34 -116,-34 -55,0 -108,28 -108,89 0,71 55,121 102,149 35,21 75,34 116,34 z"
       fill="currentColor"
       id="path2900" />
  </g>
  <g
     transform="translate(99.9975,3.7790054)"
     id="g2906">
    <rect
       x="-0.064999998"
       y="3.6861"
       width="0.13"
       height="2.5109999"
       ry="0.039999999"
       fill="currentColor"
       id="rect2904" />
  </g>
  <g
     transform="translate(91.9996,3.7790054)"
     id="g2910">
    <rect
       x="-0.064999998"
       y="2.6861"
       width="0.13"
       height="2.9149001"
       ry="0.039999999"
       fill="currentColor"
       id="rect2908" />
  </g>
  <g
     transform="translate(103.9315,7.7790054)"
     id="g2914">
    <path
       transform="scale(0.004,-0.004)"
       d="m 218,136 c 55,0 108,-28 108,-89 0,-71 -55,-121 -102,-149 -35,-21 -75,-34 -116,-34 -55,0 -108,28 -108,89 0,71 55,121 102,149 35,21 75,34 116,34 z"
       fill="currentColor"
       id="path2912" />
  </g>
  <g
     transform="translate(103.9965,3.7790054)"
     id="g2918">
    <rect
       x="-0.064999998"
       y="4.1861"
       width="0.13"
       height="2.309"
       ry="0.039999999"
       fill="currentColor"
       id="rect2916" />
  </g>
  <g
     transform="translate(83.9366,8.7790054)"
     id="g2922">
    <polygon
       stroke-linejoin="round"
       stroke-linecap="round"
       stroke-width="0.08"
       fill="currentColor"
       stroke="currentColor"
       points="20.0848,1.3 20.0848,1.7 0.04,0.2 0.04,-0.2 "
       id="polygon2920" />
  </g>
  <g
     transform="translate(59.9428,10.279005)"
     id="g2926">
    <polygon
       stroke-linejoin="round"
       stroke-linecap="round"
       stroke-width="0.08"
       fill="currentColor"
       stroke="currentColor"
       points="20.0848,-1.7 20.0848,-1.3 0.04,0.2 0.04,-0.2 "
       id="polygon2924" />
  </g>
  <g
     transform="translate(83.9366,3.7790054)"
     id="g2930">
    <path
       stroke-width="0.08"
       stroke-linejoin="round"
       stroke-linecap="round"
       stroke="currentColor"
       fill="currentColor"
       d="M 0.0327,5.7448 C 2.3678,7.667 17.4333,8.7899 20.0275,7.2352 v 0 C 17.4422,8.6702 2.3767,7.5473 0.0327,5.7448 Z"
       id="path2928" />
  </g>
  <g
     transform="translate(59.9428,3.7790054)"
     id="g2934">
    <path
       stroke-width="0.08"
       stroke-linejoin="round"
       stroke-linecap="round"
       stroke="currentColor"
       fill="currentColor"
       d="M 0.0973,7.2352 C 2.6916,8.7899 17.7571,7.667 20.0921,5.7448 v 0 C 17.7481,7.5473 2.6826,8.6702 0.0973,7.2352 Z"
       id="path2932" />
  </g>
  <g
     transform="translate(34.2985,8.7790054)"
     id="g2938">
    <polygon
       stroke-linejoin="round"
       stroke-linecap="round"
       stroke-width="0.08"
       fill="currentColor"
       stroke="currentColor"
       points="20.0848,1.3 20.0848,1.7 0.04,0.2 0.04,-0.2 "
       id="polygon2936" />
  </g>
  <g
     transform="translate(8.6047,10.279005)"
     id="g2942">
    <polygon
       stroke-linejoin="round"
       stroke-linecap="round"
       stroke-width="0.08"
       fill="currentColor"
       stroke="currentColor"
       points="21.7848,-1.7 21.7848,-1.3 0.04,0.2 0.04,-0.2 "
       id="polygon2940" />
  </g>
  <g
     transform="translate(34.2985,3.7790054)"
     id="g2946">
    <path
       stroke-width="0.08"
       stroke-linejoin="round"
       stroke-linecap="round"
       stroke="currentColor"
       fill="currentColor"
       d="M 0.0327,5.7448 C 2.3678,7.667 17.4333,8.7899 20.0275,7.2352 v 0 C 17.4422,8.6702 2.3767,7.5473 0.0327,5.7448 Z"
       id="path2944" />
  </g>
  <g
     transform="translate(79.9377,5.2790054)"
     id="g2950">
    <path
       transform="scale(0.004,-0.004)"
       d="m 218,136 c 55,0 108,-28 108,-89 0,-71 -55,-121 -102,-149 -35,-21 -75,-34 -116,-34 -55,0 -108,28 -108,89 0,71 55,121 102,149 35,21 75,34 116,34 z"
       fill="currentColor"
       id="path2948" />
  </g>
  <g
     transform="translate(80.1288,10.650605)"
     id="g2954">
    <path
       transform="scale(0.0022,-0.0022)"
       d="m 198,284 c 24,15 48,29 65,52 12,16 19,34 28,52 2,5 6,7 11,7 8,0 16,-6 16,-17 V 161 h 79 c 12,0 18,-9 18,-18 0,-9 -6,-18 -18,-18 h -79 c 2,-51 33,-96 80,-96 10,0 15,-8 15,-15 C 413,7 408,0 398,0 349,0 302,14 253,14 204,14 156,0 107,0 97,0 93,7 93,14 c 0,7 4,15 14,15 47,0 79,45 81,96 H 36 c -29,0 -38,17 -38,28 0,3 1,6 2,8 78,88 123,201 123,319 0,11 8,21 17,21 1,0 3,-1 4,-1 25,-7 50,-14 76,-14 26,0 52,7 77,14 2,1 4,1 6,1 10,0 17,-7 17,-14 0,-2 0,-5 -2,-7 L 36,161 h 152 v 96 c 0,10 1,21 10,27 z"
       fill="currentColor"
       id="path2952" />
  </g>
  <g
     transform="translate(80.0027,3.7790054)"
     id="g2958">
    <rect
       x="-0.064999998"
       y="1.6861"
       width="0.13"
       height="3.3187001"
       ry="0.039999999"
       fill="currentColor"
       id="rect2956" />
  </g>
  <g
     transform="translate(84.98,5.7790054)"
     id="g2962">
    <path
       transform="scale(0.004,-0.004)"
       d="m 314,65 c 0,24 -21,41 -42,41 -4,0 -8,0 -12,-1 C 229,96 182,65 145,41 108,17 61,-12 41,-37 34,-45 31,-55 31,-65 c 0,-24 21,-41 42,-41 4,0 8,0 12,1 31,9 77,40 114,64 37,24 84,53 104,78 7,8 11,18 11,28 z m -52,71 c 46,0 82,-21 82,-71 0,-19 -4,-39 -10,-57 -12,-37 -32,-72 -64,-94 -53,-36 -113,-50 -187,-50 -46,0 -83,21 -83,71 0,19 5,39 11,57 12,37 31,72 63,94 53,36 114,50 188,50 z"
       fill="currentColor"
       id="path2960" />
  </g>
  <g
     transform="translate(83.9366,5.2790054)"
     id="g2966">
    <path
       transform="scale(0.004,-0.004)"
       d="m 218,136 c 55,0 108,-28 108,-89 0,-71 -55,-121 -102,-149 -35,-21 -75,-34 -116,-34 -55,0 -108,28 -108,89 0,71 55,121 102,149 35,21 75,34 116,34 z"
       fill="currentColor"
       id="path2964" />
  </g>
  <g
     transform="translate(86.8073,5.2790054)"
     id="g2970">
    <path
       transform="scale(0.004,-0.004)"
       d="M 0,0 C 0,31 25,56 56,56 87,56 112,31 112,0 112,-31 87,-56 56,-56 25,-56 0,-31 0,0 Z"
       fill="currentColor"
       id="path2968" />
  </g>
  <g
     transform="translate(86.2923,3.7790054)"
     id="g2974">
    <rect
       x="-0.064999998"
       y="-1.5"
       width="0.13"
       height="3.2409999"
       ry="0.039999999"
       fill="currentColor"
       id="rect2972" />
  </g>
  <g
     transform="translate(84.0016,3.7790054)"
     id="g2978">
    <rect
       x="-0.064999998"
       y="1.6861"
       width="0.13"
       height="3.3187001"
       ry="0.039999999"
       fill="currentColor"
       id="rect2976" />
  </g>
  <g
     transform="translate(87.9356,5.7790054)"
     id="g2982">
    <path
       transform="scale(0.004,-0.004)"
       d="m 218,136 c 55,0 108,-28 108,-89 0,-71 -55,-121 -102,-149 -35,-21 -75,-34 -116,-34 -55,0 -108,28 -108,89 0,71 55,121 102,149 35,21 75,34 116,34 z"
       fill="currentColor"
       id="path2980" />
  </g>
  <g
     transform="translate(88.0006,3.7790054)"
     id="g2986">
    <rect
       x="-0.064999998"
       y="2.1861"
       width="0.13"
       height="3.1168001"
       ry="0.039999999"
       fill="currentColor"
       id="rect2984" />
  </g>
  <g
     transform="translate(91.9346,6.2790054)"
     id="g2990">
    <path
       transform="scale(0.004,-0.004)"
       d="m 218,136 c 55,0 108,-28 108,-89 0,-71 -55,-121 -102,-149 -35,-21 -75,-34 -116,-34 -55,0 -108,28 -108,89 0,71 55,121 102,149 35,21 75,34 116,34 z"
       fill="currentColor"
       id="path2988" />
  </g>
  <g
     transform="translate(17.4526,6.7790054)"
     id="g2994">
    <path
       transform="scale(0.004,-0.004)"
       d="m 218,136 c 55,0 108,-28 108,-89 0,-71 -55,-121 -102,-149 -35,-21 -75,-34 -116,-34 -55,0 -108,28 -108,89 0,71 55,121 102,149 35,21 75,34 116,34 z"
       fill="currentColor"
       id="path2992" />
  </g>
  <g
     transform="translate(17.7121,12.982005)"
     id="g2998">
    <path
       transform="scale(0.0022,-0.0022)"
       d="m 155,471 c -34,0 -70,-8 -70,-38 0,-19 31,-23 31,-42 0,-28 -23,-51 -51,-51 -28,0 -51,23 -51,51 0,67 68,109 141,109 93,0 174,-31 174,-113 0,-41 -6,-77 -42,-94 -11,-5 -17,-16 -17,-27 0,-11 6,-22 17,-27 40,-19 59,-53 59,-98 C 346,47 263,0 160,0 78,0 0,45 0,119 c 0,32 26,58 58,58 32,0 58,-26 58,-58 0,-22 -36,-26 -36,-48 0,-33 42,-42 80,-42 46,0 56,58 56,112 v 38 c 0,40 -4,69 -43,69 H 99 c -12,0 -18,9 -18,18 0,9 6,18 18,18 h 74 c 40,0 43,31 43,73 v 30 c 0,50 -16,84 -61,84 z"
       fill="currentColor"
       id="path2996" />
  </g>
  <g
     transform="translate(17.5176,3.7790054)"
     id="g3002">
    <rect
       x="-0.064999998"
       y="3.1861"
       width="0.13"
       height="2.7012999"
       ry="0.039999999"
       fill="currentColor"
       id="rect3000" />
  </g>
  <g
     transform="translate(16.0026,6.7790054)"
     id="g3006">
    <path
       transform="scale(0.004,-0.004)"
       d="m 216,-312 c 0,-10 -8,-19 -18,-19 -10,0 -19,9 -19,19 v 145 l -83,-31 v -158 c 0,-10 -9,-19 -19,-19 -10,0 -18,9 -18,19 v 145 l -32,-12 c -2,-1 -5,-1 -7,-1 -11,0 -20,9 -20,20 v 60 c 0,8 5,16 13,19 l 46,16 V 51 L 27,40 C 25,39 22,39 20,39 9,39 0,48 0,59 v 60 c 0,8 5,15 13,18 l 46,17 v 158 c 0,10 8,19 18,19 10,0 19,-9 19,-19 V 167 l 83,31 v 158 c 0,10 9,19 19,19 10,0 18,-9 18,-19 V 211 l 32,12 c 2,1 5,1 7,1 11,0 20,-9 20,-20 v -60 c 0,-8 -5,-16 -13,-19 L 216,109 V -51 l 32,11 c 2,1 5,1 7,1 11,0 20,-9 20,-20 v -60 c 0,-8 -5,-15 -13,-18 l -46,-17 z M 96,65 V -95 l 83,30 V 95 Z"
       fill="currentColor"
       id="path3004" />
  </g>
  <g
     transform="translate(12.6687,3.7790054)"
     id="g3010">
    <rect
       x="-0.064999998"
       y="3.6861"
       width="0.13"
       height="2.5346"
       ry="0.039999999"
       fill="currentColor"
       id="rect3008" />
  </g>
  <g
     transform="translate(21.4516,6.2790054)"
     id="g3014">
    <path
       transform="scale(0.004,-0.004)"
       d="m 218,136 c 55,0 108,-28 108,-89 0,-71 -55,-121 -102,-149 -35,-21 -75,-34 -116,-34 -55,0 -108,28 -108,89 0,71 55,121 102,149 35,21 75,34 116,34 z"
       fill="currentColor"
       id="path3012" />
  </g>
  <g
     transform="translate(21.711,12.703205)"
     id="g3018">
    <path
       transform="scale(0.0022,-0.0022)"
       d="m 155,471 c -34,0 -70,-8 -70,-38 0,-19 31,-23 31,-42 0,-28 -23,-51 -51,-51 -28,0 -51,23 -51,51 0,67 68,109 141,109 93,0 174,-31 174,-113 0,-41 -6,-77 -42,-94 -11,-5 -17,-16 -17,-27 0,-11 6,-22 17,-27 40,-19 59,-53 59,-98 C 346,47 263,0 160,0 78,0 0,45 0,119 c 0,32 26,58 58,58 32,0 58,-26 58,-58 0,-22 -36,-26 -36,-48 0,-33 42,-42 80,-42 46,0 56,58 56,112 v 38 c 0,40 -4,69 -43,69 H 99 c -12,0 -18,9 -18,18 0,9 6,18 18,18 h 74 c 40,0 43,31 43,73 v 30 c 0,50 -16,84 -61,84 z"
       fill="currentColor"
       id="path3016" />
  </g>
  <g
     transform="translate(21.5166,3.7790054)"
     id="g3022">
    <rect
       x="-0.064999998"
       y="2.6861"
       width="0.13"
       height="2.9265001"
       ry="0.039999999"
       fill="currentColor"
       id="rect3020" />
  </g>
  <g
     transform="translate(25.4506,5.7790054)"
     id="g3026">
    <path
       transform="scale(0.004,-0.004)"
       d="m 218,136 c 55,0 108,-28 108,-89 0,-71 -55,-121 -102,-149 -35,-21 -75,-34 -116,-34 -55,0 -108,28 -108,89 0,71 55,121 102,149 35,21 75,34 116,34 z"
       fill="currentColor"
       id="path3024" />
  </g>
  <g
     transform="translate(25.5156,3.7790054)"
     id="g3030">
    <rect
       x="-0.064999998"
       y="2.1861"
       width="0.13"
       height="3.1515999"
       ry="0.039999999"
       fill="currentColor"
       id="rect3028" />
  </g>
  <g
     transform="translate(8.6047,5.7790054)"
     id="g3034">
    <path
       transform="scale(0.004,-0.004)"
       d="m 314,65 c 0,24 -21,41 -42,41 -4,0 -8,0 -12,-1 C 229,96 182,65 145,41 108,17 61,-12 41,-37 34,-45 31,-55 31,-65 c 0,-24 21,-41 42,-41 4,0 8,0 12,1 31,9 77,40 114,64 37,24 84,53 104,78 7,8 11,18 11,28 z m -52,71 c 46,0 82,-21 82,-71 0,-19 -4,-39 -10,-57 -12,-37 -32,-72 -64,-94 -53,-36 -113,-50 -187,-50 -46,0 -83,21 -83,71 0,19 5,39 11,57 12,37 31,72 63,94 53,36 114,50 188,50 z"
       fill="currentColor"
       id="path3032" />
  </g>
  <g
     transform="translate(8.6047,7.7790054)"
     id="g3038">
    <path
       transform="scale(0.004,-0.004)"
       d="m 218,136 c 55,0 108,-28 108,-89 0,-71 -55,-121 -102,-149 -35,-21 -75,-34 -116,-34 -55,0 -108,28 -108,89 0,71 55,121 102,149 35,21 75,34 116,34 z"
       fill="currentColor"
       id="path3036" />
  </g>
  <g
     transform="translate(8.8641,12.705505)"
     id="g3042">
    <path
       transform="scale(0.0022,-0.0022)"
       d="M 129,129 H 259 C 259,77 291,29 340,29 350,29 354,21 354,14 354,7 350,0 340,0 291,0 243,14 194,14 145,14 98,0 49,0 39,0 34,7 34,14 c 0,7 5,15 15,15 49,0 80,48 80,100 z M 0,250 129,500 c 3,7 13,3 21,0 14,-6 28,-14 44,-14 16,0 31,8 45,14 2,1 2,1 4,1 8,0 16,-9 16,-21 V 129 H 129 v 215 c 0,15 -11,23 -20,23 -5,0 -9,-2 -11,-7 L 32,233 c -4,-7 -9,-9 -15,-9 -9,0 -19,7 -19,17 0,3 0,6 2,9 z"
       fill="currentColor"
       id="path3040" />
  </g>
  <g
     transform="translate(0.80000003,4.7790054)"
     id="g3046">
    <path
       transform="scale(0.004,-0.004)"
       d="m 266,-635 h -6 c -108,0 -195,88 -195,197 0,58 53,103 112,103 54,0 95,-47 95,-103 0,-52 -43,-95 -95,-95 -11,0 -21,2 -31,6 26,-39 68,-65 117,-65 h 4 z m 195,432 c 68,24 113,95 113,164 0,90 -66,179 -173,190 24,-116 46,-231 60,-354 z M 74,28 c 0,-135 129,-247 264,-247 28,0 55,2 82,6 C 406,-86 383,32 357,151 278,143 233,90 233,32 c 0,-44 25,-91 81,-123 5,-5 7,-10 7,-15 0,-11 -10,-22 -22,-22 -3,0 -6,1 -9,2 -80,43 -117,115 -117,185 0,88 58,174 160,197 -14,58 -29,117 -46,175 C 180,310 74,188 74,28 Z M 335,-262 C 147,-262 2,-90 2,112 c 0,177 131,306 248,441 -19,62 -37,125 -45,190 -6,52 -7,104 -7,156 0,115 55,224 149,292 6,5 14,5 20,0 71,-84 133,-245 133,-358 0,-143 -86,-255 -180,-364 21,-68 39,-138 56,-207 4,0 9,1 13,1 155,0 256,-128 256,-261 0,-76 -33,-154 -107,-210 -22,-17 -47,-28 -73,-36 3,-35 5,-70 5,-105 0,-19 -1,-39 -2,-58 -7,-119 -88,-225 -202,-228 l 1,43 c 93,2 153,92 159,191 1,18 2,37 2,55 0,31 -1,61 -4,92 -29,-5 -58,-8 -89,-8 z m 93,1178 c 0,55 -4,79 -20,129 -99,-48 -162,-149 -162,-259 0,-74 18,-133 36,-194 80,97 146,198 146,324 z"
       fill="currentColor"
       id="path3044" />
  </g>
  <g
     transform="translate(5.1195,3.7790054)"
     id="g3050">
    <path
       transform="scale(0.004,-0.004)"
       d="m 170,256 c -51,0 -53,-44 -53,-102 v -14 -15 c 0,-58 2,-102 53,-102 57,0 61,51 61,117 0,66 -4,116 -61,116 z m -53,10 c 17,7 34,13 53,13 101,0 170,-44 170,-139 C 340,45 271,0 170,0 58,0 0,124 0,250 c 0,128 72,250 190,250 71,0 138,-39 138,-103 0,-36 -29,-66 -65,-66 -36,0 -66,30 -66,66 0,24 39,25 39,49 0,20 -23,31 -46,31 -66,0 -75,-65 -75,-139 0,-24 2,-48 2,-72 z"
       fill="currentColor"
       id="path3048" />
  </g>
  <g
     transform="translate(5,5.7935054)"
     id="g3054">
    <path
       transform="scale(0.004,-0.004)"
       d="m 196,117 h 117 c 0,-48 27,-94 72,-94 8,0 12,-5 12,-11 C 397,6 393,0 385,0 341,0 298,13 254,13 210,13 167,0 123,0 c -8,0 -12,6 -12,12 0,6 4,11 12,11 45,0 73,46 73,94 z m 8,190 c 22,14 44,29 60,50 11,15 19,33 27,50 2,4 5,6 9,6 6,0 13,-5 13,-14 V 154 h 72 c 10,0 15,-7 15,-14 0,-7 -5,-15 -15,-15 h -72 v -8 H 196 v 8 H 29 c -23,0 -31,14 -31,23 0,3 1,5 2,6 80,93 138,207 138,330 0,10 7,19 16,16 23,-7 47,-13 71,-13 24,0 48,6 71,13 14,4 23,-9 17,-16 L 29,154 h 167 v 131 c 0,8 1,17 8,22 z"
       fill="currentColor"
       id="path3052" />
  </g>
  <g
     transform="translate(10.432,5.2790054)"
     id="g3058">
    <path
       transform="scale(0.004,-0.004)"
       d="M 0,0 C 0,31 25,56 56,56 87,56 112,31 112,0 112,-31 87,-56 56,-56 25,-56 0,-31 0,0 Z"
       fill="currentColor"
       id="path3056" />
  </g>
  <g
     transform="translate(9.917,3.7790054)"
     id="g3062">
    <rect
       x="-0.064999998"
       y="-1.5"
       width="0.13"
       height="3.2409999"
       ry="0.039999999"
       fill="currentColor"
       id="rect3060" />
  </g>
  <g
     transform="translate(8.6697,3.7790054)"
     id="g3066">
    <rect
       x="-0.064999998"
       y="4.1861"
       width="0.13"
       height="2.3094001"
       ry="0.039999999"
       fill="currentColor"
       id="rect3064" />
  </g>
  <g
     transform="translate(25.6417,12.211405)"
     id="g3070">
    <path
       transform="scale(0.0022,-0.0022)"
       d="m 198,284 c 24,15 48,29 65,52 12,16 19,34 28,52 2,5 6,7 11,7 8,0 16,-6 16,-17 V 161 h 79 c 12,0 18,-9 18,-18 0,-9 -6,-18 -18,-18 h -79 c 2,-51 33,-96 80,-96 10,0 15,-8 15,-15 C 413,7 408,0 398,0 349,0 302,14 253,14 204,14 156,0 107,0 97,0 93,7 93,14 c 0,7 4,15 14,15 47,0 79,45 81,96 H 36 c -29,0 -38,17 -38,28 0,3 1,6 2,8 78,88 123,201 123,319 0,11 8,21 17,21 1,0 3,-1 4,-1 25,-7 50,-14 76,-14 26,0 52,7 77,14 2,1 4,1 6,1 10,0 17,-7 17,-14 0,-2 0,-5 -2,-7 L 36,161 h 152 v 96 c 0,10 1,21 10,27 z"
       fill="currentColor"
       id="path3068" />
  </g>
  <g
     transform="translate(12.6037,7.2790054)"
     id="g3074">
    <path
       transform="scale(0.004,-0.004)"
       d="m 218,136 c 55,0 108,-28 108,-89 0,-71 -55,-121 -102,-149 -35,-21 -75,-34 -116,-34 -55,0 -108,28 -108,89 0,71 55,121 102,149 35,21 75,34 116,34 z"
       fill="currentColor"
       id="path3072" />
  </g>
  <g
     transform="translate(12.829,13.041405)"
     id="g3078">
    <path
       transform="scale(0.0022,-0.0022)"
       d="m 129,149 h 7 c 36,0 74,-13 111,-40 19,-14 40,-21 59,-21 22,0 40,10 46,31 2,7 7,11 13,11 7,0 15,-5 15,-14 v -5 C 361,40 296,0 234,0 196,0 159,15 133,47 121,62 105,69 89,69 60,69 32,48 29,13 28,4 22,0 15,0 8,0 0,5 0,14 c 0,173 233,163 233,341 0,56 -14,116 -62,116 -33,0 -66,-15 -66,-44 0,-24 31,-37 31,-61 0,-34 -27,-61 -61,-61 -34,0 -61,27 -61,61 0,78 74,134 157,134 98,0 191,-55 191,-145 C 362,211 227,199 129,149 Z"
       fill="currentColor"
       id="path3076" />
  </g>
  <g
     transform="translate(36.6542,3.7790054)"
     id="g3082">
    <rect
       x="-0.064999998"
       y="-1.5"
       width="0.13"
       height="3.2409999"
       ry="0.039999999"
       fill="currentColor"
       id="rect3080" />
  </g>
  <g
     transform="translate(34.3635,3.7790054)"
     id="g3086">
    <rect
       x="-0.064999998"
       y="1.6861"
       width="0.13"
       height="3.3187001"
       ry="0.039999999"
       fill="currentColor"
       id="rect3084" />
  </g>
  <g
     transform="translate(38.2975,5.7790054)"
     id="g3090">
    <path
       transform="scale(0.004,-0.004)"
       d="m 218,136 c 55,0 108,-28 108,-89 0,-71 -55,-121 -102,-149 -35,-21 -75,-34 -116,-34 -55,0 -108,28 -108,89 0,71 55,121 102,149 35,21 75,34 116,34 z"
       fill="currentColor"
       id="path3088" />
  </g>
  <g
     transform="translate(38.4886,12.311105)"
     id="g3094">
    <path
       transform="scale(0.0022,-0.0022)"
       d="m 198,284 c 24,15 48,29 65,52 12,16 19,34 28,52 2,5 6,7 11,7 8,0 16,-6 16,-17 V 161 h 79 c 12,0 18,-9 18,-18 0,-9 -6,-18 -18,-18 h -79 c 2,-51 33,-96 80,-96 10,0 15,-8 15,-15 C 413,7 408,0 398,0 349,0 302,14 253,14 204,14 156,0 107,0 97,0 93,7 93,14 c 0,7 4,15 14,15 47,0 79,45 81,96 H 36 c -29,0 -38,17 -38,28 0,3 1,6 2,8 78,88 123,201 123,319 0,11 8,21 17,21 1,0 3,-1 4,-1 25,-7 50,-14 76,-14 26,0 52,7 77,14 2,1 4,1 6,1 10,0 17,-7 17,-14 0,-2 0,-5 -2,-7 L 36,161 h 152 v 96 c 0,10 1,21 10,27 z"
       fill="currentColor"
       id="path3092" />
  </g>
  <g
     transform="translate(38.3625,3.7790054)"
     id="g3098">
    <rect
       x="-0.064999998"
       y="2.1861"
       width="0.13"
       height="3.1168001"
       ry="0.039999999"
       fill="currentColor"
       id="rect3096" />
  </g>
  <g
     transform="translate(42.3614,3.7790054)"
     id="g3102">
    <rect
       x="-0.064999998"
       y="2.6861"
       width="0.13"
       height="2.9149001"
       ry="0.039999999"
       fill="currentColor"
       id="rect3100" />
  </g>
  <g
     transform="translate(42.2964,6.2790054)"
     id="g3106">
    <path
       transform="scale(0.004,-0.004)"
       d="m 218,136 c 55,0 108,-28 108,-89 0,-71 -55,-121 -102,-149 -35,-21 -75,-34 -116,-34 -55,0 -108,28 -108,89 0,71 55,121 102,149 35,21 75,34 116,34 z"
       fill="currentColor"
       id="path3104" />
  </g>
  <g
     transform="translate(42.5559,12.782205)"
     id="g3110">
    <path
       transform="scale(0.0022,-0.0022)"
       d="m 155,471 c -34,0 -70,-8 -70,-38 0,-19 31,-23 31,-42 0,-28 -23,-51 -51,-51 -28,0 -51,23 -51,51 0,67 68,109 141,109 93,0 174,-31 174,-113 0,-41 -6,-77 -42,-94 -11,-5 -17,-16 -17,-27 0,-11 6,-22 17,-27 40,-19 59,-53 59,-98 C 346,47 263,0 160,0 78,0 0,45 0,119 c 0,32 26,58 58,58 32,0 58,-26 58,-58 0,-22 -36,-26 -36,-48 0,-33 42,-42 80,-42 46,0 56,58 56,112 v 38 c 0,40 -4,69 -43,69 H 99 c -12,0 -18,9 -18,18 0,9 6,18 18,18 h 74 c 40,0 43,31 43,73 v 30 c 0,50 -16,84 -61,84 z"
       fill="currentColor"
       id="path3108" />
  </g>
  <g
     transform="translate(30.3645,3.7790054)"
     id="g3114">
    <rect
       x="-0.064999998"
       y="1.6861"
       width="0.13"
       height="3.3183999"
       ry="0.039999999"
       fill="currentColor"
       id="rect3112" />
  </g>
  <g
     transform="translate(30.4907,10.650205)"
     id="g3118">
    <path
       transform="scale(0.0022,-0.0022)"
       d="m 198,284 c 24,15 48,29 65,52 12,16 19,34 28,52 2,5 6,7 11,7 8,0 16,-6 16,-17 V 161 h 79 c 12,0 18,-9 18,-18 0,-9 -6,-18 -18,-18 h -79 c 2,-51 33,-96 80,-96 10,0 15,-8 15,-15 C 413,7 408,0 398,0 349,0 302,14 253,14 204,14 156,0 107,0 97,0 93,7 93,14 c 0,7 4,15 14,15 47,0 79,45 81,96 H 36 c -29,0 -38,17 -38,28 0,3 1,6 2,8 78,88 123,201 123,319 0,11 8,21 17,21 1,0 3,-1 4,-1 25,-7 50,-14 76,-14 26,0 52,7 77,14 2,1 4,1 6,1 10,0 17,-7 17,-14 0,-2 0,-5 -2,-7 L 36,161 h 152 v 96 c 0,10 1,21 10,27 z"
       fill="currentColor"
       id="path3116" />
  </g>
  <g
     transform="translate(30.2995,5.2790054)"
     id="g3122">
    <path
       transform="scale(0.004,-0.004)"
       d="m 218,136 c 55,0 108,-28 108,-89 0,-71 -55,-121 -102,-149 -35,-21 -75,-34 -116,-34 -55,0 -108,28 -108,89 0,71 55,121 102,149 35,21 75,34 116,34 z"
       fill="currentColor"
       id="path3120" />
  </g>
  <g
     transform="translate(46.2954,6.7790054)"
     id="g3126">
    <path
       transform="scale(0.004,-0.004)"
       d="m 218,136 c 55,0 108,-28 108,-89 0,-71 -55,-121 -102,-149 -35,-21 -75,-34 -116,-34 -55,0 -108,28 -108,89 0,71 55,121 102,149 35,21 75,34 116,34 z"
       fill="currentColor"
       id="path3124" />
  </g>
  <g
     transform="translate(28.8495,5.2790054)"
     id="g3130">
    <path
       transform="scale(0.004,-0.004)"
       d="m 216,-312 c 0,-10 -8,-19 -18,-19 -10,0 -19,9 -19,19 v 145 l -83,-31 v -158 c 0,-10 -9,-19 -19,-19 -10,0 -18,9 -18,19 v 145 l -32,-12 c -2,-1 -5,-1 -7,-1 -11,0 -20,9 -20,20 v 60 c 0,8 5,16 13,19 l 46,16 V 51 L 27,40 C 25,39 22,39 20,39 9,39 0,48 0,59 v 60 c 0,8 5,15 13,18 l 46,17 v 158 c 0,10 8,19 18,19 10,0 19,-9 19,-19 V 167 l 83,31 v 158 c 0,10 9,19 19,19 10,0 18,-9 18,-19 V 211 l 32,12 c 2,1 5,1 7,1 11,0 20,-9 20,-20 v -60 c 0,-8 -5,-16 -13,-19 L 216,109 V -51 l 32,11 c 2,1 5,1 7,1 11,0 20,-9 20,-20 v -60 c 0,-8 -5,-15 -13,-18 l -46,-17 z M 96,65 V -95 l 83,30 V 95 Z"
       fill="currentColor"
       id="path3128" />
  </g>
  <g
     transform="translate(46.3604,3.7790054)"
     id="g3134">
    <rect
       x="-0.064999998"
       y="3.1861"
       width="0.13"
       height="2.7128999"
       ry="0.039999999"
       fill="currentColor"
       id="rect3132" />
  </g>
  <g
     transform="translate(46.5548,13.013805)"
     id="g3138">
    <path
       transform="scale(0.0022,-0.0022)"
       d="m 155,471 c -34,0 -70,-8 -70,-38 0,-19 31,-23 31,-42 0,-28 -23,-51 -51,-51 -28,0 -51,23 -51,51 0,67 68,109 141,109 93,0 174,-31 174,-113 0,-41 -6,-77 -42,-94 -11,-5 -17,-16 -17,-27 0,-11 6,-22 17,-27 40,-19 59,-53 59,-98 C 346,47 263,0 160,0 78,0 0,45 0,119 c 0,32 26,58 58,58 32,0 58,-26 58,-58 0,-22 -36,-26 -36,-48 0,-33 42,-42 80,-42 46,0 56,58 56,112 v 38 c 0,40 -4,69 -43,69 H 99 c -12,0 -18,9 -18,18 0,9 6,18 18,18 h 74 c 40,0 43,31 43,73 v 30 c 0,50 -16,84 -61,84 z"
       fill="currentColor"
       id="path3136" />
  </g>
  <g
     transform="translate(35.3419,5.7790054)"
     id="g3142">
    <path
       transform="scale(0.004,-0.004)"
       d="m 314,65 c 0,24 -21,41 -42,41 -4,0 -8,0 -12,-1 C 229,96 182,65 145,41 108,17 61,-12 41,-37 34,-45 31,-55 31,-65 c 0,-24 21,-41 42,-41 4,0 8,0 12,1 31,9 77,40 114,64 37,24 84,53 104,78 7,8 11,18 11,28 z m -52,71 c 46,0 82,-21 82,-71 0,-19 -4,-39 -10,-57 -12,-37 -32,-72 -64,-94 -53,-36 -113,-50 -187,-50 -46,0 -83,21 -83,71 0,19 5,39 11,57 12,37 31,72 63,94 53,36 114,50 188,50 z"
       fill="currentColor"
       id="path3140" />
  </g>
  <g
     transform="translate(34.2985,5.2790054)"
     id="g3146">
    <path
       transform="scale(0.004,-0.004)"
       d="m 218,136 c 55,0 108,-28 108,-89 0,-71 -55,-121 -102,-149 -35,-21 -75,-34 -116,-34 -55,0 -108,28 -108,89 0,71 55,121 102,149 35,21 75,34 116,34 z"
       fill="currentColor"
       id="path3144" />
  </g>
  <g
     transform="translate(34.4897,11.393205)"
     id="g3150">
    <path
       transform="scale(0.0022,-0.0022)"
       d="m 198,284 c 24,15 48,29 65,52 12,16 19,34 28,52 2,5 6,7 11,7 8,0 16,-6 16,-17 V 161 h 79 c 12,0 18,-9 18,-18 0,-9 -6,-18 -18,-18 h -79 c 2,-51 33,-96 80,-96 10,0 15,-8 15,-15 C 413,7 408,0 398,0 349,0 302,14 253,14 204,14 156,0 107,0 97,0 93,7 93,14 c 0,7 4,15 14,15 47,0 79,45 81,96 H 36 c -29,0 -38,17 -38,28 0,3 1,6 2,8 78,88 123,201 123,319 0,11 8,21 17,21 1,0 3,-1 4,-1 25,-7 50,-14 76,-14 26,0 52,7 77,14 2,1 4,1 6,1 10,0 17,-7 17,-14 0,-2 0,-5 -2,-7 L 36,161 h 152 v 96 c 0,10 1,21 10,27 z"
       fill="currentColor"
       id="path3148" />
  </g>
  <g
     transform="translate(37.1692,5.2790054)"
     id="g3154">
    <path
       transform="scale(0.004,-0.004)"
       d="M 0,0 C 0,31 25,56 56,56 87,56 112,31 112,0 112,-31 87,-56 56,-56 25,-56 0,-31 0,0 Z"
       fill="currentColor"
       id="path3152" />
  </g>
  <g
     transform="translate(3.1967416e-8,18.091405)"
     id="g3158">
    <line
       stroke-linejoin="round"
       stroke-linecap="round"
       stroke-width="0.1"
       stroke="currentColor"
       x1="0.050000001"
       y1="0"
       x2="108.0705"
       y2="0"
       id="line3156" />
  </g>
  <g
     transform="translate(3.1967416e-8,17.091405)"
     id="g3162">
    <line
       stroke-linejoin="round"
       stroke-linecap="round"
       stroke-width="0.1"
       stroke="currentColor"
       x1="0.050000001"
       y1="0"
       x2="108.0705"
       y2="0"
       id="line3160" />
  </g>
  <g
     transform="translate(3.1967416e-8,16.091405)"
     id="g3166">
    <line
       stroke-linejoin="round"
       stroke-linecap="round"
       stroke-width="0.1"
       stroke="currentColor"
       x1="0.050000001"
       y1="0"
       x2="108.0705"
       y2="0"
       id="line3164" />
  </g>
  <g
     transform="translate(3.1967416e-8,15.091405)"
     id="g3170">
    <line
       stroke-linejoin="round"
       stroke-linecap="round"
       stroke-width="0.1"
       stroke="currentColor"
       x1="0.050000001"
       y1="0"
       x2="108.0705"
       y2="0"
       id="line3168" />
  </g>
  <g
     transform="translate(3.1967416e-8,14.091405)"
     id="g3174">
    <line
       stroke-linejoin="round"
       stroke-linecap="round"
       stroke-width="0.1"
       stroke="currentColor"
       x1="0.050000001"
       y1="0"
       x2="108.0705"
       y2="0"
       id="line3172" />
  </g>
  <g
     transform="translate(107.9304,16.091405)"
     id="g3178">
    <rect
       x="0"
       y="-2"
       width="0.19"
       height="4"
       ry="0.0000"
       fill="currentColor"
       id="rect3176" />
  </g>
  <g
     transform="translate(55.538,16.091405)"
     id="g3182">
    <rect
       x="0"
       y="-2"
       width="0.19"
       height="4"
       ry="0.0000"
       fill="currentColor"
       id="rect3180" />
  </g>
  <g
     transform="translate(3.1967416e-8,19.091405)"
     id="g3186">
    <rect
       x="103.5154"
       y="-0.1"
       width="1.9563"
       height="0.2"
       ry="0.1"
       fill="currentColor"
       id="rect3184" />
  </g>
  <g
     transform="translate(3.1967416e-8,19.091405)"
     id="g3190">
    <rect
       x="99.426399"
       y="-0.1"
       width="1.9563"
       height="0.2"
       ry="0.1"
       fill="currentColor"
       id="rect3188" />
  </g>
  <g
     transform="translate(3.1967416e-8,19.091405)"
     id="g3194">
    <rect
       x="61.955299"
       y="-0.1"
       width="1.9563"
       height="0.2"
       ry="0.1"
       fill="currentColor"
       id="rect3192" />
  </g>
  <g
     transform="translate(3.1967416e-8,19.091405)"
     id="g3198">
    <rect
       x="58.017399"
       y="-0.1"
       width="1.8053"
       height="0.2"
       ry="0.1"
       fill="currentColor"
       id="rect3196" />
  </g>
  <g
     transform="translate(3.1967416e-8,19.091405)"
     id="g3202">
    <rect
       x="51.123001"
       y="-0.1"
       width="1.9563"
       height="0.2"
       ry="0.1"
       fill="currentColor"
       id="rect3200" />
  </g>
  <g
     transform="translate(3.1967416e-8,20.091405)"
     id="g3206">
    <rect
       x="51.123001"
       y="-0.1"
       width="1.9563"
       height="0.2"
       ry="0.1"
       fill="currentColor"
       id="rect3204" />
  </g>
  <g
     transform="translate(3.1967416e-8,19.091405)"
     id="g3210">
    <rect
       x="47.034"
       y="-0.1"
       width="1.9563"
       height="0.2"
       ry="0.1"
       fill="currentColor"
       id="rect3208" />
  </g>
  <g
     transform="translate(3.1967416e-8,19.091405)"
     id="g3214">
    <rect
       x="42.945"
       y="-0.1"
       width="1.9563"
       height="0.2"
       ry="0.1"
       fill="currentColor"
       id="rect3212" />
  </g>
  <g
     transform="translate(3.1967416e-8,19.091405)"
     id="g3218">
    <rect
       x="14.322"
       y="-0.1"
       width="1.9563"
       height="0.2"
       ry="0.1"
       fill="currentColor"
       id="rect3216" />
  </g>
  <g
     transform="translate(3.1967416e-8,19.091405)"
     id="g3222">
    <rect
       x="10.384"
       y="-0.1"
       width="1.8053"
       height="0.2"
       ry="0.1"
       fill="currentColor"
       id="rect3220" />
  </g>
  <g
     transform="translate(3.1967416e-8,19.091405)"
     id="g3226">
    <rect
       x="5.4738998"
       y="-0.1"
       width="1.9563"
       height="0.2"
       ry="0.1"
       fill="currentColor"
       id="rect3224" />
  </g>
  <g
     transform="translate(3.1967416e-8,20.091405)"
     id="g3230">
    <rect
       x="5.4738998"
       y="-0.1"
       width="1.9563"
       height="0.2"
       ry="0.1"
       fill="currentColor"
       id="rect3228" />
  </g>
  <g
     transform="translate(71.1944,16.091405)"
     id="g3234">
    <rect
       x="-0.064999998"
       y="2.1861"
       width="0.13"
       height="2.8959"
       ry="0.039999999"
       fill="currentColor"
       id="rect3232" />
  </g>
  <g
     transform="translate(71.3888,24.466005)"
     id="g3238">
    <path
       transform="scale(0.0022,-0.0022)"
       d="m 155,471 c -34,0 -70,-8 -70,-38 0,-19 31,-23 31,-42 0,-28 -23,-51 -51,-51 -28,0 -51,23 -51,51 0,67 68,109 141,109 93,0 174,-31 174,-113 0,-41 -6,-77 -42,-94 -11,-5 -17,-16 -17,-27 0,-11 6,-22 17,-27 40,-19 59,-53 59,-98 C 346,47 263,0 160,0 78,0 0,45 0,119 c 0,32 26,58 58,58 32,0 58,-26 58,-58 0,-22 -36,-26 -36,-48 0,-33 42,-42 80,-42 46,0 56,58 56,112 v 38 c 0,40 -4,69 -43,69 H 99 c -12,0 -18,9 -18,18 0,9 6,18 18,18 h 74 c 40,0 43,31 43,73 v 30 c 0,50 -16,84 -61,84 z"
       fill="currentColor"
       id="path3236" />
  </g>
  <g
     transform="translate(71.1294,18.091405)"
     id="g3242">
    <path
       transform="scale(0.004,-0.004)"
       d="m 218,136 c 55,0 108,-28 108,-89 0,-71 -55,-121 -102,-149 -35,-21 -75,-34 -116,-34 -55,0 -108,28 -108,89 0,71 55,121 102,149 35,21 75,34 116,34 z"
       fill="currentColor"
       id="path3240" />
  </g>
  <g
     transform="translate(66.4354,16.091405)"
     id="g3246">
    <rect
       x="-0.064999998"
       y="2.6861"
       width="0.13"
       height="2.7319"
       ry="0.039999999"
       fill="currentColor"
       id="rect3244" />
  </g>
  <g
     transform="translate(66.6298,24.807005)"
     id="g3250">
    <path
       transform="scale(0.0022,-0.0022)"
       d="m 155,471 c -34,0 -70,-8 -70,-38 0,-19 31,-23 31,-42 0,-28 -23,-51 -51,-51 -28,0 -51,23 -51,51 0,67 68,109 141,109 93,0 174,-31 174,-113 0,-41 -6,-77 -42,-94 -11,-5 -17,-16 -17,-27 0,-11 6,-22 17,-27 40,-19 59,-53 59,-98 C 346,47 263,0 160,0 78,0 0,45 0,119 c 0,32 26,58 58,58 32,0 58,-26 58,-58 0,-22 -36,-26 -36,-48 0,-33 42,-42 80,-42 46,0 56,58 56,112 v 38 c 0,40 -4,69 -43,69 H 99 c -12,0 -18,9 -18,18 0,9 6,18 18,18 h 74 c 40,0 43,31 43,73 v 30 c 0,50 -16,84 -61,84 z"
       fill="currentColor"
       id="path3248" />
  </g>
  <g
     transform="translate(66.3704,18.591405)"
     id="g3254">
    <path
       transform="scale(0.004,-0.004)"
       d="m 218,136 c 55,0 108,-28 108,-89 0,-71 -55,-121 -102,-149 -35,-21 -75,-34 -116,-34 -55,0 -108,28 -108,89 0,71 55,121 102,149 35,21 75,34 116,34 z"
       fill="currentColor"
       id="path3252" />
  </g>
  <g
     transform="translate(69.9794,18.091405)"
     id="g3258">
    <path
       transform="scale(0.004,-0.004)"
       d="m 27,41 -1,-66 v -11 c 0,-22 1,-44 4,-66 45,38 93,80 93,139 0,33 -14,67 -43,67 C 49,104 28,74 27,41 Z m -42,-179 -12,595 c 8,5 18,8 27,8 9,0 19,-3 27,-8 L 20,112 c 25,21 58,34 91,34 52,0 89,-48 89,-102 0,-80 -86,-117 -147,-169 -15,-13 -24,-38 -45,-38 -13,0 -23,11 -23,25 z"
       fill="currentColor"
       id="path3256" />
  </g>
  <g
     transform="translate(75.2184,17.591405)"
     id="g3262">
    <path
       transform="scale(0.004,-0.004)"
       d="m 218,136 c 55,0 108,-28 108,-89 0,-71 -55,-121 -102,-149 -35,-21 -75,-34 -116,-34 -55,0 -108,28 -108,89 0,71 55,121 102,149 35,21 75,34 116,34 z"
       fill="currentColor"
       id="path3260" />
  </g>
  <g
     transform="translate(75.4095,23.909005)"
     id="g3266">
    <path
       transform="scale(0.0022,-0.0022)"
       d="m 198,284 c 24,15 48,29 65,52 12,16 19,34 28,52 2,5 6,7 11,7 8,0 16,-6 16,-17 V 161 h 79 c 12,0 18,-9 18,-18 0,-9 -6,-18 -18,-18 h -79 c 2,-51 33,-96 80,-96 10,0 15,-8 15,-15 C 413,7 408,0 398,0 349,0 302,14 253,14 204,14 156,0 107,0 97,0 93,7 93,14 c 0,7 4,15 14,15 47,0 79,45 81,96 H 36 c -29,0 -38,17 -38,28 0,3 1,6 2,8 78,88 123,201 123,319 0,11 8,21 17,21 1,0 3,-1 4,-1 25,-7 50,-14 76,-14 26,0 52,7 77,14 2,1 4,1 6,1 10,0 17,-7 17,-14 0,-2 0,-5 -2,-7 L 36,161 h 152 v 96 c 0,10 1,21 10,27 z"
       fill="currentColor"
       id="path3264" />
  </g>
  <g
     transform="translate(75.2834,16.091405)"
     id="g3270">
    <rect
       x="-0.064999998"
       y="1.6861"
       width="0.13"
       height="3.1071999"
       ry="0.039999999"
       fill="currentColor"
       id="rect3268" />
  </g>
  <g
     transform="translate(79.3074,17.091405)"
     id="g3274">
    <path
       transform="scale(0.004,-0.004)"
       d="m 218,136 c 55,0 108,-28 108,-89 0,-71 -55,-121 -102,-149 -35,-21 -75,-34 -116,-34 -55,0 -108,28 -108,89 0,71 55,121 102,149 35,21 75,34 116,34 z"
       fill="currentColor"
       id="path3272" />
  </g>
  <g
     transform="translate(79.4986,22.462705)"
     id="g3278">
    <path
       transform="scale(0.0022,-0.0022)"
       d="m 198,284 c 24,15 48,29 65,52 12,16 19,34 28,52 2,5 6,7 11,7 8,0 16,-6 16,-17 V 161 h 79 c 12,0 18,-9 18,-18 0,-9 -6,-18 -18,-18 h -79 c 2,-51 33,-96 80,-96 10,0 15,-8 15,-15 C 413,7 408,0 398,0 349,0 302,14 253,14 204,14 156,0 107,0 97,0 93,7 93,14 c 0,7 4,15 14,15 47,0 79,45 81,96 H 36 c -29,0 -38,17 -38,28 0,3 1,6 2,8 78,88 123,201 123,319 0,11 8,21 17,21 1,0 3,-1 4,-1 25,-7 50,-14 76,-14 26,0 52,7 77,14 2,1 4,1 6,1 10,0 17,-7 17,-14 0,-2 0,-5 -2,-7 L 36,161 h 152 v 96 c 0,10 1,21 10,27 z"
       fill="currentColor"
       id="path3276" />
  </g>
  <g
     transform="translate(79.3724,16.091405)"
     id="g3282">
    <rect
       x="-0.064999998"
       y="1.1861"
       width="0.13"
       height="3.3185"
       ry="0.039999999"
       fill="currentColor"
       id="rect3280" />
  </g>
  <g
     transform="translate(5.8,16.091405)"
     id="g3286">
    <path
       stroke-width="0.08"
       stroke-linejoin="round"
       stroke-linecap="round"
       stroke="currentColor"
       fill="currentColor"
       d="M 0.0956,7.2354 C 2.7357,8.8128 18.8184,7.6772 21.2107,5.7446 v 0 C 18.81,7.5575 2.7272,8.6931 0.0956,7.2354 Z"
       id="path3284" />
  </g>
  <g
     transform="translate(58.1923,17.591405)"
     id="g3290">
    <path
       transform="scale(0.004,-0.004)"
       d="m 314,65 c 0,24 -21,41 -42,41 -4,0 -8,0 -12,-1 C 229,96 182,65 145,41 108,17 61,-12 41,-37 34,-45 31,-55 31,-65 c 0,-24 21,-41 42,-41 4,0 8,0 12,1 31,9 77,40 114,64 37,24 84,53 104,78 7,8 11,18 11,28 z m -52,71 c 46,0 82,-21 82,-71 0,-19 -4,-39 -10,-57 -12,-37 -32,-72 -64,-94 -53,-36 -113,-50 -187,-50 -46,0 -83,21 -83,71 0,19 5,39 11,57 12,37 31,72 63,94 53,36 114,50 188,50 z"
       fill="currentColor"
       id="path3288" />
  </g>
  <g
     transform="translate(58.1923,19.591405)"
     id="g3294">
    <path
       transform="scale(0.004,-0.004)"
       d="m 218,136 c 55,0 108,-28 108,-89 0,-71 -55,-121 -102,-149 -35,-21 -75,-34 -116,-34 -55,0 -108,28 -108,89 0,71 55,121 102,149 35,21 75,34 116,34 z"
       fill="currentColor"
       id="path3292" />
  </g>
  <g
     transform="translate(60.0197,17.591405)"
     id="g3298">
    <path
       transform="scale(0.004,-0.004)"
       d="M 0,0 C 0,31 25,56 56,56 87,56 112,31 112,0 112,-31 87,-56 56,-56 25,-56 0,-31 0,0 Z"
       fill="currentColor"
       id="path3296" />
  </g>
  <g
     transform="translate(59.5047,16.091405)"
     id="g3302">
    <rect
       x="-0.064999998"
       y="-2"
       width="0.13"
       height="3.2409999"
       ry="0.039999999"
       fill="currentColor"
       id="rect3300" />
  </g>
  <g
     transform="translate(58.2573,16.091405)"
     id="g3306">
    <rect
       x="-0.064999998"
       y="3.6861"
       width="0.13"
       height="2.3092999"
       ry="0.039999999"
       fill="currentColor"
       id="rect3304" />
  </g>
  <g
     transform="translate(57.0423,19.591405)"
     id="g3310">
    <path
       transform="scale(0.004,-0.004)"
       d="m 27,41 -1,-66 v -11 c 0,-22 1,-44 4,-66 45,38 93,80 93,139 0,33 -14,67 -43,67 C 49,104 28,74 27,41 Z m -42,-179 -12,595 c 8,5 18,8 27,8 9,0 19,-3 27,-8 L 20,112 c 25,21 58,34 91,34 52,0 89,-48 89,-102 0,-80 -86,-117 -147,-169 -15,-13 -24,-38 -45,-38 -13,0 -23,11 -23,25 z"
       fill="currentColor"
       id="path3308" />
  </g>
  <g
     transform="translate(62.2813,19.091405)"
     id="g3314">
    <path
       transform="scale(0.004,-0.004)"
       d="m 218,136 c 55,0 108,-28 108,-89 0,-71 -55,-121 -102,-149 -35,-21 -75,-34 -116,-34 -55,0 -108,28 -108,89 0,71 55,121 102,149 35,21 75,34 116,34 z"
       fill="currentColor"
       id="path3312" />
  </g>
  <g
     transform="translate(62.3463,16.091405)"
     id="g3318">
    <rect
       x="-0.064999998"
       y="3.1861"
       width="0.13"
       height="2.5206001"
       ry="0.039999999"
       fill="currentColor"
       id="rect3316" />
  </g>
  <g
     transform="translate(99.7524,19.091405)"
     id="g3322">
    <path
       transform="scale(0.004,-0.004)"
       d="m 218,136 c 55,0 108,-28 108,-89 0,-71 -55,-121 -102,-149 -35,-21 -75,-34 -116,-34 -55,0 -108,28 -108,89 0,71 55,121 102,149 35,21 75,34 116,34 z"
       fill="currentColor"
       id="path3320" />
  </g>
  <g
     transform="translate(99.8174,16.091405)"
     id="g3326">
    <rect
       x="-0.064999998"
       y="3.1861"
       width="0.13"
       height="2.5111001"
       ry="0.039999999"
       fill="currentColor"
       id="rect3324" />
  </g>
  <g
     transform="translate(103.8414,19.591405)"
     id="g3330">
    <path
       transform="scale(0.004,-0.004)"
       d="m 218,136 c 55,0 108,-28 108,-89 0,-71 -55,-121 -102,-149 -35,-21 -75,-34 -116,-34 -55,0 -108,28 -108,89 0,71 55,121 102,149 35,21 75,34 116,34 z"
       fill="currentColor"
       id="path3328" />
  </g>
  <g
     transform="translate(103.9064,16.091405)"
     id="g3334">
    <rect
       x="-0.064999998"
       y="3.6861"
       width="0.13"
       height="2.3092"
       ry="0.039999999"
       fill="currentColor"
       id="rect3332" />
  </g>
  <g
     transform="translate(22.826,18.091405)"
     id="g3338">
    <path
       transform="scale(0.004,-0.004)"
       d="m 218,136 c 55,0 108,-28 108,-89 0,-71 -55,-121 -102,-149 -35,-21 -75,-34 -116,-34 -55,0 -108,28 -108,89 0,71 55,121 102,149 35,21 75,34 116,34 z"
       fill="currentColor"
       id="path3336" />
  </g>
  <g
     transform="translate(83.3964,20.591405)"
     id="g3342">
    <polygon
       stroke-linejoin="round"
       stroke-linecap="round"
       stroke-width="0.08"
       fill="currentColor"
       stroke="currentColor"
       points="20.535,1.3 20.535,1.7 0.04,0.2 0.04,-0.2 "
       id="polygon3340" />
  </g>
  <g
     transform="translate(58.1923,22.091405)"
     id="g3346">
    <polygon
       stroke-linejoin="round"
       stroke-linecap="round"
       stroke-width="0.08"
       fill="currentColor"
       stroke="currentColor"
       points="21.205,-1.7 21.205,-1.3 0.04,0.2 0.04,-0.2 "
       id="polygon3344" />
  </g>
  <g
     transform="translate(83.3964,16.091405)"
     id="g3350">
    <path
       stroke-width="0.08"
       stroke-linejoin="round"
       stroke-linecap="round"
       stroke="currentColor"
       fill="currentColor"
       d="m 0.0334,5.2447 c 2.3585,1.9266 17.832,3.0547 20.445,1.4906 v 0 C 17.8741,8.1797 2.4006,7.0516 0.0334,5.2447 Z"
       id="path3348" />
  </g>
  <g
     transform="translate(58.1923,16.091405)"
     id="g3354">
    <path
       stroke-width="0.08"
       stroke-linejoin="round"
       stroke-linecap="round"
       stroke="currentColor"
       fill="currentColor"
       d="M 0.0956,6.7354 C 2.7357,8.3128 18.8184,7.1772 21.2107,5.2446 v 0 C 18.81,7.0575 2.7272,8.1931 0.0956,6.7354 Z"
       id="path3352" />
  </g>
  <g
     transform="translate(31.004,21.091405)"
     id="g3358">
    <polygon
       stroke-linejoin="round"
       stroke-linecap="round"
       stroke-width="0.08"
       fill="currentColor"
       stroke="currentColor"
       points="20.535,1.3 20.535,1.7 0.04,0.2 0.04,-0.2 "
       id="polygon3356" />
  </g>
  <g
     transform="translate(5.8,22.591405)"
     id="g3362">
    <polygon
       stroke-linejoin="round"
       stroke-linecap="round"
       stroke-width="0.08"
       fill="currentColor"
       stroke="currentColor"
       points="21.205,-1.7 21.205,-1.3 0.04,0.2 0.04,-0.2 "
       id="polygon3360" />
  </g>
  <g
     transform="translate(31.004,16.091405)"
     id="g3366">
    <path
       stroke-width="0.08"
       stroke-linejoin="round"
       stroke-linecap="round"
       stroke="currentColor"
       fill="currentColor"
       d="m 0.0334,5.7447 c 2.3585,1.9266 17.832,3.0547 20.445,1.4906 v 0 C 17.8741,8.6797 2.4006,7.5516 0.0334,5.7447 Z"
       id="path3364" />
  </g>
  <g
     transform="translate(84.4398,17.591405)"
     id="g3370">
    <path
       transform="scale(0.004,-0.004)"
       d="m 314,65 c 0,24 -21,41 -42,41 -4,0 -8,0 -12,-1 C 229,96 182,65 145,41 108,17 61,-12 41,-37 34,-45 31,-55 31,-65 c 0,-24 21,-41 42,-41 4,0 8,0 12,1 31,9 77,40 114,64 37,24 84,53 104,78 7,8 11,18 11,28 z m -52,71 c 46,0 82,-21 82,-71 0,-19 -4,-39 -10,-57 -12,-37 -32,-72 -64,-94 -53,-36 -113,-50 -187,-50 -46,0 -83,21 -83,71 0,19 5,39 11,57 12,37 31,72 63,94 53,36 114,50 188,50 z"
       fill="currentColor"
       id="path3368" />
  </g>
  <g
     transform="translate(83.3964,17.091405)"
     id="g3374">
    <path
       transform="scale(0.004,-0.004)"
       d="m 218,136 c 55,0 108,-28 108,-89 0,-71 -55,-121 -102,-149 -35,-21 -75,-34 -116,-34 -55,0 -108,28 -108,89 0,71 55,121 102,149 35,21 75,34 116,34 z"
       fill="currentColor"
       id="path3372" />
  </g>
  <g
     transform="translate(86.2671,17.591405)"
     id="g3378">
    <path
       transform="scale(0.004,-0.004)"
       d="M 0,0 C 0,31 25,56 56,56 87,56 112,31 112,0 112,-31 87,-56 56,-56 25,-56 0,-31 0,0 Z"
       fill="currentColor"
       id="path3376" />
  </g>
  <g
     transform="translate(85.7521,16.091405)"
     id="g3382">
    <rect
       x="-0.064999998"
       y="-2"
       width="0.13"
       height="3.2409999"
       ry="0.039999999"
       fill="currentColor"
       id="rect3380" />
  </g>
  <g
     transform="translate(83.4614,16.091405)"
     id="g3386">
    <rect
       x="-0.064999998"
       y="1.1861"
       width="0.13"
       height="3.3185999"
       ry="0.039999999"
       fill="currentColor"
       id="rect3384" />
  </g>
  <g
     transform="translate(87.4854,17.591405)"
     id="g3390">
    <path
       transform="scale(0.004,-0.004)"
       d="m 218,136 c 55,0 108,-28 108,-89 0,-71 -55,-121 -102,-149 -35,-21 -75,-34 -116,-34 -55,0 -108,28 -108,89 0,71 55,121 102,149 35,21 75,34 116,34 z"
       fill="currentColor"
       id="path3388" />
  </g>
  <g
     transform="translate(87.5504,16.091405)"
     id="g3394">
    <rect
       x="-0.064999998"
       y="1.6861"
       width="0.13"
       height="3.1166999"
       ry="0.039999999"
       fill="currentColor"
       id="rect3392" />
  </g>
  <g
     transform="translate(91.5744,18.091405)"
     id="g3398">
    <path
       transform="scale(0.004,-0.004)"
       d="m 218,136 c 55,0 108,-28 108,-89 0,-71 -55,-121 -102,-149 -35,-21 -75,-34 -116,-34 -55,0 -108,28 -108,89 0,71 55,121 102,149 35,21 75,34 116,34 z"
       fill="currentColor"
       id="path3396" />
  </g>
  <g
     transform="translate(91.6394,16.091405)"
     id="g3402">
    <rect
       x="-0.064999998"
       y="2.1861"
       width="0.13"
       height="2.9147999"
       ry="0.039999999"
       fill="currentColor"
       id="rect3400" />
  </g>
  <g
     transform="translate(95.6634,18.591405)"
     id="g3406">
    <path
       transform="scale(0.004,-0.004)"
       d="m 218,136 c 55,0 108,-28 108,-89 0,-71 -55,-121 -102,-149 -35,-21 -75,-34 -116,-34 -55,0 -108,28 -108,89 0,71 55,121 102,149 35,21 75,34 116,34 z"
       fill="currentColor"
       id="path3404" />
  </g>
  <g
     transform="translate(95.7284,16.091405)"
     id="g3410">
    <rect
       x="-0.064999998"
       y="2.6861"
       width="0.13"
       height="2.7128999"
       ry="0.039999999"
       fill="currentColor"
       id="rect3408" />
  </g>
  <g
     transform="translate(10.559,19.591405)"
     id="g3414">
    <path
       transform="scale(0.004,-0.004)"
       d="m 218,136 c 55,0 108,-28 108,-89 0,-71 -55,-121 -102,-149 -35,-21 -75,-34 -116,-34 -55,0 -108,28 -108,89 0,71 55,121 102,149 35,21 75,34 116,34 z"
       fill="currentColor"
       id="path3412" />
  </g>
  <g
     transform="translate(10.7843,25.358005)"
     id="g3418">
    <path
       transform="scale(0.0022,-0.0022)"
       d="m 129,149 h 7 c 36,0 74,-13 111,-40 19,-14 40,-21 59,-21 22,0 40,10 46,31 2,7 7,11 13,11 7,0 15,-5 15,-14 v -5 C 361,40 296,0 234,0 196,0 159,15 133,47 121,62 105,69 89,69 60,69 32,48 29,13 28,4 22,0 15,0 8,0 0,5 0,14 c 0,173 233,163 233,341 0,56 -14,116 -62,116 -33,0 -66,-15 -66,-44 0,-24 31,-37 31,-61 0,-34 -27,-61 -61,-61 -34,0 -61,27 -61,61 0,78 74,134 157,134 98,0 191,-55 191,-145 C 362,211 227,199 129,149 Z"
       fill="currentColor"
       id="path3416" />
  </g>
  <g
     transform="translate(10.624,16.091405)"
     id="g3422">
    <rect
       x="-0.064999998"
       y="3.6861"
       width="0.13"
       height="2.4733"
       ry="0.039999999"
       fill="currentColor"
       id="rect3420" />
  </g>
  <g
     transform="translate(9.409,19.591405)"
     id="g3426">
    <path
       transform="scale(0.004,-0.004)"
       d="m 27,41 -1,-66 v -11 c 0,-22 1,-44 4,-66 45,38 93,80 93,139 0,33 -14,67 -43,67 C 49,104 28,74 27,41 Z m -42,-179 -12,595 c 8,5 18,8 27,8 9,0 19,-3 27,-8 L 20,112 c 25,21 58,34 91,34 52,0 89,-48 89,-102 0,-80 -86,-117 -147,-169 -15,-13 -24,-38 -45,-38 -13,0 -23,11 -23,25 z"
       fill="currentColor"
       id="path3424" />
  </g>
  <g
     transform="translate(14.648,19.091405)"
     id="g3430">
    <path
       transform="scale(0.004,-0.004)"
       d="m 218,136 c 55,0 108,-28 108,-89 0,-71 -55,-121 -102,-149 -35,-21 -75,-34 -116,-34 -55,0 -108,28 -108,89 0,71 55,121 102,149 35,21 75,34 116,34 z"
       fill="currentColor"
       id="path3428" />
  </g>
  <g
     transform="translate(14.9074,25.277305)"
     id="g3434">
    <path
       transform="scale(0.0022,-0.0022)"
       d="m 155,471 c -34,0 -70,-8 -70,-38 0,-19 31,-23 31,-42 0,-28 -23,-51 -51,-51 -28,0 -51,23 -51,51 0,67 68,109 141,109 93,0 174,-31 174,-113 0,-41 -6,-77 -42,-94 -11,-5 -17,-16 -17,-27 0,-11 6,-22 17,-27 40,-19 59,-53 59,-98 C 346,47 263,0 160,0 78,0 0,45 0,119 c 0,32 26,58 58,58 32,0 58,-26 58,-58 0,-22 -36,-26 -36,-48 0,-33 42,-42 80,-42 46,0 56,58 56,112 v 38 c 0,40 -4,69 -43,69 H 99 c -12,0 -18,9 -18,18 0,9 6,18 18,18 h 74 c 40,0 43,31 43,73 v 30 c 0,50 -16,84 -61,84 z"
       fill="currentColor"
       id="path3432" />
  </g>
  <g
     transform="translate(14.713,16.091405)"
     id="g3438">
    <rect
       x="-0.064999998"
       y="3.1861"
       width="0.13"
       height="2.6846001"
       ry="0.039999999"
       fill="currentColor"
       id="rect3436" />
  </g>
  <g
     transform="translate(5.8,18.091405)"
     id="g3442">
    <path
       transform="scale(0.004,-0.004)"
       d="m 314,65 c 0,24 -21,41 -42,41 -4,0 -8,0 -12,-1 C 229,96 182,65 145,41 108,17 61,-12 41,-37 34,-45 31,-55 31,-65 c 0,-24 21,-41 42,-41 4,0 8,0 12,1 31,9 77,40 114,64 37,24 84,53 104,78 7,8 11,18 11,28 z m -52,71 c 46,0 82,-21 82,-71 0,-19 -4,-39 -10,-57 -12,-37 -32,-72 -64,-94 -53,-36 -113,-50 -187,-50 -46,0 -83,21 -83,71 0,19 5,39 11,57 12,37 31,72 63,94 53,36 114,50 188,50 z"
       fill="currentColor"
       id="path3440" />
  </g>
  <g
     transform="translate(18.737,18.591405)"
     id="g3446">
    <path
       transform="scale(0.004,-0.004)"
       d="m 218,136 c 55,0 108,-28 108,-89 0,-71 -55,-121 -102,-149 -35,-21 -75,-34 -116,-34 -55,0 -108,28 -108,89 0,71 55,121 102,149 35,21 75,34 116,34 z"
       fill="currentColor"
       id="path3444" />
  </g>
  <g
     transform="translate(18.9964,24.966005)"
     id="g3450">
    <path
       transform="scale(0.0022,-0.0022)"
       d="m 155,471 c -34,0 -70,-8 -70,-38 0,-19 31,-23 31,-42 0,-28 -23,-51 -51,-51 -28,0 -51,23 -51,51 0,67 68,109 141,109 93,0 174,-31 174,-113 0,-41 -6,-77 -42,-94 -11,-5 -17,-16 -17,-27 0,-11 6,-22 17,-27 40,-19 59,-53 59,-98 C 346,47 263,0 160,0 78,0 0,45 0,119 c 0,32 26,58 58,58 32,0 58,-26 58,-58 0,-22 -36,-26 -36,-48 0,-33 42,-42 80,-42 46,0 56,58 56,112 v 38 c 0,40 -4,69 -43,69 H 99 c -12,0 -18,9 -18,18 0,9 6,18 18,18 h 74 c 40,0 43,31 43,73 v 30 c 0,50 -16,84 -61,84 z"
       fill="currentColor"
       id="path3448" />
  </g>
  <g
     transform="translate(18.802,16.091405)"
     id="g3454">
    <rect
       x="-0.064999998"
       y="2.6861"
       width="0.13"
       height="2.8959"
       ry="0.039999999"
       fill="currentColor"
       id="rect3452" />
  </g>
  <g
     transform="translate(23.0172,24.409005)"
     id="g3458">
    <path
       transform="scale(0.0022,-0.0022)"
       d="m 198,284 c 24,15 48,29 65,52 12,16 19,34 28,52 2,5 6,7 11,7 8,0 16,-6 16,-17 V 161 h 79 c 12,0 18,-9 18,-18 0,-9 -6,-18 -18,-18 h -79 c 2,-51 33,-96 80,-96 10,0 15,-8 15,-15 C 413,7 408,0 398,0 349,0 302,14 253,14 204,14 156,0 107,0 97,0 93,7 93,14 c 0,7 4,15 14,15 47,0 79,45 81,96 H 36 c -29,0 -38,17 -38,28 0,3 1,6 2,8 78,88 123,201 123,319 0,11 8,21 17,21 1,0 3,-1 4,-1 25,-7 50,-14 76,-14 26,0 52,7 77,14 2,1 4,1 6,1 10,0 17,-7 17,-14 0,-2 0,-5 -2,-7 L 36,161 h 152 v 96 c 0,10 1,21 10,27 z"
       fill="currentColor"
       id="path3456" />
  </g>
  <g
     transform="translate(22.891,16.091405)"
     id="g3462">
    <rect
       x="-0.064999998"
       y="2.1861"
       width="0.13"
       height="3.1071999"
       ry="0.039999999"
       fill="currentColor"
       id="rect3460" />
  </g>
  <g
     transform="translate(26.915,17.591405)"
     id="g3466">
    <path
       transform="scale(0.004,-0.004)"
       d="m 218,136 c 55,0 108,-28 108,-89 0,-71 -55,-121 -102,-149 -35,-21 -75,-34 -116,-34 -55,0 -108,28 -108,89 0,71 55,121 102,149 35,21 75,34 116,34 z"
       fill="currentColor"
       id="path3464" />
  </g>
  <g
     transform="translate(5.865,16.091405)"
     id="g3470">
    <rect
       x="-0.064999998"
       y="4.1861"
       width="0.13"
       height="2.3092999"
       ry="0.039999999"
       fill="currentColor"
       id="rect3468" />
  </g>
  <g
     transform="translate(0.80000003,17.091405)"
     id="g3474">
    <path
       transform="scale(0.004,-0.004)"
       d="m 266,-635 h -6 c -108,0 -195,88 -195,197 0,58 53,103 112,103 54,0 95,-47 95,-103 0,-52 -43,-95 -95,-95 -11,0 -21,2 -31,6 26,-39 68,-65 117,-65 h 4 z m 195,432 c 68,24 113,95 113,164 0,90 -66,179 -173,190 24,-116 46,-231 60,-354 z M 74,28 c 0,-135 129,-247 264,-247 28,0 55,2 82,6 C 406,-86 383,32 357,151 278,143 233,90 233,32 c 0,-44 25,-91 81,-123 5,-5 7,-10 7,-15 0,-11 -10,-22 -22,-22 -3,0 -6,1 -9,2 -80,43 -117,115 -117,185 0,88 58,174 160,197 -14,58 -29,117 -46,175 C 180,310 74,188 74,28 Z M 335,-262 C 147,-262 2,-90 2,112 c 0,177 131,306 248,441 -19,62 -37,125 -45,190 -6,52 -7,104 -7,156 0,115 55,224 149,292 6,5 14,5 20,0 71,-84 133,-245 133,-358 0,-143 -86,-255 -180,-364 21,-68 39,-138 56,-207 4,0 9,1 13,1 155,0 256,-128 256,-261 0,-76 -33,-154 -107,-210 -22,-17 -47,-28 -73,-36 3,-35 5,-70 5,-105 0,-19 -1,-39 -2,-58 -7,-119 -88,-225 -202,-228 l 1,43 c 93,2 153,92 159,191 1,18 2,37 2,55 0,31 -1,61 -4,92 -29,-5 -58,-8 -89,-8 z m 93,1178 c 0,55 -4,79 -20,129 -99,-48 -162,-149 -162,-259 0,-74 18,-133 36,-194 80,97 146,198 146,324 z"
       fill="currentColor"
       id="path3472" />
  </g>
  <g
     transform="translate(7.1123,16.091405)"
     id="g3478">
    <rect
       x="-0.064999998"
       y="-1.5"
       width="0.13"
       height="3.2409999"
       ry="0.039999999"
       fill="currentColor"
       id="rect3476" />
  </g>
  <g
     transform="translate(7.6273,17.591405)"
     id="g3482">
    <path
       transform="scale(0.004,-0.004)"
       d="M 0,0 C 0,31 25,56 56,56 87,56 112,31 112,0 112,-31 87,-56 56,-56 25,-56 0,-31 0,0 Z"
       fill="currentColor"
       id="path3480" />
  </g>
  <g
     transform="translate(4.65,18.091405)"
     id="g3486">
    <path
       transform="scale(0.004,-0.004)"
       d="m 27,41 -1,-66 v -11 c 0,-22 1,-44 4,-66 45,38 93,80 93,139 0,33 -14,67 -43,67 C 49,104 28,74 27,41 Z m -42,-179 -12,595 c 8,5 18,8 27,8 9,0 19,-3 27,-8 L 20,112 c 25,21 58,34 91,34 52,0 89,-48 89,-102 0,-80 -86,-117 -147,-169 -15,-13 -24,-38 -45,-38 -13,0 -23,11 -23,25 z"
       fill="currentColor"
       id="path3484" />
  </g>
  <g
     transform="translate(6.0253,24.992405)"
     id="g3490">
    <path
       transform="scale(0.0022,-0.0022)"
       d="m 129,149 h 7 c 36,0 74,-13 111,-40 19,-14 40,-21 59,-21 22,0 40,10 46,31 2,7 7,11 13,11 7,0 15,-5 15,-14 v -5 C 361,40 296,0 234,0 196,0 159,15 133,47 121,62 105,69 89,69 60,69 32,48 29,13 28,4 22,0 15,0 8,0 0,5 0,14 c 0,173 233,163 233,341 0,56 -14,116 -62,116 -33,0 -66,-15 -66,-44 0,-24 31,-37 31,-61 0,-34 -27,-61 -61,-61 -34,0 -61,27 -61,61 0,78 74,134 157,134 98,0 191,-55 191,-145 C 362,211 227,199 129,149 Z"
       fill="currentColor"
       id="path3488" />
  </g>
  <g
     transform="translate(5.8,20.091405)"
     id="g3494">
    <path
       transform="scale(0.004,-0.004)"
       d="m 218,136 c 55,0 108,-28 108,-89 0,-71 -55,-121 -102,-149 -35,-21 -75,-34 -116,-34 -55,0 -108,28 -108,89 0,71 55,121 102,149 35,21 75,34 116,34 z"
       fill="currentColor"
       id="path3492" />
  </g>
  <g
     transform="translate(43.5305,25.330605)"
     id="g3498">
    <path
       transform="scale(0.0022,-0.0022)"
       d="m 155,471 c -34,0 -70,-8 -70,-38 0,-19 31,-23 31,-42 0,-28 -23,-51 -51,-51 -28,0 -51,23 -51,51 0,67 68,109 141,109 93,0 174,-31 174,-113 0,-41 -6,-77 -42,-94 -11,-5 -17,-16 -17,-27 0,-11 6,-22 17,-27 40,-19 59,-53 59,-98 C 346,47 263,0 160,0 78,0 0,45 0,119 c 0,32 26,58 58,58 32,0 58,-26 58,-58 0,-22 -36,-26 -36,-48 0,-33 42,-42 80,-42 46,0 56,58 56,112 v 38 c 0,40 -4,69 -43,69 H 99 c -12,0 -18,9 -18,18 0,9 6,18 18,18 h 74 c 40,0 43,31 43,73 v 30 c 0,50 -16,84 -61,84 z"
       fill="currentColor"
       id="path3496" />
  </g>
  <g
     transform="translate(35.093,18.091405)"
     id="g3502">
    <path
       transform="scale(0.004,-0.004)"
       d="m 218,136 c 55,0 108,-28 108,-89 0,-71 -55,-121 -102,-149 -35,-21 -75,-34 -116,-34 -55,0 -108,28 -108,89 0,71 55,121 102,149 35,21 75,34 116,34 z"
       fill="currentColor"
       id="path3500" />
  </g>
  <g
     transform="translate(35.2842,24.624205)"
     id="g3506">
    <path
       transform="scale(0.0022,-0.0022)"
       d="m 198,284 c 24,15 48,29 65,52 12,16 19,34 28,52 2,5 6,7 11,7 8,0 16,-6 16,-17 V 161 h 79 c 12,0 18,-9 18,-18 0,-9 -6,-18 -18,-18 h -79 c 2,-51 33,-96 80,-96 10,0 15,-8 15,-15 C 413,7 408,0 398,0 349,0 302,14 253,14 204,14 156,0 107,0 97,0 93,7 93,14 c 0,7 4,15 14,15 47,0 79,45 81,96 H 36 c -29,0 -38,17 -38,28 0,3 1,6 2,8 78,88 123,201 123,319 0,11 8,21 17,21 1,0 3,-1 4,-1 25,-7 50,-14 76,-14 26,0 52,7 77,14 2,1 4,1 6,1 10,0 17,-7 17,-14 0,-2 0,-5 -2,-7 L 36,161 h 152 v 96 c 0,10 1,21 10,27 z"
       fill="currentColor"
       id="path3504" />
  </g>
  <g
     transform="translate(35.158,16.091405)"
     id="g3510">
    <rect
       x="-0.064999998"
       y="2.1861"
       width="0.13"
       height="3.1166999"
       ry="0.039999999"
       fill="currentColor"
       id="rect3508" />
  </g>
  <g
     transform="translate(27.1062,22.962705)"
     id="g3514">
    <path
       transform="scale(0.0022,-0.0022)"
       d="m 198,284 c 24,15 48,29 65,52 12,16 19,34 28,52 2,5 6,7 11,7 8,0 16,-6 16,-17 V 161 h 79 c 12,0 18,-9 18,-18 0,-9 -6,-18 -18,-18 h -79 c 2,-51 33,-96 80,-96 10,0 15,-8 15,-15 C 413,7 408,0 398,0 349,0 302,14 253,14 204,14 156,0 107,0 97,0 93,7 93,14 c 0,7 4,15 14,15 47,0 79,45 81,96 H 36 c -29,0 -38,17 -38,28 0,3 1,6 2,8 78,88 123,201 123,319 0,11 8,21 17,21 1,0 3,-1 4,-1 25,-7 50,-14 76,-14 26,0 52,7 77,14 2,1 4,1 6,1 10,0 17,-7 17,-14 0,-2 0,-5 -2,-7 L 36,161 h 152 v 96 c 0,10 1,21 10,27 z"
       fill="currentColor"
       id="path3512" />
  </g>
  <g
     transform="translate(39.182,18.591405)"
     id="g3518">
    <path
       transform="scale(0.004,-0.004)"
       d="m 218,136 c 55,0 108,-28 108,-89 0,-71 -55,-121 -102,-149 -35,-21 -75,-34 -116,-34 -55,0 -108,28 -108,89 0,71 55,121 102,149 35,21 75,34 116,34 z"
       fill="currentColor"
       id="path3516" />
  </g>
  <g
     transform="translate(39.4415,25.097405)"
     id="g3522">
    <path
       transform="scale(0.0022,-0.0022)"
       d="m 155,471 c -34,0 -70,-8 -70,-38 0,-19 31,-23 31,-42 0,-28 -23,-51 -51,-51 -28,0 -51,23 -51,51 0,67 68,109 141,109 93,0 174,-31 174,-113 0,-41 -6,-77 -42,-94 -11,-5 -17,-16 -17,-27 0,-11 6,-22 17,-27 40,-19 59,-53 59,-98 C 346,47 263,0 160,0 78,0 0,45 0,119 c 0,32 26,58 58,58 32,0 58,-26 58,-58 0,-22 -36,-26 -36,-48 0,-33 42,-42 80,-42 46,0 56,58 56,112 v 38 c 0,40 -4,69 -43,69 H 99 c -12,0 -18,9 -18,18 0,9 6,18 18,18 h 74 c 40,0 43,31 43,73 v 30 c 0,50 -16,84 -61,84 z"
       fill="currentColor"
       id="path3520" />
  </g>
  <g
     transform="translate(39.247,16.091405)"
     id="g3526">
    <rect
       x="-0.064999998"
       y="2.6861"
       width="0.13"
       height="2.9147999"
       ry="0.039999999"
       fill="currentColor"
       id="rect3524" />
  </g>
  <g
     transform="translate(43.271,19.091405)"
     id="g3530">
    <path
       transform="scale(0.004,-0.004)"
       d="m 218,136 c 55,0 108,-28 108,-89 0,-71 -55,-121 -102,-149 -35,-21 -75,-34 -116,-34 -55,0 -108,28 -108,89 0,71 55,121 102,149 35,21 75,34 116,34 z"
       fill="currentColor"
       id="path3528" />
  </g>
  <g
     transform="translate(43.336,16.091405)"
     id="g3534">
    <rect
       x="-0.064999998"
       y="3.1861"
       width="0.13"
       height="2.7128999"
       ry="0.039999999"
       fill="currentColor"
       id="rect3532" />
  </g>
  <g
     transform="translate(47.36,19.591405)"
     id="g3538">
    <path
       transform="scale(0.004,-0.004)"
       d="m 218,136 c 55,0 108,-28 108,-89 0,-71 -55,-121 -102,-149 -35,-21 -75,-34 -116,-34 -55,0 -108,28 -108,89 0,71 55,121 102,149 35,21 75,34 116,34 z"
       fill="currentColor"
       id="path3536" />
  </g>
  <g
     transform="translate(47.5853,25.314805)"
     id="g3542">
    <path
       transform="scale(0.0022,-0.0022)"
       d="m 129,149 h 7 c 36,0 74,-13 111,-40 19,-14 40,-21 59,-21 22,0 40,10 46,31 2,7 7,11 13,11 7,0 15,-5 15,-14 v -5 C 361,40 296,0 234,0 196,0 159,15 133,47 121,62 105,69 89,69 60,69 32,48 29,13 28,4 22,0 15,0 8,0 0,5 0,14 c 0,173 233,163 233,341 0,56 -14,116 -62,116 -33,0 -66,-15 -66,-44 0,-24 31,-37 31,-61 0,-34 -27,-61 -61,-61 -34,0 -61,27 -61,61 0,78 74,134 157,134 98,0 191,-55 191,-145 C 362,211 227,199 129,149 Z"
       fill="currentColor"
       id="path3540" />
  </g>
  <g
     transform="translate(47.425,16.091405)"
     id="g3546">
    <rect
       x="-0.064999998"
       y="3.6861"
       width="0.13"
       height="2.5111001"
       ry="0.039999999"
       fill="currentColor"
       id="rect3544" />
  </g>
  <g
     transform="translate(51.449,20.091405)"
     id="g3550">
    <path
       transform="scale(0.004,-0.004)"
       d="m 218,136 c 55,0 108,-28 108,-89 0,-71 -55,-121 -102,-149 -35,-21 -75,-34 -116,-34 -55,0 -108,28 -108,89 0,71 55,121 102,149 35,21 75,34 116,34 z"
       fill="currentColor"
       id="path3548" />
  </g>
  <g
     transform="translate(51.6743,24.453405)"
     id="g3554">
    <path
       transform="scale(0.0022,-0.0022)"
       d="m 129,149 h 7 c 36,0 74,-13 111,-40 19,-14 40,-21 59,-21 22,0 40,10 46,31 2,7 7,11 13,11 7,0 15,-5 15,-14 v -5 C 361,40 296,0 234,0 196,0 159,15 133,47 121,62 105,69 89,69 60,69 32,48 29,13 28,4 22,0 15,0 8,0 0,5 0,14 c 0,173 233,163 233,341 0,56 -14,116 -62,116 -33,0 -66,-15 -66,-44 0,-24 31,-37 31,-61 0,-34 -27,-61 -61,-61 -34,0 -61,27 -61,61 0,78 74,134 157,134 98,0 191,-55 191,-145 C 362,211 227,199 129,149 Z"
       fill="currentColor"
       id="path3552" />
  </g>
  <g
     transform="translate(51.514,16.091405)"
     id="g3558">
    <rect
       x="-0.064999998"
       y="4.1861"
       width="0.13"
       height="2.3092"
       ry="0.039999999"
       fill="currentColor"
       id="rect3556" />
  </g>
  <g
     transform="translate(32.0474,18.091405)"
     id="g3562">
    <path
       transform="scale(0.004,-0.004)"
       d="m 314,65 c 0,24 -21,41 -42,41 -4,0 -8,0 -12,-1 C 229,96 182,65 145,41 108,17 61,-12 41,-37 34,-45 31,-55 31,-65 c 0,-24 21,-41 42,-41 4,0 8,0 12,1 31,9 77,40 114,64 37,24 84,53 104,78 7,8 11,18 11,28 z m -52,71 c 46,0 82,-21 82,-71 0,-19 -4,-39 -10,-57 -12,-37 -32,-72 -64,-94 -53,-36 -113,-50 -187,-50 -46,0 -83,21 -83,71 0,19 5,39 11,57 12,37 31,72 63,94 53,36 114,50 188,50 z"
       fill="currentColor"
       id="path3560" />
  </g>
  <g
     transform="translate(31.004,17.591405)"
     id="g3566">
    <path
       transform="scale(0.004,-0.004)"
       d="m 218,136 c 55,0 108,-28 108,-89 0,-71 -55,-121 -102,-149 -35,-21 -75,-34 -116,-34 -55,0 -108,28 -108,89 0,71 55,121 102,149 35,21 75,34 116,34 z"
       fill="currentColor"
       id="path3564" />
  </g>
  <g
     transform="translate(31.1952,23.700105)"
     id="g3570">
    <path
       transform="scale(0.0022,-0.0022)"
       d="m 198,284 c 24,15 48,29 65,52 12,16 19,34 28,52 2,5 6,7 11,7 8,0 16,-6 16,-17 V 161 h 79 c 12,0 18,-9 18,-18 0,-9 -6,-18 -18,-18 h -79 c 2,-51 33,-96 80,-96 10,0 15,-8 15,-15 C 413,7 408,0 398,0 349,0 302,14 253,14 204,14 156,0 107,0 97,0 93,7 93,14 c 0,7 4,15 14,15 47,0 79,45 81,96 H 36 c -29,0 -38,17 -38,28 0,3 1,6 2,8 78,88 123,201 123,319 0,11 8,21 17,21 1,0 3,-1 4,-1 25,-7 50,-14 76,-14 26,0 52,7 77,14 2,1 4,1 6,1 10,0 17,-7 17,-14 0,-2 0,-5 -2,-7 L 36,161 h 152 v 96 c 0,10 1,21 10,27 z"
       fill="currentColor"
       id="path3568" />
  </g>
  <g
     transform="translate(33.8747,17.591405)"
     id="g3574">
    <path
       transform="scale(0.004,-0.004)"
       d="M 0,0 C 0,31 25,56 56,56 87,56 112,31 112,0 112,-31 87,-56 56,-56 25,-56 0,-31 0,0 Z"
       fill="currentColor"
       id="path3572" />
  </g>
  <g
     transform="translate(33.3597,16.091405)"
     id="g3578">
    <rect
       x="-0.064999998"
       y="-1.5"
       width="0.13"
       height="3.2409999"
       ry="0.039999999"
       fill="currentColor"
       id="rect3576" />
  </g>
  <g
     transform="translate(31.069,16.091405)"
     id="g3582">
    <rect
       x="-0.064999998"
       y="1.6861"
       width="0.13"
       height="3.3185999"
       ry="0.039999999"
       fill="currentColor"
       id="rect3580" />
  </g>
  <g
     transform="translate(26.98,16.091405)"
     id="g3586">
    <rect
       x="-0.064999998"
       y="1.6861"
       width="0.13"
       height="3.3185"
       ry="0.039999999"
       fill="currentColor"
       id="rect3584" />
  </g>
</svg>
