<svg
   version="1.2"
   width="92.058548mm"
   height="17.344757mm"
   viewBox="0 0 52.386399 9.8701245"
   id="svg87910"
   sodipodi:docname="loose examples-1.svg"
   xmlns:inkscape="http://www.inkscape.org/namespaces/inkscape"
   xmlns:sodipodi="http://sodipodi.sourceforge.net/DTD/sodipodi-0.dtd"
   xmlns:xlink="http://www.w3.org/1999/xlink"
   xmlns="http://www.w3.org/2000/svg"
   xmlns:svg="http://www.w3.org/2000/svg">
  <defs
     id="defs87914" />
  <sodipodi:namedview
     id="namedview87912"
     pagecolor="#ffffff"
     bordercolor="#000000"
     borderopacity="0.25"
     inkscape:showpageshadow="2"
     inkscape:pageopacity="0.0"
     inkscape:pagecheckerboard="0"
     inkscape:deskcolor="#d1d1d1"
     inkscape:document-units="mm"
     showgrid="false" />
  <style
     type="text/css"
     id="style83554"><![CDATA[
tspan { white-space: pre; }
]]></style>
  <!-- Page: 1/3 -->
  <g
     transform="translate(3.1967416e-8,7.4471847)"
     id="g86616">
    <line
       stroke-linejoin="round"
       stroke-linecap="round"
       stroke-width="0.1"
       stroke="currentColor"
       x1="0.050000001"
       y1="0"
       x2="48.0816"
       y2="0"
       id="line86614" />
  </g>
  <g
     transform="translate(3.1967416e-8,6.4471847)"
     id="g86620">
    <line
       stroke-linejoin="round"
       stroke-linecap="round"
       stroke-width="0.1"
       stroke="currentColor"
       x1="0.050000001"
       y1="0"
       x2="48.0816"
       y2="0"
       id="line86618" />
  </g>
  <g
     transform="translate(3.1967416e-8,5.4471847)"
     id="g86624">
    <line
       stroke-linejoin="round"
       stroke-linecap="round"
       stroke-width="0.1"
       stroke="currentColor"
       x1="0.050000001"
       y1="0"
       x2="48.0816"
       y2="0"
       id="line86622" />
  </g>
  <g
     transform="translate(3.1967416e-8,4.4471847)"
     id="g86628">
    <line
       stroke-linejoin="round"
       stroke-linecap="round"
       stroke-width="0.1"
       stroke="currentColor"
       x1="0.050000001"
       y1="0"
       x2="48.0816"
       y2="0"
       id="line86626" />
  </g>
  <g
     transform="translate(3.1967416e-8,3.4471847)"
     id="g86632">
    <line
       stroke-linejoin="round"
       stroke-linecap="round"
       stroke-width="0.1"
       stroke="currentColor"
       x1="0.050000001"
       y1="0"
       x2="48.0816"
       y2="0"
       id="line86630" />
  </g>
  <g
     transform="translate(47.9416,5.4471847)"
     id="g86636">
    <rect
       x="0"
       y="-2"
       width="0.19"
       height="4"
       ry="0.0000"
       fill="currentColor"
       id="rect86634" />
  </g>
  <g
     transform="translate(3.1967416e-8,8.4471847)"
     id="g86640">
    <rect
       x="5.4738998"
       y="-0.1"
       width="1.9563"
       height="0.2"
       ry="0.1"
       fill="currentColor"
       id="rect86638" />
  </g>
  <a
     style="color:inherit"
     xlink:href="textedit://C:/Users/Javier/AppData/Local/Temp/frescobaldi-qinprpfp/tmptsnuz2do/loose%20examples.ly:137:17:18"
     id="a86646"
     transform="translate(-5.6906,-109.13702)">
    <g
       transform="translate(35.5086,115.5842)"
       id="g86644">
      <path
         transform="scale(0.004,-0.004)"
         d="m 218,136 c 55,0 108,-28 108,-89 0,-71 -55,-121 -102,-149 -35,-21 -75,-34 -116,-34 -55,0 -108,28 -108,89 0,71 55,121 102,149 35,21 75,34 116,34 z"
         fill="currentColor"
         id="path86642" />
    </g>
  </a>
  <a
     style="color:inherit"
     xlink:href="textedit://C:/Users/Javier/AppData/Local/Temp/frescobaldi-qinprpfp/tmptsnuz2do/loose%20examples.ly:137:19:20"
     id="a86652"
     transform="translate(-5.6906,-109.13702)">
    <g
       transform="translate(35.5086,114.5842)"
       id="g86650">
      <path
         transform="scale(0.004,-0.004)"
         d="m 218,136 c 55,0 108,-28 108,-89 0,-71 -55,-121 -102,-149 -35,-21 -75,-34 -116,-34 -55,0 -108,28 -108,89 0,71 55,121 102,149 35,21 75,34 116,34 z"
         fill="currentColor"
         id="path86648" />
    </g>
  </a>
  <g
     transform="translate(31.0572,5.4471847)"
     id="g86656">
    <rect
       x="-0.064999998"
       y="-3.3333001"
       width="0.13"
       height="4.1472001"
       ry="0.039999999"
       fill="currentColor"
       id="rect86654" />
  </g>
  <a
     style="color:inherit"
     xlink:href="textedit://C:/Users/Javier/AppData/Local/Temp/frescobaldi-qinprpfp/tmptsnuz2do/loose%20examples.ly:137:24:25"
     id="a86662"
     transform="translate(-5.6906,-109.13702)">
    <g
       transform="translate(38.672,115.0842)"
       id="g86660">
      <path
         transform="scale(0.004,-0.004)"
         d="m 218,136 c 55,0 108,-28 108,-89 0,-71 -55,-121 -102,-149 -35,-21 -75,-34 -116,-34 -55,0 -108,28 -108,89 0,71 55,121 102,149 35,21 75,34 116,34 z"
         fill="currentColor"
         id="path86658" />
    </g>
  </a>
  <a
     style="color:inherit"
     xlink:href="textedit://C:/Users/Javier/AppData/Local/Temp/frescobaldi-qinprpfp/tmptsnuz2do/loose%20examples.ly:137:26:27"
     id="a86668"
     transform="translate(-5.6906,-109.13702)">
    <g
       transform="translate(38.672,114.0842)"
       id="g86666">
      <path
         transform="scale(0.004,-0.004)"
         d="m 218,136 c 55,0 108,-28 108,-89 0,-71 -55,-121 -102,-149 -35,-21 -75,-34 -116,-34 -55,0 -108,28 -108,89 0,71 55,121 102,149 35,21 75,34 116,34 z"
         fill="currentColor"
         id="path86664" />
    </g>
  </a>
  <g
     transform="translate(33.0464,5.4471847)"
     id="g86672">
    <rect
       x="-0.064999998"
       y="-0.31389999"
       width="0.13"
       height="3.9806001"
       ry="0.039999999"
       fill="currentColor"
       id="rect86670" />
  </g>
  <g
     transform="translate(25.0527,5.4471847)"
     id="g86676">
    <rect
       x="-0.064999998"
       y="-3"
       width="0.13"
       height="4.3139"
       ry="0.039999999"
       fill="currentColor"
       id="rect86674" />
  </g>
  <a
     style="color:inherit"
     xlink:href="textedit://C:/Users/Javier/AppData/Local/Temp/frescobaldi-qinprpfp/tmptsnuz2do/loose%20examples.ly:136:49:50"
     id="a86682"
     transform="translate(-5.6906,-109.13702)">
    <g
       transform="translate(26.5018,115.0842)"
       id="g86680">
      <path
         transform="scale(0.004,-0.004)"
         d="m 218,136 c 55,0 108,-28 108,-89 0,-71 -55,-121 -102,-149 -35,-21 -75,-34 -116,-34 -55,0 -108,28 -108,89 0,71 55,121 102,149 35,21 75,34 116,34 z"
         fill="currentColor"
         id="path86678" />
    </g>
  </a>
  <g
     transform="translate(22.0504,5.4471847)"
     id="g86686">
    <rect
       x="-0.064999998"
       y="-3"
       width="0.13"
       height="4.3139"
       ry="0.039999999"
       fill="currentColor"
       id="rect86684" />
  </g>
  <a
     style="color:inherit"
     xlink:href="textedit://C:/Users/Javier/AppData/Local/Temp/frescobaldi-qinprpfp/tmptsnuz2do/loose%20examples.ly:137:3:4"
     id="a86692"
     transform="translate(-5.6906,-109.13702)">
    <g
       transform="translate(29.5041,116.0842)"
       id="g86690">
      <path
         transform="scale(0.004,-0.004)"
         d="m 218,136 c 55,0 108,-28 108,-89 0,-71 -55,-121 -102,-149 -35,-21 -75,-34 -116,-34 -55,0 -108,28 -108,89 0,71 55,121 102,149 35,21 75,34 116,34 z"
         fill="currentColor"
         id="path86688" />
    </g>
  </a>
  <a
     style="color:inherit"
     xlink:href="textedit://C:/Users/Javier/AppData/Local/Temp/frescobaldi-qinprpfp/tmptsnuz2do/loose%20examples.ly:137:5:6"
     id="a86698"
     transform="translate(-5.6906,-109.13702)">
    <g
       transform="translate(29.5041,115.0842)"
       id="g86696">
      <path
         transform="scale(0.004,-0.004)"
         d="m 218,136 c 55,0 108,-28 108,-89 0,-71 -55,-121 -102,-149 -35,-21 -75,-34 -116,-34 -55,0 -108,28 -108,89 0,71 55,121 102,149 35,21 75,34 116,34 z"
         fill="currentColor"
         id="path86694" />
    </g>
  </a>
  <a
     style="color:inherit"
     xlink:href="textedit://C:/Users/Javier/AppData/Local/Temp/frescobaldi-qinprpfp/tmptsnuz2do/loose%20examples.ly:137:10:11"
     id="a86704"
     transform="translate(-5.6906,-109.13702)">
    <g
       transform="translate(32.5064,115.5842)"
       id="g86702">
      <path
         transform="scale(0.004,-0.004)"
         d="m 218,136 c 55,0 108,-28 108,-89 0,-71 -55,-121 -102,-149 -35,-21 -75,-34 -116,-34 -55,0 -108,28 -108,89 0,71 55,121 102,149 35,21 75,34 116,34 z"
         fill="currentColor"
         id="path86700" />
    </g>
  </a>
  <a
     style="color:inherit"
     xlink:href="textedit://C:/Users/Javier/AppData/Local/Temp/frescobaldi-qinprpfp/tmptsnuz2do/loose%20examples.ly:137:12:13"
     id="a86710"
     transform="translate(-5.6906,-109.13702)">
    <g
       transform="translate(32.5064,114.5842)"
       id="g86708">
      <path
         transform="scale(0.004,-0.004)"
         d="m 218,136 c 55,0 108,-28 108,-89 0,-71 -55,-121 -102,-149 -35,-21 -75,-34 -116,-34 -55,0 -108,28 -108,89 0,71 55,121 102,149 35,21 75,34 116,34 z"
         fill="currentColor"
         id="path86706" />
    </g>
  </a>
  <g
     transform="translate(28.055,5.4471847)"
     id="g86714">
    <rect
       x="-0.064999998"
       y="-3.3333001"
       width="0.13"
       height="4.1472001"
       ry="0.039999999"
       fill="currentColor"
       id="rect86712" />
  </g>
  <a
     style="color:inherit"
     xlink:href="textedit://C:/Users/Javier/AppData/Local/Temp/frescobaldi-qinprpfp/tmptsnuz2do/loose%20examples.ly:136:30:31"
     id="a86720"
     transform="translate(-5.6906,-109.13702)">
    <g
       transform="translate(17.4951,114.5842)"
       id="g86718">
      <path
         stroke-width="0.08"
         stroke-linejoin="round"
         stroke-linecap="round"
         stroke="currentColor"
         fill="currentColor"
         d="m 0.7235,3.545 c 0.9002,0.6062 2.3472,0.3652 3.0023,-0.5 v 0 C 3.051,3.7918 1.6039,4.0328 0.7235,3.545 Z"
         id="path86716" />
    </g>
  </a>
  <a
     style="color:inherit"
     xlink:href="textedit://C:/Users/Javier/AppData/Local/Temp/frescobaldi-qinprpfp/tmptsnuz2do/loose%20examples.ly:136:44:45"
     id="a86726"
     transform="translate(-5.6906,-109.13702)">
    <g
       transform="translate(23.4996,114.5842)"
       id="g86724">
      <path
         stroke-width="0.08"
         stroke-linejoin="round"
         stroke-linecap="round"
         stroke="currentColor"
         fill="currentColor"
         d="m 0.7235,3.045 c 0.9002,0.6062 2.3472,0.3652 3.0023,-0.5 v 0 C 3.051,3.2918 1.6039,3.5328 0.7235,3.045 Z"
         id="path86722" />
    </g>
  </a>
  <a
     style="color:inherit"
     xlink:href="textedit://C:/Users/Javier/AppData/Local/Temp/frescobaldi-qinprpfp/tmptsnuz2do/loose%20examples.ly:137:7:8"
     id="a86732"
     transform="translate(-5.6906,-109.13702)">
    <g
       transform="translate(29.5041,114.5842)"
       id="g86730">
      <path
         stroke-width="0.08"
         stroke-linejoin="round"
         stroke-linecap="round"
         stroke="currentColor"
         fill="currentColor"
         d="M 0.7024,2.545 C 1.567,3.1912 3.012,3.0228 3.7047,2.195 v 0 C 2.9981,2.9036 1.5531,3.072 0.7024,2.545 Z"
         id="path86728" />
    </g>
  </a>
  <a
     style="color:inherit"
     xlink:href="textedit://C:/Users/Javier/AppData/Local/Temp/frescobaldi-qinprpfp/tmptsnuz2do/loose%20examples.ly:137:21:22"
     id="a86738"
     transform="translate(-5.6906,-109.13702)">
    <g
       transform="translate(35.5086,114.5842)"
       id="g86736">
      <path
         stroke-width="0.08"
         stroke-linejoin="round"
         stroke-linecap="round"
         stroke="currentColor"
         fill="currentColor"
         d="m 1.6042,-1.1903 c 0.496,-0.6461 1.4626,-0.8039 2.1433,-0.35 v 0 c -0.6614,-0.3355 -1.628,-0.1776 -2.1433,0.35 z"
         id="path86734" />
    </g>
  </a>
  <a
     style="color:inherit"
     xlink:href="textedit://C:/Users/Javier/AppData/Local/Temp/frescobaldi-qinprpfp/tmptsnuz2do/loose%20examples.ly:137:35:36"
     id="a86744"
     transform="translate(-5.6906,-109.13702)">
    <g
       transform="translate(41.6742,114.5842)"
       id="g86742">
      <path
         stroke-width="0.08"
         stroke-linejoin="round"
         stroke-linecap="round"
         stroke="currentColor"
         fill="currentColor"
         d="m 0.5601,-1.545 c 0.6173,-0.9021 2.0672,-1.216 3.0023,-0.65 v 0 C 2.6527,-2.6437 1.2028,-2.3298 0.5601,-1.545 Z"
         id="path86740" />
    </g>
  </a>
  <a
     style="color:inherit"
     xlink:href="textedit://C:/Users/Javier/AppData/Local/Temp/frescobaldi-qinprpfp/tmptsnuz2do/loose%20examples.ly:137:49:50"
     id="a86750"
     transform="translate(-5.6906,-109.13702)">
    <g
       transform="translate(47.6787,114.5842)"
       id="g86748">
      <path
         stroke-width="0.08"
         stroke-linejoin="round"
         stroke-linecap="round"
         stroke="currentColor"
         fill="currentColor"
         d="m 0.6018,-2.195 c 0.6927,-0.8278 2.1376,-0.9962 3.0022,-0.35 v 0 C 2.7533,-3.072 1.3084,-2.9036 0.6018,-2.195 Z"
         id="path86746" />
    </g>
  </a>
  <g
     transform="translate(45.0554,5.4471847)"
     id="g86754">
    <rect
       x="-0.064999998"
       y="-1.3139"
       width="0.13"
       height="4.3139"
       ry="0.039999999"
       fill="currentColor"
       id="rect86752" />
  </g>
  <a
     style="color:inherit"
     xlink:href="textedit://C:/Users/Javier/AppData/Local/Temp/frescobaldi-qinprpfp/tmptsnuz2do/loose%20examples.ly:137:57:58"
     id="a86762"
     transform="translate(-1.2531385,-112.86706)">
    <g
       transform="translate(50.681,119.0685)"
       id="g86760">
      <text
         font-family="serif"
         font-size="2.2001px"
         text-anchor="start"
         fill="currentColor"
         id="text86758"><tspan
           id="tspan86756">etc.</tspan></text>
    </g>
  </a>
  <a
     style="color:inherit"
     xlink:href="textedit://C:/Users/Javier/AppData/Local/Temp/frescobaldi-qinprpfp/tmptsnuz2do/loose%20examples.ly:137:54:55"
     id="a86768"
     transform="translate(-5.6906,-109.13702)">
    <g
       transform="translate(50.681,113.0842)"
       id="g86766">
      <path
         transform="scale(0.004,-0.004)"
         d="m 218,136 c 55,0 108,-28 108,-89 0,-71 -55,-121 -102,-149 -35,-21 -75,-34 -116,-34 -55,0 -108,28 -108,89 0,71 55,121 102,149 35,21 75,34 116,34 z"
         fill="currentColor"
         id="path86764" />
    </g>
  </a>
  <a
     style="color:inherit"
     xlink:href="textedit://C:/Users/Javier/AppData/Local/Temp/frescobaldi-qinprpfp/tmptsnuz2do/loose%20examples.ly:137:52:53"
     id="a86774"
     transform="translate(-5.6906,-109.13702)">
    <g
       transform="translate(50.681,114.0842)"
       id="g86772">
      <path
         transform="scale(0.004,-0.004)"
         d="m 218,136 c 55,0 108,-28 108,-89 0,-71 -55,-121 -102,-149 -35,-21 -75,-34 -116,-34 -55,0 -108,28 -108,89 0,71 55,121 102,149 35,21 75,34 116,34 z"
         fill="currentColor"
         id="path86770" />
    </g>
  </a>
  <a
     style="color:inherit"
     xlink:href="textedit://C:/Users/Javier/AppData/Local/Temp/frescobaldi-qinprpfp/tmptsnuz2do/loose%20examples.ly:136:8:9"
     id="a86780"
     transform="translate(-5.6906,-109.13702)">
    <g
       transform="translate(11.4906,114.5842)"
       id="g86778">
      <path
         stroke-width="0.08"
         stroke-linejoin="round"
         stroke-linecap="round"
         stroke="currentColor"
         fill="currentColor"
         d="m 0.7235,4.045 c 0.9002,0.6062 2.3472,0.3652 3.0023,-0.5 v 0 C 3.051,4.2918 1.6039,4.5328 0.7235,4.045 Z"
         id="path86776" />
    </g>
  </a>
  <g
     transform="translate(42.0531,5.4471847)"
     id="g86784">
    <rect
       x="-0.064999998"
       y="-0.81389999"
       width="0.13"
       height="4.1472001"
       ry="0.039999999"
       fill="currentColor"
       id="rect86782" />
  </g>
  <a
     style="color:inherit"
     xlink:href="textedit://C:/Users/Javier/AppData/Local/Temp/frescobaldi-qinprpfp/tmptsnuz2do/loose%20examples.ly:137:47:48"
     id="a86790"
     transform="translate(-5.6906,-109.13702)">
    <g
       transform="translate(47.6787,113.5842)"
       id="g86788">
      <path
         transform="scale(0.004,-0.004)"
         d="m 218,136 c 55,0 108,-28 108,-89 0,-71 -55,-121 -102,-149 -35,-21 -75,-34 -116,-34 -55,0 -108,28 -108,89 0,71 55,121 102,149 35,21 75,34 116,34 z"
         fill="currentColor"
         id="path86786" />
    </g>
  </a>
  <a
     style="color:inherit"
     xlink:href="textedit://C:/Users/Javier/AppData/Local/Temp/frescobaldi-qinprpfp/tmptsnuz2do/loose%20examples.ly:137:45:46"
     id="a86796"
     transform="translate(-5.6906,-109.13702)">
    <g
       transform="translate(47.6787,114.5842)"
       id="g86794">
      <path
         transform="scale(0.004,-0.004)"
         d="m 218,136 c 55,0 108,-28 108,-89 0,-71 -55,-121 -102,-149 -35,-21 -75,-34 -116,-34 -55,0 -108,28 -108,89 0,71 55,121 102,149 35,21 75,34 116,34 z"
         fill="currentColor"
         id="path86792" />
    </g>
  </a>
  <g
     transform="translate(39.0509,5.4471847)"
     id="g86800">
    <rect
       x="-0.064999998"
       y="-0.81389999"
       width="0.13"
       height="4.1472001"
       ry="0.039999999"
       fill="currentColor"
       id="rect86798" />
  </g>
  <a
     style="color:inherit"
     xlink:href="textedit://C:/Users/Javier/AppData/Local/Temp/frescobaldi-qinprpfp/tmptsnuz2do/loose%20examples.ly:137:40:41"
     id="a86806"
     transform="translate(-5.6906,-109.13702)">
    <g
       transform="translate(44.6765,113.5842)"
       id="g86804">
      <path
         transform="scale(0.004,-0.004)"
         d="m 218,136 c 55,0 108,-28 108,-89 0,-71 -55,-121 -102,-149 -35,-21 -75,-34 -116,-34 -55,0 -108,28 -108,89 0,71 55,121 102,149 35,21 75,34 116,34 z"
         fill="currentColor"
         id="path86802" />
    </g>
  </a>
  <a
     style="color:inherit"
     xlink:href="textedit://C:/Users/Javier/AppData/Local/Temp/frescobaldi-qinprpfp/tmptsnuz2do/loose%20examples.ly:137:38:39"
     id="a86812"
     transform="translate(-5.6906,-109.13702)">
    <g
       transform="translate(44.6765,114.5842)"
       id="g86810">
      <path
         transform="scale(0.004,-0.004)"
         d="m 218,136 c 55,0 108,-28 108,-89 0,-71 -55,-121 -102,-149 -35,-21 -75,-34 -116,-34 -55,0 -108,28 -108,89 0,71 55,121 102,149 35,21 75,34 116,34 z"
         fill="currentColor"
         id="path86808" />
    </g>
  </a>
  <g
     transform="translate(36.0486,5.4471847)"
     id="g86816">
    <rect
       x="-0.064999998"
       y="-0.31389999"
       width="0.13"
       height="3.9806001"
       ry="0.039999999"
       fill="currentColor"
       id="rect86814" />
  </g>
  <a
     style="color:inherit"
     xlink:href="textedit://C:/Users/Javier/AppData/Local/Temp/frescobaldi-qinprpfp/tmptsnuz2do/loose%20examples.ly:137:33:34"
     id="a86822"
     transform="translate(-5.6906,-109.13702)">
    <g
       transform="translate(41.6742,114.0842)"
       id="g86820">
      <path
         transform="scale(0.004,-0.004)"
         d="m 218,136 c 55,0 108,-28 108,-89 0,-71 -55,-121 -102,-149 -35,-21 -75,-34 -116,-34 -55,0 -108,28 -108,89 0,71 55,121 102,149 35,21 75,34 116,34 z"
         fill="currentColor"
         id="path86818" />
    </g>
  </a>
  <a
     style="color:inherit"
     xlink:href="textedit://C:/Users/Javier/AppData/Local/Temp/frescobaldi-qinprpfp/tmptsnuz2do/loose%20examples.ly:137:31:32"
     id="a86828"
     transform="translate(-5.6906,-109.13702)">
    <g
       transform="translate(41.6742,115.0842)"
       id="g86826">
      <path
         transform="scale(0.004,-0.004)"
         d="m 218,136 c 55,0 108,-28 108,-89 0,-71 -55,-121 -102,-149 -35,-21 -75,-34 -116,-34 -55,0 -108,28 -108,89 0,71 55,121 102,149 35,21 75,34 116,34 z"
         fill="currentColor"
         id="path86824" />
    </g>
  </a>
  <a
     style="color:inherit"
     xlink:href="textedit://C:/Users/Javier/AppData/Local/Temp/frescobaldi-qinprpfp/tmptsnuz2do/loose%20examples.ly:136:15:16"
     id="a86834"
     transform="translate(-5.6906,-109.13702)">
    <g
       transform="translate(14.4928,117.0842)"
       id="g86832">
      <path
         transform="scale(0.004,-0.004)"
         d="m 218,136 c 55,0 108,-28 108,-89 0,-71 -55,-121 -102,-149 -35,-21 -75,-34 -116,-34 -55,0 -108,28 -108,89 0,71 55,121 102,149 35,21 75,34 116,34 z"
         fill="currentColor"
         id="path86830" />
    </g>
  </a>
  <a
     style="color:inherit"
     xlink:href="textedit://C:/Users/Javier/AppData/Local/Temp/frescobaldi-qinprpfp/tmptsnuz2do/loose%20examples.ly:136:17:18"
     id="a86840"
     transform="translate(-5.6906,-109.13702)">
    <g
       transform="translate(14.4928,116.0842)"
       id="g86838">
      <path
         transform="scale(0.004,-0.004)"
         d="m 218,136 c 55,0 108,-28 108,-89 0,-71 -55,-121 -102,-149 -35,-21 -75,-34 -116,-34 -55,0 -108,28 -108,89 0,71 55,121 102,149 35,21 75,34 116,34 z"
         fill="currentColor"
         id="path86836" />
    </g>
  </a>
  <a
     style="color:inherit"
     xlink:href="textedit://C:/Users/Javier/AppData/Local/Temp/frescobaldi-qinprpfp/tmptsnuz2do/loose%20examples.ly:136:22:23"
     id="a86846"
     transform="translate(-5.6906,-109.13702)">
    <g
       transform="translate(14.7181,110.4075)"
       id="g86844">
      <path
         transform="scale(0.0022,-0.0022)"
         d="m 129,149 h 7 c 36,0 74,-13 111,-40 19,-14 40,-21 59,-21 22,0 40,10 46,31 2,7 7,11 13,11 7,0 15,-5 15,-14 v -5 C 361,40 296,0 234,0 196,0 159,15 133,47 121,62 105,69 89,69 60,69 32,48 29,13 28,4 22,0 15,0 8,0 0,5 0,14 c 0,173 233,163 233,341 0,56 -14,116 -62,116 -33,0 -66,-15 -66,-44 0,-24 31,-37 31,-61 0,-34 -27,-61 -61,-61 -34,0 -61,27 -61,61 0,78 74,134 157,134 98,0 191,-55 191,-145 C 362,211 227,199 129,149 Z"
         fill="currentColor"
         id="path86842" />
    </g>
  </a>
  <a
     style="color:inherit"
     xlink:href="textedit://C:/Users/Javier/AppData/Local/Temp/frescobaldi-qinprpfp/tmptsnuz2do/loose%20examples.ly:136:20:21"
     id="a86852"
     transform="translate(-5.6906,-109.13702)">
    <g
       transform="translate(14.684,112.0342)"
       id="g86850">
      <path
         transform="scale(0.0022,-0.0022)"
         d="m 198,284 c 24,15 48,29 65,52 12,16 19,34 28,52 2,5 6,7 11,7 8,0 16,-6 16,-17 V 161 h 79 c 12,0 18,-9 18,-18 0,-9 -6,-18 -18,-18 h -79 c 2,-51 33,-96 80,-96 10,0 15,-8 15,-15 C 413,7 408,0 398,0 349,0 302,14 253,14 204,14 156,0 107,0 97,0 93,7 93,14 c 0,7 4,15 14,15 47,0 79,45 81,96 H 36 c -29,0 -38,17 -38,28 0,3 1,6 2,8 78,88 123,201 123,319 0,11 8,21 17,21 1,0 3,-1 4,-1 25,-7 50,-14 76,-14 26,0 52,7 77,14 2,1 4,1 6,1 10,0 17,-7 17,-14 0,-2 0,-5 -2,-7 L 36,161 h 152 v 96 c 0,10 1,21 10,27 z"
         fill="currentColor"
         id="path86848" />
    </g>
  </a>
  <a
     style="color:inherit"
     xlink:href="textedit://C:/Users/Javier/AppData/Local/Temp/frescobaldi-qinprpfp/tmptsnuz2do/loose%20examples.ly:136:47:48"
     id="a86858"
     transform="translate(-5.6906,-109.13702)">
    <g
       transform="translate(26.5018,116.0842)"
       id="g86856">
      <path
         transform="scale(0.004,-0.004)"
         d="m 218,136 c 55,0 108,-28 108,-89 0,-71 -55,-121 -102,-149 -35,-21 -75,-34 -116,-34 -55,0 -108,28 -108,89 0,71 55,121 102,149 35,21 75,34 116,34 z"
         fill="currentColor"
         id="path86854" />
    </g>
  </a>
  <g
     transform="translate(0.80000003,6.4471847)"
     id="g86862">
    <path
       transform="scale(0.004,-0.004)"
       d="m 266,-635 h -6 c -108,0 -195,88 -195,197 0,58 53,103 112,103 54,0 95,-47 95,-103 0,-52 -43,-95 -95,-95 -11,0 -21,2 -31,6 26,-39 68,-65 117,-65 h 4 z m 195,432 c 68,24 113,95 113,164 0,90 -66,179 -173,190 24,-116 46,-231 60,-354 z M 74,28 c 0,-135 129,-247 264,-247 28,0 55,2 82,6 C 406,-86 383,32 357,151 278,143 233,90 233,32 c 0,-44 25,-91 81,-123 5,-5 7,-10 7,-15 0,-11 -10,-22 -22,-22 -3,0 -6,1 -9,2 -80,43 -117,115 -117,185 0,88 58,174 160,197 -14,58 -29,117 -46,175 C 180,310 74,188 74,28 Z M 335,-262 C 147,-262 2,-90 2,112 c 0,177 131,306 248,441 -19,62 -37,125 -45,190 -6,52 -7,104 -7,156 0,115 55,224 149,292 6,5 14,5 20,0 71,-84 133,-245 133,-358 0,-143 -86,-255 -180,-364 21,-68 39,-138 56,-207 4,0 9,1 13,1 155,0 256,-128 256,-261 0,-76 -33,-154 -107,-210 -22,-17 -47,-28 -73,-36 3,-35 5,-70 5,-105 0,-19 -1,-39 -2,-58 -7,-119 -88,-225 -202,-228 l 1,43 c 93,2 153,92 159,191 1,18 2,37 2,55 0,31 -1,61 -4,92 -29,-5 -58,-8 -89,-8 z m 93,1178 c 0,55 -4,79 -20,129 -99,-48 -162,-149 -162,-259 0,-74 18,-133 36,-194 80,97 146,198 146,324 z"
       fill="currentColor"
       id="path86860" />
  </g>
  <a
     style="color:inherit"
     xlink:href="textedit://C:/Users/Javier/AppData/Local/Temp/frescobaldi-qinprpfp/tmptsnuz2do/loose%20examples.ly:136:3:4"
     id="a86868"
     transform="translate(-5.6906,-109.13702)">
    <g
       transform="translate(11.4906,117.5842)"
       id="g86866">
      <path
         transform="scale(0.004,-0.004)"
         d="m 218,136 c 55,0 108,-28 108,-89 0,-71 -55,-121 -102,-149 -35,-21 -75,-34 -116,-34 -55,0 -108,28 -108,89 0,71 55,121 102,149 35,21 75,34 116,34 z"
         fill="currentColor"
         id="path86864" />
    </g>
  </a>
  <a
     style="color:inherit"
     xlink:href="textedit://C:/Users/Javier/AppData/Local/Temp/frescobaldi-qinprpfp/tmptsnuz2do/loose%20examples.ly:136:5:6"
     id="a86874"
     transform="translate(-5.6906,-109.13702)">
    <g
       transform="translate(11.4906,116.5842)"
       id="g86872">
      <path
         transform="scale(0.004,-0.004)"
         d="m 218,136 c 55,0 108,-28 108,-89 0,-71 -55,-121 -102,-149 -35,-21 -75,-34 -116,-34 -55,0 -108,28 -108,89 0,71 55,121 102,149 35,21 75,34 116,34 z"
         fill="currentColor"
         id="path86870" />
    </g>
  </a>
  <a
     style="color:inherit"
     xlink:href="textedit://C:/Users/Javier/AppData/Local/Temp/frescobaldi-qinprpfp/tmptsnuz2do/loose%20examples.ly:136:11:12"
     id="a86880"
     transform="translate(-5.6906,-109.13702)">
    <g
       transform="translate(11.75,110.4075)"
       id="g86878">
      <path
         transform="scale(0.0022,-0.0022)"
         d="M 129,129 H 259 C 259,77 291,29 340,29 350,29 354,21 354,14 354,7 350,0 340,0 291,0 243,14 194,14 145,14 98,0 49,0 39,0 34,7 34,14 c 0,7 5,15 15,15 49,0 80,48 80,100 z M 0,250 129,500 c 3,7 13,3 21,0 14,-6 28,-14 44,-14 16,0 31,8 45,14 2,1 2,1 4,1 8,0 16,-9 16,-21 V 129 H 129 v 215 c 0,15 -11,23 -20,23 -5,0 -9,-2 -11,-7 L 32,233 c -4,-7 -9,-9 -15,-9 -9,0 -19,7 -19,17 0,3 0,6 2,9 z"
         fill="currentColor"
         id="path86876" />
    </g>
  </a>
  <a
     style="color:inherit"
     xlink:href="textedit://C:/Users/Javier/AppData/Local/Temp/frescobaldi-qinprpfp/tmptsnuz2do/loose%20examples.ly:136:9:10"
     id="a86886"
     transform="translate(-5.6906,-109.13702)">
    <g
       transform="translate(11.75,112.0342)"
       id="g86884">
      <path
         transform="scale(0.0022,-0.0022)"
         d="m 155,471 c -34,0 -70,-8 -70,-38 0,-19 31,-23 31,-42 0,-28 -23,-51 -51,-51 -28,0 -51,23 -51,51 0,67 68,109 141,109 93,0 174,-31 174,-113 0,-41 -6,-77 -42,-94 -11,-5 -17,-16 -17,-27 0,-11 6,-22 17,-27 40,-19 59,-53 59,-98 C 346,47 263,0 160,0 78,0 0,45 0,119 c 0,32 26,58 58,58 32,0 58,-26 58,-58 0,-22 -36,-26 -36,-48 0,-33 42,-42 80,-42 46,0 56,58 56,112 v 38 c 0,40 -4,69 -43,69 H 99 c -12,0 -18,9 -18,18 0,9 6,18 18,18 h 74 c 40,0 43,31 43,73 v 30 c 0,50 -16,84 -61,84 z"
         fill="currentColor"
         id="path86882" />
    </g>
  </a>
  <g
     transform="translate(10.0414,5.4471847)"
     id="g86890">
    <rect
       x="-0.064999998"
       y="-2"
       width="0.13"
       height="4.3139"
       ry="0.039999999"
       fill="currentColor"
       id="rect86888" />
  </g>
  <g
     transform="translate(7.0392,5.4471847)"
     id="g86894">
    <rect
       x="-0.064999998"
       y="-1.5"
       width="0.13"
       height="4.3139"
       ry="0.039999999"
       fill="currentColor"
       id="rect86892" />
  </g>
  <a
     style="color:inherit"
     xlink:href="textedit://C:/Users/Javier/AppData/Local/Temp/frescobaldi-qinprpfp/tmptsnuz2do/loose%20examples.ly:136:33:34"
     id="a86900"
     transform="translate(-5.6906,-109.13702)">
    <g
       transform="translate(20.4973,116.5842)"
       id="g86898">
      <path
         transform="scale(0.004,-0.004)"
         d="m 218,136 c 55,0 108,-28 108,-89 0,-71 -55,-121 -102,-149 -35,-21 -75,-34 -116,-34 -55,0 -108,28 -108,89 0,71 55,121 102,149 35,21 75,34 116,34 z"
         fill="currentColor"
         id="path86896" />
    </g>
  </a>
  <a
     style="color:inherit"
     xlink:href="textedit://C:/Users/Javier/AppData/Local/Temp/frescobaldi-qinprpfp/tmptsnuz2do/loose%20examples.ly:136:35:36"
     id="a86906"
     transform="translate(-5.6906,-109.13702)">
    <g
       transform="translate(20.4973,115.5842)"
       id="g86904">
      <path
         transform="scale(0.004,-0.004)"
         d="m 218,136 c 55,0 108,-28 108,-89 0,-71 -55,-121 -102,-149 -35,-21 -75,-34 -116,-34 -55,0 -108,28 -108,89 0,71 55,121 102,149 35,21 75,34 116,34 z"
         fill="currentColor"
         id="path86902" />
    </g>
  </a>
  <g
     transform="translate(16.0459,5.4471847)"
     id="g86910">
    <rect
       x="-0.064999998"
       y="-2.5"
       width="0.13"
       height="4.3139"
       ry="0.039999999"
       fill="currentColor"
       id="rect86908" />
  </g>
  <a
     style="color:inherit"
     xlink:href="textedit://C:/Users/Javier/AppData/Local/Temp/frescobaldi-qinprpfp/tmptsnuz2do/loose%20examples.ly:136:40:41"
     id="a86916"
     transform="translate(-5.6906,-109.13702)">
    <g
       transform="translate(23.4996,116.5842)"
       id="g86914">
      <path
         transform="scale(0.004,-0.004)"
         d="m 218,136 c 55,0 108,-28 108,-89 0,-71 -55,-121 -102,-149 -35,-21 -75,-34 -116,-34 -55,0 -108,28 -108,89 0,71 55,121 102,149 35,21 75,34 116,34 z"
         fill="currentColor"
         id="path86912" />
    </g>
  </a>
  <a
     style="color:inherit"
     xlink:href="textedit://C:/Users/Javier/AppData/Local/Temp/frescobaldi-qinprpfp/tmptsnuz2do/loose%20examples.ly:136:42:43"
     id="a86922"
     transform="translate(-5.6906,-109.13702)">
    <g
       transform="translate(23.4996,115.5842)"
       id="g86920">
      <path
         transform="scale(0.004,-0.004)"
         d="m 218,136 c 55,0 108,-28 108,-89 0,-71 -55,-121 -102,-149 -35,-21 -75,-34 -116,-34 -55,0 -108,28 -108,89 0,71 55,121 102,149 35,21 75,34 116,34 z"
         fill="currentColor"
         id="path86918" />
    </g>
  </a>
  <g
     transform="translate(19.0482,5.4471847)"
     id="g86926">
    <rect
       x="-0.064999998"
       y="-2.5"
       width="0.13"
       height="4.3139"
       ry="0.039999999"
       fill="currentColor"
       id="rect86924" />
  </g>
  <g
     transform="translate(13.0437,5.4471847)"
     id="g86930">
    <rect
       x="-0.064999998"
       y="-2"
       width="0.13"
       height="4.3139"
       ry="0.039999999"
       fill="currentColor"
       id="rect86928" />
  </g>
  <a
     style="color:inherit"
     xlink:href="textedit://C:/Users/Javier/AppData/Local/Temp/frescobaldi-qinprpfp/tmptsnuz2do/loose%20examples.ly:136:28:29"
     id="a86936"
     transform="translate(-5.6906,-109.13702)">
    <g
       transform="translate(17.4951,116.0842)"
       id="g86934">
      <path
         transform="scale(0.004,-0.004)"
         d="m 218,136 c 55,0 108,-28 108,-89 0,-71 -55,-121 -102,-149 -35,-21 -75,-34 -116,-34 -55,0 -108,28 -108,89 0,71 55,121 102,149 35,21 75,34 116,34 z"
         fill="currentColor"
         id="path86932" />
    </g>
  </a>
  <a
     style="color:inherit"
     xlink:href="textedit://C:/Users/Javier/AppData/Local/Temp/frescobaldi-qinprpfp/tmptsnuz2do/loose%20examples.ly:136:26:27"
     id="a86942"
     transform="translate(-5.6906,-109.13702)">
    <g
       transform="translate(17.4951,117.0842)"
       id="g86940">
      <path
         transform="scale(0.004,-0.004)"
         d="m 218,136 c 55,0 108,-28 108,-89 0,-71 -55,-121 -102,-149 -35,-21 -75,-34 -116,-34 -55,0 -108,28 -108,89 0,71 55,121 102,149 35,21 75,34 116,34 z"
         fill="currentColor"
         id="path86938" />
    </g>
  </a>
  <path
     style="fill:#000000;stroke-width:0.150563"
     d="M 10.644403,2.3783247 46.40134,0.89916466"
     id="path107323" />
  <path
     style="fill:#000000;stroke-width:0.662949;stroke-dasharray:none"
     d="m 11.362439,2.0033247 34.51535,-0.77307"
     id="path108003" />
  <path
     style="fill:#000000;stroke:#000000;stroke-width:0.0938941;stroke-dasharray:none;stroke-opacity:1"
     d="m 10.634842,2.3216447 35.424846,-0.81855"
     id="path108005" />
  <path
     style="fill:#000000;stroke:#000000;stroke-width:0.0938941;stroke-dasharray:none;stroke-opacity:1"
     d="m 10.634842,0.77550466 35.333896,-0.7276 0.0019,0.0918"
     id="path108007" />
</svg>
