<svg
   version="1.2"
   width="47.152016mm"
   height="20.062555mm"
   viewBox="0 0 26.832102 11.416702"
   id="svg4776"
   sodipodi:docname="shifting.svg"
   xmlns:inkscape="http://www.inkscape.org/namespaces/inkscape"
   xmlns:sodipodi="http://sodipodi.sourceforge.net/DTD/sodipodi-0.dtd"
   xmlns:xlink="http://www.w3.org/1999/xlink"
   xmlns="http://www.w3.org/2000/svg"
   xmlns:svg="http://www.w3.org/2000/svg">
  <defs
     id="defs4780" />
  <sodipodi:namedview
     id="namedview4778"
     pagecolor="#ffffff"
     bordercolor="#000000"
     borderopacity="0.25"
     inkscape:showpageshadow="2"
     inkscape:pageopacity="0.0"
     inkscape:pagecheckerboard="0"
     inkscape:deskcolor="#d1d1d1"
     inkscape:document-units="mm"
     showgrid="false" />
  <style
     type="text/css"
     id="style2"><![CDATA[
tspan { white-space: pre; }
]]></style>
  <!-- Page: 1/1 -->
  <g
     transform="translate(3.1967416e-8,8.064999)"
     id="g376">
    <line
       stroke-linejoin="round"
       stroke-linecap="round"
       stroke-width="0.1034"
       stroke="currentColor"
       x1="0.0517"
       y1="0"
       x2="26.780399"
       y2="0"
       id="line374" />
  </g>
  <g
     transform="translate(3.1967416e-8,6.964999)"
     id="g380">
    <line
       stroke-linejoin="round"
       stroke-linecap="round"
       stroke-width="0.1034"
       stroke="currentColor"
       x1="0.0517"
       y1="0"
       x2="26.780399"
       y2="0"
       id="line378" />
  </g>
  <g
     transform="translate(3.1967416e-8,5.864999)"
     id="g384">
    <line
       stroke-linejoin="round"
       stroke-linecap="round"
       stroke-width="0.1034"
       stroke="currentColor"
       x1="0.0517"
       y1="0"
       x2="26.780399"
       y2="0"
       id="line382" />
  </g>
  <g
     transform="translate(3.1967416e-8,4.764999)"
     id="g388">
    <line
       stroke-linejoin="round"
       stroke-linecap="round"
       stroke-width="0.1034"
       stroke="currentColor"
       x1="0.0517"
       y1="0"
       x2="26.780399"
       y2="0"
       id="line386" />
  </g>
  <g
     transform="translate(3.1967416e-8,3.664999)"
     id="g392">
    <line
       stroke-linejoin="round"
       stroke-linecap="round"
       stroke-width="0.1034"
       stroke="currentColor"
       x1="0.0517"
       y1="0"
       x2="26.780399"
       y2="0"
       id="line390" />
  </g>
  <g
     transform="translate(3.1967416e-8,1.464999)"
     id="g396">
    <rect
       x="23.891001"
       y="-0.1067"
       width="2.1536"
       height="0.21340001"
       ry="0.1067"
       fill="currentColor"
       id="rect394" />
  </g>
  <g
     transform="translate(3.1967416e-8,2.564999)"
     id="g400">
    <rect
       x="23.891001"
       y="-0.1067"
       width="2.1536"
       height="0.21340001"
       ry="0.1067"
       fill="currentColor"
       id="rect398" />
  </g>
  <g
     transform="translate(3.1967416e-8,2.564999)"
     id="g404">
    <rect
       x="21.255301"
       y="-0.1067"
       width="2.1536"
       height="0.21340001"
       ry="0.1067"
       fill="currentColor"
       id="rect402" />
  </g>
  <g
     transform="translate(3.1967416e-8,2.564999)"
     id="g408">
    <rect
       x="18.6196"
       y="-0.1067"
       width="2.1536"
       height="0.21340001"
       ry="0.1067"
       fill="currentColor"
       id="rect406" />
  </g>
  <g
     transform="translate(26.6356,5.864999)"
     id="g412">
    <rect
       x="0"
       y="-2.2"
       width="0.1965"
       height="4.4000001"
       ry="0.0000"
       fill="currentColor"
       id="rect410" />
  </g>
  <g
     transform="translate(19.0457,5.864999)"
     id="g416">
    <rect
       x="-0.067199998"
       y="-3.089"
       width="0.1345"
       height="6.8087001"
       ry="0.039999999"
       fill="currentColor"
       id="rect414" />
  </g>
  <a
     style="color:inherit"
     xlink:href="textedit://C:/Users/Javier/Documents/lilypond%20scores/shifting.ly:34:14:15"
     id="a422"
     transform="translate(-5.6906,-24.418701)">
    <g
       transform="translate(24.6691,26.9837)"
       id="g420">
      <path
         transform="scale(0.0044,-0.0044)"
         d="m 220,135 c 54,0 106,-27 106,-87 0,-71 -56,-120 -103,-148 -36,-21 -76,-35 -117,-35 -54,0 -106,27 -106,87 0,71 56,120 103,148 36,21 76,35 117,35 z"
         fill="currentColor"
         id="path418" />
    </g>
  </a>
  <a
     style="color:inherit"
     xlink:href="textedit://C:/Users/Javier/Documents/lilypond%20scores/shifting.ly:34:12:13"
     id="a428"
     transform="translate(-5.6906,-24.418701)">
    <g
       transform="translate(24.6691,29.7337)"
       id="g426">
      <path
         transform="scale(0.0044,-0.0044)"
         d="m 220,135 c 54,0 106,-27 106,-87 0,-71 -56,-120 -103,-148 -36,-21 -76,-35 -117,-35 -54,0 -106,27 -106,87 0,71 56,120 103,148 36,21 76,35 117,35 z"
         fill="currentColor"
         id="path424" />
    </g>
  </a>
  <g
     transform="translate(16.41,5.864999)"
     id="g432">
    <rect
       x="-0.067199998"
       y="-2.539"
       width="0.1345"
       height="6.5707002"
       ry="0.039999999"
       fill="currentColor"
       id="rect430" />
  </g>
  <a
     style="color:inherit"
     xlink:href="textedit://C:/Users/Javier/Documents/lilypond%20scores/shifting.ly:34:7:8"
     id="a438"
     transform="translate(-5.6906,-24.418701)">
    <g
       transform="translate(22.0334,27.5337)"
       id="g436">
      <path
         transform="scale(0.0044,-0.0044)"
         d="m 220,135 c 54,0 106,-27 106,-87 0,-71 -56,-120 -103,-148 -36,-21 -76,-35 -117,-35 -54,0 -106,27 -106,87 0,71 56,120 103,148 36,21 76,35 117,35 z"
         fill="currentColor"
         id="path434" />
    </g>
  </a>
  <a
     style="color:inherit"
     xlink:href="textedit://C:/Users/Javier/Documents/lilypond%20scores/shifting.ly:34:5:6"
     id="a444"
     transform="translate(-5.6906,-24.418701)">
    <g
       transform="translate(22.0334,30.2837)"
       id="g442">
      <path
         transform="scale(0.0044,-0.0044)"
         d="m 220,135 c 54,0 106,-27 106,-87 0,-71 -56,-120 -103,-148 -36,-21 -76,-35 -117,-35 -54,0 -106,27 -106,87 0,71 56,120 103,148 36,21 76,35 117,35 z"
         fill="currentColor"
         id="path440" />
    </g>
  </a>
  <g
     transform="translate(13.7743,5.864999)"
     id="g448">
    <rect
       x="-0.067199998"
       y="-1.989"
       width="0.1345"
       height="6.3326998"
       ry="0.039999999"
       fill="currentColor"
       id="rect446" />
  </g>
  <a
     style="color:inherit"
     xlink:href="textedit://C:/Users/Javier/Documents/lilypond%20scores/shifting.ly:33:34:35"
     id="a454"
     transform="translate(-5.6906,-24.418701)">
    <g
       transform="translate(19.3977,28.0837)"
       id="g452">
      <path
         transform="scale(0.0044,-0.0044)"
         d="m 220,135 c 54,0 106,-27 106,-87 0,-71 -56,-120 -103,-148 -36,-21 -76,-35 -117,-35 -54,0 -106,27 -106,87 0,71 56,120 103,148 36,21 76,35 117,35 z"
         fill="currentColor"
         id="path450" />
    </g>
  </a>
  <a
     style="color:inherit"
     xlink:href="textedit://C:/Users/Javier/Documents/lilypond%20scores/shifting.ly:33:32:33"
     id="a460"
     transform="translate(-5.6906,-24.418701)">
    <g
       transform="translate(19.3977,30.8337)"
       id="g458">
      <path
         transform="scale(0.0044,-0.0044)"
         d="m 220,135 c 54,0 106,-27 106,-87 0,-71 -56,-120 -103,-148 -36,-21 -76,-35 -117,-35 -54,0 -106,27 -106,87 0,71 56,120 103,148 36,21 76,35 117,35 z"
         fill="currentColor"
         id="path456" />
    </g>
  </a>
  <a
     style="color:inherit"
     xlink:href="textedit://C:/Users/Javier/Documents/lilypond%20scores/shifting.ly:33:11:12"
     id="a466"
     transform="translate(-5.6906,-24.418701)">
    <g
       transform="translate(11.4906,35.5714)"
       id="g464">
      <polygon
         stroke-linejoin="round"
         stroke-linecap="round"
         stroke-width="0.08"
         fill="currentColor"
         stroke="currentColor"
         points="18.5444,-2.424 18.5444,-1.976 0.04,0.224 0.04,-0.224 "
         id="polygon462" />
    </g>
  </a>
  <g
     transform="translate(24.3171,5.864999)"
     id="g470">
    <rect
       x="-0.067199998"
       y="-4.1890001"
       width="0.1345"
       height="7.2845998"
       ry="0.039999999"
       fill="currentColor"
       id="rect468" />
  </g>
  <a
     style="color:inherit"
     xlink:href="textedit://C:/Users/Javier/Documents/lilypond%20scores/shifting.ly:34:28:29"
     id="a476"
     transform="translate(-5.6906,-24.418701)">
    <g
       transform="translate(29.9405,25.8837)"
       id="g474">
      <path
         transform="scale(0.0044,-0.0044)"
         d="m 220,135 c 54,0 106,-27 106,-87 0,-71 -56,-120 -103,-148 -36,-21 -76,-35 -117,-35 -54,0 -106,27 -106,87 0,71 56,120 103,148 36,21 76,35 117,35 z"
         fill="currentColor"
         id="path472" />
    </g>
  </a>
  <a
     style="color:inherit"
     xlink:href="textedit://C:/Users/Javier/Documents/lilypond%20scores/shifting.ly:34:26:27"
     id="a482"
     transform="translate(-5.6906,-24.418701)">
    <g
       transform="translate(29.9405,28.6337)"
       id="g480">
      <path
         transform="scale(0.0044,-0.0044)"
         d="m 220,135 c 54,0 106,-27 106,-87 0,-71 -56,-120 -103,-148 -36,-21 -76,-35 -117,-35 -54,0 -106,27 -106,87 0,71 56,120 103,148 36,21 76,35 117,35 z"
         fill="currentColor"
         id="path478" />
    </g>
  </a>
  <g
     transform="translate(21.6814,5.864999)"
     id="g486">
    <rect
       x="-0.067199998"
       y="-3.6389999"
       width="0.1345"
       height="7.0465999"
       ry="0.039999999"
       fill="currentColor"
       id="rect484" />
  </g>
  <a
     style="color:inherit"
     xlink:href="textedit://C:/Users/Javier/Documents/lilypond%20scores/shifting.ly:34:21:22"
     id="a492"
     transform="translate(-5.6906,-24.418701)">
    <g
       transform="translate(27.3048,26.4337)"
       id="g490">
      <path
         transform="scale(0.0044,-0.0044)"
         d="m 220,135 c 54,0 106,-27 106,-87 0,-71 -56,-120 -103,-148 -36,-21 -76,-35 -117,-35 -54,0 -106,27 -106,87 0,71 56,120 103,148 36,21 76,35 117,35 z"
         fill="currentColor"
         id="path488" />
    </g>
  </a>
  <a
     style="color:inherit"
     xlink:href="textedit://C:/Users/Javier/Documents/lilypond%20scores/shifting.ly:34:19:20"
     id="a498"
     transform="translate(-5.6906,-24.418701)">
    <g
       transform="translate(27.3048,29.1837)"
       id="g496">
      <path
         transform="scale(0.0044,-0.0044)"
         d="m 220,135 c 54,0 106,-27 106,-87 0,-71 -56,-120 -103,-148 -36,-21 -76,-35 -117,-35 -54,0 -106,27 -106,87 0,71 56,120 103,148 36,21 76,35 117,35 z"
         fill="currentColor"
         id="path494" />
    </g>
  </a>
  <g
     transform="translate(5.8672,5.864999)"
     id="g502">
    <rect
       x="-0.067199998"
       y="-0.33899999"
       width="0.1345"
       height="5.6187"
       ry="0.039999999"
       fill="currentColor"
       id="rect500" />
  </g>
  <g
     transform="translate(0.80000003,6.964999)"
     id="g506">
    <path
       transform="scale(0.0044,-0.0044)"
       d="m 267,-593 -1,-41 h -5 c -108,0 -196,88 -196,196 0,58 54,104 113,104 54,0 95,-48 95,-104 0,-52 -43,-95 -95,-95 -11,0 -23,3 -34,8 26,-40 69,-68 119,-68 z m 108,854 c 5,0 9,1 14,1 155,0 255,-128 255,-260 0,-76 -33,-154 -107,-209 -22,-17 -47,-28 -73,-36 3,-35 5,-71 5,-107 0,-19 -1,-38 -2,-57 -7,-119 -87,-224 -201,-227 l 1,41 c 93,2 154,93 160,192 1,18 1,36 1,54 0,31 -1,63 -4,94 -29,-5 -58,-8 -89,-8 -188,0 -333,172 -333,373 0,177 132,307 249,441 -19,63 -35,125 -43,190 -6,51 -7,103 -7,155 0,116 56,226 150,294 5,4 13,3 18,-1 70,-84 132,-245 132,-358 0,-143 -86,-255 -181,-364 20,-69 38,-138 55,-208 z m 85,-465 c 69,24 115,96 115,165 0,91 -68,182 -176,192 25,-117 47,-233 61,-357 z M 73,30 c 0,-136 130,-250 265,-250 28,0 55,2 82,6 C 406,-87 382,32 356,152 277,143 232,90 232,32 c 0,-44 26,-91 82,-123 5,-4 6,-10 6,-15 0,-11 -9,-21 -21,-21 -3,0 -5,1 -8,2 -80,43 -117,114 -117,184 0,88 58,173 159,196 -14,59 -30,119 -46,177 C 180,311 73,190 73,30 Z m 358,885 c 0,57 -4,80 -21,132 -99,-49 -162,-150 -162,-260 0,-75 17,-135 35,-197 81,97 148,199 148,325 z"
       fill="currentColor"
       id="path504" />
  </g>
  <a
     style="color:inherit"
     xlink:href="textedit://C:/Users/Javier/Documents/lilypond%20scores/shifting.ly:33:12:13"
     id="a512"
     transform="translate(-5.6906,-24.418701)">
    <g
       transform="translate(11.7816,27.482)"
       id="g510">
      <path
         transform="scale(0.0025,-0.0025)"
         d="m 0,250 127,250 c 3,6 12,3 20,0 14,-6 28,-13 44,-13 16,0 30,7 44,13 1,1 4,1 5,1 8,0 15,-10 15,-21 V 127 c 0,-52 32,-99 80,-99 9,0 13,-7 13,-14 C 348,7 344,0 335,0 287,0 239,13 191,13 143,13 96,0 48,0 39,0 34,7 34,14 c 0,7 5,14 14,14 48,0 79,47 79,99 v 220 c 0,15 -10,22 -19,22 -5,0 -10,-1 -12,-6 L 31,234 c -3,-7 -9,-9 -15,-9 -9,0 -18,7 -18,17 0,3 1,5 2,8 z"
         fill="currentColor"
         id="path508" />
    </g>
  </a>
  <a
     style="color:inherit"
     xlink:href="textedit://C:/Users/Javier/Documents/lilypond%20scores/shifting.ly:33:14:15"
     id="a518"
     transform="translate(-5.6906,-24.418701)">
    <g
       transform="translate(11.7475,25.6687)"
       id="g516">
      <path
         transform="scale(0.0025,-0.0025)"
         d="m 125,147 h 10 c 35,0 73,-12 110,-39 19,-14 41,-22 60,-22 22,0 40,10 46,31 2,7 7,11 13,11 7,0 14,-6 14,-14 0,-1 -1,-3 -1,-4 C 358,40 295,0 233,0 195,0 159,15 133,47 121,62 104,69 88,69 59,69 31,48 28,13 27,4 21,0 14,0 7,0 0,5 0,14 c 0,174 233,163 233,341 0,57 -14,117 -63,117 -31,0 -61,-14 -61,-41 0,-25 32,-39 32,-64 0,-35 -28,-64 -63,-64 -35,0 -64,29 -64,64 0,78 74,133 156,133 98,0 191,-55 191,-145 C 361,210 223,198 125,147 Z"
         fill="currentColor"
         id="path514" />
    </g>
  </a>
  <a
     style="color:inherit"
     xlink:href="textedit://C:/Users/Javier/Documents/lilypond%20scores/shifting.ly:33:7:8"
     id="a524"
     transform="translate(-5.6906,-24.418701)">
    <g
       transform="translate(11.4906,29.7337)"
       id="g522">
      <path
         transform="scale(0.0044,-0.0044)"
         d="m 220,135 c 54,0 106,-27 106,-87 0,-71 -56,-120 -103,-148 -36,-21 -76,-35 -117,-35 -54,0 -106,27 -106,87 0,71 56,120 103,148 36,21 76,35 117,35 z"
         fill="currentColor"
         id="path520" />
    </g>
  </a>
  <a
     style="color:inherit"
     xlink:href="textedit://C:/Users/Javier/Documents/lilypond%20scores/shifting.ly:33:5:6"
     id="a530"
     transform="translate(-5.6906,-24.418701)">
    <g
       transform="translate(11.4906,32.4837)"
       id="g528">
      <path
         transform="scale(0.0044,-0.0044)"
         d="m 220,135 c 54,0 106,-27 106,-87 0,-71 -56,-120 -103,-148 -36,-21 -76,-35 -117,-35 -54,0 -106,27 -106,87 0,71 56,120 103,148 36,21 76,35 117,35 z"
         fill="currentColor"
         id="path526" />
    </g>
  </a>
  <g
     transform="translate(11.1386,5.864999)"
     id="g534">
    <rect
       x="-0.067199998"
       y="-1.439"
       width="0.1345"
       height="6.0946999"
       ry="0.039999999"
       fill="currentColor"
       id="rect532" />
  </g>
  <a
     style="color:inherit"
     xlink:href="textedit://C:/Users/Javier/Documents/lilypond%20scores/shifting.ly:33:27:28"
     id="a540"
     transform="translate(-5.6906,-24.418701)">
    <g
       transform="translate(16.762,28.6337)"
       id="g538">
      <path
         transform="scale(0.0044,-0.0044)"
         d="m 220,135 c 54,0 106,-27 106,-87 0,-71 -56,-120 -103,-148 -36,-21 -76,-35 -117,-35 -54,0 -106,27 -106,87 0,71 56,120 103,148 36,21 76,35 117,35 z"
         fill="currentColor"
         id="path536" />
    </g>
  </a>
  <a
     style="color:inherit"
     xlink:href="textedit://C:/Users/Javier/Documents/lilypond%20scores/shifting.ly:33:25:26"
     id="a546"
     transform="translate(-5.6906,-24.418701)">
    <g
       transform="translate(16.762,31.3837)"
       id="g544">
      <path
         transform="scale(0.0044,-0.0044)"
         d="m 220,135 c 54,0 106,-27 106,-87 0,-71 -56,-120 -103,-148 -36,-21 -76,-35 -117,-35 -54,0 -106,27 -106,87 0,71 56,120 103,148 36,21 76,35 117,35 z"
         fill="currentColor"
         id="path542" />
    </g>
  </a>
  <g
     transform="translate(8.5029,5.864999)"
     id="g550">
    <rect
       x="-0.067199998"
       y="-0.889"
       width="0.1345"
       height="5.8566999"
       ry="0.039999999"
       fill="currentColor"
       id="rect548" />
  </g>
  <a
     style="color:inherit"
     xlink:href="textedit://C:/Users/Javier/Documents/lilypond%20scores/shifting.ly:33:18:19"
     id="a556"
     transform="translate(-5.6906,-24.418701)">
    <g
       transform="translate(14.1263,31.9337)"
       id="g554">
      <path
         transform="scale(0.0044,-0.0044)"
         d="m 220,135 c 54,0 106,-27 106,-87 0,-71 -56,-120 -103,-148 -36,-21 -76,-35 -117,-35 -54,0 -106,27 -106,87 0,71 56,120 103,148 36,21 76,35 117,35 z"
         fill="currentColor"
         id="path552" />
    </g>
  </a>
  <a
     style="color:inherit"
     xlink:href="textedit://C:/Users/Javier/Documents/lilypond%20scores/shifting.ly:33:20:21"
     id="a562"
     transform="translate(-5.6906,-24.418701)">
    <g
       transform="translate(14.1263,29.1837)"
       id="g560">
      <path
         transform="scale(0.0044,-0.0044)"
         d="m 220,135 c 54,0 106,-27 106,-87 0,-71 -56,-120 -103,-148 -36,-21 -76,-35 -117,-35 -54,0 -106,27 -106,87 0,71 56,120 103,148 36,21 76,35 117,35 z"
         fill="currentColor"
         id="path558" />
    </g>
  </a>
</svg>
