<svg
   version="1.2"
   width="47.152016mm"
   height="28.674192mm"
   viewBox="0 0 26.832102 16.317199"
   id="svg4776"
   sodipodi:docname="shifting.svg"
   xmlns:inkscape="http://www.inkscape.org/namespaces/inkscape"
   xmlns:sodipodi="http://sodipodi.sourceforge.net/DTD/sodipodi-0.dtd"
   xmlns:xlink="http://www.w3.org/1999/xlink"
   xmlns="http://www.w3.org/2000/svg"
   xmlns:svg="http://www.w3.org/2000/svg">
  <defs
     id="defs4780" />
  <sodipodi:namedview
     id="namedview4778"
     pagecolor="#ffffff"
     bordercolor="#000000"
     borderopacity="0.25"
     inkscape:showpageshadow="2"
     inkscape:pageopacity="0.0"
     inkscape:pagecheckerboard="0"
     inkscape:deskcolor="#d1d1d1"
     inkscape:document-units="mm"
     showgrid="false" />
  <style
     type="text/css"
     id="style2"><![CDATA[
tspan { white-space: pre; }
]]></style>
  <!-- Page: 1/1 -->
  <g
     transform="translate(3.1967416e-8,14.6276)"
     id="g6">
    <line
       stroke-linejoin="round"
       stroke-linecap="round"
       stroke-width="0.1034"
       stroke="currentColor"
       x1="0.0517"
       y1="0"
       x2="26.780399"
       y2="0"
       id="line4" />
  </g>
  <g
     transform="translate(3.1967416e-8,13.5276)"
     id="g10">
    <line
       stroke-linejoin="round"
       stroke-linecap="round"
       stroke-width="0.1034"
       stroke="currentColor"
       x1="0.0517"
       y1="0"
       x2="26.780399"
       y2="0"
       id="line8" />
  </g>
  <g
     transform="translate(3.1967416e-8,12.4276)"
     id="g14">
    <line
       stroke-linejoin="round"
       stroke-linecap="round"
       stroke-width="0.1034"
       stroke="currentColor"
       x1="0.0517"
       y1="0"
       x2="26.780399"
       y2="0"
       id="line12" />
  </g>
  <g
     transform="translate(3.1967416e-8,11.3276)"
     id="g18">
    <line
       stroke-linejoin="round"
       stroke-linecap="round"
       stroke-width="0.1034"
       stroke="currentColor"
       x1="0.0517"
       y1="0"
       x2="26.780399"
       y2="0"
       id="line16" />
  </g>
  <g
     transform="translate(3.1967416e-8,10.2276)"
     id="g22">
    <line
       stroke-linejoin="round"
       stroke-linecap="round"
       stroke-width="0.1034"
       stroke="currentColor"
       x1="0.0517"
       y1="0"
       x2="26.780399"
       y2="0"
       id="line20" />
  </g>
  <g
     transform="translate(3.1967416e-8,4.7276)"
     id="g26">
    <rect
       x="23.891001"
       y="-0.1067"
       width="2.1536"
       height="0.21340001"
       ry="0.1067"
       fill="currentColor"
       id="rect24" />
  </g>
  <g
     transform="translate(3.1967416e-8,5.8276)"
     id="g30">
    <rect
       x="23.891001"
       y="-0.1067"
       width="2.1536"
       height="0.21340001"
       ry="0.1067"
       fill="currentColor"
       id="rect28" />
  </g>
  <g
     transform="translate(3.1967416e-8,6.9276)"
     id="g34">
    <rect
       x="23.891001"
       y="-0.1067"
       width="2.1536"
       height="0.21340001"
       ry="0.1067"
       fill="currentColor"
       id="rect32" />
  </g>
  <g
     transform="translate(3.1967416e-8,8.0276)"
     id="g38">
    <rect
       x="23.891001"
       y="-0.1067"
       width="2.1536"
       height="0.21340001"
       ry="0.1067"
       fill="currentColor"
       id="rect36" />
  </g>
  <g
     transform="translate(3.1967416e-8,9.1276)"
     id="g42">
    <rect
       x="23.891001"
       y="-0.1067"
       width="2.1536"
       height="0.21340001"
       ry="0.1067"
       fill="currentColor"
       id="rect40" />
  </g>
  <g
     transform="translate(3.1967416e-8,4.7276)"
     id="g46">
    <rect
       x="21.255301"
       y="-0.1067"
       width="2.1536"
       height="0.21340001"
       ry="0.1067"
       fill="currentColor"
       id="rect44" />
  </g>
  <g
     transform="translate(3.1967416e-8,5.8276)"
     id="g50">
    <rect
       x="21.255301"
       y="-0.1067"
       width="2.1536"
       height="0.21340001"
       ry="0.1067"
       fill="currentColor"
       id="rect48" />
  </g>
  <g
     transform="translate(3.1967416e-8,6.9276)"
     id="g54">
    <rect
       x="21.255301"
       y="-0.1067"
       width="2.1536"
       height="0.21340001"
       ry="0.1067"
       fill="currentColor"
       id="rect52" />
  </g>
  <g
     transform="translate(3.1967416e-8,8.0276)"
     id="g58">
    <rect
       x="21.255301"
       y="-0.1067"
       width="2.1536"
       height="0.21340001"
       ry="0.1067"
       fill="currentColor"
       id="rect56" />
  </g>
  <g
     transform="translate(3.1967416e-8,9.1276)"
     id="g62">
    <rect
       x="21.255301"
       y="-0.1067"
       width="2.1536"
       height="0.21340001"
       ry="0.1067"
       fill="currentColor"
       id="rect60" />
  </g>
  <g
     transform="translate(3.1967416e-8,5.8276)"
     id="g66">
    <rect
       x="18.6196"
       y="-0.1067"
       width="2.1536"
       height="0.21340001"
       ry="0.1067"
       fill="currentColor"
       id="rect64" />
  </g>
  <g
     transform="translate(3.1967416e-8,6.9276)"
     id="g70">
    <rect
       x="18.6196"
       y="-0.1067"
       width="2.1536"
       height="0.21340001"
       ry="0.1067"
       fill="currentColor"
       id="rect68" />
  </g>
  <g
     transform="translate(3.1967416e-8,8.0276)"
     id="g74">
    <rect
       x="18.6196"
       y="-0.1067"
       width="2.1536"
       height="0.21340001"
       ry="0.1067"
       fill="currentColor"
       id="rect72" />
  </g>
  <g
     transform="translate(3.1967416e-8,9.1276)"
     id="g78">
    <rect
       x="18.6196"
       y="-0.1067"
       width="2.1536"
       height="0.21340001"
       ry="0.1067"
       fill="currentColor"
       id="rect76" />
  </g>
  <g
     transform="translate(3.1967416e-8,5.8276)"
     id="g82">
    <rect
       x="15.9839"
       y="-0.1067"
       width="2.1536"
       height="0.21340001"
       ry="0.1067"
       fill="currentColor"
       id="rect80" />
  </g>
  <g
     transform="translate(3.1967416e-8,6.9276)"
     id="g86">
    <rect
       x="15.9839"
       y="-0.1067"
       width="2.1536"
       height="0.21340001"
       ry="0.1067"
       fill="currentColor"
       id="rect84" />
  </g>
  <g
     transform="translate(3.1967416e-8,8.0276)"
     id="g90">
    <rect
       x="15.9839"
       y="-0.1067"
       width="2.1536"
       height="0.21340001"
       ry="0.1067"
       fill="currentColor"
       id="rect88" />
  </g>
  <g
     transform="translate(3.1967416e-8,9.1276)"
     id="g94">
    <rect
       x="15.9839"
       y="-0.1067"
       width="2.1536"
       height="0.21340001"
       ry="0.1067"
       fill="currentColor"
       id="rect92" />
  </g>
  <g
     transform="translate(3.1967416e-8,6.9276)"
     id="g98">
    <rect
       x="13.3482"
       y="-0.1067"
       width="2.1536"
       height="0.21340001"
       ry="0.1067"
       fill="currentColor"
       id="rect96" />
  </g>
  <g
     transform="translate(3.1967416e-8,8.0276)"
     id="g102">
    <rect
       x="13.3482"
       y="-0.1067"
       width="2.1536"
       height="0.21340001"
       ry="0.1067"
       fill="currentColor"
       id="rect100" />
  </g>
  <g
     transform="translate(3.1967416e-8,9.1276)"
     id="g106">
    <rect
       x="13.3482"
       y="-0.1067"
       width="2.1536"
       height="0.21340001"
       ry="0.1067"
       fill="currentColor"
       id="rect104" />
  </g>
  <g
     transform="translate(3.1967416e-8,6.9276)"
     id="g110">
    <rect
       x="10.7125"
       y="-0.1067"
       width="2.1536"
       height="0.21340001"
       ry="0.1067"
       fill="currentColor"
       id="rect108" />
  </g>
  <g
     transform="translate(3.1967416e-8,8.0276)"
     id="g114">
    <rect
       x="10.7125"
       y="-0.1067"
       width="2.1536"
       height="0.21340001"
       ry="0.1067"
       fill="currentColor"
       id="rect112" />
  </g>
  <g
     transform="translate(3.1967416e-8,9.1276)"
     id="g118">
    <rect
       x="10.7125"
       y="-0.1067"
       width="2.1536"
       height="0.21340001"
       ry="0.1067"
       fill="currentColor"
       id="rect116" />
  </g>
  <g
     transform="translate(3.1967416e-8,8.0276)"
     id="g122">
    <rect
       x="8.0768003"
       y="-0.1067"
       width="2.1536"
       height="0.21340001"
       ry="0.1067"
       fill="currentColor"
       id="rect120" />
  </g>
  <g
     transform="translate(3.1967416e-8,9.1276)"
     id="g126">
    <rect
       x="8.0768003"
       y="-0.1067"
       width="2.1536"
       height="0.21340001"
       ry="0.1067"
       fill="currentColor"
       id="rect124" />
  </g>
  <g
     transform="translate(3.1967416e-8,8.0276)"
     id="g130">
    <rect
       x="5.4411001"
       y="-0.1067"
       width="2.1536"
       height="0.21340001"
       ry="0.1067"
       fill="currentColor"
       id="rect128" />
  </g>
  <g
     transform="translate(3.1967416e-8,9.1276)"
     id="g134">
    <rect
       x="5.4411001"
       y="-0.1067"
       width="2.1536"
       height="0.21340001"
       ry="0.1067"
       fill="currentColor"
       id="rect132" />
  </g>
  <g
     transform="translate(26.6356,12.4276)"
     id="g138">
    <rect
       x="0"
       y="-2.2"
       width="0.1965"
       height="4.4000001"
       ry="0.0000"
       fill="currentColor"
       id="rect136" />
  </g>
  <a
     style="color:inherit"
     xlink:href="textedit://C:/Users/Javier/Documents/lilypond%20scores/shifting.ly:23:16:17"
     id="a144"
     transform="translate(-5.6906,-3.8561)">
    <g
       transform="translate(24.6691,12.9837)"
       id="g142">
      <path
         transform="scale(0.0044,-0.0044)"
         d="m 220,135 c 54,0 106,-27 106,-87 0,-71 -56,-120 -103,-148 -36,-21 -76,-35 -117,-35 -54,0 -106,27 -106,87 0,71 56,120 103,148 36,21 76,35 117,35 z"
         fill="currentColor"
         id="path140" />
    </g>
  </a>
  <a
     style="color:inherit"
     xlink:href="textedit://C:/Users/Javier/Documents/lilypond%20scores/shifting.ly:23:18:19"
     id="a150"
     transform="translate(-5.6906,-3.8561)">
    <g
       transform="translate(24.6691,9.1337)"
       id="g148">
      <path
         transform="scale(0.0044,-0.0044)"
         d="m 220,135 c 54,0 106,-27 106,-87 0,-71 -56,-120 -103,-148 -36,-21 -76,-35 -117,-35 -54,0 -106,27 -106,87 0,71 56,120 103,148 36,21 76,35 117,35 z"
         fill="currentColor"
         id="path146" />
    </g>
  </a>
  <a
     style="color:inherit"
     xlink:href="textedit://C:/Users/Javier/Documents/lilypond%20scores/shifting.ly:23:23:24"
     id="a156"
     transform="translate(-5.6906,-3.8561)">
    <g
       transform="translate(24.8748,6.2086)"
       id="g154">
      <path
         transform="scale(0.0025,-0.0025)"
         d="m 199,287 c 23,15 47,31 64,53 12,16 19,33 28,51 2,4 7,7 11,7 7,0 15,-6 15,-17 V 160 h 78 c 12,0 17,-9 17,-18 0,-9 -5,-17 -17,-17 h -78 c 1,-51 32,-97 79,-97 9,0 14,-7 14,-14 C 410,7 405,0 396,0 348,0 301,13 253,13 205,13 158,0 110,0 101,0 96,7 96,14 c 0,7 5,14 14,14 47,0 78,46 79,97 H 35 c -28,0 -37,16 -37,27 0,3 1,6 2,8 78,89 126,201 126,320 0,11 7,20 16,20 h 3 c 25,-7 50,-13 76,-13 26,0 51,6 76,13 2,1 4,1 6,1 10,0 16,-7 16,-14 0,-2 0,-5 -2,-7 L 35,160 h 154 v 101 c 0,10 2,21 10,26 z"
         fill="currentColor"
         id="path152" />
    </g>
  </a>
  <a
     style="color:inherit"
     xlink:href="textedit://C:/Users/Javier/Documents/lilypond%20scores/shifting.ly:23:21:22"
     id="a162"
     transform="translate(-5.6906,-3.8561)">
    <g
       transform="translate(24.926,7.9877)"
       id="g160">
      <path
         transform="scale(0.0025,-0.0025)"
         d="m 125,147 h 10 c 35,0 73,-12 110,-39 19,-14 41,-22 60,-22 22,0 40,10 46,31 2,7 7,11 13,11 7,0 14,-6 14,-14 0,-1 -1,-3 -1,-4 C 358,40 295,0 233,0 195,0 159,15 133,47 121,62 104,69 88,69 59,69 31,48 28,13 27,4 21,0 14,0 7,0 0,5 0,14 c 0,174 233,163 233,341 0,57 -14,117 -63,117 -31,0 -61,-14 -61,-41 0,-25 32,-39 32,-64 0,-35 -28,-64 -63,-64 -35,0 -64,29 -64,64 0,78 74,133 156,133 98,0 191,-55 191,-145 C 361,210 223,198 125,147 Z"
         fill="currentColor"
         id="path158" />
    </g>
  </a>
  <g
     transform="translate(19.0457,12.4276)"
     id="g166">
    <rect
       x="-0.067199998"
       y="-6.9390001"
       width="0.1345"
       height="7.6613002"
       ry="0.039999999"
       fill="currentColor"
       id="rect164" />
  </g>
  <g
     transform="translate(16.41,12.4276)"
     id="g170">
    <rect
       x="-0.067199998"
       y="-6.3889999"
       width="0.1345"
       height="7.3631001"
       ry="0.039999999"
       fill="currentColor"
       id="rect168" />
  </g>
  <a
     style="color:inherit"
     xlink:href="textedit://C:/Users/Javier/Documents/lilypond%20scores/shifting.ly:23:10:11"
     id="a176"
     transform="translate(-5.6906,-3.8561)">
    <g
       transform="translate(22.3244,8.5377)"
       id="g174">
      <path
         transform="scale(0.0025,-0.0025)"
         d="m 0,250 127,250 c 3,6 12,3 20,0 14,-6 28,-13 44,-13 16,0 30,7 44,13 1,1 4,1 5,1 8,0 15,-10 15,-21 V 127 c 0,-52 32,-99 80,-99 9,0 13,-7 13,-14 C 348,7 344,0 335,0 287,0 239,13 191,13 143,13 96,0 48,0 39,0 34,7 34,14 c 0,7 5,14 14,14 48,0 79,47 79,99 v 220 c 0,15 -10,22 -19,22 -5,0 -10,-1 -12,-6 L 31,234 c -3,-7 -9,-9 -15,-9 -9,0 -18,7 -18,17 0,3 1,5 2,8 z"
         fill="currentColor"
         id="path172" />
    </g>
  </a>
  <a
     style="color:inherit"
     xlink:href="textedit://C:/Users/Javier/Documents/lilypond%20scores/shifting.ly:23:12:13"
     id="a182"
     transform="translate(-5.6906,-3.8561)">
    <g
       transform="translate(22.3244,6.7244)"
       id="g180">
      <path
         transform="scale(0.0025,-0.0025)"
         d="m 155,472 c -33,0 -68,-8 -68,-36 0,-20 33,-24 33,-44 0,-29 -24,-53 -53,-53 -29,0 -53,24 -53,53 0,66 69,108 141,108 93,0 173,-31 173,-113 0,-41 -7,-78 -43,-95 -11,-5 -16,-16 -16,-26 0,-10 5,-21 16,-26 40,-19 59,-54 59,-99 C 344,47 261,0 159,0 78,0 0,44 0,118 c 0,34 27,61 61,61 34,0 60,-27 60,-61 0,-23 -37,-27 -37,-50 0,-31 39,-40 75,-40 47,0 57,59 57,113 v 35 c 0,42 -4,73 -44,73 H 97 c -12,0 -17,8 -17,17 0,9 5,17 17,17 h 75 c 41,0 44,33 44,77 v 27 c 0,51 -15,85 -61,85 z"
         fill="currentColor"
         id="path178" />
    </g>
  </a>
  <a
     style="color:inherit"
     xlink:href="textedit://C:/Users/Javier/Documents/lilypond%20scores/shifting.ly:23:7:8"
     id="a188"
     transform="translate(-5.6906,-3.8561)">
    <g
       transform="translate(22.0334,9.6837)"
       id="g186">
      <path
         transform="scale(0.0044,-0.0044)"
         d="m 220,135 c 54,0 106,-27 106,-87 0,-71 -56,-120 -103,-148 -36,-21 -76,-35 -117,-35 -54,0 -106,27 -106,87 0,71 56,120 103,148 36,21 76,35 117,35 z"
         fill="currentColor"
         id="path184" />
    </g>
  </a>
  <a
     style="color:inherit"
     xlink:href="textedit://C:/Users/Javier/Documents/lilypond%20scores/shifting.ly:23:5:6"
     id="a194"
     transform="translate(-5.6906,-3.8561)">
    <g
       transform="translate(22.0334,13.5337)"
       id="g192">
      <path
         transform="scale(0.0044,-0.0044)"
         d="m 220,135 c 54,0 106,-27 106,-87 0,-71 -56,-120 -103,-148 -36,-21 -76,-35 -117,-35 -54,0 -106,27 -106,87 0,71 56,120 103,148 36,21 76,35 117,35 z"
         fill="currentColor"
         id="path190" />
    </g>
  </a>
  <a
     style="color:inherit"
     xlink:href="textedit://C:/Users/Javier/Documents/lilypond%20scores/shifting.ly:22:12:13"
     id="a200"
     transform="translate(-5.6906,-3.8561)">
    <g
       transform="translate(11.4906,18.2714)"
       id="g198">
      <polygon
         stroke-linejoin="round"
         stroke-linecap="round"
         stroke-width="0.08"
         fill="currentColor"
         stroke="currentColor"
         points="18.5444,-1.9994 18.5444,-1.5514 0.04,0.224 0.04,-0.224 "
         id="polygon196" />
    </g>
  </a>
  <g
     transform="translate(24.3171,12.4276)"
     id="g204">
    <rect
       x="-0.067199998"
       y="-8.0389996"
       width="0.1345"
       height="8.2577"
       ry="0.039999999"
       fill="currentColor"
       id="rect202" />
  </g>
  <a
     style="color:inherit"
     xlink:href="textedit://C:/Users/Javier/Documents/lilypond%20scores/shifting.ly:23:44:45"
     id="a210"
     transform="translate(-5.6906,-3.8561)">
    <g
       transform="translate(30.1974,6.8877)"
       id="g208">
      <path
         transform="scale(0.0025,-0.0025)"
         d="m 125,147 h 10 c 35,0 73,-12 110,-39 19,-14 41,-22 60,-22 22,0 40,10 46,31 2,7 7,11 13,11 7,0 14,-6 14,-14 0,-1 -1,-3 -1,-4 C 358,40 295,0 233,0 195,0 159,15 133,47 121,62 104,69 88,69 59,69 31,48 28,13 27,4 21,0 14,0 7,0 0,5 0,14 c 0,174 233,163 233,341 0,57 -14,117 -63,117 -31,0 -61,-14 -61,-41 0,-25 32,-39 32,-64 0,-35 -28,-64 -63,-64 -35,0 -64,29 -64,64 0,78 74,133 156,133 98,0 191,-55 191,-145 C 361,210 223,198 125,147 Z"
         fill="currentColor"
         id="path206" />
    </g>
  </a>
  <a
     style="color:inherit"
     xlink:href="textedit://C:/Users/Javier/Documents/lilypond%20scores/shifting.ly:23:46:47"
     id="a216"
     transform="translate(-5.6906,-3.8561)">
    <g
       transform="translate(30.1462,5.1086)"
       id="g214">
      <path
         transform="scale(0.0025,-0.0025)"
         d="m 199,287 c 23,15 47,31 64,53 12,16 19,33 28,51 2,4 7,7 11,7 7,0 15,-6 15,-17 V 160 h 78 c 12,0 17,-9 17,-18 0,-9 -5,-17 -17,-17 h -78 c 1,-51 32,-97 79,-97 9,0 14,-7 14,-14 C 410,7 405,0 396,0 348,0 301,13 253,13 205,13 158,0 110,0 101,0 96,7 96,14 c 0,7 5,14 14,14 47,0 78,46 79,97 H 35 c -28,0 -37,16 -37,27 0,3 1,6 2,8 78,89 126,201 126,320 0,11 7,20 16,20 h 3 c 25,-7 50,-13 76,-13 26,0 51,6 76,13 2,1 4,1 6,1 10,0 16,-7 16,-14 0,-2 0,-5 -2,-7 L 35,160 h 154 v 101 c 0,10 2,21 10,26 z"
         fill="currentColor"
         id="path212" />
    </g>
  </a>
  <a
     style="color:inherit"
     xlink:href="textedit://C:/Users/Javier/Documents/lilypond%20scores/shifting.ly:23:40:41"
     id="a222"
     transform="translate(-5.6906,-3.8561)">
    <g
       transform="translate(29.9405,8.0337)"
       id="g220">
      <path
         transform="scale(0.0044,-0.0044)"
         d="m 220,135 c 54,0 106,-27 106,-87 0,-71 -56,-120 -103,-148 -36,-21 -76,-35 -117,-35 -54,0 -106,27 -106,87 0,71 56,120 103,148 36,21 76,35 117,35 z"
         fill="currentColor"
         id="path218" />
    </g>
  </a>
  <a
     style="color:inherit"
     xlink:href="textedit://C:/Users/Javier/Documents/lilypond%20scores/shifting.ly:23:38:39"
     id="a228"
     transform="translate(-5.6906,-3.8561)">
    <g
       transform="translate(29.9405,11.8837)"
       id="g226">
      <path
         transform="scale(0.0044,-0.0044)"
         d="m 220,135 c 54,0 106,-27 106,-87 0,-71 -56,-120 -103,-148 -36,-21 -76,-35 -117,-35 -54,0 -106,27 -106,87 0,71 56,120 103,148 36,21 76,35 117,35 z"
         fill="currentColor"
         id="path224" />
    </g>
  </a>
  <g
     transform="translate(21.6814,12.4276)"
     id="g232">
    <rect
       x="-0.067199998"
       y="-7.4889998"
       width="0.1345"
       height="7.9594998"
       ry="0.039999999"
       fill="currentColor"
       id="rect230" />
  </g>
  <a
     style="color:inherit"
     xlink:href="textedit://C:/Users/Javier/Documents/lilypond%20scores/shifting.ly:23:32:33"
     id="a238"
     transform="translate(-5.6906,-3.8561)">
    <g
       transform="translate(27.5958,7.4377)"
       id="g236">
      <path
         transform="scale(0.0025,-0.0025)"
         d="m 0,250 127,250 c 3,6 12,3 20,0 14,-6 28,-13 44,-13 16,0 30,7 44,13 1,1 4,1 5,1 8,0 15,-10 15,-21 V 127 c 0,-52 32,-99 80,-99 9,0 13,-7 13,-14 C 348,7 344,0 335,0 287,0 239,13 191,13 143,13 96,0 48,0 39,0 34,7 34,14 c 0,7 5,14 14,14 48,0 79,47 79,99 v 220 c 0,15 -10,22 -19,22 -5,0 -10,-1 -12,-6 L 31,234 c -3,-7 -9,-9 -15,-9 -9,0 -18,7 -18,17 0,3 1,5 2,8 z"
         fill="currentColor"
         id="path234" />
    </g>
  </a>
  <a
     style="color:inherit"
     xlink:href="textedit://C:/Users/Javier/Documents/lilypond%20scores/shifting.ly:23:34:35"
     id="a244"
     transform="translate(-5.6906,-3.8561)">
    <g
       transform="translate(27.5958,5.6244)"
       id="g242">
      <path
         transform="scale(0.0025,-0.0025)"
         d="m 155,472 c -33,0 -68,-8 -68,-36 0,-20 33,-24 33,-44 0,-29 -24,-53 -53,-53 -29,0 -53,24 -53,53 0,66 69,108 141,108 93,0 173,-31 173,-113 0,-41 -7,-78 -43,-95 -11,-5 -16,-16 -16,-26 0,-10 5,-21 16,-26 40,-19 59,-54 59,-99 C 344,47 261,0 159,0 78,0 0,44 0,118 c 0,34 27,61 61,61 34,0 60,-27 60,-61 0,-23 -37,-27 -37,-50 0,-31 39,-40 75,-40 47,0 57,59 57,113 v 35 c 0,42 -4,73 -44,73 H 97 c -12,0 -17,8 -17,17 0,9 5,17 17,17 h 75 c 41,0 44,33 44,77 v 27 c 0,51 -15,85 -61,85 z"
         fill="currentColor"
         id="path240" />
    </g>
  </a>
  <a
     style="color:inherit"
     xlink:href="textedit://C:/Users/Javier/Documents/lilypond%20scores/shifting.ly:23:29:30"
     id="a250"
     transform="translate(-5.6906,-3.8561)">
    <g
       transform="translate(27.3048,8.5837)"
       id="g248">
      <path
         transform="scale(0.0044,-0.0044)"
         d="m 220,135 c 54,0 106,-27 106,-87 0,-71 -56,-120 -103,-148 -36,-21 -76,-35 -117,-35 -54,0 -106,27 -106,87 0,71 56,120 103,148 36,21 76,35 117,35 z"
         fill="currentColor"
         id="path246" />
    </g>
  </a>
  <a
     style="color:inherit"
     xlink:href="textedit://C:/Users/Javier/Documents/lilypond%20scores/shifting.ly:23:27:28"
     id="a256"
     transform="translate(-5.6906,-3.8561)">
    <g
       transform="translate(27.3048,12.4337)"
       id="g254">
      <path
         transform="scale(0.0044,-0.0044)"
         d="m 220,135 c 54,0 106,-27 106,-87 0,-71 -56,-120 -103,-148 -36,-21 -76,-35 -117,-35 -54,0 -106,27 -106,87 0,71 56,120 103,148 36,21 76,35 117,35 z"
         fill="currentColor"
         id="path252" />
    </g>
  </a>
  <a
     style="color:inherit"
     xlink:href="textedit://C:/Users/Javier/Documents/lilypond%20scores/shifting.ly:22:19:20"
     id="a262"
     transform="translate(-5.6906,-3.8561)">
    <g
       transform="translate(14.1263,15.1837)"
       id="g260">
      <path
         transform="scale(0.0044,-0.0044)"
         d="m 220,135 c 54,0 106,-27 106,-87 0,-71 -56,-120 -103,-148 -36,-21 -76,-35 -117,-35 -54,0 -106,27 -106,87 0,71 56,120 103,148 36,21 76,35 117,35 z"
         fill="currentColor"
         id="path258" />
    </g>
  </a>
  <a
     style="color:inherit"
     xlink:href="textedit://C:/Users/Javier/Documents/lilypond%20scores/shifting.ly:22:21:22"
     id="a268"
     transform="translate(-5.6906,-3.8561)">
    <g
       transform="translate(14.1263,11.3337)"
       id="g266">
      <path
         transform="scale(0.0044,-0.0044)"
         d="m 220,135 c 54,0 106,-27 106,-87 0,-71 -56,-120 -103,-148 -36,-21 -76,-35 -117,-35 -54,0 -106,27 -106,87 0,71 56,120 103,148 36,21 76,35 117,35 z"
         fill="currentColor"
         id="path264" />
    </g>
  </a>
  <a
     style="color:inherit"
     xlink:href="textedit://C:/Users/Javier/Documents/lilypond%20scores/shifting.ly:22:26:27"
     id="a274"
     transform="translate(-5.6906,-3.8561)">
    <g
       transform="translate(14.332,8.4086)"
       id="g272">
      <path
         transform="scale(0.0025,-0.0025)"
         d="m 199,287 c 23,15 47,31 64,53 12,16 19,33 28,51 2,4 7,7 11,7 7,0 15,-6 15,-17 V 160 h 78 c 12,0 17,-9 17,-18 0,-9 -5,-17 -17,-17 h -78 c 1,-51 32,-97 79,-97 9,0 14,-7 14,-14 C 410,7 405,0 396,0 348,0 301,13 253,13 205,13 158,0 110,0 101,0 96,7 96,14 c 0,7 5,14 14,14 47,0 78,46 79,97 H 35 c -28,0 -37,16 -37,27 0,3 1,6 2,8 78,89 126,201 126,320 0,11 7,20 16,20 h 3 c 25,-7 50,-13 76,-13 26,0 51,6 76,13 2,1 4,1 6,1 10,0 16,-7 16,-14 0,-2 0,-5 -2,-7 L 35,160 h 154 v 101 c 0,10 2,21 10,26 z"
         fill="currentColor"
         id="path270" />
    </g>
  </a>
  <g
     transform="translate(8.5029,12.4276)"
     id="g278">
    <rect
       x="-0.067199998"
       y="-4.7389998"
       width="0.1345"
       height="6.4685001"
       ry="0.039999999"
       fill="currentColor"
       id="rect276" />
  </g>
  <a
     style="color:inherit"
     xlink:href="textedit://C:/Users/Javier/Documents/lilypond%20scores/shifting.ly:22:24:25"
     id="a284"
     transform="translate(-5.6906,-3.8561)">
    <g
       transform="translate(14.3832,10.1877)"
       id="g282">
      <path
         transform="scale(0.0025,-0.0025)"
         d="m 125,147 h 10 c 35,0 73,-12 110,-39 19,-14 41,-22 60,-22 22,0 40,10 46,31 2,7 7,11 13,11 7,0 14,-6 14,-14 0,-1 -1,-3 -1,-4 C 358,40 295,0 233,0 195,0 159,15 133,47 121,62 104,69 88,69 59,69 31,48 28,13 27,4 21,0 14,0 7,0 0,5 0,14 c 0,174 233,163 233,341 0,57 -14,117 -63,117 -31,0 -61,-14 -61,-41 0,-25 32,-39 32,-64 0,-35 -28,-64 -63,-64 -35,0 -64,29 -64,64 0,78 74,133 156,133 98,0 191,-55 191,-145 C 361,210 223,198 125,147 Z"
         fill="currentColor"
         id="path280" />
    </g>
  </a>
  <g
     transform="translate(5.8672,12.4276)"
     id="g288">
    <rect
       x="-0.067199998"
       y="-4.1890001"
       width="0.1345"
       height="6.1701999"
       ry="0.039999999"
       fill="currentColor"
       id="rect286" />
  </g>
  <g
     transform="translate(0.80000003,13.5276)"
     id="g292">
    <path
       transform="scale(0.0044,-0.0044)"
       d="m 267,-593 -1,-41 h -5 c -108,0 -196,88 -196,196 0,58 54,104 113,104 54,0 95,-48 95,-104 0,-52 -43,-95 -95,-95 -11,0 -23,3 -34,8 26,-40 69,-68 119,-68 z m 108,854 c 5,0 9,1 14,1 155,0 255,-128 255,-260 0,-76 -33,-154 -107,-209 -22,-17 -47,-28 -73,-36 3,-35 5,-71 5,-107 0,-19 -1,-38 -2,-57 -7,-119 -87,-224 -201,-227 l 1,41 c 93,2 154,93 160,192 1,18 1,36 1,54 0,31 -1,63 -4,94 -29,-5 -58,-8 -89,-8 -188,0 -333,172 -333,373 0,177 132,307 249,441 -19,63 -35,125 -43,190 -6,51 -7,103 -7,155 0,116 56,226 150,294 5,4 13,3 18,-1 70,-84 132,-245 132,-358 0,-143 -86,-255 -181,-364 20,-69 38,-138 55,-208 z m 85,-465 c 69,24 115,96 115,165 0,91 -68,182 -176,192 25,-117 47,-233 61,-357 z M 73,30 c 0,-136 130,-250 265,-250 28,0 55,2 82,6 C 406,-87 382,32 356,152 277,143 232,90 232,32 c 0,-44 26,-91 82,-123 5,-4 6,-10 6,-15 0,-11 -9,-21 -21,-21 -3,0 -5,1 -8,2 -80,43 -117,114 -117,184 0,88 58,173 159,196 -14,59 -30,119 -46,177 C 180,311 73,190 73,30 Z m 358,885 c 0,57 -4,80 -21,132 -99,-49 -162,-150 -162,-260 0,-75 17,-135 35,-197 81,97 148,199 148,325 z"
       fill="currentColor"
       id="path290" />
  </g>
  <a
     style="color:inherit"
     xlink:href="textedit://C:/Users/Javier/Documents/lilypond%20scores/shifting.ly:22:13:14"
     id="a298"
     transform="translate(-5.6906,-3.8561)">
    <g
       transform="translate(11.7816,10.7377)"
       id="g296">
      <path
         transform="scale(0.0025,-0.0025)"
         d="m 0,250 127,250 c 3,6 12,3 20,0 14,-6 28,-13 44,-13 16,0 30,7 44,13 1,1 4,1 5,1 8,0 15,-10 15,-21 V 127 c 0,-52 32,-99 80,-99 9,0 13,-7 13,-14 C 348,7 344,0 335,0 287,0 239,13 191,13 143,13 96,0 48,0 39,0 34,7 34,14 c 0,7 5,14 14,14 48,0 79,47 79,99 v 220 c 0,15 -10,22 -19,22 -5,0 -10,-1 -12,-6 L 31,234 c -3,-7 -9,-9 -15,-9 -9,0 -18,7 -18,17 0,3 1,5 2,8 z"
         fill="currentColor"
         id="path294" />
    </g>
  </a>
  <a
     style="color:inherit"
     xlink:href="textedit://C:/Users/Javier/Documents/lilypond%20scores/shifting.ly:22:15:16"
     id="a304"
     transform="translate(-5.6906,-3.8561)">
    <g
       transform="translate(11.7816,8.9244)"
       id="g302">
      <path
         transform="scale(0.0025,-0.0025)"
         d="m 155,472 c -33,0 -68,-8 -68,-36 0,-20 33,-24 33,-44 0,-29 -24,-53 -53,-53 -29,0 -53,24 -53,53 0,66 69,108 141,108 93,0 173,-31 173,-113 0,-41 -7,-78 -43,-95 -11,-5 -16,-16 -16,-26 0,-10 5,-21 16,-26 40,-19 59,-54 59,-99 C 344,47 261,0 159,0 78,0 0,44 0,118 c 0,34 27,61 61,61 34,0 60,-27 60,-61 0,-23 -37,-27 -37,-50 0,-31 39,-40 75,-40 47,0 57,59 57,113 v 35 c 0,42 -4,73 -44,73 H 97 c -12,0 -17,8 -17,17 0,9 5,17 17,17 h 75 c 41,0 44,33 44,77 v 27 c 0,51 -15,85 -61,85 z"
         fill="currentColor"
         id="path300" />
    </g>
  </a>
  <a
     style="color:inherit"
     xlink:href="textedit://C:/Users/Javier/Documents/lilypond%20scores/shifting.ly:22:8:9"
     id="a310"
     transform="translate(-5.6906,-3.8561)">
    <g
       transform="translate(11.4906,11.8837)"
       id="g308">
      <path
         transform="scale(0.0044,-0.0044)"
         d="m 220,135 c 54,0 106,-27 106,-87 0,-71 -56,-120 -103,-148 -36,-21 -76,-35 -117,-35 -54,0 -106,27 -106,87 0,71 56,120 103,148 36,21 76,35 117,35 z"
         fill="currentColor"
         id="path306" />
    </g>
  </a>
  <a
     style="color:inherit"
     xlink:href="textedit://C:/Users/Javier/Documents/lilypond%20scores/shifting.ly:22:5:6"
     id="a316"
     transform="translate(-5.6906,-3.8561)">
    <g
       transform="translate(11.4906,15.7337)"
       id="g314">
      <path
         transform="scale(0.0044,-0.0044)"
         d="m 220,135 c 54,0 106,-27 106,-87 0,-71 -56,-120 -103,-148 -36,-21 -76,-35 -117,-35 -54,0 -106,27 -106,87 0,71 56,120 103,148 36,21 76,35 117,35 z"
         fill="currentColor"
         id="path312" />
    </g>
  </a>
  <g
     transform="translate(13.7743,12.4276)"
     id="g320">
    <rect
       x="-0.067199998"
       y="-5.8390002"
       width="0.1345"
       height="7.0648999"
       ry="0.039999999"
       fill="currentColor"
       id="rect318" />
  </g>
  <a
     style="color:inherit"
     xlink:href="textedit://C:/Users/Javier/Documents/lilypond%20scores/shifting.ly:22:46:47"
     id="a326"
     transform="translate(-5.6906,-3.8561)">
    <g
       transform="translate(19.6546,9.0877)"
       id="g324">
      <path
         transform="scale(0.0025,-0.0025)"
         d="m 125,147 h 10 c 35,0 73,-12 110,-39 19,-14 41,-22 60,-22 22,0 40,10 46,31 2,7 7,11 13,11 7,0 14,-6 14,-14 0,-1 -1,-3 -1,-4 C 358,40 295,0 233,0 195,0 159,15 133,47 121,62 104,69 88,69 59,69 31,48 28,13 27,4 21,0 14,0 7,0 0,5 0,14 c 0,174 233,163 233,341 0,57 -14,117 -63,117 -31,0 -61,-14 -61,-41 0,-25 32,-39 32,-64 0,-35 -28,-64 -63,-64 -35,0 -64,29 -64,64 0,78 74,133 156,133 98,0 191,-55 191,-145 C 361,210 223,198 125,147 Z"
         fill="currentColor"
         id="path322" />
    </g>
  </a>
  <a
     style="color:inherit"
     xlink:href="textedit://C:/Users/Javier/Documents/lilypond%20scores/shifting.ly:22:48:49"
     id="a332"
     transform="translate(-5.6906,-3.8561)">
    <g
       transform="translate(19.6034,7.3086)"
       id="g330">
      <path
         transform="scale(0.0025,-0.0025)"
         d="m 199,287 c 23,15 47,31 64,53 12,16 19,33 28,51 2,4 7,7 11,7 7,0 15,-6 15,-17 V 160 h 78 c 12,0 17,-9 17,-18 0,-9 -5,-17 -17,-17 h -78 c 1,-51 32,-97 79,-97 9,0 14,-7 14,-14 C 410,7 405,0 396,0 348,0 301,13 253,13 205,13 158,0 110,0 101,0 96,7 96,14 c 0,7 5,14 14,14 47,0 78,46 79,97 H 35 c -28,0 -37,16 -37,27 0,3 1,6 2,8 78,89 126,201 126,320 0,11 7,20 16,20 h 3 c 25,-7 50,-13 76,-13 26,0 51,6 76,13 2,1 4,1 6,1 10,0 16,-7 16,-14 0,-2 0,-5 -2,-7 L 35,160 h 154 v 101 c 0,10 2,21 10,26 z"
         fill="currentColor"
         id="path328" />
    </g>
  </a>
  <a
     style="color:inherit"
     xlink:href="textedit://C:/Users/Javier/Documents/lilypond%20scores/shifting.ly:22:43:44"
     id="a338"
     transform="translate(-5.6906,-3.8561)">
    <g
       transform="translate(19.3977,10.2337)"
       id="g336">
      <path
         transform="scale(0.0044,-0.0044)"
         d="m 220,135 c 54,0 106,-27 106,-87 0,-71 -56,-120 -103,-148 -36,-21 -76,-35 -117,-35 -54,0 -106,27 -106,87 0,71 56,120 103,148 36,21 76,35 117,35 z"
         fill="currentColor"
         id="path334" />
    </g>
  </a>
  <a
     style="color:inherit"
     xlink:href="textedit://C:/Users/Javier/Documents/lilypond%20scores/shifting.ly:22:41:42"
     id="a344"
     transform="translate(-5.6906,-3.8561)">
    <g
       transform="translate(19.3977,14.0837)"
       id="g342">
      <path
         transform="scale(0.0044,-0.0044)"
         d="m 220,135 c 54,0 106,-27 106,-87 0,-71 -56,-120 -103,-148 -36,-21 -76,-35 -117,-35 -54,0 -106,27 -106,87 0,71 56,120 103,148 36,21 76,35 117,35 z"
         fill="currentColor"
         id="path340" />
    </g>
  </a>
  <a
     style="color:inherit"
     xlink:href="textedit://C:/Users/Javier/Documents/lilypond%20scores/shifting.ly:22:35:36"
     id="a350"
     transform="translate(-5.6906,-3.8561)">
    <g
       transform="translate(17.053,9.6377)"
       id="g348">
      <path
         transform="scale(0.0025,-0.0025)"
         d="m 0,250 127,250 c 3,6 12,3 20,0 14,-6 28,-13 44,-13 16,0 30,7 44,13 1,1 4,1 5,1 8,0 15,-10 15,-21 V 127 c 0,-52 32,-99 80,-99 9,0 13,-7 13,-14 C 348,7 344,0 335,0 287,0 239,13 191,13 143,13 96,0 48,0 39,0 34,7 34,14 c 0,7 5,14 14,14 48,0 79,47 79,99 v 220 c 0,15 -10,22 -19,22 -5,0 -10,-1 -12,-6 L 31,234 c -3,-7 -9,-9 -15,-9 -9,0 -18,7 -18,17 0,3 1,5 2,8 z"
         fill="currentColor"
         id="path346" />
    </g>
  </a>
  <a
     style="color:inherit"
     xlink:href="textedit://C:/Users/Javier/Documents/lilypond%20scores/shifting.ly:22:30:31"
     id="a356"
     transform="translate(-5.6906,-3.8561)">
    <g
       transform="translate(16.762,14.6337)"
       id="g354">
      <path
         transform="scale(0.0044,-0.0044)"
         d="m 220,135 c 54,0 106,-27 106,-87 0,-71 -56,-120 -103,-148 -36,-21 -76,-35 -117,-35 -54,0 -106,27 -106,87 0,71 56,120 103,148 36,21 76,35 117,35 z"
         fill="currentColor"
         id="path352" />
    </g>
  </a>
  <a
     style="color:inherit"
     xlink:href="textedit://C:/Users/Javier/Documents/lilypond%20scores/shifting.ly:22:32:33"
     id="a362"
     transform="translate(-5.6906,-3.8561)">
    <g
       transform="translate(16.762,10.7837)"
       id="g360">
      <path
         transform="scale(0.0044,-0.0044)"
         d="m 220,135 c 54,0 106,-27 106,-87 0,-71 -56,-120 -103,-148 -36,-21 -76,-35 -117,-35 -54,0 -106,27 -106,87 0,71 56,120 103,148 36,21 76,35 117,35 z"
         fill="currentColor"
         id="path358" />
    </g>
  </a>
  <a
     style="color:inherit"
     xlink:href="textedit://C:/Users/Javier/Documents/lilypond%20scores/shifting.ly:22:37:38"
     id="a368"
     transform="translate(-5.6906,-3.8561)">
    <g
       transform="translate(17.053,7.8244)"
       id="g366">
      <path
         transform="scale(0.0025,-0.0025)"
         d="m 155,472 c -33,0 -68,-8 -68,-36 0,-20 33,-24 33,-44 0,-29 -24,-53 -53,-53 -29,0 -53,24 -53,53 0,66 69,108 141,108 93,0 173,-31 173,-113 0,-41 -7,-78 -43,-95 -11,-5 -16,-16 -16,-26 0,-10 5,-21 16,-26 40,-19 59,-54 59,-99 C 344,47 261,0 159,0 78,0 0,44 0,118 c 0,34 27,61 61,61 34,0 60,-27 60,-61 0,-23 -37,-27 -37,-50 0,-31 39,-40 75,-40 47,0 57,59 57,113 v 35 c 0,42 -4,73 -44,73 H 97 c -12,0 -17,8 -17,17 0,9 5,17 17,17 h 75 c 41,0 44,33 44,77 v 27 c 0,51 -15,85 -61,85 z"
         fill="currentColor"
         id="path364" />
    </g>
  </a>
  <g
     transform="translate(11.1386,12.4276)"
     id="g372">
    <rect
       x="-0.067199998"
       y="-5.289"
       width="0.1345"
       height="6.7666998"
       ry="0.039999999"
       fill="currentColor"
       id="rect370" />
  </g>
</svg>
