<svg
   version="1.2"
   width="54.153793mm"
   height="26.636257mm"
   viewBox="0 0 30.8165 15.157501"
   id="svg4776"
   sodipodi:docname="shifting.svg"
   xmlns:inkscape="http://www.inkscape.org/namespaces/inkscape"
   xmlns:sodipodi="http://sodipodi.sourceforge.net/DTD/sodipodi-0.dtd"
   xmlns:xlink="http://www.w3.org/1999/xlink"
   xmlns="http://www.w3.org/2000/svg"
   xmlns:svg="http://www.w3.org/2000/svg">
  <defs
     id="defs4780" />
  <sodipodi:namedview
     id="namedview4778"
     pagecolor="#ffffff"
     bordercolor="#000000"
     borderopacity="0.25"
     inkscape:showpageshadow="2"
     inkscape:pageopacity="0.0"
     inkscape:pagecheckerboard="0"
     inkscape:deskcolor="#d1d1d1"
     inkscape:document-units="mm"
     showgrid="false" />
  <style
     type="text/css"
     id="style2"><![CDATA[
tspan { white-space: pre; }
]]></style>
  <!-- Page: 1/1 -->
  <g
     transform="translate(3.1967416e-8,12.590901)"
     id="g566">
    <line
       stroke-linejoin="round"
       stroke-linecap="round"
       stroke-width="0.1034"
       stroke="currentColor"
       x1="0.0517"
       y1="0"
       x2="30.764799"
       y2="0"
       id="line564" />
  </g>
  <g
     transform="translate(3.1967416e-8,11.490901)"
     id="g570">
    <line
       stroke-linejoin="round"
       stroke-linecap="round"
       stroke-width="0.1034"
       stroke="currentColor"
       x1="0.0517"
       y1="0"
       x2="30.764799"
       y2="0"
       id="line568" />
  </g>
  <g
     transform="translate(3.1967416e-8,10.390901)"
     id="g574">
    <line
       stroke-linejoin="round"
       stroke-linecap="round"
       stroke-width="0.1034"
       stroke="currentColor"
       x1="0.0517"
       y1="0"
       x2="30.764799"
       y2="0"
       id="line572" />
  </g>
  <g
     transform="translate(3.1967416e-8,9.2909013)"
     id="g578">
    <line
       stroke-linejoin="round"
       stroke-linecap="round"
       stroke-width="0.1034"
       stroke="currentColor"
       x1="0.0517"
       y1="0"
       x2="30.764799"
       y2="0"
       id="line576" />
  </g>
  <g
     transform="translate(3.1967416e-8,8.1909013)"
     id="g582">
    <line
       stroke-linejoin="round"
       stroke-linecap="round"
       stroke-width="0.1034"
       stroke="currentColor"
       x1="0.0517"
       y1="0"
       x2="30.764799"
       y2="0"
       id="line580" />
  </g>
  <g
     transform="translate(3.1967416e-8,2.6909013)"
     id="g586">
    <rect
       x="27.3773"
       y="-0.1067"
       width="2.1536"
       height="0.21340001"
       ry="0.1067"
       fill="currentColor"
       id="rect584" />
  </g>
  <g
     transform="translate(3.1967416e-8,3.7909013)"
     id="g590">
    <rect
       x="27.3773"
       y="-0.1067"
       width="2.1536"
       height="0.21340001"
       ry="0.1067"
       fill="currentColor"
       id="rect588" />
  </g>
  <g
     transform="translate(3.1967416e-8,4.8909013)"
     id="g594">
    <rect
       x="27.3773"
       y="-0.1067"
       width="2.1536"
       height="0.21340001"
       ry="0.1067"
       fill="currentColor"
       id="rect592" />
  </g>
  <g
     transform="translate(3.1967416e-8,5.9909013)"
     id="g598">
    <rect
       x="27.3773"
       y="-0.1067"
       width="2.1536"
       height="0.21340001"
       ry="0.1067"
       fill="currentColor"
       id="rect596" />
  </g>
  <g
     transform="translate(3.1967416e-8,7.0909013)"
     id="g602">
    <rect
       x="27.3773"
       y="-0.1067"
       width="2.1536"
       height="0.21340001"
       ry="0.1067"
       fill="currentColor"
       id="rect600" />
  </g>
  <g
     transform="translate(3.1967416e-8,2.6909013)"
     id="g606">
    <rect
       x="24.243601"
       y="-0.1067"
       width="2.1536"
       height="0.21340001"
       ry="0.1067"
       fill="currentColor"
       id="rect604" />
  </g>
  <g
     transform="translate(3.1967416e-8,3.7909013)"
     id="g610">
    <rect
       x="24.243601"
       y="-0.1067"
       width="2.1536"
       height="0.21340001"
       ry="0.1067"
       fill="currentColor"
       id="rect608" />
  </g>
  <g
     transform="translate(3.1967416e-8,4.8909013)"
     id="g614">
    <rect
       x="24.243601"
       y="-0.1067"
       width="2.1536"
       height="0.21340001"
       ry="0.1067"
       fill="currentColor"
       id="rect612" />
  </g>
  <g
     transform="translate(3.1967416e-8,5.9909013)"
     id="g618">
    <rect
       x="24.243601"
       y="-0.1067"
       width="2.1536"
       height="0.21340001"
       ry="0.1067"
       fill="currentColor"
       id="rect616" />
  </g>
  <g
     transform="translate(3.1967416e-8,7.0909013)"
     id="g622">
    <rect
       x="24.243601"
       y="-0.1067"
       width="2.1536"
       height="0.21340001"
       ry="0.1067"
       fill="currentColor"
       id="rect620" />
  </g>
  <g
     transform="translate(3.1967416e-8,3.7909013)"
     id="g626">
    <rect
       x="21.1098"
       y="-0.1067"
       width="2.1536"
       height="0.21340001"
       ry="0.1067"
       fill="currentColor"
       id="rect624" />
  </g>
  <g
     transform="translate(3.1967416e-8,4.8909013)"
     id="g630">
    <rect
       x="21.1098"
       y="-0.1067"
       width="2.1536"
       height="0.21340001"
       ry="0.1067"
       fill="currentColor"
       id="rect628" />
  </g>
  <g
     transform="translate(3.1967416e-8,5.9909013)"
     id="g634">
    <rect
       x="21.1098"
       y="-0.1067"
       width="2.1536"
       height="0.21340001"
       ry="0.1067"
       fill="currentColor"
       id="rect632" />
  </g>
  <g
     transform="translate(3.1967416e-8,7.0909013)"
     id="g638">
    <rect
       x="21.1098"
       y="-0.1067"
       width="2.1536"
       height="0.21340001"
       ry="0.1067"
       fill="currentColor"
       id="rect636" />
  </g>
  <g
     transform="translate(3.1967416e-8,3.7909013)"
     id="g642">
    <rect
       x="17.976101"
       y="-0.1067"
       width="2.1536"
       height="0.21340001"
       ry="0.1067"
       fill="currentColor"
       id="rect640" />
  </g>
  <g
     transform="translate(3.1967416e-8,4.8909013)"
     id="g646">
    <rect
       x="17.976101"
       y="-0.1067"
       width="2.1536"
       height="0.21340001"
       ry="0.1067"
       fill="currentColor"
       id="rect644" />
  </g>
  <g
     transform="translate(3.1967416e-8,5.9909013)"
     id="g650">
    <rect
       x="17.976101"
       y="-0.1067"
       width="2.1536"
       height="0.21340001"
       ry="0.1067"
       fill="currentColor"
       id="rect648" />
  </g>
  <g
     transform="translate(3.1967416e-8,7.0909013)"
     id="g654">
    <rect
       x="17.976101"
       y="-0.1067"
       width="2.1536"
       height="0.21340001"
       ry="0.1067"
       fill="currentColor"
       id="rect652" />
  </g>
  <g
     transform="translate(3.1967416e-8,4.8909013)"
     id="g658">
    <rect
       x="14.8423"
       y="-0.1067"
       width="2.1536"
       height="0.21340001"
       ry="0.1067"
       fill="currentColor"
       id="rect656" />
  </g>
  <g
     transform="translate(3.1967416e-8,5.9909013)"
     id="g662">
    <rect
       x="14.8423"
       y="-0.1067"
       width="2.1536"
       height="0.21340001"
       ry="0.1067"
       fill="currentColor"
       id="rect660" />
  </g>
  <g
     transform="translate(3.1967416e-8,7.0909013)"
     id="g666">
    <rect
       x="14.8423"
       y="-0.1067"
       width="2.1536"
       height="0.21340001"
       ry="0.1067"
       fill="currentColor"
       id="rect664" />
  </g>
  <g
     transform="translate(3.1967416e-8,4.8909013)"
     id="g670">
    <rect
       x="11.7086"
       y="-0.1067"
       width="2.1536"
       height="0.21340001"
       ry="0.1067"
       fill="currentColor"
       id="rect668" />
  </g>
  <g
     transform="translate(3.1967416e-8,5.9909013)"
     id="g674">
    <rect
       x="11.7086"
       y="-0.1067"
       width="2.1536"
       height="0.21340001"
       ry="0.1067"
       fill="currentColor"
       id="rect672" />
  </g>
  <g
     transform="translate(3.1967416e-8,7.0909013)"
     id="g678">
    <rect
       x="11.7086"
       y="-0.1067"
       width="2.1536"
       height="0.21340001"
       ry="0.1067"
       fill="currentColor"
       id="rect676" />
  </g>
  <g
     transform="translate(3.1967416e-8,5.9909013)"
     id="g682">
    <rect
       x="8.5747995"
       y="-0.1067"
       width="2.1536"
       height="0.21340001"
       ry="0.1067"
       fill="currentColor"
       id="rect680" />
  </g>
  <g
     transform="translate(3.1967416e-8,7.0909013)"
     id="g686">
    <rect
       x="8.5747995"
       y="-0.1067"
       width="2.1536"
       height="0.21340001"
       ry="0.1067"
       fill="currentColor"
       id="rect684" />
  </g>
  <g
     transform="translate(3.1967416e-8,5.9909013)"
     id="g690">
    <rect
       x="5.4411001"
       y="-0.1067"
       width="2.1536"
       height="0.21340001"
       ry="0.1067"
       fill="currentColor"
       id="rect688" />
  </g>
  <g
     transform="translate(3.1967416e-8,7.0909013)"
     id="g694">
    <rect
       x="5.4411001"
       y="-0.1067"
       width="2.1536"
       height="0.21340001"
       ry="0.1067"
       fill="currentColor"
       id="rect692" />
  </g>
  <g
     transform="translate(30.62,10.390901)"
     id="g698">
    <rect
       x="0"
       y="-2.2"
       width="0.1965"
       height="4.4000001"
       ry="0.0000"
       fill="currentColor"
       id="rect696" />
  </g>
  <a
     style="color:inherit"
     xlink:href="textedit://C:/Users/Javier/Documents/lilypond%20scores/shifting.ly:44:20:21"
     id="a704"
     transform="translate(-5.6906,-36.846199)">
    <g
       transform="translate(27.1593,40.0871)"
       id="g702">
      <path
         transform="scale(0.0044,-0.0044)"
         d="m 220,135 c 54,0 106,-27 106,-87 0,-71 -56,-120 -103,-148 -36,-21 -76,-35 -117,-35 -54,0 -106,27 -106,87 0,71 56,120 103,148 36,21 76,35 117,35 z"
         fill="currentColor"
         id="path700" />
    </g>
  </a>
  <a
     style="color:inherit"
     xlink:href="textedit://C:/Users/Javier/Documents/lilypond%20scores/shifting.ly:44:17:18"
     id="a710"
     transform="translate(-5.6906,-36.846199)">
    <g
       transform="translate(27.1593,43.9371)"
       id="g708">
      <path
         transform="scale(0.0044,-0.0044)"
         d="m 220,135 c 54,0 106,-27 106,-87 0,-71 -56,-120 -103,-148 -36,-21 -76,-35 -117,-35 -54,0 -106,27 -106,87 0,71 56,120 103,148 36,21 76,35 117,35 z"
         fill="currentColor"
         id="path706" />
    </g>
  </a>
  <a
     style="color:inherit"
     xlink:href="textedit://C:/Users/Javier/Documents/lilypond%20scores/shifting.ly:44:15:16"
     id="a716"
     transform="translate(-5.6906,-36.846199)">
    <g
       transform="translate(27.1593,46.6871)"
       id="g714">
      <path
         transform="scale(0.0044,-0.0044)"
         d="m 220,135 c 54,0 106,-27 106,-87 0,-71 -56,-120 -103,-148 -36,-21 -76,-35 -117,-35 -54,0 -106,27 -106,87 0,71 56,120 103,148 36,21 76,35 117,35 z"
         fill="currentColor"
         id="path712" />
    </g>
  </a>
  <g
     transform="translate(18.4022,10.390901)"
     id="g720">
    <rect
       x="-0.067199998"
       y="-6.3889999"
       width="0.1345"
       height="10.0556"
       ry="0.039999999"
       fill="currentColor"
       id="rect718" />
  </g>
  <a
     style="color:inherit"
     xlink:href="textedit://C:/Users/Javier/Documents/lilypond%20scores/shifting.ly:44:10:11"
     id="a726"
     transform="translate(-5.6906,-36.846199)">
    <g
       transform="translate(24.0256,40.6371)"
       id="g724">
      <path
         transform="scale(0.0044,-0.0044)"
         d="m 220,135 c 54,0 106,-27 106,-87 0,-71 -56,-120 -103,-148 -36,-21 -76,-35 -117,-35 -54,0 -106,27 -106,87 0,71 56,120 103,148 36,21 76,35 117,35 z"
         fill="currentColor"
         id="path722" />
    </g>
  </a>
  <a
     style="color:inherit"
     xlink:href="textedit://C:/Users/Javier/Documents/lilypond%20scores/shifting.ly:44:7:8"
     id="a732"
     transform="translate(-5.6906,-36.846199)">
    <g
       transform="translate(24.0256,44.4871)"
       id="g730">
      <path
         transform="scale(0.0044,-0.0044)"
         d="m 220,135 c 54,0 106,-27 106,-87 0,-71 -56,-120 -103,-148 -36,-21 -76,-35 -117,-35 -54,0 -106,27 -106,87 0,71 56,120 103,148 36,21 76,35 117,35 z"
         fill="currentColor"
         id="path728" />
    </g>
  </a>
  <a
     style="color:inherit"
     xlink:href="textedit://C:/Users/Javier/Documents/lilypond%20scores/shifting.ly:44:5:6"
     id="a738"
     transform="translate(-5.6906,-36.846199)">
    <g
       transform="translate(24.0256,47.2371)"
       id="g736">
      <path
         transform="scale(0.0044,-0.0044)"
         d="m 220,135 c 54,0 106,-27 106,-87 0,-71 -56,-120 -103,-148 -36,-21 -76,-35 -117,-35 -54,0 -106,27 -106,87 0,71 56,120 103,148 36,21 76,35 117,35 z"
         fill="currentColor"
         id="path734" />
    </g>
  </a>
  <g
     transform="translate(15.2684,10.390901)"
     id="g742">
    <rect
       x="-0.067199998"
       y="-5.8390002"
       width="0.1345"
       height="9.8723001"
       ry="0.039999999"
       fill="currentColor"
       id="rect740" />
  </g>
  <a
     style="color:inherit"
     xlink:href="textedit://C:/Users/Javier/Documents/lilypond%20scores/shifting.ly:43:47:48"
     id="a748"
     transform="translate(-5.6906,-36.846199)">
    <g
       transform="translate(20.8918,41.1871)"
       id="g746">
      <path
         transform="scale(0.0044,-0.0044)"
         d="m 220,135 c 54,0 106,-27 106,-87 0,-71 -56,-120 -103,-148 -36,-21 -76,-35 -117,-35 -54,0 -106,27 -106,87 0,71 56,120 103,148 36,21 76,35 117,35 z"
         fill="currentColor"
         id="path744" />
    </g>
  </a>
  <a
     style="color:inherit"
     xlink:href="textedit://C:/Users/Javier/Documents/lilypond%20scores/shifting.ly:43:44:45"
     id="a754"
     transform="translate(-5.6906,-36.846199)">
    <g
       transform="translate(20.8918,45.0371)"
       id="g752">
      <path
         transform="scale(0.0044,-0.0044)"
         d="m 220,135 c 54,0 106,-27 106,-87 0,-71 -56,-120 -103,-148 -36,-21 -76,-35 -117,-35 -54,0 -106,27 -106,87 0,71 56,120 103,148 36,21 76,35 117,35 z"
         fill="currentColor"
         id="path750" />
    </g>
  </a>
  <a
     style="color:inherit"
     xlink:href="textedit://C:/Users/Javier/Documents/lilypond%20scores/shifting.ly:43:42:43"
     id="a760"
     transform="translate(-5.6906,-36.846199)">
    <g
       transform="translate(20.8918,47.7871)"
       id="g758">
      <path
         transform="scale(0.0044,-0.0044)"
         d="m 220,135 c 54,0 106,-27 106,-87 0,-71 -56,-120 -103,-148 -36,-21 -76,-35 -117,-35 -54,0 -106,27 -106,87 0,71 56,120 103,148 36,21 76,35 117,35 z"
         fill="currentColor"
         id="path756" />
    </g>
  </a>
  <g
     transform="translate(27.8034,10.390901)"
     id="g764">
    <rect
       x="-0.067199998"
       y="-8.0389996"
       width="0.1345"
       height="10.239"
       ry="0.039999999"
       fill="currentColor"
       id="rect762" />
  </g>
  <a
     style="color:inherit"
     xlink:href="textedit://C:/Users/Javier/Documents/lilypond%20scores/shifting.ly:44:40:41"
     id="a770"
     transform="translate(-5.6906,-36.846199)">
    <g
       transform="translate(33.4268,38.9871)"
       id="g768">
      <path
         transform="scale(0.0044,-0.0044)"
         d="m 220,135 c 54,0 106,-27 106,-87 0,-71 -56,-120 -103,-148 -36,-21 -76,-35 -117,-35 -54,0 -106,27 -106,87 0,71 56,120 103,148 36,21 76,35 117,35 z"
         fill="currentColor"
         id="path766" />
    </g>
  </a>
  <a
     style="color:inherit"
     xlink:href="textedit://C:/Users/Javier/Documents/lilypond%20scores/shifting.ly:44:37:38"
     id="a776"
     transform="translate(-5.6906,-36.846199)">
    <g
       transform="translate(33.4268,42.8371)"
       id="g774">
      <path
         transform="scale(0.0044,-0.0044)"
         d="m 220,135 c 54,0 106,-27 106,-87 0,-71 -56,-120 -103,-148 -36,-21 -76,-35 -117,-35 -54,0 -106,27 -106,87 0,71 56,120 103,148 36,21 76,35 117,35 z"
         fill="currentColor"
         id="path772" />
    </g>
  </a>
  <a
     style="color:inherit"
     xlink:href="textedit://C:/Users/Javier/Documents/lilypond%20scores/shifting.ly:44:35:36"
     id="a782"
     transform="translate(-5.6906,-36.846199)">
    <g
       transform="translate(33.4268,45.5871)"
       id="g780">
      <path
         transform="scale(0.0044,-0.0044)"
         d="m 220,135 c 54,0 106,-27 106,-87 0,-71 -56,-120 -103,-148 -36,-21 -76,-35 -117,-35 -54,0 -106,27 -106,87 0,71 56,120 103,148 36,21 76,35 117,35 z"
         fill="currentColor"
         id="path778" />
    </g>
  </a>
  <g
     transform="translate(21.5359,10.390901)"
     id="g786">
    <rect
       x="-0.067199998"
       y="-6.9390001"
       width="0.1345"
       height="10.239"
       ry="0.039999999"
       fill="currentColor"
       id="rect784" />
  </g>
  <g
     transform="translate(24.6697,10.390901)"
     id="g790">
    <rect
       x="-0.067199998"
       y="-7.4889998"
       width="0.1345"
       height="10.239"
       ry="0.039999999"
       fill="currentColor"
       id="rect788" />
  </g>
  <a
     style="color:inherit"
     xlink:href="textedit://C:/Users/Javier/Documents/lilypond%20scores/shifting.ly:44:30:31"
     id="a796"
     transform="translate(-5.6906,-36.846199)">
    <g
       transform="translate(30.2931,39.5371)"
       id="g794">
      <path
         transform="scale(0.0044,-0.0044)"
         d="m 220,135 c 54,0 106,-27 106,-87 0,-71 -56,-120 -103,-148 -36,-21 -76,-35 -117,-35 -54,0 -106,27 -106,87 0,71 56,120 103,148 36,21 76,35 117,35 z"
         fill="currentColor"
         id="path792" />
    </g>
  </a>
  <a
     style="color:inherit"
     xlink:href="textedit://C:/Users/Javier/Documents/lilypond%20scores/shifting.ly:44:27:28"
     id="a802"
     transform="translate(-5.6906,-36.846199)">
    <g
       transform="translate(30.2931,43.3871)"
       id="g800">
      <path
         transform="scale(0.0044,-0.0044)"
         d="m 220,135 c 54,0 106,-27 106,-87 0,-71 -56,-120 -103,-148 -36,-21 -76,-35 -117,-35 -54,0 -106,27 -106,87 0,71 56,120 103,148 36,21 76,35 117,35 z"
         fill="currentColor"
         id="path798" />
    </g>
  </a>
  <a
     style="color:inherit"
     xlink:href="textedit://C:/Users/Javier/Documents/lilypond%20scores/shifting.ly:44:25:26"
     id="a808"
     transform="translate(-5.6906,-36.846199)">
    <g
       transform="translate(30.2931,46.1371)"
       id="g806">
      <path
         transform="scale(0.0044,-0.0044)"
         d="m 220,135 c 54,0 106,-27 106,-87 0,-71 -56,-120 -103,-148 -36,-21 -76,-35 -117,-35 -54,0 -106,27 -106,87 0,71 56,120 103,148 36,21 76,35 117,35 z"
         fill="currentColor"
         id="path804" />
    </g>
  </a>
  <g
     transform="translate(0.80000003,11.490901)"
     id="g812">
    <path
       transform="scale(0.0044,-0.0044)"
       d="m 267,-593 -1,-41 h -5 c -108,0 -196,88 -196,196 0,58 54,104 113,104 54,0 95,-48 95,-104 0,-52 -43,-95 -95,-95 -11,0 -23,3 -34,8 26,-40 69,-68 119,-68 z m 108,854 c 5,0 9,1 14,1 155,0 255,-128 255,-260 0,-76 -33,-154 -107,-209 -22,-17 -47,-28 -73,-36 3,-35 5,-71 5,-107 0,-19 -1,-38 -2,-57 -7,-119 -87,-224 -201,-227 l 1,41 c 93,2 154,93 160,192 1,18 1,36 1,54 0,31 -1,63 -4,94 -29,-5 -58,-8 -89,-8 -188,0 -333,172 -333,373 0,177 132,307 249,441 -19,63 -35,125 -43,190 -6,51 -7,103 -7,155 0,116 56,226 150,294 5,4 13,3 18,-1 70,-84 132,-245 132,-358 0,-143 -86,-255 -181,-364 20,-69 38,-138 55,-208 z m 85,-465 c 69,24 115,96 115,165 0,91 -68,182 -176,192 25,-117 47,-233 61,-357 z M 73,30 c 0,-136 130,-250 265,-250 28,0 55,2 82,6 C 406,-87 382,32 356,152 277,143 232,90 232,32 c 0,-44 26,-91 82,-123 5,-4 6,-10 6,-15 0,-11 -9,-21 -21,-21 -3,0 -5,1 -8,2 -80,43 -117,114 -117,184 0,88 58,173 159,196 -14,59 -30,119 -46,177 C 180,311 73,190 73,30 Z m 358,885 c 0,57 -4,80 -21,132 -99,-49 -162,-150 -162,-260 0,-75 17,-135 35,-197 81,97 148,199 148,325 z"
       fill="currentColor"
       id="path810" />
  </g>
  <g
     transform="translate(5.8672,10.390901)"
     id="g816">
    <rect
       x="-0.067199998"
       y="-4.1890001"
       width="0.1345"
       height="9.3223"
       ry="0.039999999"
       fill="currentColor"
       id="rect814" />
  </g>
  <a
     style="color:inherit"
     xlink:href="textedit://C:/Users/Javier/Documents/lilypond%20scores/shifting.ly:43:14:15"
     id="a822"
     transform="translate(-5.6906,-36.846199)">
    <g
       transform="translate(11.7816,41.6912)"
       id="g820">
      <path
         transform="scale(0.0025,-0.0025)"
         d="m 0,250 127,250 c 3,6 12,3 20,0 14,-6 28,-13 44,-13 16,0 30,7 44,13 1,1 4,1 5,1 8,0 15,-10 15,-21 V 127 c 0,-52 32,-99 80,-99 9,0 13,-7 13,-14 C 348,7 344,0 335,0 287,0 239,13 191,13 143,13 96,0 48,0 39,0 34,7 34,14 c 0,7 5,14 14,14 48,0 79,47 79,99 v 220 c 0,15 -10,22 -19,22 -5,0 -10,-1 -12,-6 L 31,234 c -3,-7 -9,-9 -15,-9 -9,0 -18,7 -18,17 0,3 1,5 2,8 z"
         fill="currentColor"
         id="path818" />
    </g>
  </a>
  <a
     style="color:inherit"
     xlink:href="textedit://C:/Users/Javier/Documents/lilypond%20scores/shifting.ly:43:16:17"
     id="a828"
     transform="translate(-5.6906,-36.846199)">
    <g
       transform="translate(11.7475,39.8779)"
       id="g826">
      <path
         transform="scale(0.0025,-0.0025)"
         d="m 125,147 h 10 c 35,0 73,-12 110,-39 19,-14 41,-22 60,-22 22,0 40,10 46,31 2,7 7,11 13,11 7,0 14,-6 14,-14 0,-1 -1,-3 -1,-4 C 358,40 295,0 233,0 195,0 159,15 133,47 121,62 104,69 88,69 59,69 31,48 28,13 27,4 21,0 14,0 7,0 0,5 0,14 c 0,174 233,163 233,341 0,57 -14,117 -63,117 -31,0 -61,-14 -61,-41 0,-25 32,-39 32,-64 0,-35 -28,-64 -63,-64 -35,0 -64,29 -64,64 0,78 74,133 156,133 98,0 191,-55 191,-145 C 361,210 223,198 125,147 Z"
         fill="currentColor"
         id="path824" />
    </g>
  </a>
  <a
     style="color:inherit"
     xlink:href="textedit://C:/Users/Javier/Documents/lilypond%20scores/shifting.ly:43:18:19"
     id="a834"
     transform="translate(-5.6906,-36.846199)">
    <g
       transform="translate(11.6963,38.0987)"
       id="g832">
      <path
         transform="scale(0.0025,-0.0025)"
         d="m 199,287 c 23,15 47,31 64,53 12,16 19,33 28,51 2,4 7,7 11,7 7,0 15,-6 15,-17 V 160 h 78 c 12,0 17,-9 17,-18 0,-9 -5,-17 -17,-17 h -78 c 1,-51 32,-97 79,-97 9,0 14,-7 14,-14 C 410,7 405,0 396,0 348,0 301,13 253,13 205,13 158,0 110,0 101,0 96,7 96,14 c 0,7 5,14 14,14 47,0 78,46 79,97 H 35 c -28,0 -37,16 -37,27 0,3 1,6 2,8 78,89 126,201 126,320 0,11 7,20 16,20 h 3 c 25,-7 50,-13 76,-13 26,0 51,6 76,13 2,1 4,1 6,1 10,0 16,-7 16,-14 0,-2 0,-5 -2,-7 L 35,160 h 154 v 101 c 0,10 2,21 10,26 z"
         fill="currentColor"
         id="path830" />
    </g>
  </a>
  <a
     style="color:inherit"
     xlink:href="textedit://C:/Users/Javier/Documents/lilypond%20scores/shifting.ly:43:10:11"
     id="a840"
     transform="translate(-5.6906,-36.846199)">
    <g
       transform="translate(11.4906,42.8371)"
       id="g838">
      <path
         transform="scale(0.0044,-0.0044)"
         d="m 220,135 c 54,0 106,-27 106,-87 0,-71 -56,-120 -103,-148 -36,-21 -76,-35 -117,-35 -54,0 -106,27 -106,87 0,71 56,120 103,148 36,21 76,35 117,35 z"
         fill="currentColor"
         id="path836" />
    </g>
  </a>
  <a
     style="color:inherit"
     xlink:href="textedit://C:/Users/Javier/Documents/lilypond%20scores/shifting.ly:43:7:8"
     id="a846"
     transform="translate(-5.6906,-36.846199)">
    <g
       transform="translate(11.4906,46.6871)"
       id="g844">
      <path
         transform="scale(0.0044,-0.0044)"
         d="m 220,135 c 54,0 106,-27 106,-87 0,-71 -56,-120 -103,-148 -36,-21 -76,-35 -117,-35 -54,0 -106,27 -106,87 0,71 56,120 103,148 36,21 76,35 117,35 z"
         fill="currentColor"
         id="path842" />
    </g>
  </a>
  <a
     style="color:inherit"
     xlink:href="textedit://C:/Users/Javier/Documents/lilypond%20scores/shifting.ly:43:5:6"
     id="a852"
     transform="translate(-5.6906,-36.846199)">
    <g
       transform="translate(11.4906,49.4371)"
       id="g850">
      <path
         transform="scale(0.0044,-0.0044)"
         d="m 220,135 c 54,0 106,-27 106,-87 0,-71 -56,-120 -103,-148 -36,-21 -76,-35 -117,-35 -54,0 -106,27 -106,87 0,71 56,120 103,148 36,21 76,35 117,35 z"
         fill="currentColor"
         id="path848" />
    </g>
  </a>
  <g
     transform="translate(12.1347,10.390901)"
     id="g856">
    <rect
       x="-0.067199998"
       y="-5.289"
       width="0.1345"
       height="9.6890001"
       ry="0.039999999"
       fill="currentColor"
       id="rect854" />
  </g>
  <a
     style="color:inherit"
     xlink:href="textedit://C:/Users/Javier/Documents/lilypond%20scores/shifting.ly:43:37:38"
     id="a862"
     transform="translate(-5.6906,-36.846199)">
    <g
       transform="translate(17.7581,41.7371)"
       id="g860">
      <path
         transform="scale(0.0044,-0.0044)"
         d="m 220,135 c 54,0 106,-27 106,-87 0,-71 -56,-120 -103,-148 -36,-21 -76,-35 -117,-35 -54,0 -106,27 -106,87 0,71 56,120 103,148 36,21 76,35 117,35 z"
         fill="currentColor"
         id="path858" />
    </g>
  </a>
  <a
     style="color:inherit"
     xlink:href="textedit://C:/Users/Javier/Documents/lilypond%20scores/shifting.ly:43:34:35"
     id="a868"
     transform="translate(-5.6906,-36.846199)">
    <g
       transform="translate(17.7581,45.5871)"
       id="g866">
      <path
         transform="scale(0.0044,-0.0044)"
         d="m 220,135 c 54,0 106,-27 106,-87 0,-71 -56,-120 -103,-148 -36,-21 -76,-35 -117,-35 -54,0 -106,27 -106,87 0,71 56,120 103,148 36,21 76,35 117,35 z"
         fill="currentColor"
         id="path864" />
    </g>
  </a>
  <a
     style="color:inherit"
     xlink:href="textedit://C:/Users/Javier/Documents/lilypond%20scores/shifting.ly:43:32:33"
     id="a874"
     transform="translate(-5.6906,-36.846199)">
    <g
       transform="translate(17.7581,48.3371)"
       id="g872">
      <path
         transform="scale(0.0044,-0.0044)"
         d="m 220,135 c 54,0 106,-27 106,-87 0,-71 -56,-120 -103,-148 -36,-21 -76,-35 -117,-35 -54,0 -106,27 -106,87 0,71 56,120 103,148 36,21 76,35 117,35 z"
         fill="currentColor"
         id="path870" />
    </g>
  </a>
  <g
     transform="translate(9.0009,10.390901)"
     id="g878">
    <rect
       x="-0.067199998"
       y="-4.7389998"
       width="0.1345"
       height="9.5056"
       ry="0.039999999"
       fill="currentColor"
       id="rect876" />
  </g>
  <a
     style="color:inherit"
     xlink:href="textedit://C:/Users/Javier/Documents/lilypond%20scores/shifting.ly:43:27:28"
     id="a884"
     transform="translate(-5.6906,-36.846199)">
    <g
       transform="translate(14.6243,42.2871)"
       id="g882">
      <path
         transform="scale(0.0044,-0.0044)"
         d="m 220,135 c 54,0 106,-27 106,-87 0,-71 -56,-120 -103,-148 -36,-21 -76,-35 -117,-35 -54,0 -106,27 -106,87 0,71 56,120 103,148 36,21 76,35 117,35 z"
         fill="currentColor"
         id="path880" />
    </g>
  </a>
  <a
     style="color:inherit"
     xlink:href="textedit://C:/Users/Javier/Documents/lilypond%20scores/shifting.ly:43:22:23"
     id="a890"
     transform="translate(-5.6906,-36.846199)">
    <g
       transform="translate(14.6243,48.8871)"
       id="g888">
      <path
         transform="scale(0.0044,-0.0044)"
         d="m 220,135 c 54,0 106,-27 106,-87 0,-71 -56,-120 -103,-148 -36,-21 -76,-35 -117,-35 -54,0 -106,27 -106,87 0,71 56,120 103,148 36,21 76,35 117,35 z"
         fill="currentColor"
         id="path886" />
    </g>
  </a>
  <a
     style="color:inherit"
     xlink:href="textedit://C:/Users/Javier/Documents/lilypond%20scores/shifting.ly:43:24:25"
     id="a896"
     transform="translate(-5.6906,-36.846199)">
    <g
       transform="translate(14.6243,46.1371)"
       id="g894">
      <path
         transform="scale(0.0044,-0.0044)"
         d="m 220,135 c 54,0 106,-27 106,-87 0,-71 -56,-120 -103,-148 -36,-21 -76,-35 -117,-35 -54,0 -106,27 -106,87 0,71 56,120 103,148 36,21 76,35 117,35 z"
         fill="currentColor"
         id="path892" />
    </g>
  </a>
</svg>
