<svg
   version="1.2"
   width="121.28365mm"
   height="27.13549mm"
   viewBox="0 0 69.017098 15.441592"
   id="svg4462"
   sodipodi:docname="shifting-1.svg"
   xmlns:inkscape="http://www.inkscape.org/namespaces/inkscape"
   xmlns:sodipodi="http://sodipodi.sourceforge.net/DTD/sodipodi-0.dtd"
   xmlns="http://www.w3.org/2000/svg"
   xmlns:svg="http://www.w3.org/2000/svg">
  <defs
     id="defs4466" />
  <sodipodi:namedview
     id="namedview4464"
     pagecolor="#ffffff"
     bordercolor="#000000"
     borderopacity="0.25"
     inkscape:showpageshadow="2"
     inkscape:pageopacity="0.0"
     inkscape:pagecheckerboard="0"
     inkscape:deskcolor="#d1d1d1"
     inkscape:document-units="mm"
     showgrid="false" />
  <style
     type="text/css"
     id="style2"><![CDATA[
tspan { white-space: pre; }
]]></style>
  <!-- Page: 1/3 -->
  <g
     transform="translate(3.1967416e-8,11.327602)"
     id="g742">
    <line
       stroke-linejoin="round"
       stroke-linecap="round"
       stroke-width="0.1034"
       stroke="currentColor"
       x1="0.0517"
       y1="0"
       x2="68.965401"
       y2="0"
       id="line740" />
  </g>
  <g
     transform="translate(3.1967416e-8,10.227602)"
     id="g746">
    <line
       stroke-linejoin="round"
       stroke-linecap="round"
       stroke-width="0.1034"
       stroke="currentColor"
       x1="0.0517"
       y1="0"
       x2="68.965401"
       y2="0"
       id="line744" />
  </g>
  <g
     transform="translate(3.1967416e-8,9.1276021)"
     id="g750">
    <line
       stroke-linejoin="round"
       stroke-linecap="round"
       stroke-width="0.1034"
       stroke="currentColor"
       x1="0.0517"
       y1="0"
       x2="68.965401"
       y2="0"
       id="line748" />
  </g>
  <g
     transform="translate(3.1967416e-8,8.0276021)"
     id="g754">
    <line
       stroke-linejoin="round"
       stroke-linecap="round"
       stroke-width="0.1034"
       stroke="currentColor"
       x1="0.0517"
       y1="0"
       x2="68.965401"
       y2="0"
       id="line752" />
  </g>
  <g
     transform="translate(3.1967416e-8,6.9276021)"
     id="g758">
    <line
       stroke-linejoin="round"
       stroke-linecap="round"
       stroke-width="0.1034"
       stroke="currentColor"
       x1="0.0517"
       y1="0"
       x2="68.965401"
       y2="0"
       id="line756" />
  </g>
  <g
     transform="translate(3.1967416e-8,4.7276021)"
     id="g762">
    <rect
       x="63.426601"
       y="-0.1067"
       width="2.1536"
       height="0.21340001"
       ry="0.1067"
       fill="currentColor"
       id="rect760" />
  </g>
  <g
     transform="translate(3.1967416e-8,5.8276021)"
     id="g766">
    <rect
       x="63.426601"
       y="-0.1067"
       width="2.1536"
       height="0.21340001"
       ry="0.1067"
       fill="currentColor"
       id="rect764" />
  </g>
  <g
     transform="translate(3.1967416e-8,1.4276021)"
     id="g770">
    <rect
       x="60.790901"
       y="-0.1067"
       width="2.1536"
       height="0.21340001"
       ry="0.1067"
       fill="currentColor"
       id="rect768" />
  </g>
  <g
     transform="translate(3.1967416e-8,2.5276021)"
     id="g774">
    <rect
       x="60.790901"
       y="-0.1067"
       width="2.1536"
       height="0.21340001"
       ry="0.1067"
       fill="currentColor"
       id="rect772" />
  </g>
  <g
     transform="translate(3.1967416e-8,3.6276021)"
     id="g778">
    <rect
       x="60.790901"
       y="-0.1067"
       width="2.1536"
       height="0.21340001"
       ry="0.1067"
       fill="currentColor"
       id="rect776" />
  </g>
  <g
     transform="translate(3.1967416e-8,4.7276021)"
     id="g782">
    <rect
       x="60.790901"
       y="-0.1067"
       width="2.1536"
       height="0.21340001"
       ry="0.1067"
       fill="currentColor"
       id="rect780" />
  </g>
  <g
     transform="translate(3.1967416e-8,5.8276021)"
     id="g786">
    <rect
       x="60.790901"
       y="-0.1067"
       width="2.1536"
       height="0.21340001"
       ry="0.1067"
       fill="currentColor"
       id="rect784" />
  </g>
  <g
     transform="translate(3.1967416e-8,1.4276021)"
     id="g790">
    <rect
       x="58.155201"
       y="-0.1067"
       width="2.1536"
       height="0.21340001"
       ry="0.1067"
       fill="currentColor"
       id="rect788" />
  </g>
  <g
     transform="translate(3.1967416e-8,2.5276021)"
     id="g794">
    <rect
       x="58.155201"
       y="-0.1067"
       width="2.1536"
       height="0.21340001"
       ry="0.1067"
       fill="currentColor"
       id="rect792" />
  </g>
  <g
     transform="translate(3.1967416e-8,3.6276021)"
     id="g798">
    <rect
       x="58.155201"
       y="-0.1067"
       width="2.1536"
       height="0.21340001"
       ry="0.1067"
       fill="currentColor"
       id="rect796" />
  </g>
  <g
     transform="translate(3.1967416e-8,4.7276021)"
     id="g802">
    <rect
       x="58.155201"
       y="-0.1067"
       width="2.1536"
       height="0.21340001"
       ry="0.1067"
       fill="currentColor"
       id="rect800" />
  </g>
  <g
     transform="translate(3.1967416e-8,5.8276021)"
     id="g806">
    <rect
       x="58.155201"
       y="-0.1067"
       width="2.1536"
       height="0.21340001"
       ry="0.1067"
       fill="currentColor"
       id="rect804" />
  </g>
  <g
     transform="translate(3.1967416e-8,5.8276021)"
     id="g810">
    <rect
       x="55.519501"
       y="-0.1067"
       width="2.1536"
       height="0.21340001"
       ry="0.1067"
       fill="currentColor"
       id="rect808" />
  </g>
  <g
     transform="translate(3.1967416e-8,5.8276021)"
     id="g814">
    <rect
       x="47.6124"
       y="-0.1067"
       width="2.1536"
       height="0.21340001"
       ry="0.1067"
       fill="currentColor"
       id="rect812" />
  </g>
  <g
     transform="translate(3.1967416e-8,2.5276021)"
     id="g818">
    <rect
       x="44.9767"
       y="-0.1067"
       width="2.1536"
       height="0.21340001"
       ry="0.1067"
       fill="currentColor"
       id="rect816" />
  </g>
  <g
     transform="translate(3.1967416e-8,3.6276021)"
     id="g822">
    <rect
       x="44.9767"
       y="-0.1067"
       width="2.1536"
       height="0.21340001"
       ry="0.1067"
       fill="currentColor"
       id="rect820" />
  </g>
  <g
     transform="translate(3.1967416e-8,4.7276021)"
     id="g826">
    <rect
       x="44.9767"
       y="-0.1067"
       width="2.1536"
       height="0.21340001"
       ry="0.1067"
       fill="currentColor"
       id="rect824" />
  </g>
  <g
     transform="translate(3.1967416e-8,5.8276021)"
     id="g830">
    <rect
       x="44.9767"
       y="-0.1067"
       width="2.1536"
       height="0.21340001"
       ry="0.1067"
       fill="currentColor"
       id="rect828" />
  </g>
  <g
     transform="translate(3.1967416e-8,2.5276021)"
     id="g834">
    <rect
       x="42.3409"
       y="-0.1067"
       width="2.1536"
       height="0.21340001"
       ry="0.1067"
       fill="currentColor"
       id="rect832" />
  </g>
  <g
     transform="translate(3.1967416e-8,3.6276021)"
     id="g838">
    <rect
       x="42.3409"
       y="-0.1067"
       width="2.1536"
       height="0.21340001"
       ry="0.1067"
       fill="currentColor"
       id="rect836" />
  </g>
  <g
     transform="translate(3.1967416e-8,4.7276021)"
     id="g842">
    <rect
       x="42.3409"
       y="-0.1067"
       width="2.1536"
       height="0.21340001"
       ry="0.1067"
       fill="currentColor"
       id="rect840" />
  </g>
  <g
     transform="translate(3.1967416e-8,5.8276021)"
     id="g846">
    <rect
       x="42.3409"
       y="-0.1067"
       width="2.1536"
       height="0.21340001"
       ry="0.1067"
       fill="currentColor"
       id="rect844" />
  </g>
  <g
     transform="translate(3.1967416e-8,3.6276021)"
     id="g850">
    <rect
       x="29.162399"
       y="-0.1067"
       width="2.1536"
       height="0.21340001"
       ry="0.1067"
       fill="currentColor"
       id="rect848" />
  </g>
  <g
     transform="translate(3.1967416e-8,4.7276021)"
     id="g854">
    <rect
       x="29.162399"
       y="-0.1067"
       width="2.1536"
       height="0.21340001"
       ry="0.1067"
       fill="currentColor"
       id="rect852" />
  </g>
  <g
     transform="translate(3.1967416e-8,5.8276021)"
     id="g858">
    <rect
       x="29.162399"
       y="-0.1067"
       width="2.1536"
       height="0.21340001"
       ry="0.1067"
       fill="currentColor"
       id="rect856" />
  </g>
  <g
     transform="translate(3.1967416e-8,3.6276021)"
     id="g862">
    <rect
       x="26.526699"
       y="-0.1067"
       width="2.1536"
       height="0.21340001"
       ry="0.1067"
       fill="currentColor"
       id="rect860" />
  </g>
  <g
     transform="translate(3.1967416e-8,4.7276021)"
     id="g866">
    <rect
       x="26.526699"
       y="-0.1067"
       width="2.1536"
       height="0.21340001"
       ry="0.1067"
       fill="currentColor"
       id="rect864" />
  </g>
  <g
     transform="translate(3.1967416e-8,5.8276021)"
     id="g870">
    <rect
       x="26.526699"
       y="-0.1067"
       width="2.1536"
       height="0.21340001"
       ry="0.1067"
       fill="currentColor"
       id="rect868" />
  </g>
  <g
     transform="translate(3.1967416e-8,4.7276021)"
     id="g874">
    <rect
       x="13.3482"
       y="-0.1067"
       width="2.1536"
       height="0.21340001"
       ry="0.1067"
       fill="currentColor"
       id="rect872" />
  </g>
  <g
     transform="translate(3.1967416e-8,5.8276021)"
     id="g878">
    <rect
       x="13.3482"
       y="-0.1067"
       width="2.1536"
       height="0.21340001"
       ry="0.1067"
       fill="currentColor"
       id="rect876" />
  </g>
  <g
     transform="translate(3.1967416e-8,4.7276021)"
     id="g882">
    <rect
       x="10.7125"
       y="-0.1067"
       width="2.1536"
       height="0.21340001"
       ry="0.1067"
       fill="currentColor"
       id="rect880" />
  </g>
  <g
     transform="translate(3.1967416e-8,5.8276021)"
     id="g886">
    <rect
       x="10.7125"
       y="-0.1067"
       width="2.1536"
       height="0.21340001"
       ry="0.1067"
       fill="currentColor"
       id="rect884" />
  </g>
  <g
     transform="translate(3.1967416e-8,12.427602)"
     id="g890">
    <rect
       x="5.4411001"
       y="-0.1067"
       width="2.1536"
       height="0.21340001"
       ry="0.1067"
       fill="currentColor"
       id="rect888" />
  </g>
  <g
     transform="translate(68.8206,9.1276021)"
     id="g894">
    <rect
       x="0"
       y="-2.2"
       width="0.1965"
       height="4.4000001"
       ry="0.0000"
       fill="currentColor"
       id="rect892" />
  </g>
  <g
     transform="translate(40.0641,6.3776021)"
     id="g898">
    <path
       transform="scale(0.0044,-0.0044)"
       d="m 220,135 c 54,0 106,-27 106,-87 0,-71 -56,-120 -103,-148 -36,-21 -76,-35 -117,-35 -54,0 -106,27 -106,87 0,71 56,120 103,148 36,21 76,35 117,35 z"
       fill="currentColor"
       id="path896" />
  </g>
  <g
     transform="translate(42.7671,9.1276021)"
     id="g902">
    <rect
       x="-0.067199998"
       y="-6.3889999"
       width="0.1345"
       height="8.6136999"
       ry="0.039999999"
       fill="currentColor"
       id="rect900" />
  </g>
  <g
     transform="translate(42.6998,2.5276021)"
     id="g906">
    <path
       transform="scale(0.0044,-0.0044)"
       d="m 220,135 c 54,0 106,-27 106,-87 0,-71 -56,-120 -103,-148 -36,-21 -76,-35 -117,-35 -54,0 -106,27 -106,87 0,71 56,120 103,148 36,21 76,35 117,35 z"
       fill="currentColor"
       id="path904" />
  </g>
  <g
     transform="translate(42.6998,6.3776021)"
     id="g910">
    <path
       transform="scale(0.0044,-0.0044)"
       d="m 220,135 c 54,0 106,-27 106,-87 0,-71 -56,-120 -103,-148 -36,-21 -76,-35 -117,-35 -54,0 -106,27 -106,87 0,71 56,120 103,148 36,21 76,35 117,35 z"
       fill="currentColor"
       id="path908" />
  </g>
  <g
     transform="translate(40.1313,9.1276021)"
     id="g914">
    <rect
       x="-0.067199998"
       y="-2.539"
       width="0.1345"
       height="5.7328"
       ry="0.039999999"
       fill="currentColor"
       id="rect912" />
  </g>
  <g
     transform="translate(45.3355,5.8276021)"
     id="g918">
    <path
       transform="scale(0.0044,-0.0044)"
       d="m 220,135 c 54,0 106,-27 106,-87 0,-71 -56,-120 -103,-148 -36,-21 -76,-35 -117,-35 -54,0 -106,27 -106,87 0,71 56,120 103,148 36,21 76,35 117,35 z"
       fill="currentColor"
       id="path916" />
  </g>
  <g
     transform="translate(45.3355,1.9776021)"
     id="g922">
    <path
       transform="scale(0.0044,-0.0044)"
       d="m 220,135 c 54,0 106,-27 106,-87 0,-71 -56,-120 -103,-148 -36,-21 -76,-35 -117,-35 -54,0 -106,27 -106,87 0,71 56,120 103,148 36,21 76,35 117,35 z"
       fill="currentColor"
       id="path920" />
  </g>
  <g
     transform="translate(45.4028,9.1276021)"
     id="g926">
    <rect
       x="-0.067199998"
       y="-6.9390001"
       width="0.1345"
       height="8.9497995"
       ry="0.039999999"
       fill="currentColor"
       id="rect924" />
  </g>
  <g
     transform="translate(47.9712,8.5776021)"
     id="g930">
    <path
       transform="scale(0.0044,-0.0044)"
       d="m 220,135 c 54,0 106,-27 106,-87 0,-71 -56,-120 -103,-148 -36,-21 -76,-35 -117,-35 -54,0 -106,27 -106,87 0,71 56,120 103,148 36,21 76,35 117,35 z"
       fill="currentColor"
       id="path928" />
  </g>
  <g
     transform="translate(47.9712,5.8276021)"
     id="g934">
    <path
       transform="scale(0.0044,-0.0044)"
       d="m 220,135 c 54,0 106,-27 106,-87 0,-71 -56,-120 -103,-148 -36,-21 -76,-35 -117,-35 -54,0 -106,27 -106,87 0,71 56,120 103,148 36,21 76,35 117,35 z"
       fill="currentColor"
       id="path932" />
  </g>
  <g
     transform="translate(48.0385,9.1276021)"
     id="g938">
    <rect
       x="-0.067199998"
       y="-3.089"
       width="0.1345"
       height="6.0078001"
       ry="0.039999999"
       fill="currentColor"
       id="rect936" />
  </g>
  <g
     transform="translate(29.5213,3.0776021)"
     id="g942">
    <path
       transform="scale(0.0044,-0.0044)"
       d="m 220,135 c 54,0 106,-27 106,-87 0,-71 -56,-120 -103,-148 -36,-21 -76,-35 -117,-35 -54,0 -106,27 -106,87 0,71 56,120 103,148 36,21 76,35 117,35 z"
       fill="currentColor"
       id="path940" />
  </g>
  <g
     transform="translate(34.7927,9.6776021)"
     id="g946">
    <path
       transform="scale(0.0044,-0.0044)"
       d="m 220,135 c 54,0 106,-27 106,-87 0,-71 -56,-120 -103,-148 -36,-21 -76,-35 -117,-35 -54,0 -106,27 -106,87 0,71 56,120 103,148 36,21 76,35 117,35 z"
       fill="currentColor"
       id="path944" />
  </g>
  <g
     transform="translate(5.8,15.177602)"
     id="g950">
    <polygon
       stroke-linejoin="round"
       stroke-linecap="round"
       stroke-width="0.08"
       fill="currentColor"
       stroke="currentColor"
       points="5.3659,-2.0863 5.3659,-1.6383 0.04,0.224 0.04,-0.224 "
       id="polygon948" />
  </g>
  <g
     transform="translate(29.5885,9.1276021)"
     id="g954">
    <rect
       x="-0.067199998"
       y="-5.8390002"
       width="0.1345"
       height="8.276"
       ry="0.039999999"
       fill="currentColor"
       id="rect952" />
  </g>
  <g
     transform="translate(32.157,6.9276021)"
     id="g958">
    <path
       transform="scale(0.0044,-0.0044)"
       d="m 220,135 c 54,0 106,-27 106,-87 0,-71 -56,-120 -103,-148 -36,-21 -76,-35 -117,-35 -54,0 -106,27 -106,87 0,71 56,120 103,148 36,21 76,35 117,35 z"
       fill="currentColor"
       id="path956" />
  </g>
  <g
     transform="translate(32.157,9.6776021)"
     id="g962">
    <path
       transform="scale(0.0044,-0.0044)"
       d="m 220,135 c 54,0 106,-27 106,-87 0,-71 -56,-120 -103,-148 -36,-21 -76,-35 -117,-35 -54,0 -106,27 -106,87 0,71 56,120 103,148 36,21 76,35 117,35 z"
       fill="currentColor"
       id="path960" />
  </g>
  <g
     transform="translate(32.2242,9.1276021)"
     id="g966">
    <rect
       x="-0.067199998"
       y="-1.989"
       width="0.1345"
       height="5.3951001"
       ry="0.039999999"
       fill="currentColor"
       id="rect964" />
  </g>
  <g
     transform="translate(40.0641,9.1276021)"
     id="g970">
    <path
       transform="scale(0.0044,-0.0044)"
       d="m 220,135 c 54,0 106,-27 106,-87 0,-71 -56,-120 -103,-148 -36,-21 -76,-35 -117,-35 -54,0 -106,27 -106,87 0,71 56,120 103,148 36,21 76,35 117,35 z"
       fill="currentColor"
       id="path968" />
  </g>
  <g
     transform="translate(34.7927,10.777602)"
     id="g974">
    <path
       transform="scale(0.0044,-0.0044)"
       d="m 220,135 c 54,0 106,-27 106,-87 0,-71 -56,-120 -103,-148 -36,-21 -76,-35 -117,-35 -54,0 -106,27 -106,87 0,71 56,120 103,148 36,21 76,35 117,35 z"
       fill="currentColor"
       id="path972" />
  </g>
  <g
     transform="translate(34.8599,9.1276021)"
     id="g978">
    <rect
       x="-0.067199998"
       y="0.76099998"
       width="0.1345"
       height="3.6142001"
       ry="0.039999999"
       fill="currentColor"
       id="rect976" />
  </g>
  <g
     transform="translate(37.4284,10.227602)"
     id="g982">
    <path
       transform="scale(0.0044,-0.0044)"
       d="m 220,135 c 54,0 106,-27 106,-87 0,-71 -56,-120 -103,-148 -36,-21 -76,-35 -117,-35 -54,0 -106,27 -106,87 0,71 56,120 103,148 36,21 76,35 117,35 z"
       fill="currentColor"
       id="path980" />
  </g>
  <g
     transform="translate(37.4284,9.1276021)"
     id="g986">
    <path
       transform="scale(0.0044,-0.0044)"
       d="m 220,135 c 54,0 106,-27 106,-87 0,-71 -56,-120 -103,-148 -36,-21 -76,-35 -117,-35 -54,0 -106,27 -106,87 0,71 56,120 103,148 36,21 76,35 117,35 z"
       fill="currentColor"
       id="path984" />
  </g>
  <g
     transform="translate(37.4956,9.1276021)"
     id="g990">
    <rect
       x="-0.067199998"
       y="0.211"
       width="0.1345"
       height="3.9519999"
       ry="0.039999999"
       fill="currentColor"
       id="rect988" />
  </g>
  <g
     transform="translate(66.4212,8.5776021)"
     id="g994">
    <path
       transform="scale(0.0044,-0.0044)"
       d="m 220,135 c 54,0 106,-27 106,-87 0,-71 -56,-120 -103,-148 -36,-21 -76,-35 -117,-35 -54,0 -106,27 -106,87 0,71 56,120 103,148 36,21 76,35 117,35 z"
       fill="currentColor"
       id="path992" />
  </g>
  <g
     transform="translate(61.1498,4.7276021)"
     id="g998">
    <path
       transform="scale(0.0044,-0.0044)"
       d="m 220,135 c 54,0 106,-27 106,-87 0,-71 -56,-120 -103,-148 -36,-21 -76,-35 -117,-35 -54,0 -106,27 -106,87 0,71 56,120 103,148 36,21 76,35 117,35 z"
       fill="currentColor"
       id="path996" />
  </g>
  <g
     transform="translate(61.1498,0.87760209)"
     id="g1002">
    <path
       transform="scale(0.0044,-0.0044)"
       d="m 220,135 c 54,0 106,-27 106,-87 0,-71 -56,-120 -103,-148 -36,-21 -76,-35 -117,-35 -54,0 -106,27 -106,87 0,71 56,120 103,148 36,21 76,35 117,35 z"
       fill="currentColor"
       id="path1000" />
  </g>
  <g
     transform="translate(61.217,9.1276021)"
     id="g1006">
    <rect
       x="-0.067199998"
       y="-8.0389996"
       width="0.1345"
       height="8.9455996"
       ry="0.039999999"
       fill="currentColor"
       id="rect1004" />
  </g>
  <g
     transform="translate(63.7855,7.4776021)"
     id="g1010">
    <path
       transform="scale(0.0044,-0.0044)"
       d="m 220,135 c 54,0 106,-27 106,-87 0,-71 -56,-120 -103,-148 -36,-21 -76,-35 -117,-35 -54,0 -106,27 -106,87 0,71 56,120 103,148 36,21 76,35 117,35 z"
       fill="currentColor"
       id="path1008" />
  </g>
  <g
     transform="translate(63.7855,4.7276021)"
     id="g1014">
    <path
       transform="scale(0.0044,-0.0044)"
       d="m 220,135 c 54,0 106,-27 106,-87 0,-71 -56,-120 -103,-148 -36,-21 -76,-35 -117,-35 -54,0 -106,27 -106,87 0,71 56,120 103,148 36,21 76,35 117,35 z"
       fill="currentColor"
       id="path1012" />
  </g>
  <g
     transform="translate(63.8527,9.1276021)"
     id="g1018">
    <rect
       x="-0.067199998"
       y="-4.1890001"
       width="0.1345"
       height="5.8390002"
       ry="0.039999999"
       fill="currentColor"
       id="rect1016" />
  </g>
  <g
     transform="translate(66.4212,7.4776021)"
     id="g1022">
    <path
       transform="scale(0.0044,-0.0044)"
       d="m 220,135 c 54,0 106,-27 106,-87 0,-71 -56,-120 -103,-148 -36,-21 -76,-35 -117,-35 -54,0 -106,27 -106,87 0,71 56,120 103,148 36,21 76,35 117,35 z"
       fill="currentColor"
       id="path1020" />
  </g>
  <g
     transform="translate(66.4884,9.1276021)"
     id="g1026">
    <rect
       x="-0.067199998"
       y="-1.439"
       width="0.1345"
       height="3.8322999"
       ry="0.039999999"
       fill="currentColor"
       id="rect1024" />
  </g>
  <g
     transform="translate(61.1498,10.015302)"
     id="g1030">
    <polygon
       stroke-linejoin="round"
       stroke-linecap="round"
       stroke-width="0.08"
       fill="currentColor"
       stroke="currentColor"
       points="5.3659,1.3006 5.3659,1.7486 0.04,0.224 0.04,-0.224 "
       id="polygon1028" />
  </g>
  <g
     transform="translate(53.2426,12.215302)"
     id="g1034">
    <polygon
       stroke-linejoin="round"
       stroke-linecap="round"
       stroke-width="0.08"
       fill="currentColor"
       stroke="currentColor"
       points="5.3659,-1.9994 5.3659,-1.5514 0.04,0.224 0.04,-0.224 "
       id="polygon1032" />
  </g>
  <g
     transform="translate(45.3355,11.115302)"
     id="g1038">
    <polygon
       stroke-linejoin="round"
       stroke-linecap="round"
       stroke-width="0.08"
       fill="currentColor"
       stroke="currentColor"
       points="5.3659,1.6383 5.3659,2.0863 0.04,0.224 0.04,-0.224 "
       id="polygon1036" />
  </g>
  <g
     transform="translate(37.4284,13.315302)"
     id="g1042">
    <polygon
       stroke-linejoin="round"
       stroke-linecap="round"
       stroke-width="0.08"
       fill="currentColor"
       stroke="currentColor"
       points="5.3659,-2.2117 5.3659,-1.7637 0.04,0.224 0.04,-0.224 "
       id="polygon1040" />
  </g>
  <g
     transform="translate(29.5213,11.539902)"
     id="g1046">
    <polygon
       stroke-linejoin="round"
       stroke-linecap="round"
       stroke-width="0.08"
       fill="currentColor"
       stroke="currentColor"
       points="5.3659,1.7637 5.3659,2.2117 0.04,0.224 0.04,-0.224 "
       id="polygon1044" />
  </g>
  <g
     transform="translate(21.6142,14.415302)"
     id="g1050">
    <polygon
       stroke-linejoin="round"
       stroke-linecap="round"
       stroke-width="0.08"
       fill="currentColor"
       stroke="currentColor"
       points="5.3659,-2.2117 5.3659,-1.7637 0.04,0.224 0.04,-0.224 "
       id="polygon1048" />
  </g>
  <g
     transform="translate(13.7071,12.427602)"
     id="g1054">
    <polygon
       stroke-linejoin="round"
       stroke-linecap="round"
       stroke-width="0.08"
       fill="currentColor"
       stroke="currentColor"
       points="5.3659,1.7637 5.3659,2.2117 0.04,0.224 0.04,-0.224 "
       id="polygon1052" />
  </g>
  <g
     transform="translate(55.8784,8.0276021)"
     id="g1058">
    <path
       transform="scale(0.0044,-0.0044)"
       d="m 220,135 c 54,0 106,-27 106,-87 0,-71 -56,-120 -103,-148 -36,-21 -76,-35 -117,-35 -54,0 -106,27 -106,87 0,71 56,120 103,148 36,21 76,35 117,35 z"
       fill="currentColor"
       id="path1056" />
  </g>
  <g
     transform="translate(50.6069,8.5776021)"
     id="g1062">
    <path
       transform="scale(0.0044,-0.0044)"
       d="m 220,135 c 54,0 106,-27 106,-87 0,-71 -56,-120 -103,-148 -36,-21 -76,-35 -117,-35 -54,0 -106,27 -106,87 0,71 56,120 103,148 36,21 76,35 117,35 z"
       fill="currentColor"
       id="path1060" />
  </g>
  <g
     transform="translate(50.6742,9.1276021)"
     id="g1066">
    <rect
       x="-0.067199998"
       y="-0.33899999"
       width="0.1345"
       height="4.1658001"
       ry="0.039999999"
       fill="currentColor"
       id="rect1064" />
  </g>
  <g
     transform="translate(53.2426,9.1276021)"
     id="g1070">
    <path
       transform="scale(0.0044,-0.0044)"
       d="m 220,135 c 54,0 106,-27 106,-87 0,-71 -56,-120 -103,-148 -36,-21 -76,-35 -117,-35 -54,0 -106,27 -106,87 0,71 56,120 103,148 36,21 76,35 117,35 z"
       fill="currentColor"
       id="path1068" />
  </g>
  <g
     transform="translate(53.2426,8.0276021)"
     id="g1074">
    <path
       transform="scale(0.0044,-0.0044)"
       d="m 220,135 c 54,0 106,-27 106,-87 0,-71 -56,-120 -103,-148 -36,-21 -76,-35 -117,-35 -54,0 -106,27 -106,87 0,71 56,120 103,148 36,21 76,35 117,35 z"
       fill="currentColor"
       id="path1072" />
  </g>
  <g
     transform="translate(53.3099,9.1276021)"
     id="g1078">
    <rect
       x="-0.067199998"
       y="-0.889"
       width="0.1345"
       height="3.9546001"
       ry="0.039999999"
       fill="currentColor"
       id="rect1076" />
  </g>
  <g
     transform="translate(50.6069,9.6776021)"
     id="g1082">
    <path
       transform="scale(0.0044,-0.0044)"
       d="m 220,135 c 54,0 106,-27 106,-87 0,-71 -56,-120 -103,-148 -36,-21 -76,-35 -117,-35 -54,0 -106,27 -106,87 0,71 56,120 103,148 36,21 76,35 117,35 z"
       fill="currentColor"
       id="path1080" />
  </g>
  <g
     transform="translate(55.8784,5.2776021)"
     id="g1086">
    <path
       transform="scale(0.0044,-0.0044)"
       d="m 220,135 c 54,0 106,-27 106,-87 0,-71 -56,-120 -103,-148 -36,-21 -76,-35 -117,-35 -54,0 -106,27 -106,87 0,71 56,120 103,148 36,21 76,35 117,35 z"
       fill="currentColor"
       id="path1084" />
  </g>
  <g
     transform="translate(55.9456,9.1276021)"
     id="g1090">
    <rect
       x="-0.067199998"
       y="-3.6389999"
       width="0.1345"
       height="5.8390002"
       ry="0.039999999"
       fill="currentColor"
       id="rect1088" />
  </g>
  <g
     transform="translate(58.5141,5.2776021)"
     id="g1094">
    <path
       transform="scale(0.0044,-0.0044)"
       d="m 220,135 c 54,0 106,-27 106,-87 0,-71 -56,-120 -103,-148 -36,-21 -76,-35 -117,-35 -54,0 -106,27 -106,87 0,71 56,120 103,148 36,21 76,35 117,35 z"
       fill="currentColor"
       id="path1092" />
  </g>
  <g
     transform="translate(58.5141,1.4276021)"
     id="g1098">
    <path
       transform="scale(0.0044,-0.0044)"
       d="m 220,135 c 54,0 106,-27 106,-87 0,-71 -56,-120 -103,-148 -36,-21 -76,-35 -117,-35 -54,0 -106,27 -106,87 0,71 56,120 103,148 36,21 76,35 117,35 z"
       fill="currentColor"
       id="path1096" />
  </g>
  <g
     transform="translate(58.5813,9.1276021)"
     id="g1102">
    <rect
       x="-0.067199998"
       y="-7.4889998"
       width="0.1345"
       height="8.8233004"
       ry="0.039999999"
       fill="currentColor"
       id="rect1100" />
  </g>
  <g
     transform="translate(13.7071,4.1776021)"
     id="g1106">
    <path
       transform="scale(0.0044,-0.0044)"
       d="m 220,135 c 54,0 106,-27 106,-87 0,-71 -56,-120 -103,-148 -36,-21 -76,-35 -117,-35 -54,0 -106,27 -106,87 0,71 56,120 103,148 36,21 76,35 117,35 z"
       fill="currentColor"
       id="path1104" />
  </g>
  <g
     transform="translate(11.0714,4.7276021)"
     id="g1110">
    <path
       transform="scale(0.0044,-0.0044)"
       d="m 220,135 c 54,0 106,-27 106,-87 0,-71 -56,-120 -103,-148 -36,-21 -76,-35 -117,-35 -54,0 -106,27 -106,87 0,71 56,120 103,148 36,21 76,35 117,35 z"
       fill="currentColor"
       id="path1108" />
  </g>
  <g
     transform="translate(11.2771,1.8025021)"
     id="g1114">
    <path
       transform="scale(0.0025,-0.0025)"
       d="m 199,287 c 23,15 47,31 64,53 12,16 19,33 28,51 2,4 7,7 11,7 7,0 15,-6 15,-17 V 160 h 78 c 12,0 17,-9 17,-18 0,-9 -5,-17 -17,-17 h -78 c 1,-51 32,-97 79,-97 9,0 14,-7 14,-14 C 410,7 405,0 396,0 348,0 301,13 253,13 205,13 158,0 110,0 101,0 96,7 96,14 c 0,7 5,14 14,14 47,0 78,46 79,97 H 35 c -28,0 -37,16 -37,27 0,3 1,6 2,8 78,89 126,201 126,320 0,11 7,20 16,20 h 3 c 25,-7 50,-13 76,-13 26,0 51,6 76,13 2,1 4,1 6,1 10,0 16,-7 16,-14 0,-2 0,-5 -2,-7 L 35,160 h 154 v 101 c 0,10 2,21 10,26 z"
       fill="currentColor"
       id="path1112" />
  </g>
  <g
     transform="translate(11.3283,3.5816021)"
     id="g1118">
    <path
       transform="scale(0.0025,-0.0025)"
       d="m 125,147 h 10 c 35,0 73,-12 110,-39 19,-14 41,-22 60,-22 22,0 40,10 46,31 2,7 7,11 13,11 7,0 14,-6 14,-14 0,-1 -1,-3 -1,-4 C 358,40 295,0 233,0 195,0 159,15 133,47 121,62 104,69 88,69 59,69 31,48 28,13 27,4 21,0 14,0 7,0 0,5 0,14 c 0,174 233,163 233,341 0,57 -14,117 -63,117 -31,0 -61,-14 -61,-41 0,-25 32,-39 32,-64 0,-35 -28,-64 -63,-64 -35,0 -64,29 -64,64 0,78 74,133 156,133 98,0 191,-55 191,-145 C 361,210 223,198 125,147 Z"
       fill="currentColor"
       id="path1116" />
  </g>
  <g
     transform="translate(11.1386,9.1276021)"
     id="g1122">
    <rect
       x="-0.067199998"
       y="-4.1890001"
       width="0.1345"
       height="8.3998003"
       ry="0.039999999"
       fill="currentColor"
       id="rect1120" />
  </g>
  <g
     transform="translate(13.7071,8.0276021)"
     id="g1126">
    <path
       transform="scale(0.0044,-0.0044)"
       d="m 220,135 c 54,0 106,-27 106,-87 0,-71 -56,-120 -103,-148 -36,-21 -76,-35 -117,-35 -54,0 -106,27 -106,87 0,71 56,120 103,148 36,21 76,35 117,35 z"
       fill="currentColor"
       id="path1124" />
  </g>
  <g
     transform="translate(11.0714,8.5776021)"
     id="g1130">
    <path
       transform="scale(0.0044,-0.0044)"
       d="m 220,135 c 54,0 106,-27 106,-87 0,-71 -56,-120 -103,-148 -36,-21 -76,-35 -117,-35 -54,0 -106,27 -106,87 0,71 56,120 103,148 36,21 76,35 117,35 z"
       fill="currentColor"
       id="path1128" />
  </g>
  <g
     transform="translate(13.9128,1.2525021)"
     id="g1134">
    <path
       transform="scale(0.0025,-0.0025)"
       d="m 199,287 c 23,15 47,31 64,53 12,16 19,33 28,51 2,4 7,7 11,7 7,0 15,-6 15,-17 V 160 h 78 c 12,0 17,-9 17,-18 0,-9 -5,-17 -17,-17 h -78 c 1,-51 32,-97 79,-97 9,0 14,-7 14,-14 C 410,7 405,0 396,0 348,0 301,13 253,13 205,13 158,0 110,0 101,0 96,7 96,14 c 0,7 5,14 14,14 47,0 78,46 79,97 H 35 c -28,0 -37,16 -37,27 0,3 1,6 2,8 78,89 126,201 126,320 0,11 7,20 16,20 h 3 c 25,-7 50,-13 76,-13 26,0 51,6 76,13 2,1 4,1 6,1 10,0 16,-7 16,-14 0,-2 0,-5 -2,-7 L 35,160 h 154 v 101 c 0,10 2,21 10,26 z"
       fill="currentColor"
       id="path1132" />
  </g>
  <g
     transform="translate(13.964,3.0316021)"
     id="g1138">
    <path
       transform="scale(0.0025,-0.0025)"
       d="m 125,147 h 10 c 35,0 73,-12 110,-39 19,-14 41,-22 60,-22 22,0 40,10 46,31 2,7 7,11 13,11 7,0 14,-6 14,-14 0,-1 -1,-3 -1,-4 C 358,40 295,0 233,0 195,0 159,15 133,47 121,62 104,69 88,69 59,69 31,48 28,13 27,4 21,0 14,0 7,0 0,5 0,14 c 0,174 233,163 233,341 0,57 -14,117 -63,117 -31,0 -61,-14 -61,-41 0,-25 32,-39 32,-64 0,-35 -28,-64 -63,-64 -35,0 -64,29 -64,64 0,78 74,133 156,133 98,0 191,-55 191,-145 C 361,210 223,198 125,147 Z"
       fill="currentColor"
       id="path1136" />
  </g>
  <g
     transform="translate(13.7743,9.1276021)"
     id="g1142">
    <rect
       x="-0.067199998"
       y="-4.7389998"
       width="0.1345"
       height="8.0636997"
       ry="0.039999999"
       fill="currentColor"
       id="rect1140" />
  </g>
  <g
     transform="translate(29.5213,6.9276021)"
     id="g1146">
    <path
       transform="scale(0.0044,-0.0044)"
       d="m 220,135 c 54,0 106,-27 106,-87 0,-71 -56,-120 -103,-148 -36,-21 -76,-35 -117,-35 -54,0 -106,27 -106,87 0,71 56,120 103,148 36,21 76,35 117,35 z"
       fill="currentColor"
       id="path1144" />
  </g>
  <g
     transform="translate(16.3428,8.0276021)"
     id="g1150">
    <path
       transform="scale(0.0044,-0.0044)"
       d="m 220,135 c 54,0 106,-27 106,-87 0,-71 -56,-120 -103,-148 -36,-21 -76,-35 -117,-35 -54,0 -106,27 -106,87 0,71 56,120 103,148 36,21 76,35 117,35 z"
       fill="currentColor"
       id="path1148" />
  </g>
  <g
     transform="translate(5.8,12.427602)"
     id="g1154">
    <path
       transform="scale(0.0044,-0.0044)"
       d="m 220,135 c 54,0 106,-27 106,-87 0,-71 -56,-120 -103,-148 -36,-21 -76,-35 -117,-35 -54,0 -106,27 -106,87 0,71 56,120 103,148 36,21 76,35 117,35 z"
       fill="currentColor"
       id="path1152" />
  </g>
  <g
     transform="translate(5.8,11.327602)"
     id="g1158">
    <path
       transform="scale(0.0044,-0.0044)"
       d="m 220,135 c 54,0 106,-27 106,-87 0,-71 -56,-120 -103,-148 -36,-21 -76,-35 -117,-35 -54,0 -106,27 -106,87 0,71 56,120 103,148 36,21 76,35 117,35 z"
       fill="currentColor"
       id="path1156" />
  </g>
  <g
     transform="translate(0.80000003,10.227602)"
     id="g1162">
    <path
       transform="scale(0.0044,-0.0044)"
       d="m 267,-593 -1,-41 h -5 c -108,0 -196,88 -196,196 0,58 54,104 113,104 54,0 95,-48 95,-104 0,-52 -43,-95 -95,-95 -11,0 -23,3 -34,8 26,-40 69,-68 119,-68 z m 108,854 c 5,0 9,1 14,1 155,0 255,-128 255,-260 0,-76 -33,-154 -107,-209 -22,-17 -47,-28 -73,-36 3,-35 5,-71 5,-107 0,-19 -1,-38 -2,-57 -7,-119 -87,-224 -201,-227 l 1,41 c 93,2 154,93 160,192 1,18 1,36 1,54 0,31 -1,63 -4,94 -29,-5 -58,-8 -89,-8 -188,0 -333,172 -333,373 0,177 132,307 249,441 -19,63 -35,125 -43,190 -6,51 -7,103 -7,155 0,116 56,226 150,294 5,4 13,3 18,-1 70,-84 132,-245 132,-358 0,-143 -86,-255 -181,-364 20,-69 38,-138 55,-208 z m 85,-465 c 69,24 115,96 115,165 0,91 -68,182 -176,192 25,-117 47,-233 61,-357 z M 73,30 c 0,-136 130,-250 265,-250 28,0 55,2 82,6 C 406,-87 382,32 356,152 277,143 232,90 232,32 c 0,-44 26,-91 82,-123 5,-4 6,-10 6,-15 0,-11 -9,-21 -21,-21 -3,0 -5,1 -8,2 -80,43 -117,114 -117,184 0,88 58,173 159,196 -14,59 -30,119 -46,177 C 180,311 73,190 73,30 Z m 358,885 c 0,57 -4,80 -21,132 -99,-49 -162,-150 -162,-260 0,-75 17,-135 35,-197 81,97 148,199 148,325 z"
       fill="currentColor"
       id="path1160" />
  </g>
  <g
     transform="translate(5.8672,9.1276021)"
     id="g1166">
    <rect
       x="-0.067199998"
       y="2.411"
       width="0.1345"
       height="3.6157999"
       ry="0.039999999"
       fill="currentColor"
       id="rect1164" />
  </g>
  <g
     transform="translate(8.4357,11.327602)"
     id="g1170">
    <path
       transform="scale(0.0044,-0.0044)"
       d="m 220,135 c 54,0 106,-27 106,-87 0,-71 -56,-120 -103,-148 -36,-21 -76,-35 -117,-35 -54,0 -106,27 -106,87 0,71 56,120 103,148 36,21 76,35 117,35 z"
       fill="currentColor"
       id="path1168" />
  </g>
  <g
     transform="translate(8.4357,8.5776021)"
     id="g1174">
    <path
       transform="scale(0.0044,-0.0044)"
       d="m 220,135 c 54,0 106,-27 106,-87 0,-71 -56,-120 -103,-148 -36,-21 -76,-35 -117,-35 -54,0 -106,27 -106,87 0,71 56,120 103,148 36,21 76,35 117,35 z"
       fill="currentColor"
       id="path1172" />
  </g>
  <g
     transform="translate(8.5029,9.1276021)"
     id="g1178">
    <rect
       x="-0.067199998"
       y="-0.33899999"
       width="0.1345"
       height="5.4577999"
       ry="0.039999999"
       fill="currentColor"
       id="rect1176" />
  </g>
  <g
     transform="translate(21.6142,11.327602)"
     id="g1182">
    <path
       transform="scale(0.0044,-0.0044)"
       d="m 220,135 c 54,0 106,-27 106,-87 0,-71 -56,-120 -103,-148 -36,-21 -76,-35 -117,-35 -54,0 -106,27 -106,87 0,71 56,120 103,148 36,21 76,35 117,35 z"
       fill="currentColor"
       id="path1180" />
  </g>
  <g
     transform="translate(21.9052,4.5467021)"
     id="g1186">
    <path
       transform="scale(0.0025,-0.0025)"
       d="m 0,250 127,250 c 3,6 12,3 20,0 14,-6 28,-13 44,-13 16,0 30,7 44,13 1,1 4,1 5,1 8,0 15,-10 15,-21 V 127 c 0,-52 32,-99 80,-99 9,0 13,-7 13,-14 C 348,7 344,0 335,0 287,0 239,13 191,13 143,13 96,0 48,0 39,0 34,7 34,14 c 0,7 5,14 14,14 48,0 79,47 79,99 v 220 c 0,15 -10,22 -19,22 -5,0 -10,-1 -12,-6 L 31,234 c -3,-7 -9,-9 -15,-9 -9,0 -18,7 -18,17 0,3 1,5 2,8 z"
       fill="currentColor"
       id="path1184" />
  </g>
  <g
     transform="translate(21.9052,6.3259021)"
     id="g1190">
    <path
       transform="scale(0.0025,-0.0025)"
       d="m 155,472 c -33,0 -68,-8 -68,-36 0,-20 33,-24 33,-44 0,-29 -24,-53 -53,-53 -29,0 -53,24 -53,53 0,66 69,108 141,108 93,0 173,-31 173,-113 0,-41 -7,-78 -43,-95 -11,-5 -16,-16 -16,-26 0,-10 5,-21 16,-26 40,-19 59,-54 59,-99 C 344,47 261,0 159,0 78,0 0,44 0,118 c 0,34 27,61 61,61 34,0 60,-27 60,-61 0,-23 -37,-27 -37,-50 0,-31 39,-40 75,-40 47,0 57,59 57,113 v 35 c 0,42 -4,73 -44,73 H 97 c -12,0 -17,8 -17,17 0,9 5,17 17,17 h 75 c 41,0 44,33 44,77 v 27 c 0,51 -15,85 -61,85 z"
       fill="currentColor"
       id="path1188" />
  </g>
  <g
     transform="translate(21.6814,9.1276021)"
     id="g1194">
    <rect
       x="-0.067199998"
       y="1.311"
       width="0.1345"
       height="3.9519999"
       ry="0.039999999"
       fill="currentColor"
       id="rect1192" />
  </g>
  <g
     transform="translate(26.8856,3.6276021)"
     id="g1198">
    <path
       transform="scale(0.0044,-0.0044)"
       d="m 220,135 c 54,0 106,-27 106,-87 0,-71 -56,-120 -103,-148 -36,-21 -76,-35 -117,-35 -54,0 -106,27 -106,87 0,71 56,120 103,148 36,21 76,35 117,35 z"
       fill="currentColor"
       id="path1196" />
  </g>
  <g
     transform="translate(26.8856,7.4776021)"
     id="g1202">
    <path
       transform="scale(0.0044,-0.0044)"
       d="m 220,135 c 54,0 106,-27 106,-87 0,-71 -56,-120 -103,-148 -36,-21 -76,-35 -117,-35 -54,0 -106,27 -106,87 0,71 56,120 103,148 36,21 76,35 117,35 z"
       fill="currentColor"
       id="path1200" />
  </g>
  <g
     transform="translate(16.3428,10.777602)"
     id="g1206">
    <path
       transform="scale(0.0044,-0.0044)"
       d="m 220,135 c 54,0 106,-27 106,-87 0,-71 -56,-120 -103,-148 -36,-21 -76,-35 -117,-35 -54,0 -106,27 -106,87 0,71 56,120 103,148 36,21 76,35 117,35 z"
       fill="currentColor"
       id="path1204" />
  </g>
  <g
     transform="translate(21.6142,10.227602)"
     id="g1210">
    <path
       transform="scale(0.0044,-0.0044)"
       d="m 220,135 c 54,0 106,-27 106,-87 0,-71 -56,-120 -103,-148 -36,-21 -76,-35 -117,-35 -54,0 -106,27 -106,87 0,71 56,120 103,148 36,21 76,35 117,35 z"
       fill="currentColor"
       id="path1208" />
  </g>
  <g
     transform="translate(24.2499,10.227602)"
     id="g1214">
    <path
       transform="scale(0.0044,-0.0044)"
       d="m 220,135 c 54,0 106,-27 106,-87 0,-71 -56,-120 -103,-148 -36,-21 -76,-35 -117,-35 -54,0 -106,27 -106,87 0,71 56,120 103,148 36,21 76,35 117,35 z"
       fill="currentColor"
       id="path1212" />
  </g>
  <g
     transform="translate(24.2499,7.4776021)"
     id="g1218">
    <path
       transform="scale(0.0044,-0.0044)"
       d="m 220,135 c 54,0 106,-27 106,-87 0,-71 -56,-120 -103,-148 -36,-21 -76,-35 -117,-35 -54,0 -106,27 -106,87 0,71 56,120 103,148 36,21 76,35 117,35 z"
       fill="currentColor"
       id="path1216" />
  </g>
  <g
     transform="translate(24.3171,9.1276021)"
     id="g1222">
    <rect
       x="-0.067199998"
       y="-1.439"
       width="0.1345"
       height="5.7328"
       ry="0.039999999"
       fill="currentColor"
       id="rect1220" />
  </g>
  <g
     transform="translate(19.0457,9.1276021)"
     id="g1226">
    <rect
       x="-0.067199998"
       y="1.8609999"
       width="0.1345"
       height="3.402"
       ry="0.039999999"
       fill="currentColor"
       id="rect1224" />
  </g>
  <g
     transform="translate(18.9785,10.777602)"
     id="g1230">
    <path
       transform="scale(0.0044,-0.0044)"
       d="m 220,135 c 54,0 106,-27 106,-87 0,-71 -56,-120 -103,-148 -36,-21 -76,-35 -117,-35 -54,0 -106,27 -106,87 0,71 56,120 103,148 36,21 76,35 117,35 z"
       fill="currentColor"
       id="path1228" />
  </g>
  <g
     transform="translate(26.9528,9.1276021)"
     id="g1234">
    <rect
       x="-0.067199998"
       y="-5.289"
       width="0.1345"
       height="8.6136999"
       ry="0.039999999"
       fill="currentColor"
       id="rect1232" />
  </g>
  <g
     transform="translate(18.9785,11.877602)"
     id="g1238">
    <path
       transform="scale(0.0044,-0.0044)"
       d="m 220,135 c 54,0 106,-27 106,-87 0,-71 -56,-120 -103,-148 -36,-21 -76,-35 -117,-35 -54,0 -106,27 -106,87 0,71 56,120 103,148 36,21 76,35 117,35 z"
       fill="currentColor"
       id="path1236" />
  </g>
  <g
     transform="translate(16.41,9.1276021)"
     id="g1242">
    <rect
       x="-0.067199998"
       y="-0.889"
       width="0.1345"
       height="5.1827998"
       ry="0.039999999"
       fill="currentColor"
       id="rect1240" />
  </g>
</svg>
