<svg
   version="1.2"
   width="96.297325mm"
   height="25.049911mm"
   viewBox="0 0 54.798497 14.254783"
   id="svg4462"
   sodipodi:docname="shifting-1.svg"
   xmlns:inkscape="http://www.inkscape.org/namespaces/inkscape"
   xmlns:sodipodi="http://sodipodi.sourceforge.net/DTD/sodipodi-0.dtd"
   xmlns="http://www.w3.org/2000/svg"
   xmlns:svg="http://www.w3.org/2000/svg">
  <defs
     id="defs4466" />
  <sodipodi:namedview
     id="namedview4464"
     pagecolor="#ffffff"
     bordercolor="#000000"
     borderopacity="0.25"
     inkscape:showpageshadow="2"
     inkscape:pageopacity="0.0"
     inkscape:pagecheckerboard="0"
     inkscape:deskcolor="#d1d1d1"
     inkscape:document-units="mm"
     showgrid="false" />
  <style
     type="text/css"
     id="style2"><![CDATA[
tspan { white-space: pre; }
]]></style>
  <!-- Page: 1/3 -->
  <g
     transform="translate(3.1967416e-8,11.270892)"
     id="g1246">
    <line
       stroke-linejoin="round"
       stroke-linecap="round"
       stroke-width="0.1034"
       stroke="currentColor"
       x1="0.0517"
       y1="0"
       x2="54.746799"
       y2="0"
       id="line1244" />
  </g>
  <g
     transform="translate(3.1967416e-8,10.170892)"
     id="g1250">
    <line
       stroke-linejoin="round"
       stroke-linecap="round"
       stroke-width="0.1034"
       stroke="currentColor"
       x1="0.0517"
       y1="0"
       x2="54.746799"
       y2="0"
       id="line1248" />
  </g>
  <g
     transform="translate(3.1967416e-8,9.0708921)"
     id="g1254">
    <line
       stroke-linejoin="round"
       stroke-linecap="round"
       stroke-width="0.1034"
       stroke="currentColor"
       x1="0.0517"
       y1="0"
       x2="54.746799"
       y2="0"
       id="line1252" />
  </g>
  <g
     transform="translate(3.1967416e-8,7.9708921)"
     id="g1258">
    <line
       stroke-linejoin="round"
       stroke-linecap="round"
       stroke-width="0.1034"
       stroke="currentColor"
       x1="0.0517"
       y1="0"
       x2="54.746799"
       y2="0"
       id="line1256" />
  </g>
  <g
     transform="translate(3.1967416e-8,6.8708921)"
     id="g1262">
    <line
       stroke-linejoin="round"
       stroke-linecap="round"
       stroke-width="0.1034"
       stroke="currentColor"
       x1="0.0517"
       y1="0"
       x2="54.746799"
       y2="0"
       id="line1260" />
  </g>
  <g
     transform="translate(3.1967416e-8,5.7708921)"
     id="g1266">
    <rect
       x="45.753799"
       y="-0.1067"
       width="2.1536"
       height="0.21340001"
       ry="0.1067"
       fill="currentColor"
       id="rect1264" />
  </g>
  <g
     transform="translate(3.1967416e-8,5.7708921)"
     id="g1270">
    <rect
       x="43.118099"
       y="-0.1067"
       width="2.1536"
       height="0.21340001"
       ry="0.1067"
       fill="currentColor"
       id="rect1268" />
  </g>
  <g
     transform="translate(3.1967416e-8,4.6708921)"
     id="g1274">
    <rect
       x="40.482399"
       y="-0.1067"
       width="2.1536"
       height="0.21340001"
       ry="0.1067"
       fill="currentColor"
       id="rect1272" />
  </g>
  <g
     transform="translate(3.1967416e-8,5.7708921)"
     id="g1278">
    <rect
       x="40.482399"
       y="-0.1067"
       width="2.1536"
       height="0.21340001"
       ry="0.1067"
       fill="currentColor"
       id="rect1276" />
  </g>
  <g
     transform="translate(3.1967416e-8,4.6708921)"
     id="g1282">
    <rect
       x="37.846699"
       y="-0.1067"
       width="2.1536"
       height="0.21340001"
       ry="0.1067"
       fill="currentColor"
       id="rect1280" />
  </g>
  <g
     transform="translate(3.1967416e-8,5.7708921)"
     id="g1286">
    <rect
       x="37.846699"
       y="-0.1067"
       width="2.1536"
       height="0.21340001"
       ry="0.1067"
       fill="currentColor"
       id="rect1284" />
  </g>
  <g
     transform="translate(3.1967416e-8,3.5708921)"
     id="g1290">
    <rect
       x="35.210999"
       y="-0.1067"
       width="2.1536"
       height="0.21340001"
       ry="0.1067"
       fill="currentColor"
       id="rect1288" />
  </g>
  <g
     transform="translate(3.1967416e-8,4.6708921)"
     id="g1294">
    <rect
       x="35.210999"
       y="-0.1067"
       width="2.1536"
       height="0.21340001"
       ry="0.1067"
       fill="currentColor"
       id="rect1292" />
  </g>
  <g
     transform="translate(3.1967416e-8,5.7708921)"
     id="g1298">
    <rect
       x="35.210999"
       y="-0.1067"
       width="2.1536"
       height="0.21340001"
       ry="0.1067"
       fill="currentColor"
       id="rect1296" />
  </g>
  <g
     transform="translate(3.1967416e-8,3.5708921)"
     id="g1302">
    <rect
       x="32.575298"
       y="-0.1067"
       width="2.1536"
       height="0.21340001"
       ry="0.1067"
       fill="currentColor"
       id="rect1300" />
  </g>
  <g
     transform="translate(3.1967416e-8,4.6708921)"
     id="g1306">
    <rect
       x="32.575298"
       y="-0.1067"
       width="2.1536"
       height="0.21340001"
       ry="0.1067"
       fill="currentColor"
       id="rect1304" />
  </g>
  <g
     transform="translate(3.1967416e-8,5.7708921)"
     id="g1310">
    <rect
       x="32.575298"
       y="-0.1067"
       width="2.1536"
       height="0.21340001"
       ry="0.1067"
       fill="currentColor"
       id="rect1308" />
  </g>
  <g
     transform="translate(3.1967416e-8,3.5708921)"
     id="g1314">
    <rect
       x="29.9396"
       y="-0.1067"
       width="2.1536"
       height="0.21340001"
       ry="0.1067"
       fill="currentColor"
       id="rect1312" />
  </g>
  <g
     transform="translate(3.1967416e-8,4.6708921)"
     id="g1318">
    <rect
       x="29.9396"
       y="-0.1067"
       width="2.1536"
       height="0.21340001"
       ry="0.1067"
       fill="currentColor"
       id="rect1316" />
  </g>
  <g
     transform="translate(3.1967416e-8,5.7708921)"
     id="g1322">
    <rect
       x="29.9396"
       y="-0.1067"
       width="2.1536"
       height="0.21340001"
       ry="0.1067"
       fill="currentColor"
       id="rect1320" />
  </g>
  <g
     transform="translate(3.1967416e-8,3.5708921)"
     id="g1326">
    <rect
       x="27.471701"
       y="-0.1067"
       width="1.9858"
       height="0.21340001"
       ry="0.1067"
       fill="currentColor"
       id="rect1324" />
  </g>
  <g
     transform="translate(3.1967416e-8,4.6708921)"
     id="g1330">
    <rect
       x="27.3039"
       y="-0.1067"
       width="2.1536"
       height="0.21340001"
       ry="0.1067"
       fill="currentColor"
       id="rect1328" />
  </g>
  <g
     transform="translate(3.1967416e-8,5.7708921)"
     id="g1334">
    <rect
       x="27.3039"
       y="-0.1067"
       width="2.1536"
       height="0.21340001"
       ry="0.1067"
       fill="currentColor"
       id="rect1332" />
  </g>
  <g
     transform="translate(3.1967416e-8,4.6708921)"
     id="g1338">
    <rect
       x="24.152599"
       y="-0.1067"
       width="2.1536"
       height="0.21340001"
       ry="0.1067"
       fill="currentColor"
       id="rect1336" />
  </g>
  <g
     transform="translate(3.1967416e-8,5.7708921)"
     id="g1342">
    <rect
       x="24.152599"
       y="-0.1067"
       width="2.1536"
       height="0.21340001"
       ry="0.1067"
       fill="currentColor"
       id="rect1340" />
  </g>
  <g
     transform="translate(3.1967416e-8,4.6708921)"
     id="g1346">
    <rect
       x="21.516899"
       y="-0.1067"
       width="2.1536"
       height="0.21340001"
       ry="0.1067"
       fill="currentColor"
       id="rect1344" />
  </g>
  <g
     transform="translate(3.1967416e-8,5.7708921)"
     id="g1350">
    <rect
       x="21.516899"
       y="-0.1067"
       width="2.1536"
       height="0.21340001"
       ry="0.1067"
       fill="currentColor"
       id="rect1348" />
  </g>
  <g
     transform="translate(3.1967416e-8,5.7708921)"
     id="g1354">
    <rect
       x="18.881201"
       y="-0.1067"
       width="2.1536"
       height="0.21340001"
       ry="0.1067"
       fill="currentColor"
       id="rect1352" />
  </g>
  <g
     transform="translate(3.1967416e-8,5.7708921)"
     id="g1358">
    <rect
       x="16.245501"
       y="-0.1067"
       width="2.1536"
       height="0.21340001"
       ry="0.1067"
       fill="currentColor"
       id="rect1356" />
  </g>
  <g
     transform="translate(54.6019,9.0708921)"
     id="g1362">
    <rect
       x="0"
       y="-2.2"
       width="0.1965"
       height="4.4000001"
       ry="0.0000"
       fill="currentColor"
       id="rect1360" />
  </g>
  <g
     transform="translate(35.6371,9.0708921)"
     id="g1366">
    <rect
       x="-0.067199998"
       y="-5.289"
       width="0.1345"
       height="5.5872998"
       ry="0.039999999"
       fill="currentColor"
       id="rect1364" />
  </g>
  <g
     transform="translate(38.2056,6.3208921)"
     id="g1370">
    <path
       transform="scale(0.0044,-0.0044)"
       d="m 220,135 c 54,0 106,-27 106,-87 0,-71 -56,-120 -103,-148 -36,-21 -76,-35 -117,-35 -54,0 -106,27 -106,87 0,71 56,120 103,148 36,21 76,35 117,35 z"
       fill="currentColor"
       id="path1368" />
  </g>
  <g
     transform="translate(38.2056,4.1208921)"
     id="g1374">
    <path
       transform="scale(0.0044,-0.0044)"
       d="m 220,135 c 54,0 106,-27 106,-87 0,-71 -56,-120 -103,-148 -36,-21 -76,-35 -117,-35 -54,0 -106,27 -106,87 0,71 56,120 103,148 36,21 76,35 117,35 z"
       fill="currentColor"
       id="path1372" />
  </g>
  <g
     transform="translate(38.4967,1.6467921)"
     id="g1378">
    <path
       transform="scale(0.0025,-0.0025)"
       d="m 155,472 c -33,0 -68,-8 -68,-36 0,-20 33,-24 33,-44 0,-29 -24,-53 -53,-53 -29,0 -53,24 -53,53 0,66 69,108 141,108 93,0 173,-31 173,-113 0,-41 -7,-78 -43,-95 -11,-5 -16,-16 -16,-26 0,-10 5,-21 16,-26 40,-19 59,-54 59,-99 C 344,47 261,0 159,0 78,0 0,44 0,118 c 0,34 27,61 61,61 34,0 60,-27 60,-61 0,-23 -37,-27 -37,-50 0,-31 39,-40 75,-40 47,0 57,59 57,113 v 35 c 0,42 -4,73 -44,73 H 97 c -12,0 -17,8 -17,17 0,9 5,17 17,17 h 75 c 41,0 44,33 44,77 v 27 c 0,51 -15,85 -61,85 z"
       fill="currentColor"
       id="path1376" />
  </g>
  <g
     transform="translate(38.2728,9.0708921)"
     id="g1382">
    <rect
       x="-0.067199998"
       y="-4.7389998"
       width="0.1345"
       height="5.3283"
       ry="0.039999999"
       fill="currentColor"
       id="rect1380" />
  </g>
  <g
     transform="translate(40.8413,6.8708921)"
     id="g1386">
    <path
       transform="scale(0.0044,-0.0044)"
       d="m 220,135 c 54,0 106,-27 106,-87 0,-71 -56,-120 -103,-148 -36,-21 -76,-35 -117,-35 -54,0 -106,27 -106,87 0,71 56,120 103,148 36,21 76,35 117,35 z"
       fill="currentColor"
       id="path1384" />
  </g>
  <g
     transform="translate(40.8413,4.6708921)"
     id="g1390">
    <path
       transform="scale(0.0044,-0.0044)"
       d="m 220,135 c 54,0 106,-27 106,-87 0,-71 -56,-120 -103,-148 -36,-21 -76,-35 -117,-35 -54,0 -106,27 -106,87 0,71 56,120 103,148 36,21 76,35 117,35 z"
       fill="currentColor"
       id="path1388" />
  </g>
  <g
     transform="translate(41.1324,2.8251921)"
     id="g1394">
    <path
       transform="scale(0.0025,-0.0025)"
       d="m 155,472 c -33,0 -68,-8 -68,-36 0,-20 33,-24 33,-44 0,-29 -24,-53 -53,-53 -29,0 -53,24 -53,53 0,66 69,108 141,108 93,0 173,-31 173,-113 0,-41 -7,-78 -43,-95 -11,-5 -16,-16 -16,-26 0,-10 5,-21 16,-26 40,-19 59,-54 59,-99 C 344,47 261,0 159,0 78,0 0,44 0,118 c 0,34 27,61 61,61 34,0 60,-27 60,-61 0,-23 -37,-27 -37,-50 0,-31 39,-40 75,-40 47,0 57,59 57,113 v 35 c 0,42 -4,73 -44,73 H 97 c -12,0 -17,8 -17,17 0,9 5,17 17,17 h 75 c 41,0 44,33 44,77 v 27 c 0,51 -15,85 -61,85 z"
       fill="currentColor"
       id="path1392" />
  </g>
  <g
     transform="translate(40.9085,9.0708921)"
     id="g1398">
    <rect
       x="-0.067199998"
       y="-4.1890001"
       width="0.1345"
       height="5.0692"
       ry="0.039999999"
       fill="currentColor"
       id="rect1396" />
  </g>
  <g
     transform="translate(32.9342,5.2208921)"
     id="g1402">
    <path
       transform="scale(0.0044,-0.0044)"
       d="m 220,135 c 54,0 106,-27 106,-87 0,-71 -56,-120 -103,-148 -36,-21 -76,-35 -117,-35 -54,0 -106,27 -106,87 0,71 56,120 103,148 36,21 76,35 117,35 z"
       fill="currentColor"
       id="path1400" />
  </g>
  <g
     transform="translate(11.3329,9.0708921)"
     id="g1406">
    <path
       stroke-width="0.0827"
       stroke-linejoin="round"
       stroke-linecap="round"
       stroke="currentColor"
       fill="currentColor"
       d="m 0.6201,-3.346 c 1.3134,-1.7172 6.0165,-2.6986 7.9071,-1.65 v 0 C 6.662,-5.9231 1.9589,-4.9417 0.6201,-3.346 Z"
       id="path1404" />
  </g>
  <g
     transform="translate(30.2985,5.2208921)"
     id="g1410">
    <path
       transform="scale(0.0044,-0.0044)"
       d="m 220,135 c 54,0 106,-27 106,-87 0,-71 -56,-120 -103,-148 -36,-21 -76,-35 -117,-35 -54,0 -106,27 -106,87 0,71 56,120 103,148 36,21 76,35 117,35 z"
       fill="currentColor"
       id="path1408" />
  </g>
  <g
     transform="translate(30.2985,3.0208921)"
     id="g1414">
    <path
       transform="scale(0.0044,-0.0044)"
       d="m 220,135 c 54,0 106,-27 106,-87 0,-71 -56,-120 -103,-148 -36,-21 -76,-35 -117,-35 -54,0 -106,27 -106,87 0,71 56,120 103,148 36,21 76,35 117,35 z"
       fill="currentColor"
       id="path1412" />
  </g>
  <g
     transform="translate(30.5042,1.4964921)"
     id="g1418">
    <path
       transform="scale(0.0025,-0.0025)"
       d="m 199,287 c 23,15 47,31 64,53 12,16 19,33 28,51 2,4 7,7 11,7 7,0 15,-6 15,-17 V 160 h 78 c 12,0 17,-9 17,-18 0,-9 -5,-17 -17,-17 h -78 c 1,-51 32,-97 79,-97 9,0 14,-7 14,-14 C 410,7 405,0 396,0 348,0 301,13 253,13 205,13 158,0 110,0 101,0 96,7 96,14 c 0,7 5,14 14,14 47,0 78,46 79,97 H 35 c -28,0 -37,16 -37,27 0,3 1,6 2,8 78,89 126,201 126,320 0,11 7,20 16,20 h 3 c 25,-7 50,-13 76,-13 26,0 51,6 76,13 2,1 4,1 6,1 10,0 16,-7 16,-14 0,-2 0,-5 -2,-7 L 35,160 h 154 v 101 c 0,10 2,21 10,26 z"
       fill="currentColor"
       id="path1416" />
  </g>
  <g
     transform="translate(30.3657,9.0708921)"
     id="g1422">
    <rect
       x="-0.067199998"
       y="-5.8390002"
       width="0.1345"
       height="5.8459001"
       ry="0.039999999"
       fill="currentColor"
       id="rect1420" />
  </g>
  <g
     transform="translate(35.7756,1.2797921)"
     id="g1426">
    <path
       transform="scale(0.0025,-0.0025)"
       d="m 199,287 c 23,15 47,31 64,53 12,16 19,33 28,51 2,4 7,7 11,7 7,0 15,-6 15,-17 V 160 h 78 c 12,0 17,-9 17,-18 0,-9 -5,-17 -17,-17 h -78 c 1,-51 32,-97 79,-97 9,0 14,-7 14,-14 C 410,7 405,0 396,0 348,0 301,13 253,13 205,13 158,0 110,0 101,0 96,7 96,14 c 0,7 5,14 14,14 47,0 78,46 79,97 H 35 c -28,0 -37,16 -37,27 0,3 1,6 2,8 78,89 126,201 126,320 0,11 7,20 16,20 h 3 c 25,-7 50,-13 76,-13 26,0 51,6 76,13 2,1 4,1 6,1 10,0 16,-7 16,-14 0,-2 0,-5 -2,-7 L 35,160 h 154 v 101 c 0,10 2,21 10,26 z"
       fill="currentColor"
       id="path1424" />
  </g>
  <g
     transform="translate(32.9342,3.0208921)"
     id="g1430">
    <path
       transform="scale(0.0044,-0.0044)"
       d="m 220,135 c 54,0 106,-27 106,-87 0,-71 -56,-120 -103,-148 -36,-21 -76,-35 -117,-35 -54,0 -106,27 -106,87 0,71 56,120 103,148 36,21 76,35 117,35 z"
       fill="currentColor"
       id="path1428" />
  </g>
  <g
     transform="translate(33.1399,1.5022921)"
     id="g1434">
    <path
       transform="scale(0.0025,-0.0025)"
       d="m 199,287 c 23,15 47,31 64,53 12,16 19,33 28,51 2,4 7,7 11,7 7,0 15,-6 15,-17 V 160 h 78 c 12,0 17,-9 17,-18 0,-9 -5,-17 -17,-17 h -78 c 1,-51 32,-97 79,-97 9,0 14,-7 14,-14 C 410,7 405,0 396,0 348,0 301,13 253,13 205,13 158,0 110,0 101,0 96,7 96,14 c 0,7 5,14 14,14 47,0 78,46 79,97 H 35 c -28,0 -37,16 -37,27 0,3 1,6 2,8 78,89 126,201 126,320 0,11 7,20 16,20 h 3 c 25,-7 50,-13 76,-13 26,0 51,6 76,13 2,1 4,1 6,1 10,0 16,-7 16,-14 0,-2 0,-5 -2,-7 L 35,160 h 154 v 101 c 0,10 2,21 10,26 z"
       fill="currentColor"
       id="path1432" />
  </g>
  <g
     transform="translate(33.0014,9.0708921)"
     id="g1438">
    <rect
       x="-0.067199998"
       y="-5.8390002"
       width="0.1345"
       height="5.8463998"
       ry="0.039999999"
       fill="currentColor"
       id="rect1436" />
  </g>
  <g
     transform="translate(35.5699,5.7708921)"
     id="g1442">
    <path
       transform="scale(0.0044,-0.0044)"
       d="m 220,135 c 54,0 106,-27 106,-87 0,-71 -56,-120 -103,-148 -36,-21 -76,-35 -117,-35 -54,0 -106,27 -106,87 0,71 56,120 103,148 36,21 76,35 117,35 z"
       fill="currentColor"
       id="path1440" />
  </g>
  <g
     transform="translate(35.5699,3.5708921)"
     id="g1446">
    <path
       transform="scale(0.0044,-0.0044)"
       d="m 220,135 c 54,0 106,-27 106,-87 0,-71 -56,-120 -103,-148 -36,-21 -76,-35 -117,-35 -54,0 -106,27 -106,87 0,71 56,120 103,148 36,21 76,35 117,35 z"
       fill="currentColor"
       id="path1444" />
  </g>
  <g
     transform="translate(51.3841,9.0708921)"
     id="g1450">
    <path
       transform="scale(0.0044,-0.0044)"
       d="m 220,135 c 54,0 106,-27 106,-87 0,-71 -56,-120 -103,-148 -36,-21 -76,-35 -117,-35 -54,0 -106,27 -106,87 0,71 56,120 103,148 36,21 76,35 117,35 z"
       fill="currentColor"
       id="path1448" />
  </g>
  <g
     transform="translate(51.3841,6.8708921)"
     id="g1454">
    <path
       transform="scale(0.0044,-0.0044)"
       d="m 220,135 c 54,0 106,-27 106,-87 0,-71 -56,-120 -103,-148 -36,-21 -76,-35 -117,-35 -54,0 -106,27 -106,87 0,71 56,120 103,148 36,21 76,35 117,35 z"
       fill="currentColor"
       id="path1452" />
  </g>
  <g
     transform="translate(51.3841,14.221692)"
     id="g1460">
    <text
       font-family="serif"
       font-size="2.4202px"
       text-anchor="start"
       fill="currentColor"
       id="text1458"><tspan
         id="tspan1456">etc.</tspan></text>
  </g>
  <g
     transform="translate(51.6752,5.0251921)"
     id="g1464">
    <path
       transform="scale(0.0025,-0.0025)"
       d="m 0,250 127,250 c 3,6 12,3 20,0 14,-6 28,-13 44,-13 16,0 30,7 44,13 1,1 4,1 5,1 8,0 15,-10 15,-21 V 127 c 0,-52 32,-99 80,-99 9,0 13,-7 13,-14 C 348,7 344,0 335,0 287,0 239,13 191,13 143,13 96,0 48,0 39,0 34,7 34,14 c 0,7 5,14 14,14 48,0 79,47 79,99 v 220 c 0,15 -10,22 -19,22 -5,0 -10,-1 -12,-6 L 31,234 c -3,-7 -9,-9 -15,-9 -9,0 -18,7 -18,17 0,3 1,5 2,8 z"
       fill="currentColor"
       id="path1462" />
  </g>
  <g
     transform="translate(51.4513,9.0708921)"
     id="g1468">
    <rect
       x="-0.067199998"
       y="-1.989"
       width="0.1345"
       height="5.2797999"
       ry="0.039999999"
       fill="currentColor"
       id="rect1466" />
  </g>
  <g
     transform="translate(43.477,10.383192)"
     id="g1472">
    <polygon
       stroke-linejoin="round"
       stroke-linecap="round"
       stroke-width="0.08"
       fill="currentColor"
       stroke="currentColor"
       points="8.0016,0.876 8.0016,1.324 0.04,0.224 0.04,-0.224 "
       id="polygon1470" />
  </g>
  <g
     transform="translate(43.477,11.270892)"
     id="g1476">
    <polygon
       stroke-linejoin="round"
       stroke-linecap="round"
       stroke-width="0.08"
       fill="currentColor"
       stroke="currentColor"
       points="8.0016,0.876 8.0016,1.324 0.04,0.224 0.04,-0.224 "
       id="polygon1474" />
  </g>
  <g
     transform="translate(32.9342,8.1831921)"
     id="g1480">
    <polygon
       stroke-linejoin="round"
       stroke-linecap="round"
       stroke-width="0.08"
       fill="currentColor"
       stroke="currentColor"
       points="8.0016,0.6637 8.0016,1.1117 0.04,0.224 0.04,-0.224 "
       id="polygon1478" />
  </g>
  <g
     transform="translate(32.9342,9.0708921)"
     id="g1484">
    <polygon
       stroke-linejoin="round"
       stroke-linecap="round"
       stroke-width="0.08"
       fill="currentColor"
       stroke="currentColor"
       points="8.0016,0.6637 8.0016,1.1117 0.04,0.224 0.04,-0.224 "
       id="polygon1482" />
  </g>
  <g
     transform="translate(43.477,9.0708921)"
     id="g1488">
    <path
       stroke-width="0.0827"
       stroke-linejoin="round"
       stroke-linecap="round"
       stroke="currentColor"
       fill="currentColor"
       d="m 0.8156,-4.996 c 1.8906,-1.0486 6.5937,-0.0672 7.9071,1.65 v 0 C 7.384,-4.9417 2.6808,-5.9231 0.8156,-4.996 Z"
       id="path1486" />
  </g>
  <g
     transform="translate(21.8758,9.0708921)"
     id="g1492">
    <polygon
       stroke-linejoin="round"
       stroke-linecap="round"
       stroke-width="0.08"
       fill="currentColor"
       stroke="currentColor"
       points="8.5172,-1.1117 8.5172,-0.6637 0.04,0.224 0.04,-0.224 "
       id="polygon1490" />
  </g>
  <g
     transform="translate(21.8758,9.9585921)"
     id="g1496">
    <polygon
       stroke-linejoin="round"
       stroke-linecap="round"
       stroke-width="0.08"
       fill="currentColor"
       stroke="currentColor"
       points="8.5172,-1.1117 8.5172,-0.6637 0.04,0.224 0.04,-0.224 "
       id="polygon1494" />
  </g>
  <g
     transform="translate(32.9342,9.0708921)"
     id="g1500">
    <path
       stroke-width="0.0827"
       stroke-linejoin="round"
       stroke-linecap="round"
       stroke="currentColor"
       fill="currentColor"
       d="m 0.8156,-7.196 c 1.8906,-1.0486 6.5937,-0.0672 7.9071,1.65 v 0 C 7.384,-7.1417 2.6808,-8.1231 0.8156,-7.196 Z"
       id="path1498" />
  </g>
  <g
     transform="translate(11.3329,11.483192)"
     id="g1504">
    <polygon
       stroke-linejoin="round"
       stroke-linecap="round"
       stroke-width="0.08"
       fill="currentColor"
       stroke="currentColor"
       points="8.0016,-1.324 8.0016,-0.876 0.04,0.224 0.04,-0.224 "
       id="polygon1502" />
  </g>
  <g
     transform="translate(11.3329,12.370892)"
     id="g1508">
    <polygon
       stroke-linejoin="round"
       stroke-linecap="round"
       stroke-width="0.08"
       fill="currentColor"
       stroke="currentColor"
       points="8.0016,-1.324 8.0016,-0.876 0.04,0.224 0.04,-0.224 "
       id="polygon1506" />
  </g>
  <g
     transform="translate(21.8758,9.0708921)"
     id="g1512">
    <path
       stroke-width="0.0827"
       stroke-linejoin="round"
       stroke-linecap="round"
       stroke="currentColor"
       fill="currentColor"
       d="m 0.6259,-5.546 c 1.3884,-1.7517 6.4758,-2.7483 8.4227,-1.65 v 0 c -1.923,-0.9765 -7.0104,0.0201 -8.4227,1.65 z"
       id="path1510" />
  </g>
  <g
     transform="translate(46.3696,3.4797921)"
     id="g1516">
    <path
       transform="scale(0.0025,-0.0025)"
       d="m 125,147 h 10 c 35,0 73,-12 110,-39 19,-14 41,-22 60,-22 22,0 40,10 46,31 2,7 7,11 13,11 7,0 14,-6 14,-14 0,-1 -1,-3 -1,-4 C 358,40 295,0 233,0 195,0 159,15 133,47 121,62 104,69 88,69 59,69 31,48 28,13 27,4 21,0 14,0 7,0 0,5 0,14 c 0,174 233,163 233,341 0,57 -14,117 -63,117 -31,0 -61,-14 -61,-41 0,-25 32,-39 32,-64 0,-35 -28,-64 -63,-64 -35,0 -64,29 -64,64 0,78 74,133 156,133 98,0 191,-55 191,-145 C 361,210 223,198 125,147 Z"
       fill="currentColor"
       id="path1514" />
  </g>
  <g
     transform="translate(43.477,7.4208921)"
     id="g1520">
    <path
       transform="scale(0.0044,-0.0044)"
       d="m 220,135 c 54,0 106,-27 106,-87 0,-71 -56,-120 -103,-148 -36,-21 -76,-35 -117,-35 -54,0 -106,27 -106,87 0,71 56,120 103,148 36,21 76,35 117,35 z"
       fill="currentColor"
       id="path1518" />
  </g>
  <g
     transform="translate(43.477,5.2208921)"
     id="g1524">
    <path
       transform="scale(0.0044,-0.0044)"
       d="m 220,135 c 54,0 106,-27 106,-87 0,-71 -56,-120 -103,-148 -36,-21 -76,-35 -117,-35 -54,0 -106,27 -106,87 0,71 56,120 103,148 36,21 76,35 117,35 z"
       fill="currentColor"
       id="path1522" />
  </g>
  <g
     transform="translate(43.7339,3.7194921)"
     id="g1528">
    <path
       transform="scale(0.0025,-0.0025)"
       d="m 125,147 h 10 c 35,0 73,-12 110,-39 19,-14 41,-22 60,-22 22,0 40,10 46,31 2,7 7,11 13,11 7,0 14,-6 14,-14 0,-1 -1,-3 -1,-4 C 358,40 295,0 233,0 195,0 159,15 133,47 121,62 104,69 88,69 59,69 31,48 28,13 27,4 21,0 14,0 7,0 0,5 0,14 c 0,174 233,163 233,341 0,57 -14,117 -63,117 -31,0 -61,-14 -61,-41 0,-25 32,-39 32,-64 0,-35 -28,-64 -63,-64 -35,0 -64,29 -64,64 0,78 74,133 156,133 98,0 191,-55 191,-145 C 361,210 223,198 125,147 Z"
       fill="currentColor"
       id="path1526" />
  </g>
  <g
     transform="translate(43.5442,9.0708921)"
     id="g1532">
    <rect
       x="-0.067199998"
       y="-3.6389999"
       width="0.1345"
       height="5.8481998"
       ry="0.039999999"
       fill="currentColor"
       id="rect1530" />
  </g>
  <g
     transform="translate(46.1127,7.9708921)"
     id="g1536">
    <path
       transform="scale(0.0044,-0.0044)"
       d="m 220,135 c 54,0 106,-27 106,-87 0,-71 -56,-120 -103,-148 -36,-21 -76,-35 -117,-35 -54,0 -106,27 -106,87 0,71 56,120 103,148 36,21 76,35 117,35 z"
       fill="currentColor"
       id="path1534" />
  </g>
  <g
     transform="translate(46.1127,5.7708921)"
     id="g1540">
    <path
       transform="scale(0.0044,-0.0044)"
       d="m 220,135 c 54,0 106,-27 106,-87 0,-71 -56,-120 -103,-148 -36,-21 -76,-35 -117,-35 -54,0 -106,27 -106,87 0,71 56,120 103,148 36,21 76,35 117,35 z"
       fill="currentColor"
       id="path1538" />
  </g>
  <g
     transform="translate(46.1799,9.0708921)"
     id="g1544">
    <rect
       x="-0.067199998"
       y="-3.089"
       width="0.1345"
       height="5.6587"
       ry="0.039999999"
       fill="currentColor"
       id="rect1542" />
  </g>
  <g
     transform="translate(48.7484,8.5208921)"
     id="g1548">
    <path
       transform="scale(0.0044,-0.0044)"
       d="m 220,135 c 54,0 106,-27 106,-87 0,-71 -56,-120 -103,-148 -36,-21 -76,-35 -117,-35 -54,0 -106,27 -106,87 0,71 56,120 103,148 36,21 76,35 117,35 z"
       fill="currentColor"
       id="path1546" />
  </g>
  <g
     transform="translate(48.7484,6.3208921)"
     id="g1552">
    <path
       transform="scale(0.0044,-0.0044)"
       d="m 220,135 c 54,0 106,-27 106,-87 0,-71 -56,-120 -103,-148 -36,-21 -76,-35 -117,-35 -54,0 -106,27 -106,87 0,71 56,120 103,148 36,21 76,35 117,35 z"
       fill="currentColor"
       id="path1550" />
  </g>
  <g
     transform="translate(49.0395,3.8467921)"
     id="g1556">
    <path
       transform="scale(0.0025,-0.0025)"
       d="m 0,250 127,250 c 3,6 12,3 20,0 14,-6 28,-13 44,-13 16,0 30,7 44,13 1,1 4,1 5,1 8,0 15,-10 15,-21 V 127 c 0,-52 32,-99 80,-99 9,0 13,-7 13,-14 C 348,7 344,0 335,0 287,0 239,13 191,13 143,13 96,0 48,0 39,0 34,7 34,14 c 0,7 5,14 14,14 48,0 79,47 79,99 v 220 c 0,15 -10,22 -19,22 -5,0 -10,-1 -12,-6 L 31,234 c -3,-7 -9,-9 -15,-9 -9,0 -18,7 -18,17 0,3 1,5 2,8 z"
       fill="currentColor"
       id="path1554" />
  </g>
  <g
     transform="translate(48.8156,9.0708921)"
     id="g1560">
    <rect
       x="-0.067199998"
       y="-2.539"
       width="0.1345"
       height="5.4692001"
       ry="0.039999999"
       fill="currentColor"
       id="rect1558" />
  </g>
  <g
     transform="translate(16.6044,7.9708921)"
     id="g1564">
    <path
       transform="scale(0.0044,-0.0044)"
       d="m 220,135 c 54,0 106,-27 106,-87 0,-71 -56,-120 -103,-148 -36,-21 -76,-35 -117,-35 -54,0 -106,27 -106,87 0,71 56,120 103,148 36,21 76,35 117,35 z"
       fill="currentColor"
       id="path1562" />
  </g>
  <g
     transform="translate(13.9686,8.5208921)"
     id="g1568">
    <path
       transform="scale(0.0044,-0.0044)"
       d="m 220,135 c 54,0 106,-27 106,-87 0,-71 -56,-120 -103,-148 -36,-21 -76,-35 -117,-35 -54,0 -106,27 -106,87 0,71 56,120 103,148 36,21 76,35 117,35 z"
       fill="currentColor"
       id="path1566" />
  </g>
  <g
     transform="translate(13.9686,6.3208921)"
     id="g1572">
    <path
       transform="scale(0.0044,-0.0044)"
       d="m 220,135 c 54,0 106,-27 106,-87 0,-71 -56,-120 -103,-148 -36,-21 -76,-35 -117,-35 -54,0 -106,27 -106,87 0,71 56,120 103,148 36,21 76,35 117,35 z"
       fill="currentColor"
       id="path1570" />
  </g>
  <g
     transform="translate(14.2597,3.8467921)"
     id="g1576">
    <path
       transform="scale(0.0025,-0.0025)"
       d="m 0,250 127,250 c 3,6 12,3 20,0 14,-6 28,-13 44,-13 16,0 30,7 44,13 1,1 4,1 5,1 8,0 15,-10 15,-21 V 127 c 0,-52 32,-99 80,-99 9,0 13,-7 13,-14 C 348,7 344,0 335,0 287,0 239,13 191,13 143,13 96,0 48,0 39,0 34,7 34,14 c 0,7 5,14 14,14 48,0 79,47 79,99 v 220 c 0,15 -10,22 -19,22 -5,0 -10,-1 -12,-6 L 31,234 c -3,-7 -9,-9 -15,-9 -9,0 -18,7 -18,17 0,3 1,5 2,8 z"
       fill="currentColor"
       id="path1574" />
  </g>
  <g
     transform="translate(14.0359,9.0708921)"
     id="g1580">
    <rect
       x="-0.067199998"
       y="-2.539"
       width="0.1345"
       height="5.4692001"
       ry="0.039999999"
       fill="currentColor"
       id="rect1578" />
  </g>
  <g
     transform="translate(16.6044,5.7708921)"
     id="g1584">
    <path
       transform="scale(0.0044,-0.0044)"
       d="m 220,135 c 54,0 106,-27 106,-87 0,-71 -56,-120 -103,-148 -36,-21 -76,-35 -117,-35 -54,0 -106,27 -106,87 0,71 56,120 103,148 36,21 76,35 117,35 z"
       fill="currentColor"
       id="path1582" />
  </g>
  <g
     transform="translate(16.8613,3.4797921)"
     id="g1588">
    <path
       transform="scale(0.0025,-0.0025)"
       d="m 125,147 h 10 c 35,0 73,-12 110,-39 19,-14 41,-22 60,-22 22,0 40,10 46,31 2,7 7,11 13,11 7,0 14,-6 14,-14 0,-1 -1,-3 -1,-4 C 358,40 295,0 233,0 195,0 159,15 133,47 121,62 104,69 88,69 59,69 31,48 28,13 27,4 21,0 14,0 7,0 0,5 0,14 c 0,174 233,163 233,341 0,57 -14,117 -63,117 -31,0 -61,-14 -61,-41 0,-25 32,-39 32,-64 0,-35 -28,-64 -63,-64 -35,0 -64,29 -64,64 0,78 74,133 156,133 98,0 191,-55 191,-145 C 361,210 223,198 125,147 Z"
       fill="currentColor"
       id="path1586" />
  </g>
  <g
     transform="translate(16.6716,9.0708921)"
     id="g1592">
    <rect
       x="-0.067199998"
       y="-3.089"
       width="0.1345"
       height="5.6587"
       ry="0.039999999"
       fill="currentColor"
       id="rect1590" />
  </g>
  <g
     transform="translate(19.2401,7.4208921)"
     id="g1596">
    <path
       transform="scale(0.0044,-0.0044)"
       d="m 220,135 c 54,0 106,-27 106,-87 0,-71 -56,-120 -103,-148 -36,-21 -76,-35 -117,-35 -54,0 -106,27 -106,87 0,71 56,120 103,148 36,21 76,35 117,35 z"
       fill="currentColor"
       id="path1594" />
  </g>
  <g
     transform="translate(19.2401,5.2208921)"
     id="g1600">
    <path
       transform="scale(0.0044,-0.0044)"
       d="m 220,135 c 54,0 106,-27 106,-87 0,-71 -56,-120 -103,-148 -36,-21 -76,-35 -117,-35 -54,0 -106,27 -106,87 0,71 56,120 103,148 36,21 76,35 117,35 z"
       fill="currentColor"
       id="path1598" />
  </g>
  <g
     transform="translate(11.4002,9.0708921)"
     id="g1604">
    <rect
       x="-0.067199998"
       y="-1.989"
       width="0.1345"
       height="5.2797999"
       ry="0.039999999"
       fill="currentColor"
       id="rect1602" />
  </g>
  <g
     transform="translate(11.3329,9.0708921)"
     id="g1608">
    <path
       transform="scale(0.0044,-0.0044)"
       d="m 220,135 c 54,0 106,-27 106,-87 0,-71 -56,-120 -103,-148 -36,-21 -76,-35 -117,-35 -54,0 -106,27 -106,87 0,71 56,120 103,148 36,21 76,35 117,35 z"
       fill="currentColor"
       id="path1606" />
  </g>
  <g
     transform="translate(11.3329,6.8708921)"
     id="g1612">
    <path
       transform="scale(0.0044,-0.0044)"
       d="m 220,135 c 54,0 106,-27 106,-87 0,-71 -56,-120 -103,-148 -36,-21 -76,-35 -117,-35 -54,0 -106,27 -106,87 0,71 56,120 103,148 36,21 76,35 117,35 z"
       fill="currentColor"
       id="path1610" />
  </g>
  <g
     transform="translate(11.624,5.0251921)"
     id="g1616">
    <path
       transform="scale(0.0025,-0.0025)"
       d="m 0,250 127,250 c 3,6 12,3 20,0 14,-6 28,-13 44,-13 16,0 30,7 44,13 1,1 4,1 5,1 8,0 15,-10 15,-21 V 127 c 0,-52 32,-99 80,-99 9,0 13,-7 13,-14 C 348,7 344,0 335,0 287,0 239,13 191,13 143,13 96,0 48,0 39,0 34,7 34,14 c 0,7 5,14 14,14 48,0 79,47 79,99 v 220 c 0,15 -10,22 -19,22 -5,0 -10,-1 -12,-6 L 31,234 c -3,-7 -9,-9 -15,-9 -9,0 -18,7 -18,17 0,3 1,5 2,8 z"
       fill="currentColor"
       id="path1614" />
  </g>
  <g
     transform="translate(0.80000003,10.170892)"
     id="g1620">
    <path
       transform="scale(0.0044,-0.0044)"
       d="m 267,-593 -1,-41 h -5 c -108,0 -196,88 -196,196 0,58 54,104 113,104 54,0 95,-48 95,-104 0,-52 -43,-95 -95,-95 -11,0 -23,3 -34,8 26,-40 69,-68 119,-68 z m 108,854 c 5,0 9,1 14,1 155,0 255,-128 255,-260 0,-76 -33,-154 -107,-209 -22,-17 -47,-28 -73,-36 3,-35 5,-71 5,-107 0,-19 -1,-38 -2,-57 -7,-119 -87,-224 -201,-227 l 1,41 c 93,2 154,93 160,192 1,18 1,36 1,54 0,31 -1,63 -4,94 -29,-5 -58,-8 -89,-8 -188,0 -333,172 -333,373 0,177 132,307 249,441 -19,63 -35,125 -43,190 -6,51 -7,103 -7,155 0,116 56,226 150,294 5,4 13,3 18,-1 70,-84 132,-245 132,-358 0,-143 -86,-255 -181,-364 20,-69 38,-138 55,-208 z m 85,-465 c 69,24 115,96 115,165 0,91 -68,182 -176,192 25,-117 47,-233 61,-357 z M 73,30 c 0,-136 130,-250 265,-250 28,0 55,2 82,6 C 406,-87 382,32 356,152 277,143 232,90 232,32 c 0,-44 26,-91 82,-123 5,-4 6,-10 6,-15 0,-11 -9,-21 -21,-21 -3,0 -5,1 -8,2 -80,43 -117,114 -117,184 0,88 58,173 159,196 -14,59 -30,119 -46,177 C 180,311 73,190 73,30 Z m 358,885 c 0,57 -4,80 -21,132 -99,-49 -162,-150 -162,-260 0,-75 17,-135 35,-197 81,97 148,199 148,325 z"
       fill="currentColor"
       id="path1618" />
  </g>
  <g
     transform="translate(4.4225,9.0708921)"
     id="g1624">
    <path
       transform="scale(0.0044,-0.0044)"
       d="m 26,43 -1,-68 v -11 c 0,-22 0,-44 3,-66 46,38 95,80 95,139 0,34 -14,68 -44,68 C 48,105 27,76 26,43 Z m -40,-180 -12,598 c 8,5 17,6 26,6 9,0 18,-1 26,-6 L 19,113 c 25,20 57,32 90,32 52,0 91,-47 91,-101 0,-81 -88,-118 -150,-169 -15,-12 -22,-35 -42,-35 -12,0 -22,10 -22,23 z"
       fill="currentColor"
       id="path1622" />
  </g>
  <g
     transform="translate(5.4251,7.4208921)"
     id="g1628">
    <path
       transform="scale(0.0044,-0.0044)"
       d="m 26,43 -1,-68 v -11 c 0,-22 0,-44 3,-66 46,38 95,80 95,139 0,34 -14,68 -44,68 C 48,105 27,76 26,43 Z m -40,-180 -12,598 c 8,5 17,6 26,6 9,0 18,-1 26,-6 L 19,113 c 25,20 57,32 90,32 52,0 91,-47 91,-101 0,-81 -88,-118 -150,-169 -15,-12 -22,-35 -42,-35 -12,0 -22,10 -22,23 z"
       fill="currentColor"
       id="path1626" />
  </g>
  <g
     transform="translate(7.4551,9.0708921)"
     id="g1632">
    <path
       transform="scale(0.0044,-0.0044)"
       d="m 360,26 c -50,0 -76,43 -76,76 0,39 27,78 73,78 5,0 11,-1 16,-2 -29,37 -74,60 -123,60 -106,0 -113,-73 -113,-185 0,-17 1,-35 1,-53 0,-18 -1,-36 -1,-53 0,-112 7,-185 113,-185 81,0 142,69 161,151 1,6 6,9 11,9 6,0 12,-4 12,-11 0,-94 -106,-173 -184,-173 -68,0 -137,21 -184,70 C 17,-141 0,-70 0,0 c 0,70 17,141 66,192 47,49 116,70 184,70 87,0 162,-64 177,-150 1,-5 1,-9 1,-13 0,-40 -31,-73 -68,-73 z"
       fill="currentColor"
       id="path1630" />
  </g>
  <g
     transform="translate(27.6628,3.5708921)"
     id="g1636">
    <path
       transform="scale(0.0044,-0.0044)"
       d="m 220,135 c 54,0 106,-27 106,-87 0,-71 -56,-120 -103,-148 -36,-21 -76,-35 -117,-35 -54,0 -106,27 -106,87 0,71 56,120 103,148 36,21 76,35 117,35 z"
       fill="currentColor"
       id="path1634" />
  </g>
  <g
     transform="translate(27.73,9.0708921)"
     id="g1640">
    <rect
       x="-0.067199998"
       y="-5.289"
       width="0.1345"
       height="5.5693998"
       ry="0.039999999"
       fill="currentColor"
       id="rect1638" />
  </g>
  <g
     transform="translate(27.8685,1.2524921)"
     id="g1644">
    <path
       transform="scale(0.0025,-0.0025)"
       d="m 199,287 c 23,15 47,31 64,53 12,16 19,33 28,51 2,4 7,7 11,7 7,0 15,-6 15,-17 V 160 h 78 c 12,0 17,-9 17,-18 0,-9 -5,-17 -17,-17 h -78 c 1,-51 32,-97 79,-97 9,0 14,-7 14,-14 C 410,7 405,0 396,0 348,0 301,13 253,13 205,13 158,0 110,0 101,0 96,7 96,14 c 0,7 5,14 14,14 47,0 78,46 79,97 H 35 c -28,0 -37,16 -37,27 0,3 1,6 2,8 78,89 126,201 126,320 0,11 7,20 16,20 h 3 c 25,-7 50,-13 76,-13 26,0 51,6 76,13 2,1 4,1 6,1 10,0 16,-7 16,-14 0,-2 0,-5 -2,-7 L 35,160 h 154 v 101 c 0,10 2,21 10,26 z"
       fill="currentColor"
       id="path1642" />
  </g>
  <g
     transform="translate(24.5115,6.3208921)"
     id="g1648">
    <path
       transform="scale(0.0044,-0.0044)"
       d="m 220,135 c 54,0 106,-27 106,-87 0,-71 -56,-120 -103,-148 -36,-21 -76,-35 -117,-35 -54,0 -106,27 -106,87 0,71 56,120 103,148 36,21 76,35 117,35 z"
       fill="currentColor"
       id="path1646" />
  </g>
  <g
     transform="translate(24.5115,4.1208921)"
     id="g1652">
    <path
       transform="scale(0.0044,-0.0044)"
       d="m 220,135 c 54,0 106,-27 106,-87 0,-71 -56,-120 -103,-148 -36,-21 -76,-35 -117,-35 -54,0 -106,27 -106,87 0,71 56,120 103,148 36,21 76,35 117,35 z"
       fill="currentColor"
       id="path1650" />
  </g>
  <g
     transform="translate(24.8025,1.6756921)"
     id="g1656">
    <path
       transform="scale(0.0025,-0.0025)"
       d="m 155,472 c -33,0 -68,-8 -68,-36 0,-20 33,-24 33,-44 0,-29 -24,-53 -53,-53 -29,0 -53,24 -53,53 0,66 69,108 141,108 93,0 173,-31 173,-113 0,-41 -7,-78 -43,-95 -11,-5 -16,-16 -16,-26 0,-10 5,-21 16,-26 40,-19 59,-54 59,-99 C 344,47 261,0 159,0 78,0 0,44 0,118 c 0,34 27,61 61,61 34,0 60,-27 60,-61 0,-23 -37,-27 -37,-50 0,-31 39,-40 75,-40 47,0 57,59 57,113 v 35 c 0,42 -4,73 -44,73 H 97 c -12,0 -17,8 -17,17 0,9 5,17 17,17 h 75 c 41,0 44,33 44,77 v 27 c 0,51 -15,85 -61,85 z"
       fill="currentColor"
       id="path1654" />
  </g>
  <g
     transform="translate(24.5787,9.0708921)"
     id="g1660">
    <rect
       x="-0.067199998"
       y="-4.7389998"
       width="0.1345"
       height="5.3463001"
       ry="0.039999999"
       fill="currentColor"
       id="rect1658" />
  </g>
  <g
     transform="translate(27.6628,5.7708921)"
     id="g1664">
    <path
       transform="scale(0.0044,-0.0044)"
       d="m 220,135 c 54,0 106,-27 106,-87 0,-71 -56,-120 -103,-148 -36,-21 -76,-35 -117,-35 -54,0 -106,27 -106,87 0,71 56,120 103,148 36,21 76,35 117,35 z"
       fill="currentColor"
       id="path1662" />
  </g>
  <g
     transform="translate(19.3073,9.0708921)"
     id="g1668">
    <rect
       x="-0.067199998"
       y="-3.6389999"
       width="0.1345"
       height="5.8481998"
       ry="0.039999999"
       fill="currentColor"
       id="rect1666" />
  </g>
  <g
     transform="translate(19.497,3.7194921)"
     id="g1672">
    <path
       transform="scale(0.0025,-0.0025)"
       d="m 125,147 h 10 c 35,0 73,-12 110,-39 19,-14 41,-22 60,-22 22,0 40,10 46,31 2,7 7,11 13,11 7,0 14,-6 14,-14 0,-1 -1,-3 -1,-4 C 358,40 295,0 233,0 195,0 159,15 133,47 121,62 104,69 88,69 59,69 31,48 28,13 27,4 21,0 14,0 7,0 0,5 0,14 c 0,174 233,163 233,341 0,57 -14,117 -63,117 -31,0 -61,-14 -61,-41 0,-25 32,-39 32,-64 0,-35 -28,-64 -63,-64 -35,0 -64,29 -64,64 0,78 74,133 156,133 98,0 191,-55 191,-145 C 361,210 223,198 125,147 Z"
       fill="currentColor"
       id="path1670" />
  </g>
  <g
     transform="translate(26.5472,3.5708921)"
     id="g1676">
    <path
       transform="scale(0.0044,-0.0044)"
       d="m -7,375 c 8,4 16,7 24,7 8,0 16,-3 24,-7 l -2,-180 108,19 h 3 c 9,0 17,-8 17,-17 l 7,-572 c -8,-4 -16,-7 -24,-7 -8,0 -17,3 -25,7 l 3,180 -108,-19 h -3 c -9,0 -17,8 -17,17 z M 131,113 38,97 l -3,-210 94,16 z"
       fill="currentColor"
       id="path1674" />
  </g>
  <g
     transform="translate(21.8758,6.8708921)"
     id="g1680">
    <path
       transform="scale(0.0044,-0.0044)"
       d="m 220,135 c 54,0 106,-27 106,-87 0,-71 -56,-120 -103,-148 -36,-21 -76,-35 -117,-35 -54,0 -106,27 -106,87 0,71 56,120 103,148 36,21 76,35 117,35 z"
       fill="currentColor"
       id="path1678" />
  </g>
  <g
     transform="translate(21.8758,4.6708921)"
     id="g1684">
    <path
       transform="scale(0.0044,-0.0044)"
       d="m 220,135 c 54,0 106,-27 106,-87 0,-71 -56,-120 -103,-148 -36,-21 -76,-35 -117,-35 -54,0 -106,27 -106,87 0,71 56,120 103,148 36,21 76,35 117,35 z"
       fill="currentColor"
       id="path1682" />
  </g>
  <g
     transform="translate(22.1668,2.8436921)"
     id="g1688">
    <path
       transform="scale(0.0025,-0.0025)"
       d="m 155,472 c -33,0 -68,-8 -68,-36 0,-20 33,-24 33,-44 0,-29 -24,-53 -53,-53 -29,0 -53,24 -53,53 0,66 69,108 141,108 93,0 173,-31 173,-113 0,-41 -7,-78 -43,-95 -11,-5 -16,-16 -16,-26 0,-10 5,-21 16,-26 40,-19 59,-54 59,-99 C 344,47 261,0 159,0 78,0 0,44 0,118 c 0,34 27,61 61,61 34,0 60,-27 60,-61 0,-23 -37,-27 -37,-50 0,-31 39,-40 75,-40 47,0 57,59 57,113 v 35 c 0,42 -4,73 -44,73 H 97 c -12,0 -17,8 -17,17 0,9 5,17 17,17 h 75 c 41,0 44,33 44,77 v 27 c 0,51 -15,85 -61,85 z"
       fill="currentColor"
       id="path1686" />
  </g>
  <g
     transform="translate(21.943,9.0708921)"
     id="g1692">
    <rect
       x="-0.067199998"
       y="-4.1890001"
       width="0.1345"
       height="5.0696998"
       ry="0.039999999"
       fill="currentColor"
       id="rect1690" />
  </g>
</svg>
