<svg
   version="1.2"
   width="110.1633mm"
   height="18.158892mm"
   viewBox="0 0 62.689003 10.333412"
   id="svg4776"
   sodipodi:docname="shifting.svg"
   xmlns:inkscape="http://www.inkscape.org/namespaces/inkscape"
   xmlns:sodipodi="http://sodipodi.sourceforge.net/DTD/sodipodi-0.dtd"
   xmlns:xlink="http://www.w3.org/1999/xlink"
   xmlns="http://www.w3.org/2000/svg"
   xmlns:svg="http://www.w3.org/2000/svg">
  <defs
     id="defs4780" />
  <sodipodi:namedview
     id="namedview4778"
     pagecolor="#ffffff"
     bordercolor="#000000"
     borderopacity="0.25"
     inkscape:showpageshadow="2"
     inkscape:pageopacity="0.0"
     inkscape:pagecheckerboard="0"
     inkscape:deskcolor="#d1d1d1"
     inkscape:document-units="mm"
     showgrid="false" />
  <style
     type="text/css"
     id="style2"><![CDATA[
tspan { white-space: pre; }
]]></style>
  <!-- Page: 1/1 -->
  <g
     transform="translate(3.1967416e-8,8.1334149)"
     id="g2062">
    <line
       stroke-linejoin="round"
       stroke-linecap="round"
       stroke-width="0.1034"
       stroke="currentColor"
       x1="0.0517"
       y1="0"
       x2="62.637299"
       y2="0"
       id="line2060" />
  </g>
  <g
     transform="translate(3.1967416e-8,7.0334149)"
     id="g2066">
    <line
       stroke-linejoin="round"
       stroke-linecap="round"
       stroke-width="0.1034"
       stroke="currentColor"
       x1="0.0517"
       y1="0"
       x2="62.637299"
       y2="0"
       id="line2064" />
  </g>
  <g
     transform="translate(3.1967416e-8,5.9334149)"
     id="g2070">
    <line
       stroke-linejoin="round"
       stroke-linecap="round"
       stroke-width="0.1034"
       stroke="currentColor"
       x1="0.0517"
       y1="0"
       x2="62.637299"
       y2="0"
       id="line2068" />
  </g>
  <g
     transform="translate(3.1967416e-8,4.8334149)"
     id="g2074">
    <line
       stroke-linejoin="round"
       stroke-linecap="round"
       stroke-width="0.1034"
       stroke="currentColor"
       x1="0.0517"
       y1="0"
       x2="62.637299"
       y2="0"
       id="line2072" />
  </g>
  <g
     transform="translate(3.1967416e-8,3.7334149)"
     id="g2078">
    <line
       stroke-linejoin="round"
       stroke-linecap="round"
       stroke-width="0.1034"
       stroke="currentColor"
       x1="0.0517"
       y1="0"
       x2="62.637299"
       y2="0"
       id="line2076" />
  </g>
  <g
     transform="translate(3.1967416e-8,2.6334149)"
     id="g2082">
    <rect
       x="42.380402"
       y="-0.1067"
       width="2.1536"
       height="0.21340001"
       ry="0.1067"
       fill="currentColor"
       id="rect2080" />
  </g>
  <g
     transform="translate(3.1967416e-8,2.6334149)"
     id="g2086">
    <rect
       x="39.246601"
       y="-0.1067"
       width="2.1536"
       height="0.21340001"
       ry="0.1067"
       fill="currentColor"
       id="rect2084" />
  </g>
  <g
     transform="translate(3.1967416e-8,1.5334149)"
     id="g2090">
    <rect
       x="36.1129"
       y="-0.1067"
       width="2.1536"
       height="0.21340001"
       ry="0.1067"
       fill="currentColor"
       id="rect2088" />
  </g>
  <g
     transform="translate(3.1967416e-8,2.6334149)"
     id="g2094">
    <rect
       x="36.1129"
       y="-0.1067"
       width="2.1536"
       height="0.21340001"
       ry="0.1067"
       fill="currentColor"
       id="rect2092" />
  </g>
  <g
     transform="translate(3.1967416e-8,1.5334149)"
     id="g2098">
    <rect
       x="31.903999"
       y="-0.1067"
       width="2.1536"
       height="0.21340001"
       ry="0.1067"
       fill="currentColor"
       id="rect2096" />
  </g>
  <g
     transform="translate(3.1967416e-8,2.6334149)"
     id="g2102">
    <rect
       x="31.903999"
       y="-0.1067"
       width="2.1536"
       height="0.21340001"
       ry="0.1067"
       fill="currentColor"
       id="rect2100" />
  </g>
  <g
     transform="translate(3.1967416e-8,2.6334149)"
     id="g2106">
    <rect
       x="28.7703"
       y="-0.1067"
       width="2.1536"
       height="0.21340001"
       ry="0.1067"
       fill="currentColor"
       id="rect2104" />
  </g>
  <g
     transform="translate(3.1967416e-8,2.6334149)"
     id="g2110">
    <rect
       x="25.636499"
       y="-0.1067"
       width="2.1536"
       height="0.21340001"
       ry="0.1067"
       fill="currentColor"
       id="rect2108" />
  </g>
  <g
     transform="translate(62.4925,5.9334149)"
     id="g2114">
    <rect
       x="0"
       y="-2.2"
       width="0.1965"
       height="4.4000001"
       ry="0.0000"
       fill="currentColor"
       id="rect2112" />
  </g>
  <g
     transform="translate(21.5366,5.9334149)"
     id="g2118">
    <rect
       x="0"
       y="-2.2"
       width="0.1965"
       height="4.4000001"
       ry="0.0000"
       fill="currentColor"
       id="rect2116" />
  </g>
  <g
     transform="translate(48.7568,5.9334149)"
     id="g2122">
    <rect
       x="0"
       y="-2.2"
       width="0.1965"
       height="4.4000001"
       ry="0.0000"
       fill="currentColor"
       id="rect2120" />
  </g>
  <g
     transform="translate(35.1467,5.9334149)"
     id="g2126">
    <rect
       x="0"
       y="-2.2"
       width="0.1965"
       height="4.4000001"
       ry="0.0000"
       fill="currentColor"
       id="rect2124" />
  </g>
  <a
     style="color:inherit"
     xlink:href="textedit://C:/Users/Javier/Documents/lilypond%20scores/shifting.ly:89:13:14"
     id="a2132"
     transform="translate(-5.6906,-84.193885)">
    <g
       transform="translate(45.2961,89.0273)"
       id="g2130">
      <path
         transform="scale(0.0044,-0.0044)"
         d="m 220,135 c 54,0 106,-27 106,-87 0,-71 -56,-120 -103,-148 -36,-21 -76,-35 -117,-35 -54,0 -106,27 -106,87 0,71 56,120 103,148 36,21 76,35 117,35 z"
         fill="currentColor"
         id="path2128" />
    </g>
  </a>
  <a
     style="color:inherit"
     xlink:href="textedit://C:/Users/Javier/Documents/lilypond%20scores/shifting.ly:89:15:16"
     id="a2138"
     transform="translate(-5.6906,-84.193885)">
    <g
       transform="translate(45.2961,86.2773)"
       id="g2136">
      <path
         transform="scale(0.0044,-0.0044)"
         d="m 220,135 c 54,0 106,-27 106,-87 0,-71 -56,-120 -103,-148 -36,-21 -76,-35 -117,-35 -54,0 -106,27 -106,87 0,71 56,120 103,148 36,21 76,35 117,35 z"
         fill="currentColor"
         id="path2134" />
    </g>
  </a>
  <g
     transform="translate(39.6727,5.9334149)"
     id="g2142">
    <rect
       x="-0.067199998"
       y="-3.6389999"
       width="0.1345"
       height="6.3889999"
       ry="0.039999999"
       fill="currentColor"
       id="rect2140" />
  </g>
  <a
     style="color:inherit"
     xlink:href="textedit://C:/Users/Javier/Documents/lilypond%20scores/shifting.ly:89:22:26"
     id="a2148"
     transform="translate(-5.6906,-84.193885)">
    <g
       transform="translate(48.4299,89.5773)"
       id="g2146">
      <path
         transform="scale(0.0044,-0.0044)"
         d="m 220,135 c 54,0 106,-27 106,-87 0,-71 -56,-120 -103,-148 -36,-21 -76,-35 -117,-35 -54,0 -106,27 -106,87 0,71 56,120 103,148 36,21 76,35 117,35 z"
         fill="currentColor"
         id="path2144" />
    </g>
  </a>
  <a
     style="color:inherit"
     xlink:href="textedit://C:/Users/Javier/Documents/lilypond%20scores/shifting.ly:89:24:28"
     id="a2154"
     transform="translate(-5.6906,-84.193885)">
    <g
       transform="translate(48.4299,86.8273)"
       id="g2152">
      <path
         transform="scale(0.0044,-0.0044)"
         d="m 220,135 c 54,0 106,-27 106,-87 0,-71 -56,-120 -103,-148 -36,-21 -76,-35 -117,-35 -54,0 -106,27 -106,87 0,71 56,120 103,148 36,21 76,35 117,35 z"
         fill="currentColor"
         id="path2150" />
    </g>
  </a>
  <g
     transform="translate(42.8065,5.9334149)"
     id="g2158">
    <rect
       x="-0.067199998"
       y="-3.089"
       width="0.1345"
       height="6.3889999"
       ry="0.039999999"
       fill="currentColor"
       id="rect2156" />
  </g>
  <a
     style="color:inherit"
     xlink:href="textedit://C:/Users/Javier/Documents/lilypond%20scores/shifting.ly:89:30:34"
     id="a2164"
     transform="translate(-5.6906,-84.193885)">
    <g
       transform="translate(51.5636,90.1273)"
       id="g2162">
      <path
         transform="scale(0.0044,-0.0044)"
         d="m 220,135 c 54,0 106,-27 106,-87 0,-71 -56,-120 -103,-148 -36,-21 -76,-35 -117,-35 -54,0 -106,27 -106,87 0,71 56,120 103,148 36,21 76,35 117,35 z"
         fill="currentColor"
         id="path2160" />
    </g>
  </a>
  <a
     style="color:inherit"
     xlink:href="textedit://C:/Users/Javier/Documents/lilypond%20scores/shifting.ly:89:32:36"
     id="a2170"
     transform="translate(-5.6906,-84.193885)">
    <g
       transform="translate(51.5636,87.3773)"
       id="g2168">
      <path
         transform="scale(0.0044,-0.0044)"
         d="m 220,135 c 54,0 106,-27 106,-87 0,-71 -56,-120 -103,-148 -36,-21 -76,-35 -117,-35 -54,0 -106,27 -106,87 0,71 56,120 103,148 36,21 76,35 117,35 z"
         fill="currentColor"
         id="path2166" />
    </g>
  </a>
  <g
     transform="translate(45.9402,5.9334149)"
     id="g2174">
    <rect
       x="-0.067199998"
       y="-2.539"
       width="0.1345"
       height="6.2055998"
       ry="0.039999999"
       fill="currentColor"
       id="rect2172" />
  </g>
  <a
     style="color:inherit"
     xlink:href="textedit://C:/Users/Javier/Documents/lilypond%20scores/shifting.ly:88:32:36"
     id="a2180"
     transform="translate(-5.6906,-84.193885)">
    <g
       transform="translate(37.9535,85.7273)"
       id="g2178">
      <path
         transform="scale(0.0044,-0.0044)"
         d="m 220,135 c 54,0 106,-27 106,-87 0,-71 -56,-120 -103,-148 -36,-21 -76,-35 -117,-35 -54,0 -106,27 -106,87 0,71 56,120 103,148 36,21 76,35 117,35 z"
         fill="currentColor"
         id="path2176" />
    </g>
  </a>
  <a
     style="color:inherit"
     xlink:href="textedit://C:/Users/Javier/Documents/lilypond%20scores/shifting.ly:87:11:12"
     id="a2186"
     transform="translate(-5.6906,-84.193885)">
    <g
       transform="translate(14.5684,90.1273)"
       id="g2184">
      <path
         stroke-width="0.0827"
         stroke-linejoin="round"
         stroke-linecap="round"
         stroke="currentColor"
         fill="currentColor"
         d="M 0.8006,3.346 C 1.756,3.9757 3.2504,3.7134 3.9343,2.796 v 0 C 3.229,3.5912 1.7346,3.8535 0.8006,3.346 Z"
         id="path2182" />
    </g>
  </a>
  <g
     transform="translate(32.3302,5.9334149)"
     id="g2190">
    <rect
       x="-0.067199998"
       y="-4.1890001"
       width="0.1345"
       height="6.3889999"
       ry="0.039999999"
       fill="currentColor"
       id="rect2188" />
  </g>
  <a
     style="color:inherit"
     xlink:href="textedit://C:/Users/Javier/Documents/lilypond%20scores/shifting.ly:89:5:6"
     id="a2196"
     transform="translate(-5.6906,-84.193885)">
    <g
       transform="translate(42.1624,88.4773)"
       id="g2194">
      <path
         transform="scale(0.0044,-0.0044)"
         d="m 220,135 c 54,0 106,-27 106,-87 0,-71 -56,-120 -103,-148 -36,-21 -76,-35 -117,-35 -54,0 -106,27 -106,87 0,71 56,120 103,148 36,21 76,35 117,35 z"
         fill="currentColor"
         id="path2192" />
    </g>
  </a>
  <a
     style="color:inherit"
     xlink:href="textedit://C:/Users/Javier/Documents/lilypond%20scores/shifting.ly:89:7:8"
     id="a2202"
     transform="translate(-5.6906,-84.193885)">
    <g
       transform="translate(42.1624,85.7273)"
       id="g2200">
      <path
         transform="scale(0.0044,-0.0044)"
         d="m 220,135 c 54,0 106,-27 106,-87 0,-71 -56,-120 -103,-148 -36,-21 -76,-35 -117,-35 -54,0 -106,27 -106,87 0,71 56,120 103,148 36,21 76,35 117,35 z"
         fill="currentColor"
         id="path2198" />
    </g>
  </a>
  <g
     transform="translate(36.539,5.9334149)"
     id="g2206">
    <rect
       x="-0.067199998"
       y="-4.1890001"
       width="0.1345"
       height="6.3889999"
       ry="0.039999999"
       fill="currentColor"
       id="rect2204" />
  </g>
  <a
     style="color:inherit"
     xlink:href="textedit://C:/Users/Javier/Documents/lilypond%20scores/shifting.ly:90:22:26"
     id="a2212"
     transform="translate(-5.6906,-84.193885)">
    <g
       transform="translate(61.6656,91.7773)"
       id="g2210">
      <path
         transform="scale(0.0044,-0.0044)"
         d="m 220,135 c 54,0 106,-27 106,-87 0,-71 -56,-120 -103,-148 -36,-21 -76,-35 -117,-35 -54,0 -106,27 -106,87 0,71 56,120 103,148 36,21 76,35 117,35 z"
         fill="currentColor"
         id="path2208" />
    </g>
  </a>
  <a
     style="color:inherit"
     xlink:href="textedit://C:/Users/Javier/Documents/lilypond%20scores/shifting.ly:90:24:28"
     id="a2218"
     transform="translate(-5.6906,-84.193885)">
    <g
       transform="translate(61.6656,89.0273)"
       id="g2216">
      <path
         transform="scale(0.0044,-0.0044)"
         d="m 220,135 c 54,0 106,-27 106,-87 0,-71 -56,-120 -103,-148 -36,-21 -76,-35 -117,-35 -54,0 -106,27 -106,87 0,71 56,120 103,148 36,21 76,35 117,35 z"
         fill="currentColor"
         id="path2214" />
    </g>
  </a>
  <g
     transform="translate(57.3434,5.9334149)"
     id="g2222">
    <rect
       x="-0.067199998"
       y="-4.4000001"
       width="0.1345"
       height="5.8390002"
       ry="0.039999999"
       fill="currentColor"
       id="rect2220" />
  </g>
  <a
     style="color:inherit"
     xlink:href="textedit://C:/Users/Javier/Documents/lilypond%20scores/shifting.ly:90:30:34"
     id="a2228"
     transform="translate(-5.6906,-84.193885)">
    <g
       transform="translate(64.7993,92.3273)"
       id="g2226">
      <path
         transform="scale(0.0044,-0.0044)"
         d="m 220,135 c 54,0 106,-27 106,-87 0,-71 -56,-120 -103,-148 -36,-21 -76,-35 -117,-35 -54,0 -106,27 -106,87 0,71 56,120 103,148 36,21 76,35 117,35 z"
         fill="currentColor"
         id="path2224" />
    </g>
  </a>
  <a
     style="color:inherit"
     xlink:href="textedit://C:/Users/Javier/Documents/lilypond%20scores/shifting.ly:90:32:36"
     id="a2234"
     transform="translate(-5.6906,-84.193885)">
    <g
       transform="translate(64.7993,89.5773)"
       id="g2232">
      <path
         transform="scale(0.0044,-0.0044)"
         d="m 220,135 c 54,0 106,-27 106,-87 0,-71 -56,-120 -103,-148 -36,-21 -76,-35 -117,-35 -54,0 -106,27 -106,87 0,71 56,120 103,148 36,21 76,35 117,35 z"
         fill="currentColor"
         id="path2230" />
    </g>
  </a>
  <g
     transform="translate(60.4772,5.9334149)"
     id="g2238">
    <rect
       x="-0.067199998"
       y="-4.0332999"
       width="0.1345"
       height="6.0222998"
       ry="0.039999999"
       fill="currentColor"
       id="rect2236" />
  </g>
  <a
     style="color:inherit"
     xlink:href="textedit://C:/Users/Javier/Documents/lilypond%20scores/shifting.ly:90:27:31"
     id="a2244"
     transform="translate(-5.6906,-84.193885)">
    <g
       transform="translate(61.6656,90.1273)"
       id="g2242">
      <path
         stroke-width="0.0827"
         stroke-linejoin="round"
         stroke-linecap="round"
         stroke="currentColor"
         fill="currentColor"
         d="m 0.6351,2.796 c 0.6839,0.9174 2.1783,1.1797 3.1338,0.55 v 0 C 2.8349,3.8535 1.3405,3.5912 0.6351,2.796 Z"
         id="path2240" />
    </g>
  </a>
  <a
     style="color:inherit"
     xlink:href="textedit://C:/Users/Javier/Documents/lilypond%20scores/shifting.ly:90:10:11"
     id="a2250"
     transform="translate(-5.6906,-84.193885)">
    <g
       transform="translate(55.7718,90.1273)"
       id="g2248">
      <path
         stroke-width="0.0827"
         stroke-linejoin="round"
         stroke-linecap="round"
         stroke="currentColor"
         fill="currentColor"
         d="m 0.8006,-3.346 c 0.9554,-0.6297 2.4498,-0.3674 3.1337,0.55 v 0 C 3.229,-3.5912 1.7346,-3.8535 0.8006,-3.346 Z"
         id="path2246" />
    </g>
  </a>
  <a
     style="color:inherit"
     xlink:href="textedit://C:/Users/Javier/Documents/lilypond%20scores/shifting.ly:89:27:31"
     id="a2256"
     transform="translate(-5.6906,-84.193885)">
    <g
       transform="translate(48.4299,90.1273)"
       id="g2254">
      <path
         stroke-width="0.0827"
         stroke-linejoin="round"
         stroke-linecap="round"
         stroke="currentColor"
         fill="currentColor"
         d="m 0.8006,-4.446 c 0.9554,-0.6297 2.4498,-0.3674 3.1337,0.55 v 0 C 3.229,-4.6912 1.7346,-4.9535 0.8006,-4.446 Z"
         id="path2252" />
    </g>
  </a>
  <a
     style="color:inherit"
     xlink:href="textedit://C:/Users/Javier/Documents/lilypond%20scores/shifting.ly:89:10:11"
     id="a2262"
     transform="translate(-5.6906,-84.193885)">
    <g
       transform="translate(42.1624,90.1273)"
       id="g2260">
      <path
         stroke-width="0.0827"
         stroke-linejoin="round"
         stroke-linecap="round"
         stroke="currentColor"
         fill="currentColor"
         d="m 0.8006,-5.546 c 0.9554,-0.6297 2.4498,-0.3674 3.1337,0.55 v 0 C 3.229,-5.7912 1.7346,-6.0535 0.8006,-5.546 Z"
         id="path2258" />
    </g>
  </a>
  <a
     style="color:inherit"
     xlink:href="textedit://C:/Users/Javier/Documents/lilypond%20scores/shifting.ly:88:27:31"
     id="a2268"
     transform="translate(-5.6906,-84.193885)">
    <g
       transform="translate(34.8198,90.1273)"
       id="g2266">
      <path
         stroke-width="0.0827"
         stroke-linejoin="round"
         stroke-linecap="round"
         stroke="currentColor"
         fill="currentColor"
         d="m 0.6351,-4.996 c 0.6839,-0.9174 2.1783,-1.1797 3.1338,-0.55 v 0 c -0.934,-0.5075 -2.4284,-0.2452 -3.1338,0.55 z"
         id="path2264" />
    </g>
  </a>
  <a
     style="color:inherit"
     xlink:href="textedit://C:/Users/Javier/Documents/lilypond%20scores/shifting.ly:88:10:11"
     id="a2274"
     transform="translate(-5.6906,-84.193885)">
    <g
       transform="translate(28.5523,90.1273)"
       id="g2272">
      <path
         stroke-width="0.0827"
         stroke-linejoin="round"
         stroke-linecap="round"
         stroke="currentColor"
         fill="currentColor"
         d="m 0.6351,-3.896 c 0.6839,-0.9174 2.1783,-1.1797 3.1338,-0.55 v 0 c -0.934,-0.5075 -2.4284,-0.2452 -3.1338,0.55 z"
         id="path2270" />
    </g>
  </a>
  <a
     style="color:inherit"
     xlink:href="textedit://C:/Users/Javier/Documents/lilypond%20scores/shifting.ly:87:31:39"
     id="a2280"
     transform="translate(-5.6906,-84.193885)">
    <g
       transform="translate(21.2097,90.1273)"
       id="g2278">
      <path
         stroke-width="0.0827"
         stroke-linejoin="round"
         stroke-linecap="round"
         stroke="currentColor"
         fill="currentColor"
         d="m 0.6351,-2.796 c 0.6839,-0.9174 2.1783,-1.1797 3.1338,-0.55 v 0 c -0.934,-0.5075 -2.4284,-0.2452 -3.1338,0.55 z"
         id="path2276" />
    </g>
  </a>
  <a
     style="color:inherit"
     xlink:href="textedit://C:/Users/Javier/Documents/lilypond%20scores/shifting.ly:90:5:6"
     id="a2286"
     transform="translate(-5.6906,-84.193885)">
    <g
       transform="translate(55.7718,90.6773)"
       id="g2284">
      <path
         transform="scale(0.0044,-0.0044)"
         d="m 220,135 c 54,0 106,-27 106,-87 0,-71 -56,-120 -103,-148 -36,-21 -76,-35 -117,-35 -54,0 -106,27 -106,87 0,71 56,120 103,148 36,21 76,35 117,35 z"
         fill="currentColor"
         id="path2282" />
    </g>
  </a>
  <a
     style="color:inherit"
     xlink:href="textedit://C:/Users/Javier/Documents/lilypond%20scores/shifting.ly:90:7:8"
     id="a2292"
     transform="translate(-5.6906,-84.193885)">
    <g
       transform="translate(55.7718,87.9273)"
       id="g2290">
      <path
         transform="scale(0.0044,-0.0044)"
         d="m 220,135 c 54,0 106,-27 106,-87 0,-71 -56,-120 -103,-148 -36,-21 -76,-35 -117,-35 -54,0 -106,27 -106,87 0,71 56,120 103,148 36,21 76,35 117,35 z"
         fill="currentColor"
         id="path2288" />
    </g>
  </a>
  <g
     transform="translate(50.1484,5.9334149)"
     id="g2296">
    <rect
       x="-0.067199998"
       y="-1.989"
       width="0.1345"
       height="6.0222998"
       ry="0.039999999"
       fill="currentColor"
       id="rect2294" />
  </g>
  <a
     style="color:inherit"
     xlink:href="textedit://C:/Users/Javier/Documents/lilypond%20scores/shifting.ly:90:13:14"
     id="a2302"
     transform="translate(-5.6906,-84.193885)">
    <g
       transform="translate(58.9056,91.2273)"
       id="g2300">
      <path
         transform="scale(0.0044,-0.0044)"
         d="m 220,135 c 54,0 106,-27 106,-87 0,-71 -56,-120 -103,-148 -36,-21 -76,-35 -117,-35 -54,0 -106,27 -106,87 0,71 56,120 103,148 36,21 76,35 117,35 z"
         fill="currentColor"
         id="path2298" />
    </g>
  </a>
  <a
     style="color:inherit"
     xlink:href="textedit://C:/Users/Javier/Documents/lilypond%20scores/shifting.ly:90:15:16"
     id="a2308"
     transform="translate(-5.6906,-84.193885)">
    <g
       transform="translate(58.9056,88.4773)"
       id="g2306">
      <path
         transform="scale(0.0044,-0.0044)"
         d="m 220,135 c 54,0 106,-27 106,-87 0,-71 -56,-120 -103,-148 -36,-21 -76,-35 -117,-35 -54,0 -106,27 -106,87 0,71 56,120 103,148 36,21 76,35 117,35 z"
         fill="currentColor"
         id="path2304" />
    </g>
  </a>
  <g
     transform="translate(53.2822,5.9334149)"
     id="g2312">
    <rect
       x="-0.067199998"
       y="-1.439"
       width="0.1345"
       height="5.8390002"
       ry="0.039999999"
       fill="currentColor"
       id="rect2310" />
  </g>
  <g
     transform="translate(10.2463,5.9334149)"
     id="g2316">
    <rect
       x="-0.067199998"
       y="-4.0332999"
       width="0.1345"
       height="6.0222998"
       ry="0.039999999"
       fill="currentColor"
       id="rect2314" />
  </g>
  <a
     style="color:inherit"
     xlink:href="textedit://C:/Users/Javier/Documents/lilypond%20scores/shifting.ly:87:26:34"
     id="a2322"
     transform="translate(-5.6906,-84.193885)">
    <g
       transform="translate(21.2097,91.2273)"
       id="g2320">
      <path
         transform="scale(0.0044,-0.0044)"
         d="m 220,135 c 54,0 106,-27 106,-87 0,-71 -56,-120 -103,-148 -36,-21 -76,-35 -117,-35 -54,0 -106,27 -106,87 0,71 56,120 103,148 36,21 76,35 117,35 z"
         fill="currentColor"
         id="path2318" />
    </g>
  </a>
  <a
     style="color:inherit"
     xlink:href="textedit://C:/Users/Javier/Documents/lilypond%20scores/shifting.ly:87:28:36"
     id="a2328"
     transform="translate(-5.6906,-84.193885)">
    <g
       transform="translate(21.2097,88.4773)"
       id="g2326">
      <path
         transform="scale(0.0044,-0.0044)"
         d="m 220,135 c 54,0 106,-27 106,-87 0,-71 -56,-120 -103,-148 -36,-21 -76,-35 -117,-35 -54,0 -106,27 -106,87 0,71 56,120 103,148 36,21 76,35 117,35 z"
         fill="currentColor"
         id="path2324" />
    </g>
  </a>
  <g
     transform="translate(15.5863,5.9334149)"
     id="g2332">
    <rect
       x="-0.067199998"
       y="-1.439"
       width="0.1345"
       height="5.8390002"
       ry="0.039999999"
       fill="currentColor"
       id="rect2330" />
  </g>
  <g
     transform="translate(5,5.9334149)"
     id="g2336">
    <path
       transform="scale(0.0044,-0.0044)"
       d="m 360,26 c -50,0 -76,43 -76,76 0,39 27,78 73,78 5,0 11,-1 16,-2 -29,37 -74,60 -123,60 -106,0 -113,-73 -113,-185 0,-17 1,-35 1,-53 0,-18 -1,-36 -1,-53 0,-112 7,-185 113,-185 81,0 142,69 161,151 1,6 6,9 11,9 6,0 12,-4 12,-11 0,-94 -106,-173 -184,-173 -68,0 -137,21 -184,70 C 17,-141 0,-70 0,0 c 0,70 17,141 66,192 47,49 116,70 184,70 87,0 162,-64 177,-150 1,-5 1,-9 1,-13 0,-40 -31,-73 -68,-73 z"
       fill="currentColor"
       id="path2334" />
  </g>
  <a
     style="color:inherit"
     xlink:href="textedit://C:/Users/Javier/Documents/lilypond%20scores/shifting.ly:88:30:34"
     id="a2342"
     transform="translate(-5.6906,-84.193885)">
    <g
       transform="translate(37.9535,88.4773)"
       id="g2340">
      <path
         transform="scale(0.0044,-0.0044)"
         d="m 220,135 c 54,0 106,-27 106,-87 0,-71 -56,-120 -103,-148 -36,-21 -76,-35 -117,-35 -54,0 -106,27 -106,87 0,71 56,120 103,148 36,21 76,35 117,35 z"
         fill="currentColor"
         id="path2338" />
    </g>
  </a>
  <g
     transform="translate(0.80000003,7.0334149)"
     id="g2346">
    <path
       transform="scale(0.0044,-0.0044)"
       d="m 267,-593 -1,-41 h -5 c -108,0 -196,88 -196,196 0,58 54,104 113,104 54,0 95,-48 95,-104 0,-52 -43,-95 -95,-95 -11,0 -23,3 -34,8 26,-40 69,-68 119,-68 z m 108,854 c 5,0 9,1 14,1 155,0 255,-128 255,-260 0,-76 -33,-154 -107,-209 -22,-17 -47,-28 -73,-36 3,-35 5,-71 5,-107 0,-19 -1,-38 -2,-57 -7,-119 -87,-224 -201,-227 l 1,41 c 93,2 154,93 160,192 1,18 1,36 1,54 0,31 -1,63 -4,94 -29,-5 -58,-8 -89,-8 -188,0 -333,172 -333,373 0,177 132,307 249,441 -19,63 -35,125 -43,190 -6,51 -7,103 -7,155 0,116 56,226 150,294 5,4 13,3 18,-1 70,-84 132,-245 132,-358 0,-143 -86,-255 -181,-364 20,-69 38,-138 55,-208 z m 85,-465 c 69,24 115,96 115,165 0,91 -68,182 -176,192 25,-117 47,-233 61,-357 z M 73,30 c 0,-136 130,-250 265,-250 28,0 55,2 82,6 C 406,-87 382,32 356,152 277,143 232,90 232,32 c 0,-44 26,-91 82,-123 5,-4 6,-10 6,-15 0,-11 -9,-21 -21,-21 -3,0 -5,1 -8,2 -80,43 -117,114 -117,184 0,88 58,173 159,196 -14,59 -30,119 -46,177 C 180,311 73,190 73,30 Z m 358,885 c 0,57 -4,80 -21,132 -99,-49 -162,-150 -162,-260 0,-75 17,-135 35,-197 81,97 148,199 148,325 z"
       fill="currentColor"
       id="path2344" />
  </g>
  <a
     style="color:inherit"
     xlink:href="textedit://C:/Users/Javier/Documents/lilypond%20scores/shifting.ly:87:34:42"
     id="a2352"
     transform="translate(-5.6906,-84.193885)">
    <g
       transform="translate(24.3434,90.6773)"
       id="g2350">
      <path
         transform="scale(0.0044,-0.0044)"
         d="m 220,135 c 54,0 106,-27 106,-87 0,-71 -56,-120 -103,-148 -36,-21 -76,-35 -117,-35 -54,0 -106,27 -106,87 0,71 56,120 103,148 36,21 76,35 117,35 z"
         fill="currentColor"
         id="path2348" />
    </g>
  </a>
  <a
     style="color:inherit"
     xlink:href="textedit://C:/Users/Javier/Documents/lilypond%20scores/shifting.ly:87:36:44"
     id="a2358"
     transform="translate(-5.6906,-84.193885)">
    <g
       transform="translate(24.3434,87.9273)"
       id="g2356">
      <path
         transform="scale(0.0044,-0.0044)"
         d="m 220,135 c 54,0 106,-27 106,-87 0,-71 -56,-120 -103,-148 -36,-21 -76,-35 -117,-35 -54,0 -106,27 -106,87 0,71 56,120 103,148 36,21 76,35 117,35 z"
         fill="currentColor"
         id="path2354" />
    </g>
  </a>
  <g
     transform="translate(18.7201,5.9334149)"
     id="g2362">
    <rect
       x="-0.067199998"
       y="-1.989"
       width="0.1345"
       height="6.0222998"
       ry="0.039999999"
       fill="currentColor"
       id="rect2360" />
  </g>
  <a
     style="color:inherit"
     xlink:href="textedit://C:/Users/Javier/Documents/lilypond%20scores/shifting.ly:87:12:13"
     id="a2368"
     transform="translate(-5.6906,-84.193885)">
    <g
       transform="translate(14.8595,87.3256)"
       id="g2366">
      <path
         transform="scale(0.0025,-0.0025)"
         d="m 0,250 127,250 c 3,6 12,3 20,0 14,-6 28,-13 44,-13 16,0 30,7 44,13 1,1 4,1 5,1 8,0 15,-10 15,-21 V 127 c 0,-52 32,-99 80,-99 9,0 13,-7 13,-14 C 348,7 344,0 335,0 287,0 239,13 191,13 143,13 96,0 48,0 39,0 34,7 34,14 c 0,7 5,14 14,14 48,0 79,47 79,99 v 220 c 0,15 -10,22 -19,22 -5,0 -10,-1 -12,-6 L 31,234 c -3,-7 -9,-9 -15,-9 -9,0 -18,7 -18,17 0,3 1,5 2,8 z"
         fill="currentColor"
         id="path2364" />
    </g>
  </a>
  <a
     style="color:inherit"
     xlink:href="textedit://C:/Users/Javier/Documents/lilypond%20scores/shifting.ly:87:18:19"
     id="a2374"
     transform="translate(-5.6906,-84.193885)">
    <g
       transform="translate(17.7022,91.7773)"
       id="g2372">
      <path
         transform="scale(0.0044,-0.0044)"
         d="m 220,135 c 54,0 106,-27 106,-87 0,-71 -56,-120 -103,-148 -36,-21 -76,-35 -117,-35 -54,0 -106,27 -106,87 0,71 56,120 103,148 36,21 76,35 117,35 z"
         fill="currentColor"
         id="path2370" />
    </g>
  </a>
  <a
     style="color:inherit"
     xlink:href="textedit://C:/Users/Javier/Documents/lilypond%20scores/shifting.ly:87:20:21"
     id="a2380"
     transform="translate(-5.6906,-84.193885)">
    <g
       transform="translate(17.7022,89.0273)"
       id="g2378">
      <path
         transform="scale(0.0044,-0.0044)"
         d="m 220,135 c 54,0 106,-27 106,-87 0,-71 -56,-120 -103,-148 -36,-21 -76,-35 -117,-35 -54,0 -106,27 -106,87 0,71 56,120 103,148 36,21 76,35 117,35 z"
         fill="currentColor"
         id="path2376" />
    </g>
  </a>
  <g
     transform="translate(13.3801,5.9334149)"
     id="g2384">
    <rect
       x="-0.067199998"
       y="-4.4000001"
       width="0.1345"
       height="5.8390002"
       ry="0.039999999"
       fill="currentColor"
       id="rect2382" />
  </g>
  <a
     style="color:inherit"
     xlink:href="textedit://C:/Users/Javier/Documents/lilypond%20scores/shifting.ly:88:22:26"
     id="a2390"
     transform="translate(-5.6906,-84.193885)">
    <g
       transform="translate(34.8198,89.0273)"
       id="g2388">
      <path
         transform="scale(0.0044,-0.0044)"
         d="m 220,135 c 54,0 106,-27 106,-87 0,-71 -56,-120 -103,-148 -36,-21 -76,-35 -117,-35 -54,0 -106,27 -106,87 0,71 56,120 103,148 36,21 76,35 117,35 z"
         fill="currentColor"
         id="path2386" />
    </g>
  </a>
  <a
     style="color:inherit"
     xlink:href="textedit://C:/Users/Javier/Documents/lilypond%20scores/shifting.ly:87:14:15"
     id="a2396"
     transform="translate(-5.6906,-84.193885)">
    <g
       transform="translate(14.8253,85.5123)"
       id="g2394">
      <path
         transform="scale(0.0025,-0.0025)"
         d="m 125,147 h 10 c 35,0 73,-12 110,-39 19,-14 41,-22 60,-22 22,0 40,10 46,31 2,7 7,11 13,11 7,0 14,-6 14,-14 0,-1 -1,-3 -1,-4 C 358,40 295,0 233,0 195,0 159,15 133,47 121,62 104,69 88,69 59,69 31,48 28,13 27,4 21,0 14,0 7,0 0,5 0,14 c 0,174 233,163 233,341 0,57 -14,117 -63,117 -31,0 -61,-14 -61,-41 0,-25 32,-39 32,-64 0,-35 -28,-64 -63,-64 -35,0 -64,29 -64,64 0,78 74,133 156,133 98,0 191,-55 191,-145 C 361,210 223,198 125,147 Z"
         fill="currentColor"
         id="path2392" />
    </g>
  </a>
  <a
     style="color:inherit"
     xlink:href="textedit://C:/Users/Javier/Documents/lilypond%20scores/shifting.ly:88:13:14"
     id="a2402"
     transform="translate(-5.6906,-84.193885)">
    <g
       transform="translate(31.686,89.5773)"
       id="g2400">
      <path
         transform="scale(0.0044,-0.0044)"
         d="m 220,135 c 54,0 106,-27 106,-87 0,-71 -56,-120 -103,-148 -36,-21 -76,-35 -117,-35 -54,0 -106,27 -106,87 0,71 56,120 103,148 36,21 76,35 117,35 z"
         fill="currentColor"
         id="path2398" />
    </g>
  </a>
  <a
     style="color:inherit"
     xlink:href="textedit://C:/Users/Javier/Documents/lilypond%20scores/shifting.ly:88:15:16"
     id="a2408"
     transform="translate(-5.6906,-84.193885)">
    <g
       transform="translate(31.686,86.8273)"
       id="g2406">
      <path
         transform="scale(0.0044,-0.0044)"
         d="m 220,135 c 54,0 106,-27 106,-87 0,-71 -56,-120 -103,-148 -36,-21 -76,-35 -117,-35 -54,0 -106,27 -106,87 0,71 56,120 103,148 36,21 76,35 117,35 z"
         fill="currentColor"
         id="path2404" />
    </g>
  </a>
  <g
     transform="translate(26.0627,5.9334149)"
     id="g2412">
    <rect
       x="-0.067199998"
       y="-3.089"
       width="0.1345"
       height="6.3889999"
       ry="0.039999999"
       fill="currentColor"
       id="rect2410" />
  </g>
  <a
     style="color:inherit"
     xlink:href="textedit://C:/Users/Javier/Documents/lilypond%20scores/shifting.ly:88:24:28"
     id="a2418"
     transform="translate(-5.6906,-84.193885)">
    <g
       transform="translate(34.8198,86.2773)"
       id="g2416">
      <path
         transform="scale(0.0044,-0.0044)"
         d="m 220,135 c 54,0 106,-27 106,-87 0,-71 -56,-120 -103,-148 -36,-21 -76,-35 -117,-35 -54,0 -106,27 -106,87 0,71 56,120 103,148 36,21 76,35 117,35 z"
         fill="currentColor"
         id="path2414" />
    </g>
  </a>
  <g
     transform="translate(29.1964,5.9334149)"
     id="g2422">
    <rect
       x="-0.067199998"
       y="-3.6389999"
       width="0.1345"
       height="6.3889999"
       ry="0.039999999"
       fill="currentColor"
       id="rect2420" />
  </g>
  <a
     style="color:inherit"
     xlink:href="textedit://C:/Users/Javier/Documents/lilypond%20scores/shifting.ly:88:7:8"
     id="a2428"
     transform="translate(-5.6906,-84.193885)">
    <g
       transform="translate(28.5523,87.3773)"
       id="g2426">
      <path
         transform="scale(0.0044,-0.0044)"
         d="m 220,135 c 54,0 106,-27 106,-87 0,-71 -56,-120 -103,-148 -36,-21 -76,-35 -117,-35 -54,0 -106,27 -106,87 0,71 56,120 103,148 36,21 76,35 117,35 z"
         fill="currentColor"
         id="path2424" />
    </g>
  </a>
  <g
     transform="translate(22.9289,5.9334149)"
     id="g2432">
    <rect
       x="-0.067199998"
       y="-2.539"
       width="0.1345"
       height="6.2055998"
       ry="0.039999999"
       fill="currentColor"
       id="rect2430" />
  </g>
  <a
     style="color:inherit"
     xlink:href="textedit://C:/Users/Javier/Documents/lilypond%20scores/shifting.ly:87:5:6"
     id="a2438"
     transform="translate(-5.6906,-84.193885)">
    <g
       transform="translate(14.5684,92.3273)"
       id="g2436">
      <path
         transform="scale(0.0044,-0.0044)"
         d="m 220,135 c 54,0 106,-27 106,-87 0,-71 -56,-120 -103,-148 -36,-21 -76,-35 -117,-35 -54,0 -106,27 -106,87 0,71 56,120 103,148 36,21 76,35 117,35 z"
         fill="currentColor"
         id="path2434" />
    </g>
  </a>
  <a
     style="color:inherit"
     xlink:href="textedit://C:/Users/Javier/Documents/lilypond%20scores/shifting.ly:88:5:6"
     id="a2444"
     transform="translate(-5.6906,-84.193885)">
    <g
       transform="translate(28.5523,90.1273)"
       id="g2442">
      <path
         transform="scale(0.0044,-0.0044)"
         d="m 220,135 c 54,0 106,-27 106,-87 0,-71 -56,-120 -103,-148 -36,-21 -76,-35 -117,-35 -54,0 -106,27 -106,87 0,71 56,120 103,148 36,21 76,35 117,35 z"
         fill="currentColor"
         id="path2440" />
    </g>
  </a>
  <a
     style="color:inherit"
     xlink:href="textedit://C:/Users/Javier/Documents/lilypond%20scores/shifting.ly:87:7:8"
     id="a2450"
     transform="translate(-5.6906,-84.193885)">
    <g
       transform="translate(14.5684,89.5773)"
       id="g2448">
      <path
         transform="scale(0.0044,-0.0044)"
         d="m 220,135 c 54,0 106,-27 106,-87 0,-71 -56,-120 -103,-148 -36,-21 -76,-35 -117,-35 -54,0 -106,27 -106,87 0,71 56,120 103,148 36,21 76,35 117,35 z"
         fill="currentColor"
         id="path2446" />
    </g>
  </a>
</svg>
