<svg
   version="1.2"
   width="170.22443mm"
   height="22.741714mm"
   viewBox="0 0 96.867101 12.941291"
   id="svg4776"
   sodipodi:docname="shifting.svg"
   xmlns:inkscape="http://www.inkscape.org/namespaces/inkscape"
   xmlns:sodipodi="http://sodipodi.sourceforge.net/DTD/sodipodi-0.dtd"
   xmlns:xlink="http://www.w3.org/1999/xlink"
   xmlns="http://www.w3.org/2000/svg"
   xmlns:svg="http://www.w3.org/2000/svg">
  <defs
     id="defs4780" />
  <sodipodi:namedview
     id="namedview4778"
     pagecolor="#ffffff"
     bordercolor="#000000"
     borderopacity="0.25"
     inkscape:showpageshadow="2"
     inkscape:pageopacity="0.0"
     inkscape:pagecheckerboard="0"
     inkscape:deskcolor="#d1d1d1"
     inkscape:document-units="mm"
     showgrid="false" />
  <style
     type="text/css"
     id="style2"><![CDATA[
tspan { white-space: pre; }
]]></style>
  <!-- Page: 1/1 -->
  <g
     transform="translate(3.1967416e-8,9.9272993)"
     id="g2454">
    <line
       stroke-linejoin="round"
       stroke-linecap="round"
       stroke-width="0.1034"
       stroke="currentColor"
       x1="0.0517"
       y1="0"
       x2="96.815399"
       y2="0"
       id="line2452" />
  </g>
  <g
     transform="translate(3.1967416e-8,8.8272993)"
     id="g2458">
    <line
       stroke-linejoin="round"
       stroke-linecap="round"
       stroke-width="0.1034"
       stroke="currentColor"
       x1="0.0517"
       y1="0"
       x2="96.815399"
       y2="0"
       id="line2456" />
  </g>
  <g
     transform="translate(3.1967416e-8,7.7272993)"
     id="g2462">
    <line
       stroke-linejoin="round"
       stroke-linecap="round"
       stroke-width="0.1034"
       stroke="currentColor"
       x1="0.0517"
       y1="0"
       x2="96.815399"
       y2="0"
       id="line2460" />
  </g>
  <g
     transform="translate(3.1967416e-8,6.6272993)"
     id="g2466">
    <line
       stroke-linejoin="round"
       stroke-linecap="round"
       stroke-width="0.1034"
       stroke="currentColor"
       x1="0.0517"
       y1="0"
       x2="96.815399"
       y2="0"
       id="line2464" />
  </g>
  <g
     transform="translate(3.1967416e-8,5.5272993)"
     id="g2470">
    <line
       stroke-linejoin="round"
       stroke-linecap="round"
       stroke-width="0.1034"
       stroke="currentColor"
       x1="0.0517"
       y1="0"
       x2="96.815399"
       y2="0"
       id="line2468" />
  </g>
  <g
     transform="translate(3.1967416e-8,11.027299)"
     id="g2474">
    <rect
       x="93.426003"
       y="-0.1067"
       width="2.1536"
       height="0.21340001"
       ry="0.1067"
       fill="currentColor"
       id="rect2472" />
  </g>
  <g
     transform="translate(3.1967416e-8,4.4272993)"
     id="g2478">
    <rect
       x="66.1903"
       y="-0.1067"
       width="2.1536"
       height="0.21340001"
       ry="0.1067"
       fill="currentColor"
       id="rect2476" />
  </g>
  <g
     transform="translate(3.1967416e-8,4.4272993)"
     id="g2482">
    <rect
       x="58.2831"
       y="-0.1067"
       width="2.1536"
       height="0.21340001"
       ry="0.1067"
       fill="currentColor"
       id="rect2480" />
  </g>
  <g
     transform="translate(3.1967416e-8,3.3272993)"
     id="g2486">
    <rect
       x="55.6474"
       y="-0.1067"
       width="2.1536"
       height="0.21340001"
       ry="0.1067"
       fill="currentColor"
       id="rect2484" />
  </g>
  <g
     transform="translate(3.1967416e-8,4.4272993)"
     id="g2490">
    <rect
       x="55.6474"
       y="-0.1067"
       width="2.1536"
       height="0.21340001"
       ry="0.1067"
       fill="currentColor"
       id="rect2488" />
  </g>
  <g
     transform="translate(3.1967416e-8,3.3272993)"
     id="g2494">
    <rect
       x="46.683601"
       y="-0.1067"
       width="2.1536"
       height="0.21340001"
       ry="0.1067"
       fill="currentColor"
       id="rect2492" />
  </g>
  <g
     transform="translate(3.1967416e-8,4.4272993)"
     id="g2498">
    <rect
       x="46.683601"
       y="-0.1067"
       width="2.1536"
       height="0.21340001"
       ry="0.1067"
       fill="currentColor"
       id="rect2496" />
  </g>
  <g
     transform="translate(3.1967416e-8,4.4272993)"
     id="g2502">
    <rect
       x="44.047901"
       y="-0.1067"
       width="2.1536"
       height="0.21340001"
       ry="0.1067"
       fill="currentColor"
       id="rect2500" />
  </g>
  <g
     transform="translate(3.1967416e-8,4.4272993)"
     id="g2506">
    <rect
       x="36.1408"
       y="-0.1067"
       width="2.1536"
       height="0.21340001"
       ry="0.1067"
       fill="currentColor"
       id="rect2504" />
  </g>
  <g
     transform="translate(3.1967416e-8,11.027299)"
     id="g2510">
    <rect
       x="8.5190001"
       y="-0.1067"
       width="2.1536"
       height="0.21340001"
       ry="0.1067"
       fill="currentColor"
       id="rect2508" />
  </g>
  <g
     transform="translate(96.6706,7.7272993)"
     id="g2514">
    <rect
       x="0"
       y="-2.2"
       width="0.1965"
       height="4.4000001"
       ry="0.0000"
       fill="currentColor"
       id="rect2512" />
  </g>
  <g
     transform="translate(30.0295,7.7272993)"
     id="g2518">
    <rect
       x="0"
       y="-2.2"
       width="0.1965"
       height="4.4000001"
       ry="0.0000"
       fill="currentColor"
       id="rect2516" />
  </g>
  <g
     transform="translate(52.0776,7.7272993)"
     id="g2522">
    <rect
       x="0"
       y="-2.2"
       width="0.1965"
       height="4.4000001"
       ry="0.0000"
       fill="currentColor"
       id="rect2520" />
  </g>
  <g
     transform="translate(74.3271,7.7272993)"
     id="g2526">
    <rect
       x="0"
       y="-2.2"
       width="0.1965"
       height="4.4000001"
       ry="0.0000"
       fill="currentColor"
       id="rect2524" />
  </g>
  <g
     transform="translate(61.345,7.7272993)"
     id="g2530">
    <rect
       x="-0.067199998"
       y="-0.889"
       width="0.1345"
       height="4.3976998"
       ry="0.039999999"
       fill="currentColor"
       id="rect2528" />
  </g>
  <a
     style="color:inherit"
     xlink:href="textedit://C:/Users/Javier/Documents/lilypond%20scores/shifting.ly:104:27:28"
     id="a2536"
     transform="translate(-5.6906,-96.400001)">
    <g
       transform="translate(66.9683,103.0273)"
       id="g2534">
      <path
         transform="scale(0.0044,-0.0044)"
         d="m 220,135 c 54,0 106,-27 106,-87 0,-71 -56,-120 -103,-148 -36,-21 -76,-35 -117,-35 -54,0 -106,27 -106,87 0,71 56,120 103,148 36,21 76,35 117,35 z"
         fill="currentColor"
         id="path2532" />
    </g>
  </a>
  <a
     style="color:inherit"
     xlink:href="textedit://C:/Users/Javier/Documents/lilypond%20scores/shifting.ly:104:25:26"
     id="a2542"
     transform="translate(-5.6906,-96.400001)">
    <g
       transform="translate(66.9683,104.1273)"
       id="g2540">
      <path
         transform="scale(0.0044,-0.0044)"
         d="m 220,135 c 54,0 106,-27 106,-87 0,-71 -56,-120 -103,-148 -36,-21 -76,-35 -117,-35 -54,0 -106,27 -106,87 0,71 56,120 103,148 36,21 76,35 117,35 z"
         fill="currentColor"
         id="path2538" />
    </g>
  </a>
  <g
     transform="translate(58.7093,7.7272993)"
     id="g2546">
    <rect
       x="-0.067199998"
       y="-3.6389999"
       width="0.1345"
       height="7.0085001"
       ry="0.039999999"
       fill="currentColor"
       id="rect2544" />
  </g>
  <a
     style="color:inherit"
     xlink:href="textedit://C:/Users/Javier/Documents/lilypond%20scores/shifting.ly:104:20:21"
     id="a2552"
     transform="translate(-5.6906,-96.400001)">
    <g
       transform="translate(64.3326,100.2773)"
       id="g2550">
      <path
         transform="scale(0.0044,-0.0044)"
         d="m 220,135 c 54,0 106,-27 106,-87 0,-71 -56,-120 -103,-148 -36,-21 -76,-35 -117,-35 -54,0 -106,27 -106,87 0,71 56,120 103,148 36,21 76,35 117,35 z"
         fill="currentColor"
         id="path2548" />
    </g>
  </a>
  <a
     style="color:inherit"
     xlink:href="textedit://C:/Users/Javier/Documents/lilypond%20scores/shifting.ly:104:18:19"
     id="a2558"
     transform="translate(-5.6906,-96.400001)">
    <g
       transform="translate(64.3326,103.0273)"
       id="g2556">
      <path
         transform="scale(0.0044,-0.0044)"
         d="m 220,135 c 54,0 106,-27 106,-87 0,-71 -56,-120 -103,-148 -36,-21 -76,-35 -117,-35 -54,0 -106,27 -106,87 0,71 56,120 103,148 36,21 76,35 117,35 z"
         fill="currentColor"
         id="path2554" />
    </g>
  </a>
  <g
     transform="translate(56.0735,7.7272993)"
     id="g2562">
    <rect
       x="-0.067199998"
       y="-4.1890001"
       width="0.1345"
       height="7.4194002"
       ry="0.039999999"
       fill="currentColor"
       id="rect2560" />
  </g>
  <a
     style="color:inherit"
     xlink:href="textedit://C:/Users/Javier/Documents/lilypond%20scores/shifting.ly:104:13:14"
     id="a2568"
     transform="translate(-5.6906,-96.400001)">
    <g
       transform="translate(61.6969,99.7273)"
       id="g2566">
      <path
         transform="scale(0.0044,-0.0044)"
         d="m 220,135 c 54,0 106,-27 106,-87 0,-71 -56,-120 -103,-148 -36,-21 -76,-35 -117,-35 -54,0 -106,27 -106,87 0,71 56,120 103,148 36,21 76,35 117,35 z"
         fill="currentColor"
         id="path2564" />
    </g>
  </a>
  <a
     style="color:inherit"
     xlink:href="textedit://C:/Users/Javier/Documents/lilypond%20scores/shifting.ly:104:11:12"
     id="a2574"
     transform="translate(-5.6906,-96.400001)">
    <g
       transform="translate(61.6969,102.4773)"
       id="g2572">
      <path
         transform="scale(0.0044,-0.0044)"
         d="m 220,135 c 54,0 106,-27 106,-87 0,-71 -56,-120 -103,-148 -36,-21 -76,-35 -117,-35 -54,0 -106,27 -106,87 0,71 56,120 103,148 36,21 76,35 117,35 z"
         fill="currentColor"
         id="path2570" />
    </g>
  </a>
  <g
     transform="translate(66.6164,7.7272993)"
     id="g2578">
    <rect
       x="-0.067199998"
       y="-3.089"
       width="0.1345"
       height="6.7147999"
       ry="0.039999999"
       fill="currentColor"
       id="rect2576" />
  </g>
  <a
     style="color:inherit"
     xlink:href="textedit://C:/Users/Javier/Documents/lilypond%20scores/shifting.ly:102:5:6"
     id="a2584"
     transform="translate(-5.6906,-96.400001)">
    <g
       transform="translate(47.4617,104.1273)"
       id="g2582">
      <path
         transform="scale(0.0044,-0.0044)"
         d="m 220,135 c 54,0 106,-27 106,-87 0,-71 -56,-120 -103,-148 -36,-21 -76,-35 -117,-35 -54,0 -106,27 -106,87 0,71 56,120 103,148 36,21 76,35 117,35 z"
         fill="currentColor"
         id="path2580" />
    </g>
  </a>
  <g
     transform="translate(69.2521,7.7272993)"
     id="g2588">
    <rect
       x="-0.067199998"
       y="-2.539"
       width="0.1345"
       height="6.2754002"
       ry="0.039999999"
       fill="currentColor"
       id="rect2586" />
  </g>
  <a
     style="color:inherit"
     xlink:href="textedit://C:/Users/Javier/Documents/lilypond%20scores/shifting.ly:105:20:21"
     id="a2594"
     transform="translate(-5.6906,-96.400001)">
    <g
       transform="translate(74.8754,101.3773)"
       id="g2592">
      <path
         transform="scale(0.0044,-0.0044)"
         d="m 220,135 c 54,0 106,-27 106,-87 0,-71 -56,-120 -103,-148 -36,-21 -76,-35 -117,-35 -54,0 -106,27 -106,87 0,71 56,120 103,148 36,21 76,35 117,35 z"
         fill="currentColor"
         id="path2590" />
    </g>
  </a>
  <a
     style="color:inherit"
     xlink:href="textedit://C:/Users/Javier/Documents/lilypond%20scores/shifting.ly:105:18:19"
     id="a2600"
     transform="translate(-5.6906,-96.400001)">
    <g
       transform="translate(74.8754,104.1273)"
       id="g2598">
      <path
         transform="scale(0.0044,-0.0044)"
         d="m 220,135 c 54,0 106,-27 106,-87 0,-71 -56,-120 -103,-148 -36,-21 -76,-35 -117,-35 -54,0 -106,27 -106,87 0,71 56,120 103,148 36,21 76,35 117,35 z"
         fill="currentColor"
         id="path2596" />
    </g>
  </a>
  <a
     style="color:inherit"
     xlink:href="textedit://C:/Users/Javier/Documents/lilypond%20scores/shifting.ly:105:13:14"
     id="a2606"
     transform="translate(-5.6906,-96.400001)">
    <g
       transform="translate(72.2397,100.8273)"
       id="g2604">
      <path
         transform="scale(0.0044,-0.0044)"
         d="m 220,135 c 54,0 106,-27 106,-87 0,-71 -56,-120 -103,-148 -36,-21 -76,-35 -117,-35 -54,0 -106,27 -106,87 0,71 56,120 103,148 36,21 76,35 117,35 z"
         fill="currentColor"
         id="path2602" />
    </g>
  </a>
  <a
     style="color:inherit"
     xlink:href="textedit://C:/Users/Javier/Documents/lilypond%20scores/shifting.ly:105:11:12"
     id="a2612"
     transform="translate(-5.6906,-96.400001)">
    <g
       transform="translate(72.2397,103.5773)"
       id="g2610">
      <path
         transform="scale(0.0044,-0.0044)"
         d="m 220,135 c 54,0 106,-27 106,-87 0,-71 -56,-120 -103,-148 -36,-21 -76,-35 -117,-35 -54,0 -106,27 -106,87 0,71 56,120 103,148 36,21 76,35 117,35 z"
         fill="currentColor"
         id="path2608" />
    </g>
  </a>
  <g
     transform="translate(63.9807,7.7272993)"
     id="g2616">
    <rect
       x="-0.067199998"
       y="-0.33899999"
       width="0.1345"
       height="3.8541"
       ry="0.039999999"
       fill="currentColor"
       id="rect2614" />
  </g>
  <a
     style="color:inherit"
     xlink:href="textedit://C:/Users/Javier/Documents/lilypond%20scores/shifting.ly:105:7:8"
     id="a2622"
     transform="translate(-5.6906,-96.400001)">
    <g
       transform="translate(69.604,103.5773)"
       id="g2620">
      <path
         transform="scale(0.0044,-0.0044)"
         d="m 220,135 c 54,0 106,-27 106,-87 0,-71 -56,-120 -103,-148 -36,-21 -76,-35 -117,-35 -54,0 -106,27 -106,87 0,71 56,120 103,148 36,21 76,35 117,35 z"
         fill="currentColor"
         id="path2618" />
    </g>
  </a>
  <a
     style="color:inherit"
     xlink:href="textedit://C:/Users/Javier/Documents/lilypond%20scores/shifting.ly:105:5:6"
     id="a2628"
     transform="translate(-5.6906,-96.400001)">
    <g
       transform="translate(69.604,104.6773)"
       id="g2626">
      <path
         transform="scale(0.0044,-0.0044)"
         d="m 220,135 c 54,0 106,-27 106,-87 0,-71 -56,-120 -103,-148 -36,-21 -76,-35 -117,-35 -54,0 -106,27 -106,87 0,71 56,120 103,148 36,21 76,35 117,35 z"
         fill="currentColor"
         id="path2624" />
    </g>
  </a>
  <g
     transform="translate(47.1097,7.7272993)"
     id="g2632">
    <rect
       x="-0.067199998"
       y="-4.1890001"
       width="0.1345"
       height="7.4194002"
       ry="0.039999999"
       fill="currentColor"
       id="rect2630" />
  </g>
  <a
     style="color:inherit"
     xlink:href="textedit://C:/Users/Javier/Documents/lilypond%20scores/shifting.ly:102:22:23"
     id="a2638"
     transform="translate(-5.6906,-96.400001)">
    <g
       transform="translate(52.7331,99.7273)"
       id="g2636">
      <path
         transform="scale(0.0044,-0.0044)"
         d="m 220,135 c 54,0 106,-27 106,-87 0,-71 -56,-120 -103,-148 -36,-21 -76,-35 -117,-35 -54,0 -106,27 -106,87 0,71 56,120 103,148 36,21 76,35 117,35 z"
         fill="currentColor"
         id="path2634" />
    </g>
  </a>
  <a
     style="color:inherit"
     xlink:href="textedit://C:/Users/Javier/Documents/lilypond%20scores/shifting.ly:102:20:21"
     id="a2644"
     transform="translate(-5.6906,-96.400001)">
    <g
       transform="translate(52.7331,102.4773)"
       id="g2642">
      <path
         transform="scale(0.0044,-0.0044)"
         d="m 220,135 c 54,0 106,-27 106,-87 0,-71 -56,-120 -103,-148 -36,-21 -76,-35 -117,-35 -54,0 -106,27 -106,87 0,71 56,120 103,148 36,21 76,35 117,35 z"
         fill="currentColor"
         id="path2640" />
    </g>
  </a>
  <a
     style="color:inherit"
     xlink:href="textedit://C:/Users/Javier/Documents/lilypond%20scores/shifting.ly:102:28:29"
     id="a2650"
     transform="translate(-5.6906,-96.400001)">
    <g
       transform="translate(55.3688,103.5773)"
       id="g2648">
      <path
         transform="scale(0.0044,-0.0044)"
         d="m 220,135 c 54,0 106,-27 106,-87 0,-71 -56,-120 -103,-148 -36,-21 -76,-35 -117,-35 -54,0 -106,27 -106,87 0,71 56,120 103,148 36,21 76,35 117,35 z"
         fill="currentColor"
         id="path2646" />
    </g>
  </a>
  <g
     transform="translate(44.474,7.7272993)"
     id="g2654">
    <rect
       x="-0.067199998"
       y="-3.6389999"
       width="0.1345"
       height="7.0085001"
       ry="0.039999999"
       fill="currentColor"
       id="rect2652" />
  </g>
  <a
     style="color:inherit"
     xlink:href="textedit://C:/Users/Javier/Documents/lilypond%20scores/shifting.ly:102:14:15"
     id="a2660"
     transform="translate(-5.6906,-96.400001)">
    <g
       transform="translate(50.0974,100.2773)"
       id="g2658">
      <path
         transform="scale(0.0044,-0.0044)"
         d="m 220,135 c 54,0 106,-27 106,-87 0,-71 -56,-120 -103,-148 -36,-21 -76,-35 -117,-35 -54,0 -106,27 -106,87 0,71 56,120 103,148 36,21 76,35 117,35 z"
         fill="currentColor"
         id="path2656" />
    </g>
  </a>
  <a
     style="color:inherit"
     xlink:href="textedit://C:/Users/Javier/Documents/lilypond%20scores/shifting.ly:102:12:13"
     id="a2666"
     transform="translate(-5.6906,-96.400001)">
    <g
       transform="translate(50.0974,103.0273)"
       id="g2664">
      <path
         transform="scale(0.0044,-0.0044)"
         d="m 220,135 c 54,0 106,-27 106,-87 0,-71 -56,-120 -103,-148 -36,-21 -76,-35 -117,-35 -54,0 -106,27 -106,87 0,71 56,120 103,148 36,21 76,35 117,35 z"
         fill="currentColor"
         id="path2662" />
    </g>
  </a>
  <g
     transform="translate(41.8383,7.7272993)"
     id="g2670">
    <rect
       x="-0.067199998"
       y="-0.889"
       width="0.1345"
       height="4.3976998"
       ry="0.039999999"
       fill="currentColor"
       id="rect2668" />
  </g>
  <a
     style="color:inherit"
     xlink:href="textedit://C:/Users/Javier/Documents/lilypond%20scores/shifting.ly:102:7:8"
     id="a2676"
     transform="translate(-5.6906,-96.400001)">
    <g
       transform="translate(47.4617,103.0273)"
       id="g2674">
      <path
         transform="scale(0.0044,-0.0044)"
         d="m 220,135 c 54,0 106,-27 106,-87 0,-71 -56,-120 -103,-148 -36,-21 -76,-35 -117,-35 -54,0 -106,27 -106,87 0,71 56,120 103,148 36,21 76,35 117,35 z"
         fill="currentColor"
         id="path2672" />
    </g>
  </a>
  <a
     style="color:inherit"
     xlink:href="textedit://C:/Users/Javier/Documents/lilypond%20scores/shifting.ly:99:10:11"
     id="a2682"
     transform="translate(-5.6906,-96.400001)">
    <g
       transform="translate(14.5684,104.1273)"
       id="g2680">
      <path
         stroke-width="0.0827"
         stroke-linejoin="round"
         stroke-linecap="round"
         stroke="currentColor"
         fill="currentColor"
         d="m 0.9022,4.446 c 0.9812,0.3732 2.2109,-0.14 2.6357,-1.1 v 0 C 3.0653,4.1915 1.8356,4.7047 0.9022,4.446 Z"
         id="path2678" />
    </g>
  </a>
  <g
     transform="translate(53.4378,7.7272993)"
     id="g2686">
    <rect
       x="-0.067199998"
       y="-1.439"
       width="0.1345"
       height="4.5302"
       ry="0.039999999"
       fill="currentColor"
       id="rect2684" />
  </g>
  <a
     style="color:inherit"
     xlink:href="textedit://C:/Users/Javier/Documents/lilypond%20scores/shifting.ly:104:7:8"
     id="a2692"
     transform="translate(-5.6906,-96.400001)">
    <g
       transform="translate(59.0612,102.4773)"
       id="g2690">
      <path
         transform="scale(0.0044,-0.0044)"
         d="m 220,135 c 54,0 106,-27 106,-87 0,-71 -56,-120 -103,-148 -36,-21 -76,-35 -117,-35 -54,0 -106,27 -106,87 0,71 56,120 103,148 36,21 76,35 117,35 z"
         fill="currentColor"
         id="path2688" />
    </g>
  </a>
  <a
     style="color:inherit"
     xlink:href="textedit://C:/Users/Javier/Documents/lilypond%20scores/shifting.ly:104:5:6"
     id="a2698"
     transform="translate(-5.6906,-96.400001)">
    <g
       transform="translate(59.0612,103.5773)"
       id="g2696">
      <path
         transform="scale(0.0044,-0.0044)"
         d="m 220,135 c 54,0 106,-27 106,-87 0,-71 -56,-120 -103,-148 -36,-21 -76,-35 -117,-35 -54,0 -106,27 -106,87 0,71 56,120 103,148 36,21 76,35 117,35 z"
         fill="currentColor"
         id="path2694" />
    </g>
  </a>
  <g
     transform="translate(49.7454,7.7272993)"
     id="g2702">
    <rect
       x="-0.067199998"
       y="-1.439"
       width="0.1345"
       height="4.5302"
       ry="0.039999999"
       fill="currentColor"
       id="rect2700" />
  </g>
  <a
     style="color:inherit"
     xlink:href="textedit://C:/Users/Javier/Documents/lilypond%20scores/shifting.ly:102:30:31"
     id="a2708"
     transform="translate(-5.6906,-96.400001)">
    <g
       transform="translate(55.3688,102.4773)"
       id="g2706">
      <path
         transform="scale(0.0044,-0.0044)"
         d="m 220,135 c 54,0 106,-27 106,-87 0,-71 -56,-120 -103,-148 -36,-21 -76,-35 -117,-35 -54,0 -106,27 -106,87 0,71 56,120 103,148 36,21 76,35 117,35 z"
         fill="currentColor"
         id="path2704" />
    </g>
  </a>
  <g
     transform="translate(89.882,7.7272993)"
     id="g2712">
    <rect
       x="-0.067199998"
       y="-3.8499999"
       width="0.1345"
       height="5.289"
       ry="0.039999999"
       fill="currentColor"
       id="rect2710" />
  </g>
  <g
     transform="translate(92.5177,7.7272993)"
     id="g2716">
    <rect
       x="-0.067199998"
       y="-3.8499999"
       width="0.1345"
       height="5.8390002"
       ry="0.039999999"
       fill="currentColor"
       id="rect2714" />
  </g>
  <a
     style="color:inherit"
     xlink:href="textedit://C:/Users/Javier/Documents/lilypond%20scores/shifting.ly:107:22:23"
     id="a2722"
     transform="translate(-5.6906,-96.400001)">
    <g
       transform="translate(96.8398,103.5773)"
       id="g2720">
      <path
         transform="scale(0.0044,-0.0044)"
         d="m 220,135 c 54,0 106,-27 106,-87 0,-71 -56,-120 -103,-148 -36,-21 -76,-35 -117,-35 -54,0 -106,27 -106,87 0,71 56,120 103,148 36,21 76,35 117,35 z"
         fill="currentColor"
         id="path2718" />
    </g>
  </a>
  <a
     style="color:inherit"
     xlink:href="textedit://C:/Users/Javier/Documents/lilypond%20scores/shifting.ly:107:19:20"
     id="a2728"
     transform="translate(-5.6906,-96.400001)">
    <g
       transform="translate(96.8398,106.3273)"
       id="g2726">
      <path
         transform="scale(0.0044,-0.0044)"
         d="m 220,135 c 54,0 106,-27 106,-87 0,-71 -56,-120 -103,-148 -36,-21 -76,-35 -117,-35 -54,0 -106,27 -106,87 0,71 56,120 103,148 36,21 76,35 117,35 z"
         fill="currentColor"
         id="path2724" />
    </g>
  </a>
  <a
     style="color:inherit"
     xlink:href="textedit://C:/Users/Javier/Documents/lilypond%20scores/shifting.ly:107:27:28"
     id="a2734"
     transform="translate(-5.6906,-96.400001)">
    <g
       transform="translate(99.4755,107.4273)"
       id="g2732">
      <path
         transform="scale(0.0044,-0.0044)"
         d="m 220,135 c 54,0 106,-27 106,-87 0,-71 -56,-120 -103,-148 -36,-21 -76,-35 -117,-35 -54,0 -106,27 -106,87 0,71 56,120 103,148 36,21 76,35 117,35 z"
         fill="currentColor"
         id="path2730" />
    </g>
  </a>
  <a
     style="color:inherit"
     xlink:href="textedit://C:/Users/Javier/Documents/lilypond%20scores/shifting.ly:107:14:15"
     id="a2740"
     transform="translate(-5.6906,-96.400001)">
    <g
       transform="translate(94.2041,105.7773)"
       id="g2738">
      <path
         transform="scale(0.0044,-0.0044)"
         d="m 220,135 c 54,0 106,-27 106,-87 0,-71 -56,-120 -103,-148 -36,-21 -76,-35 -117,-35 -54,0 -106,27 -106,87 0,71 56,120 103,148 36,21 76,35 117,35 z"
         fill="currentColor"
         id="path2736" />
    </g>
  </a>
  <a
     style="color:inherit"
     xlink:href="textedit://C:/Users/Javier/Documents/lilypond%20scores/shifting.ly:107:11:12"
     id="a2746"
     transform="translate(-5.6906,-96.400001)">
    <g
       transform="translate(94.2041,103.0273)"
       id="g2744">
      <path
         transform="scale(0.0044,-0.0044)"
         d="m 220,135 c 54,0 106,-27 106,-87 0,-71 -56,-120 -103,-148 -36,-21 -76,-35 -117,-35 -54,0 -106,27 -106,87 0,71 56,120 103,148 36,21 76,35 117,35 z"
         fill="currentColor"
         id="path2742" />
    </g>
  </a>
  <g
     transform="translate(87.2462,7.7272993)"
     id="g2750">
    <rect
       x="-0.067199998"
       y="-3.8499999"
       width="0.1345"
       height="6.3889999"
       ry="0.039999999"
       fill="currentColor"
       id="rect2748" />
  </g>
  <a
     style="color:inherit"
     xlink:href="textedit://C:/Users/Javier/Documents/lilypond%20scores/shifting.ly:107:7:8"
     id="a2756"
     transform="translate(-5.6906,-96.400001)">
    <g
       transform="translate(91.5684,106.8773)"
       id="g2754">
      <path
         transform="scale(0.0044,-0.0044)"
         d="m 220,135 c 54,0 106,-27 106,-87 0,-71 -56,-120 -103,-148 -36,-21 -76,-35 -117,-35 -54,0 -106,27 -106,87 0,71 56,120 103,148 36,21 76,35 117,35 z"
         fill="currentColor"
         id="path2752" />
    </g>
  </a>
  <a
     style="color:inherit"
     xlink:href="textedit://C:/Users/Javier/Documents/lilypond%20scores/shifting.ly:107:5:6"
     id="a2762"
     transform="translate(-5.6906,-96.400001)">
    <g
       transform="translate(91.5684,105.7773)"
       id="g2760">
      <path
         transform="scale(0.0044,-0.0044)"
         d="m 220,135 c 54,0 106,-27 106,-87 0,-71 -56,-120 -103,-148 -36,-21 -76,-35 -117,-35 -54,0 -106,27 -106,87 0,71 56,120 103,148 36,21 76,35 117,35 z"
         fill="currentColor"
         id="path2758" />
    </g>
  </a>
  <g
     transform="translate(41.7711,11.239599)"
     id="g2766">
    <polygon
       stroke-linejoin="round"
       stroke-linecap="round"
       stroke-width="0.08"
       fill="currentColor"
       stroke="currentColor"
       points="8.0016,-0.6486 8.0016,-0.2006 0.04,0.224 0.04,-0.224 "
       id="polygon2764" />
  </g>
  <a
     style="color:inherit"
     xlink:href="textedit://C:/Users/Javier/Documents/lilypond%20scores/shifting.ly:99:35:36"
     id="a2772"
     transform="translate(-5.6906,-96.400001)">
    <g
       transform="translate(19.8398,104.1273)"
       id="g2770">
      <path
         stroke-width="0.0827"
         stroke-linejoin="round"
         stroke-linecap="round"
         stroke="currentColor"
         fill="currentColor"
         d="m 0.5335,2.796 c 0.4248,0.96 1.6545,1.4732 2.6357,1.1 v 0 C 2.2358,4.1547 1.0061,3.6415 0.5335,2.796 Z"
         id="path2768" />
    </g>
  </a>
  <a
     style="color:inherit"
     xlink:href="textedit://C:/Users/Javier/Documents/lilypond%20scores/shifting.ly:100:9:10"
     id="a2778"
     transform="translate(-5.6906,-96.400001)">
    <g
       transform="translate(25.2707,104.1273)"
       id="g2776">
      <path
         stroke-width="0.0827"
         stroke-linejoin="round"
         stroke-linecap="round"
         stroke="currentColor"
         fill="currentColor"
         d="M 0.3828,-0.211 C 0.437,-1.4941 1.7345,-2.7666 3.0185,-2.796 v 0 c -1.1971,0.118 -2.4946,1.3905 -2.6357,2.585 z"
         id="path2774" />
    </g>
  </a>
  <g
     transform="translate(10.1791,3.8772993)"
     id="g2782">
    <polygon
       stroke-linejoin="round"
       stroke-linecap="round"
       stroke-width="0.08"
       fill="currentColor"
       stroke="currentColor"
       points="8.0016,-0.224 8.0016,0.224 0.04,0.224 0.04,-0.224 "
       id="polygon2780" />
  </g>
  <a
     style="color:inherit"
     xlink:href="textedit://C:/Users/Javier/Documents/lilypond%20scores/shifting.ly:100:34:35"
     id="a2788"
     transform="translate(-5.6906,-96.400001)">
    <g
       transform="translate(30.5421,104.1273)"
       id="g2786">
      <path
         stroke-width="0.0827"
         stroke-linejoin="round"
         stroke-linecap="round"
         stroke="currentColor"
         fill="currentColor"
         d="m 1.0634,-3.346 c 1.3132,0.0719 2.6196,1.435 2.6357,2.75 v 0 C 3.5934,-1.8251 2.287,-3.1883 1.0634,-3.346 Z"
         id="path2784" />
    </g>
  </a>
  <g
     transform="translate(19.5801,12.677299)"
     id="g2792">
    <polygon
       stroke-linejoin="round"
       stroke-linecap="round"
       stroke-width="0.08"
       fill="currentColor"
       stroke="currentColor"
       points="8.0016,-0.5617 8.0016,-0.1137 0.04,0.224 0.04,-0.224 "
       id="polygon2790" />
  </g>
  <a
     style="color:inherit"
     xlink:href="textedit://C:/Users/Javier/Documents/lilypond%20scores/shifting.ly:101:9:10"
     id="a2798"
     transform="translate(-5.6906,-96.400001)">
    <g
       transform="translate(36.9188,104.1273)"
       id="g2796">
      <path
         stroke-width="0.0827"
         stroke-linejoin="round"
         stroke-linecap="round"
         stroke="currentColor"
         fill="currentColor"
         d="M 0.3828,-1.311 C 0.437,-2.5941 1.7345,-3.8666 3.0185,-3.896 v 0 c -1.1971,0.118 -2.4946,1.3905 -2.6357,2.585 z"
         id="path2794" />
    </g>
  </a>
  <a
     style="color:inherit"
     xlink:href="textedit://C:/Users/Javier/Documents/lilypond%20scores/shifting.ly:101:25:26"
     id="a2804"
     transform="translate(-5.6906,-96.400001)">
    <g
       transform="translate(42.1903,104.1273)"
       id="g2802">
      <path
         stroke-width="0.0827"
         stroke-linejoin="round"
         stroke-linecap="round"
         stroke="currentColor"
         fill="currentColor"
         d="m 1.0634,-4.446 c 1.3132,0.0719 2.6196,1.435 2.6357,2.75 v 0 C 3.5934,-2.9251 2.287,-4.2883 1.0634,-4.446 Z"
         id="path2800" />
    </g>
  </a>
  <a
     style="color:inherit"
     xlink:href="textedit://C:/Users/Javier/Documents/lilypond%20scores/shifting.ly:102:9:10"
     id="a2810"
     transform="translate(-5.6906,-96.400001)">
    <g
       transform="translate(47.4617,104.1273)"
       id="g2808">
      <path
         stroke-width="0.0827"
         stroke-linejoin="round"
         stroke-linecap="round"
         stroke="currentColor"
         fill="currentColor"
         d="M 0.3828,-2.411 C 0.437,-3.6941 1.7345,-4.9666 3.0185,-4.996 v 0 c -1.1971,0.118 -2.4946,1.3905 -2.6357,2.585 z"
         id="path2806" />
    </g>
  </a>
  <g
     transform="translate(31.2282,11.577299)"
     id="g2814">
    <polygon
       stroke-linejoin="round"
       stroke-linecap="round"
       stroke-width="0.08"
       fill="currentColor"
       stroke="currentColor"
       points="8.0016,-0.5617 8.0016,-0.1137 0.04,0.224 0.04,-0.224 "
       id="polygon2812" />
  </g>
  <a
     style="color:inherit"
     xlink:href="textedit://C:/Users/Javier/Documents/lilypond%20scores/shifting.ly:102:25:26"
     id="a2820"
     transform="translate(-5.6906,-96.400001)">
    <g
       transform="translate(52.7331,104.1273)"
       id="g2818">
      <path
         stroke-width="0.0827"
         stroke-linejoin="round"
         stroke-linecap="round"
         stroke="currentColor"
         fill="currentColor"
         d="m 1.0634,-5.546 c 1.3132,0.0719 2.6196,1.435 2.6357,2.75 v 0 C 3.5934,-4.0251 2.287,-5.3883 1.0634,-5.546 Z"
         id="path2816" />
    </g>
  </a>
  <g
     transform="translate(53.3706,10.814999)"
     id="g2824">
    <polygon
       stroke-linejoin="round"
       stroke-linecap="round"
       stroke-width="0.08"
       fill="currentColor"
       stroke="currentColor"
       points="8.0016,0.2006 8.0016,0.6486 0.04,0.224 0.04,-0.224 "
       id="polygon2822" />
  </g>
  <g
     transform="translate(63.9134,11.239599)"
     id="g2828">
    <polygon
       stroke-linejoin="round"
       stroke-linecap="round"
       stroke-width="0.08"
       fill="currentColor"
       stroke="currentColor"
       points="8.0016,0.1137 8.0016,0.5617 0.04,0.224 0.04,-0.224 "
       id="polygon2826" />
  </g>
  <g
     transform="translate(75.4944,12.339599)"
     id="g2832">
    <polygon
       stroke-linejoin="round"
       stroke-linecap="round"
       stroke-width="0.08"
       fill="currentColor"
       stroke="currentColor"
       points="8.0016,0.1137 8.0016,0.5617 0.04,0.224 0.04,-0.224 "
       id="polygon2830" />
  </g>
  <g
     transform="translate(87.179,3.8772993)"
     id="g2836">
    <polygon
       stroke-linejoin="round"
       stroke-linecap="round"
       stroke-width="0.08"
       fill="currentColor"
       stroke="currentColor"
       points="8.0016,-0.224 8.0016,0.224 0.04,0.224 0.04,-0.224 "
       id="polygon2834" />
  </g>
  <g
     transform="translate(95.1534,7.7272993)"
     id="g2840">
    <rect
       x="-0.067199998"
       y="-3.8499999"
       width="0.1345"
       height="6.9390001"
       ry="0.039999999"
       fill="currentColor"
       id="rect2838" />
  </g>
  <a
     style="color:inherit"
     xlink:href="textedit://C:/Users/Javier/Documents/lilypond%20scores/shifting.ly:107:29:30"
     id="a2846"
     transform="translate(-5.6906,-96.400001)">
    <g
       transform="translate(99.4755,106.3273)"
       id="g2844">
      <path
         transform="scale(0.0044,-0.0044)"
         d="m 220,135 c 54,0 106,-27 106,-87 0,-71 -56,-120 -103,-148 -36,-21 -76,-35 -117,-35 -54,0 -106,27 -106,87 0,71 56,120 103,148 36,21 76,35 117,35 z"
         fill="currentColor"
         id="path2842" />
    </g>
  </a>
  <g
     transform="translate(75.5616,7.7272993)"
     id="g2850">
    <rect
       x="-0.067199998"
       y="0.76099998"
       width="0.1345"
       height="3.8541"
       ry="0.039999999"
       fill="currentColor"
       id="rect2848" />
  </g>
  <a
     style="color:inherit"
     xlink:href="textedit://C:/Users/Javier/Documents/lilypond%20scores/shifting.ly:106:7:8"
     id="a2856"
     transform="translate(-5.6906,-96.400001)">
    <g
       transform="translate(81.185,104.6773)"
       id="g2854">
      <path
         transform="scale(0.0044,-0.0044)"
         d="m 220,135 c 54,0 106,-27 106,-87 0,-71 -56,-120 -103,-148 -36,-21 -76,-35 -117,-35 -54,0 -106,27 -106,87 0,71 56,120 103,148 36,21 76,35 117,35 z"
         fill="currentColor"
         id="path2852" />
    </g>
  </a>
  <a
     style="color:inherit"
     xlink:href="textedit://C:/Users/Javier/Documents/lilypond%20scores/shifting.ly:106:5:6"
     id="a2862"
     transform="translate(-5.6906,-96.400001)">
    <g
       transform="translate(81.185,105.7773)"
       id="g2860">
      <path
         transform="scale(0.0044,-0.0044)"
         d="m 220,135 c 54,0 106,-27 106,-87 0,-71 -56,-120 -103,-148 -36,-21 -76,-35 -117,-35 -54,0 -106,27 -106,87 0,71 56,120 103,148 36,21 76,35 117,35 z"
         fill="currentColor"
         id="path2858" />
    </g>
  </a>
  <g
     transform="translate(71.8878,7.7272993)"
     id="g2866">
    <rect
       x="-0.067199998"
       y="0.211"
       width="0.1345"
       height="3.6361001"
       ry="0.039999999"
       fill="currentColor"
       id="rect2864" />
  </g>
  <a
     style="color:inherit"
     xlink:href="textedit://C:/Users/Javier/Documents/lilypond%20scores/shifting.ly:105:27:28"
     id="a2872"
     transform="translate(-5.6906,-96.400001)">
    <g
       transform="translate(77.5112,104.1273)"
       id="g2870">
      <path
         transform="scale(0.0044,-0.0044)"
         d="m 220,135 c 54,0 106,-27 106,-87 0,-71 -56,-120 -103,-148 -36,-21 -76,-35 -117,-35 -54,0 -106,27 -106,87 0,71 56,120 103,148 36,21 76,35 117,35 z"
         fill="currentColor"
         id="path2868" />
    </g>
  </a>
  <a
     style="color:inherit"
     xlink:href="textedit://C:/Users/Javier/Documents/lilypond%20scores/shifting.ly:105:25:26"
     id="a2878"
     transform="translate(-5.6906,-96.400001)">
    <g
       transform="translate(77.5112,105.2273)"
       id="g2876">
      <path
         transform="scale(0.0044,-0.0044)"
         d="m 220,135 c 54,0 106,-27 106,-87 0,-71 -56,-120 -103,-148 -36,-21 -76,-35 -117,-35 -54,0 -106,27 -106,87 0,71 56,120 103,148 36,21 76,35 117,35 z"
         fill="currentColor"
         id="path2874" />
    </g>
  </a>
  <a
     style="color:inherit"
     xlink:href="textedit://C:/Users/Javier/Documents/lilypond%20scores/shifting.ly:106:20:21"
     id="a2884"
     transform="translate(-5.6906,-96.400001)">
    <g
       transform="translate(86.4564,102.4773)"
       id="g2882">
      <path
         transform="scale(0.0044,-0.0044)"
         d="m 220,135 c 54,0 106,-27 106,-87 0,-71 -56,-120 -103,-148 -36,-21 -76,-35 -117,-35 -54,0 -106,27 -106,87 0,71 56,120 103,148 36,21 76,35 117,35 z"
         fill="currentColor"
         id="path2880" />
    </g>
  </a>
  <g
     transform="translate(83.4688,7.7272993)"
     id="g2888">
    <rect
       x="-0.067199998"
       y="1.311"
       width="0.1345"
       height="3.6361001"
       ry="0.039999999"
       fill="currentColor"
       id="rect2886" />
  </g>
  <a
     style="color:inherit"
     xlink:href="textedit://C:/Users/Javier/Documents/lilypond%20scores/shifting.ly:106:27:28"
     id="a2894"
     transform="translate(-5.6906,-96.400001)">
    <g
       transform="translate(89.0921,105.2273)"
       id="g2892">
      <path
         transform="scale(0.0044,-0.0044)"
         d="m 220,135 c 54,0 106,-27 106,-87 0,-71 -56,-120 -103,-148 -36,-21 -76,-35 -117,-35 -54,0 -106,27 -106,87 0,71 56,120 103,148 36,21 76,35 117,35 z"
         fill="currentColor"
         id="path2890" />
    </g>
  </a>
  <a
     style="color:inherit"
     xlink:href="textedit://C:/Users/Javier/Documents/lilypond%20scores/shifting.ly:106:25:26"
     id="a2900"
     transform="translate(-5.6906,-96.400001)">
    <g
       transform="translate(89.0921,106.3273)"
       id="g2898">
      <path
         transform="scale(0.0044,-0.0044)"
         d="m 220,135 c 54,0 106,-27 106,-87 0,-71 -56,-120 -103,-148 -36,-21 -76,-35 -117,-35 -54,0 -106,27 -106,87 0,71 56,120 103,148 36,21 76,35 117,35 z"
         fill="currentColor"
         id="path2896" />
    </g>
  </a>
  <g
     transform="translate(80.8331,7.7272993)"
     id="g2904">
    <rect
       x="-0.067199998"
       y="-1.439"
       width="0.1345"
       height="6.2754002"
       ry="0.039999999"
       fill="currentColor"
       id="rect2902" />
  </g>
  <a
     style="color:inherit"
     xlink:href="textedit://C:/Users/Javier/Documents/lilypond%20scores/shifting.ly:106:18:19"
     id="a2910"
     transform="translate(-5.6906,-96.400001)">
    <g
       transform="translate(86.4564,105.2273)"
       id="g2908">
      <path
         transform="scale(0.0044,-0.0044)"
         d="m 220,135 c 54,0 106,-27 106,-87 0,-71 -56,-120 -103,-148 -36,-21 -76,-35 -117,-35 -54,0 -106,27 -106,87 0,71 56,120 103,148 36,21 76,35 117,35 z"
         fill="currentColor"
         id="path2906" />
    </g>
  </a>
  <g
     transform="translate(78.1974,7.7272993)"
     id="g2914">
    <rect
       x="-0.067199998"
       y="-1.989"
       width="0.1345"
       height="6.7147999"
       ry="0.039999999"
       fill="currentColor"
       id="rect2912" />
  </g>
  <a
     style="color:inherit"
     xlink:href="textedit://C:/Users/Javier/Documents/lilypond%20scores/shifting.ly:106:13:14"
     id="a2920"
     transform="translate(-5.6906,-96.400001)">
    <g
       transform="translate(83.8207,101.9273)"
       id="g2918">
      <path
         transform="scale(0.0044,-0.0044)"
         d="m 220,135 c 54,0 106,-27 106,-87 0,-71 -56,-120 -103,-148 -36,-21 -76,-35 -117,-35 -54,0 -106,27 -106,87 0,71 56,120 103,148 36,21 76,35 117,35 z"
         fill="currentColor"
         id="path2916" />
    </g>
  </a>
  <a
     style="color:inherit"
     xlink:href="textedit://C:/Users/Javier/Documents/lilypond%20scores/shifting.ly:106:11:12"
     id="a2926"
     transform="translate(-5.6906,-96.400001)">
    <g
       transform="translate(83.8207,104.6773)"
       id="g2924">
      <path
         transform="scale(0.0044,-0.0044)"
         d="m 220,135 c 54,0 106,-27 106,-87 0,-71 -56,-120 -103,-148 -36,-21 -76,-35 -117,-35 -54,0 -106,27 -106,87 0,71 56,120 103,148 36,21 76,35 117,35 z"
         fill="currentColor"
         id="path2922" />
    </g>
  </a>
  <a
     style="color:inherit"
     xlink:href="textedit://C:/Users/Javier/Documents/lilypond%20scores/shifting.ly:99:45:46"
     id="a2932"
     transform="translate(-5.6906,-96.400001)">
    <g
       transform="translate(22.4755,106.8773)"
       id="g2930">
      <path
         transform="scale(0.0044,-0.0044)"
         d="m 220,135 c 54,0 106,-27 106,-87 0,-71 -56,-120 -103,-148 -36,-21 -76,-35 -117,-35 -54,0 -106,27 -106,87 0,71 56,120 103,148 36,21 76,35 117,35 z"
         fill="currentColor"
         id="path2928" />
    </g>
  </a>
  <g
     transform="translate(18.1534,7.7272993)"
     id="g2936">
    <rect
       x="-0.067199998"
       y="-3.8499999"
       width="0.1345"
       height="6.3889999"
       ry="0.039999999"
       fill="currentColor"
       id="rect2934" />
  </g>
  <a
     style="color:inherit"
     xlink:href="textedit://C:/Users/Javier/Documents/lilypond%20scores/shifting.ly:99:48:49"
     id="a2942"
     transform="translate(-5.6906,-96.400001)">
    <g
       transform="translate(22.7666,99.4633)"
       id="g2940">
      <path
         transform="scale(0.0025,-0.0025)"
         d="m 155,472 c -33,0 -68,-8 -68,-36 0,-20 33,-24 33,-44 0,-29 -24,-53 -53,-53 -29,0 -53,24 -53,53 0,66 69,108 141,108 93,0 173,-31 173,-113 0,-41 -7,-78 -43,-95 -11,-5 -16,-16 -16,-26 0,-10 5,-21 16,-26 40,-19 59,-54 59,-99 C 344,47 261,0 159,0 78,0 0,44 0,118 c 0,34 27,61 61,61 34,0 60,-27 60,-61 0,-23 -37,-27 -37,-50 0,-31 39,-40 75,-40 47,0 57,59 57,113 v 35 c 0,42 -4,73 -44,73 H 97 c -12,0 -17,8 -17,17 0,9 5,17 17,17 h 75 c 41,0 44,33 44,77 v 27 c 0,51 -15,85 -61,85 z"
         fill="currentColor"
         id="path2938" />
    </g>
  </a>
  <a
     style="color:inherit"
     xlink:href="textedit://C:/Users/Javier/Documents/lilypond%20scores/shifting.ly:99:50:51"
     id="a2948"
     transform="translate(-5.6906,-96.400001)">
    <g
       transform="translate(22.7666,97.6842)"
       id="g2946">
      <path
         transform="scale(0.0025,-0.0025)"
         d="m 0,250 127,250 c 3,6 12,3 20,0 14,-6 28,-13 44,-13 16,0 30,7 44,13 1,1 4,1 5,1 8,0 15,-10 15,-21 V 127 c 0,-52 32,-99 80,-99 9,0 13,-7 13,-14 C 348,7 344,0 335,0 287,0 239,13 191,13 143,13 96,0 48,0 39,0 34,7 34,14 c 0,7 5,14 14,14 48,0 79,47 79,99 v 220 c 0,15 -10,22 -19,22 -5,0 -10,-1 -12,-6 L 31,234 c -3,-7 -9,-9 -15,-9 -9,0 -18,7 -18,17 0,3 1,5 2,8 z"
         fill="currentColor"
         id="path2944" />
    </g>
  </a>
  <a
     style="color:inherit"
     xlink:href="textedit://C:/Users/Javier/Documents/lilypond%20scores/shifting.ly:99:42:43"
     id="a2954"
     transform="translate(-5.6906,-96.400001)">
    <g
       transform="translate(22.4755,105.7773)"
       id="g2952">
      <path
         transform="scale(0.0044,-0.0044)"
         d="m 220,135 c 54,0 106,-27 106,-87 0,-71 -56,-120 -103,-148 -36,-21 -76,-35 -117,-35 -54,0 -106,27 -106,87 0,71 56,120 103,148 36,21 76,35 117,35 z"
         fill="currentColor"
         id="path2950" />
    </g>
  </a>
  <g
     transform="translate(22.2831,7.7272993)"
     id="g2958">
    <rect
       x="-0.067199998"
       y="-1.439"
       width="0.1345"
       height="6.2754002"
       ry="0.039999999"
       fill="currentColor"
       id="rect2956" />
  </g>
  <a
     style="color:inherit"
     xlink:href="textedit://C:/Users/Javier/Documents/lilypond%20scores/shifting.ly:100:22:23"
     id="a2964"
     transform="translate(-5.6906,-96.400001)">
    <g
       transform="translate(28.1975,101.1314)"
       id="g2962">
      <path
         transform="scale(0.0025,-0.0025)"
         d="m 0,250 127,250 c 3,6 12,3 20,0 14,-6 28,-13 44,-13 16,0 30,7 44,13 1,1 4,1 5,1 8,0 15,-10 15,-21 V 127 c 0,-52 32,-99 80,-99 9,0 13,-7 13,-14 C 348,7 344,0 335,0 287,0 239,13 191,13 143,13 96,0 48,0 39,0 34,7 34,14 c 0,7 5,14 14,14 48,0 79,47 79,99 v 220 c 0,15 -10,22 -19,22 -5,0 -10,-1 -12,-6 L 31,234 c -3,-7 -9,-9 -15,-9 -9,0 -18,7 -18,17 0,3 1,5 2,8 z"
         fill="currentColor"
         id="path2960" />
    </g>
  </a>
  <a
     style="color:inherit"
     xlink:href="textedit://C:/Users/Javier/Documents/lilypond%20scores/shifting.ly:100:24:25"
     id="a2970"
     transform="translate(-5.6906,-96.400001)">
    <g
       transform="translate(28.1633,99.3181)"
       id="g2968">
      <path
         transform="scale(0.0025,-0.0025)"
         d="m 125,147 h 10 c 35,0 73,-12 110,-39 19,-14 41,-22 60,-22 22,0 40,10 46,31 2,7 7,11 13,11 7,0 14,-6 14,-14 0,-1 -1,-3 -1,-4 C 358,40 295,0 233,0 195,0 159,15 133,47 121,62 104,69 88,69 59,69 31,48 28,13 27,4 21,0 14,0 7,0 0,5 0,14 c 0,174 233,163 233,341 0,57 -14,117 -63,117 -31,0 -61,-14 -61,-41 0,-25 32,-39 32,-64 0,-35 -28,-64 -63,-64 -35,0 -64,29 -64,64 0,78 74,133 156,133 98,0 191,-55 191,-145 C 361,210 223,198 125,147 Z"
         fill="currentColor"
         id="path2966" />
    </g>
  </a>
  <a
     style="color:inherit"
     xlink:href="textedit://C:/Users/Javier/Documents/lilypond%20scores/shifting.ly:100:18:19"
     id="a2976"
     transform="translate(-5.6906,-96.400001)">
    <g
       transform="translate(27.9064,102.4773)"
       id="g2974">
      <path
         transform="scale(0.0044,-0.0044)"
         d="m 220,135 c 54,0 106,-27 106,-87 0,-71 -56,-120 -103,-148 -36,-21 -76,-35 -117,-35 -54,0 -106,27 -106,87 0,71 56,120 103,148 36,21 76,35 117,35 z"
         fill="currentColor"
         id="path2972" />
    </g>
  </a>
  <a
     style="color:inherit"
     xlink:href="textedit://C:/Users/Javier/Documents/lilypond%20scores/shifting.ly:100:16:17"
     id="a2982"
     transform="translate(-5.6906,-96.400001)">
    <g
       transform="translate(27.9064,105.2273)"
       id="g2980">
      <path
         transform="scale(0.0044,-0.0044)"
         d="m 220,135 c 54,0 106,-27 106,-87 0,-71 -56,-120 -103,-148 -36,-21 -76,-35 -117,-35 -54,0 -106,27 -106,87 0,71 56,120 103,148 36,21 76,35 117,35 z"
         fill="currentColor"
         id="path2978" />
    </g>
  </a>
  <g
     transform="translate(15.5177,7.7272993)"
     id="g2986">
    <rect
       x="-0.067199998"
       y="-3.8499999"
       width="0.1345"
       height="5.289"
       ry="0.039999999"
       fill="currentColor"
       id="rect2984" />
  </g>
  <g
     transform="translate(19.6473,7.7272993)"
     id="g2990">
    <rect
       x="-0.067199998"
       y="1.311"
       width="0.1345"
       height="3.6361001"
       ry="0.039999999"
       fill="currentColor"
       id="rect2988" />
  </g>
  <a
     style="color:inherit"
     xlink:href="textedit://C:/Users/Javier/Documents/lilypond%20scores/shifting.ly:100:10:11"
     id="a2996"
     transform="translate(-5.6906,-96.400001)">
    <g
       transform="translate(25.5618,101.3256)"
       id="g2994">
      <path
         transform="scale(0.0025,-0.0025)"
         d="m 155,472 c -33,0 -68,-8 -68,-36 0,-20 33,-24 33,-44 0,-29 -24,-53 -53,-53 -29,0 -53,24 -53,53 0,66 69,108 141,108 93,0 173,-31 173,-113 0,-41 -7,-78 -43,-95 -11,-5 -16,-16 -16,-26 0,-10 5,-21 16,-26 40,-19 59,-54 59,-99 C 344,47 261,0 159,0 78,0 0,44 0,118 c 0,34 27,61 61,61 34,0 60,-27 60,-61 0,-23 -37,-27 -37,-50 0,-31 39,-40 75,-40 47,0 57,59 57,113 v 35 c 0,42 -4,73 -44,73 H 97 c -12,0 -17,8 -17,17 0,9 5,17 17,17 h 75 c 41,0 44,33 44,77 v 27 c 0,51 -15,85 -61,85 z"
         fill="currentColor"
         id="path2992" />
    </g>
  </a>
  <a
     style="color:inherit"
     xlink:href="textedit://C:/Users/Javier/Documents/lilypond%20scores/shifting.ly:100:12:13"
     id="a3002"
     transform="translate(-5.6906,-96.400001)">
    <g
       transform="translate(25.5618,99.5464)"
       id="g3000">
      <path
         transform="scale(0.0025,-0.0025)"
         d="m 0,250 127,250 c 3,6 12,3 20,0 14,-6 28,-13 44,-13 16,0 30,7 44,13 1,1 4,1 5,1 8,0 15,-10 15,-21 V 127 c 0,-52 32,-99 80,-99 9,0 13,-7 13,-14 C 348,7 344,0 335,0 287,0 239,13 191,13 143,13 96,0 48,0 39,0 34,7 34,14 c 0,7 5,14 14,14 48,0 79,47 79,99 v 220 c 0,15 -10,22 -19,22 -5,0 -10,-1 -12,-6 L 31,234 c -3,-7 -9,-9 -15,-9 -9,0 -18,7 -18,17 0,3 1,5 2,8 z"
         fill="currentColor"
         id="path2998" />
    </g>
  </a>
  <a
     style="color:inherit"
     xlink:href="textedit://C:/Users/Javier/Documents/lilypond%20scores/shifting.ly:100:7:8"
     id="a3008"
     transform="translate(-5.6906,-96.400001)">
    <g
       transform="translate(25.2707,105.2273)"
       id="g3006">
      <path
         transform="scale(0.0044,-0.0044)"
         d="m 220,135 c 54,0 106,-27 106,-87 0,-71 -56,-120 -103,-148 -36,-21 -76,-35 -117,-35 -54,0 -106,27 -106,87 0,71 56,120 103,148 36,21 76,35 117,35 z"
         fill="currentColor"
         id="path3004" />
    </g>
  </a>
  <a
     style="color:inherit"
     xlink:href="textedit://C:/Users/Javier/Documents/lilypond%20scores/shifting.ly:100:5:6"
     id="a3014"
     transform="translate(-5.6906,-96.400001)">
    <g
       transform="translate(25.2707,106.3273)"
       id="g3012">
      <path
         transform="scale(0.0044,-0.0044)"
         d="m 220,135 c 54,0 106,-27 106,-87 0,-71 -56,-120 -103,-148 -36,-21 -76,-35 -117,-35 -54,0 -106,27 -106,87 0,71 56,120 103,148 36,21 76,35 117,35 z"
         fill="currentColor"
         id="path3010" />
    </g>
  </a>
  <g
     transform="translate(10.2463,7.7272993)"
     id="g3018">
    <rect
       x="-0.067199998"
       y="-3.8499999"
       width="0.1345"
       height="6.9390001"
       ry="0.039999999"
       fill="currentColor"
       id="rect3016" />
  </g>
  <g
     transform="translate(5,7.7272993)"
     id="g3022">
    <path
       transform="scale(0.0044,-0.0044)"
       d="m 360,26 c -50,0 -76,43 -76,76 0,39 27,78 73,78 5,0 11,-1 16,-2 -29,37 -74,60 -123,60 -106,0 -113,-73 -113,-185 0,-17 1,-35 1,-53 0,-18 -1,-36 -1,-53 0,-112 7,-185 113,-185 81,0 142,69 161,151 1,6 6,9 11,9 6,0 12,-4 12,-11 0,-94 -106,-173 -184,-173 -68,0 -137,21 -184,70 C 17,-141 0,-70 0,0 c 0,70 17,141 66,192 47,49 116,70 184,70 87,0 162,-64 177,-150 1,-5 1,-9 1,-13 0,-40 -31,-73 -68,-73 z"
       fill="currentColor"
       id="path3020" />
  </g>
  <g
     transform="translate(0.80000003,8.8272993)"
     id="g3026">
    <path
       transform="scale(0.0044,-0.0044)"
       d="m 267,-593 -1,-41 h -5 c -108,0 -196,88 -196,196 0,58 54,104 113,104 54,0 95,-48 95,-104 0,-52 -43,-95 -95,-95 -11,0 -23,3 -34,8 26,-40 69,-68 119,-68 z m 108,854 c 5,0 9,1 14,1 155,0 255,-128 255,-260 0,-76 -33,-154 -107,-209 -22,-17 -47,-28 -73,-36 3,-35 5,-71 5,-107 0,-19 -1,-38 -2,-57 -7,-119 -87,-224 -201,-227 l 1,41 c 93,2 154,93 160,192 1,18 1,36 1,54 0,31 -1,63 -4,94 -29,-5 -58,-8 -89,-8 -188,0 -333,172 -333,373 0,177 132,307 249,441 -19,63 -35,125 -43,190 -6,51 -7,103 -7,155 0,116 56,226 150,294 5,4 13,3 18,-1 70,-84 132,-245 132,-358 0,-143 -86,-255 -181,-364 20,-69 38,-138 55,-208 z m 85,-465 c 69,24 115,96 115,165 0,91 -68,182 -176,192 25,-117 47,-233 61,-357 z M 73,30 c 0,-136 130,-250 265,-250 28,0 55,2 82,6 C 406,-87 382,32 356,152 277,143 232,90 232,32 c 0,-44 26,-91 82,-123 5,-4 6,-10 6,-15 0,-11 -9,-21 -21,-21 -3,0 -5,1 -8,2 -80,43 -117,114 -117,184 0,88 58,173 159,196 -14,59 -30,119 -46,177 C 180,311 73,190 73,30 Z m 358,885 c 0,57 -4,80 -21,132 -99,-49 -162,-150 -162,-260 0,-75 17,-135 35,-197 81,97 148,199 148,325 z"
       fill="currentColor"
       id="path3024" />
  </g>
  <a
     style="color:inherit"
     xlink:href="textedit://C:/Users/Javier/Documents/lilypond%20scores/shifting.ly:99:11:12"
     id="a3032"
     transform="translate(-5.6906,-96.400001)">
    <g
       transform="translate(14.8595,99.4633)"
       id="g3030">
      <path
         transform="scale(0.0025,-0.0025)"
         d="m 155,472 c -33,0 -68,-8 -68,-36 0,-20 33,-24 33,-44 0,-29 -24,-53 -53,-53 -29,0 -53,24 -53,53 0,66 69,108 141,108 93,0 173,-31 173,-113 0,-41 -7,-78 -43,-95 -11,-5 -16,-16 -16,-26 0,-10 5,-21 16,-26 40,-19 59,-54 59,-99 C 344,47 261,0 159,0 78,0 0,44 0,118 c 0,34 27,61 61,61 34,0 60,-27 60,-61 0,-23 -37,-27 -37,-50 0,-31 39,-40 75,-40 47,0 57,59 57,113 v 35 c 0,42 -4,73 -44,73 H 97 c -12,0 -17,8 -17,17 0,9 5,17 17,17 h 75 c 41,0 44,33 44,77 v 27 c 0,51 -15,85 -61,85 z"
         fill="currentColor"
         id="path3028" />
    </g>
  </a>
  <a
     style="color:inherit"
     xlink:href="textedit://C:/Users/Javier/Documents/lilypond%20scores/shifting.ly:99:13:14"
     id="a3038"
     transform="translate(-5.6906,-96.400001)">
    <g
       transform="translate(14.8595,97.6842)"
       id="g3036">
      <path
         transform="scale(0.0025,-0.0025)"
         d="m 0,250 127,250 c 3,6 12,3 20,0 14,-6 28,-13 44,-13 16,0 30,7 44,13 1,1 4,1 5,1 8,0 15,-10 15,-21 V 127 c 0,-52 32,-99 80,-99 9,0 13,-7 13,-14 C 348,7 344,0 335,0 287,0 239,13 191,13 143,13 96,0 48,0 39,0 34,7 34,14 c 0,7 5,14 14,14 48,0 79,47 79,99 v 220 c 0,15 -10,22 -19,22 -5,0 -10,-1 -12,-6 L 31,234 c -3,-7 -9,-9 -15,-9 -9,0 -18,7 -18,17 0,3 1,5 2,8 z"
         fill="currentColor"
         id="path3034" />
    </g>
  </a>
  <a
     style="color:inherit"
     xlink:href="textedit://C:/Users/Javier/Documents/lilypond%20scores/shifting.ly:99:7:8"
     id="a3044"
     transform="translate(-5.6906,-96.400001)">
    <g
       transform="translate(14.5684,106.3273)"
       id="g3042">
      <path
         transform="scale(0.0044,-0.0044)"
         d="m 220,135 c 54,0 106,-27 106,-87 0,-71 -56,-120 -103,-148 -36,-21 -76,-35 -117,-35 -54,0 -106,27 -106,87 0,71 56,120 103,148 36,21 76,35 117,35 z"
         fill="currentColor"
         id="path3040" />
    </g>
  </a>
  <a
     style="color:inherit"
     xlink:href="textedit://C:/Users/Javier/Documents/lilypond%20scores/shifting.ly:99:5:6"
     id="a3050"
     transform="translate(-5.6906,-96.400001)">
    <g
       transform="translate(14.5684,107.4273)"
       id="g3048">
      <path
         transform="scale(0.0044,-0.0044)"
         d="m 220,135 c 54,0 106,-27 106,-87 0,-71 -56,-120 -103,-148 -36,-21 -76,-35 -117,-35 -54,0 -106,27 -106,87 0,71 56,120 103,148 36,21 76,35 117,35 z"
         fill="currentColor"
         id="path3046" />
    </g>
  </a>
  <a
     style="color:inherit"
     xlink:href="textedit://C:/Users/Javier/Documents/lilypond%20scores/shifting.ly:99:36:37"
     id="a3056"
     transform="translate(-5.6906,-96.400001)">
    <g
       transform="translate(20.1309,99.4633)"
       id="g3054">
      <path
         transform="scale(0.0025,-0.0025)"
         d="m 0,250 127,250 c 3,6 12,3 20,0 14,-6 28,-13 44,-13 16,0 30,7 44,13 1,1 4,1 5,1 8,0 15,-10 15,-21 V 127 c 0,-52 32,-99 80,-99 9,0 13,-7 13,-14 C 348,7 344,0 335,0 287,0 239,13 191,13 143,13 96,0 48,0 39,0 34,7 34,14 c 0,7 5,14 14,14 48,0 79,47 79,99 v 220 c 0,15 -10,22 -19,22 -5,0 -10,-1 -12,-6 L 31,234 c -3,-7 -9,-9 -15,-9 -9,0 -18,7 -18,17 0,3 1,5 2,8 z"
         fill="currentColor"
         id="path3052" />
    </g>
  </a>
  <a
     style="color:inherit"
     xlink:href="textedit://C:/Users/Javier/Documents/lilypond%20scores/shifting.ly:99:38:39"
     id="a3062"
     transform="translate(-5.6906,-96.400001)">
    <g
       transform="translate(20.0968,97.65)"
       id="g3060">
      <path
         transform="scale(0.0025,-0.0025)"
         d="m 125,147 h 10 c 35,0 73,-12 110,-39 19,-14 41,-22 60,-22 22,0 40,10 46,31 2,7 7,11 13,11 7,0 14,-6 14,-14 0,-1 -1,-3 -1,-4 C 358,40 295,0 233,0 195,0 159,15 133,47 121,62 104,69 88,69 59,69 31,48 28,13 27,4 21,0 14,0 7,0 0,5 0,14 c 0,174 233,163 233,341 0,57 -14,117 -63,117 -31,0 -61,-14 -61,-41 0,-25 32,-39 32,-64 0,-35 -28,-64 -63,-64 -35,0 -64,29 -64,64 0,78 74,133 156,133 98,0 191,-55 191,-145 C 361,210 223,198 125,147 Z"
         fill="currentColor"
         id="path3058" />
    </g>
  </a>
  <a
     style="color:inherit"
     xlink:href="textedit://C:/Users/Javier/Documents/lilypond%20scores/shifting.ly:99:32:33"
     id="a3068"
     transform="translate(-5.6906,-96.400001)">
    <g
       transform="translate(19.8398,105.7773)"
       id="g3066">
      <path
         transform="scale(0.0044,-0.0044)"
         d="m 220,135 c 54,0 106,-27 106,-87 0,-71 -56,-120 -103,-148 -36,-21 -76,-35 -117,-35 -54,0 -106,27 -106,87 0,71 56,120 103,148 36,21 76,35 117,35 z"
         fill="currentColor"
         id="path3064" />
    </g>
  </a>
  <a
     style="color:inherit"
     xlink:href="textedit://C:/Users/Javier/Documents/lilypond%20scores/shifting.ly:99:29:30"
     id="a3074"
     transform="translate(-5.6906,-96.400001)">
    <g
       transform="translate(19.8398,103.0273)"
       id="g3072">
      <path
         transform="scale(0.0044,-0.0044)"
         d="m 220,135 c 54,0 106,-27 106,-87 0,-71 -56,-120 -103,-148 -36,-21 -76,-35 -117,-35 -54,0 -106,27 -106,87 0,71 56,120 103,148 36,21 76,35 117,35 z"
         fill="currentColor"
         id="path3070" />
    </g>
  </a>
  <g
     transform="translate(12.882,7.7272993)"
     id="g3078">
    <rect
       x="-0.067199998"
       y="-3.8499999"
       width="0.1345"
       height="5.8390002"
       ry="0.039999999"
       fill="currentColor"
       id="rect3076" />
  </g>
  <a
     style="color:inherit"
     xlink:href="textedit://C:/Users/Javier/Documents/lilypond%20scores/shifting.ly:99:23:24"
     id="a3084"
     transform="translate(-5.6906,-96.400001)">
    <g
       transform="translate(17.4952,99.4633)"
       id="g3082">
      <path
         transform="scale(0.0025,-0.0025)"
         d="m 0,250 127,250 c 3,6 12,3 20,0 14,-6 28,-13 44,-13 16,0 30,7 44,13 1,1 4,1 5,1 8,0 15,-10 15,-21 V 127 c 0,-52 32,-99 80,-99 9,0 13,-7 13,-14 C 348,7 344,0 335,0 287,0 239,13 191,13 143,13 96,0 48,0 39,0 34,7 34,14 c 0,7 5,14 14,14 48,0 79,47 79,99 v 220 c 0,15 -10,22 -19,22 -5,0 -10,-1 -12,-6 L 31,234 c -3,-7 -9,-9 -15,-9 -9,0 -18,7 -18,17 0,3 1,5 2,8 z"
         fill="currentColor"
         id="path3080" />
    </g>
  </a>
  <a
     style="color:inherit"
     xlink:href="textedit://C:/Users/Javier/Documents/lilypond%20scores/shifting.ly:99:25:26"
     id="a3090"
     transform="translate(-5.6906,-96.400001)">
    <g
       transform="translate(17.4611,97.65)"
       id="g3088">
      <path
         transform="scale(0.0025,-0.0025)"
         d="m 125,147 h 10 c 35,0 73,-12 110,-39 19,-14 41,-22 60,-22 22,0 40,10 46,31 2,7 7,11 13,11 7,0 14,-6 14,-14 0,-1 -1,-3 -1,-4 C 358,40 295,0 233,0 195,0 159,15 133,47 121,62 104,69 88,69 59,69 31,48 28,13 27,4 21,0 14,0 7,0 0,5 0,14 c 0,174 233,163 233,341 0,57 -14,117 -63,117 -31,0 -61,-14 -61,-41 0,-25 32,-39 32,-64 0,-35 -28,-64 -63,-64 -35,0 -64,29 -64,64 0,78 74,133 156,133 98,0 191,-55 191,-145 C 361,210 223,198 125,147 Z"
         fill="currentColor"
         id="path3086" />
    </g>
  </a>
  <a
     style="color:inherit"
     xlink:href="textedit://C:/Users/Javier/Documents/lilypond%20scores/shifting.ly:99:19:20"
     id="a3096"
     transform="translate(-5.6906,-96.400001)">
    <g
       transform="translate(17.2041,103.5773)"
       id="g3094">
      <path
         transform="scale(0.0044,-0.0044)"
         d="m 220,135 c 54,0 106,-27 106,-87 0,-71 -56,-120 -103,-148 -36,-21 -76,-35 -117,-35 -54,0 -106,27 -106,87 0,71 56,120 103,148 36,21 76,35 117,35 z"
         fill="currentColor"
         id="path3092" />
    </g>
  </a>
  <a
     style="color:inherit"
     xlink:href="textedit://C:/Users/Javier/Documents/lilypond%20scores/shifting.ly:99:17:18"
     id="a3102"
     transform="translate(-5.6906,-96.400001)">
    <g
       transform="translate(17.2041,106.3273)"
       id="g3100">
      <path
         transform="scale(0.0044,-0.0044)"
         d="m 220,135 c 54,0 106,-27 106,-87 0,-71 -56,-120 -103,-148 -36,-21 -76,-35 -117,-35 -54,0 -106,27 -106,87 0,71 56,120 103,148 36,21 76,35 117,35 z"
         fill="currentColor"
         id="path3098" />
    </g>
  </a>
  <g
     transform="translate(31.2955,7.7272993)"
     id="g3106">
    <rect
       x="-0.067199998"
       y="0.211"
       width="0.1345"
       height="3.6361001"
       ry="0.039999999"
       fill="currentColor"
       id="rect3104" />
  </g>
  <a
     style="color:inherit"
     xlink:href="textedit://C:/Users/Javier/Documents/lilypond%20scores/shifting.ly:101:7:8"
     id="a3112"
     transform="translate(-5.6906,-96.400001)">
    <g
       transform="translate(36.9188,104.1273)"
       id="g3110">
      <path
         transform="scale(0.0044,-0.0044)"
         d="m 220,135 c 54,0 106,-27 106,-87 0,-71 -56,-120 -103,-148 -36,-21 -76,-35 -117,-35 -54,0 -106,27 -106,87 0,71 56,120 103,148 36,21 76,35 117,35 z"
         fill="currentColor"
         id="path3108" />
    </g>
  </a>
  <a
     style="color:inherit"
     xlink:href="textedit://C:/Users/Javier/Documents/lilypond%20scores/shifting.ly:101:5:6"
     id="a3118"
     transform="translate(-5.6906,-96.400001)">
    <g
       transform="translate(36.9188,105.2273)"
       id="g3116">
      <path
         transform="scale(0.0044,-0.0044)"
         d="m 220,135 c 54,0 106,-27 106,-87 0,-71 -56,-120 -103,-148 -36,-21 -76,-35 -117,-35 -54,0 -106,27 -106,87 0,71 56,120 103,148 36,21 76,35 117,35 z"
         fill="currentColor"
         id="path3114" />
    </g>
  </a>
  <a
     style="color:inherit"
     xlink:href="textedit://C:/Users/Javier/Documents/lilypond%20scores/shifting.ly:101:22:23"
     id="a3124"
     transform="translate(-5.6906,-96.400001)">
    <g
       transform="translate(42.1903,100.8273)"
       id="g3122">
      <path
         transform="scale(0.0044,-0.0044)"
         d="m 220,135 c 54,0 106,-27 106,-87 0,-71 -56,-120 -103,-148 -36,-21 -76,-35 -117,-35 -54,0 -106,27 -106,87 0,71 56,120 103,148 36,21 76,35 117,35 z"
         fill="currentColor"
         id="path3120" />
    </g>
  </a>
  <g
     transform="translate(36.5669,7.7272993)"
     id="g3128">
    <rect
       x="-0.067199998"
       y="-3.089"
       width="0.1345"
       height="6.7147999"
       ry="0.039999999"
       fill="currentColor"
       id="rect3126" />
  </g>
  <g
     transform="translate(33.9312,7.7272993)"
     id="g3132">
    <rect
       x="-0.067199998"
       y="-2.539"
       width="0.1345"
       height="6.2754002"
       ry="0.039999999"
       fill="currentColor"
       id="rect3130" />
  </g>
  <a
     style="color:inherit"
     xlink:href="textedit://C:/Users/Javier/Documents/lilypond%20scores/shifting.ly:101:14:15"
     id="a3138"
     transform="translate(-5.6906,-96.400001)">
    <g
       transform="translate(39.5545,101.3773)"
       id="g3136">
      <path
         transform="scale(0.0044,-0.0044)"
         d="m 220,135 c 54,0 106,-27 106,-87 0,-71 -56,-120 -103,-148 -36,-21 -76,-35 -117,-35 -54,0 -106,27 -106,87 0,71 56,120 103,148 36,21 76,35 117,35 z"
         fill="currentColor"
         id="path3134" />
    </g>
  </a>
  <a
     style="color:inherit"
     xlink:href="textedit://C:/Users/Javier/Documents/lilypond%20scores/shifting.ly:101:12:13"
     id="a3144"
     transform="translate(-5.6906,-96.400001)">
    <g
       transform="translate(39.5545,104.1273)"
       id="g3142">
      <path
         transform="scale(0.0044,-0.0044)"
         d="m 220,135 c 54,0 106,-27 106,-87 0,-71 -56,-120 -103,-148 -36,-21 -76,-35 -117,-35 -54,0 -106,27 -106,87 0,71 56,120 103,148 36,21 76,35 117,35 z"
         fill="currentColor"
         id="path3140" />
    </g>
  </a>
  <a
     style="color:inherit"
     xlink:href="textedit://C:/Users/Javier/Documents/lilypond%20scores/shifting.ly:101:20:21"
     id="a3150"
     transform="translate(-5.6906,-96.400001)">
    <g
       transform="translate(42.1903,103.5773)"
       id="g3148">
      <path
         transform="scale(0.0044,-0.0044)"
         d="m 220,135 c 54,0 106,-27 106,-87 0,-71 -56,-120 -103,-148 -36,-21 -76,-35 -117,-35 -54,0 -106,27 -106,87 0,71 56,120 103,148 36,21 76,35 117,35 z"
         fill="currentColor"
         id="path3146" />
    </g>
  </a>
  <g
     transform="translate(39.2026,7.7272993)"
     id="g3154">
    <rect
       x="-0.067199998"
       y="-0.33899999"
       width="0.1345"
       height="3.8541"
       ry="0.039999999"
       fill="currentColor"
       id="rect3152" />
  </g>
  <g
     transform="translate(24.9188,7.7272993)"
     id="g3158">
    <rect
       x="-0.067199998"
       y="-1.989"
       width="0.1345"
       height="6.7147999"
       ry="0.039999999"
       fill="currentColor"
       id="rect3156" />
  </g>
  <a
     style="color:inherit"
     xlink:href="textedit://C:/Users/Javier/Documents/lilypond%20scores/shifting.ly:100:35:36"
     id="a3164"
     transform="translate(-5.6906,-96.400001)">
    <g
       transform="translate(30.8332,100.5814)"
       id="g3162">
      <path
         transform="scale(0.0025,-0.0025)"
         d="m 0,250 127,250 c 3,6 12,3 20,0 14,-6 28,-13 44,-13 16,0 30,7 44,13 1,1 4,1 5,1 8,0 15,-10 15,-21 V 127 c 0,-52 32,-99 80,-99 9,0 13,-7 13,-14 C 348,7 344,0 335,0 287,0 239,13 191,13 143,13 96,0 48,0 39,0 34,7 34,14 c 0,7 5,14 14,14 48,0 79,47 79,99 v 220 c 0,15 -10,22 -19,22 -5,0 -10,-1 -12,-6 L 31,234 c -3,-7 -9,-9 -15,-9 -9,0 -18,7 -18,17 0,3 1,5 2,8 z"
         fill="currentColor"
         id="path3160" />
    </g>
  </a>
  <a
     style="color:inherit"
     xlink:href="textedit://C:/Users/Javier/Documents/lilypond%20scores/shifting.ly:100:37:38"
     id="a3170"
     transform="translate(-5.6906,-96.400001)">
    <g
       transform="translate(30.799,98.7681)"
       id="g3168">
      <path
         transform="scale(0.0025,-0.0025)"
         d="m 125,147 h 10 c 35,0 73,-12 110,-39 19,-14 41,-22 60,-22 22,0 40,10 46,31 2,7 7,11 13,11 7,0 14,-6 14,-14 0,-1 -1,-3 -1,-4 C 358,40 295,0 233,0 195,0 159,15 133,47 121,62 104,69 88,69 59,69 31,48 28,13 27,4 21,0 14,0 7,0 0,5 0,14 c 0,174 233,163 233,341 0,57 -14,117 -63,117 -31,0 -61,-14 -61,-41 0,-25 32,-39 32,-64 0,-35 -28,-64 -63,-64 -35,0 -64,29 -64,64 0,78 74,133 156,133 98,0 191,-55 191,-145 C 361,210 223,198 125,147 Z"
         fill="currentColor"
         id="path3166" />
    </g>
  </a>
  <a
     style="color:inherit"
     xlink:href="textedit://C:/Users/Javier/Documents/lilypond%20scores/shifting.ly:100:31:32"
     id="a3176"
     transform="translate(-5.6906,-96.400001)">
    <g
       transform="translate(30.5421,104.6773)"
       id="g3174">
      <path
         transform="scale(0.0044,-0.0044)"
         d="m 220,135 c 54,0 106,-27 106,-87 0,-71 -56,-120 -103,-148 -36,-21 -76,-35 -117,-35 -54,0 -106,27 -106,87 0,71 56,120 103,148 36,21 76,35 117,35 z"
         fill="currentColor"
         id="path3172" />
    </g>
  </a>
  <a
     style="color:inherit"
     xlink:href="textedit://C:/Users/Javier/Documents/lilypond%20scores/shifting.ly:100:28:29"
     id="a3182"
     transform="translate(-5.6906,-96.400001)">
    <g
       transform="translate(30.5421,101.9273)"
       id="g3180">
      <path
         transform="scale(0.0044,-0.0044)"
         d="m 220,135 c 54,0 106,-27 106,-87 0,-71 -56,-120 -103,-148 -36,-21 -76,-35 -117,-35 -54,0 -106,27 -106,87 0,71 56,120 103,148 36,21 76,35 117,35 z"
         fill="currentColor"
         id="path3178" />
    </g>
  </a>
  <g
     transform="translate(27.5545,7.7272993)"
     id="g3186">
    <rect
       x="-0.067199998"
       y="0.76099998"
       width="0.1345"
       height="3.8541"
       ry="0.039999999"
       fill="currentColor"
       id="rect3184" />
  </g>
  <a
     style="color:inherit"
     xlink:href="textedit://C:/Users/Javier/Documents/lilypond%20scores/shifting.ly:100:47:48"
     id="a3192"
     transform="translate(-5.6906,-96.400001)">
    <g
       transform="translate(33.4689,101.3256)"
       id="g3190">
      <path
         transform="scale(0.0025,-0.0025)"
         d="m 155,472 c -33,0 -68,-8 -68,-36 0,-20 33,-24 33,-44 0,-29 -24,-53 -53,-53 -29,0 -53,24 -53,53 0,66 69,108 141,108 93,0 173,-31 173,-113 0,-41 -7,-78 -43,-95 -11,-5 -16,-16 -16,-26 0,-10 5,-21 16,-26 40,-19 59,-54 59,-99 C 344,47 261,0 159,0 78,0 0,44 0,118 c 0,34 27,61 61,61 34,0 60,-27 60,-61 0,-23 -37,-27 -37,-50 0,-31 39,-40 75,-40 47,0 57,59 57,113 v 35 c 0,42 -4,73 -44,73 H 97 c -12,0 -17,8 -17,17 0,9 5,17 17,17 h 75 c 41,0 44,33 44,77 v 27 c 0,51 -15,85 -61,85 z"
         fill="currentColor"
         id="path3188" />
    </g>
  </a>
  <a
     style="color:inherit"
     xlink:href="textedit://C:/Users/Javier/Documents/lilypond%20scores/shifting.ly:100:49:50"
     id="a3198"
     transform="translate(-5.6906,-96.400001)">
    <g
       transform="translate(33.4689,99.5464)"
       id="g3196">
      <path
         transform="scale(0.0025,-0.0025)"
         d="m 0,250 127,250 c 3,6 12,3 20,0 14,-6 28,-13 44,-13 16,0 30,7 44,13 1,1 4,1 5,1 8,0 15,-10 15,-21 V 127 c 0,-52 32,-99 80,-99 9,0 13,-7 13,-14 C 348,7 344,0 335,0 287,0 239,13 191,13 143,13 96,0 48,0 39,0 34,7 34,14 c 0,7 5,14 14,14 48,0 79,47 79,99 v 220 c 0,15 -10,22 -19,22 -5,0 -10,-1 -12,-6 L 31,234 c -3,-7 -9,-9 -15,-9 -9,0 -18,7 -18,17 0,3 1,5 2,8 z"
         fill="currentColor"
         id="path3194" />
    </g>
  </a>
  <a
     style="color:inherit"
     xlink:href="textedit://C:/Users/Javier/Documents/lilypond%20scores/shifting.ly:100:44:45"
     id="a3204"
     transform="translate(-5.6906,-96.400001)">
    <g
       transform="translate(33.1778,105.7773)"
       id="g3202">
      <path
         transform="scale(0.0044,-0.0044)"
         d="m 220,135 c 54,0 106,-27 106,-87 0,-71 -56,-120 -103,-148 -36,-21 -76,-35 -117,-35 -54,0 -106,27 -106,87 0,71 56,120 103,148 36,21 76,35 117,35 z"
         fill="currentColor"
         id="path3200" />
    </g>
  </a>
  <a
     style="color:inherit"
     xlink:href="textedit://C:/Users/Javier/Documents/lilypond%20scores/shifting.ly:100:41:42"
     id="a3210"
     transform="translate(-5.6906,-96.400001)">
    <g
       transform="translate(33.1778,104.6773)"
       id="g3208">
      <path
         transform="scale(0.0044,-0.0044)"
         d="m 220,135 c 54,0 106,-27 106,-87 0,-71 -56,-120 -103,-148 -36,-21 -76,-35 -117,-35 -54,0 -106,27 -106,87 0,71 56,120 103,148 36,21 76,35 117,35 z"
         fill="currentColor"
         id="path3206" />
    </g>
  </a>
  <a
     style="color:inherit"
     xlink:href="textedit://C:/Users/Javier/Documents/lilypond%20scores/shifting.ly:101:28:29"
     id="a3216"
     transform="translate(-5.6906,-96.400001)">
    <g
       transform="translate(44.826,104.6773)"
       id="g3214">
      <path
         transform="scale(0.0044,-0.0044)"
         d="m 220,135 c 54,0 106,-27 106,-87 0,-71 -56,-120 -103,-148 -36,-21 -76,-35 -117,-35 -54,0 -106,27 -106,87 0,71 56,120 103,148 36,21 76,35 117,35 z"
         fill="currentColor"
         id="path3212" />
    </g>
  </a>
  <a
     style="color:inherit"
     xlink:href="textedit://C:/Users/Javier/Documents/lilypond%20scores/shifting.ly:101:30:31"
     id="a3222"
     transform="translate(-5.6906,-96.400001)">
    <g
       transform="translate(44.826,103.5773)"
       id="g3220">
      <path
         transform="scale(0.0044,-0.0044)"
         d="m 220,135 c 54,0 106,-27 106,-87 0,-71 -56,-120 -103,-148 -36,-21 -76,-35 -117,-35 -54,0 -106,27 -106,87 0,71 56,120 103,148 36,21 76,35 117,35 z"
         fill="currentColor"
         id="path3218" />
    </g>
  </a>
</svg>
