<svg
   version="1.2"
   width="190mm"
   height="32.266445mm"
   viewBox="0 0 108.1205 18.361389"
   id="svg4462"
   sodipodi:docname="shifting-1.svg"
   xmlns:inkscape="http://www.inkscape.org/namespaces/inkscape"
   xmlns:sodipodi="http://sodipodi.sourceforge.net/DTD/sodipodi-0.dtd"
   xmlns="http://www.w3.org/2000/svg"
   xmlns:svg="http://www.w3.org/2000/svg">
  <defs
     id="defs4466" />
  <sodipodi:namedview
     id="namedview4464"
     pagecolor="#ffffff"
     bordercolor="#000000"
     borderopacity="0.25"
     inkscape:showpageshadow="2"
     inkscape:pageopacity="0.0"
     inkscape:pagecheckerboard="0"
     inkscape:deskcolor="#d1d1d1"
     inkscape:document-units="mm"
     showgrid="false" />
  <style
     type="text/css"
     id="style2"><![CDATA[
tspan { white-space: pre; }
]]></style>
  <!-- Page: 1/3 -->
  <g
     transform="translate(3.1967416e-8,12.627596)"
     id="g3390">
    <line
       stroke-linejoin="round"
       stroke-linecap="round"
       stroke-width="0.1034"
       stroke="currentColor"
       x1="0.0517"
       y1="0"
       x2="108.0688"
       y2="0"
       id="line3388" />
  </g>
  <g
     transform="translate(3.1967416e-8,11.527596)"
     id="g3394">
    <line
       stroke-linejoin="round"
       stroke-linecap="round"
       stroke-width="0.1034"
       stroke="currentColor"
       x1="0.0517"
       y1="0"
       x2="108.0688"
       y2="0"
       id="line3392" />
  </g>
  <g
     transform="translate(3.1967416e-8,10.427596)"
     id="g3398">
    <line
       stroke-linejoin="round"
       stroke-linecap="round"
       stroke-width="0.1034"
       stroke="currentColor"
       x1="0.0517"
       y1="0"
       x2="108.0688"
       y2="0"
       id="line3396" />
  </g>
  <g
     transform="translate(3.1967416e-8,9.3275963)"
     id="g3402">
    <line
       stroke-linejoin="round"
       stroke-linecap="round"
       stroke-width="0.1034"
       stroke="currentColor"
       x1="0.0517"
       y1="0"
       x2="108.0688"
       y2="0"
       id="line3400" />
  </g>
  <g
     transform="translate(3.1967416e-8,8.2275963)"
     id="g3406">
    <line
       stroke-linejoin="round"
       stroke-linecap="round"
       stroke-width="0.1034"
       stroke="currentColor"
       x1="0.0517"
       y1="0"
       x2="108.0688"
       y2="0"
       id="line3404" />
  </g>
  <g
     transform="translate(3.1967416e-8,13.727596)"
     id="g3410">
    <rect
       x="104.3472"
       y="-0.1067"
       width="2.1536"
       height="0.21340001"
       ry="0.1067"
       fill="currentColor"
       id="rect3408" />
  </g>
  <g
     transform="translate(3.1967416e-8,6.0275963)"
     id="g3414">
    <rect
       x="100.6309"
       y="-0.1067"
       width="2.1036"
       height="0.21340001"
       ry="0.1067"
       fill="currentColor"
       id="rect3412" />
  </g>
  <g
     transform="translate(3.1967416e-8,7.1275963)"
     id="g3418">
    <rect
       x="100.6309"
       y="-0.1067"
       width="2.1036"
       height="0.21340001"
       ry="0.1067"
       fill="currentColor"
       id="rect3416" />
  </g>
  <g
     transform="translate(3.1967416e-8,6.0275963)"
     id="g3422">
    <rect
       x="98.427399"
       y="-0.1067"
       width="2.1036"
       height="0.21340001"
       ry="0.1067"
       fill="currentColor"
       id="rect3420" />
  </g>
  <g
     transform="translate(3.1967416e-8,7.1275963)"
     id="g3426">
    <rect
       x="98.427399"
       y="-0.1067"
       width="2.1036"
       height="0.21340001"
       ry="0.1067"
       fill="currentColor"
       id="rect3424" />
  </g>
  <g
     transform="translate(3.1967416e-8,4.9275963)"
     id="g3430">
    <rect
       x="89.061699"
       y="-0.1067"
       width="2.1036"
       height="0.21340001"
       ry="0.1067"
       fill="currentColor"
       id="rect3428" />
  </g>
  <g
     transform="translate(3.1967416e-8,6.0275963)"
     id="g3434">
    <rect
       x="89.061699"
       y="-0.1067"
       width="2.1036"
       height="0.21340001"
       ry="0.1067"
       fill="currentColor"
       id="rect3432" />
  </g>
  <g
     transform="translate(3.1967416e-8,7.1275963)"
     id="g3438">
    <rect
       x="89.061699"
       y="-0.1067"
       width="2.1036"
       height="0.21340001"
       ry="0.1067"
       fill="currentColor"
       id="rect3436" />
  </g>
  <g
     transform="translate(3.1967416e-8,4.9275963)"
     id="g3442">
    <rect
       x="86.8582"
       y="-0.1067"
       width="2.1036"
       height="0.21340001"
       ry="0.1067"
       fill="currentColor"
       id="rect3440" />
  </g>
  <g
     transform="translate(3.1967416e-8,6.0275963)"
     id="g3446">
    <rect
       x="86.8582"
       y="-0.1067"
       width="2.1036"
       height="0.21340001"
       ry="0.1067"
       fill="currentColor"
       id="rect3444" />
  </g>
  <g
     transform="translate(3.1967416e-8,7.1275963)"
     id="g3450">
    <rect
       x="86.8582"
       y="-0.1067"
       width="2.1036"
       height="0.21340001"
       ry="0.1067"
       fill="currentColor"
       id="rect3448" />
  </g>
  <g
     transform="translate(3.1967416e-8,3.8275963)"
     id="g3454">
    <rect
       x="76.736504"
       y="-0.1067"
       width="1.9683"
       height="0.21340001"
       ry="0.1067"
       fill="currentColor"
       id="rect3452" />
  </g>
  <g
     transform="translate(3.1967416e-8,4.9275963)"
     id="g3458">
    <rect
       x="76.736504"
       y="-0.1067"
       width="1.9683"
       height="0.21340001"
       ry="0.1067"
       fill="currentColor"
       id="rect3456" />
  </g>
  <g
     transform="translate(3.1967416e-8,6.0275963)"
     id="g3462">
    <rect
       x="76.736504"
       y="-0.1067"
       width="1.9683"
       height="0.21340001"
       ry="0.1067"
       fill="currentColor"
       id="rect3460" />
  </g>
  <g
     transform="translate(3.1967416e-8,7.1275963)"
     id="g3466">
    <rect
       x="76.736504"
       y="-0.1067"
       width="1.9683"
       height="0.21340001"
       ry="0.1067"
       fill="currentColor"
       id="rect3464" />
  </g>
  <g
     transform="translate(3.1967416e-8,3.8275963)"
     id="g3470">
    <rect
       x="74.583"
       y="-0.1067"
       width="2.0536001"
       height="0.21340001"
       ry="0.1067"
       fill="currentColor"
       id="rect3468" />
  </g>
  <g
     transform="translate(3.1967416e-8,4.9275963)"
     id="g3474">
    <rect
       x="74.583"
       y="-0.1067"
       width="2.0536001"
       height="0.21340001"
       ry="0.1067"
       fill="currentColor"
       id="rect3472" />
  </g>
  <g
     transform="translate(3.1967416e-8,6.0275963)"
     id="g3478">
    <rect
       x="74.583"
       y="-0.1067"
       width="2.0536001"
       height="0.21340001"
       ry="0.1067"
       fill="currentColor"
       id="rect3476" />
  </g>
  <g
     transform="translate(3.1967416e-8,7.1275963)"
     id="g3482">
    <rect
       x="74.583"
       y="-0.1067"
       width="2.0536001"
       height="0.21340001"
       ry="0.1067"
       fill="currentColor"
       id="rect3480" />
  </g>
  <g
     transform="translate(3.1967416e-8,7.1275963)"
     id="g3486">
    <rect
       x="72.379402"
       y="-0.1067"
       width="2.1036"
       height="0.21340001"
       ry="0.1067"
       fill="currentColor"
       id="rect3484" />
  </g>
  <g
     transform="translate(3.1967416e-8,7.1275963)"
     id="g3490">
    <rect
       x="66.779999"
       y="-0.1067"
       width="2.1036"
       height="0.21340001"
       ry="0.1067"
       fill="currentColor"
       id="rect3488" />
  </g>
  <g
     transform="translate(3.1967416e-8,2.7275963)"
     id="g3494">
    <rect
       x="64.626503"
       y="-0.1067"
       width="2.0536001"
       height="0.21340001"
       ry="0.1067"
       fill="currentColor"
       id="rect3492" />
  </g>
  <g
     transform="translate(3.1967416e-8,3.8275963)"
     id="g3498">
    <rect
       x="64.626503"
       y="-0.1067"
       width="2.0536001"
       height="0.21340001"
       ry="0.1067"
       fill="currentColor"
       id="rect3496" />
  </g>
  <g
     transform="translate(3.1967416e-8,4.9275963)"
     id="g3502">
    <rect
       x="64.626503"
       y="-0.1067"
       width="2.0536001"
       height="0.21340001"
       ry="0.1067"
       fill="currentColor"
       id="rect3500" />
  </g>
  <g
     transform="translate(3.1967416e-8,6.0275963)"
     id="g3506">
    <rect
       x="64.626503"
       y="-0.1067"
       width="2.0536001"
       height="0.21340001"
       ry="0.1067"
       fill="currentColor"
       id="rect3504" />
  </g>
  <g
     transform="translate(3.1967416e-8,7.1275963)"
     id="g3510">
    <rect
       x="64.626503"
       y="-0.1067"
       width="2.0536001"
       height="0.21340001"
       ry="0.1067"
       fill="currentColor"
       id="rect3508" />
  </g>
  <g
     transform="translate(3.1967416e-8,2.7275963)"
     id="g3514">
    <rect
       x="62.4729"
       y="-0.1067"
       width="2.0536001"
       height="0.21340001"
       ry="0.1067"
       fill="currentColor"
       id="rect3512" />
  </g>
  <g
     transform="translate(3.1967416e-8,3.8275963)"
     id="g3518">
    <rect
       x="62.4729"
       y="-0.1067"
       width="2.0536001"
       height="0.21340001"
       ry="0.1067"
       fill="currentColor"
       id="rect3516" />
  </g>
  <g
     transform="translate(3.1967416e-8,4.9275963)"
     id="g3522">
    <rect
       x="62.4729"
       y="-0.1067"
       width="2.0536001"
       height="0.21340001"
       ry="0.1067"
       fill="currentColor"
       id="rect3520" />
  </g>
  <g
     transform="translate(3.1967416e-8,6.0275963)"
     id="g3526">
    <rect
       x="62.4729"
       y="-0.1067"
       width="2.0536001"
       height="0.21340001"
       ry="0.1067"
       fill="currentColor"
       id="rect3524" />
  </g>
  <g
     transform="translate(3.1967416e-8,7.1275963)"
     id="g3530">
    <rect
       x="62.4729"
       y="-0.1067"
       width="2.0536001"
       height="0.21340001"
       ry="0.1067"
       fill="currentColor"
       id="rect3528" />
  </g>
  <g
     transform="translate(3.1967416e-8,6.0275963)"
     id="g3534">
    <rect
       x="60.269299"
       y="-0.1067"
       width="2.1036"
       height="0.21340001"
       ry="0.1067"
       fill="currentColor"
       id="rect3532" />
  </g>
  <g
     transform="translate(3.1967416e-8,7.1275963)"
     id="g3538">
    <rect
       x="60.269299"
       y="-0.1067"
       width="2.1036"
       height="0.21340001"
       ry="0.1067"
       fill="currentColor"
       id="rect3536" />
  </g>
  <g
     transform="translate(3.1967416e-8,6.0275963)"
     id="g3542">
    <rect
       x="53.806599"
       y="-0.1067"
       width="2.1036"
       height="0.21340001"
       ry="0.1067"
       fill="currentColor"
       id="rect3540" />
  </g>
  <g
     transform="translate(3.1967416e-8,7.1275963)"
     id="g3546">
    <rect
       x="53.806599"
       y="-0.1067"
       width="2.1036"
       height="0.21340001"
       ry="0.1067"
       fill="currentColor"
       id="rect3544" />
  </g>
  <g
     transform="translate(3.1967416e-8,2.7275963)"
     id="g3550">
    <rect
       x="51.653"
       y="-0.1067"
       width="2.0536001"
       height="0.21340001"
       ry="0.1067"
       fill="currentColor"
       id="rect3548" />
  </g>
  <g
     transform="translate(3.1967416e-8,3.8275963)"
     id="g3554">
    <rect
       x="51.653"
       y="-0.1067"
       width="2.0536001"
       height="0.21340001"
       ry="0.1067"
       fill="currentColor"
       id="rect3552" />
  </g>
  <g
     transform="translate(3.1967416e-8,4.9275963)"
     id="g3558">
    <rect
       x="51.653"
       y="-0.1067"
       width="2.0536001"
       height="0.21340001"
       ry="0.1067"
       fill="currentColor"
       id="rect3556" />
  </g>
  <g
     transform="translate(3.1967416e-8,6.0275963)"
     id="g3562">
    <rect
       x="51.653"
       y="-0.1067"
       width="2.0536001"
       height="0.21340001"
       ry="0.1067"
       fill="currentColor"
       id="rect3560" />
  </g>
  <g
     transform="translate(3.1967416e-8,7.1275963)"
     id="g3566">
    <rect
       x="51.653"
       y="-0.1067"
       width="2.0536001"
       height="0.21340001"
       ry="0.1067"
       fill="currentColor"
       id="rect3564" />
  </g>
  <g
     transform="translate(3.1967416e-8,2.7275963)"
     id="g3570">
    <rect
       x="49.499401"
       y="-0.1067"
       width="2.0536001"
       height="0.21340001"
       ry="0.1067"
       fill="currentColor"
       id="rect3568" />
  </g>
  <g
     transform="translate(3.1967416e-8,3.8275963)"
     id="g3574">
    <rect
       x="49.499401"
       y="-0.1067"
       width="2.0536001"
       height="0.21340001"
       ry="0.1067"
       fill="currentColor"
       id="rect3572" />
  </g>
  <g
     transform="translate(3.1967416e-8,4.9275963)"
     id="g3578">
    <rect
       x="49.499401"
       y="-0.1067"
       width="2.0536001"
       height="0.21340001"
       ry="0.1067"
       fill="currentColor"
       id="rect3576" />
  </g>
  <g
     transform="translate(3.1967416e-8,6.0275963)"
     id="g3582">
    <rect
       x="49.499401"
       y="-0.1067"
       width="2.0536001"
       height="0.21340001"
       ry="0.1067"
       fill="currentColor"
       id="rect3580" />
  </g>
  <g
     transform="translate(3.1967416e-8,7.1275963)"
     id="g3586">
    <rect
       x="49.499401"
       y="-0.1067"
       width="2.0536001"
       height="0.21340001"
       ry="0.1067"
       fill="currentColor"
       id="rect3584" />
  </g>
  <g
     transform="translate(3.1967416e-8,7.1275963)"
     id="g3590">
    <rect
       x="47.295898"
       y="-0.1067"
       width="2.1036"
       height="0.21340001"
       ry="0.1067"
       fill="currentColor"
       id="rect3588" />
  </g>
  <g
     transform="translate(3.1967416e-8,7.1275963)"
     id="g3594">
    <rect
       x="41.696499"
       y="-0.1067"
       width="2.1036"
       height="0.21340001"
       ry="0.1067"
       fill="currentColor"
       id="rect3592" />
  </g>
  <g
     transform="translate(3.1967416e-8,3.8275963)"
     id="g3598">
    <rect
       x="39.5429"
       y="-0.1067"
       width="2.0536001"
       height="0.21340001"
       ry="0.1067"
       fill="currentColor"
       id="rect3596" />
  </g>
  <g
     transform="translate(3.1967416e-8,4.9275963)"
     id="g3602">
    <rect
       x="39.5429"
       y="-0.1067"
       width="2.0536001"
       height="0.21340001"
       ry="0.1067"
       fill="currentColor"
       id="rect3600" />
  </g>
  <g
     transform="translate(3.1967416e-8,6.0275963)"
     id="g3606">
    <rect
       x="39.5429"
       y="-0.1067"
       width="2.0536001"
       height="0.21340001"
       ry="0.1067"
       fill="currentColor"
       id="rect3604" />
  </g>
  <g
     transform="translate(3.1967416e-8,7.1275963)"
     id="g3610">
    <rect
       x="39.5429"
       y="-0.1067"
       width="2.0536001"
       height="0.21340001"
       ry="0.1067"
       fill="currentColor"
       id="rect3608" />
  </g>
  <g
     transform="translate(3.1967416e-8,3.8275963)"
     id="g3614">
    <rect
       x="37.474602"
       y="-0.1067"
       width="1.9683"
       height="0.21340001"
       ry="0.1067"
       fill="currentColor"
       id="rect3612" />
  </g>
  <g
     transform="translate(3.1967416e-8,4.9275963)"
     id="g3618">
    <rect
       x="37.474602"
       y="-0.1067"
       width="1.9683"
       height="0.21340001"
       ry="0.1067"
       fill="currentColor"
       id="rect3616" />
  </g>
  <g
     transform="translate(3.1967416e-8,6.0275963)"
     id="g3622">
    <rect
       x="37.474602"
       y="-0.1067"
       width="1.9683"
       height="0.21340001"
       ry="0.1067"
       fill="currentColor"
       id="rect3620" />
  </g>
  <g
     transform="translate(3.1967416e-8,7.1275963)"
     id="g3626">
    <rect
       x="37.474602"
       y="-0.1067"
       width="1.9683"
       height="0.21340001"
       ry="0.1067"
       fill="currentColor"
       id="rect3624" />
  </g>
  <g
     transform="translate(3.1967416e-8,4.9275963)"
     id="g3630">
    <rect
       x="27.1506"
       y="-0.1067"
       width="2.1036"
       height="0.21340001"
       ry="0.1067"
       fill="currentColor"
       id="rect3628" />
  </g>
  <g
     transform="translate(3.1967416e-8,6.0275963)"
     id="g3634">
    <rect
       x="27.1506"
       y="-0.1067"
       width="2.1036"
       height="0.21340001"
       ry="0.1067"
       fill="currentColor"
       id="rect3632" />
  </g>
  <g
     transform="translate(3.1967416e-8,7.1275963)"
     id="g3638">
    <rect
       x="27.1506"
       y="-0.1067"
       width="2.1036"
       height="0.21340001"
       ry="0.1067"
       fill="currentColor"
       id="rect3636" />
  </g>
  <g
     transform="translate(3.1967416e-8,4.9275963)"
     id="g3642">
    <rect
       x="24.947001"
       y="-0.1067"
       width="2.1036"
       height="0.21340001"
       ry="0.1067"
       fill="currentColor"
       id="rect3640" />
  </g>
  <g
     transform="translate(3.1967416e-8,6.0275963)"
     id="g3646">
    <rect
       x="24.947001"
       y="-0.1067"
       width="2.1036"
       height="0.21340001"
       ry="0.1067"
       fill="currentColor"
       id="rect3644" />
  </g>
  <g
     transform="translate(3.1967416e-8,7.1275963)"
     id="g3650">
    <rect
       x="24.947001"
       y="-0.1067"
       width="2.1036"
       height="0.21340001"
       ry="0.1067"
       fill="currentColor"
       id="rect3648" />
  </g>
  <g
     transform="translate(3.1967416e-8,6.0275963)"
     id="g3654">
    <rect
       x="15.5814"
       y="-0.1067"
       width="2.1036"
       height="0.21340001"
       ry="0.1067"
       fill="currentColor"
       id="rect3652" />
  </g>
  <g
     transform="translate(3.1967416e-8,7.1275963)"
     id="g3658">
    <rect
       x="15.5814"
       y="-0.1067"
       width="2.1036"
       height="0.21340001"
       ry="0.1067"
       fill="currentColor"
       id="rect3656" />
  </g>
  <g
     transform="translate(3.1967416e-8,6.0275963)"
     id="g3662">
    <rect
       x="13.3778"
       y="-0.1067"
       width="2.1036"
       height="0.21340001"
       ry="0.1067"
       fill="currentColor"
       id="rect3660" />
  </g>
  <g
     transform="translate(3.1967416e-8,7.1275963)"
     id="g3666">
    <rect
       x="13.3778"
       y="-0.1067"
       width="2.1036"
       height="0.21340001"
       ry="0.1067"
       fill="currentColor"
       id="rect3664" />
  </g>
  <g
     transform="translate(3.1967416e-8,13.727596)"
     id="g3670">
    <rect
       x="9.6114998"
       y="-0.1067"
       width="2.1536"
       height="0.21340001"
       ry="0.1067"
       fill="currentColor"
       id="rect3668" />
  </g>
  <g
     transform="translate(57.7343,10.427596)"
     id="g3674">
    <rect
       x="0"
       y="-2.2"
       width="0.1965"
       height="4.4000001"
       ry="0.0000"
       fill="currentColor"
       id="rect3672" />
  </g>
  <g
     transform="translate(107.9239,10.427596)"
     id="g3678">
    <rect
       x="0"
       y="-2.2"
       width="0.1965"
       height="4.4000001"
       ry="0.0000"
       fill="currentColor"
       id="rect3676" />
  </g>
  <g
     transform="translate(33.0154,10.427596)"
     id="g3682">
    <rect
       x="0"
       y="-2.2"
       width="0.1965"
       height="4.4000001"
       ry="0.0000"
       fill="currentColor"
       id="rect3680" />
  </g>
  <g
     transform="translate(82.5657,10.427596)"
     id="g3686">
    <rect
       x="0"
       y="-2.2"
       width="0.1965"
       height="4.4000001"
       ry="0.0000"
       fill="currentColor"
       id="rect3684" />
  </g>
  <g
     transform="translate(67.0889,9.3275963)"
     id="g3690">
    <path
       transform="scale(0.0044,-0.0044)"
       d="m 220,135 c 54,0 106,-27 106,-87 0,-71 -56,-120 -103,-148 -36,-21 -76,-35 -117,-35 -54,0 -106,27 -106,87 0,71 56,120 103,148 36,21 76,35 117,35 z"
       fill="currentColor"
       id="path3688" />
  </g>
  <g
     transform="translate(67.0889,6.5775963)"
     id="g3694">
    <path
       transform="scale(0.0044,-0.0044)"
       d="m 220,135 c 54,0 106,-27 106,-87 0,-71 -56,-120 -103,-148 -36,-21 -76,-35 -117,-35 -54,0 -106,27 -106,87 0,71 56,120 103,148 36,21 76,35 117,35 z"
       fill="currentColor"
       id="path3692" />
  </g>
  <g
     transform="translate(67.1561,10.427596)"
     id="g3698">
    <rect
       x="-0.067199998"
       y="-3.6389999"
       width="0.1345"
       height="5.8965001"
       ry="0.039999999"
       fill="currentColor"
       id="rect3696" />
  </g>
  <g
     transform="translate(68.972,10.427596)"
     id="g3702">
    <path
       transform="scale(0.0044,-0.0044)"
       d="m 220,135 c 54,0 106,-27 106,-87 0,-71 -56,-120 -103,-148 -36,-21 -76,-35 -117,-35 -54,0 -106,27 -106,87 0,71 56,120 103,148 36,21 76,35 117,35 z"
       fill="currentColor"
       id="path3700" />
  </g>
  <g
     transform="translate(68.972,9.3275963)"
     id="g3706">
    <path
       transform="scale(0.0044,-0.0044)"
       d="m 220,135 c 54,0 106,-27 106,-87 0,-71 -56,-120 -103,-148 -36,-21 -76,-35 -117,-35 -54,0 -106,27 -106,87 0,71 56,120 103,148 36,21 76,35 117,35 z"
       fill="currentColor"
       id="path3704" />
  </g>
  <g
     transform="translate(69.0393,10.427596)"
     id="g3710">
    <rect
       x="-0.067199998"
       y="-0.889"
       width="0.1345"
       height="3.9481001"
       ry="0.039999999"
       fill="currentColor"
       id="rect3708" />
  </g>
  <g
     transform="translate(65.0026,10.427596)"
     id="g3714">
    <rect
       x="-0.067199998"
       y="-7.4889998"
       width="0.1345"
       height="8.8298998"
       ry="0.039999999"
       fill="currentColor"
       id="rect3712" />
  </g>
  <g
     transform="translate(64.9353,2.7275963)"
     id="g3718">
    <path
       transform="scale(0.0044,-0.0044)"
       d="m 220,135 c 54,0 106,-27 106,-87 0,-71 -56,-120 -103,-148 -36,-21 -76,-35 -117,-35 -54,0 -106,27 -106,87 0,71 56,120 103,148 36,21 76,35 117,35 z"
       fill="currentColor"
       id="path3716" />
  </g>
  <g
     transform="translate(64.9353,6.5775963)"
     id="g3722">
    <path
       transform="scale(0.0044,-0.0044)"
       d="m 220,135 c 54,0 106,-27 106,-87 0,-71 -56,-120 -103,-148 -36,-21 -76,-35 -117,-35 -54,0 -106,27 -106,87 0,71 56,120 103,148 36,21 76,35 117,35 z"
       fill="currentColor"
       id="path3720" />
  </g>
  <g
     transform="translate(62.849,10.427596)"
     id="g3726">
    <rect
       x="-0.067199998"
       y="-8.0389996"
       width="0.1345"
       height="8.9511995"
       ry="0.039999999"
       fill="currentColor"
       id="rect3724" />
  </g>
  <g
     transform="translate(62.7818,2.1775963)"
     id="g3730">
    <path
       transform="scale(0.0044,-0.0044)"
       d="m 220,135 c 54,0 106,-27 106,-87 0,-71 -56,-120 -103,-148 -36,-21 -76,-35 -117,-35 -54,0 -106,27 -106,87 0,71 56,120 103,148 36,21 76,35 117,35 z"
       fill="currentColor"
       id="path3728" />
  </g>
  <g
     transform="translate(62.7818,6.0275963)"
     id="g3734">
    <path
       transform="scale(0.0044,-0.0044)"
       d="m 220,135 c 54,0 106,-27 106,-87 0,-71 -56,-120 -103,-148 -36,-21 -76,-35 -117,-35 -54,0 -106,27 -106,87 0,71 56,120 103,148 36,21 76,35 117,35 z"
       fill="currentColor"
       id="path3732" />
  </g>
  <g
     transform="translate(78.9285,10.427596)"
     id="g3738">
    <path
       transform="scale(0.0044,-0.0044)"
       d="m 220,135 c 54,0 106,-27 106,-87 0,-71 -56,-120 -103,-148 -36,-21 -76,-35 -117,-35 -54,0 -106,27 -106,87 0,71 56,120 103,148 36,21 76,35 117,35 z"
       fill="currentColor"
       id="path3736" />
  </g>
  <g
     transform="translate(74.8919,7.1275963)"
     id="g3742">
    <path
       transform="scale(0.0044,-0.0044)"
       d="m 220,135 c 54,0 106,-27 106,-87 0,-71 -56,-120 -103,-148 -36,-21 -76,-35 -117,-35 -54,0 -106,27 -106,87 0,71 56,120 103,148 36,21 76,35 117,35 z"
       fill="currentColor"
       id="path3740" />
  </g>
  <g
     transform="translate(45.7716,9.3275963)"
     id="g3746">
    <path
       transform="scale(0.0044,-0.0044)"
       d="m 220,135 c 54,0 106,-27 106,-87 0,-71 -56,-120 -103,-148 -36,-21 -76,-35 -117,-35 -54,0 -106,27 -106,87 0,71 56,120 103,148 36,21 76,35 117,35 z"
       fill="currentColor"
       id="path3744" />
  </g>
  <g
     transform="translate(77.1126,10.427596)"
     id="g3750">
    <rect
       x="-0.067199998"
       y="-6.3889999"
       width="0.1345"
       height="8.8318005"
       ry="0.039999999"
       fill="currentColor"
       id="rect3748" />
  </g>
  <g
     transform="translate(77.0454,3.8275963)"
     id="g3754">
    <path
       transform="scale(0.0044,-0.0044)"
       d="m 220,135 c 54,0 106,-27 106,-87 0,-71 -56,-120 -103,-148 -36,-21 -76,-35 -117,-35 -54,0 -106,27 -106,87 0,71 56,120 103,148 36,21 76,35 117,35 z"
       fill="currentColor"
       id="path3752" />
  </g>
  <g
     transform="translate(77.0454,7.6775963)"
     id="g3758">
    <path
       transform="scale(0.0044,-0.0044)"
       d="m 220,135 c 54,0 106,-27 106,-87 0,-71 -56,-120 -103,-148 -36,-21 -76,-35 -117,-35 -54,0 -106,27 -106,87 0,71 56,120 103,148 36,21 76,35 117,35 z"
       fill="currentColor"
       id="path3756" />
  </g>
  <g
     transform="translate(74.9591,10.427596)"
     id="g3762">
    <rect
       x="-0.067199998"
       y="-6.9390001"
       width="0.1345"
       height="8.9567003"
       ry="0.039999999"
       fill="currentColor"
       id="rect3760" />
  </g>
  <g
     transform="translate(74.8919,3.2775963)"
     id="g3766">
    <path
       transform="scale(0.0044,-0.0044)"
       d="m 220,135 c 54,0 106,-27 106,-87 0,-71 -56,-120 -103,-148 -36,-21 -76,-35 -117,-35 -54,0 -106,27 -106,87 0,71 56,120 103,148 36,21 76,35 117,35 z"
       fill="currentColor"
       id="path3764" />
  </g>
  <g
     transform="translate(72.8055,10.427596)"
     id="g3770">
    <rect
       x="-0.067199998"
       y="-3.089"
       width="0.1345"
       height="6.0682001"
       ry="0.039999999"
       fill="currentColor"
       id="rect3768" />
  </g>
  <g
     transform="translate(72.7383,7.1275963)"
     id="g3774">
    <path
       transform="scale(0.0044,-0.0044)"
       d="m 220,135 c 54,0 106,-27 106,-87 0,-71 -56,-120 -103,-148 -36,-21 -76,-35 -117,-35 -54,0 -106,27 -106,87 0,71 56,120 103,148 36,21 76,35 117,35 z"
       fill="currentColor"
       id="path3772" />
  </g>
  <g
     transform="translate(72.7383,9.8775963)"
     id="g3778">
    <path
       transform="scale(0.0044,-0.0044)"
       d="m 220,135 c 54,0 106,-27 106,-87 0,-71 -56,-120 -103,-148 -36,-21 -76,-35 -117,-35 -54,0 -106,27 -106,87 0,71 56,120 103,148 36,21 76,35 117,35 z"
       fill="currentColor"
       id="path3776" />
  </g>
  <g
     transform="translate(70.9224,10.427596)"
     id="g3782">
    <rect
       x="-0.067199998"
       y="-0.33899999"
       width="0.1345"
       height="4.1588998"
       ry="0.039999999"
       fill="currentColor"
       id="rect3780" />
  </g>
  <g
     transform="translate(70.8552,9.8775963)"
     id="g3786">
    <path
       transform="scale(0.0044,-0.0044)"
       d="m 220,135 c 54,0 106,-27 106,-87 0,-71 -56,-120 -103,-148 -36,-21 -76,-35 -117,-35 -54,0 -106,27 -106,87 0,71 56,120 103,148 36,21 76,35 117,35 z"
       fill="currentColor"
       id="path3784" />
  </g>
  <g
     transform="translate(70.8552,10.977596)"
     id="g3790">
    <path
       transform="scale(0.0044,-0.0044)"
       d="m 220,135 c 54,0 106,-27 106,-87 0,-71 -56,-120 -103,-148 -36,-21 -76,-35 -117,-35 -54,0 -106,27 -106,87 0,71 56,120 103,148 36,21 76,35 117,35 z"
       fill="currentColor"
       id="path3788" />
  </g>
  <g
     transform="translate(49.8083,2.7275963)"
     id="g3794">
    <path
       transform="scale(0.0044,-0.0044)"
       d="m 220,135 c 54,0 106,-27 106,-87 0,-71 -56,-120 -103,-148 -36,-21 -76,-35 -117,-35 -54,0 -106,27 -106,87 0,71 56,120 103,148 36,21 76,35 117,35 z"
       fill="currentColor"
       id="path3792" />
  </g>
  <g
     transform="translate(54.1827,10.427596)"
     id="g3798">
    <rect
       x="-0.067199998"
       y="-4.1890001"
       width="0.1345"
       height="5.8884001"
       ry="0.039999999"
       fill="currentColor"
       id="rect3796" />
  </g>
  <g
     transform="translate(54.1154,6.0275963)"
     id="g3802">
    <path
       transform="scale(0.0044,-0.0044)"
       d="m 220,135 c 54,0 106,-27 106,-87 0,-71 -56,-120 -103,-148 -36,-21 -76,-35 -117,-35 -54,0 -106,27 -106,87 0,71 56,120 103,148 36,21 76,35 117,35 z"
       fill="currentColor"
       id="path3800" />
  </g>
  <g
     transform="translate(54.1154,8.7775963)"
     id="g3806">
    <path
       transform="scale(0.0044,-0.0044)"
       d="m 220,135 c 54,0 106,-27 106,-87 0,-71 -56,-120 -103,-148 -36,-21 -76,-35 -117,-35 -54,0 -106,27 -106,87 0,71 56,120 103,148 36,21 76,35 117,35 z"
       fill="currentColor"
       id="path3804" />
  </g>
  <g
     transform="translate(52.0291,10.427596)"
     id="g3810">
    <rect
       x="-0.067199998"
       y="-8.0389996"
       width="0.1345"
       height="8.9511995"
       ry="0.039999999"
       fill="currentColor"
       id="rect3808" />
  </g>
  <g
     transform="translate(51.9619,2.1775963)"
     id="g3814">
    <path
       transform="scale(0.0044,-0.0044)"
       d="m 220,135 c 54,0 106,-27 106,-87 0,-71 -56,-120 -103,-148 -36,-21 -76,-35 -117,-35 -54,0 -106,27 -106,87 0,71 56,120 103,148 36,21 76,35 117,35 z"
       fill="currentColor"
       id="path3812" />
  </g>
  <g
     transform="translate(51.9619,6.0275963)"
     id="g3818">
    <path
       transform="scale(0.0044,-0.0044)"
       d="m 220,135 c 54,0 106,-27 106,-87 0,-71 -56,-120 -103,-148 -36,-21 -76,-35 -117,-35 -54,0 -106,27 -106,87 0,71 56,120 103,148 36,21 76,35 117,35 z"
       fill="currentColor"
       id="path3816" />
  </g>
  <g
     transform="translate(49.8755,10.427596)"
     id="g3822">
    <rect
       x="-0.067199998"
       y="-7.4889998"
       width="0.1345"
       height="8.8298998"
       ry="0.039999999"
       fill="currentColor"
       id="rect3820" />
  </g>
  <g
     transform="translate(49.8083,6.5775963)"
     id="g3826">
    <path
       transform="scale(0.0044,-0.0044)"
       d="m 220,135 c 54,0 106,-27 106,-87 0,-71 -56,-120 -103,-148 -36,-21 -76,-35 -117,-35 -54,0 -106,27 -106,87 0,71 56,120 103,148 36,21 76,35 117,35 z"
       fill="currentColor"
       id="path3824" />
  </g>
  <g
     transform="translate(47.722,10.427596)"
     id="g3830">
    <rect
       x="-0.067199998"
       y="-3.6389999"
       width="0.1345"
       height="5.8965001"
       ry="0.039999999"
       fill="currentColor"
       id="rect3828" />
  </g>
  <g
     transform="translate(47.6548,6.5775963)"
     id="g3834">
    <path
       transform="scale(0.0044,-0.0044)"
       d="m 220,135 c 54,0 106,-27 106,-87 0,-71 -56,-120 -103,-148 -36,-21 -76,-35 -117,-35 -54,0 -106,27 -106,87 0,71 56,120 103,148 36,21 76,35 117,35 z"
       fill="currentColor"
       id="path3832" />
  </g>
  <g
     transform="translate(47.6548,9.3275963)"
     id="g3838">
    <path
       transform="scale(0.0044,-0.0044)"
       d="m 220,135 c 54,0 106,-27 106,-87 0,-71 -56,-120 -103,-148 -36,-21 -76,-35 -117,-35 -54,0 -106,27 -106,87 0,71 56,120 103,148 36,21 76,35 117,35 z"
       fill="currentColor"
       id="path3836" />
  </g>
  <g
     transform="translate(45.8389,10.427596)"
     id="g3842">
    <rect
       x="-0.067199998"
       y="-0.889"
       width="0.1345"
       height="3.9481001"
       ry="0.039999999"
       fill="currentColor"
       id="rect3840" />
  </g>
  <g
     transform="translate(9.9704,10.427596)"
     id="g3846">
    <path
       stroke-width="0.0827"
       stroke-linejoin="round"
       stroke-linecap="round"
       stroke="currentColor"
       fill="currentColor"
       d="M 0.3602,-1.311 C 0.3441,-3.0537 2.3938,-5.3585 4.1265,-5.546 v 0 c -1.6399,0.27 -3.6896,2.5748 -3.7663,4.235 z"
       id="path3844" />
  </g>
  <g
     transform="translate(60.6954,10.427596)"
     id="g3850">
    <rect
       x="-0.067199998"
       y="-4.1890001"
       width="0.1345"
       height="5.8884001"
       ry="0.039999999"
       fill="currentColor"
       id="rect3848" />
  </g>
  <g
     transform="translate(60.6282,6.0275963)"
     id="g3854">
    <path
       transform="scale(0.0044,-0.0044)"
       d="m 220,135 c 54,0 106,-27 106,-87 0,-71 -56,-120 -103,-148 -36,-21 -76,-35 -117,-35 -54,0 -106,27 -106,87 0,71 56,120 103,148 36,21 76,35 117,35 z"
       fill="currentColor"
       id="path3852" />
  </g>
  <g
     transform="translate(60.6282,8.7775963)"
     id="g3858">
    <path
       transform="scale(0.0044,-0.0044)"
       d="m 220,135 c 54,0 106,-27 106,-87 0,-71 -56,-120 -103,-148 -36,-21 -76,-35 -117,-35 -54,0 -106,27 -106,87 0,71 56,120 103,148 36,21 76,35 117,35 z"
       fill="currentColor"
       id="path3856" />
  </g>
  <g
     transform="translate(58.8123,10.427596)"
     id="g3862">
    <rect
       x="-0.067199998"
       y="-1.439"
       width="0.1345"
       height="3.8267"
       ry="0.039999999"
       fill="currentColor"
       id="rect3860" />
  </g>
  <g
     transform="translate(58.7451,8.7775963)"
     id="g3866">
    <path
       transform="scale(0.0044,-0.0044)"
       d="m 220,135 c 54,0 106,-27 106,-87 0,-71 -56,-120 -103,-148 -36,-21 -76,-35 -117,-35 -54,0 -106,27 -106,87 0,71 56,120 103,148 36,21 76,35 117,35 z"
       fill="currentColor"
       id="path3864" />
  </g>
  <g
     transform="translate(58.7451,9.8775963)"
     id="g3870">
    <path
       transform="scale(0.0044,-0.0044)"
       d="m 220,135 c 54,0 106,-27 106,-87 0,-71 -56,-120 -103,-148 -36,-21 -76,-35 -117,-35 -54,0 -106,27 -106,87 0,71 56,120 103,148 36,21 76,35 117,35 z"
       fill="currentColor"
       id="path3868" />
  </g>
  <g
     transform="translate(56.0658,10.427596)"
     id="g3874">
    <rect
       x="-0.067199998"
       y="-1.439"
       width="0.1345"
       height="3.8267"
       ry="0.039999999"
       fill="currentColor"
       id="rect3872" />
  </g>
  <g
     transform="translate(55.9986,8.7775963)"
     id="g3878">
    <path
       transform="scale(0.0044,-0.0044)"
       d="m 220,135 c 54,0 106,-27 106,-87 0,-71 -56,-120 -103,-148 -36,-21 -76,-35 -117,-35 -54,0 -106,27 -106,87 0,71 56,120 103,148 36,21 76,35 117,35 z"
       fill="currentColor"
       id="path3876" />
  </g>
  <g
     transform="translate(55.9986,9.8775963)"
     id="g3882">
    <path
       transform="scale(0.0044,-0.0044)"
       d="m 220,135 c 54,0 106,-27 106,-87 0,-71 -56,-120 -103,-148 -36,-21 -76,-35 -117,-35 -54,0 -106,27 -106,87 0,71 56,120 103,148 36,21 76,35 117,35 z"
       fill="currentColor"
       id="path3880" />
  </g>
  <g
     transform="translate(96.9031,12.077596)"
     id="g3886">
    <path
       transform="scale(0.0044,-0.0044)"
       d="m 220,135 c 54,0 106,-27 106,-87 0,-71 -56,-120 -103,-148 -36,-21 -76,-35 -117,-35 -54,0 -106,27 -106,87 0,71 56,120 103,148 36,21 76,35 117,35 z"
       fill="currentColor"
       id="path3884" />
  </g>
  <g
     transform="translate(98.8535,10.427596)"
     id="g3890">
    <rect
       x="-0.067199998"
       y="-4.7389998"
       width="0.1345"
       height="8.2818003"
       ry="0.039999999"
       fill="currentColor"
       id="rect3888" />
  </g>
  <g
     transform="translate(98.7863,5.4775963)"
     id="g3894">
    <path
       transform="scale(0.0044,-0.0044)"
       d="m 220,135 c 54,0 106,-27 106,-87 0,-71 -56,-120 -103,-148 -36,-21 -76,-35 -117,-35 -54,0 -106,27 -106,87 0,71 56,120 103,148 36,21 76,35 117,35 z"
       fill="currentColor"
       id="path3892" />
  </g>
  <g
     transform="translate(98.7863,9.3275963)"
     id="g3898">
    <path
       transform="scale(0.0044,-0.0044)"
       d="m 220,135 c 54,0 106,-27 106,-87 0,-71 -56,-120 -103,-148 -36,-21 -76,-35 -117,-35 -54,0 -106,27 -106,87 0,71 56,120 103,148 36,21 76,35 117,35 z"
       fill="currentColor"
       id="path3896" />
  </g>
  <g
     transform="translate(96.9704,10.427596)"
     id="g3902">
    <rect
       x="-0.067199998"
       y="-0.889"
       width="0.1345"
       height="5.289"
       ry="0.039999999"
       fill="currentColor"
       id="rect3900" />
  </g>
  <g
     transform="translate(96.9031,9.3275963)"
     id="g3906">
    <path
       transform="scale(0.0044,-0.0044)"
       d="m 220,135 c 54,0 106,-27 106,-87 0,-71 -56,-120 -103,-148 -36,-21 -76,-35 -117,-35 -54,0 -106,27 -106,87 0,71 56,120 103,148 36,21 76,35 117,35 z"
       fill="currentColor"
       id="path3904" />
  </g>
  <g
     transform="translate(100.9398,9.8775963)"
     id="g3910">
    <path
       transform="scale(0.0044,-0.0044)"
       d="m 220,135 c 54,0 106,-27 106,-87 0,-71 -56,-120 -103,-148 -36,-21 -76,-35 -117,-35 -54,0 -106,27 -106,87 0,71 56,120 103,148 36,21 76,35 117,35 z"
       fill="currentColor"
       id="path3908" />
  </g>
  <g
     transform="translate(95.0872,10.427596)"
     id="g3914">
    <rect
       x="-0.067199998"
       y="1.8609999"
       width="0.1345"
       height="3.3961"
       ry="0.039999999"
       fill="currentColor"
       id="rect3912" />
  </g>
  <g
     transform="translate(95.02,13.177596)"
     id="g3918">
    <path
       transform="scale(0.0044,-0.0044)"
       d="m 220,135 c 54,0 106,-27 106,-87 0,-71 -56,-120 -103,-148 -36,-21 -76,-35 -117,-35 -54,0 -106,27 -106,87 0,71 56,120 103,148 36,21 76,35 117,35 z"
       fill="currentColor"
       id="path3916" />
  </g>
  <g
     transform="translate(95.02,12.077596)"
     id="g3922">
    <path
       transform="scale(0.0044,-0.0044)"
       d="m 220,135 c 54,0 106,-27 106,-87 0,-71 -56,-120 -103,-148 -36,-21 -76,-35 -117,-35 -54,0 -106,27 -106,87 0,71 56,120 103,148 36,21 76,35 117,35 z"
       fill="currentColor"
       id="path3920" />
  </g>
  <g
     transform="translate(104.7061,13.727596)"
     id="g3926">
    <path
       transform="scale(0.0044,-0.0044)"
       d="m 220,135 c 54,0 106,-27 106,-87 0,-71 -56,-120 -103,-148 -36,-21 -76,-35 -117,-35 -54,0 -106,27 -106,87 0,71 56,120 103,148 36,21 76,35 117,35 z"
       fill="currentColor"
       id="path3924" />
  </g>
  <g
     transform="translate(93.2041,10.427596)"
     id="g3930">
    <rect
       x="-0.067199998"
       y="1.311"
       width="0.1345"
       height="3.9461"
       ry="0.039999999"
       fill="currentColor"
       id="rect3928" />
  </g>
  <g
     transform="translate(93.1369,11.527596)"
     id="g3934">
    <path
       transform="scale(0.0044,-0.0044)"
       d="m 220,135 c 54,0 106,-27 106,-87 0,-71 -56,-120 -103,-148 -36,-21 -76,-35 -117,-35 -54,0 -106,27 -106,87 0,71 56,120 103,148 36,21 76,35 117,35 z"
       fill="currentColor"
       id="path3932" />
  </g>
  <g
     transform="translate(93.1369,12.627596)"
     id="g3938">
    <path
       transform="scale(0.0044,-0.0044)"
       d="m 220,135 c 54,0 106,-27 106,-87 0,-71 -56,-120 -103,-148 -36,-21 -76,-35 -117,-35 -54,0 -106,27 -106,87 0,71 56,120 103,148 36,21 76,35 117,35 z"
       fill="currentColor"
       id="path3936" />
  </g>
  <g
     transform="translate(83.4508,14.615296)"
     id="g3942">
    <polygon
       stroke-linejoin="round"
       stroke-linecap="round"
       stroke-width="0.08"
       fill="currentColor"
       stroke="currentColor"
       points="3.8607,-1.9994 3.8607,-1.5514 0.04,0.224 0.04,-0.224 "
       id="polygon3940" />
  </g>
  <g
     transform="translate(15.8902,10.427596)"
     id="g3946">
    <path
       stroke-width="0.0827"
       stroke-linejoin="round"
       stroke-linecap="round"
       stroke="currentColor"
       fill="currentColor"
       d="m 1.06,-6.096 c 1.6819,0.0971 3.7062,2.1663 3.7662,3.85 v 0 C 4.6775,-3.8429 2.6532,-5.9121 1.06,-6.096 Z"
       id="path3944" />
  </g>
  <g
     transform="translate(9.9704,16.477596)"
     id="g3950">
    <polygon
       stroke-linejoin="round"
       stroke-linecap="round"
       stroke-width="0.08"
       fill="currentColor"
       stroke="currentColor"
       points="3.8607,-2.0863 3.8607,-1.6383 0.04,0.224 0.04,-0.224 "
       id="polygon3948" />
  </g>
  <g
     transform="translate(21.5397,10.427596)"
     id="g3954">
    <path
       stroke-width="0.0827"
       stroke-linejoin="round"
       stroke-linecap="round"
       stroke="currentColor"
       fill="currentColor"
       d="M 0.3602,-2.411 C 0.3441,-4.1537 2.3938,-6.4585 4.1265,-6.646 v 0 c -1.6399,0.27 -3.6896,2.5748 -3.7663,4.235 z"
       id="path3952" />
  </g>
  <g
     transform="translate(15.8902,13.939896)"
     id="g3958">
    <polygon
       stroke-linejoin="round"
       stroke-linecap="round"
       stroke-width="0.08"
       fill="currentColor"
       stroke="currentColor"
       points="3.8607,1.5514 3.8607,1.9994 0.04,0.224 0.04,-0.224 "
       id="polygon3956" />
  </g>
  <g
     transform="translate(27.4595,10.427596)"
     id="g3962">
    <path
       stroke-width="0.0827"
       stroke-linejoin="round"
       stroke-linecap="round"
       stroke="currentColor"
       fill="currentColor"
       d="m 1.06,-7.196 c 1.6819,0.0971 3.7062,2.1663 3.7662,3.85 v 0 C 4.6775,-4.9429 2.6532,-7.0121 1.06,-7.196 Z"
       id="path3960" />
  </g>
  <g
     transform="translate(21.5397,15.715296)"
     id="g3966">
    <polygon
       stroke-linejoin="round"
       stroke-linecap="round"
       stroke-width="0.08"
       fill="currentColor"
       stroke="currentColor"
       points="3.8607,-1.9994 3.8607,-1.5514 0.04,0.224 0.04,-0.224 "
       id="polygon3964" />
  </g>
  <g
     transform="translate(27.4595,12.839896)"
     id="g3970">
    <polygon
       stroke-linejoin="round"
       stroke-linecap="round"
       stroke-width="0.08"
       fill="currentColor"
       stroke="currentColor"
       points="3.8607,1.5514 3.8607,1.9994 0.04,0.224 0.04,-0.224 "
       id="polygon3968" />
  </g>
  <g
     transform="translate(33.932,14.615296)"
     id="g3974">
    <polygon
       stroke-linejoin="round"
       stroke-linecap="round"
       stroke-width="0.08"
       fill="currentColor"
       stroke="currentColor"
       points="3.8607,-1.9994 3.8607,-1.5514 0.04,0.224 0.04,-0.224 "
       id="polygon3972" />
  </g>
  <g
     transform="translate(39.8518,12.415296)"
     id="g3978">
    <polygon
       stroke-linejoin="round"
       stroke-linecap="round"
       stroke-width="0.08"
       fill="currentColor"
       stroke="currentColor"
       points="4.1311,1.6383 4.1311,2.0863 0.04,0.224 0.04,-0.224 "
       id="polygon3976" />
  </g>
  <g
     transform="translate(45.7716,13.515296)"
     id="g3982">
    <polygon
       stroke-linejoin="round"
       stroke-linecap="round"
       stroke-width="0.08"
       fill="currentColor"
       stroke="currentColor"
       points="4.1311,-1.9994 4.1311,-1.5514 0.04,0.224 0.04,-0.224 "
       id="polygon3980" />
  </g>
  <g
     transform="translate(51.9619,11.315296)"
     id="g3986">
    <polygon
       stroke-linejoin="round"
       stroke-linecap="round"
       stroke-width="0.08"
       fill="currentColor"
       stroke="currentColor"
       points="4.1311,1.3006 4.1311,1.7486 0.04,0.224 0.04,-0.224 "
       id="polygon3984" />
  </g>
  <g
     transform="translate(58.7451,12.839896)"
     id="g3990">
    <polygon
       stroke-linejoin="round"
       stroke-linecap="round"
       stroke-width="0.08"
       fill="currentColor"
       stroke="currentColor"
       points="4.1311,-1.7486 4.1311,-1.3006 0.04,0.224 0.04,-0.224 "
       id="polygon3988" />
  </g>
  <g
     transform="translate(64.9353,11.739896)"
     id="g3994">
    <polygon
       stroke-linejoin="round"
       stroke-linecap="round"
       stroke-width="0.08"
       fill="currentColor"
       stroke="currentColor"
       points="4.1311,1.5514 4.1311,1.9994 0.04,0.224 0.04,-0.224 "
       id="polygon3992" />
  </g>
  <g
     transform="translate(70.8552,14.277596)"
     id="g3998">
    <polygon
       stroke-linejoin="round"
       stroke-linecap="round"
       stroke-width="0.08"
       fill="currentColor"
       stroke="currentColor"
       points="4.1311,-2.0863 4.1311,-1.6383 0.04,0.224 0.04,-0.224 "
       id="polygon3996" />
  </g>
  <g
     transform="translate(77.0454,12.839896)"
     id="g4002">
    <polygon
       stroke-linejoin="round"
       stroke-linecap="round"
       stroke-width="0.08"
       fill="currentColor"
       stroke="currentColor"
       points="3.8607,1.5514 3.8607,1.9994 0.04,0.224 0.04,-0.224 "
       id="polygon4000" />
  </g>
  <g
     transform="translate(104.7061,12.627596)"
     id="g4006">
    <path
       transform="scale(0.0044,-0.0044)"
       d="m 220,135 c 54,0 106,-27 106,-87 0,-71 -56,-120 -103,-148 -36,-21 -76,-35 -117,-35 -54,0 -106,27 -106,87 0,71 56,120 103,148 36,21 76,35 117,35 z"
       fill="currentColor"
       id="path4004" />
  </g>
  <g
     transform="translate(89.3706,13.939896)"
     id="g4010">
    <polygon
       stroke-linejoin="round"
       stroke-linecap="round"
       stroke-width="0.08"
       fill="currentColor"
       stroke="currentColor"
       points="3.8607,1.5514 3.8607,1.9994 0.04,0.224 0.04,-0.224 "
       id="polygon4008" />
  </g>
  <g
     transform="translate(95.02,15.715296)"
     id="g4014">
    <polygon
       stroke-linejoin="round"
       stroke-linecap="round"
       stroke-width="0.08"
       fill="currentColor"
       stroke="currentColor"
       points="3.8607,-1.9994 3.8607,-1.5514 0.04,0.224 0.04,-0.224 "
       id="polygon4012" />
  </g>
  <g
     transform="translate(100.9398,14.615296)"
     id="g4018">
    <polygon
       stroke-linejoin="round"
       stroke-linecap="round"
       stroke-width="0.08"
       fill="currentColor"
       stroke="currentColor"
       points="3.8607,1.6383 3.8607,2.0863 0.04,0.224 0.04,-0.224 "
       id="polygon4016" />
  </g>
  <g
     transform="translate(102.8902,10.427596)"
     id="g4022">
    <rect
       x="-0.067199998"
       y="-0.33899999"
       width="0.1345"
       height="5.4577999"
       ry="0.039999999"
       fill="currentColor"
       id="rect4020" />
  </g>
  <g
     transform="translate(102.823,9.8775963)"
     id="g4026">
    <path
       transform="scale(0.0044,-0.0044)"
       d="m 220,135 c 54,0 106,-27 106,-87 0,-71 -56,-120 -103,-148 -36,-21 -76,-35 -117,-35 -54,0 -106,27 -106,87 0,71 56,120 103,148 36,21 76,35 117,35 z"
       fill="currentColor"
       id="path4024" />
  </g>
  <g
     transform="translate(102.823,12.627596)"
     id="g4030">
    <path
       transform="scale(0.0044,-0.0044)"
       d="m 220,135 c 54,0 106,-27 106,-87 0,-71 -56,-120 -103,-148 -36,-21 -76,-35 -117,-35 -54,0 -106,27 -106,87 0,71 56,120 103,148 36,21 76,35 117,35 z"
       fill="currentColor"
       id="path4028" />
  </g>
  <g
     transform="translate(101.0071,10.427596)"
     id="g4034">
    <rect
       x="-0.067199998"
       y="-4.1890001"
       width="0.1345"
       height="8.4088001"
       ry="0.039999999"
       fill="currentColor"
       id="rect4032" />
  </g>
  <g
     transform="translate(100.9398,6.0275963)"
     id="g4038">
    <path
       transform="scale(0.0044,-0.0044)"
       d="m 220,135 c 54,0 106,-27 106,-87 0,-71 -56,-120 -103,-148 -36,-21 -76,-35 -117,-35 -54,0 -106,27 -106,87 0,71 56,120 103,148 36,21 76,35 117,35 z"
       fill="currentColor"
       id="path4036" />
  </g>
  <g
     transform="translate(83.4508,10.977596)"
     id="g4042">
    <path
       transform="scale(0.0044,-0.0044)"
       d="m 220,135 c 54,0 106,-27 106,-87 0,-71 -56,-120 -103,-148 -36,-21 -76,-35 -117,-35 -54,0 -106,27 -106,87 0,71 56,120 103,148 36,21 76,35 117,35 z"
       fill="currentColor"
       id="path4040" />
  </g>
  <g
     transform="translate(83.518,10.427596)"
     id="g4046">
    <rect
       x="-0.067199998"
       y="0.76099998"
       width="0.1345"
       height="3.3961"
       ry="0.039999999"
       fill="currentColor"
       id="rect4044" />
  </g>
  <g
     transform="translate(85.3339,10.977596)"
     id="g4050">
    <path
       transform="scale(0.0044,-0.0044)"
       d="m 220,135 c 54,0 106,-27 106,-87 0,-71 -56,-120 -103,-148 -36,-21 -76,-35 -117,-35 -54,0 -106,27 -106,87 0,71 56,120 103,148 36,21 76,35 117,35 z"
       fill="currentColor"
       id="path4048" />
  </g>
  <g
     transform="translate(83.4508,12.077596)"
     id="g4054">
    <path
       transform="scale(0.0044,-0.0044)"
       d="m 220,135 c 54,0 106,-27 106,-87 0,-71 -56,-120 -103,-148 -36,-21 -76,-35 -117,-35 -54,0 -106,27 -106,87 0,71 56,120 103,148 36,21 76,35 117,35 z"
       fill="currentColor"
       id="path4052" />
  </g>
  <g
     transform="translate(80.8789,10.427596)"
     id="g4058">
    <rect
       x="-0.067199998"
       y="0.211"
       width="0.1345"
       height="3.9461"
       ry="0.039999999"
       fill="currentColor"
       id="rect4056" />
  </g>
  <g
     transform="translate(80.8117,10.427596)"
     id="g4062">
    <path
       transform="scale(0.0044,-0.0044)"
       d="m 220,135 c 54,0 106,-27 106,-87 0,-71 -56,-120 -103,-148 -36,-21 -76,-35 -117,-35 -54,0 -106,27 -106,87 0,71 56,120 103,148 36,21 76,35 117,35 z"
       fill="currentColor"
       id="path4060" />
  </g>
  <g
     transform="translate(80.8117,11.527596)"
     id="g4066">
    <path
       transform="scale(0.0044,-0.0044)"
       d="m 220,135 c 54,0 106,-27 106,-87 0,-71 -56,-120 -103,-148 -36,-21 -76,-35 -117,-35 -54,0 -106,27 -106,87 0,71 56,120 103,148 36,21 76,35 117,35 z"
       fill="currentColor"
       id="path4064" />
  </g>
  <g
     transform="translate(78.9958,10.427596)"
     id="g4070">
    <rect
       x="-0.067199998"
       y="-2.539"
       width="0.1345"
       height="5.8390002"
       ry="0.039999999"
       fill="currentColor"
       id="rect4068" />
  </g>
  <g
     transform="translate(104.7733,10.427596)"
     id="g4074">
    <rect
       x="-0.067199998"
       y="2.411"
       width="0.1345"
       height="3.6069"
       ry="0.039999999"
       fill="currentColor"
       id="rect4072" />
  </g>
  <g
     transform="translate(91.321,10.427596)"
     id="g4078">
    <rect
       x="-0.067199998"
       y="-1.439"
       width="0.1345"
       height="5.8390002"
       ry="0.039999999"
       fill="currentColor"
       id="rect4076" />
  </g>
  <g
     transform="translate(91.2537,8.7775963)"
     id="g4082">
    <path
       transform="scale(0.0044,-0.0044)"
       d="m 220,135 c 54,0 106,-27 106,-87 0,-71 -56,-120 -103,-148 -36,-21 -76,-35 -117,-35 -54,0 -106,27 -106,87 0,71 56,120 103,148 36,21 76,35 117,35 z"
       fill="currentColor"
       id="path4080" />
  </g>
  <g
     transform="translate(91.2537,11.527596)"
     id="g4086">
    <path
       transform="scale(0.0044,-0.0044)"
       d="m 220,135 c 54,0 106,-27 106,-87 0,-71 -56,-120 -103,-148 -36,-21 -76,-35 -117,-35 -54,0 -106,27 -106,87 0,71 56,120 103,148 36,21 76,35 117,35 z"
       fill="currentColor"
       id="path4084" />
  </g>
  <g
     transform="translate(104.7061,18.328296)"
     id="g4092">
    <text
       font-family="serif"
       font-size="2.4202px"
       text-anchor="start"
       fill="currentColor"
       id="text4090"><tspan
         id="tspan4088">etc.</tspan></text>
  </g>
  <g
     transform="translate(89.4378,10.427596)"
     id="g4096">
    <rect
       x="-0.067199998"
       y="-5.289"
       width="0.1345"
       height="8.8318005"
       ry="0.039999999"
       fill="currentColor"
       id="rect4094" />
  </g>
  <g
     transform="translate(89.3706,4.9275963)"
     id="g4100">
    <path
       transform="scale(0.0044,-0.0044)"
       d="m 220,135 c 54,0 106,-27 106,-87 0,-71 -56,-120 -103,-148 -36,-21 -76,-35 -117,-35 -54,0 -106,27 -106,87 0,71 56,120 103,148 36,21 76,35 117,35 z"
       fill="currentColor"
       id="path4098" />
  </g>
  <g
     transform="translate(89.3706,8.7775963)"
     id="g4104">
    <path
       transform="scale(0.0044,-0.0044)"
       d="m 220,135 c 54,0 106,-27 106,-87 0,-71 -56,-120 -103,-148 -36,-21 -76,-35 -117,-35 -54,0 -106,27 -106,87 0,71 56,120 103,148 36,21 76,35 117,35 z"
       fill="currentColor"
       id="path4102" />
  </g>
  <g
     transform="translate(78.9285,7.6775963)"
     id="g4108">
    <path
       transform="scale(0.0044,-0.0044)"
       d="m 220,135 c 54,0 106,-27 106,-87 0,-71 -56,-120 -103,-148 -36,-21 -76,-35 -117,-35 -54,0 -106,27 -106,87 0,71 56,120 103,148 36,21 76,35 117,35 z"
       fill="currentColor"
       id="path4106" />
  </g>
  <g
     transform="translate(87.2843,10.427596)"
     id="g4112">
    <rect
       x="-0.067199998"
       y="-5.8390002"
       width="0.1345"
       height="8.2818003"
       ry="0.039999999"
       fill="currentColor"
       id="rect4110" />
  </g>
  <g
     transform="translate(87.217,4.3775963)"
     id="g4116">
    <path
       transform="scale(0.0044,-0.0044)"
       d="m 220,135 c 54,0 106,-27 106,-87 0,-71 -56,-120 -103,-148 -36,-21 -76,-35 -117,-35 -54,0 -106,27 -106,87 0,71 56,120 103,148 36,21 76,35 117,35 z"
       fill="currentColor"
       id="path4114" />
  </g>
  <g
     transform="translate(87.217,8.2275963)"
     id="g4120">
    <path
       transform="scale(0.0044,-0.0044)"
       d="m 220,135 c 54,0 106,-27 106,-87 0,-71 -56,-120 -103,-148 -36,-21 -76,-35 -117,-35 -54,0 -106,27 -106,87 0,71 56,120 103,148 36,21 76,35 117,35 z"
       fill="currentColor"
       id="path4118" />
  </g>
  <g
     transform="translate(85.4011,10.427596)"
     id="g4124">
    <rect
       x="-0.067199998"
       y="-1.989"
       width="0.1345"
       height="5.289"
       ry="0.039999999"
       fill="currentColor"
       id="rect4122" />
  </g>
  <g
     transform="translate(85.3339,8.2275963)"
     id="g4128">
    <path
       transform="scale(0.0044,-0.0044)"
       d="m 220,135 c 54,0 106,-27 106,-87 0,-71 -56,-120 -103,-148 -36,-21 -76,-35 -117,-35 -54,0 -106,27 -106,87 0,71 56,120 103,148 36,21 76,35 117,35 z"
       fill="currentColor"
       id="path4126" />
  </g>
  <g
     transform="translate(19.7237,10.427596)"
     id="g4132">
    <rect
       x="-0.067199998"
       y="1.8609999"
       width="0.1345"
       height="3.3961"
       ry="0.039999999"
       fill="currentColor"
       id="rect4130" />
  </g>
  <g
     transform="translate(19.9476,6.1294963)"
     id="g4136">
    <path
       transform="scale(0.0025,-0.0025)"
       d="m 155,472 c -33,0 -68,-8 -68,-36 0,-20 33,-24 33,-44 0,-29 -24,-53 -53,-53 -29,0 -53,24 -53,53 0,66 69,108 141,108 93,0 173,-31 173,-113 0,-41 -7,-78 -43,-95 -11,-5 -16,-16 -16,-26 0,-10 5,-21 16,-26 40,-19 59,-54 59,-99 C 344,47 261,0 159,0 78,0 0,44 0,118 c 0,34 27,61 61,61 34,0 60,-27 60,-61 0,-23 -37,-27 -37,-50 0,-31 39,-40 75,-40 47,0 57,59 57,113 v 35 c 0,42 -4,73 -44,73 H 97 c -12,0 -17,8 -17,17 0,9 5,17 17,17 h 75 c 41,0 44,33 44,77 v 27 c 0,51 -15,85 -61,85 z"
       fill="currentColor"
       id="path4134" />
  </g>
  <g
     transform="translate(19.9476,4.3502963)"
     id="g4140">
    <path
       transform="scale(0.0025,-0.0025)"
       d="m 0,250 127,250 c 3,6 12,3 20,0 14,-6 28,-13 44,-13 16,0 30,7 44,13 1,1 4,1 5,1 8,0 15,-10 15,-21 V 127 c 0,-52 32,-99 80,-99 9,0 13,-7 13,-14 C 348,7 344,0 335,0 287,0 239,13 191,13 143,13 96,0 48,0 39,0 34,7 34,14 c 0,7 5,14 14,14 48,0 79,47 79,99 v 220 c 0,15 -10,22 -19,22 -5,0 -10,-1 -12,-6 L 31,234 c -3,-7 -9,-9 -15,-9 -9,0 -18,7 -18,17 0,3 1,5 2,8 z"
       fill="currentColor"
       id="path4138" />
  </g>
  <g
     transform="translate(19.6565,13.177596)"
     id="g4144">
    <path
       transform="scale(0.0044,-0.0044)"
       d="m 220,135 c 54,0 106,-27 106,-87 0,-71 -56,-120 -103,-148 -36,-21 -76,-35 -117,-35 -54,0 -106,27 -106,87 0,71 56,120 103,148 36,21 76,35 117,35 z"
       fill="currentColor"
       id="path4142" />
  </g>
  <g
     transform="translate(19.6565,12.077596)"
     id="g4148">
    <path
       transform="scale(0.0044,-0.0044)"
       d="m 220,135 c 54,0 106,-27 106,-87 0,-71 -56,-120 -103,-148 -36,-21 -76,-35 -117,-35 -54,0 -106,27 -106,87 0,71 56,120 103,148 36,21 76,35 117,35 z"
       fill="currentColor"
       id="path4146" />
  </g>
  <g
     transform="translate(17.8406,10.427596)"
     id="g4152">
    <rect
       x="-0.067199998"
       y="-0.889"
       width="0.1345"
       height="5.289"
       ry="0.039999999"
       fill="currentColor"
       id="rect4150" />
  </g>
  <g
     transform="translate(18.0644,7.6258963)"
     id="g4156">
    <path
       transform="scale(0.0025,-0.0025)"
       d="m 0,250 127,250 c 3,6 12,3 20,0 14,-6 28,-13 44,-13 16,0 30,7 44,13 1,1 4,1 5,1 8,0 15,-10 15,-21 V 127 c 0,-52 32,-99 80,-99 9,0 13,-7 13,-14 C 348,7 344,0 335,0 287,0 239,13 191,13 143,13 96,0 48,0 39,0 34,7 34,14 c 0,7 5,14 14,14 48,0 79,47 79,99 v 220 c 0,15 -10,22 -19,22 -5,0 -10,-1 -12,-6 L 31,234 c -3,-7 -9,-9 -15,-9 -9,0 -18,7 -18,17 0,3 1,5 2,8 z"
       fill="currentColor"
       id="path4154" />
  </g>
  <g
     transform="translate(18.0303,4.4627963)"
     id="g4160">
    <path
       transform="scale(0.0025,-0.0025)"
       d="m 125,147 h 10 c 35,0 73,-12 110,-39 19,-14 41,-22 60,-22 22,0 40,10 46,31 2,7 7,11 13,11 7,0 14,-6 14,-14 0,-1 -1,-3 -1,-4 C 358,40 295,0 233,0 195,0 159,15 133,47 121,62 104,69 88,69 59,69 31,48 28,13 27,4 21,0 14,0 7,0 0,5 0,14 c 0,174 233,163 233,341 0,57 -14,117 -63,117 -31,0 -61,-14 -61,-41 0,-25 32,-39 32,-64 0,-35 -28,-64 -63,-64 -35,0 -64,29 -64,64 0,78 74,133 156,133 98,0 191,-55 191,-145 C 361,210 223,198 125,147 Z"
       fill="currentColor"
       id="path4158" />
  </g>
  <g
     transform="translate(17.7734,12.077596)"
     id="g4164">
    <path
       transform="scale(0.0044,-0.0044)"
       d="m 220,135 c 54,0 106,-27 106,-87 0,-71 -56,-120 -103,-148 -36,-21 -76,-35 -117,-35 -54,0 -106,27 -106,87 0,71 56,120 103,148 36,21 76,35 117,35 z"
       fill="currentColor"
       id="path4162" />
  </g>
  <g
     transform="translate(17.7734,9.3275963)"
     id="g4168">
    <path
       transform="scale(0.0044,-0.0044)"
       d="m 220,135 c 54,0 106,-27 106,-87 0,-71 -56,-120 -103,-148 -36,-21 -76,-35 -117,-35 -54,0 -106,27 -106,87 0,71 56,120 103,148 36,21 76,35 117,35 z"
       fill="currentColor"
       id="path4166" />
  </g>
  <g
     transform="translate(23.4228,8.7775963)"
     id="g4172">
    <path
       transform="scale(0.0044,-0.0044)"
       d="m 220,135 c 54,0 106,-27 106,-87 0,-71 -56,-120 -103,-148 -36,-21 -76,-35 -117,-35 -54,0 -106,27 -106,87 0,71 56,120 103,148 36,21 76,35 117,35 z"
       fill="currentColor"
       id="path4170" />
  </g>
  <g
     transform="translate(25.5116,1.8024963)"
     id="g4176">
    <path
       transform="scale(0.0025,-0.0025)"
       d="m 199,287 c 23,15 47,31 64,53 12,16 19,33 28,51 2,4 7,7 11,7 7,0 15,-6 15,-17 V 160 h 78 c 12,0 17,-9 17,-18 0,-9 -5,-17 -17,-17 h -78 c 1,-51 32,-97 79,-97 9,0 14,-7 14,-14 C 410,7 405,0 396,0 348,0 301,13 253,13 205,13 158,0 110,0 101,0 96,7 96,14 c 0,7 5,14 14,14 47,0 78,46 79,97 H 35 c -28,0 -37,16 -37,27 0,3 1,6 2,8 78,89 126,201 126,320 0,11 7,20 16,20 h 3 c 25,-7 50,-13 76,-13 26,0 51,6 76,13 2,1 4,1 6,1 10,0 16,-7 16,-14 0,-2 0,-5 -2,-7 L 35,160 h 154 v 101 c 0,10 2,21 10,26 z"
       fill="currentColor"
       id="path4174" />
  </g>
  <g
     transform="translate(25.3059,4.9275963)"
     id="g4180">
    <path
       transform="scale(0.0044,-0.0044)"
       d="m 220,135 c 54,0 106,-27 106,-87 0,-71 -56,-120 -103,-148 -36,-21 -76,-35 -117,-35 -54,0 -106,27 -106,87 0,71 56,120 103,148 36,21 76,35 117,35 z"
       fill="currentColor"
       id="path4178" />
  </g>
  <g
     transform="translate(25.3059,8.7775963)"
     id="g4184">
    <path
       transform="scale(0.0044,-0.0044)"
       d="m 220,135 c 54,0 106,-27 106,-87 0,-71 -56,-120 -103,-148 -36,-21 -76,-35 -117,-35 -54,0 -106,27 -106,87 0,71 56,120 103,148 36,21 76,35 117,35 z"
       fill="currentColor"
       id="path4182" />
  </g>
  <g
     transform="translate(45.7716,10.427596)"
     id="g4188">
    <path
       transform="scale(0.0044,-0.0044)"
       d="m 220,135 c 54,0 106,-27 106,-87 0,-71 -56,-120 -103,-148 -36,-21 -76,-35 -117,-35 -54,0 -106,27 -106,87 0,71 56,120 103,148 36,21 76,35 117,35 z"
       fill="currentColor"
       id="path4186" />
  </g>
  <g
     transform="translate(23.49,10.427596)"
     id="g4192">
    <rect
       x="-0.067199998"
       y="-1.439"
       width="0.1345"
       height="5.8390002"
       ry="0.039999999"
       fill="currentColor"
       id="rect4190" />
  </g>
  <g
     transform="translate(23.7138,7.6258963)"
     id="g4196">
    <path
       transform="scale(0.0025,-0.0025)"
       d="m 0,250 127,250 c 3,6 12,3 20,0 14,-6 28,-13 44,-13 16,0 30,7 44,13 1,1 4,1 5,1 8,0 15,-10 15,-21 V 127 c 0,-52 32,-99 80,-99 9,0 13,-7 13,-14 C 348,7 344,0 335,0 287,0 239,13 191,13 143,13 96,0 48,0 39,0 34,7 34,14 c 0,7 5,14 14,14 48,0 79,47 79,99 v 220 c 0,15 -10,22 -19,22 -5,0 -10,-1 -12,-6 L 31,234 c -3,-7 -9,-9 -15,-9 -9,0 -18,7 -18,17 0,3 1,5 2,8 z"
       fill="currentColor"
       id="path4194" />
  </g>
  <g
     transform="translate(23.6797,3.9621963)"
     id="g4200">
    <path
       transform="scale(0.0025,-0.0025)"
       d="m 125,147 h 10 c 35,0 73,-12 110,-39 19,-14 41,-22 60,-22 22,0 40,10 46,31 2,7 7,11 13,11 7,0 14,-6 14,-14 0,-1 -1,-3 -1,-4 C 358,40 295,0 233,0 195,0 159,15 133,47 121,62 104,69 88,69 59,69 31,48 28,13 27,4 21,0 14,0 7,0 0,5 0,14 c 0,174 233,163 233,341 0,57 -14,117 -63,117 -31,0 -61,-14 -61,-41 0,-25 32,-39 32,-64 0,-35 -28,-64 -63,-64 -35,0 -64,29 -64,64 0,78 74,133 156,133 98,0 191,-55 191,-145 C 361,210 223,198 125,147 Z"
       fill="currentColor"
       id="path4198" />
  </g>
  <g
     transform="translate(23.4228,11.527596)"
     id="g4204">
    <path
       transform="scale(0.0044,-0.0044)"
       d="m 220,135 c 54,0 106,-27 106,-87 0,-71 -56,-120 -103,-148 -36,-21 -76,-35 -117,-35 -54,0 -106,27 -106,87 0,71 56,120 103,148 36,21 76,35 117,35 z"
       fill="currentColor"
       id="path4202" />
  </g>
  <g
     transform="translate(21.6069,10.427596)"
     id="g4208">
    <rect
       x="-0.067199998"
       y="1.311"
       width="0.1345"
       height="3.9461"
       ry="0.039999999"
       fill="currentColor"
       id="rect4206" />
  </g>
  <g
     transform="translate(21.8307,5.7540963)"
     id="g4212">
    <path
       transform="scale(0.0025,-0.0025)"
       d="m 155,472 c -33,0 -68,-8 -68,-36 0,-20 33,-24 33,-44 0,-29 -24,-53 -53,-53 -29,0 -53,24 -53,53 0,66 69,108 141,108 93,0 173,-31 173,-113 0,-41 -7,-78 -43,-95 -11,-5 -16,-16 -16,-26 0,-10 5,-21 16,-26 40,-19 59,-54 59,-99 C 344,47 261,0 159,0 78,0 0,44 0,118 c 0,34 27,61 61,61 34,0 60,-27 60,-61 0,-23 -37,-27 -37,-50 0,-31 39,-40 75,-40 47,0 57,59 57,113 v 35 c 0,42 -4,73 -44,73 H 97 c -12,0 -17,8 -17,17 0,9 5,17 17,17 h 75 c 41,0 44,33 44,77 v 27 c 0,51 -15,85 -61,85 z"
       fill="currentColor"
       id="path4210" />
  </g>
  <g
     transform="translate(21.8307,3.9749963)"
     id="g4216">
    <path
       transform="scale(0.0025,-0.0025)"
       d="m 0,250 127,250 c 3,6 12,3 20,0 14,-6 28,-13 44,-13 16,0 30,7 44,13 1,1 4,1 5,1 8,0 15,-10 15,-21 V 127 c 0,-52 32,-99 80,-99 9,0 13,-7 13,-14 C 348,7 344,0 335,0 287,0 239,13 191,13 143,13 96,0 48,0 39,0 34,7 34,14 c 0,7 5,14 14,14 48,0 79,47 79,99 v 220 c 0,15 -10,22 -19,22 -5,0 -10,-1 -12,-6 L 31,234 c -3,-7 -9,-9 -15,-9 -9,0 -18,7 -18,17 0,3 1,5 2,8 z"
       fill="currentColor"
       id="path4214" />
  </g>
  <g
     transform="translate(21.5397,11.527596)"
     id="g4220">
    <path
       transform="scale(0.0044,-0.0044)"
       d="m 220,135 c 54,0 106,-27 106,-87 0,-71 -56,-120 -103,-148 -36,-21 -76,-35 -117,-35 -54,0 -106,27 -106,87 0,71 56,120 103,148 36,21 76,35 117,35 z"
       fill="currentColor"
       id="path4218" />
  </g>
  <g
     transform="translate(21.5397,12.627596)"
     id="g4224">
    <path
       transform="scale(0.0044,-0.0044)"
       d="m 220,135 c 54,0 106,-27 106,-87 0,-71 -56,-120 -103,-148 -36,-21 -76,-35 -117,-35 -54,0 -106,27 -106,87 0,71 56,120 103,148 36,21 76,35 117,35 z"
       fill="currentColor"
       id="path4222" />
  </g>
  <g
     transform="translate(11.9208,10.427596)"
     id="g4228">
    <rect
       x="-0.067199998"
       y="-0.33899999"
       width="0.1345"
       height="5.4577999"
       ry="0.039999999"
       fill="currentColor"
       id="rect4226" />
  </g>
  <g
     transform="translate(12.1446,7.6258963)"
     id="g4232">
    <path
       transform="scale(0.0025,-0.0025)"
       d="m 0,250 127,250 c 3,6 12,3 20,0 14,-6 28,-13 44,-13 16,0 30,7 44,13 1,1 4,1 5,1 8,0 15,-10 15,-21 V 127 c 0,-52 32,-99 80,-99 9,0 13,-7 13,-14 C 348,7 344,0 335,0 287,0 239,13 191,13 143,13 96,0 48,0 39,0 34,7 34,14 c 0,7 5,14 14,14 48,0 79,47 79,99 v 220 c 0,15 -10,22 -19,22 -5,0 -10,-1 -12,-6 L 31,234 c -3,-7 -9,-9 -15,-9 -9,0 -18,7 -18,17 0,3 1,5 2,8 z"
       fill="currentColor"
       id="path4230" />
  </g>
  <g
     transform="translate(12.1105,5.0621963)"
     id="g4236">
    <path
       transform="scale(0.0025,-0.0025)"
       d="m 125,147 h 10 c 35,0 73,-12 110,-39 19,-14 41,-22 60,-22 22,0 40,10 46,31 2,7 7,11 13,11 7,0 14,-6 14,-14 0,-1 -1,-3 -1,-4 C 358,40 295,0 233,0 195,0 159,15 133,47 121,62 104,69 88,69 59,69 31,48 28,13 27,4 21,0 14,0 7,0 0,5 0,14 c 0,174 233,163 233,341 0,57 -14,117 -63,117 -31,0 -61,-14 -61,-41 0,-25 32,-39 32,-64 0,-35 -28,-64 -63,-64 -35,0 -64,29 -64,64 0,78 74,133 156,133 98,0 191,-55 191,-145 C 361,210 223,198 125,147 Z"
       fill="currentColor"
       id="path4234" />
  </g>
  <g
     transform="translate(11.8536,9.8775963)"
     id="g4240">
    <path
       transform="scale(0.0044,-0.0044)"
       d="m 220,135 c 54,0 106,-27 106,-87 0,-71 -56,-120 -103,-148 -36,-21 -76,-35 -117,-35 -54,0 -106,27 -106,87 0,71 56,120 103,148 36,21 76,35 117,35 z"
       fill="currentColor"
       id="path4238" />
  </g>
  <g
     transform="translate(11.8536,12.627596)"
     id="g4244">
    <path
       transform="scale(0.0044,-0.0044)"
       d="m 220,135 c 54,0 106,-27 106,-87 0,-71 -56,-120 -103,-148 -36,-21 -76,-35 -117,-35 -54,0 -106,27 -106,87 0,71 56,120 103,148 36,21 76,35 117,35 z"
       fill="currentColor"
       id="path4242" />
  </g>
  <g
     transform="translate(10.0376,10.427596)"
     id="g4248">
    <rect
       x="-0.067199998"
       y="2.411"
       width="0.1345"
       height="3.6069"
       ry="0.039999999"
       fill="currentColor"
       id="rect4246" />
  </g>
  <g
     transform="translate(5,10.427596)"
     id="g4256">
    <g
       id="g4254">
      <path
         transform="scale(0.0044,-0.0044)"
         d="m 170,487 c 18,0 56,30 56,-3 V 113 c 0,-47 28,-91 71,-91 7,0 11,-5 11,-11 C 308,5 304,0 297,0 254,0 213,13 170,13 127,13 85,0 42,0 35,0 31,5 31,11 c 0,6 4,11 11,11 43,0 71,44 71,91 v 251 c 0,12 -8,18 -15,18 -4,0 -8,-2 -10,-6 L 25,238 c -3,-6 -7,-8 -12,-8 -7,0 -14,6 -14,14 0,2 0,4 1,6 l 113,250 c 2,5 10,3 16,0 13,-6 27,-13 41,-13 z"
         fill="currentColor"
         id="path4250" />
      <path
         transform="matrix(0.0044,0,0,-0.0044,1.3657,0)"
         d="m 96,131 c 10,2 20,4 31,4 33,0 68,-11 103,-35 22,-15 47,-24 68,-24 21,0 38,9 43,29 2,6 6,8 10,8 6,0 12,-4 12,-11 C 363,37 276,0 228,0 193,0 158,14 133,43 120,59 101,66 84,66 54,66 25,44 22,10 21,3 16,0 11,0 5,0 0,4 0,11 c 0,175 236,165 236,344 0,60 -21,123 -73,123 -25,0 -49,-14 -49,-37 0,-27 35,-41 35,-68 0,-38 -31,-69 -69,-69 -38,0 -69,31 -69,69 0,75 72,127 152,127 96,0 186,-56 186,-145 C 349,200 193,195 96,131 Z"
         fill="currentColor"
         id="path4252" />
    </g>
  </g>
  <g
     transform="translate(5.6828,12.646896)"
     id="g4260">
    <path
       transform="scale(0.0044,-0.0044)"
       d="m 256,287 c 28,30 51,62 51,102 0,55 -57,89 -118,89 -48,0 -76,-37 -76,-73 0,-21 9,-42 30,-54 z m 28,-17 C 339,238 368,192 368,143 368,70 303,0 181,0 88,0 0,53 0,139 c 0,51 39,85 77,120 -42,28 -63,69 -63,108 0,67 61,133 175,133 81,0 160,-39 160,-111 0,-47 -31,-85 -65,-119 z M 106,242 C 73,213 42,183 42,139 42,70 108,22 181,22 c 55,0 87,43 87,84 0,25 -11,50 -36,64 z"
       fill="currentColor"
       id="path4258" />
  </g>
  <g
     transform="translate(0.80000003,11.527596)"
     id="g4264">
    <path
       transform="scale(0.0044,-0.0044)"
       d="m 267,-593 -1,-41 h -5 c -108,0 -196,88 -196,196 0,58 54,104 113,104 54,0 95,-48 95,-104 0,-52 -43,-95 -95,-95 -11,0 -23,3 -34,8 26,-40 69,-68 119,-68 z m 108,854 c 5,0 9,1 14,1 155,0 255,-128 255,-260 0,-76 -33,-154 -107,-209 -22,-17 -47,-28 -73,-36 3,-35 5,-71 5,-107 0,-19 -1,-38 -2,-57 -7,-119 -87,-224 -201,-227 l 1,41 c 93,2 154,93 160,192 1,18 1,36 1,54 0,31 -1,63 -4,94 -29,-5 -58,-8 -89,-8 -188,0 -333,172 -333,373 0,177 132,307 249,441 -19,63 -35,125 -43,190 -6,51 -7,103 -7,155 0,116 56,226 150,294 5,4 13,3 18,-1 70,-84 132,-245 132,-358 0,-143 -86,-255 -181,-364 20,-69 38,-138 55,-208 z m 85,-465 c 69,24 115,96 115,165 0,91 -68,182 -176,192 25,-117 47,-233 61,-357 z M 73,30 c 0,-136 130,-250 265,-250 28,0 55,2 82,6 C 406,-87 382,32 356,152 277,143 232,90 232,32 c 0,-44 26,-91 82,-123 5,-4 6,-10 6,-15 0,-11 -9,-21 -21,-21 -3,0 -5,1 -8,2 -80,43 -117,114 -117,184 0,88 58,173 159,196 -14,59 -30,119 -46,177 C 180,311 73,190 73,30 Z m 358,885 c 0,57 -4,80 -21,132 -99,-49 -162,-150 -162,-260 0,-75 17,-135 35,-197 81,97 148,199 148,325 z"
       fill="currentColor"
       id="path4262" />
  </g>
  <g
     transform="translate(10.2615,6.8540963)"
     id="g4268">
    <path
       transform="scale(0.0025,-0.0025)"
       d="m 155,472 c -33,0 -68,-8 -68,-36 0,-20 33,-24 33,-44 0,-29 -24,-53 -53,-53 -29,0 -53,24 -53,53 0,66 69,108 141,108 93,0 173,-31 173,-113 0,-41 -7,-78 -43,-95 -11,-5 -16,-16 -16,-26 0,-10 5,-21 16,-26 40,-19 59,-54 59,-99 C 344,47 261,0 159,0 78,0 0,44 0,118 c 0,34 27,61 61,61 34,0 60,-27 60,-61 0,-23 -37,-27 -37,-50 0,-31 39,-40 75,-40 47,0 57,59 57,113 v 35 c 0,42 -4,73 -44,73 H 97 c -12,0 -17,8 -17,17 0,9 5,17 17,17 h 75 c 41,0 44,33 44,77 v 27 c 0,51 -15,85 -61,85 z"
       fill="currentColor"
       id="path4266" />
  </g>
  <g
     transform="translate(10.2615,5.0749963)"
     id="g4272">
    <path
       transform="scale(0.0025,-0.0025)"
       d="m 0,250 127,250 c 3,6 12,3 20,0 14,-6 28,-13 44,-13 16,0 30,7 44,13 1,1 4,1 5,1 8,0 15,-10 15,-21 V 127 c 0,-52 32,-99 80,-99 9,0 13,-7 13,-14 C 348,7 344,0 335,0 287,0 239,13 191,13 143,13 96,0 48,0 39,0 34,7 34,14 c 0,7 5,14 14,14 48,0 79,47 79,99 v 220 c 0,15 -10,22 -19,22 -5,0 -10,-1 -12,-6 L 31,234 c -3,-7 -9,-9 -15,-9 -9,0 -18,7 -18,17 0,3 1,5 2,8 z"
       fill="currentColor"
       id="path4270" />
  </g>
  <g
     transform="translate(9.9704,12.627596)"
     id="g4276">
    <path
       transform="scale(0.0044,-0.0044)"
       d="m 220,135 c 54,0 106,-27 106,-87 0,-71 -56,-120 -103,-148 -36,-21 -76,-35 -117,-35 -54,0 -106,27 -106,87 0,71 56,120 103,148 36,21 76,35 117,35 z"
       fill="currentColor"
       id="path4274" />
  </g>
  <g
     transform="translate(9.9704,13.727596)"
     id="g4280">
    <path
       transform="scale(0.0044,-0.0044)"
       d="m 220,135 c 54,0 106,-27 106,-87 0,-71 -56,-120 -103,-148 -36,-21 -76,-35 -117,-35 -54,0 -106,27 -106,87 0,71 56,120 103,148 36,21 76,35 117,35 z"
       fill="currentColor"
       id="path4278" />
  </g>
  <g
     transform="translate(15.9575,10.427596)"
     id="g4284">
    <rect
       x="-0.067199998"
       y="-4.7389998"
       width="0.1345"
       height="8.2818003"
       ry="0.039999999"
       fill="currentColor"
       id="rect4282" />
  </g>
  <g
     transform="translate(16.1472,4.1315963)"
     id="g4288">
    <path
       transform="scale(0.0025,-0.0025)"
       d="m 125,147 h 10 c 35,0 73,-12 110,-39 19,-14 41,-22 60,-22 22,0 40,10 46,31 2,7 7,11 13,11 7,0 14,-6 14,-14 0,-1 -1,-3 -1,-4 C 358,40 295,0 233,0 195,0 159,15 133,47 121,62 104,69 88,69 59,69 31,48 28,13 27,4 21,0 14,0 7,0 0,5 0,14 c 0,174 233,163 233,341 0,57 -14,117 -63,117 -31,0 -61,-14 -61,-41 0,-25 32,-39 32,-64 0,-35 -28,-64 -63,-64 -35,0 -64,29 -64,64 0,78 74,133 156,133 98,0 191,-55 191,-145 C 361,210 223,198 125,147 Z"
       fill="currentColor"
       id="path4286" />
  </g>
  <g
     transform="translate(16.0959,2.3524963)"
     id="g4292">
    <path
       transform="scale(0.0025,-0.0025)"
       d="m 199,287 c 23,15 47,31 64,53 12,16 19,33 28,51 2,4 7,7 11,7 7,0 15,-6 15,-17 V 160 h 78 c 12,0 17,-9 17,-18 0,-9 -5,-17 -17,-17 h -78 c 1,-51 32,-97 79,-97 9,0 14,-7 14,-14 C 410,7 405,0 396,0 348,0 301,13 253,13 205,13 158,0 110,0 101,0 96,7 96,14 c 0,7 5,14 14,14 47,0 78,46 79,97 H 35 c -28,0 -37,16 -37,27 0,3 1,6 2,8 78,89 126,201 126,320 0,11 7,20 16,20 h 3 c 25,-7 50,-13 76,-13 26,0 51,6 76,13 2,1 4,1 6,1 10,0 16,-7 16,-14 0,-2 0,-5 -2,-7 L 35,160 h 154 v 101 c 0,10 2,21 10,26 z"
       fill="currentColor"
       id="path4290" />
  </g>
  <g
     transform="translate(15.8902,5.4775963)"
     id="g4296">
    <path
       transform="scale(0.0044,-0.0044)"
       d="m 220,135 c 54,0 106,-27 106,-87 0,-71 -56,-120 -103,-148 -36,-21 -76,-35 -117,-35 -54,0 -106,27 -106,87 0,71 56,120 103,148 36,21 76,35 117,35 z"
       fill="currentColor"
       id="path4294" />
  </g>
  <g
     transform="translate(15.8902,9.3275963)"
     id="g4300">
    <path
       transform="scale(0.0044,-0.0044)"
       d="m 220,135 c 54,0 106,-27 106,-87 0,-71 -56,-120 -103,-148 -36,-21 -76,-35 -117,-35 -54,0 -106,27 -106,87 0,71 56,120 103,148 36,21 76,35 117,35 z"
       fill="currentColor"
       id="path4298" />
  </g>
  <g
     transform="translate(13.8039,10.427596)"
     id="g4304">
    <rect
       x="-0.067199998"
       y="-4.1890001"
       width="0.1345"
       height="8.4088001"
       ry="0.039999999"
       fill="currentColor"
       id="rect4302" />
  </g>
  <g
     transform="translate(13.9936,4.6815963)"
     id="g4308">
    <path
       transform="scale(0.0025,-0.0025)"
       d="m 125,147 h 10 c 35,0 73,-12 110,-39 19,-14 41,-22 60,-22 22,0 40,10 46,31 2,7 7,11 13,11 7,0 14,-6 14,-14 0,-1 -1,-3 -1,-4 C 358,40 295,0 233,0 195,0 159,15 133,47 121,62 104,69 88,69 59,69 31,48 28,13 27,4 21,0 14,0 7,0 0,5 0,14 c 0,174 233,163 233,341 0,57 -14,117 -63,117 -31,0 -61,-14 -61,-41 0,-25 32,-39 32,-64 0,-35 -28,-64 -63,-64 -35,0 -64,29 -64,64 0,78 74,133 156,133 98,0 191,-55 191,-145 C 361,210 223,198 125,147 Z"
       fill="currentColor"
       id="path4306" />
  </g>
  <g
     transform="translate(13.9424,2.9024963)"
     id="g4312">
    <path
       transform="scale(0.0025,-0.0025)"
       d="m 199,287 c 23,15 47,31 64,53 12,16 19,33 28,51 2,4 7,7 11,7 7,0 15,-6 15,-17 V 160 h 78 c 12,0 17,-9 17,-18 0,-9 -5,-17 -17,-17 h -78 c 1,-51 32,-97 79,-97 9,0 14,-7 14,-14 C 410,7 405,0 396,0 348,0 301,13 253,13 205,13 158,0 110,0 101,0 96,7 96,14 c 0,7 5,14 14,14 47,0 78,46 79,97 H 35 c -28,0 -37,16 -37,27 0,3 1,6 2,8 78,89 126,201 126,320 0,11 7,20 16,20 h 3 c 25,-7 50,-13 76,-13 26,0 51,6 76,13 2,1 4,1 6,1 10,0 16,-7 16,-14 0,-2 0,-5 -2,-7 L 35,160 h 154 v 101 c 0,10 2,21 10,26 z"
       fill="currentColor"
       id="path4310" />
  </g>
  <g
     transform="translate(13.7367,6.0275963)"
     id="g4316">
    <path
       transform="scale(0.0044,-0.0044)"
       d="m 220,135 c 54,0 106,-27 106,-87 0,-71 -56,-120 -103,-148 -36,-21 -76,-35 -117,-35 -54,0 -106,27 -106,87 0,71 56,120 103,148 36,21 76,35 117,35 z"
       fill="currentColor"
       id="path4314" />
  </g>
  <g
     transform="translate(13.7367,9.8775963)"
     id="g4320">
    <path
       transform="scale(0.0044,-0.0044)"
       d="m 220,135 c 54,0 106,-27 106,-87 0,-71 -56,-120 -103,-148 -36,-21 -76,-35 -117,-35 -54,0 -106,27 -106,87 0,71 56,120 103,148 36,21 76,35 117,35 z"
       fill="currentColor"
       id="path4318" />
  </g>
  <g
     transform="translate(33.9992,10.427596)"
     id="g4324">
    <rect
       x="-0.067199998"
       y="0.211"
       width="0.1345"
       height="3.9461"
       ry="0.039999999"
       fill="currentColor"
       id="rect4322" />
  </g>
  <g
     transform="translate(33.932,10.427596)"
     id="g4328">
    <path
       transform="scale(0.0044,-0.0044)"
       d="m 220,135 c 54,0 106,-27 106,-87 0,-71 -56,-120 -103,-148 -36,-21 -76,-35 -117,-35 -54,0 -106,27 -106,87 0,71 56,120 103,148 36,21 76,35 117,35 z"
       fill="currentColor"
       id="path4326" />
  </g>
  <g
     transform="translate(33.932,11.527596)"
     id="g4332">
    <path
       transform="scale(0.0044,-0.0044)"
       d="m 220,135 c 54,0 106,-27 106,-87 0,-71 -56,-120 -103,-148 -36,-21 -76,-35 -117,-35 -54,0 -106,27 -106,87 0,71 56,120 103,148 36,21 76,35 117,35 z"
       fill="currentColor"
       id="path4330" />
  </g>
  <g
     transform="translate(39.919,10.427596)"
     id="g4336">
    <rect
       x="-0.067199998"
       y="-6.9390001"
       width="0.1345"
       height="8.9567003"
       ry="0.039999999"
       fill="currentColor"
       id="rect4334" />
  </g>
  <g
     transform="translate(31.293,10.427596)"
     id="g4340">
    <rect
       x="-0.067199998"
       y="0.76099998"
       width="0.1345"
       height="3.3961"
       ry="0.039999999"
       fill="currentColor"
       id="rect4338" />
  </g>
  <g
     transform="translate(31.5168,5.0294963)"
     id="g4344">
    <path
       transform="scale(0.0025,-0.0025)"
       d="m 155,472 c -33,0 -68,-8 -68,-36 0,-20 33,-24 33,-44 0,-29 -24,-53 -53,-53 -29,0 -53,24 -53,53 0,66 69,108 141,108 93,0 173,-31 173,-113 0,-41 -7,-78 -43,-95 -11,-5 -16,-16 -16,-26 0,-10 5,-21 16,-26 40,-19 59,-54 59,-99 C 344,47 261,0 159,0 78,0 0,44 0,118 c 0,34 27,61 61,61 34,0 60,-27 60,-61 0,-23 -37,-27 -37,-50 0,-31 39,-40 75,-40 47,0 57,59 57,113 v 35 c 0,42 -4,73 -44,73 H 97 c -12,0 -17,8 -17,17 0,9 5,17 17,17 h 75 c 41,0 44,33 44,77 v 27 c 0,51 -15,85 -61,85 z"
       fill="currentColor"
       id="path4342" />
  </g>
  <g
     transform="translate(31.5168,3.2502963)"
     id="g4348">
    <path
       transform="scale(0.0025,-0.0025)"
       d="m 0,250 127,250 c 3,6 12,3 20,0 14,-6 28,-13 44,-13 16,0 30,7 44,13 1,1 4,1 5,1 8,0 15,-10 15,-21 V 127 c 0,-52 32,-99 80,-99 9,0 13,-7 13,-14 C 348,7 344,0 335,0 287,0 239,13 191,13 143,13 96,0 48,0 39,0 34,7 34,14 c 0,7 5,14 14,14 48,0 79,47 79,99 v 220 c 0,15 -10,22 -19,22 -5,0 -10,-1 -12,-6 L 31,234 c -3,-7 -9,-9 -15,-9 -9,0 -18,7 -18,17 0,3 1,5 2,8 z"
       fill="currentColor"
       id="path4346" />
  </g>
  <g
     transform="translate(31.2257,12.077596)"
     id="g4352">
    <path
       transform="scale(0.0044,-0.0044)"
       d="m 220,135 c 54,0 106,-27 106,-87 0,-71 -56,-120 -103,-148 -36,-21 -76,-35 -117,-35 -54,0 -106,27 -106,87 0,71 56,120 103,148 36,21 76,35 117,35 z"
       fill="currentColor"
       id="path4350" />
  </g>
  <g
     transform="translate(31.2257,10.977596)"
     id="g4356">
    <path
       transform="scale(0.0044,-0.0044)"
       d="m 220,135 c 54,0 106,-27 106,-87 0,-71 -56,-120 -103,-148 -36,-21 -76,-35 -117,-35 -54,0 -106,27 -106,87 0,71 56,120 103,148 36,21 76,35 117,35 z"
       fill="currentColor"
       id="path4354" />
  </g>
  <g
     transform="translate(42.0054,9.8775963)"
     id="g4360">
    <path
       transform="scale(0.0044,-0.0044)"
       d="m 220,135 c 54,0 106,-27 106,-87 0,-71 -56,-120 -103,-148 -36,-21 -76,-35 -117,-35 -54,0 -106,27 -106,87 0,71 56,120 103,148 36,21 76,35 117,35 z"
       fill="currentColor"
       id="path4358" />
  </g>
  <g
     transform="translate(42.0054,7.1275963)"
     id="g4364">
    <path
       transform="scale(0.0044,-0.0044)"
       d="m 220,135 c 54,0 106,-27 106,-87 0,-71 -56,-120 -103,-148 -36,-21 -76,-35 -117,-35 -54,0 -106,27 -106,87 0,71 56,120 103,148 36,21 76,35 117,35 z"
       fill="currentColor"
       id="path4362" />
  </g>
  <g
     transform="translate(42.0726,10.427596)"
     id="g4368">
    <rect
       x="-0.067199998"
       y="-3.089"
       width="0.1345"
       height="6.0682001"
       ry="0.039999999"
       fill="currentColor"
       id="rect4366" />
  </g>
  <g
     transform="translate(37.6982,7.6775963)"
     id="g4372">
    <path
       transform="scale(0.0044,-0.0044)"
       d="m 220,135 c 54,0 106,-27 106,-87 0,-71 -56,-120 -103,-148 -36,-21 -76,-35 -117,-35 -54,0 -106,27 -106,87 0,71 56,120 103,148 36,21 76,35 117,35 z"
       fill="currentColor"
       id="path4370" />
  </g>
  <g
     transform="translate(37.6982,3.8275963)"
     id="g4376">
    <path
       transform="scale(0.0044,-0.0044)"
       d="m 220,135 c 54,0 106,-27 106,-87 0,-71 -56,-120 -103,-148 -36,-21 -76,-35 -117,-35 -54,0 -106,27 -106,87 0,71 56,120 103,148 36,21 76,35 117,35 z"
       fill="currentColor"
       id="path4374" />
  </g>
  <g
     transform="translate(37.7655,10.427596)"
     id="g4380">
    <rect
       x="-0.067199998"
       y="-6.3889999"
       width="0.1345"
       height="8.8318005"
       ry="0.039999999"
       fill="currentColor"
       id="rect4378" />
  </g>
  <g
     transform="translate(35.8823,10.427596)"
     id="g4384">
    <rect
       x="-0.067199998"
       y="-2.539"
       width="0.1345"
       height="5.8390002"
       ry="0.039999999"
       fill="currentColor"
       id="rect4382" />
  </g>
  <g
     transform="translate(35.8151,7.6775963)"
     id="g4388">
    <path
       transform="scale(0.0044,-0.0044)"
       d="m 220,135 c 54,0 106,-27 106,-87 0,-71 -56,-120 -103,-148 -36,-21 -76,-35 -117,-35 -54,0 -106,27 -106,87 0,71 56,120 103,148 36,21 76,35 117,35 z"
       fill="currentColor"
       id="path4386" />
  </g>
  <g
     transform="translate(35.8151,10.427596)"
     id="g4392">
    <path
       transform="scale(0.0044,-0.0044)"
       d="m 220,135 c 54,0 106,-27 106,-87 0,-71 -56,-120 -103,-148 -36,-21 -76,-35 -117,-35 -54,0 -106,27 -106,87 0,71 56,120 103,148 36,21 76,35 117,35 z"
       fill="currentColor"
       id="path4390" />
  </g>
  <g
     transform="translate(25.3731,10.427596)"
     id="g4396">
    <rect
       x="-0.067199998"
       y="-5.289"
       width="0.1345"
       height="8.8318005"
       ry="0.039999999"
       fill="currentColor"
       id="rect4394" />
  </g>
  <g
     transform="translate(39.8518,7.1275963)"
     id="g4400">
    <path
       transform="scale(0.0044,-0.0044)"
       d="m 220,135 c 54,0 106,-27 106,-87 0,-71 -56,-120 -103,-148 -36,-21 -76,-35 -117,-35 -54,0 -106,27 -106,87 0,71 56,120 103,148 36,21 76,35 117,35 z"
       fill="currentColor"
       id="path4398" />
  </g>
  <g
     transform="translate(39.8518,3.2775963)"
     id="g4404">
    <path
       transform="scale(0.0044,-0.0044)"
       d="m 220,135 c 54,0 106,-27 106,-87 0,-71 -56,-120 -103,-148 -36,-21 -76,-35 -117,-35 -54,0 -106,27 -106,87 0,71 56,120 103,148 36,21 76,35 117,35 z"
       fill="currentColor"
       id="path4402" />
  </g>
  <g
     transform="translate(43.8885,10.977596)"
     id="g4408">
    <path
       transform="scale(0.0044,-0.0044)"
       d="m 220,135 c 54,0 106,-27 106,-87 0,-71 -56,-120 -103,-148 -36,-21 -76,-35 -117,-35 -54,0 -106,27 -106,87 0,71 56,120 103,148 36,21 76,35 117,35 z"
       fill="currentColor"
       id="path4406" />
  </g>
  <g
     transform="translate(43.8885,9.8775963)"
     id="g4412">
    <path
       transform="scale(0.0044,-0.0044)"
       d="m 220,135 c 54,0 106,-27 106,-87 0,-71 -56,-120 -103,-148 -36,-21 -76,-35 -117,-35 -54,0 -106,27 -106,87 0,71 56,120 103,148 36,21 76,35 117,35 z"
       fill="currentColor"
       id="path4410" />
  </g>
  <g
     transform="translate(27.5267,10.427596)"
     id="g4416">
    <rect
       x="-0.067199998"
       y="-5.8390002"
       width="0.1345"
       height="8.2818003"
       ry="0.039999999"
       fill="currentColor"
       id="rect4414" />
  </g>
  <g
     transform="translate(43.9557,10.427596)"
     id="g4420">
    <rect
       x="-0.067199998"
       y="-0.33899999"
       width="0.1345"
       height="4.1588998"
       ry="0.039999999"
       fill="currentColor"
       id="rect4418" />
  </g>
  <g
     transform="translate(27.7164,3.0315963)"
     id="g4424">
    <path
       transform="scale(0.0025,-0.0025)"
       d="m 125,147 h 10 c 35,0 73,-12 110,-39 19,-14 41,-22 60,-22 22,0 40,10 46,31 2,7 7,11 13,11 7,0 14,-6 14,-14 0,-1 -1,-3 -1,-4 C 358,40 295,0 233,0 195,0 159,15 133,47 121,62 104,69 88,69 59,69 31,48 28,13 27,4 21,0 14,0 7,0 0,5 0,14 c 0,174 233,163 233,341 0,57 -14,117 -63,117 -31,0 -61,-14 -61,-41 0,-25 32,-39 32,-64 0,-35 -28,-64 -63,-64 -35,0 -64,29 -64,64 0,78 74,133 156,133 98,0 191,-55 191,-145 C 361,210 223,198 125,147 Z"
       fill="currentColor"
       id="path4422" />
  </g>
  <g
     transform="translate(27.6652,1.2524963)"
     id="g4428">
    <path
       transform="scale(0.0025,-0.0025)"
       d="m 199,287 c 23,15 47,31 64,53 12,16 19,33 28,51 2,4 7,7 11,7 7,0 15,-6 15,-17 V 160 h 78 c 12,0 17,-9 17,-18 0,-9 -5,-17 -17,-17 h -78 c 1,-51 32,-97 79,-97 9,0 14,-7 14,-14 C 410,7 405,0 396,0 348,0 301,13 253,13 205,13 158,0 110,0 101,0 96,7 96,14 c 0,7 5,14 14,14 47,0 78,46 79,97 H 35 c -28,0 -37,16 -37,27 0,3 1,6 2,8 78,89 126,201 126,320 0,11 7,20 16,20 h 3 c 25,-7 50,-13 76,-13 26,0 51,6 76,13 2,1 4,1 6,1 10,0 16,-7 16,-14 0,-2 0,-5 -2,-7 L 35,160 h 154 v 101 c 0,10 2,21 10,26 z"
       fill="currentColor"
       id="path4426" />
  </g>
  <g
     transform="translate(27.4595,4.3775963)"
     id="g4432">
    <path
       transform="scale(0.0044,-0.0044)"
       d="m 220,135 c 54,0 106,-27 106,-87 0,-71 -56,-120 -103,-148 -36,-21 -76,-35 -117,-35 -54,0 -106,27 -106,87 0,71 56,120 103,148 36,21 76,35 117,35 z"
       fill="currentColor"
       id="path4430" />
  </g>
  <g
     transform="translate(27.4595,8.2275963)"
     id="g4436">
    <path
       transform="scale(0.0044,-0.0044)"
       d="m 220,135 c 54,0 106,-27 106,-87 0,-71 -56,-120 -103,-148 -36,-21 -76,-35 -117,-35 -54,0 -106,27 -106,87 0,71 56,120 103,148 36,21 76,35 117,35 z"
       fill="currentColor"
       id="path4434" />
  </g>
  <g
     transform="translate(25.5628,3.5815963)"
     id="g4440">
    <path
       transform="scale(0.0025,-0.0025)"
       d="m 125,147 h 10 c 35,0 73,-12 110,-39 19,-14 41,-22 60,-22 22,0 40,10 46,31 2,7 7,11 13,11 7,0 14,-6 14,-14 0,-1 -1,-3 -1,-4 C 358,40 295,0 233,0 195,0 159,15 133,47 121,62 104,69 88,69 59,69 31,48 28,13 27,4 21,0 14,0 7,0 0,5 0,14 c 0,174 233,163 233,341 0,57 -14,117 -63,117 -31,0 -61,-14 -61,-41 0,-25 32,-39 32,-64 0,-35 -28,-64 -63,-64 -35,0 -64,29 -64,64 0,78 74,133 156,133 98,0 191,-55 191,-145 C 361,210 223,198 125,147 Z"
       fill="currentColor"
       id="path4438" />
  </g>
  <g
     transform="translate(29.3426,10.977596)"
     id="g4444">
    <path
       transform="scale(0.0044,-0.0044)"
       d="m 220,135 c 54,0 106,-27 106,-87 0,-71 -56,-120 -103,-148 -36,-21 -76,-35 -117,-35 -54,0 -106,27 -106,87 0,71 56,120 103,148 36,21 76,35 117,35 z"
       fill="currentColor"
       id="path4442" />
  </g>
  <g
     transform="translate(29.4098,10.427596)"
     id="g4448">
    <rect
       x="-0.067199998"
       y="-1.989"
       width="0.1345"
       height="5.289"
       ry="0.039999999"
       fill="currentColor"
       id="rect4446" />
  </g>
  <g
     transform="translate(29.6337,7.0815963)"
     id="g4452">
    <path
       transform="scale(0.0025,-0.0025)"
       d="m 0,250 127,250 c 3,6 12,3 20,0 14,-6 28,-13 44,-13 16,0 30,7 44,13 1,1 4,1 5,1 8,0 15,-10 15,-21 V 127 c 0,-52 32,-99 80,-99 9,0 13,-7 13,-14 C 348,7 344,0 335,0 287,0 239,13 191,13 143,13 96,0 48,0 39,0 34,7 34,14 c 0,7 5,14 14,14 48,0 79,47 79,99 v 220 c 0,15 -10,22 -19,22 -5,0 -10,-1 -12,-6 L 31,234 c -3,-7 -9,-9 -15,-9 -9,0 -18,7 -18,17 0,3 1,5 2,8 z"
       fill="currentColor"
       id="path4450" />
  </g>
  <g
     transform="translate(29.5995,3.3627963)"
     id="g4456">
    <path
       transform="scale(0.0025,-0.0025)"
       d="m 125,147 h 10 c 35,0 73,-12 110,-39 19,-14 41,-22 60,-22 22,0 40,10 46,31 2,7 7,11 13,11 7,0 14,-6 14,-14 0,-1 -1,-3 -1,-4 C 358,40 295,0 233,0 195,0 159,15 133,47 121,62 104,69 88,69 59,69 31,48 28,13 27,4 21,0 14,0 7,0 0,5 0,14 c 0,174 233,163 233,341 0,57 -14,117 -63,117 -31,0 -61,-14 -61,-41 0,-25 32,-39 32,-64 0,-35 -28,-64 -63,-64 -35,0 -64,29 -64,64 0,78 74,133 156,133 98,0 191,-55 191,-145 C 361,210 223,198 125,147 Z"
       fill="currentColor"
       id="path4454" />
  </g>
  <g
     transform="translate(29.3426,8.2275963)"
     id="g4460">
    <path
       transform="scale(0.0044,-0.0044)"
       d="m 220,135 c 54,0 106,-27 106,-87 0,-71 -56,-120 -103,-148 -36,-21 -76,-35 -117,-35 -54,0 -106,27 -106,87 0,71 56,120 103,148 36,21 76,35 117,35 z"
       fill="currentColor"
       id="path4458" />
  </g>
</svg>
