<svg
   version="1.2"
   width="190mm"
   height="29.80818mm"
   viewBox="0 0 108.1205 16.9625"
   id="svg3468"
   sodipodi:docname="shifting-3.svg"
   xmlns:inkscape="http://www.inkscape.org/namespaces/inkscape"
   xmlns:sodipodi="http://sodipodi.sourceforge.net/DTD/sodipodi-0.dtd"
   xmlns:xlink="http://www.w3.org/1999/xlink"
   xmlns="http://www.w3.org/2000/svg"
   xmlns:svg="http://www.w3.org/2000/svg">
  <defs
     id="defs3472" />
  <sodipodi:namedview
     id="namedview3470"
     pagecolor="#ffffff"
     bordercolor="#000000"
     borderopacity="0.25"
     inkscape:showpageshadow="2"
     inkscape:pageopacity="0.0"
     inkscape:pagecheckerboard="0"
     inkscape:deskcolor="#d1d1d1"
     inkscape:document-units="mm"
     showgrid="false" />
  <style
     type="text/css"
     id="style1738"><![CDATA[
tspan { white-space: pre; }
]]></style>
  <!-- Page: 3/3 -->
  <g
     transform="translate(3.1967416e-8,11.7485)"
     id="g1944">
    <line
       stroke-linejoin="round"
       stroke-linecap="round"
       stroke-width="0.1034"
       stroke="currentColor"
       x1="0.0517"
       y1="0"
       x2="108.0688"
       y2="0"
       id="line1942" />
  </g>
  <g
     transform="translate(3.1967416e-8,10.6485)"
     id="g1948">
    <line
       stroke-linejoin="round"
       stroke-linecap="round"
       stroke-width="0.1034"
       stroke="currentColor"
       x1="0.0517"
       y1="0"
       x2="108.0688"
       y2="0"
       id="line1946" />
  </g>
  <g
     transform="translate(3.1967416e-8,9.5485001)"
     id="g1952">
    <line
       stroke-linejoin="round"
       stroke-linecap="round"
       stroke-width="0.1034"
       stroke="currentColor"
       x1="0.0517"
       y1="0"
       x2="108.0688"
       y2="0"
       id="line1950" />
  </g>
  <g
     transform="translate(3.1967416e-8,8.4485001)"
     id="g1956">
    <line
       stroke-linejoin="round"
       stroke-linecap="round"
       stroke-width="0.1034"
       stroke="currentColor"
       x1="0.0517"
       y1="0"
       x2="108.0688"
       y2="0"
       id="line1954" />
  </g>
  <g
     transform="translate(3.1967416e-8,7.3485001)"
     id="g1960">
    <line
       stroke-linejoin="round"
       stroke-linecap="round"
       stroke-width="0.1034"
       stroke="currentColor"
       x1="0.0517"
       y1="0"
       x2="108.0688"
       y2="0"
       id="line1958" />
  </g>
  <g
     transform="translate(3.1967416e-8,12.8485)"
     id="g1964">
    <rect
       x="105.2977"
       y="-0.1067"
       width="2.1536"
       height="0.21340001"
       ry="0.1067"
       fill="currentColor"
       id="rect1962" />
  </g>
  <g
     transform="translate(3.1967416e-8,13.9485)"
     id="g1968">
    <rect
       x="105.2977"
       y="-0.1067"
       width="2.1536"
       height="0.21340001"
       ry="0.1067"
       fill="currentColor"
       id="rect1966" />
  </g>
  <g
     transform="translate(3.1967416e-8,12.8485)"
     id="g1972">
    <rect
       x="103.0304"
       y="-0.1067"
       width="2.1536"
       height="0.21340001"
       ry="0.1067"
       fill="currentColor"
       id="rect1970" />
  </g>
  <g
     transform="translate(3.1967416e-8,12.8485)"
     id="g1976">
    <rect
       x="100.7631"
       y="-0.1067"
       width="2.1536"
       height="0.21340001"
       ry="0.1067"
       fill="currentColor"
       id="rect1974" />
  </g>
  <g
     transform="translate(3.1967416e-8,6.2485001)"
     id="g1980">
    <rect
       x="73.555496"
       y="-0.1067"
       width="2.1536"
       height="0.21340001"
       ry="0.1067"
       fill="currentColor"
       id="rect1978" />
  </g>
  <g
     transform="translate(3.1967416e-8,6.2485001)"
     id="g1984">
    <rect
       x="71.2882"
       y="-0.1067"
       width="2.1536"
       height="0.21340001"
       ry="0.1067"
       fill="currentColor"
       id="rect1982" />
  </g>
  <g
     transform="translate(3.1967416e-8,5.1485001)"
     id="g1988">
    <rect
       x="69.020897"
       y="-0.1067"
       width="2.1536"
       height="0.21340001"
       ry="0.1067"
       fill="currentColor"
       id="rect1986" />
  </g>
  <g
     transform="translate(3.1967416e-8,6.2485001)"
     id="g1992">
    <rect
       x="69.020897"
       y="-0.1067"
       width="2.1536"
       height="0.21340001"
       ry="0.1067"
       fill="currentColor"
       id="rect1990" />
  </g>
  <g
     transform="translate(3.1967416e-8,5.1485001)"
     id="g1996">
    <rect
       x="66.753601"
       y="-0.1067"
       width="2.1536"
       height="0.21340001"
       ry="0.1067"
       fill="currentColor"
       id="rect1994" />
  </g>
  <g
     transform="translate(3.1967416e-8,6.2485001)"
     id="g2000">
    <rect
       x="66.753601"
       y="-0.1067"
       width="2.1536"
       height="0.21340001"
       ry="0.1067"
       fill="currentColor"
       id="rect1998" />
  </g>
  <g
     transform="translate(3.1967416e-8,4.0485001)"
     id="g2004">
    <rect
       x="64.486298"
       y="-0.1067"
       width="2.1536"
       height="0.21340001"
       ry="0.1067"
       fill="currentColor"
       id="rect2002" />
  </g>
  <g
     transform="translate(3.1967416e-8,5.1485001)"
     id="g2008">
    <rect
       x="64.486298"
       y="-0.1067"
       width="2.1536"
       height="0.21340001"
       ry="0.1067"
       fill="currentColor"
       id="rect2006" />
  </g>
  <g
     transform="translate(3.1967416e-8,6.2485001)"
     id="g2012">
    <rect
       x="64.486298"
       y="-0.1067"
       width="2.1536"
       height="0.21340001"
       ry="0.1067"
       fill="currentColor"
       id="rect2010" />
  </g>
  <g
     transform="translate(3.1967416e-8,4.0485001)"
     id="g2016">
    <rect
       x="62.219002"
       y="-0.1067"
       width="2.1536"
       height="0.21340001"
       ry="0.1067"
       fill="currentColor"
       id="rect2014" />
  </g>
  <g
     transform="translate(3.1967416e-8,5.1485001)"
     id="g2020">
    <rect
       x="62.219002"
       y="-0.1067"
       width="2.1536"
       height="0.21340001"
       ry="0.1067"
       fill="currentColor"
       id="rect2018" />
  </g>
  <g
     transform="translate(3.1967416e-8,6.2485001)"
     id="g2024">
    <rect
       x="62.219002"
       y="-0.1067"
       width="2.1536"
       height="0.21340001"
       ry="0.1067"
       fill="currentColor"
       id="rect2022" />
  </g>
  <g
     transform="translate(3.1967416e-8,2.9485001)"
     id="g2028">
    <rect
       x="59.951698"
       y="-0.1067"
       width="2.1536"
       height="0.21340001"
       ry="0.1067"
       fill="currentColor"
       id="rect2026" />
  </g>
  <g
     transform="translate(3.1967416e-8,4.0485001)"
     id="g2032">
    <rect
       x="59.951698"
       y="-0.1067"
       width="2.1536"
       height="0.21340001"
       ry="0.1067"
       fill="currentColor"
       id="rect2030" />
  </g>
  <g
     transform="translate(3.1967416e-8,5.1485001)"
     id="g2036">
    <rect
       x="59.951698"
       y="-0.1067"
       width="2.1536"
       height="0.21340001"
       ry="0.1067"
       fill="currentColor"
       id="rect2034" />
  </g>
  <g
     transform="translate(3.1967416e-8,6.2485001)"
     id="g2040">
    <rect
       x="59.951698"
       y="-0.1067"
       width="2.1536"
       height="0.21340001"
       ry="0.1067"
       fill="currentColor"
       id="rect2038" />
  </g>
  <g
     transform="translate(3.1967416e-8,2.9485001)"
     id="g2044">
    <rect
       x="57.684399"
       y="-0.1067"
       width="2.1536"
       height="0.21340001"
       ry="0.1067"
       fill="currentColor"
       id="rect2042" />
  </g>
  <g
     transform="translate(3.1967416e-8,4.0485001)"
     id="g2048">
    <rect
       x="57.684399"
       y="-0.1067"
       width="2.1536"
       height="0.21340001"
       ry="0.1067"
       fill="currentColor"
       id="rect2046" />
  </g>
  <g
     transform="translate(3.1967416e-8,5.1485001)"
     id="g2052">
    <rect
       x="57.684399"
       y="-0.1067"
       width="2.1536"
       height="0.21340001"
       ry="0.1067"
       fill="currentColor"
       id="rect2050" />
  </g>
  <g
     transform="translate(3.1967416e-8,6.2485001)"
     id="g2056">
    <rect
       x="57.684399"
       y="-0.1067"
       width="2.1536"
       height="0.21340001"
       ry="0.1067"
       fill="currentColor"
       id="rect2054" />
  </g>
  <g
     transform="translate(3.1967416e-8,2.9485001)"
     id="g2060">
    <rect
       x="55.417099"
       y="-0.1067"
       width="2.1536"
       height="0.21340001"
       ry="0.1067"
       fill="currentColor"
       id="rect2058" />
  </g>
  <g
     transform="translate(3.1967416e-8,4.0485001)"
     id="g2064">
    <rect
       x="55.417099"
       y="-0.1067"
       width="2.1536"
       height="0.21340001"
       ry="0.1067"
       fill="currentColor"
       id="rect2062" />
  </g>
  <g
     transform="translate(3.1967416e-8,5.1485001)"
     id="g2068">
    <rect
       x="55.417099"
       y="-0.1067"
       width="2.1536"
       height="0.21340001"
       ry="0.1067"
       fill="currentColor"
       id="rect2066" />
  </g>
  <g
     transform="translate(3.1967416e-8,6.2485001)"
     id="g2072">
    <rect
       x="55.417099"
       y="-0.1067"
       width="2.1536"
       height="0.21340001"
       ry="0.1067"
       fill="currentColor"
       id="rect2070" />
  </g>
  <g
     transform="translate(3.1967416e-8,4.0485001)"
     id="g2076">
    <rect
       x="53.149799"
       y="-0.1067"
       width="2.1536"
       height="0.21340001"
       ry="0.1067"
       fill="currentColor"
       id="rect2074" />
  </g>
  <g
     transform="translate(3.1967416e-8,5.1485001)"
     id="g2080">
    <rect
       x="53.149799"
       y="-0.1067"
       width="2.1536"
       height="0.21340001"
       ry="0.1067"
       fill="currentColor"
       id="rect2078" />
  </g>
  <g
     transform="translate(3.1967416e-8,6.2485001)"
     id="g2084">
    <rect
       x="53.149799"
       y="-0.1067"
       width="2.1536"
       height="0.21340001"
       ry="0.1067"
       fill="currentColor"
       id="rect2082" />
  </g>
  <g
     transform="translate(3.1967416e-8,4.0485001)"
     id="g2088">
    <rect
       x="50.8825"
       y="-0.1067"
       width="2.1536"
       height="0.21340001"
       ry="0.1067"
       fill="currentColor"
       id="rect2086" />
  </g>
  <g
     transform="translate(3.1967416e-8,5.1485001)"
     id="g2092">
    <rect
       x="50.8825"
       y="-0.1067"
       width="2.1536"
       height="0.21340001"
       ry="0.1067"
       fill="currentColor"
       id="rect2090" />
  </g>
  <g
     transform="translate(3.1967416e-8,6.2485001)"
     id="g2096">
    <rect
       x="50.8825"
       y="-0.1067"
       width="2.1536"
       height="0.21340001"
       ry="0.1067"
       fill="currentColor"
       id="rect2094" />
  </g>
  <g
     transform="translate(3.1967416e-8,5.1485001)"
     id="g2100">
    <rect
       x="48.6152"
       y="-0.1067"
       width="2.1536"
       height="0.21340001"
       ry="0.1067"
       fill="currentColor"
       id="rect2098" />
  </g>
  <g
     transform="translate(3.1967416e-8,6.2485001)"
     id="g2104">
    <rect
       x="48.6152"
       y="-0.1067"
       width="2.1536"
       height="0.21340001"
       ry="0.1067"
       fill="currentColor"
       id="rect2102" />
  </g>
  <g
     transform="translate(3.1967416e-8,5.1485001)"
     id="g2108">
    <rect
       x="46.3479"
       y="-0.1067"
       width="2.1536"
       height="0.21340001"
       ry="0.1067"
       fill="currentColor"
       id="rect2106" />
  </g>
  <g
     transform="translate(3.1967416e-8,6.2485001)"
     id="g2112">
    <rect
       x="46.3479"
       y="-0.1067"
       width="2.1536"
       height="0.21340001"
       ry="0.1067"
       fill="currentColor"
       id="rect2110" />
  </g>
  <g
     transform="translate(3.1967416e-8,6.2485001)"
     id="g2116">
    <rect
       x="44.080601"
       y="-0.1067"
       width="2.1536"
       height="0.21340001"
       ry="0.1067"
       fill="currentColor"
       id="rect2114" />
  </g>
  <g
     transform="translate(3.1967416e-8,6.2485001)"
     id="g2120">
    <rect
       x="41.813301"
       y="-0.1067"
       width="2.1536"
       height="0.21340001"
       ry="0.1067"
       fill="currentColor"
       id="rect2118" />
  </g>
  <g
     transform="translate(3.1967416e-8,12.8485)"
     id="g2124">
    <rect
       x="14.6057"
       y="-0.1067"
       width="2.1536"
       height="0.21340001"
       ry="0.1067"
       fill="currentColor"
       id="rect2122" />
  </g>
  <g
     transform="translate(3.1967416e-8,12.8485)"
     id="g2128">
    <rect
       x="12.3384"
       y="-0.1067"
       width="2.1536"
       height="0.21340001"
       ry="0.1067"
       fill="currentColor"
       id="rect2126" />
  </g>
  <g
     transform="translate(3.1967416e-8,12.8485)"
     id="g2132">
    <rect
       x="10.0711"
       y="-0.1067"
       width="2.1536"
       height="0.21340001"
       ry="0.1067"
       fill="currentColor"
       id="rect2130" />
  </g>
  <g
     transform="translate(3.1967416e-8,13.9485)"
     id="g2136">
    <rect
       x="10.0711"
       y="-0.1067"
       width="2.1536"
       height="0.21340001"
       ry="0.1067"
       fill="currentColor"
       id="rect2134" />
  </g>
  <g
     transform="translate(107.9239,9.5485001)"
     id="g2140">
    <rect
       x="0"
       y="-2.2"
       width="0.1965"
       height="4.4000001"
       ry="0.0000"
       fill="currentColor"
       id="rect2138" />
  </g>
  <g
     transform="translate(71.7143,9.5485001)"
     id="g2144">
    <rect
       x="-0.067199998"
       y="-3.6389999"
       width="0.1345"
       height="10.789"
       ry="0.039999999"
       fill="currentColor"
       id="rect2142" />
  </g>
  <a
     style="color:inherit"
     xlink:href="textedit://C:/Users/Javier/Documents/lilypond%20scores/shifting.ly:345:5:6"
     id="a2150"
     transform="translate(-5.6906,-15.4642)">
    <g
       transform="translate(77.5434,20.0167)"
       id="g2148">
      <path
         transform="scale(0.0025,-0.0025)"
         d="m 199,287 c 23,15 47,31 64,53 12,16 19,33 28,51 2,4 7,7 11,7 7,0 15,-6 15,-17 V 160 h 78 c 12,0 17,-9 17,-18 0,-9 -5,-17 -17,-17 h -78 c 1,-51 32,-97 79,-97 9,0 14,-7 14,-14 C 410,7 405,0 396,0 348,0 301,13 253,13 205,13 158,0 110,0 101,0 96,7 96,14 c 0,7 5,14 14,14 47,0 78,46 79,97 H 35 c -28,0 -37,16 -37,27 0,3 1,6 2,8 78,89 126,201 126,320 0,11 7,20 16,20 h 3 c 25,-7 50,-13 76,-13 26,0 51,6 76,13 2,1 4,1 6,1 10,0 16,-7 16,-14 0,-2 0,-5 -2,-7 L 35,160 h 154 v 101 c 0,10 2,21 10,26 z"
         fill="currentColor"
         id="path2146" />
    </g>
  </a>
  <a
     style="color:inherit"
     xlink:href="textedit://C:/Users/Javier/Documents/lilypond%20scores/shifting.ly:345:4:5"
     id="a2156"
     transform="translate(-5.6906,-15.4642)">
    <g
       transform="translate(77.3377,21.1627)"
       id="g2154">
      <path
         transform="scale(0.0044,-0.0044)"
         d="m 220,135 c 54,0 106,-27 106,-87 0,-71 -56,-120 -103,-148 -36,-21 -76,-35 -117,-35 -54,0 -106,27 -106,87 0,71 56,120 103,148 36,21 76,35 117,35 z"
         fill="currentColor"
         id="path2152" />
    </g>
  </a>
  <g
     transform="translate(69.447,9.5485001)"
     id="g2160">
    <rect
       x="-0.067199998"
       y="-4.1890001"
       width="0.1345"
       height="11.339"
       ry="0.039999999"
       fill="currentColor"
       id="rect2158" />
  </g>
  <a
     style="color:inherit"
     xlink:href="textedit://C:/Users/Javier/Documents/lilypond%20scores/shifting.ly:344:61:62"
     id="a2166"
     transform="translate(-5.6906,-15.4642)">
    <g
       transform="translate(75.3615,19.4667)"
       id="g2164">
      <path
         transform="scale(0.0025,-0.0025)"
         d="m 0,250 127,250 c 3,6 12,3 20,0 14,-6 28,-13 44,-13 16,0 30,7 44,13 1,1 4,1 5,1 8,0 15,-10 15,-21 V 127 c 0,-52 32,-99 80,-99 9,0 13,-7 13,-14 C 348,7 344,0 335,0 287,0 239,13 191,13 143,13 96,0 48,0 39,0 34,7 34,14 c 0,7 5,14 14,14 48,0 79,47 79,99 v 220 c 0,15 -10,22 -19,22 -5,0 -10,-1 -12,-6 L 31,234 c -3,-7 -9,-9 -15,-9 -9,0 -18,7 -18,17 0,3 1,5 2,8 z"
         fill="currentColor"
         id="path2162" />
    </g>
  </a>
  <a
     style="color:inherit"
     xlink:href="textedit://C:/Users/Javier/Documents/lilypond%20scores/shifting.ly:344:58:59"
     id="a2172"
     transform="translate(-5.6906,-15.4642)">
    <g
       transform="translate(75.0704,20.6127)"
       id="g2170">
      <path
         transform="scale(0.0044,-0.0044)"
         d="m 220,135 c 54,0 106,-27 106,-87 0,-71 -56,-120 -103,-148 -36,-21 -76,-35 -117,-35 -54,0 -106,27 -106,87 0,71 56,120 103,148 36,21 76,35 117,35 z"
         fill="currentColor"
         id="path2168" />
    </g>
  </a>
  <g
     transform="translate(67.1797,9.5485001)"
     id="g2176">
    <rect
       x="-0.067199998"
       y="-4.7389998"
       width="0.1345"
       height="11.889"
       ry="0.039999999"
       fill="currentColor"
       id="rect2174" />
  </g>
  <a
     style="color:inherit"
     xlink:href="textedit://C:/Users/Javier/Documents/lilypond%20scores/shifting.ly:344:55:56"
     id="a2182"
     transform="translate(-5.6906,-15.4642)">
    <g
       transform="translate(73.0942,18.9167)"
       id="g2180">
      <path
         transform="scale(0.0025,-0.0025)"
         d="m 0,250 127,250 c 3,6 12,3 20,0 14,-6 28,-13 44,-13 16,0 30,7 44,13 1,1 4,1 5,1 8,0 15,-10 15,-21 V 127 c 0,-52 32,-99 80,-99 9,0 13,-7 13,-14 C 348,7 344,0 335,0 287,0 239,13 191,13 143,13 96,0 48,0 39,0 34,7 34,14 c 0,7 5,14 14,14 48,0 79,47 79,99 v 220 c 0,15 -10,22 -19,22 -5,0 -10,-1 -12,-6 L 31,234 c -3,-7 -9,-9 -15,-9 -9,0 -18,7 -18,17 0,3 1,5 2,8 z"
         fill="currentColor"
         id="path2178" />
    </g>
  </a>
  <a
     style="color:inherit"
     xlink:href="textedit://C:/Users/Javier/Documents/lilypond%20scores/shifting.ly:344:54:55"
     id="a2188"
     transform="translate(-5.6906,-15.4642)">
    <g
       transform="translate(72.8031,20.0627)"
       id="g2186">
      <path
         transform="scale(0.0044,-0.0044)"
         d="m 220,135 c 54,0 106,-27 106,-87 0,-71 -56,-120 -103,-148 -36,-21 -76,-35 -117,-35 -54,0 -106,27 -106,87 0,71 56,120 103,148 36,21 76,35 117,35 z"
         fill="currentColor"
         id="path2184" />
    </g>
  </a>
  <a
     style="color:inherit"
     xlink:href="textedit://C:/Users/Javier/Documents/lilypond%20scores/shifting.ly:345:12:13"
     id="a2194"
     transform="translate(-5.6906,-15.4642)">
    <g
       transform="translate(81.8723,22.2627)"
       id="g2192">
      <path
         transform="scale(0.0044,-0.0044)"
         d="m 220,135 c 54,0 106,-27 106,-87 0,-71 -56,-120 -103,-148 -36,-21 -76,-35 -117,-35 -54,0 -106,27 -106,87 0,71 56,120 103,148 36,21 76,35 117,35 z"
         fill="currentColor"
         id="path2190" />
    </g>
  </a>
  <g
     transform="translate(78.5162,9.5485001)"
     id="g2198">
    <rect
       x="-0.067199998"
       y="-1.989"
       width="0.1345"
       height="9.1389999"
       ry="0.039999999"
       fill="currentColor"
       id="rect2196" />
  </g>
  <a
     style="color:inherit"
     xlink:href="textedit://C:/Users/Javier/Documents/lilypond%20scores/shifting.ly:345:21:22"
     id="a2204"
     transform="translate(-5.6906,-15.4642)">
    <g
       transform="translate(84.3965,21.6667)"
       id="g2202">
      <path
         transform="scale(0.0025,-0.0025)"
         d="m 125,147 h 10 c 35,0 73,-12 110,-39 19,-14 41,-22 60,-22 22,0 40,10 46,31 2,7 7,11 13,11 7,0 14,-6 14,-14 0,-1 -1,-3 -1,-4 C 358,40 295,0 233,0 195,0 159,15 133,47 121,62 104,69 88,69 59,69 31,48 28,13 27,4 21,0 14,0 7,0 0,5 0,14 c 0,174 233,163 233,341 0,57 -14,117 -63,117 -31,0 -61,-14 -61,-41 0,-25 32,-39 32,-64 0,-35 -28,-64 -63,-64 -35,0 -64,29 -64,64 0,78 74,133 156,133 98,0 191,-55 191,-145 C 361,210 223,198 125,147 Z"
         fill="currentColor"
         id="path2200" />
    </g>
  </a>
  <a
     style="color:inherit"
     xlink:href="textedit://C:/Users/Javier/Documents/lilypond%20scores/shifting.ly:345:18:19"
     id="a2210"
     transform="translate(-5.6906,-15.4642)">
    <g
       transform="translate(84.1396,22.8127)"
       id="g2208">
      <path
         transform="scale(0.0044,-0.0044)"
         d="m 220,135 c 54,0 106,-27 106,-87 0,-71 -56,-120 -103,-148 -36,-21 -76,-35 -117,-35 -54,0 -106,27 -106,87 0,71 56,120 103,148 36,21 76,35 117,35 z"
         fill="currentColor"
         id="path2206" />
    </g>
  </a>
  <g
     transform="translate(76.2489,9.5485001)"
     id="g2214">
    <rect
       x="-0.067199998"
       y="-2.539"
       width="0.1345"
       height="9.6890001"
       ry="0.039999999"
       fill="currentColor"
       id="rect2212" />
  </g>
  <a
     style="color:inherit"
     xlink:href="textedit://C:/Users/Javier/Documents/lilypond%20scores/shifting.ly:345:15:16"
     id="a2220"
     transform="translate(-5.6906,-15.4642)">
    <g
       transform="translate(82.1634,21.1167)"
       id="g2218">
      <path
         transform="scale(0.0025,-0.0025)"
         d="m 155,472 c -33,0 -68,-8 -68,-36 0,-20 33,-24 33,-44 0,-29 -24,-53 -53,-53 -29,0 -53,24 -53,53 0,66 69,108 141,108 93,0 173,-31 173,-113 0,-41 -7,-78 -43,-95 -11,-5 -16,-16 -16,-26 0,-10 5,-21 16,-26 40,-19 59,-54 59,-99 C 344,47 261,0 159,0 78,0 0,44 0,118 c 0,34 27,61 61,61 34,0 60,-27 60,-61 0,-23 -37,-27 -37,-50 0,-31 39,-40 75,-40 47,0 57,59 57,113 v 35 c 0,42 -4,73 -44,73 H 97 c -12,0 -17,8 -17,17 0,9 5,17 17,17 h 75 c 41,0 44,33 44,77 v 27 c 0,51 -15,85 -61,85 z"
         fill="currentColor"
         id="path2216" />
    </g>
  </a>
  <g
     transform="translate(73.9816,9.5485001)"
     id="g2224">
    <rect
       x="-0.067199998"
       y="-3.089"
       width="0.1345"
       height="10.239"
       ry="0.039999999"
       fill="currentColor"
       id="rect2222" />
  </g>
  <a
     style="color:inherit"
     xlink:href="textedit://C:/Users/Javier/Documents/lilypond%20scores/shifting.ly:345:9:10"
     id="a2230"
     transform="translate(-5.6906,-15.4642)">
    <g
       transform="translate(79.8961,20.5667)"
       id="g2228">
      <path
         transform="scale(0.0025,-0.0025)"
         d="m 155,472 c -33,0 -68,-8 -68,-36 0,-20 33,-24 33,-44 0,-29 -24,-53 -53,-53 -29,0 -53,24 -53,53 0,66 69,108 141,108 93,0 173,-31 173,-113 0,-41 -7,-78 -43,-95 -11,-5 -16,-16 -16,-26 0,-10 5,-21 16,-26 40,-19 59,-54 59,-99 C 344,47 261,0 159,0 78,0 0,44 0,118 c 0,34 27,61 61,61 34,0 60,-27 60,-61 0,-23 -37,-27 -37,-50 0,-31 39,-40 75,-40 47,0 57,59 57,113 v 35 c 0,42 -4,73 -44,73 H 97 c -12,0 -17,8 -17,17 0,9 5,17 17,17 h 75 c 41,0 44,33 44,77 v 27 c 0,51 -15,85 -61,85 z"
         fill="currentColor"
         id="path2226" />
    </g>
  </a>
  <a
     style="color:inherit"
     xlink:href="textedit://C:/Users/Javier/Documents/lilypond%20scores/shifting.ly:345:8:9"
     id="a2236"
     transform="translate(-5.6906,-15.4642)">
    <g
       transform="translate(79.605,21.7127)"
       id="g2234">
      <path
         transform="scale(0.0044,-0.0044)"
         d="m 220,135 c 54,0 106,-27 106,-87 0,-71 -56,-120 -103,-148 -36,-21 -76,-35 -117,-35 -54,0 -106,27 -106,87 0,71 56,120 103,148 36,21 76,35 117,35 z"
         fill="currentColor"
         id="path2232" />
    </g>
  </a>
  <g
     transform="translate(58.1105,9.5485001)"
     id="g2240">
    <rect
       x="-0.067199998"
       y="-6.9390001"
       width="0.1345"
       height="14.089"
       ry="0.039999999"
       fill="currentColor"
       id="rect2238" />
  </g>
  <a
     style="color:inherit"
     xlink:href="textedit://C:/Users/Javier/Documents/lilypond%20scores/shifting.ly:344:35:36"
     id="a2246"
     transform="translate(-5.6906,-15.4642)">
    <g
       transform="translate(63.9396,16.7167)"
       id="g2244">
      <path
         transform="scale(0.0025,-0.0025)"
         d="m 199,287 c 23,15 47,31 64,53 12,16 19,33 28,51 2,4 7,7 11,7 7,0 15,-6 15,-17 V 160 h 78 c 12,0 17,-9 17,-18 0,-9 -5,-17 -17,-17 h -78 c 1,-51 32,-97 79,-97 9,0 14,-7 14,-14 C 410,7 405,0 396,0 348,0 301,13 253,13 205,13 158,0 110,0 101,0 96,7 96,14 c 0,7 5,14 14,14 47,0 78,46 79,97 H 35 c -28,0 -37,16 -37,27 0,3 1,6 2,8 78,89 126,201 126,320 0,11 7,20 16,20 h 3 c 25,-7 50,-13 76,-13 26,0 51,6 76,13 2,1 4,1 6,1 10,0 16,-7 16,-14 0,-2 0,-5 -2,-7 L 35,160 h 154 v 101 c 0,10 2,21 10,26 z"
         fill="currentColor"
         id="path2242" />
    </g>
  </a>
  <a
     style="color:inherit"
     xlink:href="textedit://C:/Users/Javier/Documents/lilypond%20scores/shifting.ly:344:34:35"
     id="a2252"
     transform="translate(-5.6906,-15.4642)">
    <g
       transform="translate(63.7339,17.8627)"
       id="g2250">
      <path
         transform="scale(0.0044,-0.0044)"
         d="m 220,135 c 54,0 106,-27 106,-87 0,-71 -56,-120 -103,-148 -36,-21 -76,-35 -117,-35 -54,0 -106,27 -106,87 0,71 56,120 103,148 36,21 76,35 117,35 z"
         fill="currentColor"
         id="path2248" />
    </g>
  </a>
  <g
     transform="translate(55.8432,9.5485001)"
     id="g2256">
    <rect
       x="-0.067199998"
       y="-6.3889999"
       width="0.1345"
       height="13.539"
       ry="0.039999999"
       fill="currentColor"
       id="rect2254" />
  </g>
  <a
     style="color:inherit"
     xlink:href="textedit://C:/Users/Javier/Documents/lilypond%20scores/shifting.ly:344:31:32"
     id="a2262"
     transform="translate(-5.6906,-15.4642)">
    <g
       transform="translate(61.6723,17.2667)"
       id="g2260">
      <path
         transform="scale(0.0025,-0.0025)"
         d="m 199,287 c 23,15 47,31 64,53 12,16 19,33 28,51 2,4 7,7 11,7 7,0 15,-6 15,-17 V 160 h 78 c 12,0 17,-9 17,-18 0,-9 -5,-17 -17,-17 h -78 c 1,-51 32,-97 79,-97 9,0 14,-7 14,-14 C 410,7 405,0 396,0 348,0 301,13 253,13 205,13 158,0 110,0 101,0 96,7 96,14 c 0,7 5,14 14,14 47,0 78,46 79,97 H 35 c -28,0 -37,16 -37,27 0,3 1,6 2,8 78,89 126,201 126,320 0,11 7,20 16,20 h 3 c 25,-7 50,-13 76,-13 26,0 51,6 76,13 2,1 4,1 6,1 10,0 16,-7 16,-14 0,-2 0,-5 -2,-7 L 35,160 h 154 v 101 c 0,10 2,21 10,26 z"
         fill="currentColor"
         id="path2258" />
    </g>
  </a>
  <a
     style="color:inherit"
     xlink:href="textedit://C:/Users/Javier/Documents/lilypond%20scores/shifting.ly:344:28:29"
     id="a2268"
     transform="translate(-5.6906,-15.4642)">
    <g
       transform="translate(61.4666,18.4127)"
       id="g2266">
      <path
         transform="scale(0.0044,-0.0044)"
         d="m 220,135 c 54,0 106,-27 106,-87 0,-71 -56,-120 -103,-148 -36,-21 -76,-35 -117,-35 -54,0 -106,27 -106,87 0,71 56,120 103,148 36,21 76,35 117,35 z"
         fill="currentColor"
         id="path2264" />
    </g>
  </a>
  <g
     transform="translate(53.5759,9.5485001)"
     id="g2272">
    <rect
       x="-0.067199998"
       y="-5.8390002"
       width="0.1345"
       height="12.989"
       ry="0.039999999"
       fill="currentColor"
       id="rect2270" />
  </g>
  <a
     style="color:inherit"
     xlink:href="textedit://C:/Users/Javier/Documents/lilypond%20scores/shifting.ly:344:25:26"
     id="a2278"
     transform="translate(-5.6906,-15.4642)">
    <g
       transform="translate(59.4903,17.8167)"
       id="g2276">
      <path
         transform="scale(0.0025,-0.0025)"
         d="m 155,472 c -33,0 -68,-8 -68,-36 0,-20 33,-24 33,-44 0,-29 -24,-53 -53,-53 -29,0 -53,24 -53,53 0,66 69,108 141,108 93,0 173,-31 173,-113 0,-41 -7,-78 -43,-95 -11,-5 -16,-16 -16,-26 0,-10 5,-21 16,-26 40,-19 59,-54 59,-99 C 344,47 261,0 159,0 78,0 0,44 0,118 c 0,34 27,61 61,61 34,0 60,-27 60,-61 0,-23 -37,-27 -37,-50 0,-31 39,-40 75,-40 47,0 57,59 57,113 v 35 c 0,42 -4,73 -44,73 H 97 c -12,0 -17,8 -17,17 0,9 5,17 17,17 h 75 c 41,0 44,33 44,77 v 27 c 0,51 -15,85 -61,85 z"
         fill="currentColor"
         id="path2274" />
    </g>
  </a>
  <a
     style="color:inherit"
     xlink:href="textedit://C:/Users/Javier/Documents/lilypond%20scores/shifting.ly:344:22:23"
     id="a2284"
     transform="translate(-5.6906,-15.4642)">
    <g
       transform="translate(59.1993,18.9627)"
       id="g2282">
      <path
         transform="scale(0.0044,-0.0044)"
         d="m 220,135 c 54,0 106,-27 106,-87 0,-71 -56,-120 -103,-148 -36,-21 -76,-35 -117,-35 -54,0 -106,27 -106,87 0,71 56,120 103,148 36,21 76,35 117,35 z"
         fill="currentColor"
         id="path2280" />
    </g>
  </a>
  <a
     style="color:inherit"
     xlink:href="textedit://C:/Users/Javier/Documents/lilypond%20scores/shifting.ly:341:7:8"
     id="a2294"
     transform="translate(-5.6906,-15.4642)">
    <g
       transform="translate(16.1206,31.275)"
       id="g2288">
      <polygon
         stroke-linejoin="round"
         stroke-linecap="round"
         stroke-width="0.08"
         fill="currentColor"
         stroke="currentColor"
         points="95.3211,-0.224 95.3211,0.224 0.04,0.224 0.04,-0.224 "
         id="polygon2286" />
    </g>
    <g
       transform="translate(16.1206,32.1627)"
       id="g2292">
      <polygon
         stroke-linejoin="round"
         stroke-linecap="round"
         stroke-width="0.08"
         fill="currentColor"
         stroke="currentColor"
         points="95.3211,-0.224 95.3211,0.224 0.04,0.224 0.04,-0.224 "
         id="polygon2290" />
    </g>
  </a>
  <g
     transform="translate(64.9124,9.5485001)"
     id="g2298">
    <rect
       x="-0.067199998"
       y="-5.289"
       width="0.1345"
       height="12.439"
       ry="0.039999999"
       fill="currentColor"
       id="rect2296" />
  </g>
  <a
     style="color:inherit"
     xlink:href="textedit://C:/Users/Javier/Documents/lilypond%20scores/shifting.ly:344:51:52"
     id="a2304"
     transform="translate(-5.6906,-15.4642)">
    <g
       transform="translate(70.7927,18.3667)"
       id="g2302">
      <path
         transform="scale(0.0025,-0.0025)"
         d="m 125,147 h 10 c 35,0 73,-12 110,-39 19,-14 41,-22 60,-22 22,0 40,10 46,31 2,7 7,11 13,11 7,0 14,-6 14,-14 0,-1 -1,-3 -1,-4 C 358,40 295,0 233,0 195,0 159,15 133,47 121,62 104,69 88,69 59,69 31,48 28,13 27,4 21,0 14,0 7,0 0,5 0,14 c 0,174 233,163 233,341 0,57 -14,117 -63,117 -31,0 -61,-14 -61,-41 0,-25 32,-39 32,-64 0,-35 -28,-64 -63,-64 -35,0 -64,29 -64,64 0,78 74,133 156,133 98,0 191,-55 191,-145 C 361,210 223,198 125,147 Z"
         fill="currentColor"
         id="path2300" />
    </g>
  </a>
  <a
     style="color:inherit"
     xlink:href="textedit://C:/Users/Javier/Documents/lilypond%20scores/shifting.ly:344:50:51"
     id="a2310"
     transform="translate(-5.6906,-15.4642)">
    <g
       transform="translate(70.5358,19.5127)"
       id="g2308">
      <path
         transform="scale(0.0044,-0.0044)"
         d="m 220,135 c 54,0 106,-27 106,-87 0,-71 -56,-120 -103,-148 -36,-21 -76,-35 -117,-35 -54,0 -106,27 -106,87 0,71 56,120 103,148 36,21 76,35 117,35 z"
         fill="currentColor"
         id="path2306" />
    </g>
  </a>
  <g
     transform="translate(62.6451,9.5485001)"
     id="g2314">
    <rect
       x="-0.067199998"
       y="-5.8390002"
       width="0.1345"
       height="12.989"
       ry="0.039999999"
       fill="currentColor"
       id="rect2312" />
  </g>
  <a
     style="color:inherit"
     xlink:href="textedit://C:/Users/Javier/Documents/lilypond%20scores/shifting.ly:344:47:48"
     id="a2320"
     transform="translate(-5.6906,-15.4642)">
    <g
       transform="translate(68.5596,17.8167)"
       id="g2318">
      <path
         transform="scale(0.0025,-0.0025)"
         d="m 155,472 c -33,0 -68,-8 -68,-36 0,-20 33,-24 33,-44 0,-29 -24,-53 -53,-53 -29,0 -53,24 -53,53 0,66 69,108 141,108 93,0 173,-31 173,-113 0,-41 -7,-78 -43,-95 -11,-5 -16,-16 -16,-26 0,-10 5,-21 16,-26 40,-19 59,-54 59,-99 C 344,47 261,0 159,0 78,0 0,44 0,118 c 0,34 27,61 61,61 34,0 60,-27 60,-61 0,-23 -37,-27 -37,-50 0,-31 39,-40 75,-40 47,0 57,59 57,113 v 35 c 0,42 -4,73 -44,73 H 97 c -12,0 -17,8 -17,17 0,9 5,17 17,17 h 75 c 41,0 44,33 44,77 v 27 c 0,51 -15,85 -61,85 z"
         fill="currentColor"
         id="path2316" />
    </g>
  </a>
  <a
     style="color:inherit"
     xlink:href="textedit://C:/Users/Javier/Documents/lilypond%20scores/shifting.ly:344:44:45"
     id="a2326"
     transform="translate(-5.6906,-15.4642)">
    <g
       transform="translate(68.2685,18.9627)"
       id="g2324">
      <path
         transform="scale(0.0044,-0.0044)"
         d="m 220,135 c 54,0 106,-27 106,-87 0,-71 -56,-120 -103,-148 -36,-21 -76,-35 -117,-35 -54,0 -106,27 -106,87 0,71 56,120 103,148 36,21 76,35 117,35 z"
         fill="currentColor"
         id="path2322" />
    </g>
  </a>
  <g
     transform="translate(60.3778,9.5485001)"
     id="g2330">
    <rect
       x="-0.067199998"
       y="-6.3889999"
       width="0.1345"
       height="13.539"
       ry="0.039999999"
       fill="currentColor"
       id="rect2328" />
  </g>
  <a
     style="color:inherit"
     xlink:href="textedit://C:/Users/Javier/Documents/lilypond%20scores/shifting.ly:344:41:42"
     id="a2336"
     transform="translate(-5.6906,-15.4642)">
    <g
       transform="translate(66.2069,17.2667)"
       id="g2334">
      <path
         transform="scale(0.0025,-0.0025)"
         d="m 199,287 c 23,15 47,31 64,53 12,16 19,33 28,51 2,4 7,7 11,7 7,0 15,-6 15,-17 V 160 h 78 c 12,0 17,-9 17,-18 0,-9 -5,-17 -17,-17 h -78 c 1,-51 32,-97 79,-97 9,0 14,-7 14,-14 C 410,7 405,0 396,0 348,0 301,13 253,13 205,13 158,0 110,0 101,0 96,7 96,14 c 0,7 5,14 14,14 47,0 78,46 79,97 H 35 c -28,0 -37,16 -37,27 0,3 1,6 2,8 78,89 126,201 126,320 0,11 7,20 16,20 h 3 c 25,-7 50,-13 76,-13 26,0 51,6 76,13 2,1 4,1 6,1 10,0 16,-7 16,-14 0,-2 0,-5 -2,-7 L 35,160 h 154 v 101 c 0,10 2,21 10,26 z"
         fill="currentColor"
         id="path2332" />
    </g>
  </a>
  <a
     style="color:inherit"
     xlink:href="textedit://C:/Users/Javier/Documents/lilypond%20scores/shifting.ly:344:38:39"
     id="a2342"
     transform="translate(-5.6906,-15.4642)">
    <g
       transform="translate(66.0012,18.4127)"
       id="g2340">
      <path
         transform="scale(0.0044,-0.0044)"
         d="m 220,135 c 54,0 106,-27 106,-87 0,-71 -56,-120 -103,-148 -36,-21 -76,-35 -117,-35 -54,0 -106,27 -106,87 0,71 56,120 103,148 36,21 76,35 117,35 z"
         fill="currentColor"
         id="path2338" />
    </g>
  </a>
  <a
     style="color:inherit"
     xlink:href="textedit://C:/Users/Javier/Documents/lilypond%20scores/shifting.ly:347:23:24"
     id="a2348"
     transform="translate(-5.6906,-15.4642)">
    <g
       transform="translate(111.6383,22.211)"
       id="g2346">
      <path
         transform="scale(0.0025,-0.0025)"
         d="m 0,250 127,250 c 3,6 12,3 20,0 14,-6 28,-13 44,-13 16,0 30,7 44,13 1,1 4,1 5,1 8,0 15,-10 15,-21 V 127 c 0,-52 32,-99 80,-99 9,0 13,-7 13,-14 C 348,7 344,0 335,0 287,0 239,13 191,13 143,13 96,0 48,0 39,0 34,7 34,14 c 0,7 5,14 14,14 48,0 79,47 79,99 v 220 c 0,15 -10,22 -19,22 -5,0 -10,-1 -12,-6 L 31,234 c -3,-7 -9,-9 -15,-9 -9,0 -18,7 -18,17 0,3 1,5 2,8 z"
         fill="currentColor"
         id="path2344" />
    </g>
  </a>
  <g
     transform="translate(96.6546,9.5485001)"
     id="g2352">
    <rect
       x="-0.067199998"
       y="2.411"
       width="0.1345"
       height="4.7389998"
       ry="0.039999999"
       fill="currentColor"
       id="rect2350" />
  </g>
  <a
     style="color:inherit"
     xlink:href="textedit://C:/Users/Javier/Documents/lilypond%20scores/shifting.ly:347:5:6"
     id="a2358"
     transform="translate(-5.6906,-15.4642)">
    <g
       transform="translate(102.4837,22.211)"
       id="g2356">
      <path
         transform="scale(0.0025,-0.0025)"
         d="m 199,287 c 23,15 47,31 64,53 12,16 19,33 28,51 2,4 7,7 11,7 7,0 15,-6 15,-17 V 160 h 78 c 12,0 17,-9 17,-18 0,-9 -5,-17 -17,-17 h -78 c 1,-51 32,-97 79,-97 9,0 14,-7 14,-14 C 410,7 405,0 396,0 348,0 301,13 253,13 205,13 158,0 110,0 101,0 96,7 96,14 c 0,7 5,14 14,14 47,0 78,46 79,97 H 35 c -28,0 -37,16 -37,27 0,3 1,6 2,8 78,89 126,201 126,320 0,11 7,20 16,20 h 3 c 25,-7 50,-13 76,-13 26,0 51,6 76,13 2,1 4,1 6,1 10,0 16,-7 16,-14 0,-2 0,-5 -2,-7 L 35,160 h 154 v 101 c 0,10 2,21 10,26 z"
         fill="currentColor"
         id="path2354" />
    </g>
  </a>
  <a
     style="color:inherit"
     xlink:href="textedit://C:/Users/Javier/Documents/lilypond%20scores/shifting.ly:347:4:5"
     id="a2364"
     transform="translate(-5.6906,-15.4642)">
    <g
       transform="translate(102.278,27.2127)"
       id="g2362">
      <path
         transform="scale(0.0044,-0.0044)"
         d="m 220,135 c 54,0 106,-27 106,-87 0,-71 -56,-120 -103,-148 -36,-21 -76,-35 -117,-35 -54,0 -106,27 -106,87 0,71 56,120 103,148 36,21 76,35 117,35 z"
         fill="currentColor"
         id="path2360" />
    </g>
  </a>
  <g
     transform="translate(105.7238,9.5485001)"
     id="g2368">
    <rect
       x="-0.067199998"
       y="4.6110001"
       width="0.1345"
       height="2.539"
       ry="0.039999999"
       fill="currentColor"
       id="rect2366" />
  </g>
  <a
     style="color:inherit"
     xlink:href="textedit://C:/Users/Javier/Documents/lilypond%20scores/shifting.ly:347:8:9"
     id="a2374"
     transform="translate(-5.6906,-15.4642)">
    <g
       transform="translate(104.5453,27.7627)"
       id="g2372">
      <path
         transform="scale(0.0044,-0.0044)"
         d="m 220,135 c 54,0 106,-27 106,-87 0,-71 -56,-120 -103,-148 -36,-21 -76,-35 -117,-35 -54,0 -106,27 -106,87 0,71 56,120 103,148 36,21 76,35 117,35 z"
         fill="currentColor"
         id="path2370" />
    </g>
  </a>
  <g
     transform="translate(94.3873,9.5485001)"
     id="g2378">
    <rect
       x="-0.067199998"
       y="1.8609999"
       width="0.1345"
       height="5.289"
       ry="0.039999999"
       fill="currentColor"
       id="rect2376" />
  </g>
  <a
     style="color:inherit"
     xlink:href="textedit://C:/Users/Javier/Documents/lilypond%20scores/shifting.ly:346:31:32"
     id="a2384"
     transform="translate(-5.6906,-15.4642)">
    <g
       transform="translate(100.3018,22.211)"
       id="g2382">
      <path
         transform="scale(0.0025,-0.0025)"
         d="m 0,250 127,250 c 3,6 12,3 20,0 14,-6 28,-13 44,-13 16,0 30,7 44,13 1,1 4,1 5,1 8,0 15,-10 15,-21 V 127 c 0,-52 32,-99 80,-99 9,0 13,-7 13,-14 C 348,7 344,0 335,0 287,0 239,13 191,13 143,13 96,0 48,0 39,0 34,7 34,14 c 0,7 5,14 14,14 48,0 79,47 79,99 v 220 c 0,15 -10,22 -19,22 -5,0 -10,-1 -12,-6 L 31,234 c -3,-7 -9,-9 -15,-9 -9,0 -18,7 -18,17 0,3 1,5 2,8 z"
         fill="currentColor"
         id="path2380" />
    </g>
  </a>
  <a
     style="color:inherit"
     xlink:href="textedit://C:/Users/Javier/Documents/lilypond%20scores/shifting.ly:346:28:29"
     id="a2390"
     transform="translate(-5.6906,-15.4642)">
    <g
       transform="translate(100.0107,26.6627)"
       id="g2388">
      <path
         transform="scale(0.0044,-0.0044)"
         d="m 220,135 c 54,0 106,-27 106,-87 0,-71 -56,-120 -103,-148 -36,-21 -76,-35 -117,-35 -54,0 -106,27 -106,87 0,71 56,120 103,148 36,21 76,35 117,35 z"
         fill="currentColor"
         id="path2386" />
    </g>
  </a>
  <g
     transform="translate(103.4565,9.5485001)"
     id="g2394">
    <rect
       x="-0.067199998"
       y="4.0609999"
       width="0.1345"
       height="3.089"
       ry="0.039999999"
       fill="currentColor"
       id="rect2392" />
  </g>
  <a
     style="color:inherit"
     xlink:href="textedit://C:/Users/Javier/Documents/lilypond%20scores/shifting.ly:347:19:20"
     id="a2400"
     transform="translate(-5.6906,-15.4642)">
    <g
       transform="translate(109.3368,22.211)"
       id="g2398">
      <path
         transform="scale(0.0025,-0.0025)"
         d="m 125,147 h 10 c 35,0 73,-12 110,-39 19,-14 41,-22 60,-22 22,0 40,10 46,31 2,7 7,11 13,11 7,0 14,-6 14,-14 0,-1 -1,-3 -1,-4 C 358,40 295,0 233,0 195,0 159,15 133,47 121,62 104,69 88,69 59,69 31,48 28,13 27,4 21,0 14,0 7,0 0,5 0,14 c 0,174 233,163 233,341 0,57 -14,117 -63,117 -31,0 -61,-14 -61,-41 0,-25 32,-39 32,-64 0,-35 -28,-64 -63,-64 -35,0 -64,29 -64,64 0,78 74,133 156,133 98,0 191,-55 191,-145 C 361,210 223,198 125,147 Z"
         fill="currentColor"
         id="path2396" />
    </g>
  </a>
  <a
     style="color:inherit"
     xlink:href="textedit://C:/Users/Javier/Documents/lilypond%20scores/shifting.ly:347:18:19"
     id="a2406"
     transform="translate(-5.6906,-15.4642)">
    <g
       transform="translate(109.0799,28.8627)"
       id="g2404">
      <path
         transform="scale(0.0044,-0.0044)"
         d="m 220,135 c 54,0 106,-27 106,-87 0,-71 -56,-120 -103,-148 -36,-21 -76,-35 -117,-35 -54,0 -106,27 -106,87 0,71 56,120 103,148 36,21 76,35 117,35 z"
         fill="currentColor"
         id="path2402" />
    </g>
  </a>
  <g
     transform="translate(92.12,9.5485001)"
     id="g2410">
    <rect
       x="-0.067199998"
       y="1.311"
       width="0.1345"
       height="5.8390002"
       ry="0.039999999"
       fill="currentColor"
       id="rect2408" />
  </g>
  <g
     transform="translate(101.1892,9.5485001)"
     id="g2414">
    <rect
       x="-0.067199998"
       y="3.5109999"
       width="0.1345"
       height="3.6389999"
       ry="0.039999999"
       fill="currentColor"
       id="rect2412" />
  </g>
  <a
     style="color:inherit"
     xlink:href="textedit://C:/Users/Javier/Documents/lilypond%20scores/shifting.ly:347:15:16"
     id="a2420"
     transform="translate(-5.6906,-15.4642)">
    <g
       transform="translate(107.1037,22.211)"
       id="g2418">
      <path
         transform="scale(0.0025,-0.0025)"
         d="m 155,472 c -33,0 -68,-8 -68,-36 0,-20 33,-24 33,-44 0,-29 -24,-53 -53,-53 -29,0 -53,24 -53,53 0,66 69,108 141,108 93,0 173,-31 173,-113 0,-41 -7,-78 -43,-95 -11,-5 -16,-16 -16,-26 0,-10 5,-21 16,-26 40,-19 59,-54 59,-99 C 344,47 261,0 159,0 78,0 0,44 0,118 c 0,34 27,61 61,61 34,0 60,-27 60,-61 0,-23 -37,-27 -37,-50 0,-31 39,-40 75,-40 47,0 57,59 57,113 v 35 c 0,42 -4,73 -44,73 H 97 c -12,0 -17,8 -17,17 0,9 5,17 17,17 h 75 c 41,0 44,33 44,77 v 27 c 0,51 -15,85 -61,85 z"
         fill="currentColor"
         id="path2416" />
    </g>
  </a>
  <a
     style="color:inherit"
     xlink:href="textedit://C:/Users/Javier/Documents/lilypond%20scores/shifting.ly:347:12:13"
     id="a2426"
     transform="translate(-5.6906,-15.4642)">
    <g
       transform="translate(106.8126,28.3127)"
       id="g2424">
      <path
         transform="scale(0.0044,-0.0044)"
         d="m 220,135 c 54,0 106,-27 106,-87 0,-71 -56,-120 -103,-148 -36,-21 -76,-35 -117,-35 -54,0 -106,27 -106,87 0,71 56,120 103,148 36,21 76,35 117,35 z"
         fill="currentColor"
         id="path2422" />
    </g>
  </a>
  <a
     style="color:inherit"
     xlink:href="textedit://C:/Users/Javier/Documents/lilypond%20scores/shifting.ly:347:22:23"
     id="a2432"
     transform="translate(-5.6906,-15.4642)">
    <g
       transform="translate(111.3472,29.4127)"
       id="g2430">
      <path
         transform="scale(0.0044,-0.0044)"
         d="m 220,135 c 54,0 106,-27 106,-87 0,-71 -56,-120 -103,-148 -36,-21 -76,-35 -117,-35 -54,0 -106,27 -106,87 0,71 56,120 103,148 36,21 76,35 117,35 z"
         fill="currentColor"
         id="path2428" />
    </g>
  </a>
  <g
     transform="translate(98.9219,9.5485001)"
     id="g2436">
    <rect
       x="-0.067199998"
       y="2.961"
       width="0.1345"
       height="4.1890001"
       ry="0.039999999"
       fill="currentColor"
       id="rect2434" />
  </g>
  <a
     style="color:inherit"
     xlink:href="textedit://C:/Users/Javier/Documents/lilypond%20scores/shifting.ly:347:9:10"
     id="a2442"
     transform="translate(-5.6906,-15.4642)">
    <g
       transform="translate(104.8364,22.211)"
       id="g2440">
      <path
         transform="scale(0.0025,-0.0025)"
         d="m 155,472 c -33,0 -68,-8 -68,-36 0,-20 33,-24 33,-44 0,-29 -24,-53 -53,-53 -29,0 -53,24 -53,53 0,66 69,108 141,108 93,0 173,-31 173,-113 0,-41 -7,-78 -43,-95 -11,-5 -16,-16 -16,-26 0,-10 5,-21 16,-26 40,-19 59,-54 59,-99 C 344,47 261,0 159,0 78,0 0,44 0,118 c 0,34 27,61 61,61 34,0 60,-27 60,-61 0,-23 -37,-27 -37,-50 0,-31 39,-40 75,-40 47,0 57,59 57,113 v 35 c 0,42 -4,73 -44,73 H 97 c -12,0 -17,8 -17,17 0,9 5,17 17,17 h 75 c 41,0 44,33 44,77 v 27 c 0,51 -15,85 -61,85 z"
         fill="currentColor"
         id="path2438" />
    </g>
  </a>
  <a
     style="color:inherit"
     xlink:href="textedit://C:/Users/Javier/Documents/lilypond%20scores/shifting.ly:346:5:6"
     id="a2448"
     transform="translate(-5.6906,-15.4642)">
    <g
       transform="translate(88.8799,22.211)"
       id="g2446">
      <path
         transform="scale(0.0025,-0.0025)"
         d="m 199,287 c 23,15 47,31 64,53 12,16 19,33 28,51 2,4 7,7 11,7 7,0 15,-6 15,-17 V 160 h 78 c 12,0 17,-9 17,-18 0,-9 -5,-17 -17,-17 h -78 c 1,-51 32,-97 79,-97 9,0 14,-7 14,-14 C 410,7 405,0 396,0 348,0 301,13 253,13 205,13 158,0 110,0 101,0 96,7 96,14 c 0,7 5,14 14,14 47,0 78,46 79,97 H 35 c -28,0 -37,16 -37,27 0,3 1,6 2,8 78,89 126,201 126,320 0,11 7,20 16,20 h 3 c 25,-7 50,-13 76,-13 26,0 51,6 76,13 2,1 4,1 6,1 10,0 16,-7 16,-14 0,-2 0,-5 -2,-7 L 35,160 h 154 v 101 c 0,10 2,21 10,26 z"
         fill="currentColor"
         id="path2444" />
    </g>
  </a>
  <g
     transform="translate(85.3181,9.5485001)"
     id="g2452">
    <rect
       x="-0.067199998"
       y="-0.33899999"
       width="0.1345"
       height="7.4889998"
       ry="0.039999999"
       fill="currentColor"
       id="rect2450" />
  </g>
  <a
     style="color:inherit"
     xlink:href="textedit://C:/Users/Javier/Documents/lilypond%20scores/shifting.ly:346:11:12"
     id="a2458"
     transform="translate(-5.6906,-15.4642)">
    <g
       transform="translate(91.1472,22.211)"
       id="g2456">
      <path
         transform="scale(0.0025,-0.0025)"
         d="m 199,287 c 23,15 47,31 64,53 12,16 19,33 28,51 2,4 7,7 11,7 7,0 15,-6 15,-17 V 160 h 78 c 12,0 17,-9 17,-18 0,-9 -5,-17 -17,-17 h -78 c 1,-51 32,-97 79,-97 9,0 14,-7 14,-14 C 410,7 405,0 396,0 348,0 301,13 253,13 205,13 158,0 110,0 101,0 96,7 96,14 c 0,7 5,14 14,14 47,0 78,46 79,97 H 35 c -28,0 -37,16 -37,27 0,3 1,6 2,8 78,89 126,201 126,320 0,11 7,20 16,20 h 3 c 25,-7 50,-13 76,-13 26,0 51,6 76,13 2,1 4,1 6,1 10,0 16,-7 16,-14 0,-2 0,-5 -2,-7 L 35,160 h 154 v 101 c 0,10 2,21 10,26 z"
         fill="currentColor"
         id="path2454" />
    </g>
  </a>
  <a
     style="color:inherit"
     xlink:href="textedit://C:/Users/Javier/Documents/lilypond%20scores/shifting.ly:346:8:9"
     id="a2464"
     transform="translate(-5.6906,-15.4642)">
    <g
       transform="translate(90.9415,24.4627)"
       id="g2462">
      <path
         transform="scale(0.0044,-0.0044)"
         d="m 220,135 c 54,0 106,-27 106,-87 0,-71 -56,-120 -103,-148 -36,-21 -76,-35 -117,-35 -54,0 -106,27 -106,87 0,71 56,120 103,148 36,21 76,35 117,35 z"
         fill="currentColor"
         id="path2460" />
    </g>
  </a>
  <g
     transform="translate(83.0508,9.5485001)"
     id="g2468">
    <rect
       x="-0.067199998"
       y="-0.889"
       width="0.1345"
       height="8.0389996"
       ry="0.039999999"
       fill="currentColor"
       id="rect2466" />
  </g>
  <a
     style="color:inherit"
     xlink:href="textedit://C:/Users/Javier/Documents/lilypond%20scores/shifting.ly:346:4:5"
     id="a2474"
     transform="translate(-5.6906,-15.4642)">
    <g
       transform="translate(88.6742,23.9127)"
       id="g2472">
      <path
         transform="scale(0.0044,-0.0044)"
         d="m 220,135 c 54,0 106,-27 106,-87 0,-71 -56,-120 -103,-148 -36,-21 -76,-35 -117,-35 -54,0 -106,27 -106,87 0,71 56,120 103,148 36,21 76,35 117,35 z"
         fill="currentColor"
         id="path2470" />
    </g>
  </a>
  <g
     transform="translate(80.7835,9.5485001)"
     id="g2478">
    <rect
       x="-0.067199998"
       y="-1.439"
       width="0.1345"
       height="8.5889997"
       ry="0.039999999"
       fill="currentColor"
       id="rect2476" />
  </g>
  <a
     style="color:inherit"
     xlink:href="textedit://C:/Users/Javier/Documents/lilypond%20scores/shifting.ly:345:25:26"
     id="a2484"
     transform="translate(-5.6906,-15.4642)">
    <g
       transform="translate(86.698,22.211)"
       id="g2482">
      <path
         transform="scale(0.0025,-0.0025)"
         d="m 0,250 127,250 c 3,6 12,3 20,0 14,-6 28,-13 44,-13 16,0 30,7 44,13 1,1 4,1 5,1 8,0 15,-10 15,-21 V 127 c 0,-52 32,-99 80,-99 9,0 13,-7 13,-14 C 348,7 344,0 335,0 287,0 239,13 191,13 143,13 96,0 48,0 39,0 34,7 34,14 c 0,7 5,14 14,14 48,0 79,47 79,99 v 220 c 0,15 -10,22 -19,22 -5,0 -10,-1 -12,-6 L 31,234 c -3,-7 -9,-9 -15,-9 -9,0 -18,7 -18,17 0,3 1,5 2,8 z"
         fill="currentColor"
         id="path2480" />
    </g>
  </a>
  <a
     style="color:inherit"
     xlink:href="textedit://C:/Users/Javier/Documents/lilypond%20scores/shifting.ly:345:24:25"
     id="a2490"
     transform="translate(-5.6906,-15.4642)">
    <g
       transform="translate(86.4069,23.3627)"
       id="g2488">
      <path
         transform="scale(0.0044,-0.0044)"
         d="m 220,135 c 54,0 106,-27 106,-87 0,-71 -56,-120 -103,-148 -36,-21 -76,-35 -117,-35 -54,0 -106,27 -106,87 0,71 56,120 103,148 36,21 76,35 117,35 z"
         fill="currentColor"
         id="path2486" />
    </g>
  </a>
  <a
     style="color:inherit"
     xlink:href="textedit://C:/Users/Javier/Documents/lilypond%20scores/shifting.ly:346:25:26"
     id="a2496"
     transform="translate(-5.6906,-15.4642)">
    <g
       transform="translate(98.0003,22.211)"
       id="g2494">
      <path
         transform="scale(0.0025,-0.0025)"
         d="m 125,147 h 10 c 35,0 73,-12 110,-39 19,-14 41,-22 60,-22 22,0 40,10 46,31 2,7 7,11 13,11 7,0 14,-6 14,-14 0,-1 -1,-3 -1,-4 C 358,40 295,0 233,0 195,0 159,15 133,47 121,62 104,69 88,69 59,69 31,48 28,13 27,4 21,0 14,0 7,0 0,5 0,14 c 0,174 233,163 233,341 0,57 -14,117 -63,117 -31,0 -61,-14 -61,-41 0,-25 32,-39 32,-64 0,-35 -28,-64 -63,-64 -35,0 -64,29 -64,64 0,78 74,133 156,133 98,0 191,-55 191,-145 C 361,210 223,198 125,147 Z"
         fill="currentColor"
         id="path2492" />
    </g>
  </a>
  <a
     style="color:inherit"
     xlink:href="textedit://C:/Users/Javier/Documents/lilypond%20scores/shifting.ly:346:22:23"
     id="a2502"
     transform="translate(-5.6906,-15.4642)">
    <g
       transform="translate(97.7434,26.1127)"
       id="g2500">
      <path
         transform="scale(0.0044,-0.0044)"
         d="m 220,135 c 54,0 106,-27 106,-87 0,-71 -56,-120 -103,-148 -36,-21 -76,-35 -117,-35 -54,0 -106,27 -106,87 0,71 56,120 103,148 36,21 76,35 117,35 z"
         fill="currentColor"
         id="path2498" />
    </g>
  </a>
  <g
     transform="translate(89.8527,9.5485001)"
     id="g2506">
    <rect
       x="-0.067199998"
       y="0.76099998"
       width="0.1345"
       height="6.3889999"
       ry="0.039999999"
       fill="currentColor"
       id="rect2504" />
  </g>
  <a
     style="color:inherit"
     xlink:href="textedit://C:/Users/Javier/Documents/lilypond%20scores/shifting.ly:346:19:20"
     id="a2512"
     transform="translate(-5.6906,-15.4642)">
    <g
       transform="translate(95.733,22.211)"
       id="g2510">
      <path
         transform="scale(0.0025,-0.0025)"
         d="m 125,147 h 10 c 35,0 73,-12 110,-39 19,-14 41,-22 60,-22 22,0 40,10 46,31 2,7 7,11 13,11 7,0 14,-6 14,-14 0,-1 -1,-3 -1,-4 C 358,40 295,0 233,0 195,0 159,15 133,47 121,62 104,69 88,69 59,69 31,48 28,13 27,4 21,0 14,0 7,0 0,5 0,14 c 0,174 233,163 233,341 0,57 -14,117 -63,117 -31,0 -61,-14 -61,-41 0,-25 32,-39 32,-64 0,-35 -28,-64 -63,-64 -35,0 -64,29 -64,64 0,78 74,133 156,133 98,0 191,-55 191,-145 C 361,210 223,198 125,147 Z"
         fill="currentColor"
         id="path2508" />
    </g>
  </a>
  <a
     style="color:inherit"
     xlink:href="textedit://C:/Users/Javier/Documents/lilypond%20scores/shifting.ly:346:18:19"
     id="a2518"
     transform="translate(-5.6906,-15.4642)">
    <g
       transform="translate(95.4761,25.5627)"
       id="g2516">
      <path
         transform="scale(0.0044,-0.0044)"
         d="m 220,135 c 54,0 106,-27 106,-87 0,-71 -56,-120 -103,-148 -36,-21 -76,-35 -117,-35 -54,0 -106,27 -106,87 0,71 56,120 103,148 36,21 76,35 117,35 z"
         fill="currentColor"
         id="path2514" />
    </g>
  </a>
  <g
     transform="translate(87.5854,9.5485001)"
     id="g2522">
    <rect
       x="-0.067199998"
       y="0.211"
       width="0.1345"
       height="6.9390001"
       ry="0.039999999"
       fill="currentColor"
       id="rect2520" />
  </g>
  <a
     style="color:inherit"
     xlink:href="textedit://C:/Users/Javier/Documents/lilypond%20scores/shifting.ly:346:15:16"
     id="a2528"
     transform="translate(-5.6906,-15.4642)">
    <g
       transform="translate(93.4999,22.211)"
       id="g2526">
      <path
         transform="scale(0.0025,-0.0025)"
         d="m 155,472 c -33,0 -68,-8 -68,-36 0,-20 33,-24 33,-44 0,-29 -24,-53 -53,-53 -29,0 -53,24 -53,53 0,66 69,108 141,108 93,0 173,-31 173,-113 0,-41 -7,-78 -43,-95 -11,-5 -16,-16 -16,-26 0,-10 5,-21 16,-26 40,-19 59,-54 59,-99 C 344,47 261,0 159,0 78,0 0,44 0,118 c 0,34 27,61 61,61 34,0 60,-27 60,-61 0,-23 -37,-27 -37,-50 0,-31 39,-40 75,-40 47,0 57,59 57,113 v 35 c 0,42 -4,73 -44,73 H 97 c -12,0 -17,8 -17,17 0,9 5,17 17,17 h 75 c 41,0 44,33 44,77 v 27 c 0,51 -15,85 -61,85 z"
         fill="currentColor"
         id="path2524" />
    </g>
  </a>
  <a
     style="color:inherit"
     xlink:href="textedit://C:/Users/Javier/Documents/lilypond%20scores/shifting.ly:346:14:15"
     id="a2534"
     transform="translate(-5.6906,-15.4642)">
    <g
       transform="translate(93.2088,25.0127)"
       id="g2532">
      <path
         transform="scale(0.0044,-0.0044)"
         d="m 220,135 c 54,0 106,-27 106,-87 0,-71 -56,-120 -103,-148 -36,-21 -76,-35 -117,-35 -54,0 -106,27 -106,87 0,71 56,120 103,148 36,21 76,35 117,35 z"
         fill="currentColor"
         id="path2530" />
    </g>
  </a>
  <a
     style="color:inherit"
     xlink:href="textedit://C:/Users/Javier/Documents/lilypond%20scores/shifting.ly:342:13:14"
     id="a2540"
     transform="translate(-5.6906,-15.4642)">
    <g
       transform="translate(29.9813,22.211)"
       id="g2538">
      <path
         transform="scale(0.0025,-0.0025)"
         d="m 125,147 h 10 c 35,0 73,-12 110,-39 19,-14 41,-22 60,-22 22,0 40,10 46,31 2,7 7,11 13,11 7,0 14,-6 14,-14 0,-1 -1,-3 -1,-4 C 358,40 295,0 233,0 195,0 159,15 133,47 121,62 104,69 88,69 59,69 31,48 28,13 27,4 21,0 14,0 7,0 0,5 0,14 c 0,174 233,163 233,341 0,57 -14,117 -63,117 -31,0 -61,-14 -61,-41 0,-25 32,-39 32,-64 0,-35 -28,-64 -63,-64 -35,0 -64,29 -64,64 0,78 74,133 156,133 98,0 191,-55 191,-145 C 361,210 223,198 125,147 Z"
         fill="currentColor"
         id="path2536" />
    </g>
  </a>
  <a
     style="color:inherit"
     xlink:href="textedit://C:/Users/Javier/Documents/lilypond%20scores/shifting.ly:342:10:11"
     id="a2546"
     transform="translate(-5.6906,-15.4642)">
    <g
       transform="translate(29.7244,26.1127)"
       id="g2544">
      <path
         transform="scale(0.0044,-0.0044)"
         d="m 220,135 c 54,0 106,-27 106,-87 0,-71 -56,-120 -103,-148 -36,-21 -76,-35 -117,-35 -54,0 -106,27 -106,87 0,71 56,120 103,148 36,21 76,35 117,35 z"
         fill="currentColor"
         id="path2542" />
    </g>
  </a>
  <g
     transform="translate(21.8337,9.5485001)"
     id="g2550">
    <rect
       x="-0.067199998"
       y="1.8609999"
       width="0.1345"
       height="5.289"
       ry="0.039999999"
       fill="currentColor"
       id="rect2548" />
  </g>
  <a
     style="color:inherit"
     xlink:href="textedit://C:/Users/Javier/Documents/lilypond%20scores/shifting.ly:342:7:8"
     id="a2556"
     transform="translate(-5.6906,-15.4642)">
    <g
       transform="translate(27.7481,22.211)"
       id="g2554">
      <path
         transform="scale(0.0025,-0.0025)"
         d="m 0,250 127,250 c 3,6 12,3 20,0 14,-6 28,-13 44,-13 16,0 30,7 44,13 1,1 4,1 5,1 8,0 15,-10 15,-21 V 127 c 0,-52 32,-99 80,-99 9,0 13,-7 13,-14 C 348,7 344,0 335,0 287,0 239,13 191,13 143,13 96,0 48,0 39,0 34,7 34,14 c 0,7 5,14 14,14 48,0 79,47 79,99 v 220 c 0,15 -10,22 -19,22 -5,0 -10,-1 -12,-6 L 31,234 c -3,-7 -9,-9 -15,-9 -9,0 -18,7 -18,17 0,3 1,5 2,8 z"
         fill="currentColor"
         id="path2552" />
    </g>
  </a>
  <a
     style="color:inherit"
     xlink:href="textedit://C:/Users/Javier/Documents/lilypond%20scores/shifting.ly:342:4:5"
     id="a2562"
     transform="translate(-5.6906,-15.4642)">
    <g
       transform="translate(27.4571,26.6627)"
       id="g2560">
      <path
         transform="scale(0.0044,-0.0044)"
         d="m 220,135 c 54,0 106,-27 106,-87 0,-71 -56,-120 -103,-148 -36,-21 -76,-35 -117,-35 -54,0 -106,27 -106,87 0,71 56,120 103,148 36,21 76,35 117,35 z"
         fill="currentColor"
         id="path2558" />
    </g>
  </a>
  <g
     transform="translate(24.101,9.5485001)"
     id="g2566">
    <rect
       x="-0.067199998"
       y="1.311"
       width="0.1345"
       height="5.8390002"
       ry="0.039999999"
       fill="currentColor"
       id="rect2564" />
  </g>
  <g
     transform="translate(19.5664,9.5485001)"
     id="g2570">
    <rect
       x="-0.067199998"
       y="2.411"
       width="0.1345"
       height="4.7389998"
       ry="0.039999999"
       fill="currentColor"
       id="rect2568" />
  </g>
  <a
     style="color:inherit"
     xlink:href="textedit://C:/Users/Javier/Documents/lilypond%20scores/shifting.ly:341:26:27"
     id="a2576"
     transform="translate(-5.6906,-15.4642)">
    <g
       transform="translate(25.3955,22.211)"
       id="g2574">
      <path
         transform="scale(0.0025,-0.0025)"
         d="m 199,287 c 23,15 47,31 64,53 12,16 19,33 28,51 2,4 7,7 11,7 7,0 15,-6 15,-17 V 160 h 78 c 12,0 17,-9 17,-18 0,-9 -5,-17 -17,-17 h -78 c 1,-51 32,-97 79,-97 9,0 14,-7 14,-14 C 410,7 405,0 396,0 348,0 301,13 253,13 205,13 158,0 110,0 101,0 96,7 96,14 c 0,7 5,14 14,14 47,0 78,46 79,97 H 35 c -28,0 -37,16 -37,27 0,3 1,6 2,8 78,89 126,201 126,320 0,11 7,20 16,20 h 3 c 25,-7 50,-13 76,-13 26,0 51,6 76,13 2,1 4,1 6,1 10,0 16,-7 16,-14 0,-2 0,-5 -2,-7 L 35,160 h 154 v 101 c 0,10 2,21 10,26 z"
         fill="currentColor"
         id="path2572" />
    </g>
  </a>
  <a
     style="color:inherit"
     xlink:href="textedit://C:/Users/Javier/Documents/lilypond%20scores/shifting.ly:341:25:26"
     id="a2582"
     transform="translate(-5.6906,-15.4642)">
    <g
       transform="translate(25.1898,27.2127)"
       id="g2580">
      <path
         transform="scale(0.0044,-0.0044)"
         d="m 220,135 c 54,0 106,-27 106,-87 0,-71 -56,-120 -103,-148 -36,-21 -76,-35 -117,-35 -54,0 -106,27 -106,87 0,71 56,120 103,148 36,21 76,35 117,35 z"
         fill="currentColor"
         id="path2578" />
    </g>
  </a>
  <g
     transform="translate(28.6356,9.5485001)"
     id="g2586">
    <rect
       x="-0.067199998"
       y="0.211"
       width="0.1345"
       height="6.9390001"
       ry="0.039999999"
       fill="currentColor"
       id="rect2584" />
  </g>
  <a
     style="color:inherit"
     xlink:href="textedit://C:/Users/Javier/Documents/lilypond%20scores/shifting.ly:342:21:22"
     id="a2592"
     transform="translate(-5.6906,-15.4642)">
    <g
       transform="translate(34.55,22.211)"
       id="g2590">
      <path
         transform="scale(0.0025,-0.0025)"
         d="m 155,472 c -33,0 -68,-8 -68,-36 0,-20 33,-24 33,-44 0,-29 -24,-53 -53,-53 -29,0 -53,24 -53,53 0,66 69,108 141,108 93,0 173,-31 173,-113 0,-41 -7,-78 -43,-95 -11,-5 -16,-16 -16,-26 0,-10 5,-21 16,-26 40,-19 59,-54 59,-99 C 344,47 261,0 159,0 78,0 0,44 0,118 c 0,34 27,61 61,61 34,0 60,-27 60,-61 0,-23 -37,-27 -37,-50 0,-31 39,-40 75,-40 47,0 57,59 57,113 v 35 c 0,42 -4,73 -44,73 H 97 c -12,0 -17,8 -17,17 0,9 5,17 17,17 h 75 c 41,0 44,33 44,77 v 27 c 0,51 -15,85 -61,85 z"
         fill="currentColor"
         id="path2588" />
    </g>
  </a>
  <a
     style="color:inherit"
     xlink:href="textedit://C:/Users/Javier/Documents/lilypond%20scores/shifting.ly:342:20:21"
     id="a2598"
     transform="translate(-5.6906,-15.4642)">
    <g
       transform="translate(34.259,25.0127)"
       id="g2596">
      <path
         transform="scale(0.0044,-0.0044)"
         d="m 220,135 c 54,0 106,-27 106,-87 0,-71 -56,-120 -103,-148 -36,-21 -76,-35 -117,-35 -54,0 -106,27 -106,87 0,71 56,120 103,148 36,21 76,35 117,35 z"
         fill="currentColor"
         id="path2594" />
    </g>
  </a>
  <g
     transform="translate(51.3086,9.5485001)"
     id="g2602">
    <rect
       x="-0.067199998"
       y="-5.289"
       width="0.1345"
       height="12.439"
       ry="0.039999999"
       fill="currentColor"
       id="rect2600" />
  </g>
  <g
     transform="translate(26.3683,9.5485001)"
     id="g2606">
    <rect
       x="-0.067199998"
       y="0.76099998"
       width="0.1345"
       height="6.3889999"
       ry="0.039999999"
       fill="currentColor"
       id="rect2604" />
  </g>
  <a
     style="color:inherit"
     xlink:href="textedit://C:/Users/Javier/Documents/lilypond%20scores/shifting.ly:342:17:18"
     id="a2612"
     transform="translate(-5.6906,-15.4642)">
    <g
       transform="translate(32.2486,22.211)"
       id="g2610">
      <path
         transform="scale(0.0025,-0.0025)"
         d="m 125,147 h 10 c 35,0 73,-12 110,-39 19,-14 41,-22 60,-22 22,0 40,10 46,31 2,7 7,11 13,11 7,0 14,-6 14,-14 0,-1 -1,-3 -1,-4 C 358,40 295,0 233,0 195,0 159,15 133,47 121,62 104,69 88,69 59,69 31,48 28,13 27,4 21,0 14,0 7,0 0,5 0,14 c 0,174 233,163 233,341 0,57 -14,117 -63,117 -31,0 -61,-14 -61,-41 0,-25 32,-39 32,-64 0,-35 -28,-64 -63,-64 -35,0 -64,29 -64,64 0,78 74,133 156,133 98,0 191,-55 191,-145 C 361,210 223,198 125,147 Z"
         fill="currentColor"
         id="path2608" />
    </g>
  </a>
  <a
     style="color:inherit"
     xlink:href="textedit://C:/Users/Javier/Documents/lilypond%20scores/shifting.ly:342:16:17"
     id="a2618"
     transform="translate(-5.6906,-15.4642)">
    <g
       transform="translate(31.9917,25.5627)"
       id="g2616">
      <path
         transform="scale(0.0044,-0.0044)"
         d="m 220,135 c 54,0 106,-27 106,-87 0,-71 -56,-120 -103,-148 -36,-21 -76,-35 -117,-35 -54,0 -106,27 -106,87 0,71 56,120 103,148 36,21 76,35 117,35 z"
         fill="currentColor"
         id="path2614" />
    </g>
  </a>
  <g
     transform="translate(10.4972,9.5485001)"
     id="g2622">
    <rect
       x="-0.067199998"
       y="4.6110001"
       width="0.1345"
       height="2.539"
       ry="0.039999999"
       fill="currentColor"
       id="rect2620" />
  </g>
  <a
     style="color:inherit"
     xlink:href="textedit://C:/Users/Javier/Documents/lilypond%20scores/shifting.ly:339:4:5"
     id="a2636"
     transform="translate(-5.6906,-15.4642)">
    <g
       transform="translate(9.9906,22.8127)"
       id="g2626">
      <path
         transform="scale(0.0044,-0.0044)"
         d="m 216,-314 c 0,-10 -8,-18 -18,-18 -10,0 -18,8 -18,18 v 148 l -85,-31 v -160 c 0,-10 -8,-18 -18,-18 -10,0 -18,8 -18,18 v 148 l -35,-13 c -2,-1 -4,-1 -6,-1 -9,0 -18,8 -18,18 v 62 c 0,8 5,14 12,17 l 47,17 V 53 L 24,40 C 22,39 20,39 18,39 9,39 0,47 0,57 v 63 c 0,8 5,14 12,17 l 47,17 v 160 c 0,10 8,18 18,18 10,0 18,-8 18,-18 V 166 l 85,31 v 160 c 0,10 8,18 18,18 10,0 18,-8 18,-18 V 209 l 35,13 c 2,1 4,1 6,1 9,0 18,-8 18,-18 v -62 c 0,-8 -5,-14 -12,-17 L 216,109 V -53 l 35,13 c 2,1 4,1 6,1 9,0 18,-8 18,-18 v -63 c 0,-8 -5,-14 -12,-17 l -47,-17 z M 95,66 V -96 l 85,30 V 96 Z"
         fill="currentColor"
         id="path2624" />
    </g>
    <g
       transform="translate(11.2006,24.4627)"
       id="g2630">
      <path
         transform="scale(0.0044,-0.0044)"
         d="m 216,-314 c 0,-10 -8,-18 -18,-18 -10,0 -18,8 -18,18 v 148 l -85,-31 v -160 c 0,-10 -8,-18 -18,-18 -10,0 -18,8 -18,18 v 148 l -35,-13 c -2,-1 -4,-1 -6,-1 -9,0 -18,8 -18,18 v 62 c 0,8 5,14 12,17 l 47,17 V 53 L 24,40 C 22,39 20,39 18,39 9,39 0,47 0,57 v 63 c 0,8 5,14 12,17 l 47,17 v 160 c 0,10 8,18 18,18 10,0 18,-8 18,-18 V 166 l 85,31 v 160 c 0,10 8,18 18,18 10,0 18,-8 18,-18 V 209 l 35,13 c 2,1 4,1 6,1 9,0 18,-8 18,-18 v -62 c 0,-8 -5,-14 -12,-17 L 216,109 V -53 l 35,13 c 2,1 4,1 6,1 9,0 18,-8 18,-18 v -63 c 0,-8 -5,-14 -12,-17 l -47,-17 z M 95,66 V -96 l 85,30 V 96 Z"
         fill="currentColor"
         id="path2628" />
    </g>
    <g
       transform="translate(12.4106,22.2627)"
       id="g2634">
      <path
         transform="scale(0.0044,-0.0044)"
         d="m 216,-314 c 0,-10 -8,-18 -18,-18 -10,0 -18,8 -18,18 v 148 l -85,-31 v -160 c 0,-10 -8,-18 -18,-18 -10,0 -18,8 -18,18 v 148 l -35,-13 c -2,-1 -4,-1 -6,-1 -9,0 -18,8 -18,18 v 62 c 0,8 5,14 12,17 l 47,17 V 53 L 24,40 C 22,39 20,39 18,39 9,39 0,47 0,57 v 63 c 0,8 5,14 12,17 l 47,17 v 160 c 0,10 8,18 18,18 10,0 18,-8 18,-18 V 166 l 85,31 v 160 c 0,10 8,18 18,18 10,0 18,-8 18,-18 V 209 l 35,13 c 2,1 4,1 6,1 9,0 18,-8 18,-18 v -62 c 0,-8 -5,-14 -12,-17 L 216,109 V -53 l 35,13 c 2,1 4,1 6,1 9,0 18,-8 18,-18 v -63 c 0,-8 -5,-14 -12,-17 l -47,-17 z M 95,66 V -96 l 85,30 V 96 Z"
         fill="currentColor"
         id="path2632" />
    </g>
  </a>
  <g
     transform="translate(0.80000003,10.6485)"
     id="g2640">
    <path
       transform="scale(0.0044,-0.0044)"
       d="m 267,-593 -1,-41 h -5 c -108,0 -196,88 -196,196 0,58 54,104 113,104 54,0 95,-48 95,-104 0,-52 -43,-95 -95,-95 -11,0 -23,3 -34,8 26,-40 69,-68 119,-68 z m 108,854 c 5,0 9,1 14,1 155,0 255,-128 255,-260 0,-76 -33,-154 -107,-209 -22,-17 -47,-28 -73,-36 3,-35 5,-71 5,-107 0,-19 -1,-38 -2,-57 -7,-119 -87,-224 -201,-227 l 1,41 c 93,2 154,93 160,192 1,18 1,36 1,54 0,31 -1,63 -4,94 -29,-5 -58,-8 -89,-8 -188,0 -333,172 -333,373 0,177 132,307 249,441 -19,63 -35,125 -43,190 -6,51 -7,103 -7,155 0,116 56,226 150,294 5,4 13,3 18,-1 70,-84 132,-245 132,-358 0,-143 -86,-255 -181,-364 20,-69 38,-138 55,-208 z m 85,-465 c 69,24 115,96 115,165 0,91 -68,182 -176,192 25,-117 47,-233 61,-357 z M 73,30 c 0,-136 130,-250 265,-250 28,0 55,2 82,6 C 406,-87 382,32 356,152 277,143 232,90 232,32 c 0,-44 26,-91 82,-123 5,-4 6,-10 6,-15 0,-11 -9,-21 -21,-21 -3,0 -5,1 -8,2 -80,43 -117,114 -117,184 0,88 58,173 159,196 -14,59 -30,119 -46,177 C 180,311 73,190 73,30 Z m 358,885 c 0,57 -4,80 -21,132 -99,-49 -162,-150 -162,-260 0,-75 17,-135 35,-197 81,97 148,199 148,325 z"
       fill="currentColor"
       id="path2638" />
  </g>
  <a
     style="color:inherit"
     xlink:href="textedit://C:/Users/Javier/Documents/lilypond%20scores/shifting.ly:341:8:9"
     id="a2646"
     transform="translate(-5.6906,-15.4642)">
    <g
       transform="translate(16.4116,22.211)"
       id="g2644">
      <path
         transform="scale(0.0025,-0.0025)"
         d="m 0,250 127,250 c 3,6 12,3 20,0 14,-6 28,-13 44,-13 16,0 30,7 44,13 1,1 4,1 5,1 8,0 15,-10 15,-21 V 127 c 0,-52 32,-99 80,-99 9,0 13,-7 13,-14 C 348,7 344,0 335,0 287,0 239,13 191,13 143,13 96,0 48,0 39,0 34,7 34,14 c 0,7 5,14 14,14 48,0 79,47 79,99 v 220 c 0,15 -10,22 -19,22 -5,0 -10,-1 -12,-6 L 31,234 c -3,-7 -9,-9 -15,-9 -9,0 -18,7 -18,17 0,3 1,5 2,8 z"
         fill="currentColor"
         id="path2642" />
    </g>
  </a>
  <a
     style="color:inherit"
     xlink:href="textedit://C:/Users/Javier/Documents/lilypond%20scores/shifting.ly:341:4:5"
     id="a2652"
     transform="translate(-5.6906,-15.4642)">
    <g
       transform="translate(16.1206,29.4127)"
       id="g2650">
      <path
         transform="scale(0.0044,-0.0044)"
         d="m 220,135 c 54,0 106,-27 106,-87 0,-71 -56,-120 -103,-148 -36,-21 -76,-35 -117,-35 -54,0 -106,27 -106,87 0,71 56,120 103,148 36,21 76,35 117,35 z"
         fill="currentColor"
         id="path2648" />
    </g>
  </a>
  <a
     style="color:inherit"
     xlink:href="textedit://C:/Users/Javier/Documents/lilypond%20scores/shifting.ly:341:18:19"
     id="a2658"
     transform="translate(-5.6906,-15.4642)">
    <g
       transform="translate(20.9462,22.211)"
       id="g2656">
      <path
         transform="scale(0.0025,-0.0025)"
         d="m 155,472 c -33,0 -68,-8 -68,-36 0,-20 33,-24 33,-44 0,-29 -24,-53 -53,-53 -29,0 -53,24 -53,53 0,66 69,108 141,108 93,0 173,-31 173,-113 0,-41 -7,-78 -43,-95 -11,-5 -16,-16 -16,-26 0,-10 5,-21 16,-26 40,-19 59,-54 59,-99 C 344,47 261,0 159,0 78,0 0,44 0,118 c 0,34 27,61 61,61 34,0 60,-27 60,-61 0,-23 -37,-27 -37,-50 0,-31 39,-40 75,-40 47,0 57,59 57,113 v 35 c 0,42 -4,73 -44,73 H 97 c -12,0 -17,8 -17,17 0,9 5,17 17,17 h 75 c 41,0 44,33 44,77 v 27 c 0,51 -15,85 -61,85 z"
         fill="currentColor"
         id="path2654" />
    </g>
  </a>
  <g
     transform="translate(17.2991,9.5485001)"
     id="g2662">
    <rect
       x="-0.067199998"
       y="2.961"
       width="0.1345"
       height="4.1890001"
       ry="0.039999999"
       fill="currentColor"
       id="rect2660" />
  </g>
  <a
     style="color:inherit"
     xlink:href="textedit://C:/Users/Javier/Documents/lilypond%20scores/shifting.ly:341:22:23"
     id="a2668"
     transform="translate(-5.6906,-15.4642)">
    <g
       transform="translate(23.2135,22.211)"
       id="g2666">
      <path
         transform="scale(0.0025,-0.0025)"
         d="m 155,472 c -33,0 -68,-8 -68,-36 0,-20 33,-24 33,-44 0,-29 -24,-53 -53,-53 -29,0 -53,24 -53,53 0,66 69,108 141,108 93,0 173,-31 173,-113 0,-41 -7,-78 -43,-95 -11,-5 -16,-16 -16,-26 0,-10 5,-21 16,-26 40,-19 59,-54 59,-99 C 344,47 261,0 159,0 78,0 0,44 0,118 c 0,34 27,61 61,61 34,0 60,-27 60,-61 0,-23 -37,-27 -37,-50 0,-31 39,-40 75,-40 47,0 57,59 57,113 v 35 c 0,42 -4,73 -44,73 H 97 c -12,0 -17,8 -17,17 0,9 5,17 17,17 h 75 c 41,0 44,33 44,77 v 27 c 0,51 -15,85 -61,85 z"
         fill="currentColor"
         id="path2664" />
    </g>
  </a>
  <a
     style="color:inherit"
     xlink:href="textedit://C:/Users/Javier/Documents/lilypond%20scores/shifting.ly:341:21:22"
     id="a2674"
     transform="translate(-5.6906,-15.4642)">
    <g
       transform="translate(22.9225,27.7627)"
       id="g2672">
      <path
         transform="scale(0.0044,-0.0044)"
         d="m 220,135 c 54,0 106,-27 106,-87 0,-71 -56,-120 -103,-148 -36,-21 -76,-35 -117,-35 -54,0 -106,27 -106,87 0,71 56,120 103,148 36,21 76,35 117,35 z"
         fill="currentColor"
         id="path2670" />
    </g>
  </a>
  <g
     transform="translate(15.0318,9.5485001)"
     id="g2678">
    <rect
       x="-0.067199998"
       y="3.5109999"
       width="0.1345"
       height="3.6389999"
       ry="0.039999999"
       fill="currentColor"
       id="rect2676" />
  </g>
  <a
     style="color:inherit"
     xlink:href="textedit://C:/Users/Javier/Documents/lilypond%20scores/shifting.ly:341:15:16"
     id="a2684"
     transform="translate(-5.6906,-15.4642)">
    <g
       transform="translate(20.6552,28.3127)"
       id="g2682">
      <path
         transform="scale(0.0044,-0.0044)"
         d="m 220,135 c 54,0 106,-27 106,-87 0,-71 -56,-120 -103,-148 -36,-21 -76,-35 -117,-35 -54,0 -106,27 -106,87 0,71 56,120 103,148 36,21 76,35 117,35 z"
         fill="currentColor"
         id="path2680" />
    </g>
  </a>
  <g
     transform="translate(12.7645,9.5485001)"
     id="g2688">
    <rect
       x="-0.067199998"
       y="4.0609999"
       width="0.1345"
       height="3.089"
       ry="0.039999999"
       fill="currentColor"
       id="rect2686" />
  </g>
  <a
     style="color:inherit"
     xlink:href="textedit://C:/Users/Javier/Documents/lilypond%20scores/shifting.ly:341:12:13"
     id="a2694"
     transform="translate(-5.6906,-15.4642)">
    <g
       transform="translate(18.6448,22.211)"
       id="g2692">
      <path
         transform="scale(0.0025,-0.0025)"
         d="m 125,147 h 10 c 35,0 73,-12 110,-39 19,-14 41,-22 60,-22 22,0 40,10 46,31 2,7 7,11 13,11 7,0 14,-6 14,-14 0,-1 -1,-3 -1,-4 C 358,40 295,0 233,0 195,0 159,15 133,47 121,62 104,69 88,69 59,69 31,48 28,13 27,4 21,0 14,0 7,0 0,5 0,14 c 0,174 233,163 233,341 0,57 -14,117 -63,117 -31,0 -61,-14 -61,-41 0,-25 32,-39 32,-64 0,-35 -28,-64 -63,-64 -35,0 -64,29 -64,64 0,78 74,133 156,133 98,0 191,-55 191,-145 C 361,210 223,198 125,147 Z"
         fill="currentColor"
         id="path2690" />
    </g>
  </a>
  <a
     style="color:inherit"
     xlink:href="textedit://C:/Users/Javier/Documents/lilypond%20scores/shifting.ly:341:11:12"
     id="a2700"
     transform="translate(-5.6906,-15.4642)">
    <g
       transform="translate(18.3879,28.8627)"
       id="g2698">
      <path
         transform="scale(0.0044,-0.0044)"
         d="m 220,135 c 54,0 106,-27 106,-87 0,-71 -56,-120 -103,-148 -36,-21 -76,-35 -117,-35 -54,0 -106,27 -106,87 0,71 56,120 103,148 36,21 76,35 117,35 z"
         fill="currentColor"
         id="path2696" />
    </g>
  </a>
  <g
     transform="translate(44.5067,9.5485001)"
     id="g2704">
    <rect
       x="-0.067199998"
       y="-3.6389999"
       width="0.1345"
       height="10.789"
       ry="0.039999999"
       fill="currentColor"
       id="rect2702" />
  </g>
  <a
     style="color:inherit"
     xlink:href="textedit://C:/Users/Javier/Documents/lilypond%20scores/shifting.ly:344:5:6"
     id="a2710"
     transform="translate(-5.6906,-15.4642)">
    <g
       transform="translate(50.3358,20.0167)"
       id="g2708">
      <path
         transform="scale(0.0025,-0.0025)"
         d="m 199,287 c 23,15 47,31 64,53 12,16 19,33 28,51 2,4 7,7 11,7 7,0 15,-6 15,-17 V 160 h 78 c 12,0 17,-9 17,-18 0,-9 -5,-17 -17,-17 h -78 c 1,-51 32,-97 79,-97 9,0 14,-7 14,-14 C 410,7 405,0 396,0 348,0 301,13 253,13 205,13 158,0 110,0 101,0 96,7 96,14 c 0,7 5,14 14,14 47,0 78,46 79,97 H 35 c -28,0 -37,16 -37,27 0,3 1,6 2,8 78,89 126,201 126,320 0,11 7,20 16,20 h 3 c 25,-7 50,-13 76,-13 26,0 51,6 76,13 2,1 4,1 6,1 10,0 16,-7 16,-14 0,-2 0,-5 -2,-7 L 35,160 h 154 v 101 c 0,10 2,21 10,26 z"
         fill="currentColor"
         id="path2706" />
    </g>
  </a>
  <a
     style="color:inherit"
     xlink:href="textedit://C:/Users/Javier/Documents/lilypond%20scores/shifting.ly:344:4:5"
     id="a2716"
     transform="translate(-5.6906,-15.4642)">
    <g
       transform="translate(50.1301,21.1627)"
       id="g2714">
      <path
         transform="scale(0.0044,-0.0044)"
         d="m 220,135 c 54,0 106,-27 106,-87 0,-71 -56,-120 -103,-148 -36,-21 -76,-35 -117,-35 -54,0 -106,27 -106,87 0,71 56,120 103,148 36,21 76,35 117,35 z"
         fill="currentColor"
         id="path2712" />
    </g>
  </a>
  <g
     transform="translate(42.2394,9.5485001)"
     id="g2720">
    <rect
       x="-0.067199998"
       y="-3.089"
       width="0.1345"
       height="10.239"
       ry="0.039999999"
       fill="currentColor"
       id="rect2718" />
  </g>
  <a
     style="color:inherit"
     xlink:href="textedit://C:/Users/Javier/Documents/lilypond%20scores/shifting.ly:343:21:22"
     id="a2726"
     transform="translate(-5.6906,-15.4642)">
    <g
       transform="translate(48.1538,20.5667)"
       id="g2724">
      <path
         transform="scale(0.0025,-0.0025)"
         d="m 155,472 c -33,0 -68,-8 -68,-36 0,-20 33,-24 33,-44 0,-29 -24,-53 -53,-53 -29,0 -53,24 -53,53 0,66 69,108 141,108 93,0 173,-31 173,-113 0,-41 -7,-78 -43,-95 -11,-5 -16,-16 -16,-26 0,-10 5,-21 16,-26 40,-19 59,-54 59,-99 C 344,47 261,0 159,0 78,0 0,44 0,118 c 0,34 27,61 61,61 34,0 60,-27 60,-61 0,-23 -37,-27 -37,-50 0,-31 39,-40 75,-40 47,0 57,59 57,113 v 35 c 0,42 -4,73 -44,73 H 97 c -12,0 -17,8 -17,17 0,9 5,17 17,17 h 75 c 41,0 44,33 44,77 v 27 c 0,51 -15,85 -61,85 z"
         fill="currentColor"
         id="path2722" />
    </g>
  </a>
  <a
     style="color:inherit"
     xlink:href="textedit://C:/Users/Javier/Documents/lilypond%20scores/shifting.ly:343:20:21"
     id="a2732"
     transform="translate(-5.6906,-15.4642)">
    <g
       transform="translate(47.8628,21.7127)"
       id="g2730">
      <path
         transform="scale(0.0044,-0.0044)"
         d="m 220,135 c 54,0 106,-27 106,-87 0,-71 -56,-120 -103,-148 -36,-21 -76,-35 -117,-35 -54,0 -106,27 -106,87 0,71 56,120 103,148 36,21 76,35 117,35 z"
         fill="currentColor"
         id="path2728" />
    </g>
  </a>
  <g
     transform="translate(39.9721,9.5485001)"
     id="g2736">
    <rect
       x="-0.067199998"
       y="-2.539"
       width="0.1345"
       height="9.6890001"
       ry="0.039999999"
       fill="currentColor"
       id="rect2734" />
  </g>
  <a
     style="color:inherit"
     xlink:href="textedit://C:/Users/Javier/Documents/lilypond%20scores/shifting.ly:343:17:18"
     id="a2742"
     transform="translate(-5.6906,-15.4642)">
    <g
       transform="translate(45.8865,21.1167)"
       id="g2740">
      <path
         transform="scale(0.0025,-0.0025)"
         d="m 155,472 c -33,0 -68,-8 -68,-36 0,-20 33,-24 33,-44 0,-29 -24,-53 -53,-53 -29,0 -53,24 -53,53 0,66 69,108 141,108 93,0 173,-31 173,-113 0,-41 -7,-78 -43,-95 -11,-5 -16,-16 -16,-26 0,-10 5,-21 16,-26 40,-19 59,-54 59,-99 C 344,47 261,0 159,0 78,0 0,44 0,118 c 0,34 27,61 61,61 34,0 60,-27 60,-61 0,-23 -37,-27 -37,-50 0,-31 39,-40 75,-40 47,0 57,59 57,113 v 35 c 0,42 -4,73 -44,73 H 97 c -12,0 -17,8 -17,17 0,9 5,17 17,17 h 75 c 41,0 44,33 44,77 v 27 c 0,51 -15,85 -61,85 z"
         fill="currentColor"
         id="path2738" />
    </g>
  </a>
  <a
     style="color:inherit"
     xlink:href="textedit://C:/Users/Javier/Documents/lilypond%20scores/shifting.ly:343:14:15"
     id="a2748"
     transform="translate(-5.6906,-15.4642)">
    <g
       transform="translate(45.5955,22.2627)"
       id="g2746">
      <path
         transform="scale(0.0044,-0.0044)"
         d="m 220,135 c 54,0 106,-27 106,-87 0,-71 -56,-120 -103,-148 -36,-21 -76,-35 -117,-35 -54,0 -106,27 -106,87 0,71 56,120 103,148 36,21 76,35 117,35 z"
         fill="currentColor"
         id="path2744" />
    </g>
  </a>
  <a
     style="color:inherit"
     xlink:href="textedit://C:/Users/Javier/Documents/lilypond%20scores/shifting.ly:344:19:20"
     id="a2754"
     transform="translate(-5.6906,-15.4642)">
    <g
       transform="translate(57.1889,18.3667)"
       id="g2752">
      <path
         transform="scale(0.0025,-0.0025)"
         d="m 125,147 h 10 c 35,0 73,-12 110,-39 19,-14 41,-22 60,-22 22,0 40,10 46,31 2,7 7,11 13,11 7,0 14,-6 14,-14 0,-1 -1,-3 -1,-4 C 358,40 295,0 233,0 195,0 159,15 133,47 121,62 104,69 88,69 59,69 31,48 28,13 27,4 21,0 14,0 7,0 0,5 0,14 c 0,174 233,163 233,341 0,57 -14,117 -63,117 -31,0 -61,-14 -61,-41 0,-25 32,-39 32,-64 0,-35 -28,-64 -63,-64 -35,0 -64,29 -64,64 0,78 74,133 156,133 98,0 191,-55 191,-145 C 361,210 223,198 125,147 Z"
         fill="currentColor"
         id="path2750" />
    </g>
  </a>
  <a
     style="color:inherit"
     xlink:href="textedit://C:/Users/Javier/Documents/lilypond%20scores/shifting.ly:344:18:19"
     id="a2760"
     transform="translate(-5.6906,-15.4642)">
    <g
       transform="translate(56.932,19.5127)"
       id="g2758">
      <path
         transform="scale(0.0044,-0.0044)"
         d="m 220,135 c 54,0 106,-27 106,-87 0,-71 -56,-120 -103,-148 -36,-21 -76,-35 -117,-35 -54,0 -106,27 -106,87 0,71 56,120 103,148 36,21 76,35 117,35 z"
         fill="currentColor"
         id="path2756" />
    </g>
  </a>
  <g
     transform="translate(49.0413,9.5485001)"
     id="g2764">
    <rect
       x="-0.067199998"
       y="-4.7389998"
       width="0.1345"
       height="11.889"
       ry="0.039999999"
       fill="currentColor"
       id="rect2762" />
  </g>
  <a
     style="color:inherit"
     xlink:href="textedit://C:/Users/Javier/Documents/lilypond%20scores/shifting.ly:344:15:16"
     id="a2770"
     transform="translate(-5.6906,-15.4642)">
    <g
       transform="translate(54.9557,18.9167)"
       id="g2768">
      <path
         transform="scale(0.0025,-0.0025)"
         d="m 0,250 127,250 c 3,6 12,3 20,0 14,-6 28,-13 44,-13 16,0 30,7 44,13 1,1 4,1 5,1 8,0 15,-10 15,-21 V 127 c 0,-52 32,-99 80,-99 9,0 13,-7 13,-14 C 348,7 344,0 335,0 287,0 239,13 191,13 143,13 96,0 48,0 39,0 34,7 34,14 c 0,7 5,14 14,14 48,0 79,47 79,99 v 220 c 0,15 -10,22 -19,22 -5,0 -10,-1 -12,-6 L 31,234 c -3,-7 -9,-9 -15,-9 -9,0 -18,7 -18,17 0,3 1,5 2,8 z"
         fill="currentColor"
         id="path2766" />
    </g>
  </a>
  <a
     style="color:inherit"
     xlink:href="textedit://C:/Users/Javier/Documents/lilypond%20scores/shifting.ly:344:14:15"
     id="a2776"
     transform="translate(-5.6906,-15.4642)">
    <g
       transform="translate(54.6647,20.0627)"
       id="g2774">
      <path
         transform="scale(0.0044,-0.0044)"
         d="m 220,135 c 54,0 106,-27 106,-87 0,-71 -56,-120 -103,-148 -36,-21 -76,-35 -117,-35 -54,0 -106,27 -106,87 0,71 56,120 103,148 36,21 76,35 117,35 z"
         fill="currentColor"
         id="path2772" />
    </g>
  </a>
  <g
     transform="translate(46.774,9.5485001)"
     id="g2780">
    <rect
       x="-0.067199998"
       y="-4.1890001"
       width="0.1345"
       height="11.339"
       ry="0.039999999"
       fill="currentColor"
       id="rect2778" />
  </g>
  <a
     style="color:inherit"
     xlink:href="textedit://C:/Users/Javier/Documents/lilypond%20scores/shifting.ly:344:11:12"
     id="a2786"
     transform="translate(-5.6906,-15.4642)">
    <g
       transform="translate(52.6884,19.4667)"
       id="g2784">
      <path
         transform="scale(0.0025,-0.0025)"
         d="m 0,250 127,250 c 3,6 12,3 20,0 14,-6 28,-13 44,-13 16,0 30,7 44,13 1,1 4,1 5,1 8,0 15,-10 15,-21 V 127 c 0,-52 32,-99 80,-99 9,0 13,-7 13,-14 C 348,7 344,0 335,0 287,0 239,13 191,13 143,13 96,0 48,0 39,0 34,7 34,14 c 0,7 5,14 14,14 48,0 79,47 79,99 v 220 c 0,15 -10,22 -19,22 -5,0 -10,-1 -12,-6 L 31,234 c -3,-7 -9,-9 -15,-9 -9,0 -18,7 -18,17 0,3 1,5 2,8 z"
         fill="currentColor"
         id="path2782" />
    </g>
  </a>
  <a
     style="color:inherit"
     xlink:href="textedit://C:/Users/Javier/Documents/lilypond%20scores/shifting.ly:344:8:9"
     id="a2792"
     transform="translate(-5.6906,-15.4642)">
    <g
       transform="translate(52.3974,20.6127)"
       id="g2790">
      <path
         transform="scale(0.0044,-0.0044)"
         d="m 220,135 c 54,0 106,-27 106,-87 0,-71 -56,-120 -103,-148 -36,-21 -76,-35 -117,-35 -54,0 -106,27 -106,87 0,71 56,120 103,148 36,21 76,35 117,35 z"
         fill="currentColor"
         id="path2788" />
    </g>
  </a>
  <a
     style="color:inherit"
     xlink:href="textedit://C:/Users/Javier/Documents/lilypond%20scores/shifting.ly:342:31:32"
     id="a2798"
     transform="translate(-5.6906,-15.4642)">
    <g
       transform="translate(38.9993,22.211)"
       id="g2796">
      <path
         transform="scale(0.0025,-0.0025)"
         d="m 199,287 c 23,15 47,31 64,53 12,16 19,33 28,51 2,4 7,7 11,7 7,0 15,-6 15,-17 V 160 h 78 c 12,0 17,-9 17,-18 0,-9 -5,-17 -17,-17 h -78 c 1,-51 32,-97 79,-97 9,0 14,-7 14,-14 C 410,7 405,0 396,0 348,0 301,13 253,13 205,13 158,0 110,0 101,0 96,7 96,14 c 0,7 5,14 14,14 47,0 78,46 79,97 H 35 c -28,0 -37,16 -37,27 0,3 1,6 2,8 78,89 126,201 126,320 0,11 7,20 16,20 h 3 c 25,-7 50,-13 76,-13 26,0 51,6 76,13 2,1 4,1 6,1 10,0 16,-7 16,-14 0,-2 0,-5 -2,-7 L 35,160 h 154 v 101 c 0,10 2,21 10,26 z"
         fill="currentColor"
         id="path2794" />
    </g>
  </a>
  <g
     transform="translate(35.4375,9.5485001)"
     id="g2802">
    <rect
       x="-0.067199998"
       y="-1.439"
       width="0.1345"
       height="8.5889997"
       ry="0.039999999"
       fill="currentColor"
       id="rect2800" />
  </g>
  <a
     style="color:inherit"
     xlink:href="textedit://C:/Users/Javier/Documents/lilypond%20scores/shifting.ly:343:5:6"
     id="a2808"
     transform="translate(-5.6906,-15.4642)">
    <g
       transform="translate(41.3519,22.211)"
       id="g2806">
      <path
         transform="scale(0.0025,-0.0025)"
         d="m 0,250 127,250 c 3,6 12,3 20,0 14,-6 28,-13 44,-13 16,0 30,7 44,13 1,1 4,1 5,1 8,0 15,-10 15,-21 V 127 c 0,-52 32,-99 80,-99 9,0 13,-7 13,-14 C 348,7 344,0 335,0 287,0 239,13 191,13 143,13 96,0 48,0 39,0 34,7 34,14 c 0,7 5,14 14,14 48,0 79,47 79,99 v 220 c 0,15 -10,22 -19,22 -5,0 -10,-1 -12,-6 L 31,234 c -3,-7 -9,-9 -15,-9 -9,0 -18,7 -18,17 0,3 1,5 2,8 z"
         fill="currentColor"
         id="path2804" />
    </g>
  </a>
  <a
     style="color:inherit"
     xlink:href="textedit://C:/Users/Javier/Documents/lilypond%20scores/shifting.ly:343:4:5"
     id="a2814"
     transform="translate(-5.6906,-15.4642)">
    <g
       transform="translate(41.0609,23.3627)"
       id="g2812">
      <path
         transform="scale(0.0044,-0.0044)"
         d="m 220,135 c 54,0 106,-27 106,-87 0,-71 -56,-120 -103,-148 -36,-21 -76,-35 -117,-35 -54,0 -106,27 -106,87 0,71 56,120 103,148 36,21 76,35 117,35 z"
         fill="currentColor"
         id="path2810" />
    </g>
  </a>
  <g
     transform="translate(33.1702,9.5485001)"
     id="g2818">
    <rect
       x="-0.067199998"
       y="-0.889"
       width="0.1345"
       height="8.0389996"
       ry="0.039999999"
       fill="currentColor"
       id="rect2816" />
  </g>
  <g
     transform="translate(37.7048,9.5485001)"
     id="g2822">
    <rect
       x="-0.067199998"
       y="-1.989"
       width="0.1345"
       height="9.1389999"
       ry="0.039999999"
       fill="currentColor"
       id="rect2820" />
  </g>
  <a
     style="color:inherit"
     xlink:href="textedit://C:/Users/Javier/Documents/lilypond%20scores/shifting.ly:342:30:31"
     id="a2828"
     transform="translate(-5.6906,-15.4642)">
    <g
       transform="translate(38.7936,23.9127)"
       id="g2826">
      <path
         transform="scale(0.0044,-0.0044)"
         d="m 220,135 c 54,0 106,-27 106,-87 0,-71 -56,-120 -103,-148 -36,-21 -76,-35 -117,-35 -54,0 -106,27 -106,87 0,71 56,120 103,148 36,21 76,35 117,35 z"
         fill="currentColor"
         id="path2824" />
    </g>
  </a>
  <g
     transform="translate(30.9029,9.5485001)"
     id="g2832">
    <rect
       x="-0.067199998"
       y="-0.33899999"
       width="0.1345"
       height="7.4889998"
       ry="0.039999999"
       fill="currentColor"
       id="rect2830" />
  </g>
  <a
     style="color:inherit"
     xlink:href="textedit://C:/Users/Javier/Documents/lilypond%20scores/shifting.ly:342:27:28"
     id="a2838"
     transform="translate(-5.6906,-15.4642)">
    <g
       transform="translate(36.732,22.211)"
       id="g2836">
      <path
         transform="scale(0.0025,-0.0025)"
         d="m 199,287 c 23,15 47,31 64,53 12,16 19,33 28,51 2,4 7,7 11,7 7,0 15,-6 15,-17 V 160 h 78 c 12,0 17,-9 17,-18 0,-9 -5,-17 -17,-17 h -78 c 1,-51 32,-97 79,-97 9,0 14,-7 14,-14 C 410,7 405,0 396,0 348,0 301,13 253,13 205,13 158,0 110,0 101,0 96,7 96,14 c 0,7 5,14 14,14 47,0 78,46 79,97 H 35 c -28,0 -37,16 -37,27 0,3 1,6 2,8 78,89 126,201 126,320 0,11 7,20 16,20 h 3 c 25,-7 50,-13 76,-13 26,0 51,6 76,13 2,1 4,1 6,1 10,0 16,-7 16,-14 0,-2 0,-5 -2,-7 L 35,160 h 154 v 101 c 0,10 2,21 10,26 z"
         fill="currentColor"
         id="path2834" />
    </g>
  </a>
  <a
     style="color:inherit"
     xlink:href="textedit://C:/Users/Javier/Documents/lilypond%20scores/shifting.ly:342:24:25"
     id="a2844"
     transform="translate(-5.6906,-15.4642)">
    <g
       transform="translate(36.5263,24.4627)"
       id="g2842">
      <path
         transform="scale(0.0044,-0.0044)"
         d="m 220,135 c 54,0 106,-27 106,-87 0,-71 -56,-120 -103,-148 -36,-21 -76,-35 -117,-35 -54,0 -106,27 -106,87 0,71 56,120 103,148 36,21 76,35 117,35 z"
         fill="currentColor"
         id="path2840" />
    </g>
  </a>
  <a
     style="color:inherit"
     xlink:href="textedit://C:/Users/Javier/Documents/lilypond%20scores/shifting.ly:343:11:12"
     id="a2850"
     transform="translate(-5.6906,-15.4642)">
    <g
       transform="translate(43.5851,21.6667)"
       id="g2848">
      <path
         transform="scale(0.0025,-0.0025)"
         d="m 125,147 h 10 c 35,0 73,-12 110,-39 19,-14 41,-22 60,-22 22,0 40,10 46,31 2,7 7,11 13,11 7,0 14,-6 14,-14 0,-1 -1,-3 -1,-4 C 358,40 295,0 233,0 195,0 159,15 133,47 121,62 104,69 88,69 59,69 31,48 28,13 27,4 21,0 14,0 7,0 0,5 0,14 c 0,174 233,163 233,341 0,57 -14,117 -63,117 -31,0 -61,-14 -61,-41 0,-25 32,-39 32,-64 0,-35 -28,-64 -63,-64 -35,0 -64,29 -64,64 0,78 74,133 156,133 98,0 191,-55 191,-145 C 361,210 223,198 125,147 Z"
         fill="currentColor"
         id="path2846" />
    </g>
  </a>
  <a
     style="color:inherit"
     xlink:href="textedit://C:/Users/Javier/Documents/lilypond%20scores/shifting.ly:343:8:9"
     id="a2856"
     transform="translate(-5.6906,-15.4642)">
    <g
       transform="translate(43.3282,22.8127)"
       id="g2854">
      <path
         transform="scale(0.0044,-0.0044)"
         d="m 220,135 c 54,0 106,-27 106,-87 0,-71 -56,-120 -103,-148 -36,-21 -76,-35 -117,-35 -54,0 -106,27 -106,87 0,71 56,120 103,148 36,21 76,35 117,35 z"
         fill="currentColor"
         id="path2852" />
    </g>
  </a>
</svg>
