<svg
   version="1.2"
   width="56.01741mm"
   height="16.508062mm"
   viewBox="0 0 31.877001 9.393999"
   id="svg3468"
   sodipodi:docname="shifting-3.svg"
   xmlns:inkscape="http://www.inkscape.org/namespaces/inkscape"
   xmlns:sodipodi="http://sodipodi.sourceforge.net/DTD/sodipodi-0.dtd"
   xmlns:xlink="http://www.w3.org/1999/xlink"
   xmlns="http://www.w3.org/2000/svg"
   xmlns:svg="http://www.w3.org/2000/svg">
  <defs
     id="defs3472" />
  <sodipodi:namedview
     id="namedview3470"
     pagecolor="#ffffff"
     bordercolor="#000000"
     borderopacity="0.25"
     inkscape:showpageshadow="2"
     inkscape:pageopacity="0.0"
     inkscape:pagecheckerboard="0"
     inkscape:deskcolor="#d1d1d1"
     inkscape:document-units="mm"
     showgrid="false" />
  <style
     type="text/css"
     id="style1738"><![CDATA[
tspan { white-space: pre; }
]]></style>
  <!-- Page: 3/3 -->
  <g
     transform="translate(3.1967416e-8,6.6)"
     id="g1748">
    <line
       stroke-linejoin="round"
       stroke-linecap="round"
       stroke-width="0.1034"
       stroke="currentColor"
       x1="0.0517"
       y1="0"
       x2="31.8253"
       y2="0"
       id="line1746" />
  </g>
  <g
     transform="translate(3.1967416e-8,5.5)"
     id="g1752">
    <line
       stroke-linejoin="round"
       stroke-linecap="round"
       stroke-width="0.1034"
       stroke="currentColor"
       x1="0.0517"
       y1="0"
       x2="31.8253"
       y2="0"
       id="line1750" />
  </g>
  <g
     transform="translate(3.1967416e-8,4.4)"
     id="g1756">
    <line
       stroke-linejoin="round"
       stroke-linecap="round"
       stroke-width="0.1034"
       stroke="currentColor"
       x1="0.0517"
       y1="0"
       x2="31.8253"
       y2="0"
       id="line1754" />
  </g>
  <g
     transform="translate(3.1967416e-8,3.3)"
     id="g1760">
    <line
       stroke-linejoin="round"
       stroke-linecap="round"
       stroke-width="0.1034"
       stroke="currentColor"
       x1="0.0517"
       y1="0"
       x2="31.8253"
       y2="0"
       id="line1758" />
  </g>
  <g
     transform="translate(3.1967416e-8,2.2)"
     id="g1764">
    <line
       stroke-linejoin="round"
       stroke-linecap="round"
       stroke-width="0.1034"
       stroke="currentColor"
       x1="0.0517"
       y1="0"
       x2="31.8253"
       y2="0"
       id="line1762" />
  </g>
  <g
     transform="translate(3.1967416e-8,7.7)"
     id="g1768">
    <rect
       x="15.3425"
       y="-0.1067"
       width="2.1536"
       height="0.21340001"
       ry="0.1067"
       fill="currentColor"
       id="rect1766" />
  </g>
  <g
     transform="translate(3.1967416e-8,7.7)"
     id="g1772">
    <rect
       x="12.7068"
       y="-0.1067"
       width="2.1536"
       height="0.21340001"
       ry="0.1067"
       fill="currentColor"
       id="rect1770" />
  </g>
  <g
     transform="translate(3.1967416e-8,7.7)"
     id="g1776">
    <rect
       x="10.0711"
       y="-0.1067"
       width="2.1536"
       height="0.21340001"
       ry="0.1067"
       fill="currentColor"
       id="rect1774" />
  </g>
  <g
     transform="translate(3.1967416e-8,8.8)"
     id="g1780">
    <rect
       x="10.0711"
       y="-0.1067"
       width="2.1536"
       height="0.21340001"
       ry="0.1067"
       fill="currentColor"
       id="rect1778" />
  </g>
  <g
     transform="translate(31.6805,4.4)"
     id="g1784">
    <rect
       x="0"
       y="-2.2"
       width="0.1965"
       height="4.4000001"
       ry="0.0000"
       fill="currentColor"
       id="rect1782" />
  </g>
  <a
     style="color:inherit"
     xlink:href="textedit://C:/Users/Javier/Documents/lilypond%20scores/shifting.ly:327:21:22"
     id="a1790"
     transform="translate(-5.6906,-5.3817)">
    <g
       transform="translate(24.0277,12.5317)"
       id="g1788">
      <path
         transform="scale(0.0044,-0.0044)"
         d="m 220,135 c 54,0 106,-27 106,-87 0,-71 -56,-120 -103,-148 -36,-21 -76,-35 -117,-35 -54,0 -106,27 -106,87 0,71 56,120 103,148 36,21 76,35 117,35 z"
         fill="currentColor"
         id="path1786" />
    </g>
  </a>
  <g
     transform="translate(24.977,4.4)"
     id="g1794">
    <rect
       x="-0.067199998"
       y="-1.4167"
       width="0.1345"
       height="2.8557"
       ry="0.039999999"
       fill="currentColor"
       id="rect1792" />
  </g>
  <a
     style="color:inherit"
     xlink:href="textedit://C:/Users/Javier/Documents/lilypond%20scores/shifting.ly:327:32:33"
     id="a1800"
     transform="translate(-5.6906,-5.3817)">
    <g
       transform="translate(29.5902,6.98)"
       id="g1798">
      <path
         transform="scale(0.0025,-0.0025)"
         d="m 155,472 c -33,0 -68,-8 -68,-36 0,-20 33,-24 33,-44 0,-29 -24,-53 -53,-53 -29,0 -53,24 -53,53 0,66 69,108 141,108 93,0 173,-31 173,-113 0,-41 -7,-78 -43,-95 -11,-5 -16,-16 -16,-26 0,-10 5,-21 16,-26 40,-19 59,-54 59,-99 C 344,47 261,0 159,0 78,0 0,44 0,118 c 0,34 27,61 61,61 34,0 60,-27 60,-61 0,-23 -37,-27 -37,-50 0,-31 39,-40 75,-40 47,0 57,59 57,113 v 35 c 0,42 -4,73 -44,73 H 97 c -12,0 -17,8 -17,17 0,9 5,17 17,17 h 75 c 41,0 44,33 44,77 v 27 c 0,51 -15,85 -61,85 z"
         fill="currentColor"
         id="path1796" />
    </g>
  </a>
  <a
     style="color:inherit"
     xlink:href="textedit://C:/Users/Javier/Documents/lilypond%20scores/shifting.ly:327:29:30"
     id="a1806"
     transform="translate(-5.6906,-5.3817)">
    <g
       transform="translate(29.2991,11.4317)"
       id="g1804">
      <path
         transform="scale(0.0044,-0.0044)"
         d="m 220,135 c 54,0 106,-27 106,-87 0,-71 -56,-120 -103,-148 -36,-21 -76,-35 -117,-35 -54,0 -106,27 -106,87 0,71 56,120 103,148 36,21 76,35 117,35 z"
         fill="currentColor"
         id="path1802" />
    </g>
  </a>
  <g
     transform="translate(22.3413,4.4)"
     id="g1810">
    <rect
       x="-0.067199998"
       y="-1.1348"
       width="0.1345"
       height="3.1238"
       ry="0.039999999"
       fill="currentColor"
       id="rect1808" />
  </g>
  <a
     style="color:inherit"
     xlink:href="textedit://C:/Users/Javier/Documents/lilypond%20scores/shifting.ly:327:26:27"
     id="a1816"
     transform="translate(-5.6906,-5.3817)">
    <g
       transform="translate(26.9545,6.98)"
       id="g1814">
      <path
         transform="scale(0.0025,-0.0025)"
         d="m 155,472 c -33,0 -68,-8 -68,-36 0,-20 33,-24 33,-44 0,-29 -24,-53 -53,-53 -29,0 -53,24 -53,53 0,66 69,108 141,108 93,0 173,-31 173,-113 0,-41 -7,-78 -43,-95 -11,-5 -16,-16 -16,-26 0,-10 5,-21 16,-26 40,-19 59,-54 59,-99 C 344,47 261,0 159,0 78,0 0,44 0,118 c 0,34 27,61 61,61 34,0 60,-27 60,-61 0,-23 -37,-27 -37,-50 0,-31 39,-40 75,-40 47,0 57,59 57,113 v 35 c 0,42 -4,73 -44,73 H 97 c -12,0 -17,8 -17,17 0,9 5,17 17,17 h 75 c 41,0 44,33 44,77 v 27 c 0,51 -15,85 -61,85 z"
         fill="currentColor"
         id="path1812" />
    </g>
  </a>
  <a
     style="color:inherit"
     xlink:href="textedit://C:/Users/Javier/Documents/lilypond%20scores/shifting.ly:327:25:26"
     id="a1822"
     transform="translate(-5.6906,-5.3817)">
    <g
       transform="translate(26.6634,11.9817)"
       id="g1820">
      <path
         transform="scale(0.0044,-0.0044)"
         d="m 220,135 c 54,0 106,-27 106,-87 0,-71 -56,-120 -103,-148 -36,-21 -76,-35 -117,-35 -54,0 -106,27 -106,87 0,71 56,120 103,148 36,21 76,35 117,35 z"
         fill="currentColor"
         id="path1818" />
    </g>
  </a>
  <g
     transform="translate(19.7056,4.4)"
     id="g1826">
    <rect
       x="-0.067199998"
       y="-0.85290003"
       width="0.1345"
       height="3.3919001"
       ry="0.039999999"
       fill="currentColor"
       id="rect1824" />
  </g>
  <a
     style="color:inherit"
     xlink:href="textedit://C:/Users/Javier/Documents/lilypond%20scores/shifting.ly:327:22:23"
     id="a1832"
     transform="translate(-5.6906,-5.3817)">
    <g
       transform="translate(24.2846,6.98)"
       id="g1830">
      <path
         transform="scale(0.0025,-0.0025)"
         d="m 125,147 h 10 c 35,0 73,-12 110,-39 19,-14 41,-22 60,-22 22,0 40,10 46,31 2,7 7,11 13,11 7,0 14,-6 14,-14 0,-1 -1,-3 -1,-4 C 358,40 295,0 233,0 195,0 159,15 133,47 121,62 104,69 88,69 59,69 31,48 28,13 27,4 21,0 14,0 7,0 0,5 0,14 c 0,174 233,163 233,341 0,57 -14,117 -63,117 -31,0 -61,-14 -61,-41 0,-25 32,-39 32,-64 0,-35 -28,-64 -63,-64 -35,0 -64,29 -64,64 0,78 74,133 156,133 98,0 191,-55 191,-145 C 361,210 223,198 125,147 Z"
         fill="currentColor"
         id="path1828" />
    </g>
  </a>
  <a
     style="color:inherit"
     xlink:href="textedit://C:/Users/Javier/Documents/lilypond%20scores/shifting.ly:327:7:8"
     id="a1842"
     transform="translate(-5.6906,-5.3817)">
    <g
       transform="translate(17.4218,9.7817)"
       id="g1836">
      <polygon
         stroke-linejoin="round"
         stroke-linecap="round"
         stroke-width="0.08"
         fill="currentColor"
         stroke="currentColor"
         points="18.5444,-2.2117 18.5444,-1.7637 0.04,0.224 0.04,-0.224 "
         id="polygon1834" />
    </g>
    <g
       transform="translate(17.4218,10.6694)"
       id="g1840">
      <polygon
         stroke-linejoin="round"
         stroke-linecap="round"
         stroke-width="0.08"
         fill="currentColor"
         stroke="currentColor"
         points="18.5444,-2.2117 18.5444,-1.7637 0.04,0.224 0.04,-0.224 "
         id="polygon1838" />
    </g>
  </a>
  <g
     transform="translate(30.2484,4.4)"
     id="g1846">
    <rect
       x="-0.067199998"
       y="-1.9805"
       width="0.1345"
       height="2.3195"
       ry="0.039999999"
       fill="currentColor"
       id="rect1844" />
  </g>
  <a
     style="color:inherit"
     xlink:href="textedit://C:/Users/Javier/Documents/lilypond%20scores/shifting.ly:327:43:44"
     id="a1852"
     transform="translate(-5.6906,-5.3817)">
    <g
       transform="translate(34.7762,6.98)"
       id="g1850">
      <path
         transform="scale(0.0025,-0.0025)"
         d="m 199,287 c 23,15 47,31 64,53 12,16 19,33 28,51 2,4 7,7 11,7 7,0 15,-6 15,-17 V 160 h 78 c 12,0 17,-9 17,-18 0,-9 -5,-17 -17,-17 h -78 c 1,-51 32,-97 79,-97 9,0 14,-7 14,-14 C 410,7 405,0 396,0 348,0 301,13 253,13 205,13 158,0 110,0 101,0 96,7 96,14 c 0,7 5,14 14,14 47,0 78,46 79,97 H 35 c -28,0 -37,16 -37,27 0,3 1,6 2,8 78,89 126,201 126,320 0,11 7,20 16,20 h 3 c 25,-7 50,-13 76,-13 26,0 51,6 76,13 2,1 4,1 6,1 10,0 16,-7 16,-14 0,-2 0,-5 -2,-7 L 35,160 h 154 v 101 c 0,10 2,21 10,26 z"
         fill="currentColor"
         id="path1848" />
    </g>
  </a>
  <a
     style="color:inherit"
     xlink:href="textedit://C:/Users/Javier/Documents/lilypond%20scores/shifting.ly:327:41:42"
     id="a1858"
     transform="translate(-5.6906,-5.3817)">
    <g
       transform="translate(34.5705,10.3317)"
       id="g1856">
      <path
         transform="scale(0.0044,-0.0044)"
         d="m 220,135 c 54,0 106,-27 106,-87 0,-71 -56,-120 -103,-148 -36,-21 -76,-35 -117,-35 -54,0 -106,27 -106,87 0,71 56,120 103,148 36,21 76,35 117,35 z"
         fill="currentColor"
         id="path1854" />
    </g>
  </a>
  <g
     transform="translate(27.6127,4.4)"
     id="g1862">
    <rect
       x="-0.067199998"
       y="-1.6986001"
       width="0.1345"
       height="2.5876"
       ry="0.039999999"
       fill="currentColor"
       id="rect1860" />
  </g>
  <a
     style="color:inherit"
     xlink:href="textedit://C:/Users/Javier/Documents/lilypond%20scores/shifting.ly:327:38:39"
     id="a1868"
     transform="translate(-5.6906,-5.3817)">
    <g
       transform="translate(32.1405,6.98)"
       id="g1866">
      <path
         transform="scale(0.0025,-0.0025)"
         d="m 199,287 c 23,15 47,31 64,53 12,16 19,33 28,51 2,4 7,7 11,7 7,0 15,-6 15,-17 V 160 h 78 c 12,0 17,-9 17,-18 0,-9 -5,-17 -17,-17 h -78 c 1,-51 32,-97 79,-97 9,0 14,-7 14,-14 C 410,7 405,0 396,0 348,0 301,13 253,13 205,13 158,0 110,0 101,0 96,7 96,14 c 0,7 5,14 14,14 47,0 78,46 79,97 H 35 c -28,0 -37,16 -37,27 0,3 1,6 2,8 78,89 126,201 126,320 0,11 7,20 16,20 h 3 c 25,-7 50,-13 76,-13 26,0 51,6 76,13 2,1 4,1 6,1 10,0 16,-7 16,-14 0,-2 0,-5 -2,-7 L 35,160 h 154 v 101 c 0,10 2,21 10,26 z"
         fill="currentColor"
         id="path1864" />
    </g>
  </a>
  <a
     style="color:inherit"
     xlink:href="textedit://C:/Users/Javier/Documents/lilypond%20scores/shifting.ly:327:35:36"
     id="a1874"
     transform="translate(-5.6906,-5.3817)">
    <g
       transform="translate(31.9348,10.8817)"
       id="g1872">
      <path
         transform="scale(0.0044,-0.0044)"
         d="m 220,135 c 54,0 106,-27 106,-87 0,-71 -56,-120 -103,-148 -36,-21 -76,-35 -117,-35 -54,0 -106,27 -106,87 0,71 56,120 103,148 36,21 76,35 117,35 z"
         fill="currentColor"
         id="path1870" />
    </g>
  </a>
  <g
     transform="translate(11.7984,4.4)"
     id="g1878">
    <rect
       x="-0.067199998"
       y="-0.0071999999"
       width="0.1345"
       height="4.1961002"
       ry="0.039999999"
       fill="currentColor"
       id="rect1876" />
  </g>
  <a
     style="color:inherit"
     xlink:href="textedit://C:/Users/Javier/Documents/lilypond%20scores/shifting.ly:325:4:5"
     id="a1892"
     transform="translate(-5.6906,-5.3817)">
    <g
       transform="translate(9.9906,7.5817)"
       id="g1882">
      <path
         transform="scale(0.0044,-0.0044)"
         d="m 216,-314 c 0,-10 -8,-18 -18,-18 -10,0 -18,8 -18,18 v 148 l -85,-31 v -160 c 0,-10 -8,-18 -18,-18 -10,0 -18,8 -18,18 v 148 l -35,-13 c -2,-1 -4,-1 -6,-1 -9,0 -18,8 -18,18 v 62 c 0,8 5,14 12,17 l 47,17 V 53 L 24,40 C 22,39 20,39 18,39 9,39 0,47 0,57 v 63 c 0,8 5,14 12,17 l 47,17 v 160 c 0,10 8,18 18,18 10,0 18,-8 18,-18 V 166 l 85,31 v 160 c 0,10 8,18 18,18 10,0 18,-8 18,-18 V 209 l 35,13 c 2,1 4,1 6,1 9,0 18,-8 18,-18 v -62 c 0,-8 -5,-14 -12,-17 L 216,109 V -53 l 35,13 c 2,1 4,1 6,1 9,0 18,-8 18,-18 v -63 c 0,-8 -5,-14 -12,-17 l -47,-17 z M 95,66 V -96 l 85,30 V 96 Z"
         fill="currentColor"
         id="path1880" />
    </g>
    <g
       transform="translate(11.2006,9.2317)"
       id="g1886">
      <path
         transform="scale(0.0044,-0.0044)"
         d="m 216,-314 c 0,-10 -8,-18 -18,-18 -10,0 -18,8 -18,18 v 148 l -85,-31 v -160 c 0,-10 -8,-18 -18,-18 -10,0 -18,8 -18,18 v 148 l -35,-13 c -2,-1 -4,-1 -6,-1 -9,0 -18,8 -18,18 v 62 c 0,8 5,14 12,17 l 47,17 V 53 L 24,40 C 22,39 20,39 18,39 9,39 0,47 0,57 v 63 c 0,8 5,14 12,17 l 47,17 v 160 c 0,10 8,18 18,18 10,0 18,-8 18,-18 V 166 l 85,31 v 160 c 0,10 8,18 18,18 10,0 18,-8 18,-18 V 209 l 35,13 c 2,1 4,1 6,1 9,0 18,-8 18,-18 v -62 c 0,-8 -5,-14 -12,-17 L 216,109 V -53 l 35,13 c 2,1 4,1 6,1 9,0 18,-8 18,-18 v -63 c 0,-8 -5,-14 -12,-17 l -47,-17 z M 95,66 V -96 l 85,30 V 96 Z"
         fill="currentColor"
         id="path1884" />
    </g>
    <g
       transform="translate(12.4106,7.0317)"
       id="g1890">
      <path
         transform="scale(0.0044,-0.0044)"
         d="m 216,-314 c 0,-10 -8,-18 -18,-18 -10,0 -18,8 -18,18 v 148 l -85,-31 v -160 c 0,-10 -8,-18 -18,-18 -10,0 -18,8 -18,18 v 148 l -35,-13 c -2,-1 -4,-1 -6,-1 -9,0 -18,8 -18,18 v 62 c 0,8 5,14 12,17 l 47,17 V 53 L 24,40 C 22,39 20,39 18,39 9,39 0,47 0,57 v 63 c 0,8 5,14 12,17 l 47,17 v 160 c 0,10 8,18 18,18 10,0 18,-8 18,-18 V 166 l 85,31 v 160 c 0,10 8,18 18,18 10,0 18,-8 18,-18 V 209 l 35,13 c 2,1 4,1 6,1 9,0 18,-8 18,-18 v -62 c 0,-8 -5,-14 -12,-17 L 216,109 V -53 l 35,13 c 2,1 4,1 6,1 9,0 18,-8 18,-18 v -63 c 0,-8 -5,-14 -12,-17 l -47,-17 z M 95,66 V -96 l 85,30 V 96 Z"
         fill="currentColor"
         id="path1888" />
    </g>
  </a>
  <g
     transform="translate(0.80000003,5.5)"
     id="g1896">
    <path
       transform="scale(0.0044,-0.0044)"
       d="m 267,-593 -1,-41 h -5 c -108,0 -196,88 -196,196 0,58 54,104 113,104 54,0 95,-48 95,-104 0,-52 -43,-95 -95,-95 -11,0 -23,3 -34,8 26,-40 69,-68 119,-68 z m 108,854 c 5,0 9,1 14,1 155,0 255,-128 255,-260 0,-76 -33,-154 -107,-209 -22,-17 -47,-28 -73,-36 3,-35 5,-71 5,-107 0,-19 -1,-38 -2,-57 -7,-119 -87,-224 -201,-227 l 1,41 c 93,2 154,93 160,192 1,18 1,36 1,54 0,31 -1,63 -4,94 -29,-5 -58,-8 -89,-8 -188,0 -333,172 -333,373 0,177 132,307 249,441 -19,63 -35,125 -43,190 -6,51 -7,103 -7,155 0,116 56,226 150,294 5,4 13,3 18,-1 70,-84 132,-245 132,-358 0,-143 -86,-255 -181,-364 20,-69 38,-138 55,-208 z m 85,-465 c 69,24 115,96 115,165 0,91 -68,182 -176,192 25,-117 47,-233 61,-357 z M 73,30 c 0,-136 130,-250 265,-250 28,0 55,2 82,6 C 406,-87 382,32 356,152 277,143 232,90 232,32 c 0,-44 26,-91 82,-123 5,-4 6,-10 6,-15 0,-11 -9,-21 -21,-21 -3,0 -5,1 -8,2 -80,43 -117,114 -117,184 0,88 58,173 159,196 -14,59 -30,119 -46,177 C 180,311 73,190 73,30 Z m 358,885 c 0,57 -4,80 -21,132 -99,-49 -162,-150 -162,-260 0,-75 17,-135 35,-197 81,97 148,199 148,325 z"
       fill="currentColor"
       id="path1894" />
  </g>
  <a
     style="color:inherit"
     xlink:href="textedit://C:/Users/Javier/Documents/lilypond%20scores/shifting.ly:327:8:9"
     id="a1902"
     transform="translate(-5.6906,-5.3817)">
    <g
       transform="translate(16.4116,6.98)"
       id="g1900">
      <path
         transform="scale(0.0025,-0.0025)"
         d="m 0,250 127,250 c 3,6 12,3 20,0 14,-6 28,-13 44,-13 16,0 30,7 44,13 1,1 4,1 5,1 8,0 15,-10 15,-21 V 127 c 0,-52 32,-99 80,-99 9,0 13,-7 13,-14 C 348,7 344,0 335,0 287,0 239,13 191,13 143,13 96,0 48,0 39,0 34,7 34,14 c 0,7 5,14 14,14 48,0 79,47 79,99 v 220 c 0,15 -10,22 -19,22 -5,0 -10,-1 -12,-6 L 31,234 c -3,-7 -9,-9 -15,-9 -9,0 -18,7 -18,17 0,3 1,5 2,8 z"
         fill="currentColor"
         id="path1898" />
    </g>
  </a>
  <a
     style="color:inherit"
     xlink:href="textedit://C:/Users/Javier/Documents/lilypond%20scores/shifting.ly:327:4:5"
     id="a1908"
     transform="translate(-5.6906,-5.3817)">
    <g
       transform="translate(16.1206,14.1817)"
       id="g1906">
      <path
         transform="scale(0.0044,-0.0044)"
         d="m 220,135 c 54,0 106,-27 106,-87 0,-71 -56,-120 -103,-148 -36,-21 -76,-35 -117,-35 -54,0 -106,27 -106,87 0,71 56,120 103,148 36,21 76,35 117,35 z"
         fill="currentColor"
         id="path1904" />
    </g>
  </a>
  <g
     transform="translate(17.0699,4.4)"
     id="g1912">
    <rect
       x="-0.067199998"
       y="-0.57099998"
       width="0.1345"
       height="3.6600001"
       ry="0.039999999"
       fill="currentColor"
       id="rect1910" />
  </g>
  <a
     style="color:inherit"
     xlink:href="textedit://C:/Users/Javier/Documents/lilypond%20scores/shifting.ly:327:18:19"
     id="a1918"
     transform="translate(-5.6906,-5.3817)">
    <g
       transform="translate(21.6489,6.98)"
       id="g1916">
      <path
         transform="scale(0.0025,-0.0025)"
         d="m 125,147 h 10 c 35,0 73,-12 110,-39 19,-14 41,-22 60,-22 22,0 40,10 46,31 2,7 7,11 13,11 7,0 14,-6 14,-14 0,-1 -1,-3 -1,-4 C 358,40 295,0 233,0 195,0 159,15 133,47 121,62 104,69 88,69 59,69 31,48 28,13 27,4 21,0 14,0 7,0 0,5 0,14 c 0,174 233,163 233,341 0,57 -14,117 -63,117 -31,0 -61,-14 -61,-41 0,-25 32,-39 32,-64 0,-35 -28,-64 -63,-64 -35,0 -64,29 -64,64 0,78 74,133 156,133 98,0 191,-55 191,-145 C 361,210 223,198 125,147 Z"
         fill="currentColor"
         id="path1914" />
    </g>
  </a>
  <a
     style="color:inherit"
     xlink:href="textedit://C:/Users/Javier/Documents/lilypond%20scores/shifting.ly:327:15:16"
     id="a1924"
     transform="translate(-5.6906,-5.3817)">
    <g
       transform="translate(21.392,13.0817)"
       id="g1922">
      <path
         transform="scale(0.0044,-0.0044)"
         d="m 220,135 c 54,0 106,-27 106,-87 0,-71 -56,-120 -103,-148 -36,-21 -76,-35 -117,-35 -54,0 -106,27 -106,87 0,71 56,120 103,148 36,21 76,35 117,35 z"
         fill="currentColor"
         id="path1920" />
    </g>
  </a>
  <g
     transform="translate(14.4342,4.4)"
     id="g1928">
    <rect
       x="-0.067199998"
       y="-0.28909999"
       width="0.1345"
       height="3.9281001"
       ry="0.039999999"
       fill="currentColor"
       id="rect1926" />
  </g>
  <a
     style="color:inherit"
     xlink:href="textedit://C:/Users/Javier/Documents/lilypond%20scores/shifting.ly:327:12:13"
     id="a1934"
     transform="translate(-5.6906,-5.3817)">
    <g
       transform="translate(19.0473,6.98)"
       id="g1932">
      <path
         transform="scale(0.0025,-0.0025)"
         d="m 0,250 127,250 c 3,6 12,3 20,0 14,-6 28,-13 44,-13 16,0 30,7 44,13 1,1 4,1 5,1 8,0 15,-10 15,-21 V 127 c 0,-52 32,-99 80,-99 9,0 13,-7 13,-14 C 348,7 344,0 335,0 287,0 239,13 191,13 143,13 96,0 48,0 39,0 34,7 34,14 c 0,7 5,14 14,14 48,0 79,47 79,99 v 220 c 0,15 -10,22 -19,22 -5,0 -10,-1 -12,-6 L 31,234 c -3,-7 -9,-9 -15,-9 -9,0 -18,7 -18,17 0,3 1,5 2,8 z"
         fill="currentColor"
         id="path1930" />
    </g>
  </a>
  <a
     style="color:inherit"
     xlink:href="textedit://C:/Users/Javier/Documents/lilypond%20scores/shifting.ly:327:11:12"
     id="a1940"
     transform="translate(-5.6906,-5.3817)">
    <g
       transform="translate(18.7563,13.6317)"
       id="g1938">
      <path
         transform="scale(0.0044,-0.0044)"
         d="m 220,135 c 54,0 106,-27 106,-87 0,-71 -56,-120 -103,-148 -36,-21 -76,-35 -117,-35 -54,0 -106,27 -106,87 0,71 56,120 103,148 36,21 76,35 117,35 z"
         fill="currentColor"
         id="path1936" />
    </g>
  </a>
</svg>
