<svg
   version="1.2"
   width="149.30783mm"
   height="24.976656mm"
   viewBox="0 0 84.964403 14.213096"
   id="svg3468"
   sodipodi:docname="shifting-3.svg"
   xmlns:inkscape="http://www.inkscape.org/namespaces/inkscape"
   xmlns:sodipodi="http://sodipodi.sourceforge.net/DTD/sodipodi-0.dtd"
   xmlns:xlink="http://www.w3.org/1999/xlink"
   xmlns="http://www.w3.org/2000/svg"
   xmlns:svg="http://www.w3.org/2000/svg">
  <defs
     id="defs3472" />
  <sodipodi:namedview
     id="namedview3470"
     pagecolor="#ffffff"
     bordercolor="#000000"
     borderopacity="0.25"
     inkscape:showpageshadow="2"
     inkscape:pageopacity="0.0"
     inkscape:pagecheckerboard="0"
     inkscape:deskcolor="#d1d1d1"
     inkscape:document-units="mm"
     showgrid="false" />
  <style
     type="text/css"
     id="style1738"><![CDATA[
tspan { white-space: pre; }
]]></style>
  <!-- Page: 3/3 -->
  <g
     transform="translate(3.1967416e-8,11.5261)"
     id="g2860">
    <line
       stroke-linejoin="round"
       stroke-linecap="round"
       stroke-width="0.1034"
       stroke="currentColor"
       x1="0.0517"
       y1="0"
       x2="84.912697"
       y2="0"
       id="line2858" />
  </g>
  <g
     transform="translate(3.1967416e-8,10.4261)"
     id="g2864">
    <line
       stroke-linejoin="round"
       stroke-linecap="round"
       stroke-width="0.1034"
       stroke="currentColor"
       x1="0.0517"
       y1="0"
       x2="84.912697"
       y2="0"
       id="line2862" />
  </g>
  <g
     transform="translate(3.1967416e-8,9.3261003)"
     id="g2868">
    <line
       stroke-linejoin="round"
       stroke-linecap="round"
       stroke-width="0.1034"
       stroke="currentColor"
       x1="0.0517"
       y1="0"
       x2="84.912697"
       y2="0"
       id="line2866" />
  </g>
  <g
     transform="translate(3.1967416e-8,8.2261003)"
     id="g2872">
    <line
       stroke-linejoin="round"
       stroke-linecap="round"
       stroke-width="0.1034"
       stroke="currentColor"
       x1="0.0517"
       y1="0"
       x2="84.912697"
       y2="0"
       id="line2870" />
  </g>
  <g
     transform="translate(3.1967416e-8,7.1261003)"
     id="g2876">
    <line
       stroke-linejoin="round"
       stroke-linecap="round"
       stroke-width="0.1034"
       stroke="currentColor"
       x1="0.0517"
       y1="0"
       x2="84.912697"
       y2="0"
       id="line2874" />
  </g>
  <g
     transform="translate(3.1967416e-8,12.6261)"
     id="g2880">
    <rect
       x="76.487602"
       y="-0.1067"
       width="2.1536"
       height="0.21340001"
       ry="0.1067"
       fill="currentColor"
       id="rect2878" />
  </g>
  <g
     transform="translate(3.1967416e-8,12.6261)"
     id="g2884">
    <rect
       x="68.8162"
       y="-0.1067"
       width="2.1536"
       height="0.21340001"
       ry="0.1067"
       fill="currentColor"
       id="rect2882" />
  </g>
  <g
     transform="translate(3.1967416e-8,12.6261)"
     id="g2888">
    <rect
       x="61.144699"
       y="-0.1067"
       width="2.1536"
       height="0.21340001"
       ry="0.1067"
       fill="currentColor"
       id="rect2886" />
  </g>
  <g
     transform="translate(3.1967416e-8,12.6261)"
     id="g2892">
    <rect
       x="53.473301"
       y="-0.1067"
       width="2.1536"
       height="0.21340001"
       ry="0.1067"
       fill="currentColor"
       id="rect2890" />
  </g>
  <g
     transform="translate(3.1967416e-8,12.6261)"
     id="g2896">
    <rect
       x="46.348598"
       y="-0.1067"
       width="2.1536"
       height="0.21340001"
       ry="0.1067"
       fill="currentColor"
       id="rect2894" />
  </g>
  <g
     transform="translate(3.1967416e-8,12.6261)"
     id="g2900">
    <rect
       x="35.805801"
       y="-0.1067"
       width="2.1536"
       height="0.21340001"
       ry="0.1067"
       fill="currentColor"
       id="rect2898" />
  </g>
  <g
     transform="translate(3.1967416e-8,12.6261)"
     id="g2904">
    <rect
       x="25.263"
       y="-0.1067"
       width="2.1536"
       height="0.21340001"
       ry="0.1067"
       fill="currentColor"
       id="rect2902" />
  </g>
  <g
     transform="translate(3.1967416e-8,12.6261)"
     id="g2908">
    <rect
       x="14.7201"
       y="-0.1067"
       width="2.1536"
       height="0.21340001"
       ry="0.1067"
       fill="currentColor"
       id="rect2906" />
  </g>
  <g
     transform="translate(52.7357,9.3261003)"
     id="g2912">
    <rect
       x="0"
       y="-2.2"
       width="0.1965"
       height="4.4000001"
       ry="0.0000"
       fill="currentColor"
       id="rect2910" />
  </g>
  <g
     transform="translate(52.2289,9.3261003)"
     id="g2916">
    <rect
       x="0"
       y="-2.2"
       width="0.1965"
       height="4.4000001"
       ry="0.0000"
       fill="currentColor"
       id="rect2914" />
  </g>
  <g
     transform="translate(84.7679,9.3261003)"
     id="g2920">
    <rect
       x="0"
       y="-2.2"
       width="0.1965"
       height="4.4000001"
       ry="0.0000"
       fill="currentColor"
       id="rect2918" />
  </g>
  <g
     transform="translate(50.9617,9.3261003)"
     id="g2924">
    <rect
       x="-0.067199998"
       y="-5.4804001"
       width="0.1345"
       height="2.5193999"
       ry="0.039999999"
       fill="currentColor"
       id="rect2922" />
  </g>
  <g
     transform="translate(55.2007,9.3261003)"
     id="g2928">
    <rect
       x="-0.067199998"
       y="-1.3223"
       width="0.1345"
       height="4.4113002"
       ry="0.039999999"
       fill="currentColor"
       id="rect2926" />
  </g>
  <a
     style="color:inherit"
     xlink:href="textedit://C:/Users/Javier/Documents/lilypond%20scores/shifting.ly:365:4:5"
     id="a2934"
     transform="translate(-5.6906,-33.4375)">
    <g
       transform="translate(59.5228,46.0636)"
       id="g2932">
      <path
         transform="scale(0.0044,-0.0044)"
         d="m 220,135 c 54,0 106,-27 106,-87 0,-71 -56,-120 -103,-148 -36,-21 -76,-35 -117,-35 -54,0 -106,27 -106,87 0,71 56,120 103,148 36,21 76,35 117,35 z"
         fill="currentColor"
         id="path2930" />
    </g>
  </a>
  <a
     style="color:inherit"
     xlink:href="textedit://C:/Users/Javier/Documents/lilypond%20scores/shifting.ly:365:10:11"
     id="a2940"
     transform="translate(-5.6906,-33.4375)">
    <g
       transform="translate(63.6085,43.8636)"
       id="g2938">
      <path
         transform="scale(0.0044,-0.0044)"
         d="m 220,135 c 54,0 106,-27 106,-87 0,-71 -56,-120 -103,-148 -36,-21 -76,-35 -117,-35 -54,0 -106,27 -106,87 0,71 56,120 103,148 36,21 76,35 117,35 z"
         fill="currentColor"
         id="path2936" />
    </g>
  </a>
  <g
     transform="translate(40.4189,9.3261003)"
     id="g2944">
    <rect
       x="-0.067199998"
       y="-5.2715998"
       width="0.1345"
       height="3.4105999"
       ry="0.039999999"
       fill="currentColor"
       id="rect2942" />
  </g>
  <g
     transform="translate(45.4403,9.3261003)"
     id="g2948">
    <rect
       x="-0.067199998"
       y="-3.8741"
       width="0.1345"
       height="6.4130001"
       ry="0.039999999"
       fill="currentColor"
       id="rect2946" />
  </g>
  <a
     style="color:inherit"
     xlink:href="textedit://C:/Users/Javier/Documents/lilypond%20scores/shifting.ly:361:8:9"
     id="a2954"
     transform="translate(-5.6906,-33.4375)">
    <g
       transform="translate(15.4982,42.7636)"
       id="g2952">
      <path
         stroke-width="0.0827"
         stroke-linejoin="round"
         stroke-linecap="round"
         stroke="currentColor"
         fill="currentColor"
         d="m 0.6201,3.346 c 0.9874,1.3648 3.8205,1.956 5.2714,1.1 v 0 C 4.466,5.1805 1.6329,4.5893 0.6201,3.346 Z"
         id="path2950" />
    </g>
  </a>
  <a
     style="color:inherit"
     xlink:href="textedit://C:/Users/Javier/Documents/lilypond%20scores/shifting.ly:362:20:21"
     id="a2960"
     transform="translate(-5.6906,-33.4375)">
    <g
       transform="translate(47.1267,44.9636)"
       id="g2958">
      <path
         transform="scale(0.0044,-0.0044)"
         d="m 220,135 c 54,0 106,-27 106,-87 0,-71 -56,-120 -103,-148 -36,-21 -76,-35 -117,-35 -54,0 -106,27 -106,87 0,71 56,120 103,148 36,21 76,35 117,35 z"
         fill="currentColor"
         id="path2956" />
    </g>
  </a>
  <g
     transform="translate(42.8046,9.3261003)"
     id="g2964">
    <rect
       x="-0.067199998"
       y="-3.1073"
       width="0.1345"
       height="5.0962"
       ry="0.039999999"
       fill="currentColor"
       id="rect2962" />
  </g>
  <a
     style="color:inherit"
     xlink:href="textedit://C:/Users/Javier/Documents/lilypond%20scores/shifting.ly:362:25:26"
     id="a2970"
     transform="translate(-5.6906,-33.4375)">
    <g
       transform="translate(49.7624,45.5136)"
       id="g2968">
      <path
         transform="scale(0.0044,-0.0044)"
         d="m 220,135 c 54,0 106,-27 106,-87 0,-71 -56,-120 -103,-148 -36,-21 -76,-35 -117,-35 -54,0 -106,27 -106,87 0,71 56,120 103,148 36,21 76,35 117,35 z"
         fill="currentColor"
         id="path2966" />
    </g>
  </a>
  <a
     style="color:inherit"
     xlink:href="textedit://C:/Users/Javier/Documents/lilypond%20scores/shifting.ly:362:33:34"
     id="a2976"
     transform="translate(-5.6906,-33.4375)">
    <g
       transform="translate(55.5407,36.4692)"
       id="g2974">
      <path
         transform="scale(0.0025,-0.0025)"
         d="m 189,465 c -55,0 -62,-74 -62,-145 v -70 -70 c 0,-71 7,-145 62,-145 55,0 62,74 62,145 v 70 70 c 0,71 -7,145 -62,145 z m 0,35 C 306,500 378,378 378,250 378,122 306,0 189,0 72,0 0,122 0,250 0,378 72,500 189,500 Z"
         fill="currentColor"
         id="path2972" />
    </g>
  </a>
  <a
     style="color:inherit"
     xlink:href="textedit://C:/Users/Javier/Documents/lilypond%20scores/shifting.ly:362:27:28"
     id="a2982"
     transform="translate(-5.6906,-33.4375)">
    <g
       transform="translate(52.3981,46.0636)"
       id="g2980">
      <path
         transform="scale(0.0044,-0.0044)"
         d="m 220,135 c 54,0 106,-27 106,-87 0,-71 -56,-120 -103,-148 -36,-21 -76,-35 -117,-35 -54,0 -106,27 -106,87 0,71 56,120 103,148 36,21 76,35 117,35 z"
         fill="currentColor"
         id="path2978" />
    </g>
  </a>
  <g
     transform="translate(48.076,9.3261003)"
     id="g2986">
    <rect
       x="-0.067199998"
       y="-4.6409001"
       width="0.1345"
       height="7.7298999"
       ry="0.039999999"
       fill="currentColor"
       id="rect2984" />
  </g>
  <a
     style="color:inherit"
     xlink:href="textedit://C:/Users/Javier/Documents/lilypond%20scores/shifting.ly:362:30:31"
     id="a2992"
     transform="translate(-5.6906,-33.4375)">
    <g
       transform="translate(55.2838,40.0136)"
       id="g2990">
      <path
         transform="scale(0.0044,-0.0044)"
         d="m 220,135 c 54,0 106,-27 106,-87 0,-71 -56,-120 -103,-148 -36,-21 -76,-35 -117,-35 -54,0 -106,27 -106,87 0,71 56,120 103,148 36,21 76,35 117,35 z"
         fill="currentColor"
         id="path2988" />
    </g>
  </a>
  <a
     style="color:inherit"
     xlink:href="textedit://C:/Users/Javier/Documents/lilypond%20scores/shifting.ly:362:35:36"
     id="a2998"
     transform="translate(-5.6906,-33.4375)">
    <g
       transform="translate(55.4895,34.69)"
       id="g2996">
      <path
         transform="scale(0.0025,-0.0025)"
         d="m 199,287 c 23,15 47,31 64,53 12,16 19,33 28,51 2,4 7,7 11,7 7,0 15,-6 15,-17 V 160 h 78 c 12,0 17,-9 17,-18 0,-9 -5,-17 -17,-17 h -78 c 1,-51 32,-97 79,-97 9,0 14,-7 14,-14 C 410,7 405,0 396,0 348,0 301,13 253,13 205,13 158,0 110,0 101,0 96,7 96,14 c 0,7 5,14 14,14 47,0 78,46 79,97 H 35 c -28,0 -37,16 -37,27 0,3 1,6 2,8 78,89 126,201 126,320 0,11 7,20 16,20 h 3 c 25,-7 50,-13 76,-13 26,0 51,6 76,13 2,1 4,1 6,1 10,0 16,-7 16,-14 0,-2 0,-5 -2,-7 L 35,160 h 154 v 101 c 0,10 2,21 10,26 z"
         fill="currentColor"
         id="path2994" />
    </g>
  </a>
  <g
     transform="translate(70.4763,5.8138003)"
     id="g3002">
    <polygon
       stroke-linejoin="round"
       stroke-linecap="round"
       stroke-width="0.08"
       fill="currentColor"
       stroke="currentColor"
       points="11.8516,-2.424 11.8516,-1.976 0.04,0.224 0.04,-0.224 "
       id="polygon3000" />
  </g>
  <a
     style="color:inherit"
     xlink:href="textedit://C:/Users/Javier/Documents/lilypond%20scores/shifting.ly:365:31:32"
     id="a3008"
     transform="translate(-5.6906,-33.4375)">
    <g
       transform="translate(82.537,46.0636)"
       id="g3006">
      <path
         transform="scale(0.0044,-0.0044)"
         d="m 220,135 c 54,0 106,-27 106,-87 0,-71 -56,-120 -103,-148 -36,-21 -76,-35 -117,-35 -54,0 -106,27 -106,87 0,71 56,120 103,148 36,21 76,35 117,35 z"
         fill="currentColor"
         id="path3004" />
    </g>
  </a>
  <g
     transform="translate(78.2149,9.3261003)"
     id="g3012">
    <rect
       x="-0.067199998"
       y="-4.9439998"
       width="0.1345"
       height="8.0328999"
       ry="0.039999999"
       fill="currentColor"
       id="rect3010" />
  </g>
  <a
     style="color:inherit"
     xlink:href="textedit://C:/Users/Javier/Documents/lilypond%20scores/shifting.ly:365:35:36"
     id="a3018"
     transform="translate(-5.6906,-33.4375)">
    <g
       transform="translate(86.6228,40.0136)"
       id="g3016">
      <path
         transform="scale(0.0044,-0.0044)"
         d="m 220,135 c 54,0 106,-27 106,-87 0,-71 -56,-120 -103,-148 -36,-21 -76,-35 -117,-35 -54,0 -106,27 -106,87 0,71 56,120 103,148 36,21 76,35 117,35 z"
         fill="currentColor"
         id="path3014" />
    </g>
  </a>
  <g
     transform="translate(82.3006,9.3261003)"
     id="g3022">
    <rect
       x="-0.067199998"
       y="-5.6998"
       width="0.1345"
       height="2.7388"
       ry="0.039999999"
       fill="currentColor"
       id="rect3020" />
  </g>
  <a
     style="color:inherit"
     xlink:href="textedit://C:/Users/Javier/Documents/lilypond%20scores/shifting.ly:365:33:34"
     id="a3028"
     transform="translate(-5.6906,-33.4375)">
    <g
       transform="translate(82.537,42.7636)"
       id="g3026">
      <path
         stroke-width="0.0827"
         stroke-linejoin="round"
         stroke-linecap="round"
         stroke="currentColor"
         fill="currentColor"
         d="M 1.0685,4.446 C 2.8708,4.2842 5.1262,1.8552 5.1543,0.046 v 0 c -0.119,1.7248 -2.3745,4.1537 -4.0858,4.4 z"
         id="path3024" />
    </g>
  </a>
  <g
     transform="translate(55.1335,8.0138003)"
     id="g3032">
    <polygon
       stroke-linejoin="round"
       stroke-linecap="round"
       stroke-width="0.08"
       fill="currentColor"
       stroke="currentColor"
       points="11.8516,-1.9994 11.8516,-1.5514 0.04,0.224 0.04,-0.224 "
       id="polygon3030" />
  </g>
  <a
     style="color:inherit"
     xlink:href="textedit://C:/Users/Javier/Documents/lilypond%20scores/shifting.ly:365:24:25"
     id="a3038"
     transform="translate(-5.6906,-33.4375)">
    <g
       transform="translate(74.8656,42.7636)"
       id="g3036">
      <path
         stroke-width="0.0827"
         stroke-linejoin="round"
         stroke-linecap="round"
         stroke="currentColor"
         fill="currentColor"
         d="M 1.0685,4.446 C 2.8708,4.2842 5.1262,1.8552 5.1543,0.046 v 0 c -0.119,1.7248 -2.3745,4.1537 -4.0858,4.4 z"
         id="path3034" />
    </g>
  </a>
  <a
     style="color:inherit"
     xlink:href="textedit://C:/Users/Javier/Documents/lilypond%20scores/shifting.ly:365:16:17"
     id="a3044"
     transform="translate(-5.6906,-33.4375)">
    <g
       transform="translate(67.1942,42.7636)"
       id="g3042">
      <path
         stroke-width="0.0827"
         stroke-linejoin="round"
         stroke-linecap="round"
         stroke="currentColor"
         fill="currentColor"
         d="M 1.0461,4.446 C 2.7777,4.4129 4.996,2.3226 5.1318,0.596 v 0 C 4.9109,2.2322 2.6926,4.3226 1.0461,4.446 Z"
         id="path3040" />
    </g>
  </a>
  <a
     style="color:inherit"
     xlink:href="textedit://C:/Users/Javier/Documents/lilypond%20scores/shifting.ly:365:8:9"
     id="a3050"
     transform="translate(-5.6906,-33.4375)">
    <g
       transform="translate(59.5228,42.7636)"
       id="g3048">
      <path
         stroke-width="0.0827"
         stroke-linejoin="round"
         stroke-linecap="round"
         stroke="currentColor"
         fill="currentColor"
         d="M 0.9312,4.446 C 2.3733,4.8667 4.484,3.8155 5.0169,2.411 v 0 C 4.4286,3.7044 2.318,4.7556 0.9312,4.446 Z"
         id="path3046" />
    </g>
  </a>
  <g
     transform="translate(42.7373,6.2384003)"
     id="g3054">
    <polygon
       stroke-linejoin="round"
       stroke-linecap="round"
       stroke-width="0.08"
       fill="currentColor"
       stroke="currentColor"
       points="8.2516,-2.6363 8.2516,-2.1883 0.04,0.224 0.04,-0.224 "
       id="polygon3052" />
  </g>
  <g
     transform="translate(42.7373,7.1261003)"
     id="g3058">
    <polygon
       stroke-linejoin="round"
       stroke-linecap="round"
       stroke-width="0.08"
       fill="currentColor"
       stroke="currentColor"
       points="8.2516,-2.6363 8.2516,-2.1883 0.04,0.224 0.04,-0.224 "
       id="polygon3056" />
  </g>
  <g
     transform="translate(32.1945,6.0261003)"
     id="g3062">
    <polygon
       stroke-linejoin="round"
       stroke-linecap="round"
       stroke-width="0.08"
       fill="currentColor"
       stroke="currentColor"
       points="8.2516,-2.2117 8.2516,-1.7637 0.04,0.224 0.04,-0.224 "
       id="polygon3060" />
  </g>
  <g
     transform="translate(32.1945,6.9138003)"
     id="g3066">
    <polygon
       stroke-linejoin="round"
       stroke-linecap="round"
       stroke-width="0.08"
       fill="currentColor"
       stroke="currentColor"
       points="8.2516,-2.2117 8.2516,-1.7637 0.04,0.224 0.04,-0.224 "
       id="polygon3064" />
  </g>
  <a
     style="color:inherit"
     xlink:href="textedit://C:/Users/Javier/Documents/lilypond%20scores/shifting.ly:362:23:24"
     id="a3072"
     transform="translate(-5.6906,-33.4375)">
    <g
       transform="translate(47.1267,42.7636)"
       id="g3070">
      <path
         stroke-width="0.0827"
         stroke-linejoin="round"
         stroke-linecap="round"
         stroke="currentColor"
         fill="currentColor"
         d="m 0.6201,3.346 c 0.9874,1.3648 3.8205,1.956 5.2714,1.1 v 0 C 4.466,5.1805 1.6329,4.5893 0.6201,3.346 Z"
         id="path3068" />
    </g>
  </a>
  <g
     transform="translate(21.6517,7.3384003)"
     id="g3076">
    <polygon
       stroke-linejoin="round"
       stroke-linecap="round"
       stroke-width="0.08"
       fill="currentColor"
       stroke="currentColor"
       points="8.2516,-1.5363 8.2516,-1.0883 0.04,0.224 0.04,-0.224 "
       id="polygon3074" />
  </g>
  <g
     transform="translate(21.6517,8.2261003)"
     id="g3080">
    <polygon
       stroke-linejoin="round"
       stroke-linecap="round"
       stroke-width="0.08"
       fill="currentColor"
       stroke="currentColor"
       points="8.2516,-1.5363 8.2516,-1.0883 0.04,0.224 0.04,-0.224 "
       id="polygon3078" />
  </g>
  <a
     style="color:inherit"
     xlink:href="textedit://C:/Users/Javier/Documents/lilypond%20scores/shifting.ly:362:7:8"
     id="a3086"
     transform="translate(-5.6906,-33.4375)">
    <g
       transform="translate(36.5839,42.7636)"
       id="g3084">
      <path
         stroke-width="0.0827"
         stroke-linejoin="round"
         stroke-linecap="round"
         stroke="currentColor"
         fill="currentColor"
         d="m 0.6201,3.346 c 0.9874,1.3648 3.8205,1.956 5.2714,1.1 v 0 C 4.466,5.1805 1.6329,4.5893 0.6201,3.346 Z"
         id="path3082" />
    </g>
  </a>
  <g
     transform="translate(11.1089,7.3384003)"
     id="g3090">
    <polygon
       stroke-linejoin="round"
       stroke-linecap="round"
       stroke-width="0.08"
       fill="currentColor"
       stroke="currentColor"
       points="8.2516,-0.4363 8.2516,0.0117 0.04,0.224 0.04,-0.224 "
       id="polygon3088" />
  </g>
  <g
     transform="translate(11.1089,8.2261003)"
     id="g3094">
    <polygon
       stroke-linejoin="round"
       stroke-linecap="round"
       stroke-width="0.08"
       fill="currentColor"
       stroke="currentColor"
       points="8.2516,-0.4363 8.2516,0.0117 0.04,0.224 0.04,-0.224 "
       id="polygon3092" />
  </g>
  <a
     style="color:inherit"
     xlink:href="textedit://C:/Users/Javier/Documents/lilypond%20scores/shifting.ly:361:33:34"
     id="a3100"
     transform="translate(-5.6906,-33.4375)">
    <g
       transform="translate(26.041,42.7636)"
       id="g3098">
      <path
         stroke-width="0.0827"
         stroke-linejoin="round"
         stroke-linecap="round"
         stroke="currentColor"
         fill="currentColor"
         d="m 0.6201,3.346 c 0.9874,1.3648 3.8205,1.956 5.2714,1.1 v 0 C 4.466,5.1805 1.6329,4.5893 0.6201,3.346 Z"
         id="path3096" />
    </g>
  </a>
  <a
     style="color:inherit"
     xlink:href="textedit://C:/Users/Javier/Documents/lilypond%20scores/shifting.ly:365:14:15"
     id="a3106"
     transform="translate(-5.6906,-33.4375)">
    <g
       transform="translate(67.1942,46.0636)"
       id="g3104">
      <path
         transform="scale(0.0044,-0.0044)"
         d="m 220,135 c 54,0 106,-27 106,-87 0,-71 -56,-120 -103,-148 -36,-21 -76,-35 -117,-35 -54,0 -106,27 -106,87 0,71 56,120 103,148 36,21 76,35 117,35 z"
         fill="currentColor"
         id="path3102" />
    </g>
  </a>
  <g
     transform="translate(62.8721,9.3261003)"
     id="g3110">
    <rect
       x="-0.067199998"
       y="-2.4677"
       width="0.1345"
       height="5.5566001"
       ry="0.039999999"
       fill="currentColor"
       id="rect3108" />
  </g>
  <a
     style="color:inherit"
     xlink:href="textedit://C:/Users/Javier/Documents/lilypond%20scores/shifting.ly:365:18:19"
     id="a3116"
     transform="translate(-5.6906,-33.4375)">
    <g
       transform="translate(71.2799,42.2136)"
       id="g3114">
      <path
         transform="scale(0.0044,-0.0044)"
         d="m 220,135 c 54,0 106,-27 106,-87 0,-71 -56,-120 -103,-148 -36,-21 -76,-35 -117,-35 -54,0 -106,27 -106,87 0,71 56,120 103,148 36,21 76,35 117,35 z"
         fill="currentColor"
         id="path3112" />
    </g>
  </a>
  <g
     transform="translate(66.9578,9.3261003)"
     id="g3120">
    <rect
       x="-0.067199998"
       y="-3.0776999"
       width="0.1345"
       height="2.3166001"
       ry="0.039999999"
       fill="currentColor"
       id="rect3118" />
  </g>
  <g
     transform="translate(59.2864,9.3261003)"
     id="g3124">
    <rect
       x="-0.067199998"
       y="-1.9323"
       width="0.1345"
       height="2.8213"
       ry="0.039999999"
       fill="currentColor"
       id="rect3122" />
  </g>
  <a
     style="color:inherit"
     xlink:href="textedit://C:/Users/Javier/Documents/lilypond%20scores/shifting.ly:365:22:23"
     id="a3130"
     transform="translate(-5.6906,-33.4375)">
    <g
       transform="translate(74.8656,46.0636)"
       id="g3128">
      <path
         transform="scale(0.0044,-0.0044)"
         d="m 220,135 c 54,0 106,-27 106,-87 0,-71 -56,-120 -103,-148 -36,-21 -76,-35 -117,-35 -54,0 -106,27 -106,87 0,71 56,120 103,148 36,21 76,35 117,35 z"
         fill="currentColor"
         id="path3126" />
    </g>
  </a>
  <g
     transform="translate(70.5435,9.3261003)"
     id="g3134">
    <rect
       x="-0.067199998"
       y="-3.5246999"
       width="0.1345"
       height="6.6136999"
       ry="0.039999999"
       fill="currentColor"
       id="rect3132" />
  </g>
  <a
     style="color:inherit"
     xlink:href="textedit://C:/Users/Javier/Documents/lilypond%20scores/shifting.ly:365:26:27"
     id="a3140"
     transform="translate(-5.6906,-33.4375)">
    <g
       transform="translate(78.9513,41.1136)"
       id="g3138">
      <path
         transform="scale(0.0044,-0.0044)"
         d="m 220,135 c 54,0 106,-27 106,-87 0,-71 -56,-120 -103,-148 -36,-21 -76,-35 -117,-35 -54,0 -106,27 -106,87 0,71 56,120 103,148 36,21 76,35 117,35 z"
         fill="currentColor"
         id="path3136" />
    </g>
  </a>
  <g
     transform="translate(74.6292,9.3261003)"
     id="g3144">
    <rect
       x="-0.067199998"
       y="-4.2806001"
       width="0.1345"
       height="2.4196"
       ry="0.039999999"
       fill="currentColor"
       id="rect3142" />
  </g>
  <a
     style="color:inherit"
     xlink:href="textedit://C:/Users/Javier/Documents/lilypond%20scores/shifting.ly:361:23:24"
     id="a3150"
     transform="translate(-5.6906,-33.4375)">
    <g
       transform="translate(20.7696,46.0636)"
       id="g3148">
      <path
         transform="scale(0.0044,-0.0044)"
         d="m 220,135 c 54,0 106,-27 106,-87 0,-71 -56,-120 -103,-148 -36,-21 -76,-35 -117,-35 -54,0 -106,27 -106,87 0,71 56,120 103,148 36,21 76,35 117,35 z"
         fill="currentColor"
         id="path3146" />
    </g>
  </a>
  <g
     transform="translate(16.4475,9.3261003)"
     id="g3154">
    <rect
       x="-0.067199998"
       y="-2.1243999"
       width="0.1345"
       height="5.2133999"
       ry="0.039999999"
       fill="currentColor"
       id="rect3152" />
  </g>
  <a
     style="color:inherit"
     xlink:href="textedit://C:/Users/Javier/Documents/lilypond%20scores/shifting.ly:361:26:27"
     id="a3160"
     transform="translate(-5.6906,-33.4375)">
    <g
       transform="translate(23.6553,43.8636)"
       id="g3158">
      <path
         transform="scale(0.0044,-0.0044)"
         d="m 220,135 c 54,0 106,-27 106,-87 0,-71 -56,-120 -103,-148 -36,-21 -76,-35 -117,-35 -54,0 -106,27 -106,87 0,71 56,120 103,148 36,21 76,35 117,35 z"
         fill="currentColor"
         id="path3156" />
    </g>
  </a>
  <a
     style="color:inherit"
     xlink:href="textedit://C:/Users/Javier/Documents/lilypond%20scores/shifting.ly:361:28:29"
     id="a3166"
     transform="translate(-5.6906,-33.4375)">
    <g
       transform="translate(23.861,39.7513)"
       id="g3164">
      <path
         transform="scale(0.0025,-0.0025)"
         d="m 199,287 c 23,15 47,31 64,53 12,16 19,33 28,51 2,4 7,7 11,7 7,0 15,-6 15,-17 V 160 h 78 c 12,0 17,-9 17,-18 0,-9 -5,-17 -17,-17 h -78 c 1,-51 32,-97 79,-97 9,0 14,-7 14,-14 C 410,7 405,0 396,0 348,0 301,13 253,13 205,13 158,0 110,0 101,0 96,7 96,14 c 0,7 5,14 14,14 47,0 78,46 79,97 H 35 c -28,0 -37,16 -37,27 0,3 1,6 2,8 78,89 126,201 126,320 0,11 7,20 16,20 h 3 c 25,-7 50,-13 76,-13 26,0 51,6 76,13 2,1 4,1 6,1 10,0 16,-7 16,-14 0,-2 0,-5 -2,-7 L 35,160 h 154 v 101 c 0,10 2,21 10,26 z"
         fill="currentColor"
         id="path3162" />
    </g>
  </a>
  <g
     transform="translate(19.3332,9.3261003)"
     id="g3170">
    <rect
       x="-0.067199998"
       y="-2.1982999"
       width="0.1345"
       height="3.0871999"
       ry="0.039999999"
       fill="currentColor"
       id="rect3168" />
  </g>
  <a
     style="color:inherit"
     xlink:href="textedit://C:/Users/Javier/Documents/lilypond%20scores/shifting.ly:361:31:32"
     id="a3176"
     transform="translate(-5.6906,-33.4375)">
    <g
       transform="translate(26.041,44.9636)"
       id="g3174">
      <path
         transform="scale(0.0044,-0.0044)"
         d="m 220,135 c 54,0 106,-27 106,-87 0,-71 -56,-120 -103,-148 -36,-21 -76,-35 -117,-35 -54,0 -106,27 -106,87 0,71 56,120 103,148 36,21 76,35 117,35 z"
         fill="currentColor"
         id="path3172" />
    </g>
  </a>
  <g
     transform="translate(21.7189,9.3261003)"
     id="g3180">
    <rect
       x="-0.067199998"
       y="-1.9984"
       width="0.1345"
       height="3.9872999"
       ry="0.039999999"
       fill="currentColor"
       id="rect3178" />
  </g>
  <a
     style="color:inherit"
     xlink:href="textedit://C:/Users/Javier/Documents/lilypond%20scores/shifting.ly:362:17:18"
     id="a3186"
     transform="translate(-5.6906,-33.4375)">
    <g
       transform="translate(44.9467,36.678)"
       id="g3184">
      <path
         transform="scale(0.0025,-0.0025)"
         d="m 199,287 c 23,15 47,31 64,53 12,16 19,33 28,51 2,4 7,7 11,7 7,0 15,-6 15,-17 V 160 h 78 c 12,0 17,-9 17,-18 0,-9 -5,-17 -17,-17 h -78 c 1,-51 32,-97 79,-97 9,0 14,-7 14,-14 C 410,7 405,0 396,0 348,0 301,13 253,13 205,13 158,0 110,0 101,0 96,7 96,14 c 0,7 5,14 14,14 47,0 78,46 79,97 H 35 c -28,0 -37,16 -37,27 0,3 1,6 2,8 78,89 126,201 126,320 0,11 7,20 16,20 h 3 c 25,-7 50,-13 76,-13 26,0 51,6 76,13 2,1 4,1 6,1 10,0 16,-7 16,-14 0,-2 0,-5 -2,-7 L 35,160 h 154 v 101 c 0,10 2,21 10,26 z"
         fill="currentColor"
         id="path3182" />
    </g>
  </a>
  <a
     style="color:inherit"
     xlink:href="textedit://C:/Users/Javier/Documents/lilypond%20scores/shifting.ly:361:35:36"
     id="a3192"
     transform="translate(-5.6906,-33.4375)">
    <g
       transform="translate(28.6767,45.5136)"
       id="g3190">
      <path
         transform="scale(0.0044,-0.0044)"
         d="m 220,135 c 54,0 106,-27 106,-87 0,-71 -56,-120 -103,-148 -36,-21 -76,-35 -117,-35 -54,0 -106,27 -106,87 0,71 56,120 103,148 36,21 76,35 117,35 z"
         fill="currentColor"
         id="path3188" />
    </g>
  </a>
  <g
     transform="translate(24.3546,9.3261003)"
     id="g3196">
    <rect
       x="-0.067199998"
       y="-2.4154999"
       width="0.1345"
       height="4.9545002"
       ry="0.039999999"
       fill="currentColor"
       id="rect3194" />
  </g>
  <a
     style="color:inherit"
     xlink:href="textedit://C:/Users/Javier/Documents/lilypond%20scores/shifting.ly:361:4:5"
     id="a3202"
     transform="translate(-5.6906,-33.4375)">
    <g
       transform="translate(15.4982,44.9636)"
       id="g3200">
      <path
         transform="scale(0.0044,-0.0044)"
         d="m 220,135 c 54,0 106,-27 106,-87 0,-71 -56,-120 -103,-148 -36,-21 -76,-35 -117,-35 -54,0 -106,27 -106,87 0,71 56,120 103,148 36,21 76,35 117,35 z"
         fill="currentColor"
         id="path3198" />
    </g>
  </a>
  <a
     style="color:inherit"
     xlink:href="textedit://C:/Users/Javier/Documents/lilypond%20scores/shifting.ly:361:9:10"
     id="a3210"
     transform="translate(-5.6906,-33.4375)">
    <g
       transform="translate(15.4982,37.9939)"
       id="g3208">
      <text
         font-family="serif"
         font-size="2.4202px"
         text-anchor="start"
         fill="currentColor"
         id="text3206"><tspan
           id="tspan3204">IV Corda</tspan></text>
    </g>
  </a>
  <g
     transform="translate(0.80000003,10.4261)"
     id="g3214">
    <path
       transform="scale(0.0044,-0.0044)"
       d="m 267,-593 -1,-41 h -5 c -108,0 -196,88 -196,196 0,58 54,104 113,104 54,0 95,-48 95,-104 0,-52 -43,-95 -95,-95 -11,0 -23,3 -34,8 26,-40 69,-68 119,-68 z m 108,854 c 5,0 9,1 14,1 155,0 255,-128 255,-260 0,-76 -33,-154 -107,-209 -22,-17 -47,-28 -73,-36 3,-35 5,-71 5,-107 0,-19 -1,-38 -2,-57 -7,-119 -87,-224 -201,-227 l 1,41 c 93,2 154,93 160,192 1,18 1,36 1,54 0,31 -1,63 -4,94 -29,-5 -58,-8 -89,-8 -188,0 -333,172 -333,373 0,177 132,307 249,441 -19,63 -35,125 -43,190 -6,51 -7,103 -7,155 0,116 56,226 150,294 5,4 13,3 18,-1 70,-84 132,-245 132,-358 0,-143 -86,-255 -181,-364 20,-69 38,-138 55,-208 z m 85,-465 c 69,24 115,96 115,165 0,91 -68,182 -176,192 25,-117 47,-233 61,-357 z M 73,30 c 0,-136 130,-250 265,-250 28,0 55,2 82,6 C 406,-87 382,32 356,152 277,143 232,90 232,32 c 0,-44 26,-91 82,-123 5,-4 6,-10 6,-15 0,-11 -9,-21 -21,-21 -3,0 -5,1 -8,2 -80,43 -117,114 -117,184 0,88 58,173 159,196 -14,59 -30,119 -46,177 C 180,311 73,190 73,30 Z m 358,885 c 0,57 -4,80 -21,132 -99,-49 -162,-150 -162,-260 0,-75 17,-135 35,-197 81,97 148,199 148,325 z"
       fill="currentColor"
       id="path3212" />
  </g>
  <a
     style="color:inherit"
     xlink:href="textedit://C:/Users/Javier/Documents/lilypond%20scores/shifting.ly:359:4:5"
     id="a3228"
     transform="translate(-5.6906,-33.4375)">
    <g
       transform="translate(10.1131,42.7636)"
       id="g3218">
      <path
         transform="scale(0.0044,-0.0044)"
         d="m 26,43 -1,-68 v -11 c 0,-22 0,-44 3,-66 46,38 95,80 95,139 0,34 -14,68 -44,68 C 48,105 27,76 26,43 Z m -40,-180 -12,598 c 8,5 17,6 26,6 9,0 18,-1 26,-6 L 19,113 c 25,20 57,32 90,32 52,0 91,-47 91,-101 0,-81 -88,-118 -150,-169 -15,-12 -22,-35 -42,-35 -12,0 -22,10 -22,23 z"
         fill="currentColor"
         id="path3216" />
    </g>
    <g
       transform="translate(11.1157,41.1136)"
       id="g3222">
      <path
         transform="scale(0.0044,-0.0044)"
         d="m 26,43 -1,-68 v -11 c 0,-22 0,-44 3,-66 46,38 95,80 95,139 0,34 -14,68 -44,68 C 48,105 27,76 26,43 Z m -40,-180 -12,598 c 8,5 17,6 26,6 9,0 18,-1 26,-6 L 19,113 c 25,20 57,32 90,32 52,0 91,-47 91,-101 0,-81 -88,-118 -150,-169 -15,-12 -22,-35 -42,-35 -12,0 -22,10 -22,23 z"
         fill="currentColor"
         id="path3220" />
    </g>
    <g
       transform="translate(12.1182,43.3136)"
       id="g3226">
      <path
         transform="scale(0.0044,-0.0044)"
         d="m 26,43 -1,-68 v -11 c 0,-22 0,-44 3,-66 46,38 95,80 95,139 0,34 -14,68 -44,68 C 48,105 27,76 26,43 Z m -40,-180 -12,598 c 8,5 17,6 26,6 9,0 18,-1 26,-6 L 19,113 c 25,20 57,32 90,32 52,0 91,-47 91,-101 0,-81 -88,-118 -150,-169 -15,-12 -22,-35 -42,-35 -12,0 -22,10 -22,23 z"
         fill="currentColor"
         id="path3224" />
    </g>
  </a>
  <g
     transform="translate(11.1761,9.3261003)"
     id="g3232">
    <rect
       x="-0.067199998"
       y="-1.9894"
       width="0.1345"
       height="3.9784"
       ry="0.039999999"
       fill="currentColor"
       id="rect3230" />
  </g>
  <a
     style="color:inherit"
     xlink:href="textedit://C:/Users/Javier/Documents/lilypond%20scores/shifting.ly:361:21:22"
     id="a3238"
     transform="translate(-5.6906,-33.4375)">
    <g
       transform="translate(18.1339,45.5136)"
       id="g3236">
      <path
         transform="scale(0.0044,-0.0044)"
         d="m 220,135 c 54,0 106,-27 106,-87 0,-71 -56,-120 -103,-148 -36,-21 -76,-35 -117,-35 -54,0 -106,27 -106,87 0,71 56,120 103,148 36,21 76,35 117,35 z"
         fill="currentColor"
         id="path3234" />
    </g>
  </a>
  <g
     transform="translate(13.8118,9.3261003)"
     id="g3242">
    <rect
       x="-0.067199998"
       y="-2.0569"
       width="0.1345"
       height="4.5959001"
       ry="0.039999999"
       fill="currentColor"
       id="rect3240" />
  </g>
  <a
     style="color:inherit"
     xlink:href="textedit://C:/Users/Javier/Documents/lilypond%20scores/shifting.ly:362:9:10"
     id="a3248"
     transform="translate(-5.6906,-33.4375)">
    <g
       transform="translate(39.2196,45.5136)"
       id="g3246">
      <path
         transform="scale(0.0044,-0.0044)"
         d="m 220,135 c 54,0 106,-27 106,-87 0,-71 -56,-120 -103,-148 -36,-21 -76,-35 -117,-35 -54,0 -106,27 -106,87 0,71 56,120 103,148 36,21 76,35 117,35 z"
         fill="currentColor"
         id="path3244" />
    </g>
  </a>
  <a
     style="color:inherit"
     xlink:href="textedit://C:/Users/Javier/Documents/lilypond%20scores/shifting.ly:362:4:5"
     id="a3254"
     transform="translate(-5.6906,-33.4375)">
    <g
       transform="translate(36.5839,44.9636)"
       id="g3252">
      <path
         transform="scale(0.0044,-0.0044)"
         d="m 220,135 c 54,0 106,-27 106,-87 0,-71 -56,-120 -103,-148 -36,-21 -76,-35 -117,-35 -54,0 -106,27 -106,87 0,71 56,120 103,148 36,21 76,35 117,35 z"
         fill="currentColor"
         id="path3250" />
    </g>
  </a>
  <g
     transform="translate(32.2617,9.3261003)"
     id="g3258">
    <rect
       x="-0.067199998"
       y="-3.3160999"
       width="0.1345"
       height="5.3051"
       ry="0.039999999"
       fill="currentColor"
       id="rect3256" />
  </g>
  <g
     transform="translate(34.8974,9.3261003)"
     id="g3262">
    <rect
       x="-0.067199998"
       y="-3.948"
       width="0.1345"
       height="6.4868999"
       ry="0.039999999"
       fill="currentColor"
       id="rect3260" />
  </g>
  <a
     style="color:inherit"
     xlink:href="textedit://C:/Users/Javier/Documents/lilypond%20scores/shifting.ly:362:11:12"
     id="a3268"
     transform="translate(-5.6906,-33.4375)">
    <g
       transform="translate(41.8553,46.0636)"
       id="g3266">
      <path
         transform="scale(0.0044,-0.0044)"
         d="m 220,135 c 54,0 106,-27 106,-87 0,-71 -56,-120 -103,-148 -36,-21 -76,-35 -117,-35 -54,0 -106,27 -106,87 0,71 56,120 103,148 36,21 76,35 117,35 z"
         fill="currentColor"
         id="path3264" />
    </g>
  </a>
  <g
     transform="translate(37.5331,9.3261003)"
     id="g3272">
    <rect
       x="-0.067199998"
       y="-4.5798001"
       width="0.1345"
       height="7.6687999"
       ry="0.039999999"
       fill="currentColor"
       id="rect3270" />
  </g>
  <a
     style="color:inherit"
     xlink:href="textedit://C:/Users/Javier/Documents/lilypond%20scores/shifting.ly:362:14:15"
     id="a3278"
     transform="translate(-5.6906,-33.4375)">
    <g
       transform="translate(44.741,41.1136)"
       id="g3276">
      <path
         transform="scale(0.0044,-0.0044)"
         d="m 220,135 c 54,0 106,-27 106,-87 0,-71 -56,-120 -103,-148 -36,-21 -76,-35 -117,-35 -54,0 -106,27 -106,87 0,71 56,120 103,148 36,21 76,35 117,35 z"
         fill="currentColor"
         id="path3274" />
    </g>
  </a>
  <g
     transform="translate(29.876,9.3261003)"
     id="g3282">
    <rect
       x="-0.067199998"
       y="-3.2894001"
       width="0.1345"
       height="2.5283"
       ry="0.039999999"
       fill="currentColor"
       id="rect3280" />
  </g>
  <a
     style="color:inherit"
     xlink:href="textedit://C:/Users/Javier/Documents/lilypond%20scores/shifting.ly:361:37:38"
     id="a3288"
     transform="translate(-5.6906,-33.4375)">
    <g
       transform="translate(31.3124,46.0636)"
       id="g3286">
      <path
         transform="scale(0.0044,-0.0044)"
         d="m 220,135 c 54,0 106,-27 106,-87 0,-71 -56,-120 -103,-148 -36,-21 -76,-35 -117,-35 -54,0 -106,27 -106,87 0,71 56,120 103,148 36,21 76,35 117,35 z"
         fill="currentColor"
         id="path3284" />
    </g>
  </a>
  <g
     transform="translate(26.9903,9.3261003)"
     id="g3292">
    <rect
       x="-0.067199998"
       y="-2.8326001"
       width="0.1345"
       height="5.9215999"
       ry="0.039999999"
       fill="currentColor"
       id="rect3290" />
  </g>
  <a
     style="color:inherit"
     xlink:href="textedit://C:/Users/Javier/Documents/lilypond%20scores/shifting.ly:361:42:43"
     id="a3298"
     transform="translate(-5.6906,-33.4375)">
    <g
       transform="translate(34.4039,38.6602)"
       id="g3296">
      <path
         transform="scale(0.0025,-0.0025)"
         d="m 199,287 c 23,15 47,31 64,53 12,16 19,33 28,51 2,4 7,7 11,7 7,0 15,-6 15,-17 V 160 h 78 c 12,0 17,-9 17,-18 0,-9 -5,-17 -17,-17 h -78 c 1,-51 32,-97 79,-97 9,0 14,-7 14,-14 C 410,7 405,0 396,0 348,0 301,13 253,13 205,13 158,0 110,0 101,0 96,7 96,14 c 0,7 5,14 14,14 47,0 78,46 79,97 H 35 c -28,0 -37,16 -37,27 0,3 1,6 2,8 78,89 126,201 126,320 0,11 7,20 16,20 h 3 c 25,-7 50,-13 76,-13 26,0 51,6 76,13 2,1 4,1 6,1 10,0 16,-7 16,-14 0,-2 0,-5 -2,-7 L 35,160 h 154 v 101 c 0,10 2,21 10,26 z"
         fill="currentColor"
         id="path3294" />
    </g>
  </a>
  <a
     style="color:inherit"
     xlink:href="textedit://C:/Users/Javier/Documents/lilypond%20scores/shifting.ly:361:40:41"
     id="a3304"
     transform="translate(-5.6906,-33.4375)">
    <g
       transform="translate(34.1982,42.2136)"
       id="g3302">
      <path
         transform="scale(0.0044,-0.0044)"
         d="m 220,135 c 54,0 106,-27 106,-87 0,-71 -56,-120 -103,-148 -36,-21 -76,-35 -117,-35 -54,0 -106,27 -106,87 0,71 56,120 103,148 36,21 76,35 117,35 z"
         fill="currentColor"
         id="path3300" />
    </g>
  </a>
</svg>
