<!-- <?xml version="1.0" encoding="UTF-8" standalone="no"?> -->
<svg
   version="1.2"
   width="52.479969mm"
   height="12.869539mm"
   viewBox="0 0 29.864001 7.3234785"
   id="svg7642"
   xmlns:xlink="http://www.w3.org/1999/xlink"
   xmlns="http://www.w3.org/2000/svg"
   xmlns:svg="http://www.w3.org/2000/svg">
  <defs
     id="defs7646" />
  <style
     type="text/css"
     id="style2"><![CDATA[
tspan { white-space: pre; }
]]></style>
  <!-- Page: 1/3 -->
  <g
     transform="translate(3.1967416e-8,5.4802795)"
     id="g6">
    <line
       stroke-linejoin="round"
       stroke-linecap="round"
       stroke-width="0.0966"
       stroke="currentColor"
       x1="0.048300002"
       y1="0"
       x2="29.815701"
       y2="0"
       id="line4" />
  </g>
  <g
     transform="translate(3.1967416e-8,4.5802795)"
     id="g10">
    <line
       stroke-linejoin="round"
       stroke-linecap="round"
       stroke-width="0.0966"
       stroke="currentColor"
       x1="0.048300002"
       y1="0"
       x2="29.815701"
       y2="0"
       id="line8" />
  </g>
  <g
     transform="translate(3.1967416e-8,3.6802795)"
     id="g14">
    <line
       stroke-linejoin="round"
       stroke-linecap="round"
       stroke-width="0.0966"
       stroke="currentColor"
       x1="0.048300002"
       y1="0"
       x2="29.815701"
       y2="0"
       id="line12" />
  </g>
  <g
     transform="translate(3.1967416e-8,2.7802795)"
     id="g18">
    <line
       stroke-linejoin="round"
       stroke-linecap="round"
       stroke-width="0.0966"
       stroke="currentColor"
       x1="0.048300002"
       y1="0"
       x2="29.815701"
       y2="0"
       id="line16" />
  </g>
  <g
     transform="translate(3.1967416e-8,1.8802795)"
     id="g22">
    <line
       stroke-linejoin="round"
       stroke-linecap="round"
       stroke-width="0.0966"
       stroke="currentColor"
       x1="0.048300002"
       y1="0"
       x2="29.815701"
       y2="0"
       id="line20" />
  </g>
  <g
     transform="translate(3.1967416e-8,6.3802795)"
     id="g26">
    <rect
       x="10.5528"
       y="-0.0933"
       width="1.7588"
       height="0.1866"
       ry="0.0933"
       fill="currentColor"
       id="rect24" />
  </g>
  <g
     transform="translate(3.1967416e-8,6.3802795)"
     id="g30">
    <rect
       x="8.1801996"
       y="-0.0933"
       width="1.7588"
       height="0.1866"
       ry="0.0933"
       fill="currentColor"
       id="rect28" />
  </g>
  <g
     transform="translate(29.6805,3.6802795)"
     id="g34">
    <rect
       x="0"
       y="-1.8"
       width="0.18350001"
       height="3.5999999"
       ry="0.0000"
       fill="currentColor"
       id="rect32" />
  </g>
  <g
     transform="translate(22.7914,3.6802795)"
     id="g38">
    <rect
       x="-0.062799998"
       y="0.61140001"
       width="0.12549999"
       height="1.9136"
       ry="0.039999999"
       fill="currentColor"
       id="rect36" />
  </g>
  <a
     style="color:inherit"
     xlink:href="textedit://C:/Users/Javier/Documents/lilypond%20scores/ricci-fingerings.ly:21:26:27"
     id="a44"
     transform="translate(-5.6906,-3.8959205)">
    <g
       transform="translate(28.647,4.9037)"
       id="g42">
      <path
         transform="scale(0.002,-0.002)"
         d="M 129,129 H 259 C 259,77 291,29 340,29 350,29 354,21 354,14 354,7 350,0 340,0 291,0 243,14 194,14 145,14 98,0 49,0 39,0 34,7 34,14 c 0,7 5,15 15,15 49,0 80,48 80,100 z M 0,250 129,500 c 3,7 13,3 21,0 14,-6 28,-14 44,-14 16,0 31,8 45,14 2,1 2,1 4,1 8,0 16,-9 16,-21 V 129 H 129 v 215 c 0,15 -11,23 -20,23 -5,0 -9,-2 -11,-7 L 32,233 c -4,-7 -9,-9 -15,-9 -9,0 -19,7 -19,17 0,3 0,6 2,9 z"
         fill="currentColor"
         id="path40" />
    </g>
  </a>
  <a
     style="color:inherit"
     xlink:href="textedit://C:/Users/Javier/Documents/lilypond%20scores/ricci-fingerings.ly:21:25:26"
     id="a50"
     transform="translate(-5.6906,-3.8959205)">
    <g
       transform="translate(28.4193,8.0262)"
       id="g48">
      <path
         transform="scale(0.0036,-0.0036)"
         d="m 215,137 c 57,0 111,-29 111,-92 0,-71 -54,-120 -101,-148 -35,-21 -74,-34 -114,-34 -57,0 -111,29 -111,92 0,71 54,120 101,148 35,21 74,34 114,34 z"
         fill="currentColor"
         id="path46" />
    </g>
  </a>
  <g
     transform="translate(21.4457,3.6802795)"
     id="g54">
    <rect
       x="-0.062799998"
       y="-1.625"
       width="0.12549999"
       height="2.3636"
       ry="0.039999999"
       fill="currentColor"
       id="rect52" />
  </g>
  <a
     style="color:inherit"
     xlink:href="textedit://C:/Users/Javier/Documents/lilypond%20scores/ricci-fingerings.ly:21:23:24"
     id="a60"
     transform="translate(-5.6906,-3.8959205)">
    <g
       transform="translate(26.0266,8.4762)"
       id="g58">
      <path
         transform="scale(0.0036,-0.0036)"
         d="m 215,137 c 57,0 111,-29 111,-92 0,-71 -54,-120 -101,-148 -35,-21 -74,-34 -114,-34 -57,0 -111,29 -111,92 0,71 54,120 101,148 35,21 74,34 114,34 z"
         fill="currentColor"
         id="path56" />
    </g>
  </a>
  <g
     transform="translate(19.0732,3.6802795)"
     id="g64">
    <rect
       x="-0.062799998"
       y="-1.35"
       width="0.12549999"
       height="2.5386"
       ry="0.039999999"
       fill="currentColor"
       id="rect62" />
  </g>
  <a
     style="color:inherit"
     xlink:href="textedit://C:/Users/Javier/Documents/lilypond%20scores/ricci-fingerings.ly:21:21:22"
     id="a70"
     transform="translate(-5.6906,-3.8959205)">
    <g
       transform="translate(23.654,8.9262)"
       id="g68">
      <path
         transform="scale(0.0036,-0.0036)"
         d="m 215,137 c 57,0 111,-29 111,-92 0,-71 -54,-120 -101,-148 -35,-21 -74,-34 -114,-34 -57,0 -111,29 -111,92 0,71 54,120 101,148 35,21 74,34 114,34 z"
         fill="currentColor"
         id="path66" />
    </g>
  </a>
  <a
     style="color:inherit"
     xlink:href="textedit://C:/Users/Javier/Documents/lilypond%20scores/ricci-fingerings.ly:21:8:9"
     id="a76"
     transform="translate(-5.6906,-3.8959205)">
    <g
       transform="translate(14.1639,7.5762)"
       id="g74">
      <path
         stroke-width="0.0773"
         stroke-linejoin="round"
         stroke-linecap="round"
         stroke="currentColor"
         fill="currentColor"
         d="M 1.0815,-0.5026 C 3.2078,-2.2411 17.2033,-3.257 19.5584,-1.8438 v 0 C 17.2116,-3.1414 3.2162,-2.1255 1.0815,-0.5026 Z"
         id="path72" />
    </g>
  </a>
  <g
     transform="translate(9.5203,3.8479795)"
     id="g80">
    <polygon
       stroke-linejoin="round"
       stroke-linecap="round"
       stroke-width="0.08"
       fill="currentColor"
       stroke="currentColor"
       points="4.8306,-0.5114 4.8306,-0.1594 0.04,0.176 0.04,-0.176 "
       id="polygon78" />
  </g>
  <g
     transform="translate(16.6379,2.6124795)"
     id="g84">
    <polygon
       stroke-linejoin="round"
       stroke-linecap="round"
       stroke-width="0.08"
       fill="currentColor"
       stroke="currentColor"
       points="4.8306,-0.7406 4.8306,-0.3886 0.04,0.176 0.04,-0.176 "
       id="polygon82" />
  </g>
  <g
     transform="translate(22.7287,6.2124795)"
     id="g88">
    <polygon
       stroke-linejoin="round"
       stroke-linecap="round"
       stroke-width="0.08"
       fill="currentColor"
       stroke="currentColor"
       points="4.8306,-0.7406 4.8306,-0.3886 0.04,0.176 0.04,-0.176 "
       id="polygon86" />
  </g>
  <g
     transform="translate(27.5365,3.6802795)"
     id="g92">
    <rect
       x="-0.062799998"
       y="-0.2886"
       width="0.12549999"
       height="2.2636001"
       ry="0.039999999"
       fill="currentColor"
       id="rect90" />
  </g>
  <a
     style="color:inherit"
     xlink:href="textedit://C:/Users/Javier/Documents/lilypond%20scores/ricci-fingerings.ly:21:33:34"
     id="a98"
     transform="translate(-5.6906,-3.8959205)">
    <g
       transform="translate(33.1643,7.1262)"
       id="g96">
      <path
         transform="scale(0.0036,-0.0036)"
         d="m 215,137 c 57,0 111,-29 111,-92 0,-71 -54,-120 -101,-148 -35,-21 -74,-34 -114,-34 -57,0 -111,29 -111,92 0,71 54,120 101,148 35,21 74,34 114,34 z"
         fill="currentColor"
         id="path94" />
    </g>
  </a>
  <g
     transform="translate(25.164,3.6802795)"
     id="g102">
    <rect
       x="-0.062799998"
       y="0.16140001"
       width="0.12549999"
       height="2.0885999"
       ry="0.039999999"
       fill="currentColor"
       id="rect100" />
  </g>
  <a
     style="color:inherit"
     xlink:href="textedit://C:/Users/Javier/Documents/lilypond%20scores/ricci-fingerings.ly:21:29:30"
     id="a108"
     transform="translate(-5.6906,-3.8959205)">
    <g
       transform="translate(30.7918,7.5762)"
       id="g106">
      <path
         transform="scale(0.0036,-0.0036)"
         d="m 215,137 c 57,0 111,-29 111,-92 0,-71 -54,-120 -101,-148 -35,-21 -74,-34 -114,-34 -57,0 -111,29 -111,92 0,71 54,120 101,148 35,21 74,34 114,34 z"
         fill="currentColor"
         id="path104" />
    </g>
  </a>
  <g
     transform="translate(9.5831,3.6802795)"
     id="g112">
    <rect
       x="-0.062799998"
       y="0.16339999"
       width="0.12549999"
       height="2.8252001"
       ry="0.039999999"
       fill="currentColor"
       id="rect110" />
  </g>
  <a
     style="color:inherit"
     xlink:href="textedit://C:/Users/Javier/Documents/lilypond%20scores/ricci-fingerings.ly:18:4:5"
     id="a122"
     transform="translate(-5.6906,-3.8959205)">
    <g
       transform="translate(10.1072,7.5762)"
       id="g116">
      <path
         transform="scale(0.0036,-0.0036)"
         d="m 29,39 -2,-64 v -11 c 0,-22 2,-43 5,-65 44,38 91,80 91,138 0,33 -13,66 -42,66 C 50,103 30,72 29,39 Z m -57,415 c 9,5 18,8 28,8 10,0 19,-3 28,-8 L 21,111 c 25,23 58,36 92,36 51,0 87,-49 87,-103 0,-79 -84,-117 -144,-169 -16,-14 -25,-41 -47,-41 -14,0 -25,13 -25,27 z"
         fill="currentColor"
         id="path114" />
    </g>
    <g
       transform="translate(10.9439,6.2262)"
       id="g120">
      <path
         transform="scale(0.0036,-0.0036)"
         d="m 29,39 -2,-64 v -11 c 0,-22 2,-43 5,-65 44,38 91,80 91,138 0,33 -13,66 -42,66 C 50,103 30,72 29,39 Z m -57,415 c 9,5 18,8 28,8 10,0 19,-3 28,-8 L 21,111 c 25,23 58,36 92,36 51,0 87,-49 87,-103 0,-79 -84,-117 -144,-169 -16,-14 -25,-41 -47,-41 -14,0 -25,13 -25,27 z"
         fill="currentColor"
         id="path118" />
    </g>
  </a>
  <g
     transform="translate(0.80000003,4.5802795)"
     id="g126">
    <path
       transform="scale(0.0036,-0.0036)"
       d="m 378,263 c 4,0 7,1 11,1 156,0 257,-129 257,-262 0,-76 -34,-154 -108,-210 -22,-17 -46,-29 -72,-37 3,-34 5,-68 5,-102 0,-20 -1,-40 -2,-60 -7,-121 -90,-228 -209,-228 -108,0 -196,87 -196,196 0,58 53,104 112,104 54,0 95,-48 95,-104 0,-52 -43,-95 -95,-95 -10,0 -20,2 -29,6 26,-38 68,-63 116,-63 h 3 c 93,2 153,92 159,190 1,19 2,37 2,56 0,30 -2,60 -4,90 -29,-5 -58,-8 -88,-8 -188,0 -333,173 -333,375 0,177 130,307 246,442 -20,62 -38,125 -46,190 -6,52 -7,104 -7,157 0,115 55,223 148,290 7,5 16,4 22,-1 71,-83 134,-244 134,-357 0,-143 -85,-255 -178,-364 21,-68 40,-137 57,-206 z m 84,-465 c 67,24 111,94 111,162 0,89 -65,178 -170,190 24,-115 46,-230 59,-352 z M 75,26 c 0,-134 129,-245 263,-245 28,0 55,2 81,6 C 405,-87 383,31 358,150 279,142 234,89 234,31 c 0,-43 25,-89 80,-121 5,-5 7,-11 7,-16 0,-12 -10,-23 -22,-23 -3,0 -6,1 -9,2 -81,43 -118,116 -118,186 0,89 58,175 161,198 -14,58 -29,116 -46,173 C 181,308 75,186 75,26 Z M 406,1042 C 307,995 244,894 244,785 c 0,-73 20,-132 38,-191 79,97 144,199 144,324 0,53 -4,76 -20,124 z"
       fill="currentColor"
       id="path124" />
  </g>
  <a
     style="color:inherit"
     xlink:href="textedit://C:/Users/Javier/Documents/lilypond%20scores/ricci-fingerings.ly:21:9:10"
     id="a132"
     transform="translate(-5.6906,-3.8959205)">
    <g
       transform="translate(14.3917,5.2779)"
       id="g130">
      <path
         transform="scale(0.002,-0.002)"
         d="M 129,129 H 259 C 259,77 291,29 340,29 350,29 354,21 354,14 354,7 350,0 340,0 291,0 243,14 194,14 145,14 98,0 49,0 39,0 34,7 34,14 c 0,7 5,15 15,15 49,0 80,48 80,100 z M 0,250 129,500 c 3,7 13,3 21,0 14,-6 28,-14 44,-14 16,0 31,8 45,14 2,1 2,1 4,1 8,0 16,-9 16,-21 V 129 H 129 v 215 c 0,15 -11,23 -20,23 -5,0 -9,-2 -11,-7 L 32,233 c -4,-7 -9,-9 -15,-9 -9,0 -19,7 -19,17 0,3 0,6 2,9 z"
         fill="currentColor"
         id="path128" />
    </g>
  </a>
  <a
     style="color:inherit"
     xlink:href="textedit://C:/Users/Javier/Documents/lilypond%20scores/ricci-fingerings.ly:21:4:5"
     id="a138"
     transform="translate(-5.6906,-3.8959205)">
    <g
       transform="translate(14.1639,10.7262)"
       id="g136">
      <path
         transform="scale(0.0036,-0.0036)"
         d="m 215,137 c 57,0 111,-29 111,-92 0,-71 -54,-120 -101,-148 -35,-21 -74,-34 -114,-34 -57,0 -111,29 -111,92 0,71 54,120 101,148 35,21 74,34 114,34 z"
         fill="currentColor"
         id="path134" />
    </g>
  </a>
  <a
     style="color:inherit"
     xlink:href="textedit://C:/Users/Javier/Documents/lilypond%20scores/ricci-fingerings.ly:21:12:13"
     id="a144"
     transform="translate(-5.6906,-3.8959205)">
    <g
       transform="translate(16.5365,10.2762)"
       id="g142">
      <path
         transform="scale(0.0036,-0.0036)"
         d="m 215,137 c 57,0 111,-29 111,-92 0,-71 -54,-120 -101,-148 -35,-21 -74,-34 -114,-34 -57,0 -111,29 -111,92 0,71 54,120 101,148 35,21 74,34 114,34 z"
         fill="currentColor"
         id="path140" />
    </g>
  </a>
  <g
     transform="translate(16.7007,3.6802795)"
     id="g148">
    <rect
       x="-0.062799998"
       y="-1.075"
       width="0.12549999"
       height="2.7135999"
       ry="0.039999999"
       fill="currentColor"
       id="rect146" />
  </g>
  <a
     style="color:inherit"
     xlink:href="textedit://C:/Users/Javier/Documents/lilypond%20scores/ricci-fingerings.ly:21:18:19"
     id="a154"
     transform="translate(-5.6906,-3.8959205)">
    <g
       transform="translate(21.5093,5.2595)"
       id="g152">
      <path
         transform="scale(0.002,-0.002)"
         d="M 129,129 H 259 C 259,77 291,29 340,29 350,29 354,21 354,14 354,7 350,0 340,0 291,0 243,14 194,14 145,14 98,0 49,0 39,0 34,7 34,14 c 0,7 5,15 15,15 49,0 80,48 80,100 z M 0,250 129,500 c 3,7 13,3 21,0 14,-6 28,-14 44,-14 16,0 31,8 45,14 2,1 2,1 4,1 8,0 16,-9 16,-21 V 129 H 129 v 215 c 0,15 -11,23 -20,23 -5,0 -9,-2 -11,-7 L 32,233 c -4,-7 -9,-9 -15,-9 -9,0 -19,7 -19,17 0,3 0,6 2,9 z"
         fill="currentColor"
         id="path150" />
    </g>
  </a>
  <a
     style="color:inherit"
     xlink:href="textedit://C:/Users/Javier/Documents/lilypond%20scores/ricci-fingerings.ly:21:16:17"
     id="a160"
     transform="translate(-5.6906,-3.8959205)">
    <g
       transform="translate(21.2815,9.3762)"
       id="g158">
      <path
         transform="scale(0.0036,-0.0036)"
         d="m 215,137 c 57,0 111,-29 111,-92 0,-71 -54,-120 -101,-148 -35,-21 -74,-34 -114,-34 -57,0 -111,29 -111,92 0,71 54,120 101,148 35,21 74,34 114,34 z"
         fill="currentColor"
         id="path156" />
    </g>
  </a>
  <g
     transform="translate(14.3281,3.6802795)"
     id="g164">
    <rect
       x="-0.062799998"
       y="-0.16339999"
       width="0.12549999"
       height="2.2520001"
       ry="0.039999999"
       fill="currentColor"
       id="rect162" />
  </g>
  <a
     style="color:inherit"
     xlink:href="textedit://C:/Users/Javier/Documents/lilypond%20scores/ricci-fingerings.ly:21:14:15"
     id="a170"
     transform="translate(-5.6906,-3.8959205)">
    <g
       transform="translate(18.909,9.8262)"
       id="g168">
      <path
         transform="scale(0.0036,-0.0036)"
         d="m 215,137 c 57,0 111,-29 111,-92 0,-71 -54,-120 -101,-148 -35,-21 -74,-34 -114,-34 -57,0 -111,29 -111,92 0,71 54,120 101,148 35,21 74,34 114,34 z"
         fill="currentColor"
         id="path166" />
    </g>
  </a>
  <g
     transform="translate(11.9556,3.6802795)"
     id="g174">
    <rect
       x="-0.062799998"
       y="0"
       width="0.12549999"
       height="2.5386"
       ry="0.039999999"
       fill="currentColor"
       id="rect172" />
  </g>
</svg>
