<!-- <?xml version="1.0" encoding="UTF-8" standalone="no"?> -->
<svg
   version="1.2"
   width="136.37903mm"
   height="21.474583mm"
   viewBox="0 0 77.6072 12.220223"
   id="svg7642"
   sodipodi:docname="ricci-fingerings-1.svg"
   xmlns:inkscape="http://www.inkscape.org/namespaces/inkscape"
   xmlns:sodipodi="http://sodipodi.sourceforge.net/DTD/sodipodi-0.dtd"
   xmlns:xlink="http://www.w3.org/1999/xlink"
   xmlns="http://www.w3.org/2000/svg"
   xmlns:svg="http://www.w3.org/2000/svg">
  <defs
     id="defs7646" />
  <sodipodi:namedview
     id="namedview7644"
     pagecolor="#ffffff"
     bordercolor="#000000"
     borderopacity="0.25"
     inkscape:showpageshadow="2"
     inkscape:pageopacity="0.0"
     inkscape:pagecheckerboard="0"
     inkscape:deskcolor="#d1d1d1"
     inkscape:document-units="mm"
     showgrid="false" />
  <style
     type="text/css"
     id="style2"><![CDATA[
tspan { white-space: pre; }
]]></style>
  <!-- Page: 1/3 -->
  <g
     transform="translate(77.4237,8.0848003)"
     id="g178"
     inkscape:export-filename="ex82b.svg"
     inkscape:export-xdpi="96"
     inkscape:export-ydpi="96">
    <rect
       x="0"
       y="-1.8"
       width="0.18350001"
       height="3.5999999"
       ry="0.0000"
       fill="currentColor"
       id="rect176" />
  </g>
  <g
     transform="translate(36.2254,8.0848003)"
     id="g182">
    <rect
       x="0"
       y="-1.8"
       width="0.18350001"
       height="3.5999999"
       ry="0.0000"
       fill="currentColor"
       id="rect180" />
  </g>
  <g
     transform="translate(3.1967416e-8,9.8848003)"
     id="g186">
    <line
       stroke-linejoin="round"
       stroke-linecap="round"
       stroke-width="0.0966"
       stroke="currentColor"
       x1="0.048300002"
       y1="0"
       x2="77.558899"
       y2="0"
       id="line184" />
  </g>
  <g
     transform="translate(3.1967416e-8,8.9848003)"
     id="g190">
    <line
       stroke-linejoin="round"
       stroke-linecap="round"
       stroke-width="0.0966"
       stroke="currentColor"
       x1="0.048300002"
       y1="0"
       x2="77.558899"
       y2="0"
       id="line188" />
  </g>
  <g
     transform="translate(3.1967416e-8,8.0848003)"
     id="g194">
    <line
       stroke-linejoin="round"
       stroke-linecap="round"
       stroke-width="0.0966"
       stroke="currentColor"
       x1="0.048300002"
       y1="0"
       x2="77.558899"
       y2="0"
       id="line192" />
  </g>
  <g
     transform="translate(3.1967416e-8,7.1848003)"
     id="g198">
    <line
       stroke-linejoin="round"
       stroke-linecap="round"
       stroke-width="0.0966"
       stroke="currentColor"
       x1="0.048300002"
       y1="0"
       x2="77.558899"
       y2="0"
       id="line196" />
  </g>
  <g
     transform="translate(3.1967416e-8,6.2848003)"
     id="g202">
    <line
       stroke-linejoin="round"
       stroke-linecap="round"
       stroke-width="0.0966"
       stroke="currentColor"
       x1="0.048300002"
       y1="0"
       x2="77.558899"
       y2="0"
       id="line200" />
  </g>
  <g
     transform="translate(3.1967416e-8,2.6848003)"
     id="g206">
    <rect
       x="74.900902"
       y="-0.0933"
       width="1.7588"
       height="0.1866"
       ry="0.0933"
       fill="currentColor"
       id="rect204" />
  </g>
  <g
     transform="translate(3.1967416e-8,3.5848003)"
     id="g210">
    <rect
       x="74.900902"
       y="-0.0933"
       width="1.7588"
       height="0.1866"
       ry="0.0933"
       fill="currentColor"
       id="rect208" />
  </g>
  <g
     transform="translate(3.1967416e-8,4.4848003)"
     id="g214">
    <rect
       x="74.900902"
       y="-0.0933"
       width="1.7588"
       height="0.1866"
       ry="0.0933"
       fill="currentColor"
       id="rect212" />
  </g>
  <g
     transform="translate(3.1967416e-8,5.3848003)"
     id="g218">
    <rect
       x="74.900902"
       y="-0.0933"
       width="1.7588"
       height="0.1866"
       ry="0.0933"
       fill="currentColor"
       id="rect216" />
  </g>
  <g
     transform="translate(3.1967416e-8,3.5848003)"
     id="g222">
    <rect
       x="72.278397"
       y="-0.0933"
       width="1.7588"
       height="0.1866"
       ry="0.0933"
       fill="currentColor"
       id="rect220" />
  </g>
  <g
     transform="translate(3.1967416e-8,4.4848003)"
     id="g226">
    <rect
       x="72.278397"
       y="-0.0933"
       width="1.7588"
       height="0.1866"
       ry="0.0933"
       fill="currentColor"
       id="rect224" />
  </g>
  <g
     transform="translate(3.1967416e-8,5.3848003)"
     id="g230">
    <rect
       x="72.278397"
       y="-0.0933"
       width="1.7588"
       height="0.1866"
       ry="0.0933"
       fill="currentColor"
       id="rect228" />
  </g>
  <g
     transform="translate(3.1967416e-8,2.6848003)"
     id="g234">
    <rect
       x="69.905899"
       y="-0.0933"
       width="1.7588"
       height="0.1866"
       ry="0.0933"
       fill="currentColor"
       id="rect232" />
  </g>
  <g
     transform="translate(3.1967416e-8,3.5848003)"
     id="g238">
    <rect
       x="69.905899"
       y="-0.0933"
       width="1.7588"
       height="0.1866"
       ry="0.0933"
       fill="currentColor"
       id="rect236" />
  </g>
  <g
     transform="translate(3.1967416e-8,4.4848003)"
     id="g242">
    <rect
       x="69.905899"
       y="-0.0933"
       width="1.7588"
       height="0.1866"
       ry="0.0933"
       fill="currentColor"
       id="rect240" />
  </g>
  <g
     transform="translate(3.1967416e-8,5.3848003)"
     id="g246">
    <rect
       x="69.905899"
       y="-0.0933"
       width="1.7588"
       height="0.1866"
       ry="0.0933"
       fill="currentColor"
       id="rect244" />
  </g>
  <g
     transform="translate(3.1967416e-8,3.5848003)"
     id="g250">
    <rect
       x="67.283302"
       y="-0.0933"
       width="1.7588"
       height="0.1866"
       ry="0.0933"
       fill="currentColor"
       id="rect248" />
  </g>
  <g
     transform="translate(3.1967416e-8,4.4848003)"
     id="g254">
    <rect
       x="67.283302"
       y="-0.0933"
       width="1.7588"
       height="0.1866"
       ry="0.0933"
       fill="currentColor"
       id="rect252" />
  </g>
  <g
     transform="translate(3.1967416e-8,5.3848003)"
     id="g258">
    <rect
       x="67.283302"
       y="-0.0933"
       width="1.7588"
       height="0.1866"
       ry="0.0933"
       fill="currentColor"
       id="rect256" />
  </g>
  <g
     transform="translate(3.1967416e-8,3.5848003)"
     id="g262">
    <rect
       x="64.910797"
       y="-0.0933"
       width="1.7588"
       height="0.1866"
       ry="0.0933"
       fill="currentColor"
       id="rect260" />
  </g>
  <g
     transform="translate(3.1967416e-8,4.4848003)"
     id="g266">
    <rect
       x="64.910797"
       y="-0.0933"
       width="1.7588"
       height="0.1866"
       ry="0.0933"
       fill="currentColor"
       id="rect264" />
  </g>
  <g
     transform="translate(3.1967416e-8,5.3848003)"
     id="g270">
    <rect
       x="64.910797"
       y="-0.0933"
       width="1.7588"
       height="0.1866"
       ry="0.0933"
       fill="currentColor"
       id="rect268" />
  </g>
  <g
     transform="translate(3.1967416e-8,4.4848003)"
     id="g274">
    <rect
       x="62.2883"
       y="-0.0933"
       width="1.7588"
       height="0.1866"
       ry="0.0933"
       fill="currentColor"
       id="rect272" />
  </g>
  <g
     transform="translate(3.1967416e-8,5.3848003)"
     id="g278">
    <rect
       x="62.2883"
       y="-0.0933"
       width="1.7588"
       height="0.1866"
       ry="0.0933"
       fill="currentColor"
       id="rect276" />
  </g>
  <g
     transform="translate(3.1967416e-8,3.5848003)"
     id="g282">
    <rect
       x="59.915798"
       y="-0.0933"
       width="1.7588"
       height="0.1866"
       ry="0.0933"
       fill="currentColor"
       id="rect280" />
  </g>
  <g
     transform="translate(3.1967416e-8,4.4848003)"
     id="g286">
    <rect
       x="59.915798"
       y="-0.0933"
       width="1.7588"
       height="0.1866"
       ry="0.0933"
       fill="currentColor"
       id="rect284" />
  </g>
  <g
     transform="translate(3.1967416e-8,5.3848003)"
     id="g290">
    <rect
       x="59.915798"
       y="-0.0933"
       width="1.7588"
       height="0.1866"
       ry="0.0933"
       fill="currentColor"
       id="rect288" />
  </g>
  <g
     transform="translate(3.1967416e-8,4.4848003)"
     id="g294">
    <rect
       x="57.293201"
       y="-0.0933"
       width="1.7588"
       height="0.1866"
       ry="0.0933"
       fill="currentColor"
       id="rect292" />
  </g>
  <g
     transform="translate(3.1967416e-8,5.3848003)"
     id="g298">
    <rect
       x="57.293201"
       y="-0.0933"
       width="1.7588"
       height="0.1866"
       ry="0.0933"
       fill="currentColor"
       id="rect296" />
  </g>
  <g
     transform="translate(3.1967416e-8,4.4848003)"
     id="g302">
    <rect
       x="54.9207"
       y="-0.0933"
       width="1.7588"
       height="0.1866"
       ry="0.0933"
       fill="currentColor"
       id="rect300" />
  </g>
  <g
     transform="translate(3.1967416e-8,5.3848003)"
     id="g306">
    <rect
       x="54.9207"
       y="-0.0933"
       width="1.7588"
       height="0.1866"
       ry="0.0933"
       fill="currentColor"
       id="rect304" />
  </g>
  <g
     transform="translate(3.1967416e-8,5.3848003)"
     id="g310">
    <rect
       x="52.298199"
       y="-0.0933"
       width="1.7588"
       height="0.1866"
       ry="0.0933"
       fill="currentColor"
       id="rect308" />
  </g>
  <g
     transform="translate(3.1967416e-8,4.4848003)"
     id="g314">
    <rect
       x="50.030602"
       y="-0.0933"
       width="1.6539"
       height="0.1866"
       ry="0.0933"
       fill="currentColor"
       id="rect312" />
  </g>
  <g
     transform="translate(3.1967416e-8,5.3848003)"
     id="g318">
    <rect
       x="49.925701"
       y="-0.0933"
       width="1.7588"
       height="0.1866"
       ry="0.0933"
       fill="currentColor"
       id="rect316" />
  </g>
  <g
     transform="translate(3.1967416e-8,5.3848003)"
     id="g322">
    <rect
       x="47.176701"
       y="-0.0933"
       width="1.7588"
       height="0.1866"
       ry="0.0933"
       fill="currentColor"
       id="rect320" />
  </g>
  <g
     transform="translate(3.1967416e-8,5.3848003)"
     id="g326">
    <rect
       x="44.804199"
       y="-0.0933"
       width="1.7588"
       height="0.1866"
       ry="0.0933"
       fill="currentColor"
       id="rect324" />
  </g>
  <g
     transform="translate(3.1967416e-8,5.3848003)"
     id="g330">
    <rect
       x="39.8092"
       y="-0.0933"
       width="1.7588"
       height="0.1866"
       ry="0.0933"
       fill="currentColor"
       id="rect328" />
  </g>
  <g
     transform="translate(57.6491,8.0848003)"
     id="g334">
    <rect
       x="-0.062799998"
       y="-3.4386001"
       width="0.12549999"
       height="3.4386001"
       ry="0.039999999"
       fill="currentColor"
       id="rect332" />
  </g>
  <a
     style="color:inherit"
     xlink:href="textedit://C:/Users/Javier/Documents/lilypond%20scores/ricci-fingerings.ly:33:69:70"
     id="a340"
     transform="translate(-5.6906,-13.0125)">
    <g
       transform="translate(65.8994,16.5973)"
       id="g338">
      <path
         transform="scale(0.0036,-0.0036)"
         d="m 215,137 c 57,0 111,-29 111,-92 0,-71 -54,-120 -101,-148 -35,-21 -74,-34 -114,-34 -57,0 -111,29 -111,92 0,71 54,120 101,148 35,21 74,34 114,34 z"
         fill="currentColor"
         id="path336" />
    </g>
  </a>
  <a
     style="color:inherit"
     xlink:href="textedit://C:/Users/Javier/Documents/lilypond%20scores/ricci-fingerings.ly:33:64:65"
     id="a346"
     transform="translate(-5.6906,-13.0125)">
    <g
       transform="translate(63.5047,15.8167)"
       id="g344">
      <path
         transform="scale(0.002,-0.002)"
         d="M 129,129 H 259 C 259,77 291,29 340,29 350,29 354,21 354,14 354,7 350,0 340,0 291,0 243,14 194,14 145,14 98,0 49,0 39,0 34,7 34,14 c 0,7 5,15 15,15 49,0 80,48 80,100 z M 0,250 129,500 c 3,7 13,3 21,0 14,-6 28,-14 44,-14 16,0 31,8 45,14 2,1 2,1 4,1 8,0 16,-9 16,-21 V 129 H 129 v 215 c 0,15 -11,23 -20,23 -5,0 -9,-2 -11,-7 L 32,233 c -4,-7 -9,-9 -15,-9 -9,0 -19,7 -19,17 0,3 0,6 2,9 z"
         fill="currentColor"
         id="path342" />
    </g>
  </a>
  <a
     style="color:inherit"
     xlink:href="textedit://C:/Users/Javier/Documents/lilypond%20scores/ricci-fingerings.ly:33:66:67"
     id="a352"
     transform="translate(-5.6906,-13.0125)">
    <g
       transform="translate(63.5047,24.454)"
       id="g350">
      <path
         transform="scale(0.002,-0.002)"
         d="M 129,129 H 259 C 259,77 291,29 340,29 350,29 354,21 354,14 354,7 350,0 340,0 291,0 243,14 194,14 145,14 98,0 49,0 39,0 34,7 34,14 c 0,7 5,15 15,15 49,0 80,48 80,100 z M 0,250 129,500 c 3,7 13,3 21,0 14,-6 28,-14 44,-14 16,0 31,8 45,14 2,1 2,1 4,1 8,0 16,-9 16,-21 V 129 H 129 v 215 c 0,15 -11,23 -20,23 -5,0 -9,-2 -11,-7 L 32,233 c -4,-7 -9,-9 -15,-9 -9,0 -19,7 -19,17 0,3 0,6 2,9 z"
         fill="currentColor"
         id="path348" />
    </g>
  </a>
  <a
     style="color:inherit"
     xlink:href="textedit://C:/Users/Javier/Documents/lilypond%20scores/ricci-fingerings.ly:33:62:63"
     id="a358"
     transform="translate(-5.6906,-13.0125)">
    <g
       transform="translate(63.2769,17.4973)"
       id="g356">
      <path
         transform="scale(0.0036,-0.0036)"
         d="m 215,137 c 57,0 111,-29 111,-92 0,-71 -54,-120 -101,-148 -35,-21 -74,-34 -114,-34 -57,0 -111,29 -111,92 0,71 54,120 101,148 35,21 74,34 114,34 z"
         fill="currentColor"
         id="path354" />
    </g>
  </a>
  <g
     transform="translate(62.6441,8.0848003)"
     id="g362">
    <rect
       x="-0.062799998"
       y="-3.8886001"
       width="0.12549999"
       height="3.8886001"
       ry="0.039999999"
       fill="currentColor"
       id="rect360" />
  </g>
  <a
     style="color:inherit"
     xlink:href="textedit://C:/Users/Javier/Documents/lilypond%20scores/ricci-fingerings.ly:33:78:79"
     id="a368"
     transform="translate(-5.6906,-13.0125)">
    <g
       transform="translate(68.4826,15.3539)"
       id="g366">
      <path
         transform="scale(0.002,-0.002)"
         d="m 129,149 h 7 c 36,0 74,-13 111,-40 19,-14 40,-21 59,-21 22,0 40,10 46,31 2,7 7,11 13,11 7,0 15,-5 15,-14 v -5 C 361,40 296,0 234,0 196,0 159,15 133,47 121,62 105,69 89,69 60,69 32,48 29,13 28,4 22,0 15,0 8,0 0,5 0,14 c 0,173 233,163 233,341 0,56 -14,116 -62,116 -33,0 -66,-15 -66,-44 0,-24 31,-37 31,-61 0,-34 -27,-61 -61,-61 -34,0 -61,27 -61,61 0,78 74,134 157,134 98,0 191,-55 191,-145 C 362,211 227,199 129,149 Z"
         fill="currentColor"
         id="path364" />
    </g>
  </a>
  <a
     style="color:inherit"
     xlink:href="textedit://C:/Users/Javier/Documents/lilypond%20scores/ricci-fingerings.ly:33:80:81"
     id="a374"
     transform="translate(-5.6906,-13.0125)">
    <g
       transform="translate(68.4826,24.4199)"
       id="g372">
      <path
         transform="scale(0.002,-0.002)"
         d="m 129,149 h 7 c 36,0 74,-13 111,-40 19,-14 40,-21 59,-21 22,0 40,10 46,31 2,7 7,11 13,11 7,0 15,-5 15,-14 v -5 C 361,40 296,0 234,0 196,0 159,15 133,47 121,62 105,69 89,69 60,69 32,48 29,13 28,4 22,0 15,0 8,0 0,5 0,14 c 0,173 233,163 233,341 0,56 -14,116 -62,116 -33,0 -66,-15 -66,-44 0,-24 31,-37 31,-61 0,-34 -27,-61 -61,-61 -34,0 -61,27 -61,61 0,78 74,134 157,134 98,0 191,-55 191,-145 C 362,211 227,199 129,149 Z"
         fill="currentColor"
         id="path370" />
    </g>
  </a>
  <a
     style="color:inherit"
     xlink:href="textedit://C:/Users/Javier/Documents/lilypond%20scores/ricci-fingerings.ly:33:76:77"
     id="a380"
     transform="translate(-5.6906,-13.0125)">
    <g
       transform="translate(68.272,17.0473)"
       id="g378">
      <path
         transform="scale(0.0036,-0.0036)"
         d="m 215,137 c 57,0 111,-29 111,-92 0,-71 -54,-120 -101,-148 -35,-21 -74,-34 -114,-34 -57,0 -111,29 -111,92 0,71 54,120 101,148 35,21 74,34 114,34 z"
         fill="currentColor"
         id="path376" />
    </g>
  </a>
  <a
     style="color:inherit"
     xlink:href="textedit://C:/Users/Javier/Documents/lilypond%20scores/ricci-fingerings.ly:33:73:74"
     id="a386"
     transform="translate(-5.6906,-13.0125)">
    <g
       transform="translate(66.1443,24.4199)"
       id="g384">
      <path
         transform="scale(0.002,-0.002)"
         d="m 155,471 c -34,0 -70,-8 -70,-38 0,-19 31,-23 31,-42 0,-28 -23,-51 -51,-51 -28,0 -51,23 -51,51 0,67 68,109 141,109 93,0 174,-31 174,-113 0,-41 -6,-77 -42,-94 -11,-5 -17,-16 -17,-27 0,-11 6,-22 17,-27 40,-19 59,-53 59,-98 C 346,47 263,0 160,0 78,0 0,45 0,119 c 0,32 26,58 58,58 32,0 58,-26 58,-58 0,-22 -36,-26 -36,-48 0,-33 42,-42 80,-42 46,0 56,58 56,112 v 38 c 0,40 -4,69 -43,69 H 99 c -12,0 -18,9 -18,18 0,9 6,18 18,18 h 74 c 40,0 43,31 43,73 v 30 c 0,50 -16,84 -61,84 z"
         fill="currentColor"
         id="path382" />
    </g>
  </a>
  <g
     transform="translate(60.2716,8.0848003)"
     id="g390">
    <rect
       x="-0.062799998"
       y="-4.3386002"
       width="0.12549999"
       height="4.3386002"
       ry="0.039999999"
       fill="currentColor"
       id="rect388" />
  </g>
  <a
     style="color:inherit"
     xlink:href="textedit://C:/Users/Javier/Documents/lilypond%20scores/ricci-fingerings.ly:33:71:72"
     id="a396"
     transform="translate(-5.6906,-13.0125)">
    <g
       transform="translate(66.1443,15.3837)"
       id="g394">
      <path
         transform="scale(0.002,-0.002)"
         d="m 155,471 c -34,0 -70,-8 -70,-38 0,-19 31,-23 31,-42 0,-28 -23,-51 -51,-51 -28,0 -51,23 -51,51 0,67 68,109 141,109 93,0 174,-31 174,-113 0,-41 -6,-77 -42,-94 -11,-5 -17,-16 -17,-27 0,-11 6,-22 17,-27 40,-19 59,-53 59,-98 C 346,47 263,0 160,0 78,0 0,45 0,119 c 0,32 26,58 58,58 32,0 58,-26 58,-58 0,-22 -36,-26 -36,-48 0,-33 42,-42 80,-42 46,0 56,58 56,112 v 38 c 0,40 -4,69 -43,69 H 99 c -12,0 -18,9 -18,18 0,9 6,18 18,18 h 74 c 40,0 43,31 43,73 v 30 c 0,50 -16,84 -61,84 z"
         fill="currentColor"
         id="path392" />
    </g>
  </a>
  <a
     style="color:inherit"
     xlink:href="textedit://C:/Users/Javier/Documents/lilypond%20scores/ricci-fingerings.ly:33:43:44"
     id="a402"
     transform="translate(-5.6906,-13.0125)">
    <g
       transform="translate(56.1542,16.2786)"
       id="g400">
      <path
         transform="scale(0.002,-0.002)"
         d="m 155,471 c -34,0 -70,-8 -70,-38 0,-19 31,-23 31,-42 0,-28 -23,-51 -51,-51 -28,0 -51,23 -51,51 0,67 68,109 141,109 93,0 174,-31 174,-113 0,-41 -6,-77 -42,-94 -11,-5 -17,-16 -17,-27 0,-11 6,-22 17,-27 40,-19 59,-53 59,-98 C 346,47 263,0 160,0 78,0 0,45 0,119 c 0,32 26,58 58,58 32,0 58,-26 58,-58 0,-22 -36,-26 -36,-48 0,-33 42,-42 80,-42 46,0 56,58 56,112 v 38 c 0,40 -4,69 -43,69 H 99 c -12,0 -18,9 -18,18 0,9 6,18 18,18 h 74 c 40,0 43,31 43,73 v 30 c 0,50 -16,84 -61,84 z"
         fill="currentColor"
         id="path398" />
    </g>
  </a>
  <g
     transform="translate(49.2423,4.4848003)"
     id="g406">
    <path
       transform="scale(0.0036,-0.0036)"
       d="m -8,375 c 8,5 17,7 26,7 9,0 18,-2 26,-7 l -3,-187 104,21 h 4 c 10,0 18,-8 18,-18 l 7,-566 c -8,-5 -16,-7 -25,-7 -9,0 -18,2 -26,7 l 2,187 -103,-21 h -4 c -10,0 -18,8 -18,18 z M 130,111 40,93 l -3,-204 90,18 z"
       fill="currentColor"
       id="path404" />
  </g>
  <g
     transform="translate(50.2815,8.0848003)"
     id="g410">
    <rect
       x="-0.062799998"
       y="-3.4386001"
       width="0.12549999"
       height="3.3787"
       ry="0.039999999"
       fill="currentColor"
       id="rect408" />
  </g>
  <a
     style="color:inherit"
     xlink:href="textedit://C:/Users/Javier/Documents/lilypond%20scores/ricci-fingerings.ly:33:45:46"
     id="a416"
     transform="translate(-5.6906,-13.0125)">
    <g
       transform="translate(56.1542,24.4199)"
       id="g414">
      <path
         transform="scale(0.002,-0.002)"
         d="m 155,471 c -34,0 -70,-8 -70,-38 0,-19 31,-23 31,-42 0,-28 -23,-51 -51,-51 -28,0 -51,23 -51,51 0,67 68,109 141,109 93,0 174,-31 174,-113 0,-41 -6,-77 -42,-94 -11,-5 -17,-16 -17,-27 0,-11 6,-22 17,-27 40,-19 59,-53 59,-98 C 346,47 263,0 160,0 78,0 0,45 0,119 c 0,32 26,58 58,58 32,0 58,-26 58,-58 0,-22 -36,-26 -36,-48 0,-33 42,-42 80,-42 46,0 56,58 56,112 v 38 c 0,40 -4,69 -43,69 H 99 c -12,0 -18,9 -18,18 0,9 6,18 18,18 h 74 c 40,0 43,31 43,73 v 30 c 0,50 -16,84 -61,84 z"
         fill="currentColor"
         id="path412" />
    </g>
  </a>
  <a
     style="color:inherit"
     xlink:href="textedit://C:/Users/Javier/Documents/lilypond%20scores/ricci-fingerings.ly:33:41:42"
     id="a422"
     transform="translate(-5.6906,-13.0125)">
    <g
       transform="translate(55.9093,17.4973)"
       id="g420">
      <path
         transform="scale(0.0036,-0.0036)"
         d="m 215,137 c 57,0 111,-29 111,-92 0,-71 -54,-120 -101,-148 -35,-21 -74,-34 -114,-34 -57,0 -111,29 -111,92 0,71 54,120 101,148 35,21 74,34 114,34 z"
         fill="currentColor"
         id="path418" />
    </g>
  </a>
  <a
     style="color:inherit"
     xlink:href="textedit://C:/Users/Javier/Documents/lilypond%20scores/ricci-fingerings.ly:31:10:11"
     id="a428"
     transform="translate(-5.6906,-13.0125)">
    <g
       transform="translate(16.6433,21.0973)"
       id="g426">
      <path
         stroke-width="0.0773"
         stroke-linejoin="round"
         stroke-linecap="round"
         stroke="currentColor"
         fill="currentColor"
         d="m 0.6825,-3.1938 c 1.6983,-1.0351 6.8053,-0.2715 8.1266,1.215 v 0 C 7.4706,-3.3507 2.3637,-4.1143 0.6825,-3.1938 Z"
         id="path424" />
    </g>
  </a>
  <g
     transform="translate(55.2766,8.0848003)"
     id="g432">
    <rect
       x="-0.062799998"
       y="-3.8886001"
       width="0.12549999"
       height="3.7221999"
       ry="0.039999999"
       fill="currentColor"
       id="rect430" />
  </g>
  <a
     style="color:inherit"
     xlink:href="textedit://C:/Users/Javier/Documents/lilypond%20scores/ricci-fingerings.ly:33:57:58"
     id="a438"
     transform="translate(-5.6906,-13.0125)">
    <g
       transform="translate(61.0639,15.8145)"
       id="g436">
      <path
         transform="scale(0.002,-0.002)"
         d="m 198,284 c 24,15 48,29 65,52 12,16 19,34 28,52 2,5 6,7 11,7 8,0 16,-6 16,-17 V 161 h 79 c 12,0 18,-9 18,-18 0,-9 -6,-18 -18,-18 h -79 c 2,-51 33,-96 80,-96 10,0 15,-8 15,-15 C 413,7 408,0 398,0 349,0 302,14 253,14 204,14 156,0 107,0 97,0 93,7 93,14 c 0,7 4,15 14,15 47,0 79,45 81,96 H 36 c -29,0 -38,17 -38,28 0,3 1,6 2,8 78,88 123,201 123,319 0,11 8,21 17,21 1,0 3,-1 4,-1 25,-7 50,-14 76,-14 26,0 52,7 77,14 2,1 4,1 6,1 10,0 17,-7 17,-14 0,-2 0,-5 -2,-7 L 36,161 h 152 v 96 c 0,10 1,21 10,27 z"
         fill="currentColor"
         id="path434" />
    </g>
  </a>
  <a
     style="color:inherit"
     xlink:href="textedit://C:/Users/Javier/Documents/lilypond%20scores/ricci-fingerings.ly:33:59:60"
     id="a444"
     transform="translate(-5.6906,-13.0125)">
    <g
       transform="translate(61.1151,24.4199)"
       id="g442">
      <path
         transform="scale(0.002,-0.002)"
         d="m 129,149 h 7 c 36,0 74,-13 111,-40 19,-14 40,-21 59,-21 22,0 40,10 46,31 2,7 7,11 13,11 7,0 15,-5 15,-14 v -5 C 361,40 296,0 234,0 196,0 159,15 133,47 121,62 105,69 89,69 60,69 32,48 29,13 28,4 22,0 15,0 8,0 0,5 0,14 c 0,173 233,163 233,341 0,56 -14,116 -62,116 -33,0 -66,-15 -66,-44 0,-24 31,-37 31,-61 0,-34 -27,-61 -61,-61 -34,0 -61,27 -61,61 0,78 74,134 157,134 98,0 191,-55 191,-145 C 362,211 227,199 129,149 Z"
         fill="currentColor"
         id="path440" />
    </g>
  </a>
  <a
     style="color:inherit"
     xlink:href="textedit://C:/Users/Javier/Documents/lilypond%20scores/ricci-fingerings.ly:33:55:56"
     id="a450"
     transform="translate(-5.6906,-13.0125)">
    <g
       transform="translate(60.9044,17.0473)"
       id="g448">
      <path
         transform="scale(0.0036,-0.0036)"
         d="m 215,137 c 57,0 111,-29 111,-92 0,-71 -54,-120 -101,-148 -35,-21 -74,-34 -114,-34 -57,0 -111,29 -111,92 0,71 54,120 101,148 35,21 74,34 114,34 z"
         fill="currentColor"
         id="path446" />
    </g>
  </a>
  <g
     transform="translate(52.654,8.0848003)"
     id="g454">
    <rect
       x="-0.062799998"
       y="-2.9886"
       width="0.12549999"
       height="2.8780999"
       ry="0.039999999"
       fill="currentColor"
       id="rect452" />
  </g>
  <a
     style="color:inherit"
     xlink:href="textedit://C:/Users/Javier/Documents/lilypond%20scores/ricci-fingerings.ly:33:50:51"
     id="a460"
     transform="translate(-5.6906,-13.0125)">
    <g
       transform="translate(58.4925,16.2539)"
       id="g458">
      <path
         transform="scale(0.002,-0.002)"
         d="m 129,149 h 7 c 36,0 74,-13 111,-40 19,-14 40,-21 59,-21 22,0 40,10 46,31 2,7 7,11 13,11 7,0 15,-5 15,-14 v -5 C 361,40 296,0 234,0 196,0 159,15 133,47 121,62 105,69 89,69 60,69 32,48 29,13 28,4 22,0 15,0 8,0 0,5 0,14 c 0,173 233,163 233,341 0,56 -14,116 -62,116 -33,0 -66,-15 -66,-44 0,-24 31,-37 31,-61 0,-34 -27,-61 -61,-61 -34,0 -61,27 -61,61 0,78 74,134 157,134 98,0 191,-55 191,-145 C 362,211 227,199 129,149 Z"
         fill="currentColor"
         id="path456" />
    </g>
  </a>
  <a
     style="color:inherit"
     xlink:href="textedit://C:/Users/Javier/Documents/lilypond%20scores/ricci-fingerings.ly:33:52:53"
     id="a466"
     transform="translate(-5.6906,-13.0125)">
    <g
       transform="translate(58.4925,24.4199)"
       id="g464">
      <path
         transform="scale(0.002,-0.002)"
         d="m 129,149 h 7 c 36,0 74,-13 111,-40 19,-14 40,-21 59,-21 22,0 40,10 46,31 2,7 7,11 13,11 7,0 15,-5 15,-14 v -5 C 361,40 296,0 234,0 196,0 159,15 133,47 121,62 105,69 89,69 60,69 32,48 29,13 28,4 22,0 15,0 8,0 0,5 0,14 c 0,173 233,163 233,341 0,56 -14,116 -62,116 -33,0 -66,-15 -66,-44 0,-24 31,-37 31,-61 0,-34 -27,-61 -61,-61 -34,0 -61,27 -61,61 0,78 74,134 157,134 98,0 191,-55 191,-145 C 362,211 227,199 129,149 Z"
         fill="currentColor"
         id="path462" />
    </g>
  </a>
  <a
     style="color:inherit"
     xlink:href="textedit://C:/Users/Javier/Documents/lilypond%20scores/ricci-fingerings.ly:33:48:49"
     id="a472"
     transform="translate(-5.6906,-13.0125)">
    <g
       transform="translate(58.2819,17.9473)"
       id="g470">
      <path
         transform="scale(0.0036,-0.0036)"
         d="m 215,137 c 57,0 111,-29 111,-92 0,-71 -54,-120 -101,-148 -35,-21 -74,-34 -114,-34 -57,0 -111,29 -111,92 0,71 54,120 101,148 35,21 74,34 114,34 z"
         fill="currentColor"
         id="path468" />
    </g>
  </a>
  <a
     style="color:inherit"
     xlink:href="textedit://C:/Users/Javier/Documents/lilypond%20scores/ricci-fingerings.ly:33:115:116"
     id="a478"
     transform="translate(-5.6906,-13.0125)">
    <g
       transform="translate(80.8846,15.2473)"
       id="g476">
      <path
         transform="scale(0.0036,-0.0036)"
         d="m 215,137 c 57,0 111,-29 111,-92 0,-71 -54,-120 -101,-148 -35,-21 -74,-34 -114,-34 -57,0 -111,29 -111,92 0,71 54,120 101,148 35,21 74,34 114,34 z"
         fill="currentColor"
         id="path474" />
    </g>
  </a>
  <g
     transform="translate(75.2568,8.0848003)"
     id="g482">
    <rect
       x="-0.062799998"
       y="-5.6886001"
       width="0.12549999"
       height="5.6886001"
       ry="0.039999999"
       fill="currentColor"
       id="rect480" />
  </g>
  <a
     style="color:inherit"
     xlink:href="textedit://C:/Users/Javier/Documents/lilypond%20scores/ricci-fingerings.ly:33:117:118"
     id="a488"
     transform="translate(-5.6906,-13.0125)">
    <g
       transform="translate(81.0441,14.0145)"
       id="g486">
      <path
         transform="scale(0.002,-0.002)"
         d="m 198,284 c 24,15 48,29 65,52 12,16 19,34 28,52 2,5 6,7 11,7 8,0 16,-6 16,-17 V 161 h 79 c 12,0 18,-9 18,-18 0,-9 -6,-18 -18,-18 h -79 c 2,-51 33,-96 80,-96 10,0 15,-8 15,-15 C 413,7 408,0 398,0 349,0 302,14 253,14 204,14 156,0 107,0 97,0 93,7 93,14 c 0,7 4,15 14,15 47,0 79,45 81,96 H 36 c -29,0 -38,17 -38,28 0,3 1,6 2,8 78,88 123,201 123,319 0,11 8,21 17,21 1,0 3,-1 4,-1 25,-7 50,-14 76,-14 26,0 52,7 77,14 2,1 4,1 6,1 10,0 17,-7 17,-14 0,-2 0,-5 -2,-7 L 36,161 h 152 v 96 c 0,10 1,21 10,27 z"
         fill="currentColor"
         id="path484" />
    </g>
  </a>
  <a
     style="color:inherit"
     xlink:href="textedit://C:/Users/Javier/Documents/lilypond%20scores/ricci-fingerings.ly:33:119:120"
     id="a494"
     transform="translate(-5.6906,-13.0125)">
    <g
       transform="translate(81.0441,24.4199)"
       id="g492">
      <path
         transform="scale(0.002,-0.002)"
         d="m 198,284 c 24,15 48,29 65,52 12,16 19,34 28,52 2,5 6,7 11,7 8,0 16,-6 16,-17 V 161 h 79 c 12,0 18,-9 18,-18 0,-9 -6,-18 -18,-18 h -79 c 2,-51 33,-96 80,-96 10,0 15,-8 15,-15 C 413,7 408,0 398,0 349,0 302,14 253,14 204,14 156,0 107,0 97,0 93,7 93,14 c 0,7 4,15 14,15 47,0 79,45 81,96 H 36 c -29,0 -38,17 -38,28 0,3 1,6 2,8 78,88 123,201 123,319 0,11 8,21 17,21 1,0 3,-1 4,-1 25,-7 50,-14 76,-14 26,0 52,7 77,14 2,1 4,1 6,1 10,0 17,-7 17,-14 0,-2 0,-5 -2,-7 L 36,161 h 152 v 96 c 0,10 1,21 10,27 z"
         fill="currentColor"
         id="path490" />
    </g>
  </a>
  <g
     transform="translate(72.6342,8.0848003)"
     id="g498">
    <rect
       x="-0.062799998"
       y="-4.7886"
       width="0.12549999"
       height="4.7886"
       ry="0.039999999"
       fill="currentColor"
       id="rect496" />
  </g>
  <a
     style="color:inherit"
     xlink:href="textedit://C:/Users/Javier/Documents/lilypond%20scores/ricci-fingerings.ly:33:35:36"
     id="a504"
     transform="translate(-5.6906,-13.0125)">
    <g
       transform="translate(53.1604,21.0973)"
       id="g502">
      <path
         stroke-width="0.0773"
         stroke-linejoin="round"
         stroke-linecap="round"
         stroke="currentColor"
         fill="currentColor"
         d="m 0.4647,-3.6438 c 0.4854,-0.8986 1.8259,-1.3375 2.7489,-0.9 v 0 c -0.8869,-0.3274 -2.2274,0.1115 -2.7489,0.9 z"
         id="path500" />
    </g>
  </a>
  <a
     style="color:inherit"
     xlink:href="textedit://C:/Users/Javier/Documents/lilypond%20scores/ricci-fingerings.ly:31:9:10"
     id="a510"
     transform="translate(-5.6906,-13.0125)">
    <g
       transform="translate(16.6433,21.0973)"
       id="g508">
      <path
         stroke-width="0.0773"
         stroke-linejoin="round"
         stroke-linecap="round"
         stroke="currentColor"
         fill="currentColor"
         d="m 0.8213,-2.5 c 0.9498,-0.8488 4.6577,-0.8488 5.6075,0 v 0 C 5.479,-3.2329 1.7711,-3.2329 0.8213,-2.5 Z"
         id="path506" />
    </g>
  </a>
  <a
     style="color:inherit"
     xlink:href="textedit://C:/Users/Javier/Documents/lilypond%20scores/ricci-fingerings.ly:31:28:29"
     id="a516"
     transform="translate(-5.6906,-13.0125)">
    <g
       transform="translate(27.1809,21.0973)"
       id="g514">
      <path
         stroke-width="0.0773"
         stroke-linejoin="round"
         stroke-linecap="round"
         stroke="currentColor"
         fill="currentColor"
         d="m 0.4594,-1.3938 c 0.4565,-0.8769 1.7237,-1.3119 2.6225,-0.9 v 0 c -0.8611,-0.3022 -2.1284,0.1327 -2.6225,0.9 z"
         id="path512" />
    </g>
  </a>
  <a
     style="color:inherit"
     xlink:href="textedit://C:/Users/Javier/Documents/lilypond%20scores/ricci-fingerings.ly:31:34:35"
     id="a522"
     transform="translate(-5.6906,-13.0125)">
    <g
       transform="translate(32.1759,21.0973)"
       id="g520">
      <path
         stroke-width="0.0773"
         stroke-linejoin="round"
         stroke-linecap="round"
         stroke="currentColor"
         fill="currentColor"
         d="m 0.4768,-1.9788 c 0.4909,-0.8451 1.7542,-1.2136 2.6225,-0.765 v 0 c -0.8358,-0.3373 -2.0991,0.0312 -2.6225,0.765 z"
         id="path518" />
    </g>
  </a>
  <g
     transform="translate(16.9952,9.1525003)"
     id="g526">
    <polygon
       stroke-linejoin="round"
       stroke-linecap="round"
       stroke-width="0.08"
       fill="currentColor"
       stroke="currentColor"
       points="7.2031,-0.176 7.2031,0.176 0.04,0.176 0.04,-0.176 "
       id="polygon524" />
  </g>
  <g
     transform="translate(16.9952,9.8848003)"
     id="g530">
    <polygon
       stroke-linejoin="round"
       stroke-linecap="round"
       stroke-width="0.08"
       fill="currentColor"
       stroke="currentColor"
       points="7.2031,-0.176 7.2031,0.176 0.04,0.176 0.04,-0.176 "
       id="polygon528" />
  </g>
  <a
     style="color:inherit"
     xlink:href="textedit://C:/Users/Javier/Documents/lilypond%20scores/ricci-fingerings.ly:31:53:54"
     id="a536"
     transform="translate(-5.6906,-13.0125)">
    <g
       transform="translate(37.171,21.0973)"
       id="g534">
      <path
         stroke-width="0.0773"
         stroke-linejoin="round"
         stroke-linecap="round"
         stroke="currentColor"
         fill="currentColor"
         d="m 0.4594,-2.2938 c 0.4565,-0.8769 1.7237,-1.3119 2.6225,-0.9 v 0 c -0.8611,-0.3022 -2.1284,0.1327 -2.6225,0.9 z"
         id="path532" />
    </g>
  </a>
  <g
     transform="translate(26.4853,8.9848003)"
     id="g540">
    <polygon
       stroke-linejoin="round"
       stroke-linecap="round"
       stroke-width="0.08"
       fill="currentColor"
       stroke="currentColor"
       points="7.7031,-0.9083 7.7031,-0.5563 0.04,0.176 0.04,-0.176 "
       id="polygon538" />
  </g>
  <g
     transform="translate(26.4853,9.7171003)"
     id="g544">
    <polygon
       stroke-linejoin="round"
       stroke-linecap="round"
       stroke-width="0.08"
       fill="currentColor"
       stroke="currentColor"
       points="7.7031,-0.9083 7.7031,-0.5563 0.04,0.176 0.04,-0.176 "
       id="polygon542" />
  </g>
  <a
     style="color:inherit"
     xlink:href="textedit://C:/Users/Javier/Documents/lilypond%20scores/ricci-fingerings.ly:33:7:8"
     id="a550"
     transform="translate(-5.6906,-13.0125)">
    <g
       transform="translate(43.1703,21.0973)"
       id="g548">
      <path
         stroke-width="0.0773"
         stroke-linejoin="round"
         stroke-linecap="round"
         stroke="currentColor"
         fill="currentColor"
         d="m 0.4594,-2.7438 c 0.4565,-0.8769 1.7237,-1.3119 2.6225,-0.9 v 0 c -0.8611,-0.3022 -2.1284,0.1327 -2.6225,0.9 z"
         id="path546" />
    </g>
  </a>
  <a
     style="color:inherit"
     xlink:href="textedit://C:/Users/Javier/Documents/lilypond%20scores/ricci-fingerings.ly:33:21:22"
     id="a556"
     transform="translate(-5.6906,-13.0125)">
    <g
       transform="translate(48.1654,21.0973)"
       id="g554">
      <path
         stroke-width="0.0773"
         stroke-linejoin="round"
         stroke-linecap="round"
         stroke="currentColor"
         fill="currentColor"
         d="m 0.4594,-3.1938 c 0.4565,-0.8769 1.7237,-1.3119 2.6225,-0.9 v 0 c -0.8611,-0.3022 -2.1284,0.1327 -2.6225,0.9 z"
         id="path552" />
    </g>
  </a>
  <a
     style="color:inherit"
     xlink:href="textedit://C:/Users/Javier/Documents/lilypond%20scores/ricci-fingerings.ly:33:110:111"
     id="a562"
     transform="translate(-5.6906,-13.0125)">
    <g
       transform="translate(78.4727,14.4539)"
       id="g560">
      <path
         transform="scale(0.002,-0.002)"
         d="m 129,149 h 7 c 36,0 74,-13 111,-40 19,-14 40,-21 59,-21 22,0 40,10 46,31 2,7 7,11 13,11 7,0 15,-5 15,-14 v -5 C 361,40 296,0 234,0 196,0 159,15 133,47 121,62 105,69 89,69 60,69 32,48 29,13 28,4 22,0 15,0 8,0 0,5 0,14 c 0,173 233,163 233,341 0,56 -14,116 -62,116 -33,0 -66,-15 -66,-44 0,-24 31,-37 31,-61 0,-34 -27,-61 -61,-61 -34,0 -61,27 -61,61 0,78 74,134 157,134 98,0 191,-55 191,-145 C 362,211 227,199 129,149 Z"
         fill="currentColor"
         id="path558" />
    </g>
  </a>
  <g
     transform="translate(37.4797,8.0848003)"
     id="g566">
    <polygon
       stroke-linejoin="round"
       stroke-linecap="round"
       stroke-width="0.08"
       fill="currentColor"
       stroke="currentColor"
       points="7.7031,-0.9083 7.7031,-0.5563 0.04,0.176 0.04,-0.176 "
       id="polygon564" />
  </g>
  <g
     transform="translate(37.4797,8.8171003)"
     id="g570">
    <polygon
       stroke-linejoin="round"
       stroke-linecap="round"
       stroke-width="0.08"
       fill="currentColor"
       stroke="currentColor"
       points="7.7031,-0.9083 7.7031,-0.5563 0.04,0.176 0.04,-0.176 "
       id="polygon568" />
  </g>
  <a
     style="color:inherit"
     xlink:href="textedit://C:/Users/Javier/Documents/lilypond%20scores/ricci-fingerings.ly:33:49:50"
     id="a576"
     transform="translate(-5.6906,-13.0125)">
    <g
       transform="translate(58.2819,21.0973)"
       id="g574">
      <path
         stroke-width="0.0773"
         stroke-linejoin="round"
         stroke-linecap="round"
         stroke="currentColor"
         fill="currentColor"
         d="m 0.4594,-4.0938 c 0.4565,-0.8769 1.7237,-1.3119 2.6225,-0.9 v 0 c -0.8611,-0.3022 -2.1284,0.1327 -2.6225,0.9 z"
         id="path572" />
    </g>
  </a>
  <a
     style="color:inherit"
     xlink:href="textedit://C:/Users/Javier/Documents/lilypond%20scores/ricci-fingerings.ly:33:63:64"
     id="a582"
     transform="translate(-5.6906,-13.0125)">
    <g
       transform="translate(63.2769,21.0973)"
       id="g580">
      <path
         stroke-width="0.0773"
         stroke-linejoin="round"
         stroke-linecap="round"
         stroke="currentColor"
         fill="currentColor"
         d="m 0.4594,-4.5438 c 0.4565,-0.8769 1.7237,-1.3119 2.6225,-0.9 v 0 c -0.8611,-0.3022 -2.1284,0.1327 -2.6225,0.9 z"
         id="path578" />
    </g>
  </a>
  <g
     transform="translate(47.4698,7.3525003)"
     id="g586">
    <polygon
       stroke-linejoin="round"
       stroke-linecap="round"
       stroke-width="0.08"
       fill="currentColor"
       stroke="currentColor"
       points="7.8295,-0.3437 7.8295,0.0083 0.04,0.176 0.04,-0.176 "
       id="polygon584" />
  </g>
  <g
     transform="translate(47.4698,8.0848003)"
     id="g590">
    <polygon
       stroke-linejoin="round"
       stroke-linecap="round"
       stroke-width="0.08"
       fill="currentColor"
       stroke="currentColor"
       points="7.8295,-0.3437 7.8295,0.0083 0.04,0.176 0.04,-0.176 "
       id="polygon588" />
  </g>
  <a
     style="color:inherit"
     xlink:href="textedit://C:/Users/Javier/Documents/lilypond%20scores/ricci-fingerings.ly:33:77:78"
     id="a596"
     transform="translate(-5.6906,-13.0125)">
    <g
       transform="translate(68.272,21.0973)"
       id="g594">
      <path
         stroke-width="0.0773"
         stroke-linejoin="round"
         stroke-linecap="round"
         stroke="currentColor"
         fill="currentColor"
         d="m 0.4594,-4.9938 c 0.4565,-0.8769 1.7237,-1.3119 2.6225,-0.9 v 0 c -0.8611,-0.3022 -2.1284,0.1327 -2.6225,0.9 z"
         id="path592" />
    </g>
  </a>
  <a
     style="color:inherit"
     xlink:href="textedit://C:/Users/Javier/Documents/lilypond%20scores/ricci-fingerings.ly:33:93:94"
     id="a602"
     transform="translate(-5.6906,-13.0125)">
    <g
       transform="translate(73.267,21.0973)"
       id="g600">
      <path
         stroke-width="0.0773"
         stroke-linejoin="round"
         stroke-linecap="round"
         stroke="currentColor"
         fill="currentColor"
         d="m 0.4594,-5.4438 c 0.4565,-0.8769 1.7237,-1.3119 2.6225,-0.9 v 0 c -0.8611,-0.3022 -2.1284,0.1327 -2.6225,0.9 z"
         id="path598" />
    </g>
  </a>
  <g
     transform="translate(57.5863,7.3525003)"
     id="g606">
    <polygon
       stroke-linejoin="round"
       stroke-linecap="round"
       stroke-width="0.08"
       fill="currentColor"
       stroke="currentColor"
       points="7.7031,-0.176 7.7031,0.176 0.04,0.176 0.04,-0.176 "
       id="polygon604" />
  </g>
  <g
     transform="translate(57.5863,8.0848003)"
     id="g610">
    <polygon
       stroke-linejoin="round"
       stroke-linecap="round"
       stroke-width="0.08"
       fill="currentColor"
       stroke="currentColor"
       points="7.7031,-0.176 7.7031,0.176 0.04,0.176 0.04,-0.176 "
       id="polygon608" />
  </g>
  <a
     style="color:inherit"
     xlink:href="textedit://C:/Users/Javier/Documents/lilypond%20scores/ricci-fingerings.ly:33:109:110"
     id="a616"
     transform="translate(-5.6906,-13.0125)">
    <g
       transform="translate(78.2621,21.0973)"
       id="g614">
      <path
         stroke-width="0.0773"
         stroke-linejoin="round"
         stroke-linecap="round"
         stroke="currentColor"
         fill="currentColor"
         d="m 0.4594,-5.8938 c 0.4565,-0.8769 1.7237,-1.3119 2.6225,-0.9 v 0 c -0.8611,-0.3022 -2.1284,0.1327 -2.6225,0.9 z"
         id="path612" />
    </g>
  </a>
  <g
     transform="translate(67.5764,7.3525003)"
     id="g620">
    <polygon
       stroke-linejoin="round"
       stroke-linecap="round"
       stroke-width="0.08"
       fill="currentColor"
       stroke="currentColor"
       points="7.7031,-0.176 7.7031,0.176 0.04,0.176 0.04,-0.176 "
       id="polygon618" />
  </g>
  <g
     transform="translate(67.5764,8.0848003)"
     id="g624">
    <polygon
       stroke-linejoin="round"
       stroke-linecap="round"
       stroke-width="0.08"
       fill="currentColor"
       stroke="currentColor"
       points="7.7031,-0.176 7.7031,0.176 0.04,0.176 0.04,-0.176 "
       id="polygon622" />
  </g>
  <g
     transform="translate(67.6392,8.0848003)"
     id="g628">
    <rect
       x="-0.062799998"
       y="-4.3386002"
       width="0.12549999"
       height="4.3386002"
       ry="0.039999999"
       fill="currentColor"
       id="rect626" />
  </g>
  <a
     style="color:inherit"
     xlink:href="textedit://C:/Users/Javier/Documents/lilypond%20scores/ricci-fingerings.ly:33:94:95"
     id="a634"
     transform="translate(-5.6906,-13.0125)">
    <g
       transform="translate(73.4948,14.9167)"
       id="g632">
      <path
         transform="scale(0.002,-0.002)"
         d="M 129,129 H 259 C 259,77 291,29 340,29 350,29 354,21 354,14 354,7 350,0 340,0 291,0 243,14 194,14 145,14 98,0 49,0 39,0 34,7 34,14 c 0,7 5,15 15,15 49,0 80,48 80,100 z M 0,250 129,500 c 3,7 13,3 21,0 14,-6 28,-14 44,-14 16,0 31,8 45,14 2,1 2,1 4,1 8,0 16,-9 16,-21 V 129 H 129 v 215 c 0,15 -11,23 -20,23 -5,0 -9,-2 -11,-7 L 32,233 c -4,-7 -9,-9 -15,-9 -9,0 -19,7 -19,17 0,3 0,6 2,9 z"
         fill="currentColor"
         id="path630" />
    </g>
  </a>
  <a
     style="color:inherit"
     xlink:href="textedit://C:/Users/Javier/Documents/lilypond%20scores/ricci-fingerings.ly:33:96:97"
     id="a640"
     transform="translate(-5.6906,-13.0125)">
    <g
       transform="translate(73.4948,24.454)"
       id="g638">
      <path
         transform="scale(0.002,-0.002)"
         d="M 129,129 H 259 C 259,77 291,29 340,29 350,29 354,21 354,14 354,7 350,0 340,0 291,0 243,14 194,14 145,14 98,0 49,0 39,0 34,7 34,14 c 0,7 5,15 15,15 49,0 80,48 80,100 z M 0,250 129,500 c 3,7 13,3 21,0 14,-6 28,-14 44,-14 16,0 31,8 45,14 2,1 2,1 4,1 8,0 16,-9 16,-21 V 129 H 129 v 215 c 0,15 -11,23 -20,23 -5,0 -9,-2 -11,-7 L 32,233 c -4,-7 -9,-9 -15,-9 -9,0 -19,7 -19,17 0,3 0,6 2,9 z"
         fill="currentColor"
         id="path636" />
    </g>
  </a>
  <a
     style="color:inherit"
     xlink:href="textedit://C:/Users/Javier/Documents/lilypond%20scores/ricci-fingerings.ly:33:92:93"
     id="a646"
     transform="translate(-5.6906,-13.0125)">
    <g
       transform="translate(73.267,16.5973)"
       id="g644">
      <path
         transform="scale(0.0036,-0.0036)"
         d="m 215,137 c 57,0 111,-29 111,-92 0,-71 -54,-120 -101,-148 -35,-21 -74,-34 -114,-34 -57,0 -111,29 -111,92 0,71 54,120 101,148 35,21 74,34 114,34 z"
         fill="currentColor"
         id="path642" />
    </g>
  </a>
  <g
     transform="translate(65.2667,8.0848003)"
     id="g650">
    <rect
       x="-0.062799998"
       y="-4.7886"
       width="0.12549999"
       height="4.7886"
       ry="0.039999999"
       fill="currentColor"
       id="rect648" />
  </g>
  <a
     style="color:inherit"
     xlink:href="textedit://C:/Users/Javier/Documents/lilypond%20scores/ricci-fingerings.ly:33:87:88"
     id="a656"
     transform="translate(-5.6906,-13.0125)">
    <g
       transform="translate(71.054,14.9145)"
       id="g654">
      <path
         transform="scale(0.002,-0.002)"
         d="m 198,284 c 24,15 48,29 65,52 12,16 19,34 28,52 2,5 6,7 11,7 8,0 16,-6 16,-17 V 161 h 79 c 12,0 18,-9 18,-18 0,-9 -6,-18 -18,-18 h -79 c 2,-51 33,-96 80,-96 10,0 15,-8 15,-15 C 413,7 408,0 398,0 349,0 302,14 253,14 204,14 156,0 107,0 97,0 93,7 93,14 c 0,7 4,15 14,15 47,0 79,45 81,96 H 36 c -29,0 -38,17 -38,28 0,3 1,6 2,8 78,88 123,201 123,319 0,11 8,21 17,21 1,0 3,-1 4,-1 25,-7 50,-14 76,-14 26,0 52,7 77,14 2,1 4,1 6,1 10,0 17,-7 17,-14 0,-2 0,-5 -2,-7 L 36,161 h 152 v 96 c 0,10 1,21 10,27 z"
         fill="currentColor"
         id="path652" />
    </g>
  </a>
  <a
     style="color:inherit"
     xlink:href="textedit://C:/Users/Javier/Documents/lilypond%20scores/ricci-fingerings.ly:33:89:90"
     id="a662"
     transform="translate(-5.6906,-13.0125)">
    <g
       transform="translate(71.1052,24.4199)"
       id="g660">
      <path
         transform="scale(0.002,-0.002)"
         d="m 129,149 h 7 c 36,0 74,-13 111,-40 19,-14 40,-21 59,-21 22,0 40,10 46,31 2,7 7,11 13,11 7,0 15,-5 15,-14 v -5 C 361,40 296,0 234,0 196,0 159,15 133,47 121,62 105,69 89,69 60,69 32,48 29,13 28,4 22,0 15,0 8,0 0,5 0,14 c 0,173 233,163 233,341 0,56 -14,116 -62,116 -33,0 -66,-15 -66,-44 0,-24 31,-37 31,-61 0,-34 -27,-61 -61,-61 -34,0 -61,27 -61,61 0,78 74,134 157,134 98,0 191,-55 191,-145 C 362,211 227,199 129,149 Z"
         fill="currentColor"
         id="path658" />
    </g>
  </a>
  <a
     style="color:inherit"
     xlink:href="textedit://C:/Users/Javier/Documents/lilypond%20scores/ricci-fingerings.ly:33:83:84"
     id="a668"
     transform="translate(-5.6906,-13.0125)">
    <g
       transform="translate(70.8945,16.1473)"
       id="g666">
      <path
         transform="scale(0.0036,-0.0036)"
         d="m 215,137 c 57,0 111,-29 111,-92 0,-71 -54,-120 -101,-148 -35,-21 -74,-34 -114,-34 -57,0 -111,29 -111,92 0,71 54,120 101,148 35,21 74,34 114,34 z"
         fill="currentColor"
         id="path664" />
    </g>
  </a>
  <a
     style="color:inherit"
     xlink:href="textedit://C:/Users/Javier/Documents/lilypond%20scores/ricci-fingerings.ly:33:112:113"
     id="a674"
     transform="translate(-5.6906,-13.0125)">
    <g
       transform="translate(78.4727,24.4199)"
       id="g672">
      <path
         transform="scale(0.002,-0.002)"
         d="m 129,149 h 7 c 36,0 74,-13 111,-40 19,-14 40,-21 59,-21 22,0 40,10 46,31 2,7 7,11 13,11 7,0 15,-5 15,-14 v -5 C 361,40 296,0 234,0 196,0 159,15 133,47 121,62 105,69 89,69 60,69 32,48 29,13 28,4 22,0 15,0 8,0 0,5 0,14 c 0,173 233,163 233,341 0,56 -14,116 -62,116 -33,0 -66,-15 -66,-44 0,-24 31,-37 31,-61 0,-34 -27,-61 -61,-61 -34,0 -61,27 -61,61 0,78 74,134 157,134 98,0 191,-55 191,-145 C 362,211 227,199 129,149 Z"
         fill="currentColor"
         id="path670" />
    </g>
  </a>
  <a
     style="color:inherit"
     xlink:href="textedit://C:/Users/Javier/Documents/lilypond%20scores/ricci-fingerings.ly:33:106:107"
     id="a680"
     transform="translate(-5.6906,-13.0125)">
    <g
       transform="translate(78.2621,16.1473)"
       id="g678">
      <path
         transform="scale(0.0036,-0.0036)"
         d="m 215,137 c 57,0 111,-29 111,-92 0,-71 -54,-120 -101,-148 -35,-21 -74,-34 -114,-34 -57,0 -111,29 -111,92 0,71 54,120 101,148 35,21 74,34 114,34 z"
         fill="currentColor"
         id="path676" />
    </g>
  </a>
  <g
     transform="translate(70.2617,8.0848003)"
     id="g684">
    <rect
       x="-0.062799998"
       y="-5.2385998"
       width="0.12549999"
       height="5.2385998"
       ry="0.039999999"
       fill="currentColor"
       id="rect682" />
  </g>
  <a
     style="color:inherit"
     xlink:href="textedit://C:/Users/Javier/Documents/lilypond%20scores/ricci-fingerings.ly:33:101:102"
     id="a690"
     transform="translate(-5.6906,-13.0125)">
    <g
       transform="translate(76.1344,14.4837)"
       id="g688">
      <path
         transform="scale(0.002,-0.002)"
         d="m 155,471 c -34,0 -70,-8 -70,-38 0,-19 31,-23 31,-42 0,-28 -23,-51 -51,-51 -28,0 -51,23 -51,51 0,67 68,109 141,109 93,0 174,-31 174,-113 0,-41 -6,-77 -42,-94 -11,-5 -17,-16 -17,-27 0,-11 6,-22 17,-27 40,-19 59,-53 59,-98 C 346,47 263,0 160,0 78,0 0,45 0,119 c 0,32 26,58 58,58 32,0 58,-26 58,-58 0,-22 -36,-26 -36,-48 0,-33 42,-42 80,-42 46,0 56,58 56,112 v 38 c 0,40 -4,69 -43,69 H 99 c -12,0 -18,9 -18,18 0,9 6,18 18,18 h 74 c 40,0 43,31 43,73 v 30 c 0,50 -16,84 -61,84 z"
         fill="currentColor"
         id="path686" />
    </g>
  </a>
  <a
     style="color:inherit"
     xlink:href="textedit://C:/Users/Javier/Documents/lilypond%20scores/ricci-fingerings.ly:33:103:104"
     id="a696"
     transform="translate(-5.6906,-13.0125)">
    <g
       transform="translate(76.1344,24.4199)"
       id="g694">
      <path
         transform="scale(0.002,-0.002)"
         d="m 155,471 c -34,0 -70,-8 -70,-38 0,-19 31,-23 31,-42 0,-28 -23,-51 -51,-51 -28,0 -51,23 -51,51 0,67 68,109 141,109 93,0 174,-31 174,-113 0,-41 -6,-77 -42,-94 -11,-5 -17,-16 -17,-27 0,-11 6,-22 17,-27 40,-19 59,-53 59,-98 C 346,47 263,0 160,0 78,0 0,45 0,119 c 0,32 26,58 58,58 32,0 58,-26 58,-58 0,-22 -36,-26 -36,-48 0,-33 42,-42 80,-42 46,0 56,58 56,112 v 38 c 0,40 -4,69 -43,69 H 99 c -12,0 -18,9 -18,18 0,9 6,18 18,18 h 74 c 40,0 43,31 43,73 v 30 c 0,50 -16,84 -61,84 z"
         fill="currentColor"
         id="path692" />
    </g>
  </a>
  <a
     style="color:inherit"
     xlink:href="textedit://C:/Users/Javier/Documents/lilypond%20scores/ricci-fingerings.ly:33:99:100"
     id="a702"
     transform="translate(-5.6906,-13.0125)">
    <g
       transform="translate(75.8895,15.6973)"
       id="g700">
      <path
         transform="scale(0.0036,-0.0036)"
         d="m 215,137 c 57,0 111,-29 111,-92 0,-71 -54,-120 -101,-148 -35,-21 -74,-34 -114,-34 -57,0 -111,29 -111,92 0,71 54,120 101,148 35,21 74,34 114,34 z"
         fill="currentColor"
         id="path698" />
    </g>
  </a>
  <g
     transform="translate(26.5481,8.0848003)"
     id="g706">
    <rect
       x="-0.062799998"
       y="-0.73860002"
       width="0.12549999"
       height="2.3649001"
       ry="0.039999999"
       fill="currentColor"
       id="rect704" />
  </g>
  <a
     style="color:inherit"
     xlink:href="textedit://C:/Users/Javier/Documents/lilypond%20scores/ricci-fingerings.ly:31:33:34"
     id="a712"
     transform="translate(-5.6906,-13.0125)">
    <g
       transform="translate(32.1759,20.1973)"
       id="g710">
      <path
         transform="scale(0.0036,-0.0036)"
         d="m 215,137 c 57,0 111,-29 111,-92 0,-71 -54,-120 -101,-148 -35,-21 -74,-34 -114,-34 -57,0 -111,29 -111,92 0,71 54,120 101,148 35,21 74,34 114,34 z"
         fill="currentColor"
         id="path708" />
    </g>
  </a>
  <g
     transform="translate(24.1756,8.0848003)"
     id="g716">
    <rect
       x="-0.062799998"
       y="-1.1885999"
       width="0.12549999"
       height="2.9886"
       ry="0.039999999"
       fill="currentColor"
       id="rect714" />
  </g>
  <a
     style="color:inherit"
     xlink:href="textedit://C:/Users/Javier/Documents/lilypond%20scores/ricci-fingerings.ly:31:30:31"
     id="a722"
     transform="translate(-5.6906,-13.0125)">
    <g
       transform="translate(29.8034,19.7473)"
       id="g720">
      <path
         transform="scale(0.0036,-0.0036)"
         d="m 215,137 c 57,0 111,-29 111,-92 0,-71 -54,-120 -101,-148 -35,-21 -74,-34 -114,-34 -57,0 -111,29 -111,92 0,71 54,120 101,148 35,21 74,34 114,34 z"
         fill="currentColor"
         id="path718" />
    </g>
  </a>
  <g
     transform="translate(21.5531,8.0848003)"
     id="g726">
    <rect
       x="-0.062799998"
       y="-0.2886"
       width="0.12549999"
       height="2.0885999"
       ry="0.039999999"
       fill="currentColor"
       id="rect724" />
  </g>
  <a
     style="color:inherit"
     xlink:href="textedit://C:/Users/Javier/Documents/lilypond%20scores/ricci-fingerings.ly:31:54:55"
     id="a732"
     transform="translate(-5.6906,-13.0125)">
    <g
       transform="translate(37.3817,18.0539)"
       id="g730">
      <path
         transform="scale(0.002,-0.002)"
         d="m 190,464 c -54,0 -61,-71 -61,-141 v -73 -73 c 0,-70 7,-141 61,-141 54,0 62,71 62,141 0,26 -1,51 -1,73 0,22 1,47 1,73 0,70 -8,141 -62,141 z m 0,36 C 308,500 380,378 380,250 380,122 308,0 190,0 72,0 0,122 0,250 0,378 72,500 190,500 Z"
         fill="currentColor"
         id="path728" />
    </g>
  </a>
  <g
     transform="translate(34.1657,8.0848003)"
     id="g736">
    <rect
       x="-0.062799998"
       y="-2.0885999"
       width="0.12549999"
       height="2.9944999"
       ry="0.039999999"
       fill="currentColor"
       id="rect734" />
  </g>
  <a
     style="color:inherit"
     xlink:href="textedit://C:/Users/Javier/Documents/lilypond%20scores/ricci-fingerings.ly:31:59:60"
     id="a744"
     transform="translate(-6.8951002,-13.0125)">
    <g
       transform="translate(39.7935,16.0641)"
       id="g742">
      <text
         font-family="serif"
         font-size="1.98px"
         text-anchor="start"
         fill="currentColor"
         id="text740"><tspan
           id="tspan738">good</tspan></text>
    </g>
  </a>
  <a
     style="color:inherit"
     xlink:href="textedit://C:/Users/Javier/Documents/lilypond%20scores/ricci-fingerings.ly:31:57:58"
     id="a750"
     transform="translate(-5.6906,-13.0125)">
    <g
       transform="translate(39.7935,18.8473)"
       id="g748">
      <path
         transform="scale(0.0036,-0.0036)"
         d="m 215,137 c 57,0 111,-29 111,-92 0,-71 -54,-120 -101,-148 -35,-21 -74,-34 -114,-34 -57,0 -111,29 -111,92 0,71 54,120 101,148 35,21 74,34 114,34 z"
         fill="currentColor"
         id="path746" />
    </g>
  </a>
  <g
     transform="translate(31.5432,8.0848003)"
     id="g754">
    <rect
       x="-0.062799998"
       y="-1.1885999"
       width="0.12549999"
       height="2.3425"
       ry="0.039999999"
       fill="currentColor"
       id="rect752" />
  </g>
  <a
     style="color:inherit"
     xlink:href="textedit://C:/Users/Javier/Documents/lilypond%20scores/ricci-fingerings.ly:31:25:26"
     id="a760"
     transform="translate(-5.6906,-13.0125)">
    <g
       transform="translate(27.1809,20.6473)"
       id="g758">
      <path
         transform="scale(0.0036,-0.0036)"
         d="m 215,137 c 57,0 111,-29 111,-92 0,-71 -54,-120 -101,-148 -35,-21 -74,-34 -114,-34 -57,0 -111,29 -111,92 0,71 54,120 101,148 35,21 74,34 114,34 z"
         fill="currentColor"
         id="path756" />
    </g>
  </a>
  <a
     style="color:inherit"
     xlink:href="textedit://C:/Users/Javier/Documents/lilypond%20scores/ricci-fingerings.ly:31:52:53"
     id="a766"
     transform="translate(-5.6906,-13.0125)">
    <g
       transform="translate(37.171,19.7473)"
       id="g764">
      <path
         transform="scale(0.0036,-0.0036)"
         d="m 215,137 c 57,0 111,-29 111,-92 0,-71 -54,-120 -101,-148 -35,-21 -74,-34 -114,-34 -57,0 -111,29 -111,92 0,71 54,120 101,148 35,21 74,34 114,34 z"
         fill="currentColor"
         id="path762" />
    </g>
  </a>
  <g
     transform="translate(29.1706,8.0848003)"
     id="g770">
    <rect
       x="-0.062799998"
       y="-1.6386"
       width="0.12549999"
       height="3.0169001"
       ry="0.039999999"
       fill="currentColor"
       id="rect768" />
  </g>
  <a
     style="color:inherit"
     xlink:href="textedit://C:/Users/Javier/Documents/lilypond%20scores/ricci-fingerings.ly:31:40:41"
     id="a778"
     transform="translate(-5.6906,-13.0125)">
    <g
       transform="translate(34.7985,24.8054)"
       id="g776">
      <text
         font-family="serif"
         font-size="1.98px"
         text-anchor="start"
         fill="currentColor"
         id="text774"><tspan
           id="tspan772">not good</tspan></text>
    </g>
  </a>
  <a
     style="color:inherit"
     xlink:href="textedit://C:/Users/Javier/Documents/lilypond%20scores/ricci-fingerings.ly:31:36:37"
     id="a784"
     transform="translate(-5.6906,-13.0125)">
    <g
       transform="translate(34.7985,19.2973)"
       id="g782">
      <path
         transform="scale(0.0036,-0.0036)"
         d="m 215,137 c 57,0 111,-29 111,-92 0,-71 -54,-120 -101,-148 -35,-21 -74,-34 -114,-34 -57,0 -111,29 -111,92 0,71 54,120 101,148 35,21 74,34 114,34 z"
         fill="currentColor"
         id="path780" />
    </g>
  </a>
  <g
     transform="translate(7.43,8.0848003)"
     id="g788">
    <path
       transform="scale(0.0036,-0.0036)"
       d="m 358,29 c -49,0 -74,41 -74,73 0,38 27,76 71,76 4,0 7,0 11,-1 -27,36 -69,59 -116,59 -106,0 -113,-74 -113,-188 0,-15 1,-31 1,-48 0,-17 -1,-33 -1,-48 0,-114 7,-188 113,-188 79,0 136,70 155,150 2,7 7,10 13,10 7,0 14,-5 14,-13 0,-95 -105,-175 -182,-175 -68,0 -137,20 -184,70 C 17,-143 0,-71 0,0 c 0,71 17,143 66,194 47,50 116,70 184,70 86,0 159,-66 173,-152 1,-4 1,-9 1,-13 0,-39 -30,-70 -66,-70 z"
       fill="currentColor"
       id="path786" />
  </g>
  <g
     transform="translate(11.0155,8.0848003)"
     id="g792">
    <rect
       x="-0.062799998"
       y="-1.5723"
       width="0.12549999"
       height="2.9223001"
       ry="0.039999999"
       fill="currentColor"
       id="rect790" />
  </g>
  <a
     style="color:inherit"
     xlink:href="textedit://C:/Users/Javier/Documents/lilypond%20scores/ricci-fingerings.ly:29:4:5"
     id="a802"
     transform="translate(-5.6906,-13.0125)">
    <g
       transform="translate(9.9906,19.2973)"
       id="g796">
      <path
         transform="scale(0.0036,-0.0036)"
         d="m 217,-311 c 0,-11 -8,-19 -19,-19 -11,0 -20,8 -20,19 v 142 l -81,-30 v -156 c 0,-11 -9,-20 -20,-20 -11,0 -19,9 -19,20 v 142 l -28,-11 c -3,-1 -5,-1 -8,-1 -12,0 -22,10 -22,23 v 57 c 0,9 6,18 15,21 l 43,16 V 49 L 30,39 C 27,38 25,38 22,38 10,38 0,47 0,60 v 57 c 0,9 6,18 15,21 l 43,16 v 157 c 0,11 8,19 19,19 11,0 20,-8 20,-19 V 169 l 81,30 v 156 c 0,11 9,20 20,20 11,0 19,-9 19,-20 V 213 l 28,11 c 3,1 5,1 8,1 12,0 22,-10 22,-23 v -57 c 0,-9 -6,-18 -15,-21 L 217,108 V -49 l 28,10 c 3,1 5,1 8,1 12,0 22,-9 22,-22 v -57 c 0,-9 -6,-18 -15,-21 l -43,-16 z M 97,64 V -94 l 81,30 V 94 Z"
         fill="currentColor"
         id="path794" />
    </g>
    <g
       transform="translate(10.9806,20.6473)"
       id="g800">
      <path
         transform="scale(0.0036,-0.0036)"
         d="m 217,-311 c 0,-11 -8,-19 -19,-19 -11,0 -20,8 -20,19 v 142 l -81,-30 v -156 c 0,-11 -9,-20 -20,-20 -11,0 -19,9 -19,20 v 142 l -28,-11 c -3,-1 -5,-1 -8,-1 -12,0 -22,10 -22,23 v 57 c 0,9 6,18 15,21 l 43,16 V 49 L 30,39 C 27,38 25,38 22,38 10,38 0,47 0,60 v 57 c 0,9 6,18 15,21 l 43,16 v 157 c 0,11 8,19 19,19 11,0 20,-8 20,-19 V 169 l 81,30 v 156 c 0,11 9,20 20,20 11,0 19,-9 19,-20 V 213 l 28,11 c 3,1 5,1 8,1 12,0 22,-10 22,-23 v -57 c 0,-9 -6,-18 -15,-21 L 217,108 V -49 l 28,10 c 3,1 5,1 8,1 12,0 22,-9 22,-22 v -57 c 0,-9 -6,-18 -15,-21 l -43,-16 z M 97,64 V -94 l 81,30 V 94 Z"
         fill="currentColor"
         id="path798" />
    </g>
  </a>
  <g
     transform="translate(0.80000003,8.9848003)"
     id="g806">
    <path
       transform="scale(0.0036,-0.0036)"
       d="m 378,263 c 4,0 7,1 11,1 156,0 257,-129 257,-262 0,-76 -34,-154 -108,-210 -22,-17 -46,-29 -72,-37 3,-34 5,-68 5,-102 0,-20 -1,-40 -2,-60 -7,-121 -90,-228 -209,-228 -108,0 -196,87 -196,196 0,58 53,104 112,104 54,0 95,-48 95,-104 0,-52 -43,-95 -95,-95 -10,0 -20,2 -29,6 26,-38 68,-63 116,-63 h 3 c 93,2 153,92 159,190 1,19 2,37 2,56 0,30 -2,60 -4,90 -29,-5 -58,-8 -88,-8 -188,0 -333,173 -333,375 0,177 130,307 246,442 -20,62 -38,125 -46,190 -6,52 -7,104 -7,157 0,115 55,223 148,290 7,5 16,4 22,-1 71,-83 134,-244 134,-357 0,-143 -85,-255 -178,-364 21,-68 40,-137 57,-206 z m 84,-465 c 67,24 111,94 111,162 0,89 -65,178 -170,190 24,-115 46,-230 59,-352 z M 75,26 c 0,-134 129,-245 263,-245 28,0 55,2 81,6 C 405,-87 383,31 358,150 279,142 234,89 234,31 c 0,-43 25,-89 80,-121 5,-5 7,-11 7,-16 0,-12 -10,-23 -22,-23 -3,0 -6,1 -9,2 -81,43 -118,116 -118,186 0,89 58,175 161,198 -14,58 -29,116 -46,173 C 181,308 75,186 75,26 Z M 406,1042 C 307,995 244,894 244,785 c 0,-73 20,-132 38,-191 79,97 144,199 144,324 0,53 -4,76 -20,124 z"
       fill="currentColor"
       id="path804" />
  </g>
  <a
     style="color:inherit"
     xlink:href="textedit://C:/Users/Javier/Documents/lilypond%20scores/ricci-fingerings.ly:31:11:12"
     id="a812"
     transform="translate(-5.6906,-13.0125)">
    <g
       transform="translate(17.2646,16.9736)"
       id="g810">
      <path
         transform="scale(0.0036,-0.0036)"
         d="m -210,86 c -9,2 -15,10 -15,19 0,12 12,23 25,19 L 205,20 c 14,0 20,-6 20,-20 0,-14 -6,-20 -20,-20 l -405,-104 c -13,-4 -25,7 -25,19 0,9 6,17 15,19 L 38,-22 178,0 38,22 Z"
         fill="currentColor"
         id="path808" />
    </g>
  </a>
  <a
     style="color:inherit"
     xlink:href="textedit://C:/Users/Javier/Documents/lilypond%20scores/ricci-fingerings.ly:31:13:14"
     id="a818"
     transform="translate(-5.6906,-13.0125)">
    <g
       transform="translate(16.8378,16.1525)"
       id="g816">
      <path
         transform="scale(0.002,-0.002)"
         d="m 198,284 c 24,15 48,29 65,52 12,16 19,34 28,52 2,5 6,7 11,7 8,0 16,-6 16,-17 V 161 h 79 c 12,0 18,-9 18,-18 0,-9 -6,-18 -18,-18 h -79 c 2,-51 33,-96 80,-96 10,0 15,-8 15,-15 C 413,7 408,0 398,0 349,0 302,14 253,14 204,14 156,0 107,0 97,0 93,7 93,14 c 0,7 4,15 14,15 47,0 79,45 81,96 H 36 c -29,0 -38,17 -38,28 0,3 1,6 2,8 78,88 123,201 123,319 0,11 8,21 17,21 1,0 3,-1 4,-1 25,-7 50,-14 76,-14 26,0 52,7 77,14 2,1 4,1 6,1 10,0 17,-7 17,-14 0,-2 0,-5 -2,-7 L 36,161 h 152 v 96 c 0,10 1,21 10,27 z"
         fill="currentColor"
         id="path814" />
    </g>
  </a>
  <a
     style="color:inherit"
     xlink:href="textedit://C:/Users/Javier/Documents/lilypond%20scores/ricci-fingerings.ly:31:4:5"
     id="a824"
     transform="translate(-5.6906,-13.0125)">
    <g
       transform="translate(16.6433,19.2973)"
       id="g822">
      <path
         transform="scale(0.0036,-0.0036)"
         d="m 312,64 c 0,24 -20,41 -41,41 -4,0 -8,-1 -12,-2 C 229,94 182,65 146,41 110,17 63,-13 43,-37 36,-45 33,-54 33,-64 c 0,-24 20,-41 41,-41 4,0 8,1 12,2 30,9 77,38 113,62 36,24 83,54 103,78 7,8 10,17 10,27 z m -53,73 c 48,0 86,-22 86,-74 0,-18 -4,-38 -10,-56 -12,-38 -30,-73 -63,-95 -53,-36 -113,-49 -186,-49 -48,0 -86,22 -86,74 0,18 4,38 10,56 12,38 31,73 64,95 53,36 112,49 185,49 z"
         fill="currentColor"
         id="path820" />
    </g>
  </a>
  <g
     transform="translate(19.1805,8.0848003)"
     id="g828">
    <rect
       x="-0.062799998"
       y="-0.73860002"
       width="0.12549999"
       height="2.5386"
       ry="0.039999999"
       fill="currentColor"
       id="rect826" />
  </g>
  <a
     style="color:inherit"
     xlink:href="textedit://C:/Users/Javier/Documents/lilypond%20scores/ricci-fingerings.ly:31:22:23"
     id="a834"
     transform="translate(-5.6906,-13.0125)">
    <g
       transform="translate(24.8084,20.1973)"
       id="g832">
      <path
         transform="scale(0.0036,-0.0036)"
         d="m 215,137 c 57,0 111,-29 111,-92 0,-71 -54,-120 -101,-148 -35,-21 -74,-34 -114,-34 -57,0 -111,29 -111,92 0,71 54,120 101,148 35,21 74,34 114,34 z"
         fill="currentColor"
         id="path830" />
    </g>
  </a>
  <g
     transform="translate(17.058,8.0848003)"
     id="g838">
    <rect
       x="-0.062799998"
       y="-1.6386"
       width="0.12549999"
       height="3.4386001"
       ry="0.039999999"
       fill="currentColor"
       id="rect836" />
  </g>
  <a
     style="color:inherit"
     xlink:href="textedit://C:/Users/Javier/Documents/lilypond%20scores/ricci-fingerings.ly:31:16:17"
     id="a844"
     transform="translate(-5.6906,-13.0125)">
    <g
       transform="translate(22.6858,19.2973)"
       id="g842">
      <path
         transform="scale(0.0036,-0.0036)"
         d="m 215,137 c 57,0 111,-29 111,-92 0,-71 -54,-120 -101,-148 -35,-21 -74,-34 -114,-34 -57,0 -111,29 -111,92 0,71 54,120 101,148 35,21 74,34 114,34 z"
         fill="currentColor"
         id="path840" />
    </g>
  </a>
  <g
     transform="translate(42.5375,8.0848003)"
     id="g848">
    <rect
       x="-0.062799998"
       y="-2.0885999"
       width="0.12549999"
       height="2.3425"
       ry="0.039999999"
       fill="currentColor"
       id="rect846" />
  </g>
  <a
     style="color:inherit"
     xlink:href="textedit://C:/Users/Javier/Documents/lilypond%20scores/ricci-fingerings.ly:33:22:23"
     id="a854"
     transform="translate(-5.6906,-13.0125)">
    <g
       transform="translate(48.376,17.1539)"
       id="g852">
      <path
         transform="scale(0.002,-0.002)"
         d="m 129,149 h 7 c 36,0 74,-13 111,-40 19,-14 40,-21 59,-21 22,0 40,10 46,31 2,7 7,11 13,11 7,0 15,-5 15,-14 v -5 C 361,40 296,0 234,0 196,0 159,15 133,47 121,62 105,69 89,69 60,69 32,48 29,13 28,4 22,0 15,0 8,0 0,5 0,14 c 0,173 233,163 233,341 0,56 -14,116 -62,116 -33,0 -66,-15 -66,-44 0,-24 31,-37 31,-61 0,-34 -27,-61 -61,-61 -34,0 -61,27 -61,61 0,78 74,134 157,134 98,0 191,-55 191,-145 C 362,211 227,199 129,149 Z"
         fill="currentColor"
         id="path850" />
    </g>
  </a>
  <a
     style="color:inherit"
     xlink:href="textedit://C:/Users/Javier/Documents/lilypond%20scores/ricci-fingerings.ly:33:24:25"
     id="a860"
     transform="translate(-5.6906,-13.0125)">
    <g
       transform="translate(48.376,24.4199)"
       id="g858">
      <path
         transform="scale(0.002,-0.002)"
         d="m 129,149 h 7 c 36,0 74,-13 111,-40 19,-14 40,-21 59,-21 22,0 40,10 46,31 2,7 7,11 13,11 7,0 15,-5 15,-14 v -5 C 361,40 296,0 234,0 196,0 159,15 133,47 121,62 105,69 89,69 60,69 32,48 29,13 28,4 22,0 15,0 8,0 0,5 0,14 c 0,173 233,163 233,341 0,56 -14,116 -62,116 -33,0 -66,-15 -66,-44 0,-24 31,-37 31,-61 0,-34 -27,-61 -61,-61 -34,0 -61,27 -61,61 0,78 74,134 157,134 98,0 191,-55 191,-145 C 362,211 227,199 129,149 Z"
         fill="currentColor"
         id="path856" />
    </g>
  </a>
  <a
     style="color:inherit"
     xlink:href="textedit://C:/Users/Javier/Documents/lilypond%20scores/ricci-fingerings.ly:33:20:21"
     id="a866"
     transform="translate(-5.6906,-13.0125)">
    <g
       transform="translate(48.1654,18.8473)"
       id="g864">
      <path
         transform="scale(0.0036,-0.0036)"
         d="m 215,137 c 57,0 111,-29 111,-92 0,-71 -54,-120 -101,-148 -35,-21 -74,-34 -114,-34 -57,0 -111,29 -111,92 0,71 54,120 101,148 35,21 74,34 114,34 z"
         fill="currentColor"
         id="path862" />
    </g>
  </a>
  <g
     transform="translate(40.165,8.0848003)"
     id="g870">
    <rect
       x="-0.062799998"
       y="-2.5386"
       width="0.12549999"
       height="3.0169001"
       ry="0.039999999"
       fill="currentColor"
       id="rect868" />
  </g>
  <a
     style="color:inherit"
     xlink:href="textedit://C:/Users/Javier/Documents/lilypond%20scores/ricci-fingerings.ly:33:15:16"
     id="a876"
     transform="translate(-5.6906,-13.0125)">
    <g
       transform="translate(46.0377,17.1837)"
       id="g874">
      <path
         transform="scale(0.002,-0.002)"
         d="m 155,471 c -34,0 -70,-8 -70,-38 0,-19 31,-23 31,-42 0,-28 -23,-51 -51,-51 -28,0 -51,23 -51,51 0,67 68,109 141,109 93,0 174,-31 174,-113 0,-41 -6,-77 -42,-94 -11,-5 -17,-16 -17,-27 0,-11 6,-22 17,-27 40,-19 59,-53 59,-98 C 346,47 263,0 160,0 78,0 0,45 0,119 c 0,32 26,58 58,58 32,0 58,-26 58,-58 0,-22 -36,-26 -36,-48 0,-33 42,-42 80,-42 46,0 56,58 56,112 v 38 c 0,40 -4,69 -43,69 H 99 c -12,0 -18,9 -18,18 0,9 6,18 18,18 h 74 c 40,0 43,31 43,73 v 30 c 0,50 -16,84 -61,84 z"
         fill="currentColor"
         id="path872" />
    </g>
  </a>
  <a
     style="color:inherit"
     xlink:href="textedit://C:/Users/Javier/Documents/lilypond%20scores/ricci-fingerings.ly:33:17:18"
     id="a882"
     transform="translate(-5.6906,-13.0125)">
    <g
       transform="translate(46.0377,24.4199)"
       id="g880">
      <path
         transform="scale(0.002,-0.002)"
         d="m 155,471 c -34,0 -70,-8 -70,-38 0,-19 31,-23 31,-42 0,-28 -23,-51 -51,-51 -28,0 -51,23 -51,51 0,67 68,109 141,109 93,0 174,-31 174,-113 0,-41 -6,-77 -42,-94 -11,-5 -17,-16 -17,-27 0,-11 6,-22 17,-27 40,-19 59,-53 59,-98 C 346,47 263,0 160,0 78,0 0,45 0,119 c 0,32 26,58 58,58 32,0 58,-26 58,-58 0,-22 -36,-26 -36,-48 0,-33 42,-42 80,-42 46,0 56,58 56,112 v 38 c 0,40 -4,69 -43,69 H 99 c -12,0 -18,9 -18,18 0,9 6,18 18,18 h 74 c 40,0 43,31 43,73 v 30 c 0,50 -16,84 -61,84 z"
         fill="currentColor"
         id="path878" />
    </g>
  </a>
  <g
     transform="translate(47.5326,8.0848003)"
     id="g886">
    <rect
       x="-0.062799998"
       y="-2.5386"
       width="0.12549999"
       height="2.5372"
       ry="0.039999999"
       fill="currentColor"
       id="rect884" />
  </g>
  <a
     style="color:inherit"
     xlink:href="textedit://C:/Users/Javier/Documents/lilypond%20scores/ricci-fingerings.ly:33:36:37"
     id="a892"
     transform="translate(-5.6906,-13.0125)">
    <g
       transform="translate(53.3882,16.7289)"
       id="g890">
      <path
         transform="scale(0.002,-0.002)"
         d="M 129,129 H 259 C 259,77 291,29 340,29 350,29 354,21 354,14 354,7 350,0 340,0 291,0 243,14 194,14 145,14 98,0 49,0 39,0 34,7 34,14 c 0,7 5,15 15,15 49,0 80,48 80,100 z M 0,250 129,500 c 3,7 13,3 21,0 14,-6 28,-14 44,-14 16,0 31,8 45,14 2,1 2,1 4,1 8,0 16,-9 16,-21 V 129 H 129 v 215 c 0,15 -11,23 -20,23 -5,0 -9,-2 -11,-7 L 32,233 c -4,-7 -9,-9 -15,-9 -9,0 -19,7 -19,17 0,3 0,6 2,9 z"
         fill="currentColor"
         id="path888" />
    </g>
  </a>
  <a
     style="color:inherit"
     xlink:href="textedit://C:/Users/Javier/Documents/lilypond%20scores/ricci-fingerings.ly:33:38:39"
     id="a898"
     transform="translate(-5.6906,-13.0125)">
    <g
       transform="translate(53.3882,24.454)"
       id="g896">
      <path
         transform="scale(0.002,-0.002)"
         d="M 129,129 H 259 C 259,77 291,29 340,29 350,29 354,21 354,14 354,7 350,0 340,0 291,0 243,14 194,14 145,14 98,0 49,0 39,0 34,7 34,14 c 0,7 5,15 15,15 49,0 80,48 80,100 z M 0,250 129,500 c 3,7 13,3 21,0 14,-6 28,-14 44,-14 16,0 31,8 45,14 2,1 2,1 4,1 8,0 16,-9 16,-21 V 129 H 129 v 215 c 0,15 -11,23 -20,23 -5,0 -9,-2 -11,-7 L 32,233 c -4,-7 -9,-9 -15,-9 -9,0 -19,7 -19,17 0,3 0,6 2,9 z"
         fill="currentColor"
         id="path894" />
    </g>
  </a>
  <a
     style="color:inherit"
     xlink:href="textedit://C:/Users/Javier/Documents/lilypond%20scores/ricci-fingerings.ly:33:34:35"
     id="a904"
     transform="translate(-5.6906,-13.0125)">
    <g
       transform="translate(53.1604,18.3973)"
       id="g902">
      <path
         transform="scale(0.0036,-0.0036)"
         d="m 215,137 c 57,0 111,-29 111,-92 0,-71 -54,-120 -101,-148 -35,-21 -74,-34 -114,-34 -57,0 -111,29 -111,92 0,71 54,120 101,148 35,21 74,34 114,34 z"
         fill="currentColor"
         id="path900" />
    </g>
  </a>
  <g
     transform="translate(45.1601,8.0848003)"
     id="g908">
    <rect
       x="-0.062799998"
       y="-2.9886"
       width="0.12549999"
       height="2.9944999"
       ry="0.039999999"
       fill="currentColor"
       id="rect906" />
  </g>
  <a
     style="color:inherit"
     xlink:href="textedit://C:/Users/Javier/Documents/lilypond%20scores/ricci-fingerings.ly:33:29:30"
     id="a914"
     transform="translate(-5.6906,-13.0125)">
    <g
       transform="translate(50.9474,16.7145)"
       id="g912">
      <path
         transform="scale(0.002,-0.002)"
         d="m 198,284 c 24,15 48,29 65,52 12,16 19,34 28,52 2,5 6,7 11,7 8,0 16,-6 16,-17 V 161 h 79 c 12,0 18,-9 18,-18 0,-9 -6,-18 -18,-18 h -79 c 2,-51 33,-96 80,-96 10,0 15,-8 15,-15 C 413,7 408,0 398,0 349,0 302,14 253,14 204,14 156,0 107,0 97,0 93,7 93,14 c 0,7 4,15 14,15 47,0 79,45 81,96 H 36 c -29,0 -38,17 -38,28 0,3 1,6 2,8 78,88 123,201 123,319 0,11 8,21 17,21 1,0 3,-1 4,-1 25,-7 50,-14 76,-14 26,0 52,7 77,14 2,1 4,1 6,1 10,0 17,-7 17,-14 0,-2 0,-5 -2,-7 L 36,161 h 152 v 96 c 0,10 1,21 10,27 z"
         fill="currentColor"
         id="path910" />
    </g>
  </a>
  <a
     style="color:inherit"
     xlink:href="textedit://C:/Users/Javier/Documents/lilypond%20scores/ricci-fingerings.ly:33:31:32"
     id="a920"
     transform="translate(-5.6906,-13.0125)">
    <g
       transform="translate(50.9986,24.4199)"
       id="g918">
      <path
         transform="scale(0.002,-0.002)"
         d="m 129,149 h 7 c 36,0 74,-13 111,-40 19,-14 40,-21 59,-21 22,0 40,10 46,31 2,7 7,11 13,11 7,0 15,-5 15,-14 v -5 C 361,40 296,0 234,0 196,0 159,15 133,47 121,62 105,69 89,69 60,69 32,48 29,13 28,4 22,0 15,0 8,0 0,5 0,14 c 0,173 233,163 233,341 0,56 -14,116 -62,116 -33,0 -66,-15 -66,-44 0,-24 31,-37 31,-61 0,-34 -27,-61 -61,-61 -34,0 -61,27 -61,61 0,78 74,134 157,134 98,0 191,-55 191,-145 C 362,211 227,199 129,149 Z"
         fill="currentColor"
         id="path916" />
    </g>
  </a>
  <a
     style="color:inherit"
     xlink:href="textedit://C:/Users/Javier/Documents/lilypond%20scores/ricci-fingerings.ly:33:27:28"
     id="a926"
     transform="translate(-5.6906,-13.0125)">
    <g
       transform="translate(50.7879,17.9473)"
       id="g924">
      <path
         transform="scale(0.0036,-0.0036)"
         d="m 215,137 c 57,0 111,-29 111,-92 0,-71 -54,-120 -101,-148 -35,-21 -74,-34 -114,-34 -57,0 -111,29 -111,92 0,71 54,120 101,148 35,21 74,34 114,34 z"
         fill="currentColor"
         id="path922" />
    </g>
  </a>
  <a
     style="color:inherit"
     xlink:href="textedit://C:/Users/Javier/Documents/lilypond%20scores/ricci-fingerings.ly:33:4:5"
     id="a932"
     transform="translate(-5.6906,-13.0125)">
    <g
       transform="translate(43.1703,19.2973)"
       id="g930">
      <path
         transform="scale(0.0036,-0.0036)"
         d="m 215,137 c 57,0 111,-29 111,-92 0,-71 -54,-120 -101,-148 -35,-21 -74,-34 -114,-34 -57,0 -111,29 -111,92 0,71 54,120 101,148 35,21 74,34 114,34 z"
         fill="currentColor"
         id="path928" />
    </g>
  </a>
  <a
     style="color:inherit"
     xlink:href="textedit://C:/Users/Javier/Documents/lilypond%20scores/ricci-fingerings.ly:33:10:11"
     id="a938"
     transform="translate(-5.6906,-13.0125)">
    <g
       transform="translate(43.3981,24.454)"
       id="g936">
      <path
         transform="scale(0.002,-0.002)"
         d="M 129,129 H 259 C 259,77 291,29 340,29 350,29 354,21 354,14 354,7 350,0 340,0 291,0 243,14 194,14 145,14 98,0 49,0 39,0 34,7 34,14 c 0,7 5,15 15,15 49,0 80,48 80,100 z M 0,250 129,500 c 3,7 13,3 21,0 14,-6 28,-14 44,-14 16,0 31,8 45,14 2,1 2,1 4,1 8,0 16,-9 16,-21 V 129 H 129 v 215 c 0,15 -11,23 -20,23 -5,0 -9,-2 -11,-7 L 32,233 c -4,-7 -9,-9 -15,-9 -9,0 -19,7 -19,17 0,3 0,6 2,9 z"
         fill="currentColor"
         id="path934" />
    </g>
  </a>
  <a
     style="color:inherit"
     xlink:href="textedit://C:/Users/Javier/Documents/lilypond%20scores/ricci-fingerings.ly:33:13:14"
     id="a944"
     transform="translate(-5.6906,-13.0125)">
    <g
       transform="translate(45.7928,18.3973)"
       id="g942">
      <path
         transform="scale(0.0036,-0.0036)"
         d="m 215,137 c 57,0 111,-29 111,-92 0,-71 -54,-120 -101,-148 -35,-21 -74,-34 -114,-34 -57,0 -111,29 -111,92 0,71 54,120 101,148 35,21 74,34 114,34 z"
         fill="currentColor"
         id="path940" />
    </g>
  </a>
  <a
     style="color:inherit"
     xlink:href="textedit://C:/Users/Javier/Documents/lilypond%20scores/ricci-fingerings.ly:33:8:9"
     id="a950"
     transform="translate(-5.6906,-13.0125)">
    <g
       transform="translate(43.3981,17.6167)"
       id="g948">
      <path
         transform="scale(0.002,-0.002)"
         d="M 129,129 H 259 C 259,77 291,29 340,29 350,29 354,21 354,14 354,7 350,0 340,0 291,0 243,14 194,14 145,14 98,0 49,0 39,0 34,7 34,14 c 0,7 5,15 15,15 49,0 80,48 80,100 z M 0,250 129,500 c 3,7 13,3 21,0 14,-6 28,-14 44,-14 16,0 31,8 45,14 2,1 2,1 4,1 8,0 16,-9 16,-21 V 129 H 129 v 215 c 0,15 -11,23 -20,23 -5,0 -9,-2 -11,-7 L 32,233 c -4,-7 -9,-9 -15,-9 -9,0 -19,7 -19,17 0,3 0,6 2,9 z"
         fill="currentColor"
         id="path946" />
    </g>
  </a>
  <g
     transform="translate(37.5425,8.0848003)"
     id="g954">
    <rect
       x="-0.062799998"
       y="-1.6386"
       width="0.12549999"
       height="2.3649001"
       ry="0.039999999"
       fill="currentColor"
       id="rect952" />
  </g>
</svg>
