<!-- <?xml version="1.0" encoding="UTF-8" standalone="no"?> -->
<svg
   version="1.2"
   width="118.67635mm"
   height="20.170828mm"
   viewBox="0 0 67.533401 11.478315"
   id="svg7642"
   sodipodi:docname="ricci-fingerings-1.svg"
   xmlns:inkscape="http://www.inkscape.org/namespaces/inkscape"
   xmlns:sodipodi="http://sodipodi.sourceforge.net/DTD/sodipodi-0.dtd"
   xmlns:xlink="http://www.w3.org/1999/xlink"
   xmlns="http://www.w3.org/2000/svg"
   xmlns:svg="http://www.w3.org/2000/svg">
  <defs
     id="defs7646" />
  <sodipodi:namedview
     id="namedview7644"
     pagecolor="#ffffff"
     bordercolor="#000000"
     borderopacity="0.25"
     inkscape:showpageshadow="2"
     inkscape:pageopacity="0.0"
     inkscape:pagecheckerboard="0"
     inkscape:deskcolor="#d1d1d1"
     inkscape:document-units="mm"
     showgrid="false" />
  <style
     type="text/css"
     id="style2"><![CDATA[
tspan { white-space: pre; }
]]></style>
  <!-- Page: 1/3 -->
  <g
     transform="translate(3.1967416e-8,9.9392991)"
     id="g958">
    <line
       stroke-linejoin="round"
       stroke-linecap="round"
       stroke-width="0.0966"
       stroke="currentColor"
       x1="0.048300002"
       y1="0"
       x2="67.4851"
       y2="0"
       id="line956" />
  </g>
  <g
     transform="translate(3.1967416e-8,9.0392991)"
     id="g962">
    <line
       stroke-linejoin="round"
       stroke-linecap="round"
       stroke-width="0.0966"
       stroke="currentColor"
       x1="0.048300002"
       y1="0"
       x2="67.4851"
       y2="0"
       id="line960" />
  </g>
  <g
     transform="translate(3.1967416e-8,8.1392991)"
     id="g966">
    <line
       stroke-linejoin="round"
       stroke-linecap="round"
       stroke-width="0.0966"
       stroke="currentColor"
       x1="0.048300002"
       y1="0"
       x2="67.4851"
       y2="0"
       id="line964" />
  </g>
  <g
     transform="translate(3.1967416e-8,7.2392991)"
     id="g970">
    <line
       stroke-linejoin="round"
       stroke-linecap="round"
       stroke-width="0.0966"
       stroke="currentColor"
       x1="0.048300002"
       y1="0"
       x2="67.4851"
       y2="0"
       id="line968" />
  </g>
  <g
     transform="translate(3.1967416e-8,6.3392991)"
     id="g974">
    <line
       stroke-linejoin="round"
       stroke-linecap="round"
       stroke-width="0.0966"
       stroke="currentColor"
       x1="0.048300002"
       y1="0"
       x2="67.4851"
       y2="0"
       id="line972" />
  </g>
  <g
     transform="translate(62.0611,8.1392991)"
     id="g978">
    <rect
       x="0"
       y="-1.8"
       width="0.18350001"
       height="3.5999999"
       ry="0.0000"
       fill="currentColor"
       id="rect976" />
  </g>
  <g
     transform="translate(3.1967416e-8,5.4392991)"
     id="g982">
    <rect
       x="62.965801"
       y="-0.0933"
       width="1.7588"
       height="0.1866"
       ry="0.0933"
       fill="currentColor"
       id="rect980" />
  </g>
  <g
     transform="translate(3.1967416e-8,4.5392991)"
     id="g986">
    <rect
       x="59.6455"
       y="-0.0933"
       width="1.7588"
       height="0.1866"
       ry="0.0933"
       fill="currentColor"
       id="rect984" />
  </g>
  <g
     transform="translate(3.1967416e-8,5.4392991)"
     id="g990">
    <rect
       x="59.6455"
       y="-0.0933"
       width="1.7588"
       height="0.1866"
       ry="0.0933"
       fill="currentColor"
       id="rect988" />
  </g>
  <g
     transform="translate(3.1967416e-8,5.4392991)"
     id="g994">
    <rect
       x="57.0229"
       y="-0.0933"
       width="1.7588"
       height="0.1866"
       ry="0.0933"
       fill="currentColor"
       id="rect992" />
  </g>
  <g
     transform="translate(3.1967416e-8,5.4392991)"
     id="g998">
    <rect
       x="54.650398"
       y="-0.0933"
       width="1.7588"
       height="0.1866"
       ry="0.0933"
       fill="currentColor"
       id="rect996" />
  </g>
  <g
     transform="translate(3.1967416e-8,5.4392991)"
     id="g1002">
    <rect
       x="49.773499"
       y="-0.0933"
       width="1.6407"
       height="0.1866"
       ry="0.0933"
       fill="currentColor"
       id="rect1000" />
  </g>
  <g
     transform="translate(3.1967416e-8,4.5392991)"
     id="g1006">
    <rect
       x="43.718399"
       y="-0.0933"
       width="1.7588"
       height="0.1866"
       ry="0.0933"
       fill="currentColor"
       id="rect1004" />
  </g>
  <g
     transform="translate(3.1967416e-8,5.4392991)"
     id="g1010">
    <rect
       x="43.718399"
       y="-0.0933"
       width="1.7588"
       height="0.1866"
       ry="0.0933"
       fill="currentColor"
       id="rect1008" />
  </g>
  <g
     transform="translate(3.1967416e-8,3.6392991)"
     id="g1014">
    <rect
       x="40.893902"
       y="-0.0933"
       width="1.7588"
       height="0.1866"
       ry="0.0933"
       fill="currentColor"
       id="rect1012" />
  </g>
  <g
     transform="translate(3.1967416e-8,4.5392991)"
     id="g1018">
    <rect
       x="40.893902"
       y="-0.0933"
       width="1.7588"
       height="0.1866"
       ry="0.0933"
       fill="currentColor"
       id="rect1016" />
  </g>
  <g
     transform="translate(3.1967416e-8,5.4392991)"
     id="g1022">
    <rect
       x="40.893902"
       y="-0.0933"
       width="1.7588"
       height="0.1866"
       ry="0.0933"
       fill="currentColor"
       id="rect1020" />
  </g>
  <g
     transform="translate(3.1967416e-8,3.6392991)"
     id="g1026">
    <rect
       x="34.7174"
       y="-0.0933"
       width="1.7588"
       height="0.1866"
       ry="0.0933"
       fill="currentColor"
       id="rect1024" />
  </g>
  <g
     transform="translate(3.1967416e-8,4.5392991)"
     id="g1030">
    <rect
       x="34.7174"
       y="-0.0933"
       width="1.7588"
       height="0.1866"
       ry="0.0933"
       fill="currentColor"
       id="rect1028" />
  </g>
  <g
     transform="translate(3.1967416e-8,5.4392991)"
     id="g1034">
    <rect
       x="34.7174"
       y="-0.0933"
       width="1.7588"
       height="0.1866"
       ry="0.0933"
       fill="currentColor"
       id="rect1032" />
  </g>
  <g
     transform="translate(3.1967416e-8,2.7392991)"
     id="g1038">
    <rect
       x="29.243"
       y="-0.0933"
       width="1.7588"
       height="0.1866"
       ry="0.0933"
       fill="currentColor"
       id="rect1036" />
  </g>
  <g
     transform="translate(3.1967416e-8,3.6392991)"
     id="g1042">
    <rect
       x="29.243"
       y="-0.0933"
       width="1.7588"
       height="0.1866"
       ry="0.0933"
       fill="currentColor"
       id="rect1040" />
  </g>
  <g
     transform="translate(3.1967416e-8,4.5392991)"
     id="g1046">
    <rect
       x="29.243"
       y="-0.0933"
       width="1.7588"
       height="0.1866"
       ry="0.0933"
       fill="currentColor"
       id="rect1044" />
  </g>
  <g
     transform="translate(3.1967416e-8,5.4392991)"
     id="g1050">
    <rect
       x="29.243"
       y="-0.0933"
       width="1.7588"
       height="0.1866"
       ry="0.0933"
       fill="currentColor"
       id="rect1048" />
  </g>
  <g
     transform="translate(3.1967416e-8,3.6392991)"
     id="g1054">
    <rect
       x="25.420401"
       y="-0.0933"
       width="1.7588"
       height="0.1866"
       ry="0.0933"
       fill="currentColor"
       id="rect1052" />
  </g>
  <g
     transform="translate(3.1967416e-8,4.5392991)"
     id="g1058">
    <rect
       x="25.420401"
       y="-0.0933"
       width="1.7588"
       height="0.1866"
       ry="0.0933"
       fill="currentColor"
       id="rect1056" />
  </g>
  <g
     transform="translate(3.1967416e-8,5.4392991)"
     id="g1062">
    <rect
       x="25.420401"
       y="-0.0933"
       width="1.7588"
       height="0.1866"
       ry="0.0933"
       fill="currentColor"
       id="rect1060" />
  </g>
  <g
     transform="translate(3.1967416e-8,4.5392991)"
     id="g1066">
    <rect
       x="21.8479"
       y="-0.0933"
       width="1.7588"
       height="0.1866"
       ry="0.0933"
       fill="currentColor"
       id="rect1064" />
  </g>
  <g
     transform="translate(3.1967416e-8,5.4392991)"
     id="g1070">
    <rect
       x="21.8479"
       y="-0.0933"
       width="1.7588"
       height="0.1866"
       ry="0.0933"
       fill="currentColor"
       id="rect1068" />
  </g>
  <g
     transform="translate(3.1967416e-8,4.5392991)"
     id="g1074">
    <rect
       x="18.2754"
       y="-0.0933"
       width="1.7588"
       height="0.1866"
       ry="0.0933"
       fill="currentColor"
       id="rect1072" />
  </g>
  <g
     transform="translate(3.1967416e-8,5.4392991)"
     id="g1078">
    <rect
       x="18.2754"
       y="-0.0933"
       width="1.7588"
       height="0.1866"
       ry="0.0933"
       fill="currentColor"
       id="rect1076" />
  </g>
  <a
     style="color:inherit"
     xlink:href="textedit://C:/Users/Javier/Documents/lilypond%20scores/ricci-fingerings.ly:51:31:32"
     id="a1084"
     transform="translate(-5.6906,-26.479101)">
    <g
       transform="translate(58.0116,32.3684)"
       id="g1082">
      <path
         transform="scale(0.0036,-0.0036)"
         d="m 215,137 c 57,0 111,-29 111,-92 0,-71 -54,-120 -101,-148 -35,-21 -74,-34 -114,-34 -57,0 -111,29 -111,92 0,71 54,120 101,148 35,21 74,34 114,34 z"
         fill="currentColor"
         id="path1080" />
    </g>
  </a>
  <a
     style="color:inherit"
     xlink:href="textedit://C:/Users/Javier/Documents/lilypond%20scores/ricci-fingerings.ly:51:27:28"
     id="a1090"
     transform="translate(-5.6906,-26.479101)">
    <g
       transform="translate(55.6391,31.9184)"
       id="g1088">
      <path
         transform="scale(0.0036,-0.0036)"
         d="m 215,137 c 57,0 111,-29 111,-92 0,-71 -54,-120 -101,-148 -35,-21 -74,-34 -114,-34 -57,0 -111,29 -111,92 0,71 54,120 101,148 35,21 74,34 114,34 z"
         fill="currentColor"
         id="path1086" />
    </g>
  </a>
  <g
     transform="translate(50.0112,8.1392991)"
     id="g1094">
    <rect
       x="-0.062799998"
       y="-2.5386"
       width="0.12549999"
       height="4.1030998"
       ry="0.039999999"
       fill="currentColor"
       id="rect1092" />
  </g>
  <g
     transform="translate(48.6085,5.4392991)"
     id="g1098">
    <path
       transform="scale(0.0036,-0.0036)"
       d="m 217,-311 c 0,-11 -8,-19 -19,-19 -11,0 -20,8 -20,19 v 142 l -81,-30 v -156 c 0,-11 -9,-20 -20,-20 -11,0 -19,9 -19,20 v 142 l -28,-11 c -3,-1 -5,-1 -8,-1 -12,0 -22,10 -22,23 v 57 c 0,9 6,18 15,21 l 43,16 V 49 L 30,39 C 27,38 25,38 22,38 10,38 0,47 0,60 v 57 c 0,9 6,18 15,21 l 43,16 v 157 c 0,11 8,19 19,19 11,0 20,-8 20,-19 V 169 l 81,30 v 156 c 0,11 9,20 20,20 11,0 19,-9 19,-20 V 213 l 28,11 c 3,1 5,1 8,1 12,0 22,-10 22,-23 v -57 c 0,-9 -6,-18 -15,-21 L 217,108 V -49 l 28,10 c 3,1 5,1 8,1 12,0 22,-9 22,-22 v -57 c 0,-9 -6,-18 -15,-21 l -43,-16 z M 97,64 V -94 l 81,30 V 94 Z"
       fill="currentColor"
       id="path1096" />
  </g>
  <g
     transform="translate(52.3837,8.1392991)"
     id="g1102">
    <rect
       x="-0.062799998"
       y="-2.0885999"
       width="0.12549999"
       height="3.6025"
       ry="0.039999999"
       fill="currentColor"
       id="rect1100" />
  </g>
  <a
     style="color:inherit"
     xlink:href="textedit://C:/Users/Javier/Documents/lilypond%20scores/ricci-fingerings.ly:51:35:36"
     id="a1108"
     transform="translate(-5.6906,-26.479101)">
    <g
       transform="translate(60.6341,31.4684)"
       id="g1106">
      <path
         transform="scale(0.0036,-0.0036)"
         d="m 215,137 c 57,0 111,-29 111,-92 0,-71 -54,-120 -101,-148 -35,-21 -74,-34 -114,-34 -57,0 -111,29 -111,92 0,71 54,120 101,148 35,21 74,34 114,34 z"
         fill="currentColor"
         id="path1104" />
    </g>
  </a>
  <a
     style="color:inherit"
     xlink:href="textedit://C:/Users/Javier/Documents/lilypond%20scores/ricci-fingerings.ly:51:36:37"
     id="a1114"
     transform="translate(-5.6906,-26.479101)">
    <g
       transform="translate(60.8448,30.5246)"
       id="g1112">
      <path
         transform="scale(0.002,-0.002)"
         d="m 129,149 h 7 c 36,0 74,-13 111,-40 19,-14 40,-21 59,-21 22,0 40,10 46,31 2,7 7,11 13,11 7,0 15,-5 15,-14 v -5 C 361,40 296,0 234,0 196,0 159,15 133,47 121,62 105,69 89,69 60,69 32,48 29,13 28,4 22,0 15,0 8,0 0,5 0,14 c 0,173 233,163 233,341 0,56 -14,116 -62,116 -33,0 -66,-15 -66,-44 0,-24 31,-37 31,-61 0,-34 -27,-61 -61,-61 -34,0 -61,27 -61,61 0,78 74,134 157,134 98,0 191,-55 191,-145 C 362,211 227,199 129,149 Z"
         fill="currentColor"
         id="path1110" />
    </g>
  </a>
  <g
     transform="translate(55.0063,8.1392991)"
     id="g1118">
    <rect
       x="-0.062799998"
       y="-2.9886"
       width="0.12549999"
       height="4.4464998"
       ry="0.039999999"
       fill="currentColor"
       id="rect1116" />
  </g>
  <a
     style="color:inherit"
     xlink:href="textedit://C:/Users/Javier/Documents/lilypond%20scores/ricci-fingerings.ly:49:31:32"
     id="a1124"
     transform="translate(-5.6906,-26.479101)">
    <g
       transform="translate(24.2591,34.6184)"
       id="g1122">
      <path
         stroke-width="0.0773"
         stroke-linejoin="round"
         stroke-linecap="round"
         stroke="currentColor"
         fill="currentColor"
         d="m 0.5374,-4.9938 c 1.2499,-1.3754 5.5932,-1.9224 7.1451,-0.9 v 0 c -1.5374,-0.9075 -5.8807,-0.3604 -7.1451,0.9 z"
         id="path1120" />
    </g>
  </a>
  <a
     style="color:inherit"
     xlink:href="textedit://C:/Users/Javier/Documents/lilypond%20scores/ricci-fingerings.ly:50:27:28"
     id="a1130"
     transform="translate(-5.6906,-26.479101)">
    <g
       transform="translate(49.702,31.0184)"
       id="g1128">
      <path
         transform="scale(0.0036,-0.0036)"
         d="m 215,137 c 57,0 111,-29 111,-92 0,-71 -54,-120 -101,-148 -35,-21 -74,-34 -114,-34 -57,0 -111,29 -111,92 0,71 54,120 101,148 35,21 74,34 114,34 z"
         fill="currentColor"
         id="path1126" />
    </g>
  </a>
  <a
     style="color:inherit"
     xlink:href="textedit://C:/Users/Javier/Documents/lilypond%20scores/ricci-fingerings.ly:50:31:32"
     id="a1136"
     transform="translate(-5.6906,-26.479101)">
    <g
       transform="translate(49.9469,30.0746)"
       id="g1134">
      <path
         transform="scale(0.002,-0.002)"
         d="m 155,471 c -34,0 -70,-8 -70,-38 0,-19 31,-23 31,-42 0,-28 -23,-51 -51,-51 -28,0 -51,23 -51,51 0,67 68,109 141,109 93,0 174,-31 174,-113 0,-41 -6,-77 -42,-94 -11,-5 -17,-16 -17,-27 0,-11 6,-22 17,-27 40,-19 59,-53 59,-98 C 346,47 263,0 160,0 78,0 0,45 0,119 c 0,32 26,58 58,58 32,0 58,-26 58,-58 0,-22 -36,-26 -36,-48 0,-33 42,-42 80,-42 46,0 56,58 56,112 v 38 c 0,40 -4,69 -43,69 H 99 c -12,0 -18,9 -18,18 0,9 6,18 18,18 h 74 c 40,0 43,31 43,73 v 30 c 0,50 -16,84 -61,84 z"
         fill="currentColor"
         id="path1132" />
    </g>
  </a>
  <g
     transform="translate(44.0742,8.1392991)"
     id="g1140">
    <rect
       x="-0.062799998"
       y="-3.4386001"
       width="0.12549999"
       height="4.1708999"
       ry="0.039999999"
       fill="currentColor"
       id="rect1138" />
  </g>
  <a
     style="color:inherit"
     xlink:href="textedit://C:/Users/Javier/Documents/lilypond%20scores/ricci-fingerings.ly:51:17:18"
     id="a1146"
     transform="translate(-5.6906,-26.479101)">
    <g
       transform="translate(52.5265,32.8184)"
       id="g1144">
      <path
         transform="scale(0.0036,-0.0036)"
         d="m 215,137 c 57,0 111,-29 111,-92 0,-71 -54,-120 -101,-148 -35,-21 -74,-34 -114,-34 -57,0 -111,29 -111,92 0,71 54,120 101,148 35,21 74,34 114,34 z"
         fill="currentColor"
         id="path1142" />
    </g>
  </a>
  <a
     style="color:inherit"
     xlink:href="textedit://C:/Users/Javier/Documents/lilypond%20scores/ricci-fingerings.ly:51:24:25"
     id="a1152"
     transform="translate(-5.6906,-26.479101)">
    <g
       transform="translate(52.7543,31.8746)"
       id="g1150">
      <path
         transform="scale(0.002,-0.002)"
         d="M 129,129 H 259 C 259,77 291,29 340,29 350,29 354,21 354,14 354,7 350,0 340,0 291,0 243,14 194,14 145,14 98,0 49,0 39,0 34,7 34,14 c 0,7 5,15 15,15 49,0 80,48 80,100 z M 0,250 129,500 c 3,7 13,3 21,0 14,-6 28,-14 44,-14 16,0 31,8 45,14 2,1 2,1 4,1 8,0 16,-9 16,-21 V 129 H 129 v 215 c 0,15 -11,23 -20,23 -5,0 -9,-2 -11,-7 L 32,233 c -4,-7 -9,-9 -15,-9 -9,0 -19,7 -19,17 0,3 0,6 2,9 z"
         fill="currentColor"
         id="path1148" />
    </g>
  </a>
  <g
     transform="translate(46.8987,8.1392991)"
     id="g1156">
    <rect
       x="-0.062799998"
       y="-1.6386"
       width="0.12549999"
       height="3.2695"
       ry="0.039999999"
       fill="currentColor"
       id="rect1154" />
  </g>
  <g
     transform="translate(41.2497,8.1392991)"
     id="g1160">
    <rect
       x="-0.062799998"
       y="-4.3386002"
       width="0.12549999"
       height="5.0709"
       ry="0.039999999"
       fill="currentColor"
       id="rect1158" />
  </g>
  <a
     style="color:inherit"
     xlink:href="textedit://C:/Users/Javier/Documents/lilypond%20scores/ricci-fingerings.ly:51:4:5"
     id="a1168"
     transform="translate(-5.6906,-26.479101)">
    <g
       transform="translate(58.748,37.939)"
       id="g1166">
      <text
         font-family="serif"
         font-style="italic"
         font-size="1.5716px"
         text-anchor="start"
         fill="currentColor"
         id="text1164"><tspan
           id="tspan1162">6</tspan></text>
    </g>
  </a>
  <a
     style="color:inherit"
     xlink:href="textedit://C:/Users/Javier/Documents/lilypond%20scores/ricci-fingerings.ly:51:23:24"
     id="a1184"
     transform="translate(-5.6906,-26.479101)">
    <g
       transform="translate(52.5265,34.7861)"
       id="g1174">
      <polygon
         stroke-linejoin="round"
         stroke-linecap="round"
         stroke-width="0.08"
         fill="currentColor"
         stroke="currentColor"
         points="13.1882,-0.4583 13.1882,-0.1063 0.04,0.176 0.04,-0.176 "
         id="polygon1172" />
    </g>
    <g
       transform="translate(52.5265,35.5184)"
       id="g1178">
      <polygon
         stroke-linejoin="round"
         stroke-linecap="round"
         stroke-width="0.08"
         fill="currentColor"
         stroke="currentColor"
         points="13.1882,-0.4583 13.1882,-0.1063 0.04,0.176 0.04,-0.176 "
         id="polygon1176" />
    </g>
    <g
       transform="translate(52.5265,36.2507)"
       id="g1182">
      <polygon
         stroke-linejoin="round"
         stroke-linecap="round"
         stroke-width="0.08"
         fill="currentColor"
         stroke="currentColor"
         points="13.1882,-0.4583 13.1882,-0.1063 0.04,0.176 0.04,-0.176 "
         id="polygon1180" />
    </g>
  </a>
  <g
     transform="translate(18.5685,7.4269991)"
     id="g1188">
    <polygon
       stroke-linejoin="round"
       stroke-linecap="round"
       stroke-width="0.08"
       fill="currentColor"
       stroke="currentColor"
       points="7.2306,-0.3637 7.2306,-0.0117 0.04,0.176 0.04,-0.176 "
       id="polygon1186" />
  </g>
  <g
     transform="translate(12.844,8.3069991)"
     id="g1192">
    <polygon
       stroke-linejoin="round"
       stroke-linecap="round"
       stroke-width="0.08"
       fill="currentColor"
       stroke="currentColor"
       points="12.9551,-0.5114 12.9551,-0.1594 0.04,0.176 0.04,-0.176 "
       id="polygon1190" />
  </g>
  <a
     style="color:inherit"
     xlink:href="textedit://C:/Users/Javier/Documents/lilypond%20scores/ricci-fingerings.ly:50:8:9"
     id="a1198"
     transform="translate(-5.6906,-26.479101)">
    <g
       transform="translate(35.2267,34.6184)"
       id="g1196">
      <path
         stroke-width="0.0773"
         stroke-linejoin="round"
         stroke-linecap="round"
         stroke="currentColor"
         fill="currentColor"
         d="m 0.6094,-6.3438 c 2.7296,-1.5281 27.8722,-0.0395 30.4025,1.8 v 0 C 28.4747,-6.2676 3.3322,-7.7562 0.6094,-6.3438 Z"
         id="path1194" />
    </g>
  </a>
  <a
     style="color:inherit"
     xlink:href="textedit://C:/Users/Javier/Documents/lilypond%20scores/ricci-fingerings.ly:50:9:10"
     id="a1212"
     transform="translate(-5.6906,-26.479101)">
    <g
       transform="translate(46.8776,33.8861)"
       id="g1202">
      <polygon
         stroke-linejoin="round"
         stroke-linecap="round"
         stroke-width="0.08"
         fill="currentColor"
         stroke="currentColor"
         points="2.91,-0.176 2.91,0.176 0.04,0.176 0.04,-0.176 "
         id="polygon1200" />
    </g>
    <g
       transform="translate(46.8776,34.6184)"
       id="g1206">
      <polygon
         stroke-linejoin="round"
         stroke-linecap="round"
         stroke-width="0.08"
         fill="currentColor"
         stroke="currentColor"
         points="2.91,-0.176 2.91,0.176 0.04,0.176 0.04,-0.176 "
         id="polygon1204" />
    </g>
    <g
       transform="translate(35.2267,35.3507)"
       id="g1210">
      <polygon
         stroke-linejoin="round"
         stroke-linecap="round"
         stroke-width="0.08"
         fill="currentColor"
         stroke="currentColor"
         points="14.5609,-0.176 14.5609,0.176 0.04,0.176 0.04,-0.176 "
         id="polygon1208" />
    </g>
  </a>
  <a
     style="color:inherit"
     xlink:href="textedit://C:/Users/Javier/Documents/lilypond%20scores/ricci-fingerings.ly:49:13:14"
     id="a1220"
     transform="translate(-5.6906,-26.479101)">
    <g
       transform="translate(27.5017,36.3572)"
       id="g1218">
      <text
         font-family="serif"
         font-style="italic"
         font-size="1.5716px"
         text-anchor="start"
         fill="currentColor"
         id="text1216"><tspan
           id="tspan1214">3</tspan></text>
    </g>
  </a>
  <a
     style="color:inherit"
     xlink:href="textedit://C:/Users/Javier/Documents/lilypond%20scores/ricci-fingerings.ly:49:13:14"
     id="a1238"
     transform="translate(-5.6906,-26.479101)">
    <g
       transform="translate(24.2591,35.9543)"
       id="g1224">
      <line
         stroke-linejoin="round"
         stroke-linecap="round"
         stroke-width="0.1545"
         stroke="currentColor"
         x1="7.4505"
         y1="-0.189"
         x2="7.4505"
         y2="-0.81900001"
         id="line1222" />
    </g>
    <g
       transform="translate(24.2591,35.9543)"
       id="g1228">
      <line
         stroke-linejoin="round"
         stroke-linecap="round"
         stroke-width="0.1545"
         stroke="currentColor"
         x1="-0.17990001"
         y1="0.0046000001"
         x2="-0.17990001"
         y2="-0.62540001"
         id="line1226" />
    </g>
    <g
       transform="translate(24.2591,35.9543)"
       id="g1232">
      <line
         stroke-linejoin="round"
         stroke-linecap="round"
         stroke-width="0.1545"
         stroke="currentColor"
         x1="7.4505"
         y1="-0.189"
         x2="4.6276002"
         y2="-0.1174"
         id="line1230" />
    </g>
    <g
       transform="translate(24.2591,35.9543)"
       id="g1236">
      <line
         stroke-linejoin="round"
         stroke-linecap="round"
         stroke-width="0.1545"
         stroke="currentColor"
         x1="-0.17990001"
         y1="0.0046000001"
         x2="2.8429"
         y2="-0.072099999"
         id="line1234" />
    </g>
  </a>
  <g
     transform="translate(60.0013,8.1392991)"
     id="g1242">
    <rect
       x="-0.062799998"
       y="-3.4386001"
       width="0.12549999"
       height="4.7898998"
       ry="0.039999999"
       fill="currentColor"
       id="rect1240" />
  </g>
  <a
     style="color:inherit"
     xlink:href="textedit://C:/Users/Javier/Documents/lilypond%20scores/ricci-fingerings.ly:51:39:40"
     id="a1248"
     transform="translate(-5.6906,-26.479101)">
    <g
       transform="translate(63.0066,31.9184)"
       id="g1246">
      <path
         transform="scale(0.0036,-0.0036)"
         d="m 215,137 c 57,0 111,-29 111,-92 0,-71 -54,-120 -101,-148 -35,-21 -74,-34 -114,-34 -57,0 -111,29 -111,92 0,71 54,120 101,148 35,21 74,34 114,34 z"
         fill="currentColor"
         id="path1244" />
    </g>
  </a>
  <g
     transform="translate(57.3788,8.1392991)"
     id="g1252">
    <rect
       x="-0.062799998"
       y="-2.5386"
       width="0.12549999"
       height="3.9459"
       ry="0.039999999"
       fill="currentColor"
       id="rect1250" />
  </g>
  <a
     style="color:inherit"
     xlink:href="textedit://C:/Users/Javier/Documents/lilypond%20scores/ricci-fingerings.ly:51:43:44"
     id="a1258"
     transform="translate(-5.6906,-26.479101)">
    <g
       transform="translate(65.6292,31.0184)"
       id="g1256">
      <path
         transform="scale(0.0036,-0.0036)"
         d="m 215,137 c 57,0 111,-29 111,-92 0,-71 -54,-120 -101,-148 -35,-21 -74,-34 -114,-34 -57,0 -111,29 -111,92 0,71 54,120 101,148 35,21 74,34 114,34 z"
         fill="currentColor"
         id="path1254" />
    </g>
  </a>
  <a
     style="color:inherit"
     xlink:href="textedit://C:/Users/Javier/Documents/lilypond%20scores/ricci-fingerings.ly:52:4:5"
     id="a1264"
     transform="translate(-5.6906,-26.479101)">
    <g
       transform="translate(68.9494,31.4684)"
       id="g1262">
      <path
         transform="scale(0.0036,-0.0036)"
         d="m 215,137 c 57,0 111,-29 111,-92 0,-71 -54,-120 -101,-148 -35,-21 -74,-34 -114,-34 -57,0 -111,29 -111,92 0,71 54,120 101,148 35,21 74,34 114,34 z"
         fill="currentColor"
         id="path1260" />
    </g>
  </a>
  <g
     transform="translate(63.3216,8.1392991)"
     id="g1268">
    <rect
       x="-0.062799998"
       y="-2.9886"
       width="0.12549999"
       height="2.9886"
       ry="0.039999999"
       fill="currentColor"
       id="rect1266" />
  </g>
  <g
     transform="translate(63.3844,8.0992991)"
     id="g1272">
    <path
       transform="scale(0.0036,-0.0036)"
       d="m 0,205 c 90,51 209,131 209,232 0,24 -4,47 -13,69 C 117,418 0,347 0,225 Z m 267,457 c 0,-44 -16,-81 -39,-115 16,-35 25,-72 25,-110 C 253,257 0,180 0,0 H -18 V 500 H 0 v -70 c 96,49 222,128 222,232 0,21 -4,42 -13,61 -3,17 10,28 24,28 30,0 34,-63 34,-89 z"
       fill="currentColor"
       id="path1270" />
  </g>
  <a
     style="color:inherit"
     xlink:href="textedit://C:/Users/Javier/Documents/lilypond%20scores/ricci-fingerings.ly:49:26:27"
     id="a1278"
     transform="translate(-5.6906,-26.479101)">
    <g
       transform="translate(24.2591,31.0184)"
       id="g1276">
      <path
         transform="scale(0.0036,-0.0036)"
         d="m 215,137 c 57,0 111,-29 111,-92 0,-71 -54,-120 -101,-148 -35,-21 -74,-34 -114,-34 -57,0 -111,29 -111,92 0,71 54,120 101,148 35,21 74,34 114,34 z"
         fill="currentColor"
         id="path1274" />
    </g>
  </a>
  <a
     style="color:inherit"
     xlink:href="textedit://C:/Users/Javier/Documents/lilypond%20scores/ricci-fingerings.ly:49:34:35"
     id="a1284"
     transform="translate(-5.6906,-26.479101)">
    <g
       transform="translate(24.4698,29.0786)"
       id="g1282">
      <path
         transform="scale(0.002,-0.002)"
         d="m 129,149 h 7 c 36,0 74,-13 111,-40 19,-14 40,-21 59,-21 22,0 40,10 46,31 2,7 7,11 13,11 7,0 15,-5 15,-14 v -5 C 361,40 296,0 234,0 196,0 159,15 133,47 121,62 105,69 89,69 60,69 32,48 29,13 28,4 22,0 15,0 8,0 0,5 0,14 c 0,173 233,163 233,341 0,56 -14,116 -62,116 -33,0 -66,-15 -66,-44 0,-24 31,-37 31,-61 0,-34 -27,-61 -61,-61 -34,0 -61,27 -61,61 0,78 74,134 157,134 98,0 191,-55 191,-145 C 362,211 227,199 129,149 Z"
         fill="currentColor"
         id="path1280" />
    </g>
  </a>
  <a
     style="color:inherit"
     xlink:href="textedit://C:/Users/Javier/Documents/lilypond%20scores/ricci-fingerings.ly:49:32:33"
     id="a1290"
     transform="translate(-5.6906,-26.479101)">
    <g
       transform="translate(24.8453,30.1646)"
       id="g1288">
      <path
         transform="scale(0.0036,-0.0036)"
         d="M -50,0 C -50,28 -28,50 0,50 28,50 50,28 50,0 50,-28 28,-50 0,-50 -28,-50 -50,-28 -50,0 Z"
         fill="currentColor"
         id="path1286" />
    </g>
  </a>
  <g
     transform="translate(18.6312,8.1392991)"
     id="g1294">
    <rect
       x="-0.062799998"
       y="-3.4386001"
       width="0.12549999"
       height="3.4568999"
       ry="0.039999999"
       fill="currentColor"
       id="rect1292" />
  </g>
  <a
     style="color:inherit"
     xlink:href="textedit://C:/Users/Javier/Documents/lilypond%20scores/ricci-fingerings.ly:49:37:38"
     id="a1300"
     transform="translate(-5.6906,-26.479101)">
    <g
       transform="translate(27.8316,30.5684)"
       id="g1298">
      <path
         transform="scale(0.0036,-0.0036)"
         d="m 215,137 c 57,0 111,-29 111,-92 0,-71 -54,-120 -101,-148 -35,-21 -74,-34 -114,-34 -57,0 -111,29 -111,92 0,71 54,120 101,148 35,21 74,34 114,34 z"
         fill="currentColor"
         id="path1296" />
    </g>
  </a>
  <a
     style="color:inherit"
     xlink:href="textedit://C:/Users/Javier/Documents/lilypond%20scores/ricci-fingerings.ly:49:42:43"
     id="a1306"
     transform="translate(-5.6906,-26.479101)">
    <g
       transform="translate(28.0764,28.0674)"
       id="g1304">
      <path
         transform="scale(0.002,-0.002)"
         d="m 155,471 c -34,0 -70,-8 -70,-38 0,-19 31,-23 31,-42 0,-28 -23,-51 -51,-51 -28,0 -51,23 -51,51 0,67 68,109 141,109 93,0 174,-31 174,-113 0,-41 -6,-77 -42,-94 -11,-5 -17,-16 -17,-27 0,-11 6,-22 17,-27 40,-19 59,-53 59,-98 C 346,47 263,0 160,0 78,0 0,45 0,119 c 0,32 26,58 58,58 32,0 58,-26 58,-58 0,-22 -36,-26 -36,-48 0,-33 42,-42 80,-42 46,0 56,58 56,112 v 38 c 0,40 -4,69 -43,69 H 99 c -12,0 -18,9 -18,18 0,9 6,18 18,18 h 74 c 40,0 43,31 43,73 v 30 c 0,50 -16,84 -61,84 z"
         fill="currentColor"
         id="path1302" />
    </g>
  </a>
  <a
     style="color:inherit"
     xlink:href="textedit://C:/Users/Javier/Documents/lilypond%20scores/ricci-fingerings.ly:49:40:41"
     id="a1312"
     transform="translate(-5.6906,-26.479101)">
    <g
       transform="translate(28.4179,29.7146)"
       id="g1310">
      <path
         transform="scale(0.0036,-0.0036)"
         d="M -50,0 C -50,28 -28,50 0,50 28,50 50,28 50,0 50,-28 28,-50 0,-50 -28,-50 -50,-28 -50,0 Z"
         fill="currentColor"
         id="path1308" />
    </g>
  </a>
  <a
     style="color:inherit"
     xlink:href="textedit://C:/Users/Javier/Documents/lilypond%20scores/ricci-fingerings.ly:50:24:25"
     id="a1318"
     transform="translate(-5.6906,-26.479101)">
    <g
       transform="translate(47.037,29.1746)"
       id="g1316">
      <path
         transform="scale(0.002,-0.002)"
         d="m 198,284 c 24,15 48,29 65,52 12,16 19,34 28,52 2,5 6,7 11,7 8,0 16,-6 16,-17 V 161 h 79 c 12,0 18,-9 18,-18 0,-9 -6,-18 -18,-18 h -79 c 2,-51 33,-96 80,-96 10,0 15,-8 15,-15 C 413,7 408,0 398,0 349,0 302,14 253,14 204,14 156,0 107,0 97,0 93,7 93,14 c 0,7 4,15 14,15 47,0 79,45 81,96 H 36 c -29,0 -38,17 -38,28 0,3 1,6 2,8 78,88 123,201 123,319 0,11 8,21 17,21 1,0 3,-1 4,-1 25,-7 50,-14 76,-14 26,0 52,7 77,14 2,1 4,1 6,1 10,0 17,-7 17,-14 0,-2 0,-5 -2,-7 L 36,161 h 152 v 96 c 0,10 1,21 10,27 z"
         fill="currentColor"
         id="path1314" />
    </g>
  </a>
  <g
     transform="translate(12.9068,8.1392991)"
     id="g1322">
    <rect
       x="-0.062799998"
       y="-2.0885999"
       width="0.12549999"
       height="2.2546999"
       ry="0.039999999"
       fill="currentColor"
       id="rect1320" />
  </g>
  <a
     style="color:inherit"
     xlink:href="textedit://C:/Users/Javier/Documents/lilypond%20scores/ricci-fingerings.ly:49:4:5"
     id="a1328"
     transform="translate(-5.6906,-26.479101)">
    <g
       transform="translate(18.5346,32.3684)"
       id="g1326">
      <path
         transform="scale(0.0036,-0.0036)"
         d="m 215,137 c 57,0 111,-29 111,-92 0,-71 -54,-120 -101,-148 -35,-21 -74,-34 -114,-34 -57,0 -111,29 -111,92 0,71 54,120 101,148 35,21 74,34 114,34 z"
         fill="currentColor"
         id="path1324" />
    </g>
  </a>
  <a
     style="color:inherit"
     xlink:href="textedit://C:/Users/Javier/Documents/lilypond%20scores/ricci-fingerings.ly:49:10:11"
     id="a1334"
     transform="translate(-5.6906,-26.479101)">
    <g
       transform="translate(18.7453,31.4246)"
       id="g1332">
      <path
         transform="scale(0.002,-0.002)"
         d="m 129,149 h 7 c 36,0 74,-13 111,-40 19,-14 40,-21 59,-21 22,0 40,10 46,31 2,7 7,11 13,11 7,0 15,-5 15,-14 v -5 C 361,40 296,0 234,0 196,0 159,15 133,47 121,62 105,69 89,69 60,69 32,48 29,13 28,4 22,0 15,0 8,0 0,5 0,14 c 0,173 233,163 233,341 0,56 -14,116 -62,116 -33,0 -66,-15 -66,-44 0,-24 31,-37 31,-61 0,-34 -27,-61 -61,-61 -34,0 -61,27 -61,61 0,78 74,134 157,134 98,0 191,-55 191,-145 C 362,211 227,199 129,149 Z"
         fill="currentColor"
         id="path1330" />
    </g>
  </a>
  <g
     transform="translate(0.80000003,9.0392991)"
     id="g1338">
    <path
       transform="scale(0.0036,-0.0036)"
       d="m 378,263 c 4,0 7,1 11,1 156,0 257,-129 257,-262 0,-76 -34,-154 -108,-210 -22,-17 -46,-29 -72,-37 3,-34 5,-68 5,-102 0,-20 -1,-40 -2,-60 -7,-121 -90,-228 -209,-228 -108,0 -196,87 -196,196 0,58 53,104 112,104 54,0 95,-48 95,-104 0,-52 -43,-95 -95,-95 -10,0 -20,2 -29,6 26,-38 68,-63 116,-63 h 3 c 93,2 153,92 159,190 1,19 2,37 2,56 0,30 -2,60 -4,90 -29,-5 -58,-8 -88,-8 -188,0 -333,173 -333,375 0,177 130,307 246,442 -20,62 -38,125 -46,190 -6,52 -7,104 -7,157 0,115 55,223 148,290 7,5 16,4 22,-1 71,-83 134,-244 134,-357 0,-143 -85,-255 -178,-364 21,-68 40,-137 57,-206 z m 84,-465 c 67,24 111,94 111,162 0,89 -65,178 -170,190 24,-115 46,-230 59,-352 z M 75,26 c 0,-134 129,-245 263,-245 28,0 55,2 81,6 C 405,-87 383,31 358,150 279,142 234,89 234,31 c 0,-43 25,-89 80,-121 5,-5 7,-11 7,-16 0,-12 -10,-23 -22,-23 -3,0 -6,1 -9,2 -81,43 -118,116 -118,186 0,89 58,175 161,198 -14,58 -29,116 -46,173 C 181,308 75,186 75,26 Z M 406,1042 C 307,995 244,894 244,785 c 0,-73 20,-132 38,-191 79,97 144,199 144,324 0,53 -4,76 -20,124 z"
       fill="currentColor"
       id="path1336" />
  </g>
  <a
     style="color:inherit"
     xlink:href="textedit://C:/Users/Javier/Documents/lilypond%20scores/ricci-fingerings.ly:47:4:5"
     id="a1356"
     transform="translate(-5.6906,-26.479101)">
    <g
       transform="translate(9.9906,32.8184)"
       id="g1342">
      <path
         transform="scale(0.0036,-0.0036)"
         d="m 217,-311 c 0,-11 -8,-19 -19,-19 -11,0 -20,8 -20,19 v 142 l -81,-30 v -156 c 0,-11 -9,-20 -20,-20 -11,0 -19,9 -19,20 v 142 l -28,-11 c -3,-1 -5,-1 -8,-1 -12,0 -22,10 -22,23 v 57 c 0,9 6,18 15,21 l 43,16 V 49 L 30,39 C 27,38 25,38 22,38 10,38 0,47 0,60 v 57 c 0,9 6,18 15,21 l 43,16 v 157 c 0,11 8,19 19,19 11,0 20,-8 20,-19 V 169 l 81,30 v 156 c 0,11 9,20 20,20 11,0 19,-9 19,-20 V 213 l 28,11 c 3,1 5,1 8,1 12,0 22,-10 22,-23 v -57 c 0,-9 -6,-18 -15,-21 L 217,108 V -49 l 28,10 c 3,1 5,1 8,1 12,0 22,-9 22,-22 v -57 c 0,-9 -6,-18 -15,-21 l -43,-16 z M 97,64 V -94 l 81,30 V 94 Z"
         fill="currentColor"
         id="path1340" />
    </g>
    <g
       transform="translate(10.9806,34.1684)"
       id="g1346">
      <path
         transform="scale(0.0036,-0.0036)"
         d="m 217,-311 c 0,-11 -8,-19 -19,-19 -11,0 -20,8 -20,19 v 142 l -81,-30 v -156 c 0,-11 -9,-20 -20,-20 -11,0 -19,9 -19,20 v 142 l -28,-11 c -3,-1 -5,-1 -8,-1 -12,0 -22,10 -22,23 v 57 c 0,9 6,18 15,21 l 43,16 V 49 L 30,39 C 27,38 25,38 22,38 10,38 0,47 0,60 v 57 c 0,9 6,18 15,21 l 43,16 v 157 c 0,11 8,19 19,19 11,0 20,-8 20,-19 V 169 l 81,30 v 156 c 0,11 9,20 20,20 11,0 19,-9 19,-20 V 213 l 28,11 c 3,1 5,1 8,1 12,0 22,-10 22,-23 v -57 c 0,-9 -6,-18 -15,-21 L 217,108 V -49 l 28,10 c 3,1 5,1 8,1 12,0 22,-9 22,-22 v -57 c 0,-9 -6,-18 -15,-21 l -43,-16 z M 97,64 V -94 l 81,30 V 94 Z"
         fill="currentColor"
         id="path1344" />
    </g>
    <g
       transform="translate(11.9706,32.3684)"
       id="g1350">
      <path
         transform="scale(0.0036,-0.0036)"
         d="m 217,-311 c 0,-11 -8,-19 -19,-19 -11,0 -20,8 -20,19 v 142 l -81,-30 v -156 c 0,-11 -9,-20 -20,-20 -11,0 -19,9 -19,20 v 142 l -28,-11 c -3,-1 -5,-1 -8,-1 -12,0 -22,10 -22,23 v 57 c 0,9 6,18 15,21 l 43,16 V 49 L 30,39 C 27,38 25,38 22,38 10,38 0,47 0,60 v 57 c 0,9 6,18 15,21 l 43,16 v 157 c 0,11 8,19 19,19 11,0 20,-8 20,-19 V 169 l 81,30 v 156 c 0,11 9,20 20,20 11,0 19,-9 19,-20 V 213 l 28,11 c 3,1 5,1 8,1 12,0 22,-10 22,-23 v -57 c 0,-9 -6,-18 -15,-21 L 217,108 V -49 l 28,10 c 3,1 5,1 8,1 12,0 22,-9 22,-22 v -57 c 0,-9 -6,-18 -15,-21 l -43,-16 z M 97,64 V -94 l 81,30 V 94 Z"
         fill="currentColor"
         id="path1348" />
    </g>
    <g
       transform="translate(12.9606,33.7184)"
       id="g1354">
      <path
         transform="scale(0.0036,-0.0036)"
         d="m 217,-311 c 0,-11 -8,-19 -19,-19 -11,0 -20,8 -20,19 v 142 l -81,-30 v -156 c 0,-11 -9,-20 -20,-20 -11,0 -19,9 -19,20 v 142 l -28,-11 c -3,-1 -5,-1 -8,-1 -12,0 -22,10 -22,23 v 57 c 0,9 6,18 15,21 l 43,16 V 49 L 30,39 C 27,38 25,38 22,38 10,38 0,47 0,60 v 57 c 0,9 6,18 15,21 l 43,16 v 157 c 0,11 8,19 19,19 11,0 20,-8 20,-19 V 169 l 81,30 v 156 c 0,11 9,20 20,20 11,0 19,-9 19,-20 V 213 l 28,11 c 3,1 5,1 8,1 12,0 22,-10 22,-23 v -57 c 0,-9 -6,-18 -15,-21 L 217,108 V -49 l 28,10 c 3,1 5,1 8,1 12,0 22,-9 22,-22 v -57 c 0,-9 -6,-18 -15,-21 l -43,-16 z M 97,64 V -94 l 81,30 V 94 Z"
         fill="currentColor"
         id="path1352" />
    </g>
  </a>
  <g
     transform="translate(9.5295,8.1392991)"
     id="g1360">
    <path
       transform="scale(0.0036,-0.0036)"
       d="m 151,475 c -29,0 -60,-8 -60,-33 0,-22 35,-25 35,-47 0,-31 -26,-57 -57,-57 -31,0 -57,26 -57,57 0,65 68,105 139,105 92,0 170,-33 170,-114 0,-42 -5,-81 -42,-98 -10,-5 -15,-14 -15,-23 0,-9 5,-18 15,-23 41,-19 57,-56 57,-102 C 336,48 256,0 156,0 77,0 0,43 0,115 c 0,36 29,65 65,65 36,0 65,-29 65,-65 0,-25 -40,-29 -40,-54 0,-28 34,-36 66,-36 48,0 61,59 61,115 v 22 c 0,50 -3,88 -49,88 H 90 c -10,0 -15,7 -15,15 0,8 5,15 15,15 h 78 c 46,0 49,40 49,92 v 14 c 0,53 -18,89 -66,89 z"
       fill="currentColor"
       id="path1358" />
  </g>
  <g
     transform="translate(9.41,9.9829991)"
     id="g1364">
    <path
       transform="scale(0.0036,-0.0036)"
       d="m 194,120 h 120 c 0,-49 29,-95 75,-95 8,0 12,-7 12,-13 C 401,6 397,0 389,0 344,0 299,13 254,13 209,13 164,0 119,0 c -8,0 -12,6 -12,12 0,6 4,13 12,13 46,0 75,46 75,95 z m 9,181 c 22,15 45,30 61,51 12,15 19,34 27,51 2,4 5,6 9,6 6,0 14,-6 14,-15 V 156 h 74 c 10,0 16,-8 16,-16 0,-8 -6,-15 -16,-15 h -74 v -5 H 194 v 5 H 31 c -24,0 -33,15 -33,24 0,3 1,6 2,7 80,92 134,205 134,327 0,11 8,20 17,17 24,-7 48,-13 73,-13 25,0 48,6 72,13 2,1 4,1 6,1 9,0 14,-7 14,-13 0,-2 0,-3 -2,-5 L 31,156 h 163 v 122 c 0,9 2,18 9,23 z"
       fill="currentColor"
       id="path1362" />
  </g>
  <g
     transform="translate(22.2038,8.1392991)"
     id="g1368">
    <rect
       x="-0.062799998"
       y="-3.8886001"
       width="0.12549999"
       height="3.8146999"
       ry="0.039999999"
       fill="currentColor"
       id="rect1366" />
  </g>
  <g
     transform="translate(29.5988,8.1392991)"
     id="g1372">
    <rect
       x="-0.062799998"
       y="-5.2385998"
       width="0.12549999"
       height="5.9709001"
       ry="0.039999999"
       fill="currentColor"
       id="rect1370" />
  </g>
  <g
     transform="translate(35.0733,8.1392991)"
     id="g1376">
    <rect
       x="-0.062799998"
       y="-4.7886"
       width="0.12549999"
       height="5.5208998"
       ry="0.039999999"
       fill="currentColor"
       id="rect1374" />
  </g>
  <a
     style="color:inherit"
     xlink:href="textedit://C:/Users/Javier/Documents/lilypond%20scores/ricci-fingerings.ly:50:4:5"
     id="a1382"
     transform="translate(-5.6906,-26.479101)">
    <g
       transform="translate(35.2267,29.2184)"
       id="g1380">
      <path
         transform="scale(0.0036,-0.0036)"
         d="m 215,137 c 57,0 111,-29 111,-92 0,-71 -54,-120 -101,-148 -35,-21 -74,-34 -114,-34 -57,0 -111,29 -111,92 0,71 54,120 101,148 35,21 74,34 114,34 z"
         fill="currentColor"
         id="path1378" />
    </g>
  </a>
  <a
     style="color:inherit"
     xlink:href="textedit://C:/Users/Javier/Documents/lilypond%20scores/ricci-fingerings.ly:50:10:11"
     id="a1388"
     transform="translate(-5.6906,-26.479101)">
    <g
       transform="translate(35.3861,27.9202)"
       id="g1386">
      <path
         transform="scale(0.002,-0.002)"
         d="m 198,284 c 24,15 48,29 65,52 12,16 19,34 28,52 2,5 6,7 11,7 8,0 16,-6 16,-17 V 161 h 79 c 12,0 18,-9 18,-18 0,-9 -6,-18 -18,-18 h -79 c 2,-51 33,-96 80,-96 10,0 15,-8 15,-15 C 413,7 408,0 398,0 349,0 302,14 253,14 204,14 156,0 107,0 97,0 93,7 93,14 c 0,7 4,15 14,15 47,0 79,45 81,96 H 36 c -29,0 -38,17 -38,28 0,3 1,6 2,8 78,88 123,201 123,319 0,11 8,21 17,21 1,0 3,-1 4,-1 25,-7 50,-14 76,-14 26,0 52,7 77,14 2,1 4,1 6,1 10,0 17,-7 17,-14 0,-2 0,-5 -2,-7 L 36,161 h 152 v 96 c 0,10 1,21 10,27 z"
         fill="currentColor"
         id="path1384" />
    </g>
  </a>
  <g
     transform="translate(36.5844,3.1892991)"
     id="g1392">
    <path
       transform="scale(0.0036,-0.0036)"
       d="M 0,0 C 0,31 25,56 56,56 87,56 111,31 111,0 111,-31 87,-56 56,-56 25,-56 0,-31 0,0 Z"
       fill="currentColor"
       id="path1390" />
  </g>
  <a
     style="color:inherit"
     xlink:href="textedit://C:/Users/Javier/Documents/lilypond%20scores/ricci-fingerings.ly:50:18:19"
     id="a1398"
     transform="translate(-5.6906,-26.479101)">
    <g
       transform="translate(40.8606,27.4811)"
       id="g1396">
      <path
         transform="scale(0.002,-0.002)"
         d="m 198,284 c 24,15 48,29 65,52 12,16 19,34 28,52 2,5 6,7 11,7 8,0 16,-6 16,-17 V 161 h 79 c 12,0 18,-9 18,-18 0,-9 -6,-18 -18,-18 h -79 c 2,-51 33,-96 80,-96 10,0 15,-8 15,-15 C 413,7 408,0 398,0 349,0 302,14 253,14 204,14 156,0 107,0 97,0 93,7 93,14 c 0,7 4,15 14,15 47,0 79,45 81,96 H 36 c -29,0 -38,17 -38,28 0,3 1,6 2,8 78,88 123,201 123,319 0,11 8,21 17,21 1,0 3,-1 4,-1 25,-7 50,-14 76,-14 26,0 52,7 77,14 2,1 4,1 6,1 10,0 17,-7 17,-14 0,-2 0,-5 -2,-7 L 36,161 h 152 v 96 c 0,10 1,21 10,27 z"
         fill="currentColor"
         id="path1394" />
    </g>
  </a>
  <a
     style="color:inherit"
     xlink:href="textedit://C:/Users/Javier/Documents/lilypond%20scores/ricci-fingerings.ly:50:13:14"
     id="a1404"
     transform="translate(-5.6906,-26.479101)">
    <g
       transform="translate(40.7011,29.6684)"
       id="g1402">
      <path
         transform="scale(0.0036,-0.0036)"
         d="m 215,137 c 57,0 111,-29 111,-92 0,-71 -54,-120 -101,-148 -35,-21 -74,-34 -114,-34 -57,0 -111,29 -111,92 0,71 54,120 101,148 35,21 74,34 114,34 z"
         fill="currentColor"
         id="path1400" />
    </g>
  </a>
  <a
     style="color:inherit"
     xlink:href="textedit://C:/Users/Javier/Documents/lilypond%20scores/ricci-fingerings.ly:50:21:22"
     id="a1410"
     transform="translate(-5.6906,-26.479101)">
    <g
       transform="translate(46.8776,30.1184)"
       id="g1408">
      <path
         transform="scale(0.0036,-0.0036)"
         d="m 215,137 c 57,0 111,-29 111,-92 0,-71 -54,-120 -101,-148 -35,-21 -74,-34 -114,-34 -57,0 -111,29 -111,92 0,71 54,120 101,148 35,21 74,34 114,34 z"
         fill="currentColor"
         id="path1406" />
    </g>
  </a>
  <a
     style="color:inherit"
     xlink:href="textedit://C:/Users/Javier/Documents/lilypond%20scores/ricci-fingerings.ly:49:45:46"
     id="a1416"
     transform="translate(-5.6906,-26.479101)">
    <g
       transform="translate(31.4041,30.1184)"
       id="g1414">
      <path
         transform="scale(0.0036,-0.0036)"
         d="m 215,137 c 57,0 111,-29 111,-92 0,-71 -54,-120 -101,-148 -35,-21 -74,-34 -114,-34 -57,0 -111,29 -111,92 0,71 54,120 101,148 35,21 74,34 114,34 z"
         fill="currentColor"
         id="path1412" />
    </g>
  </a>
  <a
     style="color:inherit"
     xlink:href="textedit://C:/Users/Javier/Documents/lilypond%20scores/ricci-fingerings.ly:49:48:49"
     id="a1422"
     transform="translate(-5.6906,-26.479101)">
    <g
       transform="translate(31.5636,28.3383)"
       id="g1420">
      <path
         transform="scale(0.002,-0.002)"
         d="m 198,284 c 24,15 48,29 65,52 12,16 19,34 28,52 2,5 6,7 11,7 8,0 16,-6 16,-17 V 161 h 79 c 12,0 18,-9 18,-18 0,-9 -6,-18 -18,-18 h -79 c 2,-51 33,-96 80,-96 10,0 15,-8 15,-15 C 413,7 408,0 398,0 349,0 302,14 253,14 204,14 156,0 107,0 97,0 93,7 93,14 c 0,7 4,15 14,15 47,0 79,45 81,96 H 36 c -29,0 -38,17 -38,28 0,3 1,6 2,8 78,88 123,201 123,319 0,11 8,21 17,21 1,0 3,-1 4,-1 25,-7 50,-14 76,-14 26,0 52,7 77,14 2,1 4,1 6,1 10,0 17,-7 17,-14 0,-2 0,-5 -2,-7 L 36,161 h 152 v 96 c 0,10 1,21 10,27 z"
         fill="currentColor"
         id="path1418" />
    </g>
  </a>
  <a
     style="color:inherit"
     xlink:href="textedit://C:/Users/Javier/Documents/lilypond%20scores/ricci-fingerings.ly:49:46:47"
     id="a1428"
     transform="translate(-5.6906,-26.479101)">
    <g
       transform="translate(31.9904,29.2646)"
       id="g1426">
      <path
         transform="scale(0.0036,-0.0036)"
         d="M -50,0 C -50,28 -28,50 0,50 28,50 50,28 50,0 50,-28 28,-50 0,-50 -28,-50 -50,-28 -50,0 Z"
         fill="currentColor"
         id="path1424" />
    </g>
  </a>
  <g
     transform="translate(25.7763,8.1392991)"
     id="g1432">
    <rect
       x="-0.062799998"
       y="-4.3386002"
       width="0.12549999"
       height="4.1725001"
       ry="0.039999999"
       fill="currentColor"
       id="rect1430" />
  </g>
</svg>
