<!-- <?xml version="1.0" encoding="UTF-8" standalone="no"?> -->
<svg
   version="1.2"
   width="105.98127mm"
   height="15.927798mm"
   viewBox="0 0 60.309197 9.0637967"
   id="svg7642"
   sodipodi:docname="ricci-fingerings-1.svg"
   xmlns:inkscape="http://www.inkscape.org/namespaces/inkscape"
   xmlns:sodipodi="http://sodipodi.sourceforge.net/DTD/sodipodi-0.dtd"
   xmlns:xlink="http://www.w3.org/1999/xlink"
   xmlns="http://www.w3.org/2000/svg"
   xmlns:svg="http://www.w3.org/2000/svg">
  <defs
     id="defs7646" />
  <sodipodi:namedview
     id="namedview7644"
     pagecolor="#ffffff"
     bordercolor="#000000"
     borderopacity="0.25"
     inkscape:showpageshadow="2"
     inkscape:pageopacity="0.0"
     inkscape:pagecheckerboard="0"
     inkscape:deskcolor="#d1d1d1"
     inkscape:document-units="mm"
     showgrid="false" />
  <style
     type="text/css"
     id="style2"><![CDATA[
tspan { white-space: pre; }
]]></style>
  <!-- Page: 1/3 -->
  <g
     transform="translate(3.1967416e-8,6.3206011)"
     id="g1924">
    <line
       stroke-linejoin="round"
       stroke-linecap="round"
       stroke-width="0.0966"
       stroke="currentColor"
       x1="0.048300002"
       y1="0"
       x2="60.260899"
       y2="0"
       id="line1922" />
  </g>
  <g
     transform="translate(3.1967416e-8,5.4206011)"
     id="g1928">
    <line
       stroke-linejoin="round"
       stroke-linecap="round"
       stroke-width="0.0966"
       stroke="currentColor"
       x1="0.048300002"
       y1="0"
       x2="60.260899"
       y2="0"
       id="line1926" />
  </g>
  <g
     transform="translate(3.1967416e-8,4.5206011)"
     id="g1932">
    <line
       stroke-linejoin="round"
       stroke-linecap="round"
       stroke-width="0.0966"
       stroke="currentColor"
       x1="0.048300002"
       y1="0"
       x2="60.260899"
       y2="0"
       id="line1930" />
  </g>
  <g
     transform="translate(3.1967416e-8,3.6206011)"
     id="g1936">
    <line
       stroke-linejoin="round"
       stroke-linecap="round"
       stroke-width="0.0966"
       stroke="currentColor"
       x1="0.048300002"
       y1="0"
       x2="60.260899"
       y2="0"
       id="line1934" />
  </g>
  <g
     transform="translate(3.1967416e-8,2.7206011)"
     id="g1940">
    <line
       stroke-linejoin="round"
       stroke-linecap="round"
       stroke-width="0.0966"
       stroke="currentColor"
       x1="0.048300002"
       y1="0"
       x2="60.260899"
       y2="0"
       id="line1938" />
  </g>
  <g
     transform="translate(42.6776,4.5206011)"
     id="g1944">
    <rect
       x="0"
       y="-1.8"
       width="0.18350001"
       height="3.5999999"
       ry="0.0000"
       fill="currentColor"
       id="rect1942" />
  </g>
  <g
     transform="translate(60.1257,4.5206011)"
     id="g1948">
    <rect
       x="0"
       y="-1.8"
       width="0.18350001"
       height="3.5999999"
       ry="0.0000"
       fill="currentColor"
       id="rect1946" />
  </g>
  <g
     transform="translate(3.1967416e-8,7.2206011)"
     id="g1952">
    <rect
       x="57.281502"
       y="-0.0933"
       width="1.7588"
       height="0.1866"
       ry="0.0933"
       fill="currentColor"
       id="rect1950" />
  </g>
  <g
     transform="translate(3.1967416e-8,7.2206011)"
     id="g1956">
    <rect
       x="54.659"
       y="-0.0933"
       width="1.7588"
       height="0.1866"
       ry="0.0933"
       fill="currentColor"
       id="rect1954" />
  </g>
  <g
     transform="translate(3.1967416e-8,8.1206011)"
     id="g1960">
    <rect
       x="54.659"
       y="-0.0933"
       width="1.7588"
       height="0.1866"
       ry="0.0933"
       fill="currentColor"
       id="rect1958" />
  </g>
  <g
     transform="translate(3.1967416e-8,7.2206011)"
     id="g1964">
    <rect
       x="52.536499"
       y="-0.0933"
       width="1.7588"
       height="0.1866"
       ry="0.0933"
       fill="currentColor"
       id="rect1962" />
  </g>
  <g
     transform="translate(3.1967416e-8,7.2206011)"
     id="g1968">
    <rect
       x="50.2742"
       y="-0.0933"
       width="1.6486"
       height="0.1866"
       ry="0.0933"
       fill="currentColor"
       id="rect1966" />
  </g>
  <g
     transform="translate(39.4179,4.5206011)"
     id="g1972">
    <rect
       x="-0.062799998"
       y="-2.0885999"
       width="0.12549999"
       height="2.9928"
       ry="0.039999999"
       fill="currentColor"
       id="rect1970" />
  </g>
  <a
     style="color:inherit"
     xlink:href="textedit://C:/Users/Javier/Documents/lilypond%20scores/ricci-fingerings.ly:88:4:5"
     id="a1978"
     transform="translate(-5.6906,-57.139999)">
    <g
       transform="translate(49.6174,59.4106)"
       id="g1976">
      <path
         transform="scale(0.0036,-0.0036)"
         d="m 312,64 c 0,24 -20,41 -41,41 -4,0 -8,-1 -12,-2 C 229,94 182,65 146,41 110,17 63,-13 43,-37 36,-45 33,-54 33,-64 c 0,-24 20,-41 41,-41 4,0 8,1 12,2 30,9 77,38 113,62 36,24 83,54 103,78 7,8 10,17 10,27 z m -53,73 c 48,0 86,-22 86,-74 0,-18 -4,-38 -10,-56 -12,-38 -30,-73 -63,-95 -53,-36 -113,-49 -186,-49 -48,0 -86,22 -86,74 0,18 4,38 10,56 12,38 31,73 64,95 53,36 112,49 185,49 z"
         fill="currentColor"
         id="path1974" />
    </g>
  </a>
  <g
     transform="translate(45.5707,2.2706011)"
     id="g1982">
    <path
       transform="scale(0.0036,-0.0036)"
       d="M 0,0 C 0,31 25,56 56,56 87,56 111,31 111,0 111,-31 87,-56 56,-56 25,-56 0,-31 0,0 Z"
       fill="currentColor"
       id="path1980" />
  </g>
  <g
     transform="translate(43.9896,4.5206011)"
     id="g1986">
    <rect
       x="-0.062799998"
       y="-2.0223"
       width="0.12549999"
       height="2.9223001"
       ry="0.039999999"
       fill="currentColor"
       id="rect1984" />
  </g>
  <a
     style="color:inherit"
     xlink:href="textedit://C:/Users/Javier/Documents/lilypond%20scores/ricci-fingerings.ly:84:4:5"
     id="a2004"
     transform="translate(-5.6906,-57.139999)">
    <g
       transform="translate(16.6433,65.1281)"
       id="g1990">
      <line
         stroke-linejoin="round"
         stroke-linecap="round"
         stroke-width="0.1545"
         stroke="currentColor"
         x1="7.0711002"
         y1="-0.2006"
         x2="7.0711002"
         y2="-0.83060002"
         id="line1988" />
    </g>
    <g
       transform="translate(16.6433,65.1281)"
       id="g1994">
      <line
         stroke-linejoin="round"
         stroke-linecap="round"
         stroke-width="0.1545"
         stroke="currentColor"
         x1="-0.17990001"
         y1="0.0051000002"
         x2="-0.17990001"
         y2="-0.62489998"
         id="line1992" />
    </g>
    <g
       transform="translate(16.6433,65.1281)"
       id="g1998">
      <line
         stroke-linejoin="round"
         stroke-linecap="round"
         stroke-width="0.1545"
         stroke="currentColor"
         x1="7.0711002"
         y1="-0.2006"
         x2="4.4377999"
         y2="-0.1259"
         id="line1996" />
    </g>
    <g
       transform="translate(16.6433,65.1281)"
       id="g2002">
      <line
         stroke-linejoin="round"
         stroke-linecap="round"
         stroke-width="0.1545"
         stroke="currentColor"
         x1="-0.17990001"
         y1="0.0051000002"
         x2="2.6531999"
         y2="-0.075300001"
         id="line2000" />
    </g>
  </a>
  <a
     style="color:inherit"
     xlink:href="textedit://C:/Users/Javier/Documents/lilypond%20scores/ricci-fingerings.ly:87:11:12"
     id="a2010"
     transform="translate(-5.6906,-57.139999)">
    <g
       transform="translate(37.9007,60.3106)"
       id="g2008">
      <path
         transform="scale(0.0036,-0.0036)"
         d="m 215,137 c 57,0 111,-29 111,-92 0,-71 -54,-120 -101,-148 -35,-21 -74,-34 -114,-34 -57,0 -111,29 -111,92 0,71 54,120 101,148 35,21 74,34 114,34 z"
         fill="currentColor"
         id="path2006" />
    </g>
  </a>
  <a
     style="color:inherit"
     xlink:href="textedit://C:/Users/Javier/Documents/lilypond%20scores/ricci-fingerings.ly:87:12:13"
     id="a2016"
     transform="translate(-5.6906,-57.139999)">
    <g
       transform="translate(38.1113,59.3623)"
       id="g2014">
      <path
         transform="scale(0.002,-0.002)"
         d="m 129,149 h 7 c 36,0 74,-13 111,-40 19,-14 40,-21 59,-21 22,0 40,10 46,31 2,7 7,11 13,11 7,0 15,-5 15,-14 v -5 C 361,40 296,0 234,0 196,0 159,15 133,47 121,62 105,69 89,69 60,69 32,48 29,13 28,4 22,0 15,0 8,0 0,5 0,14 c 0,173 233,163 233,341 0,56 -14,116 -62,116 -33,0 -66,-15 -66,-44 0,-24 31,-37 31,-61 0,-34 -27,-61 -61,-61 -34,0 -61,27 -61,61 0,78 74,134 157,134 98,0 191,-55 191,-145 C 362,211 227,199 129,149 Z"
         fill="currentColor"
         id="path2012" />
    </g>
  </a>
  <g
     transform="translate(32.2728,4.5206011)"
     id="g2020">
    <rect
       x="-0.062799998"
       y="-1.1885999"
       width="0.12549999"
       height="2.5754001"
       ry="0.039999999"
       fill="currentColor"
       id="rect2018" />
  </g>
  <a
     style="color:inherit"
     xlink:href="textedit://C:/Users/Javier/Documents/lilypond%20scores/ricci-fingerings.ly:87:24:25"
     id="a2026"
     transform="translate(-5.6906,-57.139999)">
    <g
       transform="translate(45.2905,58.14)"
       id="g2024">
      <path
         transform="scale(0.002,-0.002)"
         d="m 155,471 c -34,0 -70,-8 -70,-38 0,-19 31,-23 31,-42 0,-28 -23,-51 -51,-51 -28,0 -51,23 -51,51 0,67 68,109 141,109 93,0 174,-31 174,-113 0,-41 -6,-77 -42,-94 -11,-5 -17,-16 -17,-27 0,-11 6,-22 17,-27 40,-19 59,-53 59,-98 C 346,47 263,0 160,0 78,0 0,45 0,119 c 0,32 26,58 58,58 32,0 58,-26 58,-58 0,-22 -36,-26 -36,-48 0,-33 42,-42 80,-42 46,0 56,58 56,112 v 38 c 0,40 -4,69 -43,69 H 99 c -12,0 -18,9 -18,18 0,9 6,18 18,18 h 74 c 40,0 43,31 43,73 v 30 c 0,50 -16,84 -61,84 z"
         fill="currentColor"
         id="path2022" />
    </g>
  </a>
  <a
     style="color:inherit"
     xlink:href="textedit://C:/Users/Javier/Documents/lilypond%20scores/ricci-fingerings.ly:87:15:16"
     id="a2032"
     transform="translate(-5.6906,-57.139999)">
    <g
       transform="translate(41.4732,59.8606)"
       id="g2030">
      <path
         transform="scale(0.0036,-0.0036)"
         d="m 215,137 c 57,0 111,-29 111,-92 0,-71 -54,-120 -101,-148 -35,-21 -74,-34 -114,-34 -57,0 -111,29 -111,92 0,71 54,120 101,148 35,21 74,34 114,34 z"
         fill="currentColor"
         id="path2028" />
    </g>
  </a>
  <a
     style="color:inherit"
     xlink:href="textedit://C:/Users/Javier/Documents/lilypond%20scores/ricci-fingerings.ly:87:18:19"
     id="a2038"
     transform="translate(-5.6906,-57.139999)">
    <g
       transform="translate(41.718,58.9169)"
       id="g2036">
      <path
         transform="scale(0.002,-0.002)"
         d="m 155,471 c -34,0 -70,-8 -70,-38 0,-19 31,-23 31,-42 0,-28 -23,-51 -51,-51 -28,0 -51,23 -51,51 0,67 68,109 141,109 93,0 174,-31 174,-113 0,-41 -6,-77 -42,-94 -11,-5 -17,-16 -17,-27 0,-11 6,-22 17,-27 40,-19 59,-53 59,-98 C 346,47 263,0 160,0 78,0 0,45 0,119 c 0,32 26,58 58,58 32,0 58,-26 58,-58 0,-22 -36,-26 -36,-48 0,-33 42,-42 80,-42 46,0 56,58 56,112 v 38 c 0,40 -4,69 -43,69 H 99 c -12,0 -18,9 -18,18 0,9 6,18 18,18 h 74 c 40,0 43,31 43,73 v 30 c 0,50 -16,84 -61,84 z"
         fill="currentColor"
         id="path2034" />
    </g>
  </a>
  <g
     transform="translate(35.8454,4.5206011)"
     id="g2042">
    <rect
       x="-0.062799998"
       y="-1.6386"
       width="0.12549999"
       height="2.7841001"
       ry="0.039999999"
       fill="currentColor"
       id="rect2040" />
  </g>
  <a
     style="color:inherit"
     xlink:href="textedit://C:/Users/Javier/Documents/lilypond%20scores/ricci-fingerings.ly:87:21:22"
     id="a2048"
     transform="translate(-5.6906,-57.139999)">
    <g
       transform="translate(45.0457,59.4106)"
       id="g2046">
      <path
         transform="scale(0.0036,-0.0036)"
         d="m 215,137 c 57,0 111,-29 111,-92 0,-71 -54,-120 -101,-148 -35,-21 -74,-34 -114,-34 -57,0 -111,29 -111,92 0,71 54,120 101,148 35,21 74,34 114,34 z"
         fill="currentColor"
         id="path2044" />
    </g>
  </a>
  <g
     transform="translate(51.504,4.5206011)"
     id="g2052">
    <polygon
       stroke-linejoin="round"
       stroke-linecap="round"
       stroke-width="0.08"
       fill="currentColor"
       stroke="currentColor"
       points="7.2031,-0.0083 7.2031,0.3437 0.04,0.176 0.04,-0.176 "
       id="polygon2050" />
  </g>
  <g
     transform="translate(51.504,5.2529011)"
     id="g2056">
    <polygon
       stroke-linejoin="round"
       stroke-linecap="round"
       stroke-width="0.08"
       fill="currentColor"
       stroke="currentColor"
       points="7.2031,-0.0083 7.2031,0.3437 0.04,0.176 0.04,-0.176 "
       id="polygon2054" />
  </g>
  <a
     style="color:inherit"
     xlink:href="textedit://C:/Users/Javier/Documents/lilypond%20scores/ricci-fingerings.ly:88:19:20"
     id="a2062"
     transform="translate(-5.6906,-57.139999)">
    <g
       transform="translate(63.2652,64.8106)"
       id="g2060">
      <path
         transform="scale(0.0036,-0.0036)"
         d="m 215,137 c 57,0 111,-29 111,-92 0,-71 -54,-120 -101,-148 -35,-21 -74,-34 -114,-34 -57,0 -111,29 -111,92 0,71 54,120 101,148 35,21 74,34 114,34 z"
         fill="currentColor"
         id="path2058" />
    </g>
  </a>
  <g
     transform="translate(58.6844,4.5206011)"
     id="g2066">
    <rect
       x="-0.062799998"
       y="0.1663"
       width="0.12549999"
       height="2.8223"
       ry="0.039999999"
       fill="currentColor"
       id="rect2064" />
  </g>
  <g
     transform="translate(28.6375,6.1529011)"
     id="g2070">
    <polygon
       stroke-linejoin="round"
       stroke-linecap="round"
       stroke-width="0.08"
       fill="currentColor"
       stroke="currentColor"
       points="10.8031,-0.9083 10.8031,-0.5563 0.04,0.176 0.04,-0.176 "
       id="polygon2068" />
  </g>
  <a
     style="color:inherit"
     xlink:href="textedit://C:/Users/Javier/Documents/lilypond%20scores/ricci-fingerings.ly:87:22:23"
     id="a2076"
     transform="translate(-5.6906,-57.139999)">
    <g
       transform="translate(45.0457,61.6606)"
       id="g2074">
      <path
         stroke-width="0.0773"
         stroke-linejoin="round"
         stroke-linecap="round"
         stroke="currentColor"
         fill="currentColor"
         d="m 1.3725,-2.7 c 0.6521,-0.6967 2.3472,-0.6967 2.9992,0 v 0 c -0.652,-0.5808 -2.3471,-0.5808 -2.9992,0 z"
         id="path2072" />
    </g>
  </a>
  <a
     style="color:inherit"
     xlink:href="textedit://C:/Users/Javier/Documents/lilypond%20scores/ricci-fingerings.ly:87:23:24"
     id="a2082"
     transform="translate(-5.6906,-57.139999)">
    <g
       transform="translate(45.0457,61.6606)"
       id="g2080">
      <path
         stroke-width="0.0773"
         stroke-linejoin="round"
         stroke-linecap="round"
         stroke="currentColor"
         fill="currentColor"
         d="m 0.6417,-3.1938 c 2.0302,-1.1553 10.0011,-0.0137 11.6254,1.665 v 0 C 10.6264,-3.0928 2.6555,-4.2344 0.6417,-3.1938 Z"
         id="path2078" />
    </g>
  </a>
  <g
     transform="translate(19.7839,7.0529011)"
     id="g2086">
    <polygon
       stroke-linejoin="round"
       stroke-linecap="round"
       stroke-width="0.08"
       fill="currentColor"
       stroke="currentColor"
       points="5.8267,-0.7406 5.8267,-0.3886 0.04,0.176 0.04,-0.176 "
       id="polygon2084" />
  </g>
  <g
     transform="translate(14.5978,3.4529011)"
     id="g2090">
    <polygon
       stroke-linejoin="round"
       stroke-linecap="round"
       stroke-width="0.08"
       fill="currentColor"
       stroke="currentColor"
       points="3.2061,-0.7406 3.2061,-0.3886 0.04,0.176 0.04,-0.176 "
       id="polygon2088" />
  </g>
  <a
     style="color:inherit"
     xlink:href="textedit://C:/Users/Javier/Documents/lilypond%20scores/ricci-fingerings.ly:86:4:5"
     id="a2098"
     transform="translate(-5.6906,-57.139999)">
    <g
       transform="translate(28.0152,65.7276)"
       id="g2096">
      <text
         font-family="serif"
         font-style="italic"
         font-size="1.5716px"
         text-anchor="start"
         fill="currentColor"
         id="text2094"><tspan
           id="tspan2092">3</tspan></text>
    </g>
  </a>
  <a
     style="color:inherit"
     xlink:href="textedit://C:/Users/Javier/Documents/lilypond%20scores/ricci-fingerings.ly:84:4:5"
     id="a2108"
     transform="translate(-5.6906,-57.139999)">
    <g
       transform="translate(19.6962,65.5254)"
       id="g2106">
      <text
         font-family="serif"
         font-style="italic"
         font-size="1.5716px"
         text-anchor="start"
         fill="currentColor"
         id="text2104"><tspan
           id="tspan2102">3</tspan></text>
    </g>
  </a>
  <a
     style="color:inherit"
     xlink:href="textedit://C:/Users/Javier/Documents/lilypond%20scores/ricci-fingerings.ly:88:8:9"
     id="a2114"
     transform="translate(-5.6906,-57.139999)">
    <g
       transform="translate(56.1476,64.3606)"
       id="g2112">
      <path
         transform="scale(0.0036,-0.0036)"
         d="m 215,137 c 57,0 111,-29 111,-92 0,-71 -54,-120 -101,-148 -35,-21 -74,-34 -114,-34 -57,0 -111,29 -111,92 0,71 54,120 101,148 35,21 74,34 114,34 z"
         fill="currentColor"
         id="path2110" />
    </g>
  </a>
  <g
     transform="translate(51.5668,4.5206011)"
     id="g2118">
    <rect
       x="-0.062799998"
       y="0.0015"
       width="0.12549999"
       height="2.5371001"
       ry="0.039999999"
       fill="currentColor"
       id="rect2116" />
  </g>
  <g
     transform="translate(49.4912,7.2206011)"
     id="g2122">
    <path
       transform="scale(0.0036,-0.0036)"
       d="m -8,375 c 8,5 17,7 26,7 9,0 18,-2 26,-7 l -3,-187 104,21 h 4 c 10,0 18,-8 18,-18 l 7,-566 c -8,-5 -16,-7 -25,-7 -9,0 -18,2 -26,7 l 2,187 -103,-21 h -4 c -10,0 -18,8 -18,18 z M 130,111 40,93 l -3,-204 90,18 z"
       fill="currentColor"
       id="path2120" />
  </g>
  <a
     style="color:inherit"
     xlink:href="textedit://C:/Users/Javier/Documents/lilypond%20scores/ricci-fingerings.ly:88:15:16"
     id="a2128"
     transform="translate(-5.6906,-57.139999)">
    <g
       transform="translate(58.5201,64.3606)"
       id="g2126">
      <path
         transform="scale(0.0036,-0.0036)"
         d="m 215,137 c 57,0 111,-29 111,-92 0,-71 -54,-120 -101,-148 -35,-21 -74,-34 -114,-34 -57,0 -111,29 -111,92 0,71 54,120 101,148 35,21 74,34 114,34 z"
         fill="currentColor"
         id="path2124" />
    </g>
  </a>
  <g
     transform="translate(53.9393,4.5206011)"
     id="g2132">
    <rect
       x="-0.062799998"
       y="0.056400001"
       width="0.12549999"
       height="2.4821999"
       ry="0.039999999"
       fill="currentColor"
       id="rect2130" />
  </g>
  <a
     style="color:inherit"
     xlink:href="textedit://C:/Users/Javier/Documents/lilypond%20scores/ricci-fingerings.ly:88:17:18"
     id="a2138"
     transform="translate(-5.6906,-57.139999)">
    <g
       transform="translate(60.6427,65.7106)"
       id="g2136">
      <path
         transform="scale(0.0036,-0.0036)"
         d="m 215,137 c 57,0 111,-29 111,-92 0,-71 -54,-120 -101,-148 -35,-21 -74,-34 -114,-34 -57,0 -111,29 -111,92 0,71 54,120 101,148 35,21 74,34 114,34 z"
         fill="currentColor"
         id="path2134" />
    </g>
  </a>
  <g
     transform="translate(56.0618,4.5206011)"
     id="g2142">
    <rect
       x="-0.062799998"
       y="0.1055"
       width="0.12549999"
       height="3.783"
       ry="0.039999999"
       fill="currentColor"
       id="rect2140" />
  </g>
  <a
     style="color:inherit"
     xlink:href="textedit://C:/Users/Javier/Documents/lilypond%20scores/ricci-fingerings.ly:84:26:27"
     id="a2148"
     transform="translate(-5.6906,-57.139999)">
    <g
       transform="translate(22.5726,59.3623)"
       id="g2146">
      <path
         transform="scale(0.002,-0.002)"
         d="m 129,149 h 7 c 36,0 74,-13 111,-40 19,-14 40,-21 59,-21 22,0 40,10 46,31 2,7 7,11 13,11 7,0 15,-5 15,-14 v -5 C 361,40 296,0 234,0 196,0 159,15 133,47 121,62 105,69 89,69 60,69 32,48 29,13 28,4 22,0 15,0 8,0 0,5 0,14 c 0,173 233,163 233,341 0,56 -14,116 -62,116 -33,0 -66,-15 -66,-44 0,-24 31,-37 31,-61 0,-34 -27,-61 -61,-61 -34,0 -61,27 -61,61 0,78 74,134 157,134 98,0 191,-55 191,-145 C 362,211 227,199 129,149 Z"
         fill="currentColor"
         id="path2144" />
    </g>
  </a>
  <a
     style="color:inherit"
     xlink:href="textedit://C:/Users/Javier/Documents/lilypond%20scores/ricci-fingerings.ly:84:21:22"
     id="a2154"
     transform="translate(-5.6906,-57.139999)">
    <g
       transform="translate(19.2414,63.4606)"
       id="g2152">
      <path
         transform="scale(0.0036,-0.0036)"
         d="m 215,137 c 57,0 111,-29 111,-92 0,-71 -54,-120 -101,-148 -35,-21 -74,-34 -114,-34 -57,0 -111,29 -111,92 0,71 54,120 101,148 35,21 74,34 114,34 z"
         fill="currentColor"
         id="path2150" />
    </g>
  </a>
  <a
     style="color:inherit"
     xlink:href="textedit://C:/Users/Javier/Documents/lilypond%20scores/ricci-fingerings.ly:84:22:23"
     id="a2160"
     transform="translate(-5.6906,-57.139999)">
    <g
       transform="translate(19.4691,59.3623)"
       id="g2158">
      <path
         transform="scale(0.002,-0.002)"
         d="M 129,129 H 259 C 259,77 291,29 340,29 350,29 354,21 354,14 354,7 350,0 340,0 291,0 243,14 194,14 145,14 98,0 49,0 39,0 34,7 34,14 c 0,7 5,15 15,15 49,0 80,48 80,100 z M 0,250 129,500 c 3,7 13,3 21,0 14,-6 28,-14 44,-14 16,0 31,8 45,14 2,1 2,1 4,1 8,0 16,-9 16,-21 V 129 H 129 v 215 c 0,15 -11,23 -20,23 -5,0 -9,-2 -11,-7 L 32,233 c -4,-7 -9,-9 -15,-9 -9,0 -19,7 -19,17 0,3 0,6 2,9 z"
         fill="currentColor"
         id="path2156" />
    </g>
  </a>
  <g
     transform="translate(14.6605,4.5206011)"
     id="g2164">
    <rect
       x="-0.062799998"
       y="-1.0786"
       width="0.12549999"
       height="2.7172"
       ry="0.039999999"
       fill="currentColor"
       id="rect2162" />
  </g>
  <a
     style="color:inherit"
     xlink:href="textedit://C:/Users/Javier/Documents/lilypond%20scores/ricci-fingerings.ly:84:25:26"
     id="a2170"
     transform="translate(-5.6906,-57.139999)">
    <g
       transform="translate(22.3619,62.5606)"
       id="g2168">
      <path
         transform="scale(0.0036,-0.0036)"
         d="m 215,137 c 57,0 111,-29 111,-92 0,-71 -54,-120 -101,-148 -35,-21 -74,-34 -114,-34 -57,0 -111,29 -111,92 0,71 54,120 101,148 35,21 74,34 114,34 z"
         fill="currentColor"
         id="path2166" />
    </g>
  </a>
  <g
     transform="translate(17.7811,4.5206011)"
     id="g2174">
    <rect
       x="-0.062799998"
       y="-1.6214"
       width="0.12549999"
       height="2.3599"
       ry="0.039999999"
       fill="currentColor"
       id="rect2172" />
  </g>
  <a
     style="color:inherit"
     xlink:href="textedit://C:/Users/Javier/Documents/lilypond%20scores/ricci-fingerings.ly:86:17:18"
     id="a2180"
     transform="translate(-5.6906,-57.139999)">
    <g
       transform="translate(25.4745,62.1106)"
       id="g2178">
      <path
         transform="scale(0.0036,-0.0036)"
         d="m 215,137 c 57,0 111,-29 111,-92 0,-71 -54,-120 -101,-148 -35,-21 -74,-34 -114,-34 -57,0 -111,29 -111,92 0,71 54,120 101,148 35,21 74,34 114,34 z"
         fill="currentColor"
         id="path2176" />
    </g>
  </a>
  <a
     style="color:inherit"
     xlink:href="textedit://C:/Users/Javier/Documents/lilypond%20scores/ricci-fingerings.ly:86:20:21"
     id="a2186"
     transform="translate(-5.6906,-57.139999)">
    <g
       transform="translate(25.7022,59.3623)"
       id="g2184">
      <path
         transform="scale(0.002,-0.002)"
         d="M 129,129 H 259 C 259,77 291,29 340,29 350,29 354,21 354,14 354,7 350,0 340,0 291,0 243,14 194,14 145,14 98,0 49,0 39,0 34,7 34,14 c 0,7 5,15 15,15 49,0 80,48 80,100 z M 0,250 129,500 c 3,7 13,3 21,0 14,-6 28,-14 44,-14 16,0 31,8 45,14 2,1 2,1 4,1 8,0 16,-9 16,-21 V 129 H 129 v 215 c 0,15 -11,23 -20,23 -5,0 -9,-2 -11,-7 L 32,233 c -4,-7 -9,-9 -15,-9 -9,0 -19,7 -19,17 0,3 0,6 2,9 z"
         fill="currentColor"
         id="path2182" />
    </g>
  </a>
  <g
     transform="translate(19.8466,4.5206011)"
     id="g2190">
    <rect
       x="-0.062799998"
       y="0.61140001"
       width="0.12549999"
       height="1.9148"
       ry="0.039999999"
       fill="currentColor"
       id="rect2188" />
  </g>
  <a
     style="color:inherit"
     xlink:href="textedit://C:/Users/Javier/Documents/lilypond%20scores/ricci-fingerings.ly:84:18:19"
     id="a2196"
     transform="translate(-5.6906,-57.139999)">
    <g
       transform="translate(16.6433,61.6606)"
       id="g2194">
      <path
         transform="scale(0.0036,-0.0036)"
         d="M 69,-250 187,76 C 154,64 119,54 84,54 38,54 -3,87 -3,133 c 0,40 33,72 73,72 25,0 49,-14 57,-38 10,-27 4,-59 33,-59 15,0 52,45 59,59 6,13 26,13 31,0 L 129,-250 c -9,-7 -19,-11 -30,-11 -11,0 -21,4 -30,11 z"
         fill="currentColor"
         id="path2192" />
    </g>
  </a>
  <g
     transform="translate(0.80000003,5.4206011)"
     id="g2200">
    <path
       transform="scale(0.0036,-0.0036)"
       d="m 378,263 c 4,0 7,1 11,1 156,0 257,-129 257,-262 0,-76 -34,-154 -108,-210 -22,-17 -46,-29 -72,-37 3,-34 5,-68 5,-102 0,-20 -1,-40 -2,-60 -7,-121 -90,-228 -209,-228 -108,0 -196,87 -196,196 0,58 53,104 112,104 54,0 95,-48 95,-104 0,-52 -43,-95 -95,-95 -10,0 -20,2 -29,6 26,-38 68,-63 116,-63 h 3 c 93,2 153,92 159,190 1,19 2,37 2,56 0,30 -2,60 -4,90 -29,-5 -58,-8 -88,-8 -188,0 -333,173 -333,375 0,177 130,307 246,442 -20,62 -38,125 -46,190 -6,52 -7,104 -7,157 0,115 55,223 148,290 7,5 16,4 22,-1 71,-83 134,-244 134,-357 0,-143 -85,-255 -178,-364 21,-68 40,-137 57,-206 z m 84,-465 c 67,24 111,94 111,162 0,89 -65,178 -170,190 24,-115 46,-230 59,-352 z M 75,26 c 0,-134 129,-245 263,-245 28,0 55,2 81,6 C 405,-87 383,31 358,150 279,142 234,89 234,31 c 0,-43 25,-89 80,-121 5,-5 7,-11 7,-16 0,-12 -10,-23 -22,-23 -3,0 -6,1 -9,2 -81,43 -118,116 -118,186 0,89 58,175 161,198 -14,58 -29,116 -46,173 C 181,308 75,186 75,26 Z M 406,1042 C 307,995 244,894 244,785 c 0,-73 20,-132 38,-191 79,97 144,199 144,324 0,53 -4,76 -20,124 z"
       fill="currentColor"
       id="path2198" />
  </g>
  <a
     style="color:inherit"
     xlink:href="textedit://C:/Users/Javier/Documents/lilypond%20scores/ricci-fingerings.ly:81:4:5"
     id="a2210"
     transform="translate(-5.6906,-57.139999)">
    <g
       transform="translate(9.9906,59.8606)"
       id="g2204">
      <path
         transform="scale(0.0036,-0.0036)"
         d="m 217,-311 c 0,-11 -8,-19 -19,-19 -11,0 -20,8 -20,19 v 142 l -81,-30 v -156 c 0,-11 -9,-20 -20,-20 -11,0 -19,9 -19,20 v 142 l -28,-11 c -3,-1 -5,-1 -8,-1 -12,0 -22,10 -22,23 v 57 c 0,9 6,18 15,21 l 43,16 V 49 L 30,39 C 27,38 25,38 22,38 10,38 0,47 0,60 v 57 c 0,9 6,18 15,21 l 43,16 v 157 c 0,11 8,19 19,19 11,0 20,-8 20,-19 V 169 l 81,30 v 156 c 0,11 9,20 20,20 11,0 19,-9 19,-20 V 213 l 28,11 c 3,1 5,1 8,1 12,0 22,-10 22,-23 v -57 c 0,-9 -6,-18 -15,-21 L 217,108 V -49 l 28,10 c 3,1 5,1 8,1 12,0 22,-9 22,-22 v -57 c 0,-9 -6,-18 -15,-21 l -43,-16 z M 97,64 V -94 l 81,30 V 94 Z"
         fill="currentColor"
         id="path2202" />
    </g>
    <g
       transform="translate(10.9806,61.2106)"
       id="g2208">
      <path
         transform="scale(0.0036,-0.0036)"
         d="m 217,-311 c 0,-11 -8,-19 -19,-19 -11,0 -20,8 -20,19 v 142 l -81,-30 v -156 c 0,-11 -9,-20 -20,-20 -11,0 -19,9 -19,20 v 142 l -28,-11 c -3,-1 -5,-1 -8,-1 -12,0 -22,10 -22,23 v 57 c 0,9 6,18 15,21 l 43,16 V 49 L 30,39 C 27,38 25,38 22,38 10,38 0,47 0,60 v 57 c 0,9 6,18 15,21 l 43,16 v 157 c 0,11 8,19 19,19 11,0 20,-8 20,-19 V 169 l 81,30 v 156 c 0,11 9,20 20,20 11,0 19,-9 19,-20 V 213 l 28,11 c 3,1 5,1 8,1 12,0 22,-10 22,-23 v -57 c 0,-9 -6,-18 -15,-21 L 217,108 V -49 l 28,10 c 3,1 5,1 8,1 12,0 22,-9 22,-22 v -57 c 0,-9 -6,-18 -15,-21 l -43,-16 z M 97,64 V -94 l 81,30 V 94 Z"
         fill="currentColor"
         id="path2206" />
    </g>
  </a>
  <g
     transform="translate(7.43,4.5206011)"
     id="g2214">
    <path
       transform="scale(0.0036,-0.0036)"
       d="m 358,29 c -49,0 -74,41 -74,73 0,38 27,76 71,76 4,0 7,0 11,-1 -27,36 -69,59 -116,59 -106,0 -113,-74 -113,-188 0,-15 1,-31 1,-48 0,-17 -1,-33 -1,-48 0,-114 7,-188 113,-188 79,0 136,70 155,150 2,7 7,10 13,10 7,0 14,-5 14,-13 0,-95 -105,-175 -182,-175 -68,0 -137,20 -184,70 C 17,-143 0,-71 0,0 c 0,71 17,143 66,194 47,50 116,70 184,70 86,0 159,-66 173,-152 1,-4 1,-9 1,-13 0,-39 -30,-70 -66,-70 z"
       fill="currentColor"
       id="path2212" />
  </g>
  <a
     style="color:inherit"
     xlink:href="textedit://C:/Users/Javier/Documents/lilypond%20scores/ricci-fingerings.ly:86:27:28"
     id="a2220"
     transform="translate(-5.6906,-57.139999)">
    <g
       transform="translate(31.2156,61.2106)"
       id="g2218">
      <path
         transform="scale(0.0036,-0.0036)"
         d="m 215,137 c 57,0 111,-29 111,-92 0,-71 -54,-120 -101,-148 -35,-21 -74,-34 -114,-34 -57,0 -111,29 -111,92 0,71 54,120 101,148 35,21 74,34 114,34 z"
         fill="currentColor"
         id="path2216" />
    </g>
  </a>
  <a
     style="color:inherit"
     xlink:href="textedit://C:/Users/Javier/Documents/lilypond%20scores/ricci-fingerings.ly:86:30:31"
     id="a2226"
     transform="translate(-5.6906,-57.139999)">
    <g
       transform="translate(31.4263,59.3623)"
       id="g2224">
      <path
         transform="scale(0.002,-0.002)"
         d="m 129,149 h 7 c 36,0 74,-13 111,-40 19,-14 40,-21 59,-21 22,0 40,10 46,31 2,7 7,11 13,11 7,0 15,-5 15,-14 v -5 C 361,40 296,0 234,0 196,0 159,15 133,47 121,62 105,69 89,69 60,69 32,48 29,13 28,4 22,0 15,0 8,0 0,5 0,14 c 0,173 233,163 233,341 0,56 -14,116 -62,116 -33,0 -66,-15 -66,-44 0,-24 31,-37 31,-61 0,-34 -27,-61 -61,-61 -34,0 -61,27 -61,61 0,78 74,134 157,134 98,0 191,-55 191,-145 C 362,211 227,199 129,149 Z"
         fill="currentColor"
         id="path2222" />
    </g>
  </a>
  <g
     transform="translate(25.5878,4.5206011)"
     id="g2230">
    <rect
       x="-0.062799998"
       y="-0.2886"
       width="0.12549999"
       height="2.2623"
       ry="0.039999999"
       fill="currentColor"
       id="rect2228" />
  </g>
  <a
     style="color:inherit"
     xlink:href="textedit://C:/Users/Javier/Documents/lilypond%20scores/ricci-fingerings.ly:87:4:5"
     id="a2236"
     transform="translate(-5.6906,-57.139999)">
    <g
       transform="translate(34.3281,60.7606)"
       id="g2234">
      <path
         transform="scale(0.0036,-0.0036)"
         d="m 215,137 c 57,0 111,-29 111,-92 0,-71 -54,-120 -101,-148 -35,-21 -74,-34 -114,-34 -57,0 -111,29 -111,92 0,71 54,120 101,148 35,21 74,34 114,34 z"
         fill="currentColor"
         id="path2232" />
    </g>
  </a>
  <a
     style="color:inherit"
     xlink:href="textedit://C:/Users/Javier/Documents/lilypond%20scores/ricci-fingerings.ly:87:8:9"
     id="a2242"
     transform="translate(-5.6906,-57.139999)">
    <g
       transform="translate(34.5388,59.3623)"
       id="g2240">
      <path
         transform="scale(0.002,-0.002)"
         d="m 129,149 h 7 c 36,0 74,-13 111,-40 19,-14 40,-21 59,-21 22,0 40,10 46,31 2,7 7,11 13,11 7,0 15,-5 15,-14 v -5 C 361,40 296,0 234,0 196,0 159,15 133,47 121,62 105,69 89,69 60,69 32,48 29,13 28,4 22,0 15,0 8,0 0,5 0,14 c 0,173 233,163 233,341 0,56 -14,116 -62,116 -33,0 -66,-15 -66,-44 0,-24 31,-37 31,-61 0,-34 -27,-61 -61,-61 -34,0 -61,27 -61,61 0,78 74,134 157,134 98,0 191,-55 191,-145 C 362,211 227,199 129,149 Z"
         fill="currentColor"
         id="path2238" />
    </g>
  </a>
  <g
     transform="translate(28.7003,4.5206011)"
     id="g2246">
    <rect
       x="-0.062799998"
       y="-0.73860002"
       width="0.12549999"
       height="2.3666"
       ry="0.039999999"
       fill="currentColor"
       id="rect2244" />
  </g>
  <g
     transform="translate(27.2975,3.6206011)"
     id="g2250">
    <path
       transform="scale(0.0036,-0.0036)"
       d="m 217,-311 c 0,-11 -8,-19 -19,-19 -11,0 -20,8 -20,19 v 142 l -81,-30 v -156 c 0,-11 -9,-20 -20,-20 -11,0 -19,9 -19,20 v 142 l -28,-11 c -3,-1 -5,-1 -8,-1 -12,0 -22,10 -22,23 v 57 c 0,9 6,18 15,21 l 43,16 V 49 L 30,39 C 27,38 25,38 22,38 10,38 0,47 0,60 v 57 c 0,9 6,18 15,21 l 43,16 v 157 c 0,11 8,19 19,19 11,0 20,-8 20,-19 V 169 l 81,30 v 156 c 0,11 9,20 20,20 11,0 19,-9 19,-20 V 213 l 28,11 c 3,1 5,1 8,1 12,0 22,-10 22,-23 v -57 c 0,-9 -6,-18 -15,-21 L 217,108 V -49 l 28,10 c 3,1 5,1 8,1 12,0 22,-9 22,-22 v -57 c 0,-9 -6,-18 -15,-21 l -43,-16 z M 97,64 V -94 l 81,30 V 94 Z"
       fill="currentColor"
       id="path2248" />
  </g>
  <g
     transform="translate(18.4439,4.9706011)"
     id="g2254">
    <path
       transform="scale(0.0036,-0.0036)"
       d="m 217,-311 c 0,-11 -8,-19 -19,-19 -11,0 -20,8 -20,19 v 142 l -81,-30 v -156 c 0,-11 -9,-20 -20,-20 -11,0 -19,9 -19,20 v 142 l -28,-11 c -3,-1 -5,-1 -8,-1 -12,0 -22,10 -22,23 v 57 c 0,9 6,18 15,21 l 43,16 V 49 L 30,39 C 27,38 25,38 22,38 10,38 0,47 0,60 v 57 c 0,9 6,18 15,21 l 43,16 v 157 c 0,11 8,19 19,19 11,0 20,-8 20,-19 V 169 l 81,30 v 156 c 0,11 9,20 20,20 11,0 19,-9 19,-20 V 213 l 28,11 c 3,1 5,1 8,1 12,0 22,-10 22,-23 v -57 c 0,-9 -6,-18 -15,-21 L 217,108 V -49 l 28,10 c 3,1 5,1 8,1 12,0 22,-9 22,-22 v -57 c 0,-9 -6,-18 -15,-21 l -43,-16 z M 97,64 V -94 l 81,30 V 94 Z"
       fill="currentColor"
       id="path2252" />
  </g>
  <a
     style="color:inherit"
     xlink:href="textedit://C:/Users/Javier/Documents/lilypond%20scores/ricci-fingerings.ly:86:23:24"
     id="a2260"
     transform="translate(-5.6906,-57.139999)">
    <g
       transform="translate(28.345,61.6606)"
       id="g2258">
      <path
         transform="scale(0.0036,-0.0036)"
         d="m 215,137 c 57,0 111,-29 111,-92 0,-71 -54,-120 -101,-148 -35,-21 -74,-34 -114,-34 -57,0 -111,29 -111,92 0,71 54,120 101,148 35,21 74,34 114,34 z"
         fill="currentColor"
         id="path2256" />
    </g>
  </a>
  <a
     style="color:inherit"
     xlink:href="textedit://C:/Users/Javier/Documents/lilypond%20scores/ricci-fingerings.ly:86:24:25"
     id="a2266"
     transform="translate(-5.6906,-57.139999)">
    <g
       transform="translate(28.5728,59.3623)"
       id="g2264">
      <path
         transform="scale(0.002,-0.002)"
         d="M 129,129 H 259 C 259,77 291,29 340,29 350,29 354,21 354,14 354,7 350,0 340,0 291,0 243,14 194,14 145,14 98,0 49,0 39,0 34,7 34,14 c 0,7 5,15 15,15 49,0 80,48 80,100 z M 0,250 129,500 c 3,7 13,3 21,0 14,-6 28,-14 44,-14 16,0 31,8 45,14 2,1 2,1 4,1 8,0 16,-9 16,-21 V 129 H 129 v 215 c 0,15 -11,23 -20,23 -5,0 -9,-2 -11,-7 L 32,233 c -4,-7 -9,-9 -15,-9 -9,0 -19,7 -19,17 0,3 0,6 2,9 z"
         fill="currentColor"
         id="path2262" />
    </g>
  </a>
  <g
     transform="translate(22.7172,4.5206011)"
     id="g2270">
    <rect
       x="-0.062799998"
       y="0.16140001"
       width="0.12549999"
       height="2.0885999"
       ry="0.039999999"
       fill="currentColor"
       id="rect2268" />
  </g>
</svg>
