<svg
   version="1.2"
   width="17.406809mm"
   height="15.341984mm"
   viewBox="0 0 9.9054358 8.7304359"
   id="svg155442"
   sodipodi:docname="loose examples-2.svg"
   xmlns:inkscape="http://www.inkscape.org/namespaces/inkscape"
   xmlns:sodipodi="http://sodipodi.sourceforge.net/DTD/sodipodi-0.dtd"
   xmlns:xlink="http://www.w3.org/1999/xlink"
   xmlns="http://www.w3.org/2000/svg"
   xmlns:svg="http://www.w3.org/2000/svg">
  <defs
     id="defs155446" />
  <sodipodi:namedview
     id="namedview155444"
     pagecolor="#ffffff"
     bordercolor="#000000"
     borderopacity="0.25"
     inkscape:showpageshadow="2"
     inkscape:pageopacity="0.0"
     inkscape:pagecheckerboard="0"
     inkscape:deskcolor="#d1d1d1"
     inkscape:document-units="mm"
     showgrid="false" />
  <style
     type="text/css"
     id="style152866"><![CDATA[
tspan { white-space: pre; }
]]></style>
  <!-- Page: 2/3 -->
  <g
     transform="translate(3.1967416e-8,5.7789999)"
     id="g152876">
    <line
       stroke-linejoin="round"
       stroke-linecap="round"
       stroke-width="0.1"
       stroke="currentColor"
       x1="0.050000001"
       y1="0"
       x2="8.7523003"
       y2="0"
       id="line152874" />
  </g>
  <g
     transform="translate(3.1967416e-8,4.7789999)"
     id="g152880">
    <line
       stroke-linejoin="round"
       stroke-linecap="round"
       stroke-width="0.1"
       stroke="currentColor"
       x1="0.050000001"
       y1="0"
       x2="8.7523003"
       y2="0"
       id="line152878" />
  </g>
  <g
     transform="translate(3.1967416e-8,3.7789999)"
     id="g152884">
    <line
       stroke-linejoin="round"
       stroke-linecap="round"
       stroke-width="0.1"
       stroke="currentColor"
       x1="0.050000001"
       y1="0"
       x2="8.7523003"
       y2="0"
       id="line152882" />
  </g>
  <g
     transform="translate(3.1967416e-8,2.7789999)"
     id="g152888">
    <line
       stroke-linejoin="round"
       stroke-linecap="round"
       stroke-width="0.1"
       stroke="currentColor"
       x1="0.050000001"
       y1="0"
       x2="8.7523003"
       y2="0"
       id="line152886" />
  </g>
  <g
     transform="translate(3.1967416e-8,1.7789999)"
     id="g152892">
    <line
       stroke-linejoin="round"
       stroke-linecap="round"
       stroke-width="0.1"
       stroke="currentColor"
       x1="0.050000001"
       y1="0"
       x2="8.7523003"
       y2="0"
       id="line152890" />
  </g>
  <g
     transform="translate(5.860995,6.4165369)"
     id="g152896">
    <rect
       x="-0.064999998"
       y="-4.6666999"
       width="0.13"
       height="6.9805999"
       ry="0.039999999"
       fill="currentColor"
       id="rect152894" />
  </g>
  <g
     transform="translate(0.80000003,4.7789999)"
     id="g152900">
    <path
       transform="scale(0.004,-0.004)"
       d="m 266,-635 h -6 c -108,0 -195,88 -195,197 0,58 53,103 112,103 54,0 95,-47 95,-103 0,-52 -43,-95 -95,-95 -11,0 -21,2 -31,6 26,-39 68,-65 117,-65 h 4 z m 195,432 c 68,24 113,95 113,164 0,90 -66,179 -173,190 24,-116 46,-231 60,-354 z M 74,28 c 0,-135 129,-247 264,-247 28,0 55,2 82,6 C 406,-86 383,32 357,151 278,143 233,90 233,32 c 0,-44 25,-91 81,-123 5,-5 7,-10 7,-15 0,-11 -10,-22 -22,-22 -3,0 -6,1 -9,2 -80,43 -117,115 -117,185 0,88 58,174 160,197 -14,58 -29,117 -46,175 C 180,310 74,188 74,28 Z M 335,-262 C 147,-262 2,-90 2,112 c 0,177 131,306 248,441 -19,62 -37,125 -45,190 -6,52 -7,104 -7,156 0,115 55,224 149,292 6,5 14,5 20,0 71,-84 133,-245 133,-358 0,-143 -86,-255 -180,-364 21,-68 39,-138 56,-207 4,0 9,1 13,1 155,0 256,-128 256,-261 0,-76 -33,-154 -107,-210 -22,-17 -47,-28 -73,-36 3,-35 5,-70 5,-105 0,-19 -1,-39 -2,-58 -7,-119 -88,-225 -202,-228 l 1,43 c 93,2 153,92 159,191 1,18 2,37 2,55 0,31 -1,61 -4,92 -29,-5 -58,-8 -89,-8 z m 93,1178 c 0,55 -4,79 -20,129 -99,-48 -162,-149 -162,-259 0,-74 18,-133 36,-194 80,97 146,198 146,324 z"
       fill="currentColor"
       id="path152898" />
  </g>
  <a
     style="color:inherit"
     xlink:href="textedit://C:/Users/Javier/Documents/lilypond%20scores/loose%20examples.ly:232:14:15"
     id="a152906"
     transform="translate(-2.6892652,-4.4927689)">
    <g
       transform="translate(11.6817,11.3886)"
       id="g152904">
      <path
         transform="scale(0.0022,-0.0022)"
         d="m 198,284 c 24,15 48,29 65,52 12,16 19,34 28,52 2,5 6,7 11,7 8,0 16,-6 16,-17 V 161 h 79 c 12,0 18,-9 18,-18 0,-9 -6,-18 -18,-18 h -79 c 2,-51 33,-96 80,-96 10,0 15,-8 15,-15 C 413,7 408,0 398,0 349,0 302,14 253,14 204,14 156,0 107,0 97,0 93,7 93,14 c 0,7 4,15 14,15 47,0 79,45 81,96 H 36 c -29,0 -38,17 -38,28 0,3 1,6 2,8 78,88 123,201 123,319 0,11 8,21 17,21 1,0 3,-1 4,-1 25,-7 50,-14 76,-14 26,0 52,7 77,14 2,1 4,1 6,1 10,0 17,-7 17,-14 0,-2 0,-5 -2,-7 L 36,161 h 152 v 96 c 0,10 1,21 10,27 z"
         fill="currentColor"
         id="path152902" />
    </g>
  </a>
  <a
     style="color:inherit"
     xlink:href="textedit://C:/Users/Javier/Documents/lilypond%20scores/loose%20examples.ly:232:16:17"
     id="a152912"
     transform="translate(-2.6892652,-4.4018193)">
    <g
       transform="translate(11.75,9.7619)"
       id="g152910">
      <path
         transform="scale(0.0022,-0.0022)"
         d="m 155,471 c -34,0 -70,-8 -70,-38 0,-19 31,-23 31,-42 0,-28 -23,-51 -51,-51 -28,0 -51,23 -51,51 0,67 68,109 141,109 93,0 174,-31 174,-113 0,-41 -6,-77 -42,-94 -11,-5 -17,-16 -17,-27 0,-11 6,-22 17,-27 40,-19 59,-53 59,-98 C 346,47 263,0 160,0 78,0 0,45 0,119 c 0,32 26,58 58,58 32,0 58,-26 58,-58 0,-22 -36,-26 -36,-48 0,-33 42,-42 80,-42 46,0 56,58 56,112 v 38 c 0,40 -4,69 -43,69 H 99 c -12,0 -18,9 -18,18 0,9 6,18 18,18 h 74 c 40,0 43,31 43,73 v 30 c 0,50 -16,84 -61,84 z"
         fill="currentColor"
         id="path152908" />
    </g>
  </a>
  <a
     style="color:inherit"
     xlink:href="textedit://C:/Users/Javier/Documents/lilypond%20scores/loose%20examples.ly:232:18:19"
     id="a152918"
     transform="translate(-2.6892652,-4.3336071)">
    <g
       transform="translate(11.7159,8.1352)"
       id="g152916">
      <path
         transform="scale(0.0022,-0.0022)"
         d="m 129,149 h 7 c 36,0 74,-13 111,-40 19,-14 40,-21 59,-21 22,0 40,10 46,31 2,7 7,11 13,11 7,0 15,-5 15,-14 v -5 C 361,40 296,0 234,0 196,0 159,15 133,47 121,62 105,69 89,69 60,69 32,48 29,13 28,4 22,0 15,0 8,0 0,5 0,14 c 0,173 233,163 233,341 0,56 -14,116 -62,116 -33,0 -66,-15 -66,-44 0,-24 31,-37 31,-61 0,-34 -27,-61 -61,-61 -34,0 -61,27 -61,61 0,78 74,134 157,134 98,0 191,-55 191,-145 C 362,211 227,199 129,149 Z"
         fill="currentColor"
         id="path152914" />
    </g>
  </a>
  <a
     style="color:inherit"
     xlink:href="textedit://C:/Users/Javier/Documents/lilypond%20scores/loose%20examples.ly:232:20:21"
     id="a152924"
     transform="translate(-2.6892652,-4.3336071)">
    <g
       transform="translate(11.75,6.5085)"
       id="g152922">
      <path
         transform="scale(0.0022,-0.0022)"
         d="M 129,129 H 259 C 259,77 291,29 340,29 350,29 354,21 354,14 354,7 350,0 340,0 291,0 243,14 194,14 145,14 98,0 49,0 39,0 34,7 34,14 c 0,7 5,15 15,15 49,0 80,48 80,100 z M 0,250 129,500 c 3,7 13,3 21,0 14,-6 28,-14 44,-14 16,0 31,8 45,14 2,1 2,1 4,1 8,0 16,-9 16,-21 V 129 H 129 v 215 c 0,15 -11,23 -20,23 -5,0 -9,-2 -11,-7 L 32,233 c -4,-7 -9,-9 -15,-9 -9,0 -19,7 -19,17 0,3 0,6 2,9 z"
         fill="currentColor"
         id="path152920" />
    </g>
  </a>
  <a
     style="color:inherit"
     xlink:href="textedit://C:/Users/Javier/Documents/lilypond%20scores/loose%20examples.ly:232:11:12"
     id="a152930"
     transform="translate(-5.6906,-10.6546)">
    <g
       transform="translate(11.4906,12.4336)"
       id="g152928">
      <path
         transform="scale(0.004,-0.004)"
         d="m 218,136 c 55,0 108,-28 108,-89 0,-71 -55,-121 -102,-149 -35,-21 -75,-34 -116,-34 -55,0 -108,28 -108,89 0,71 55,121 102,149 35,21 75,34 116,34 z"
         fill="currentColor"
         id="path152926" />
    </g>
  </a>
  <a
     style="color:inherit"
     xlink:href="textedit://C:/Users/Javier/Documents/lilypond%20scores/loose%20examples.ly:232:9:10"
     id="a152936"
     transform="translate(-5.6906,-10.6546)">
    <g
       transform="translate(11.4906,13.9336)"
       id="g152934">
      <path
         transform="scale(0.004,-0.004)"
         d="m 218,136 c 55,0 108,-28 108,-89 0,-71 -55,-121 -102,-149 -35,-21 -75,-34 -116,-34 -55,0 -108,28 -108,89 0,71 55,121 102,149 35,21 75,34 116,34 z"
         fill="currentColor"
         id="path152932" />
    </g>
  </a>
  <a
     style="color:inherit"
     xlink:href="textedit://C:/Users/Javier/Documents/lilypond%20scores/loose%20examples.ly:232:7:8"
     id="a152942"
     transform="translate(-5.6906,-10.6546)">
    <g
       transform="translate(11.4906,15.4336)"
       id="g152940">
      <path
         transform="scale(0.004,-0.004)"
         d="m 218,136 c 55,0 108,-28 108,-89 0,-71 -55,-121 -102,-149 -35,-21 -75,-34 -116,-34 -55,0 -108,28 -108,89 0,71 55,121 102,149 35,21 75,34 116,34 z"
         fill="currentColor"
         id="path152938" />
    </g>
  </a>
  <a
     style="color:inherit"
     xlink:href="textedit://C:/Users/Javier/Documents/lilypond%20scores/loose%20examples.ly:232:5:6"
     id="a152948"
     transform="translate(-5.6906,-10.6546)">
    <g
       transform="translate(11.4906,16.9336)"
       id="g152946">
      <path
         transform="scale(0.004,-0.004)"
         d="m 218,136 c 55,0 108,-28 108,-89 0,-71 -55,-121 -102,-149 -35,-21 -75,-34 -116,-34 -55,0 -108,28 -108,89 0,71 55,121 102,149 35,21 75,34 116,34 z"
         fill="currentColor"
         id="path152944" />
    </g>
  </a>
</svg>
